<svg width="138" height="138" viewBox="0 0 138 138" fill="none" xmlns="http://www.w3.org/2000/svg">
    <path d="M138 105.542H0V105.611H138V105.542Z" fill="#EBEBEB"/>
    <path d="M124.17 109.983H115.029V110.052H124.17V109.983Z" fill="#EBEBEB"/>
    <path d="M91.416 110.734H89.0176V110.803H91.416V110.734Z" fill="#EBEBEB"/>
    <path d="M114.755 107.422H109.459V107.491H114.755V107.422Z" fill="#EBEBEB"/>
    <path d="M26.4009 107.885H14.4805V107.954H26.4009V107.885Z" fill="#EBEBEB"/>
    <path d="M30.6065 107.885H28.8594V107.954H30.6065V107.885Z" fill="#EBEBEB"/>
    <path d="M62.1408 109.05H36.2852V109.119H62.1408V109.05Z" fill="#EBEBEB"/>
    <path d="M65.4129 93.2325H12.1201C11.7026 93.2318 11.3024 93.0654 11.0075 92.7699C10.7125 92.4745 10.5469 92.074 10.5469 91.6565V16.7418C10.5505 16.3268 10.7178 15.9298 11.0123 15.6374C11.3069 15.3449 11.705 15.1804 12.1201 15.1797H65.4129C65.8309 15.1797 66.2317 15.3457 66.5273 15.6413C66.8228 15.9368 66.9889 16.3377 66.9889 16.7556V91.6565C66.9889 92.0745 66.8228 92.4753 66.5273 92.7709C66.2317 93.0665 65.8309 93.2325 65.4129 93.2325ZM12.1201 15.2349C11.7209 15.2356 11.3383 15.3947 11.0563 15.6772C10.7743 15.9598 10.6159 16.3427 10.6159 16.7418V91.6565C10.6159 92.0557 10.7743 92.4386 11.0563 92.7211C11.3383 93.0037 11.7209 93.1628 12.1201 93.1635H65.4129C65.8124 93.1628 66.1952 93.0038 66.4777 92.7213C66.7601 92.4389 66.9191 92.056 66.9199 91.6565V16.7418C66.9191 16.3424 66.7601 15.9595 66.4777 15.6771C66.1952 15.3946 65.8124 15.2356 65.4129 15.2349H12.1201Z" fill="#EBEBEB"/>
    <path d="M125.114 93.2325H71.8181C71.4004 93.2318 71 93.0655 70.7046 92.7701C70.4092 92.4747 70.2429 92.0743 70.2422 91.6565V16.7418C70.2465 16.3265 70.4144 15.9296 70.7094 15.6372C71.0044 15.3448 71.4028 15.1804 71.8181 15.1797H125.114C125.528 15.1811 125.926 15.3459 126.22 15.6383C126.514 15.9307 126.681 16.3272 126.684 16.7418V91.6565C126.684 92.0735 126.519 92.4736 126.225 92.7689C125.93 93.0643 125.531 93.231 125.114 93.2325ZM71.8181 15.2349C71.4187 15.2356 71.0358 15.3946 70.7534 15.6771C70.4709 15.9595 70.3119 16.3424 70.3112 16.7418V91.6565C70.3119 92.056 70.4709 92.4389 70.7534 92.7213C71.0358 93.0038 71.4187 93.1628 71.8181 93.1635H125.114C125.513 93.1628 125.896 93.0038 126.179 92.7213C126.461 92.4389 126.62 92.056 126.621 91.6565V16.7418C126.62 16.3424 126.461 15.9595 126.179 15.6771C125.896 15.3946 125.513 15.2356 125.114 15.2349H71.8181Z" fill="#EBEBEB"/>
    <path d="M73.9061 105.542H83.5938V69.461H73.9061V105.542Z" fill="#E6E6E6"/>
    <path d="M75.5181 105.542H73.9062V102.294H77.21L75.5181 105.542Z" fill="#F0F0F0"/>
    <path d="M113.336 105.542H123.023V69.461H113.336V105.542Z" fill="#E6E6E6"/>
    <path d="M73.9091 104.295H114.746V69.461H73.9091V104.295Z" fill="#F0F0F0"/>
    <path d="M75.1605 80.5562H113.494V71.0038H75.1605V80.5562Z" fill="#E6E6E6"/>
    <path d="M92.5148 73.9681H96.1359C97.7091 73.9681 99.2133 72.7895 100.295 70.7085H88.3555C89.4374 72.7951 90.9416 73.9681 92.5148 73.9681Z" fill="#F0F0F0"/>
    <path d="M113.131 105.542H114.743V102.294H111.439L113.131 105.542Z" fill="#F0F0F0"/>
    <path d="M75.1605 91.6538H113.494V82.1015H75.1605V91.6538Z" fill="#E6E6E6"/>
    <path d="M92.5148 85.0691H96.1359C97.7091 85.0691 99.2133 83.8906 100.295 81.8096H88.3555C89.4374 83.9044 90.9416 85.0691 92.5148 85.0691Z" fill="#F0F0F0"/>
    <path d="M75.1605 102.752H113.494V93.1996H75.1605V102.752Z" fill="#E6E6E6"/>
    <path d="M92.5148 96.1668H96.1359C97.7091 96.1668 99.2133 94.9883 100.295 92.9072H88.3555C89.4374 94.9883 90.9416 96.1668 92.5148 96.1668Z" fill="#F0F0F0"/>
    <path d="M21.5245 61.2773L58.5195 61.2773L58.5195 23.8435L21.5245 23.8435L21.5245 61.2773Z" fill="#E6E6E6"/>
    <path d="M18.955 61.2773L57.8379 61.2773L57.8379 23.8435L18.955 23.8435L18.955 61.2773Z" fill="#F0F0F0"/>
    <path d="M54.584 58.0209V27.1006L22.2175 27.1006V58.0209H54.584Z" fill="white"/>
    <path d="M38.1769 31.1879L32.2374 37.1385C30.8021 38.5773 29.9961 40.5267 29.9961 42.5591C29.9961 44.5915 30.8021 46.5408 32.2374 47.9797L38.1769 53.922C38.2059 53.9511 38.2403 53.9741 38.2782 53.9898C38.3161 54.0055 38.3567 54.0136 38.3977 54.0136C38.4388 54.0136 38.4794 54.0055 38.5173 53.9898C38.5552 53.9741 38.5896 53.9511 38.6185 53.922L44.5608 47.9797C45.9961 46.5408 46.8022 44.5915 46.8022 42.5591C46.8022 40.5267 45.9961 38.5773 44.5608 37.1385L38.6213 31.1879C38.562 31.1297 38.4822 31.0972 38.3991 31.0972C38.316 31.0972 38.2363 31.1297 38.1769 31.1879ZM32.679 47.5271C31.3612 46.2057 30.6212 44.4156 30.6212 42.5494C30.6212 40.6832 31.3612 38.8932 32.679 37.5718V47.5271ZM44.1192 47.5271V37.5828C45.437 38.9042 46.1771 40.6943 46.1771 42.5605C46.1771 44.4267 45.437 46.2167 44.1192 47.5381V47.5271Z" fill="#F0F0F0"/>
    <path d="M112.292 56.5801H91.6219L90.4434 68.7848H111.113L112.292 56.5801Z" fill="#E6E6E6"/>
    <path d="M111.113 68.7847L111.03 69.4609H90.3574L90.443 68.7847H111.113Z" fill="#E6E6E6"/>
    <path d="M111.656 56.5801H90.986L89.8047 68.7848H110.474L111.656 56.5801Z" fill="#F0F0F0"/>
    <path d="M110.058 67.9897L110.922 57.4078C110.924 57.3726 110.919 57.3373 110.907 57.3041C110.895 57.2709 110.877 57.2404 110.853 57.2146C110.829 57.1888 110.8 57.1681 110.767 57.1539C110.735 57.1396 110.7 57.1321 110.665 57.1318H91.6622C91.5971 57.1316 91.5342 57.1559 91.4862 57.1999C91.4381 57.2438 91.4083 57.3043 91.4028 57.3692L90.5279 67.9483C90.5256 67.9837 90.5306 68.0192 90.5427 68.0527C90.5547 68.0861 90.5734 68.1167 90.5977 68.1425C90.6221 68.1684 90.6514 68.189 90.684 68.2031C90.7167 68.2171 90.7518 68.2244 90.7873 68.2243H109.79C109.856 68.2274 109.921 68.2047 109.971 68.1609C110.021 68.1172 110.052 68.0558 110.058 67.9897Z" fill="white"/>
    <path d="M105.089 68.7847L105.006 69.4609H82.2441L82.3269 68.7847H105.089Z" fill="#F0F0F0"/>
    <path d="M77.3053 50.0557L116.119 50.0557V24.2524L77.3053 24.2524V50.0557Z" fill="#E6E6E6"/>
    <path d="M76.4439 50.0557L115.258 50.0557V24.2524L76.4439 24.2524V50.0557Z" fill="#F5F5F5"/>
    <path d="M113.709 48.3165V25.9937L77.9918 25.9937V48.3165H113.709Z" fill="white"/>
    <path d="M78.6406 48.3141V25.9912H77.9893V48.3141H78.6406Z" fill="#E6E6E6"/>
    <path d="M77.084 45.3555L114.617 45.3555V43.0205L77.084 43.0205V45.3555Z" fill="#F5F5F5"/>
    <path d="M74.7538 21.3765H117.81C117.873 21.3772 117.932 21.4024 117.977 21.4468C118.021 21.4911 118.046 21.5511 118.047 21.6138C118.047 21.6768 118.022 21.7372 117.978 21.7817C117.933 21.8262 117.873 21.8512 117.81 21.8512H74.7538C74.7224 21.8516 74.6912 21.8457 74.6621 21.8339C74.633 21.8222 74.6065 21.8047 74.5842 21.7826C74.5618 21.7606 74.5441 21.7343 74.532 21.7053C74.5199 21.6763 74.5137 21.6452 74.5137 21.6138C74.5144 21.5506 74.54 21.4903 74.585 21.4458C74.6299 21.4014 74.6906 21.3765 74.7538 21.3765Z" fill="#E6E6E6"/>
    <path d="M73.9199 21.6137C73.9199 21.7315 73.9548 21.8467 74.0202 21.9447C74.0856 22.0426 74.1785 22.1191 74.2873 22.1643C74.3961 22.2095 74.5158 22.2214 74.6314 22.1986C74.747 22.1759 74.8532 22.1194 74.9367 22.0363C75.0201 21.9532 75.0771 21.8472 75.1005 21.7317C75.1238 21.6163 75.1124 21.4965 75.0677 21.3875C75.023 21.2785 74.947 21.1852 74.8493 21.1194C74.7516 21.0536 74.6366 21.0181 74.5188 21.0176C74.4403 21.0172 74.3625 21.0324 74.2899 21.0622C74.2172 21.092 74.1512 21.1358 74.0955 21.1912C74.0399 21.2466 73.9957 21.3125 73.9656 21.385C73.9354 21.4575 73.9199 21.5352 73.9199 21.6137Z" fill="#E6E6E6"/>
    <path d="M115.797 22.949C115.881 22.949 115.963 22.9157 116.023 22.8564C116.084 22.797 116.118 22.7163 116.12 22.6316V21.9416C116.12 21.8559 116.086 21.7738 116.025 21.7132C115.965 21.6527 115.882 21.6187 115.797 21.6187C115.754 21.6187 115.713 21.627 115.674 21.6433C115.635 21.6595 115.599 21.6834 115.569 21.7134C115.54 21.7434 115.516 21.779 115.5 21.8182C115.484 21.8574 115.476 21.8993 115.477 21.9416V22.6316C115.478 22.7158 115.512 22.7961 115.572 22.8554C115.632 22.9147 115.713 22.9483 115.797 22.949Z" fill="#E6E6E6"/>
    <path d="M78.3468 22.949C78.4294 22.9455 78.5075 22.9108 78.5654 22.8518C78.6233 22.7929 78.6567 22.7142 78.6587 22.6316V21.9416C78.6587 21.8559 78.6247 21.7738 78.5641 21.7132C78.5036 21.6527 78.4214 21.6187 78.3358 21.6187C78.2935 21.6187 78.2517 21.627 78.2126 21.6433C78.1736 21.6595 78.1382 21.6834 78.1084 21.7134C78.0787 21.7434 78.0551 21.779 78.0392 21.8182C78.0233 21.8574 78.0153 21.8993 78.0156 21.9416V22.6316C78.0164 22.6742 78.0255 22.7163 78.0426 22.7554C78.0596 22.7945 78.0843 22.8298 78.1151 22.8593C78.1459 22.8888 78.1822 22.9119 78.222 22.9273C78.2618 22.9427 78.3042 22.9501 78.3468 22.949Z" fill="#E6E6E6"/>
    <path opacity="0.4" d="M74.8318 46.6826L114.617 46.6826V21.6135L74.8318 21.6135V46.6826Z" fill="#E0E0E0"/>
    <path d="M111.369 21.6137C111.369 21.7316 111.404 21.8469 111.47 21.9449C111.535 22.043 111.628 22.1194 111.737 22.1645C111.846 22.2096 111.966 22.2214 112.082 22.1984C112.197 22.1754 112.303 22.1187 112.387 22.0353C112.47 21.9519 112.527 21.8457 112.55 21.73C112.573 21.6144 112.561 21.4945 112.516 21.3856C112.471 21.2767 112.395 21.1836 112.297 21.118C112.198 21.0525 112.083 21.0176 111.965 21.0176C111.807 21.0176 111.656 21.0804 111.544 21.1922C111.432 21.304 111.369 21.4556 111.369 21.6137Z" fill="#E6E6E6"/>
    <path d="M55.0614 103.754H58.252V76.0794H55.0614V103.754Z" fill="#F0F0F0"/>
    <path d="M20.4518 105.506H57.0273V103.754H20.4518V105.506Z" fill="#F0F0F0"/>
    <path d="M55.0624 76.0796H19.2266V103.754H55.0624V76.0796Z" fill="#F5F5F5"/>
    <path d="M50.5874 79.4854H23.6995C22.6142 79.4854 21.7344 80.3652 21.7344 81.4505V86.5951C21.7344 87.6804 22.6142 88.5602 23.6995 88.5602H50.5874C51.6727 88.5602 52.5525 87.6804 52.5525 86.5951V81.4505C52.5525 80.3652 51.6727 79.4854 50.5874 79.4854Z" fill="#F0F0F0"/>
    <path d="M50.5874 91.2705H23.6995C22.6142 91.2705 21.7344 92.1503 21.7344 93.2356V98.3803C21.7344 99.4656 22.6142 100.345 23.6995 100.345H50.5874C51.6727 100.345 52.5525 99.4656 52.5525 98.3803V93.2356C52.5525 92.1503 51.6727 91.2705 50.5874 91.2705Z" fill="#F0F0F0"/>
    <path d="M30.4695 84.6466H43.8223C43.9873 84.6466 44.1455 84.5813 44.2624 84.4649C44.3793 84.3485 44.4454 84.1906 44.4461 84.0256C44.4454 83.8604 44.3794 83.7022 44.2626 83.5854C44.1458 83.4685 43.9876 83.4026 43.8223 83.4019H30.4695C30.3043 83.4026 30.146 83.4685 30.0292 83.5854C29.9124 83.7022 29.8464 83.8604 29.8457 84.0256C29.8464 84.1906 29.9125 84.3485 30.0294 84.4649C30.1463 84.5813 30.3045 84.6466 30.4695 84.6466Z" fill="#F5F5F5"/>
    <path d="M30.4695 96.4318H43.8223C43.9873 96.4318 44.1455 96.3664 44.2624 96.2501C44.3793 96.1337 44.4454 95.9757 44.4461 95.8108C44.4454 95.6456 44.3794 95.4873 44.2626 95.3705C44.1458 95.2537 43.9876 95.1877 43.8223 95.187H30.4695C30.3043 95.1877 30.146 95.2537 30.0292 95.3705C29.9124 95.4873 29.8464 95.6456 29.8457 95.8108C29.8464 95.9757 29.9125 96.1337 30.0294 96.2501C30.1463 96.3664 30.3045 96.4318 30.4695 96.4318Z" fill="#F5F5F5"/>
    <path d="M68.998 118.007C98.5528 118.007 122.512 116.608 122.512 114.883C122.512 113.157 98.5528 111.758 68.998 111.758C39.4432 111.758 15.4844 113.157 15.4844 114.883C15.4844 116.608 39.4432 118.007 68.998 118.007Z" fill="#F5F5F5"/>
    <path d="M80.8251 28H29.8203L33.7837 97.4609H84.7857L80.8251 28Z" fill="#263238"/>
    <path d="M81.8153 28H30.8105L34.7739 97.4609H85.7787L81.8153 28Z" fill="#FF7900"/>
    <path opacity="0.5" d="M78.3017 30.3345H33.1426L36.3801 93.21H82.7122L78.3017 30.3345Z" fill="black"/>
    <path d="M33.1426 30.3345C36.4987 51.2939 34.1969 72.2533 37.5586 93.21H83.8852C80.529 72.2533 82.8309 51.2939 79.4692 30.3345H33.1426Z" fill="white"/>
    <g opacity="0.3">
        <path d="M42.6171 49.1747C43.6402 49.1829 44.6211 49.5834 45.3575 50.2937C46.0939 51.0039 46.5297 51.9697 46.5749 52.9918C46.5955 53.4835 46.5159 53.9742 46.3408 54.4341C46.1657 54.894 45.8989 55.3135 45.5565 55.667C45.2141 56.0204 44.8034 56.3006 44.3493 56.4902C43.8952 56.6799 43.4072 56.7752 42.9152 56.7702C41.8984 56.7618 40.9239 56.3624 40.1937 55.6548C39.4635 54.9472 39.0336 53.9857 38.9932 52.9697C38.9719 52.4795 39.0497 51.99 39.2218 51.5305C39.394 51.071 39.657 50.6509 39.9951 50.2953C40.3343 49.9429 40.7417 49.6632 41.1925 49.4734C41.6433 49.2836 42.128 49.1876 42.6171 49.1913M42.5895 48.3936C41.9946 48.3899 41.4052 48.5076 40.8573 48.7394C40.3094 48.9713 39.8146 49.3124 39.403 49.742C38.9915 50.1717 38.6719 50.6807 38.4638 51.2381C38.2557 51.7954 38.1635 52.3893 38.1928 52.9835C38.241 54.2102 38.7595 55.3713 39.6408 56.2259C40.5222 57.0805 41.6986 57.563 42.9262 57.5734C43.5238 57.5784 44.1162 57.4619 44.6676 57.2312C45.2189 57.0005 45.7176 56.6603 46.1336 56.2311C46.5495 55.802 46.8741 55.2929 47.0875 54.7347C47.301 54.1765 47.3989 53.5807 47.3753 52.9835C47.316 51.7515 46.7869 50.5891 45.8967 49.7353C45.0064 48.8815 43.8229 48.4014 42.5895 48.3936Z" fill="#FF7900"/>
    </g>
    <path d="M68.2314 83.6051H53.6034C53.494 83.6032 53.3854 83.6247 53.2849 83.6681C53.1845 83.7115 53.0944 83.7759 53.0207 83.8569C52.9471 83.9378 52.8915 84.0335 52.8578 84.1377C52.8241 84.2418 52.8129 84.3519 52.8251 84.4607C52.8517 84.6933 52.9617 84.9085 53.1348 85.0663C53.3078 85.2241 53.5321 85.3139 53.7663 85.319H68.3943C68.5038 85.3211 68.6124 85.2995 68.7129 85.2559C68.8133 85.2123 68.9032 85.1476 68.9765 85.0662C69.0498 84.9848 69.1047 84.8886 69.1376 84.7842C69.1705 84.6797 69.1805 84.5694 69.1671 84.4607C69.1411 84.229 69.0319 84.0146 68.8599 83.8572C68.6878 83.6999 68.4645 83.6103 68.2314 83.6051Z" fill="#E0E0E0"/>
    <path d="M76.0553 80.0036H53.3074C53.1973 80.0015 53.0881 80.0227 52.9868 80.0659C52.8855 80.109 52.7944 80.1731 52.7196 80.2539C52.6448 80.3347 52.588 80.4304 52.5528 80.5347C52.5175 80.639 52.5048 80.7496 52.5153 80.8592C52.5351 81.0911 52.6404 81.3074 52.8108 81.466C52.9812 81.6246 53.2044 81.7143 53.4371 81.7175H76.174C76.2843 81.7207 76.3939 81.7005 76.4958 81.6582C76.5977 81.6159 76.6895 81.5525 76.7651 81.4722C76.8407 81.3919 76.8985 81.2965 76.9345 81.1922C76.9706 81.088 76.9842 80.9773 76.9744 80.8674C76.9565 80.6348 76.8524 80.4172 76.6823 80.2573C76.5123 80.0975 76.2887 80.007 76.0553 80.0036Z" fill="#E0E0E0"/>
    <g opacity="0.3">
        <path d="M43.0815 64.0319C44.097 64.0392 45.0705 64.4387 45.7983 65.147C46.5261 65.8553 46.952 66.8175 46.9869 67.8324C47.0055 68.3238 46.9249 68.8138 46.7499 69.2733C46.5749 69.7328 46.3091 70.1524 45.9684 70.5069C45.6275 70.86 45.2182 71.14 44.7655 71.3298C44.3128 71.5196 43.8262 71.6152 43.3354 71.6109C42.3174 71.6039 41.3412 71.2052 40.6093 70.4975C39.8775 69.7899 39.4463 68.8276 39.4051 67.8104C39.3884 67.3183 39.4713 66.8279 39.6488 66.3686C39.8263 65.9093 40.0948 65.4907 40.4382 65.1378C40.7815 64.7849 41.1927 64.505 41.6469 64.315C42.1011 64.1249 42.5891 64.0287 43.0815 64.0319ZM43.0815 63.2315C42.4834 63.2278 41.8908 63.345 41.3392 63.5759C40.7876 63.8069 40.2882 64.1469 39.8712 64.5755C39.4542 65.0041 39.128 65.5126 38.9123 66.0703C38.6966 66.6281 38.5957 67.2237 38.6158 67.8214C38.6648 69.0514 39.1861 70.2152 40.0714 71.0706C40.9566 71.926 42.1375 72.4072 43.3685 72.414C43.9648 72.4164 44.5553 72.298 45.1045 72.0659C45.6538 71.8338 46.1503 71.493 46.5643 71.0638C46.9782 70.6347 47.3009 70.1261 47.513 69.5689C47.7251 69.0116 47.8222 68.4172 47.7983 67.8214C47.757 66.5953 47.2429 65.4327 46.3636 64.5772C45.4844 63.7216 44.3082 63.2394 43.0815 63.2315Z" fill="#FF7900"/>
    </g>
    <path d="M60.1122 52.0226H52.2876C52.0577 52.0206 51.8373 51.9305 51.6719 51.7708C51.5065 51.6111 51.4088 51.3939 51.3989 51.1642C51.3952 51.0532 51.4139 50.9425 51.4538 50.8389C51.4938 50.7352 51.5542 50.6406 51.6314 50.5608C51.7087 50.481 51.8012 50.4175 51.9035 50.3742C52.0058 50.3308 52.1158 50.3085 52.2269 50.3086H60.0487C60.2788 50.3104 60.4994 50.4 60.6656 50.559C60.8318 50.718 60.931 50.9345 60.943 51.1642C60.9471 51.2757 60.9286 51.3869 60.8886 51.491C60.8487 51.5952 60.7881 51.6902 60.7105 51.7704C60.6329 51.8506 60.5399 51.9142 60.4371 51.9576C60.3343 52.0009 60.2238 52.023 60.1122 52.0226Z" fill="#E0E0E0"/>
    <path d="M69.1423 52.0226H63.8431C63.6129 52.0207 63.3922 51.9306 63.2264 51.771C63.0605 51.6113 62.9622 51.3942 62.9516 51.1642C62.9479 51.0532 62.9666 50.9425 63.0066 50.8389C63.0465 50.7352 63.1069 50.6406 63.1842 50.5608C63.2614 50.481 63.354 50.4175 63.4563 50.3742C63.5586 50.3308 63.6685 50.3085 63.7796 50.3086H69.0816C69.3113 50.3104 69.5317 50.4001 69.6974 50.5592C69.8632 50.7183 69.9618 50.9347 69.9731 51.1642C69.9772 51.2757 69.9587 51.3869 69.9187 51.491C69.8788 51.5952 69.8182 51.6902 69.7406 51.7704C69.663 51.8506 69.57 51.9142 69.4672 51.9576C69.3644 52.0009 69.2539 52.023 69.1423 52.0226Z" fill="#E0E0E0"/>
    <path d="M73.4135 55.6246H52.4099C52.18 55.6233 51.9595 55.5333 51.7944 55.3734C51.6294 55.2135 51.5324 54.9959 51.5239 54.7662C51.5202 54.6552 51.5389 54.5446 51.5788 54.4409C51.6188 54.3372 51.6792 54.2427 51.7564 54.1628C51.8337 54.083 51.9262 54.0195 52.0285 53.9762C52.1308 53.9329 52.2408 53.9106 52.3519 53.9106H73.3527C73.5819 53.9119 73.8016 54.0016 73.9662 54.161C74.1308 54.3205 74.2274 54.5373 74.2359 54.7662C74.24 54.877 74.2218 54.9875 74.1823 55.0912C74.1429 55.1948 74.083 55.2894 74.0063 55.3695C73.9296 55.4495 73.8376 55.5134 73.7358 55.5572C73.6339 55.601 73.5243 55.6239 73.4135 55.6246Z" fill="#E0E0E0"/>
    <g opacity="0.3">
        <path d="M43.6793 78.8692C44.7088 78.8894 45.6948 79.2886 46.4485 79.9903C47.2021 80.692 47.6705 81.647 47.7641 82.6725C47.8136 83.153 47.7629 83.6385 47.6151 84.0984C47.4674 84.5583 47.2258 84.9825 46.9057 85.3442C46.583 85.6997 46.188 85.9821 45.7472 86.1725C45.3064 86.3629 44.83 86.4569 44.35 86.4482C43.3115 86.4314 42.3149 86.0359 41.5474 85.3361C40.78 84.6363 40.2946 83.6802 40.1824 82.6477C40.135 82.1636 40.1907 81.6751 40.3458 81.2141C40.5009 80.7531 40.7518 80.3302 41.0821 79.9732C41.4145 79.6188 41.8171 79.3375 42.2643 79.1474C42.7115 78.9573 43.1934 78.8626 43.6793 78.8692ZM43.6406 78.0716C43.0496 78.06 42.4627 78.1735 41.9186 78.4046C41.3744 78.6357 40.8853 78.9792 40.4831 79.4126C40.081 79.846 39.7751 80.3594 39.5853 80.9193C39.3955 81.4792 39.3262 82.0729 39.382 82.6615C39.5945 85.1952 41.8936 87.2514 44.4272 87.2514C46.9609 87.2514 48.777 85.1952 48.5672 82.6615C48.4578 81.4236 47.8943 80.27 46.9853 79.4226C46.0762 78.5752 44.8859 78.094 43.6434 78.0716H43.6406Z" fill="#FF7900"/>
    </g>
    <path d="M77.0035 68.7593H52.7679C52.6568 68.7593 52.5468 68.7816 52.4445 68.8249C52.3422 68.8682 52.2497 68.9317 52.1725 69.0115C52.0952 69.0913 52.0348 69.1859 51.9948 69.2896C51.9549 69.3932 51.9362 69.5039 51.9399 69.6149C51.9498 69.8439 52.0472 70.0603 52.2121 70.2196C52.377 70.3788 52.5967 70.4686 52.8259 70.4705H77.0725C77.1836 70.4706 77.2935 70.4483 77.3958 70.405C77.4981 70.3616 77.5907 70.2982 77.6679 70.2183C77.7452 70.1385 77.8056 70.0439 77.8455 69.9403C77.8855 69.8366 77.9042 69.726 77.9005 69.6149C77.8919 69.3836 77.7933 69.1647 77.6258 69.0049C77.4582 68.8451 77.235 68.757 77.0035 68.7593Z" fill="#E0E0E0"/>
    <path d="M71.2594 65.1548H52.6625C52.5512 65.1547 52.441 65.1771 52.3385 65.2206C52.236 65.2641 52.1434 65.3278 52.0661 65.4079C51.9888 65.4881 51.9284 65.583 51.8886 65.6869C51.8489 65.7909 51.8305 65.9019 51.8345 66.0131C51.8424 66.2419 51.9384 66.4587 52.1025 66.6182C52.2667 66.7777 52.4861 66.8675 52.715 66.8687H71.3146C71.4257 66.8688 71.5357 66.8465 71.638 66.8032C71.7403 66.7599 71.8328 66.6964 71.9101 66.6166C71.9873 66.5367 72.0477 66.4422 72.0877 66.3385C72.1276 66.2348 72.1463 66.1242 72.1426 66.0131C72.1362 65.7832 72.0403 65.5649 71.8753 65.4046C71.7104 65.2443 71.4894 65.1547 71.2594 65.1548Z" fill="#E0E0E0"/>
    <path d="M43.0353 55.6741L42.7096 55.1387C41.9948 53.9712 40.5016 52.9307 39.9883 52.6243L40.3747 51.9398C41.3885 52.5535 42.2917 53.3335 43.0464 54.2472C44.2194 52.6712 45.9333 51.0511 48.2545 49.3013L48.754 49.9471C46.27 51.8156 44.5092 53.5351 43.3803 55.1718C43.2672 55.3401 43.1512 55.5085 43.0353 55.6741Z" fill="#FF7900"/>
    <path d="M43.4486 70.5231C43.3409 70.3437 43.2305 70.1643 43.1201 69.9876C42.4025 68.8201 40.9121 67.7796 40.4043 67.4705L40.7962 66.786C41.8048 67.4014 42.7032 68.1813 43.4541 69.0934C44.6299 67.5202 46.3576 65.8973 48.7147 64.1475L49.2032 64.7933C46.6861 66.6618 44.9141 68.3813 43.7908 70.018L43.4486 70.5231Z" fill="#FF7900"/>
    <path d="M44.3972 85.4046L44.0328 84.8691C43.238 83.7017 41.6979 82.6611 41.168 82.3548L41.5268 81.6703C42.5697 82.2883 43.5094 83.066 44.3116 83.9749C45.3935 82.4017 47.0385 80.7788 49.3238 79.0317L49.8399 79.6776C47.4 81.5461 45.7247 83.2656 44.7063 84.9023L44.3972 85.4046Z" fill="#FF7900"/>
    <path d="M61.8506 35.6035C61.3648 36.6634 60.8671 37.7223 60.3574 38.7803C61.4081 39.3029 62.3065 40.0874 62.9658 41.0581C63.6252 42.0288 64.0234 43.153 64.1221 44.3224H67.7901C67.5472 40.5715 65.135 37.3064 61.8506 35.6035Z" fill="#FF7900"/>
    <path d="M47.8782 44.3284H51.5462C51.4563 43.2909 51.6453 42.2481 52.0937 41.3082C52.542 40.3683 53.2335 39.5652 54.0964 38.9823C53.3825 37.9224 52.6576 36.8626 51.9216 35.8027C49.2444 37.536 47.6436 40.7128 47.8782 44.3284Z" fill="#263238"/>
    <path d="M56.8879 34.3725C55.128 34.3551 53.4014 34.852 51.9199 35.8022C52.6559 36.862 53.3809 37.9219 54.0948 38.9817C55.0511 38.3568 56.1707 38.0284 57.313 38.0378C58.3698 38.0439 59.4102 38.3002 60.349 38.7858C60.8568 37.7259 61.3545 36.667 61.8421 35.609C60.313 34.8075 58.6143 34.3835 56.8879 34.3725Z" fill="#FF7900"/>
    <path opacity="0.5" d="M56.8879 34.3725C55.128 34.3551 53.4014 34.852 51.9199 35.8022C52.6559 36.862 53.3809 37.9219 54.0948 38.9817C55.0511 38.3568 56.1707 38.0284 57.313 38.0378C58.3698 38.0439 59.4102 38.3002 60.349 38.7858C60.8568 37.7259 61.3545 36.667 61.8421 35.609C60.313 34.8075 58.6143 34.3835 56.8879 34.3725Z" fill="#263238"/>
    <path d="M61.3706 41.8164C61.3706 41.8164 57.6666 43.3316 57.2747 43.6076C57.1811 43.6785 57.1026 43.7674 57.0439 43.8691C56.9851 43.9708 56.9473 44.0831 56.9327 44.1996C56.918 44.3161 56.9268 44.4344 56.9585 44.5475C56.9903 44.6605 57.0443 44.7661 57.1174 44.8579C57.2557 45.0543 57.4649 45.1891 57.7008 45.2339C57.9367 45.2788 58.1809 45.23 58.3815 45.098C58.7872 44.8055 61.3761 41.8164 61.3706 41.8164ZM57.479 44.5764C57.4429 44.5312 57.4163 44.4792 57.4007 44.4236C57.3851 44.368 57.3807 44.3097 57.3879 44.2524C57.3951 44.195 57.4137 44.1397 57.4426 44.0896C57.4715 44.0396 57.5102 43.9958 57.5562 43.9609C57.6556 43.897 57.7757 43.8736 57.8918 43.8957C58.0079 43.9178 58.1111 43.9836 58.18 44.0796C58.216 44.1248 58.2426 44.1768 58.2583 44.2324C58.2739 44.2881 58.2783 44.3463 58.2711 44.4036C58.2639 44.461 58.2453 44.5163 58.2163 44.5664C58.1874 44.6164 58.1488 44.6602 58.1027 44.6951C58.0047 44.7602 57.8854 44.7853 57.7694 44.7653C57.6535 44.7453 57.5495 44.6816 57.479 44.5874V44.5764Z" fill="#263238"/>
    <path d="M65.7595 40.0638C65.7776 40.23 65.76 40.398 65.708 40.5568C65.656 40.7157 65.5708 40.8616 65.458 40.9848C65.3451 41.1081 65.2073 41.2059 65.0537 41.2717C64.9001 41.3376 64.7342 41.3699 64.5672 41.3665C64.2131 41.3596 63.8739 41.2232 63.6135 40.9832C63.3532 40.7432 63.1897 40.4161 63.154 40.0638C63.1351 39.8986 63.1518 39.7312 63.2028 39.5729C63.2538 39.4146 63.3381 39.2691 63.4499 39.146C63.5618 39.0229 63.6986 38.9252 63.8513 38.8592C64.004 38.7933 64.169 38.7608 64.3353 38.7639C64.6903 38.7699 65.0309 38.9053 65.2932 39.1446C65.5554 39.384 65.7212 39.7109 65.7595 40.0638Z" fill="white"/>
    <path d="M64.1458 39.7661C64.1485 39.7923 64.1457 39.8188 64.1375 39.8439C64.1293 39.8689 64.1159 39.892 64.0982 39.9115C64.0804 39.931 64.0588 39.9466 64.0347 39.9572C64.0106 39.9679 63.9845 39.9733 63.9581 39.9731C63.9015 39.9727 63.847 39.9513 63.8052 39.9131C63.7634 39.8749 63.7373 39.8225 63.7318 39.7661C63.7286 39.7398 63.7311 39.7131 63.7392 39.6879C63.7472 39.6626 63.7606 39.6394 63.7784 39.6198C63.7962 39.6002 63.818 39.5846 63.8423 39.5741C63.8667 39.5637 63.893 39.5585 63.9195 39.5591C63.9761 39.5595 64.0306 39.5809 64.0724 39.6192C64.1142 39.6574 64.1403 39.7097 64.1458 39.7661Z" fill="#263238"/>
    <path d="M65.1329 39.7652C65.1357 39.7917 65.1328 39.8184 65.1244 39.8437C65.116 39.8689 65.1024 39.8921 65.0844 39.9117C65.0664 39.9312 65.0444 39.9468 65.02 39.9572C64.9955 39.9676 64.9691 39.9728 64.9425 39.9722C64.8862 39.9706 64.8324 39.9488 64.7908 39.9108C64.7493 39.8728 64.7228 39.8212 64.7162 39.7652C64.713 39.7387 64.7156 39.7118 64.7238 39.6863C64.732 39.6609 64.7456 39.6375 64.7637 39.6178C64.7818 39.5981 64.8039 39.5826 64.8286 39.5723C64.8533 39.5621 64.8799 39.5572 64.9066 39.5582C64.9633 39.5587 65.0177 39.58 65.0595 39.6183C65.1013 39.6565 65.1275 39.7089 65.1329 39.7652Z" fill="#263238"/>
    <path d="M64.5183 40.8473C64.2453 40.8451 63.9828 40.7419 63.7814 40.5575C63.7625 40.5383 63.752 40.5126 63.752 40.4857C63.752 40.4588 63.7625 40.433 63.7814 40.4139C63.7907 40.4042 63.8018 40.3965 63.8142 40.3913C63.8265 40.386 63.8398 40.3833 63.8532 40.3833C63.8666 40.3833 63.8799 40.386 63.8922 40.3913C63.9045 40.3965 63.9157 40.4042 63.9249 40.4139C64.0883 40.5645 64.3017 40.6491 64.5239 40.6513C64.627 40.6536 64.7294 40.6341 64.8246 40.5942C64.9197 40.5543 65.0053 40.4947 65.0759 40.4195C65.0945 40.3997 65.1203 40.3882 65.1474 40.3874C65.1609 40.387 65.1743 40.3893 65.1869 40.3941C65.1995 40.3989 65.211 40.4061 65.2208 40.4153C65.2305 40.4246 65.2384 40.4356 65.2439 40.4479C65.2494 40.4602 65.2524 40.4735 65.2528 40.4869C65.2532 40.5004 65.2509 40.5138 65.2462 40.5263C65.2414 40.5389 65.2341 40.5504 65.2249 40.5602C65.134 40.6551 65.0241 40.7298 64.9023 40.7792C64.7805 40.8287 64.6497 40.8519 64.5183 40.8473Z" fill="#263238"/>
    <path d="M58.4072 36.1832C58.43 36.3474 58.4169 36.5146 58.3687 36.6733C58.3206 36.832 58.2386 36.9783 58.1283 37.1021C58.0181 37.226 57.8823 37.3245 57.7303 37.3907C57.5783 37.457 57.4137 37.4894 57.248 37.4859C56.8909 37.4776 56.5487 37.3416 56.2834 37.1026C56.0181 36.8635 55.8472 36.5374 55.8017 36.1832C55.7771 36.0197 55.7885 35.8528 55.8353 35.6942C55.8821 35.5356 55.9631 35.3892 56.0725 35.2653C56.182 35.1414 56.3172 35.043 56.4688 34.9769C56.6204 34.9109 56.7846 34.8789 56.9499 34.8832C57.3076 34.8916 57.6506 35.027 57.9176 35.2652C58.1846 35.5033 58.3581 35.8287 58.4072 36.1832Z" fill="white"/>
    <path d="M56.7833 35.8799C56.7869 35.9058 56.7848 35.9322 56.7773 35.9573C56.7698 35.9823 56.7569 36.0055 56.7396 36.0251C56.7223 36.0447 56.701 36.0604 56.6771 36.0711C56.6532 36.0818 56.6273 36.0872 56.6012 36.0869C56.5443 36.0855 56.4897 36.0639 56.4472 36.026C56.4048 35.9881 56.3772 35.9363 56.3693 35.8799C56.3653 35.8539 56.367 35.8274 56.3743 35.8021C56.3817 35.7768 56.3945 35.7535 56.4119 35.7337C56.4293 35.714 56.4508 35.6983 56.4749 35.6878C56.4991 35.6773 56.5252 35.6722 56.5515 35.6729C56.6086 35.6738 56.6634 35.6952 56.706 35.7332C56.7486 35.7712 56.776 35.8233 56.7833 35.8799Z" fill="#263238"/>
    <path d="M57.7681 35.8799C57.7717 35.9061 57.7696 35.9327 57.7619 35.9579C57.7542 35.9832 57.7411 36.0065 57.7235 36.0262C57.7059 36.0458 57.6842 36.0615 57.66 36.072C57.6358 36.0825 57.6096 36.0876 57.5832 36.0869C57.5264 36.0849 57.4721 36.0632 57.4298 36.0253C57.3874 35.9875 57.3597 35.9361 57.3513 35.8799C57.3477 35.8538 57.3498 35.8271 57.3575 35.8019C57.3652 35.7766 57.3783 35.7533 57.3959 35.7337C57.4135 35.714 57.4352 35.6983 57.4594 35.6878C57.4836 35.6774 57.5098 35.6723 57.5362 35.6729C57.5931 35.6743 57.6477 35.6959 57.6902 35.7338C57.7326 35.7718 57.7602 35.8235 57.7681 35.8799Z" fill="#263238"/>
    <path d="M57.7956 36.7075H56.5039C56.4794 36.7035 56.4571 36.6908 56.441 36.6719C56.4249 36.6529 56.416 36.6289 56.416 36.604C56.416 36.5791 56.4249 36.555 56.441 36.5361C56.4571 36.5171 56.4794 36.5045 56.5039 36.5005H57.7956C57.8202 36.5045 57.8425 36.5171 57.8586 36.5361C57.8747 36.555 57.8835 36.5791 57.8835 36.604C57.8835 36.6289 57.8747 36.6529 57.8586 36.6719C57.8425 36.6908 57.8202 36.7035 57.7956 36.7075Z" fill="#263238"/>
    <path d="M51.8513 40.0638C51.8694 40.23 51.8518 40.398 51.7998 40.5568C51.7478 40.7157 51.6626 40.8616 51.5498 40.9848C51.4369 41.1081 51.2991 41.2059 51.1455 41.2717C50.9919 41.3376 50.826 41.3699 50.659 41.3665C50.3049 41.3596 49.9657 41.2232 49.7053 40.9832C49.445 40.7432 49.2815 40.4161 49.2458 40.0638C49.2269 39.8986 49.2436 39.7312 49.2946 39.5729C49.3456 39.4146 49.4299 39.2691 49.5417 39.146C49.6536 39.0229 49.7904 38.9252 49.9431 38.8592C50.0958 38.7933 50.2608 38.7608 50.4271 38.7639C50.7819 38.7705 51.1222 38.906 51.3843 39.1453C51.6464 39.3846 51.8124 39.7111 51.8513 40.0638Z" fill="white"/>
    <path d="M50.2298 39.7661C50.2325 39.7923 50.2297 39.8188 50.2214 39.8439C50.2132 39.8689 50.1998 39.892 50.1821 39.9115C50.1644 39.931 50.1428 39.9466 50.1187 39.9572C50.0946 39.9679 50.0685 39.9733 50.0421 39.9731C49.9855 39.9727 49.931 39.9513 49.8892 39.9131C49.8474 39.8749 49.8212 39.8225 49.8158 39.7661C49.8126 39.7398 49.8151 39.7131 49.8232 39.6879C49.8312 39.6626 49.8446 39.6394 49.8624 39.6198C49.8802 39.6002 49.902 39.5846 49.9263 39.5741C49.9507 39.5637 49.977 39.5585 50.0035 39.5591C50.0601 39.5595 50.1146 39.5809 50.1564 39.6192C50.1982 39.6574 50.2243 39.7097 50.2298 39.7661Z" fill="#263238"/>
    <path d="M51.22 39.7661C51.2232 39.7924 51.2207 39.8191 51.2126 39.8444C51.2046 39.8696 51.1912 39.8928 51.1734 39.9125C51.1556 39.9321 51.1338 39.9477 51.1095 39.9581C51.0851 39.9686 51.0588 39.9737 51.0323 39.9731C50.976 39.9715 50.9222 39.9497 50.8807 39.9117C50.8391 39.8737 50.8126 39.822 50.806 39.7661C50.8028 39.7398 50.8054 39.7131 50.8134 39.6879C50.8214 39.6626 50.8348 39.6394 50.8526 39.6198C50.8704 39.6002 50.8922 39.5846 50.9166 39.5741C50.9409 39.5637 50.9672 39.5585 50.9937 39.5591C51.0505 39.5589 51.1053 39.5801 51.1473 39.6184C51.1892 39.6568 51.2152 39.7095 51.22 39.7661Z" fill="#263238"/>
    <path d="M49.9539 40.8477C49.9412 40.8478 49.9285 40.8455 49.9167 40.8408C49.9048 40.836 49.894 40.829 49.8849 40.8201C49.8661 40.8009 49.8555 40.7752 49.8555 40.7483C49.8555 40.7214 49.8661 40.6957 49.8849 40.6765C49.9745 40.5814 50.0827 40.5057 50.2029 40.4544C50.3231 40.4031 50.4525 40.3773 50.5832 40.3785C50.8566 40.3814 51.1192 40.4856 51.3201 40.671C51.3298 40.6803 51.3375 40.6914 51.3428 40.7038C51.3481 40.7161 51.3508 40.7294 51.3508 40.7428C51.3508 40.7562 51.3481 40.7695 51.3428 40.7818C51.3375 40.7941 51.3298 40.8053 51.3201 40.8145C51.3002 40.833 51.2741 40.8432 51.247 40.8432C51.2199 40.8432 51.1937 40.833 51.1739 40.8145C51.0105 40.6622 50.7955 40.5774 50.5722 40.5772C50.4693 40.5749 50.3671 40.594 50.272 40.6335C50.177 40.6729 50.0912 40.7318 50.0202 40.8063C50.0041 40.8279 49.9804 40.8426 49.9539 40.8477Z" fill="#263238"/>
    <path d="M70.8569 30.5141C69.9958 28.7008 67.9865 27.5002 65.8199 27.5002H61.4039C61.1007 27.5136 60.7994 27.4466 60.5304 27.306C60.2614 27.1655 60.0343 26.9563 59.8721 26.6998C59.2567 25.5461 57.7883 24.7236 56.1213 24.7236C54.4543 24.7236 53.0853 25.5516 52.5995 26.6998C52.3981 27.1856 51.8212 27.5002 51.1588 27.5002H46.7428C44.5762 27.5002 42.7022 28.7008 42.0508 30.5141C42.0267 30.5774 42.0173 30.6454 42.0232 30.7128C42.0303 30.8544 42.0916 30.9878 42.1943 31.0854C42.2971 31.1831 42.4335 31.2374 42.5752 31.2372H70.4181C70.5032 31.2374 70.5869 31.2156 70.6611 31.174C70.7353 31.1323 70.7974 31.0722 70.8416 30.9995C70.8857 30.9268 70.9103 30.8439 70.913 30.7588C70.9157 30.6738 70.8964 30.5895 70.8569 30.5141ZM56.3007 27.9998C55.9713 27.993 55.6564 27.8631 55.4178 27.6359C55.1793 27.4086 55.0345 27.1002 55.0118 26.7716C55.0007 26.6132 55.0226 26.4544 55.076 26.3049C55.1294 26.1555 55.2132 26.0188 55.3222 25.9033C55.4311 25.7879 55.5627 25.6964 55.7088 25.6344C55.8549 25.5724 56.0123 25.5414 56.171 25.5434C56.5025 25.5468 56.8205 25.6752 57.0615 25.9028C57.3025 26.1305 57.4487 26.4408 57.4709 26.7716C57.4821 26.9308 57.4599 27.0906 57.4059 27.2408C57.3518 27.391 57.267 27.5283 57.1568 27.6439C57.0467 27.7595 56.9137 27.8508 56.7663 27.9121C56.6189 27.9734 56.4603 28.0032 56.3007 27.9998Z" fill="#263238"/>
    <path d="M99.4771 112.915C99.2611 112.941 99.0429 112.887 98.8644 112.763C98.8409 112.734 98.8265 112.698 98.8231 112.661C98.8196 112.624 98.8273 112.586 98.8451 112.553C98.8583 112.525 98.8778 112.5 98.9022 112.48C98.9267 112.461 98.9552 112.447 98.9858 112.44C99.3115 112.349 100.065 112.752 100.09 112.771C100.099 112.775 100.107 112.783 100.112 112.792C100.117 112.8 100.119 112.811 100.117 112.821C100.117 112.83 100.113 112.839 100.107 112.846C100.101 112.853 100.093 112.858 100.084 112.86C99.8838 112.895 99.6807 112.914 99.4771 112.915ZM99.1128 112.523C99.0826 112.518 99.0519 112.518 99.0217 112.523C99.0029 112.526 98.9851 112.534 98.9698 112.546C98.9544 112.557 98.942 112.572 98.9334 112.589C98.9058 112.65 98.9334 112.68 98.9334 112.697C99.0438 112.827 99.5571 112.829 99.927 112.777C99.673 112.644 99.3972 112.558 99.1128 112.523Z" fill="#FF7900"/>
    <path d="M100.086 112.859H100.066C99.8097 112.749 99.2743 112.307 99.2853 112.081C99.2853 112.026 99.3184 111.96 99.4509 111.946C99.5501 111.937 99.6488 111.967 99.7269 112.029C99.9334 112.245 100.073 112.516 100.13 112.81C100.133 112.816 100.135 112.824 100.135 112.832C100.135 112.839 100.133 112.847 100.13 112.854C100.124 112.858 100.116 112.861 100.108 112.862C100.101 112.863 100.093 112.862 100.086 112.859ZM99.4978 112.031H99.4702C99.3847 112.031 99.3819 112.073 99.3819 112.084C99.3819 112.222 99.7435 112.567 100.011 112.716C99.9588 112.48 99.8412 112.264 99.6717 112.092C99.6217 112.054 99.5604 112.035 99.4978 112.037V112.031Z" fill="#FF7900"/>
    <path d="M102.309 112.813H100.281L99.5547 108.115H101.583L102.309 112.813Z" fill="#FFC3BD"/>
    <path d="M100.266 112.578H102.474C102.515 112.579 102.555 112.593 102.589 112.618C102.623 112.642 102.648 112.677 102.661 112.716L103.263 114.518C103.276 114.559 103.279 114.602 103.273 114.643C103.266 114.685 103.25 114.725 103.226 114.76C103.202 114.794 103.17 114.823 103.133 114.843C103.095 114.864 103.054 114.875 103.012 114.877C102.211 114.877 101.052 114.819 100.048 114.819C98.8745 114.819 98.9794 114.883 97.6022 114.883C96.7742 114.883 96.4457 114.041 96.7742 113.964C98.3225 113.619 98.5019 113.58 99.7771 112.735C99.9199 112.634 100.09 112.579 100.266 112.578Z" fill="#263238"/>
    <path opacity="0.2" d="M99.5547 108.118L99.93 110.539H101.959L101.583 108.118H99.5547Z" fill="black"/>
    <path d="M102.077 62.2241L100.697 63.6179L102.811 64.3659C102.811 64.3659 103.639 63.2288 103.057 62.4504L102.077 62.2241Z" fill="#FFC3BD"/>
    <path d="M100.234 65.5667L102.346 65.8758L102.818 64.3661L100.704 63.6182L100.234 65.5667Z" fill="#FFC3BD"/>
    <path d="M102.998 45.063C103.177 45.4494 103.321 45.7778 103.464 46.1366C103.608 46.4954 103.74 46.8404 103.878 47.1937C104.14 47.903 104.375 48.6261 104.593 49.3575C104.815 50.0975 104.999 50.8483 105.145 51.6069L105.25 52.1865L105.336 52.7772C105.366 52.9731 105.385 53.1774 105.402 53.3789C105.418 53.5803 105.446 53.7625 105.446 54.0164V54.3752V54.6926L105.429 55.0045L105.399 55.2998C105.363 55.6973 105.311 56.0699 105.261 56.448C105.151 57.1932 105.024 57.9218 104.883 58.656C104.59 60.0995 104.27 61.5098 103.884 62.9312L101.369 62.4344C101.529 61.0323 101.695 59.6082 101.828 58.2061C101.891 57.5051 101.96 56.8068 101.999 56.1223C102.015 55.7856 102.035 55.4433 102.035 55.1204V54.8775V54.654V54.4304L102.015 54.2483C102.003 54.1029 101.982 53.9582 101.955 53.8149C101.93 53.6604 101.908 53.5058 101.872 53.3485L101.77 52.8765L101.651 52.4018C101.48 51.767 101.287 51.1295 101.066 50.4919C100.845 49.8543 100.599 49.2195 100.34 48.5903C100.213 48.2729 100.08 47.9582 99.9425 47.6491C99.8045 47.34 99.6665 47.0171 99.5312 46.7493L102.998 45.063Z" fill="#263238"/>
    <path d="M93.4707 61.2368C93.4707 61.2368 93.8074 76.7591 94.7182 82.9415C95.6677 89.3723 99.1342 110.069 99.1342 110.069H102.568C102.568 110.069 101.337 90.3714 100.945 84.0427C100.517 77.1427 100.611 61.2368 100.611 61.2368H93.4707Z" fill="#FF7900"/>
    <path d="M98.3072 108.7C98.2906 108.7 98.6605 110.127 98.6605 110.127H102.839L102.809 108.855L98.3072 108.7Z" fill="#263238"/>
    <path d="M92.6944 36.0737C92.705 35.9017 92.6223 35.7568 92.5097 35.7498C92.3971 35.7429 92.2973 35.8767 92.2867 36.0486C92.2762 36.2205 92.3588 36.3655 92.4714 36.3724C92.584 36.3793 92.6839 36.2456 92.6944 36.0737Z" fill="#263238"/>
    <path d="M92.6104 36.3716C92.3866 36.8978 92.0933 37.3916 91.7383 37.8399C91.8542 37.9241 91.9873 37.9816 92.1281 38.0084C92.2688 38.0351 92.4138 38.0303 92.5525 37.9945L92.6104 36.3716Z" fill="#ED847E"/>
    <path d="M93.3389 35.1074C93.3175 35.1075 93.2965 35.1018 93.2781 35.0909C93.1794 35.0132 93.0633 34.9605 92.9398 34.9375C92.8162 34.9144 92.689 34.9216 92.5688 34.9584C92.5565 34.9633 92.5434 34.9656 92.5301 34.9653C92.5169 34.965 92.5039 34.9621 92.4918 34.9567C92.4797 34.9513 92.4688 34.9436 92.4598 34.9339C92.4507 34.9242 92.4437 34.9129 92.4391 34.9004C92.4348 34.8878 92.433 34.8743 92.4338 34.8609C92.4346 34.8476 92.4381 34.8345 92.444 34.8224C92.4499 34.8104 92.4581 34.7996 92.4681 34.7907C92.4782 34.7819 92.4899 34.7751 92.5026 34.7707C92.6538 34.7215 92.8148 34.7099 92.9716 34.7368C93.1283 34.7637 93.2762 34.8284 93.4024 34.9253C93.4232 34.9416 93.4369 34.9655 93.4405 34.9917C93.4441 35.018 93.4374 35.0447 93.4217 35.066C93.412 35.0788 93.3994 35.0892 93.3851 35.0964C93.3707 35.1035 93.3549 35.1073 93.3389 35.1074Z" fill="#263238"/>
    <path d="M98.0657 37.9561C97.7235 39.4409 97.3371 42.1595 98.3417 43.1476C98.3417 43.1476 97.8836 44.6518 95.1263 44.6518C92.0903 44.6518 93.7325 43.1476 93.7325 43.1476C95.3885 42.7529 95.4023 41.5275 95.1539 40.3738L98.0657 37.9561Z" fill="#FFC3BD"/>
    <path d="M99.4074 43.8429C99.7055 43.2384 100.034 42.5429 99.4074 42.3276C98.7229 42.0875 94.9389 41.8446 93.6114 42.2917C93.2567 42.3821 92.9525 42.6097 92.7657 42.9244C92.5788 43.2391 92.5246 43.6152 92.615 43.9698L99.4074 43.8429Z" fill="#FF7900"/>
    <path d="M102.311 43.7295C104.058 44.5354 104.946 50.6461 104.946 50.6461L101.427 51.7501C100.799 50.1333 100.289 48.4729 99.9011 46.7821C99.3602 44.2318 100.522 42.907 102.311 43.7295Z" fill="#263238"/>
    <path d="M80.6845 53.2384L79.0616 51.8418L77.6016 53.967C77.6016 53.967 78.9126 55.0186 80.3616 54.588L80.6845 53.2384Z" fill="#FFC3BD"/>
    <path d="M76.9228 51.165L76.6992 53.2654L77.6017 53.9664L79.0618 51.8412L76.9228 51.165Z" fill="#FFC3BD"/>
    <path d="M98.4382 35.6955C98.234 37.8041 98.2202 39.0461 97.1162 40.128C96.7606 40.4803 96.3159 40.7292 95.8297 40.8481C95.3436 40.967 94.8342 40.9515 94.3562 40.8032C93.8781 40.655 93.4494 40.3795 93.1159 40.0063C92.7824 39.6331 92.5566 39.1762 92.4628 38.6846C92.0764 36.7912 92.4628 33.6614 94.5687 32.8223C95.017 32.629 95.5082 32.557 95.9931 32.6134C96.478 32.6698 96.9396 32.8527 97.3315 33.1437C97.7235 33.4347 98.032 33.8237 98.2263 34.2715C98.4205 34.7194 98.4936 35.2105 98.4382 35.6955Z" fill="#FFC3BD"/>
    <path d="M94.1168 36.3717C93.9318 34.9144 93.9622 34.3624 94.7405 34.0395C93.9318 33.8794 93.2308 33.8573 92.8968 33.3854C92.5629 32.9134 92.4828 31.7073 94.1057 31.1553C93.9567 31.4313 94.4286 32.0054 95.9218 31.4865C97.415 30.9676 99.5898 30.9124 99.7858 32.4304C100.575 32.1544 101.897 34.5915 100.338 36.3717C99.0378 37.8621 98.1712 38.8916 97.9145 39.6837C97.9025 39.7208 97.8828 39.7549 97.8566 39.7838C97.8304 39.8128 97.7984 39.8358 97.7627 39.8514C97.7269 39.8671 97.6883 39.875 97.6493 39.8746C97.6103 39.8742 97.5718 39.8656 97.5364 39.8493C96.9982 39.5981 96.035 39.8134 95.6044 39.9293C95.5438 39.945 95.4796 39.9397 95.4224 39.9141C95.3652 39.8885 95.3185 39.8442 95.2898 39.7886C95.011 39.2145 94.2575 37.575 94.1168 36.3717Z" fill="#263238"/>
    <path d="M99.4941 32.6155C99.4941 32.6155 100.134 31.713 101.363 32.3837C100.731 32.3542 100.099 32.4326 99.4941 32.6155Z" fill="#263238"/>
    <path d="M99.5977 32.8083C99.5977 32.8083 100.489 32.2563 99.7936 31.2158C99.8362 31.7544 99.7696 32.2961 99.5977 32.8083Z" fill="#263238"/>
    <path d="M95.1496 36.4324C95.0527 36.9542 94.7939 37.4322 94.4099 37.7986C93.8993 38.2816 93.4577 37.9394 93.4439 37.3184C93.4301 36.7664 93.6785 35.8335 94.2719 35.5851C94.8653 35.3367 95.2545 35.8086 95.1496 36.4324Z" fill="#FFC3BD"/>
    <path opacity="0.3" d="M93.752 69.8618C93.9507 74.4931 94.2626 79.8696 94.7152 82.9415C94.8891 84.1117 95.143 85.7511 95.4466 87.6528C96.6665 80.9957 97.3952 72.4176 93.752 69.8618Z" fill="black"/>
    <path d="M92.2321 112.915C91.9726 112.915 91.7215 112.879 91.6414 112.763C91.6205 112.732 91.6094 112.696 91.6094 112.658C91.6094 112.621 91.6205 112.584 91.6414 112.553C91.6785 112.498 91.7343 112.458 91.7987 112.44C92.1382 112.349 92.8337 112.752 92.8641 112.771C92.8726 112.776 92.8793 112.784 92.8828 112.793C92.8864 112.802 92.8866 112.812 92.8834 112.821C92.8815 112.831 92.8768 112.839 92.8699 112.846C92.863 112.853 92.8543 112.858 92.8448 112.86C92.6424 112.895 92.4375 112.913 92.2321 112.915ZM91.9257 112.523C91.8946 112.518 91.863 112.518 91.8319 112.523C91.8121 112.527 91.7933 112.535 91.7766 112.546C91.76 112.557 91.7459 112.572 91.7353 112.589C91.6994 112.65 91.7104 112.68 91.7215 112.697C91.8125 112.827 92.3231 112.829 92.704 112.777C92.4637 112.642 92.1993 112.556 91.9257 112.523Z" fill="#FF7900"/>
    <path d="M92.8479 112.86H92.8286C92.5884 112.749 92.1165 112.308 92.1634 112.081C92.1634 112.026 92.2131 111.96 92.3456 111.946C92.3948 111.94 92.4448 111.944 92.4923 111.958C92.5398 111.973 92.5839 111.997 92.6216 112.029C92.8727 112.241 92.8976 112.788 92.8976 112.81C92.8974 112.819 92.8953 112.827 92.8915 112.835C92.8876 112.842 92.8822 112.849 92.8755 112.854C92.867 112.859 92.8574 112.86 92.8479 112.86ZM92.3814 112.032H92.3538C92.2655 112.032 92.26 112.073 92.2573 112.084C92.2297 112.222 92.5471 112.567 92.7927 112.716C92.7774 112.488 92.6916 112.27 92.547 112.092C92.5001 112.055 92.4414 112.035 92.3814 112.037V112.032Z" fill="#FF7900"/>
    <path d="M95.0762 112.813H93.0504L93.0117 108.115H95.0403L95.0762 112.813Z" fill="#FFC3BD"/>
    <path d="M93.0702 112.578H95.2782C95.3178 112.578 95.3562 112.591 95.3866 112.617C95.4169 112.642 95.4373 112.677 95.4438 112.716L95.7833 114.518C95.791 114.563 95.7889 114.608 95.777 114.652C95.7651 114.695 95.7437 114.736 95.7145 114.77C95.6852 114.804 95.6488 114.831 95.6077 114.85C95.5667 114.869 95.522 114.878 95.477 114.877C94.6793 114.877 93.5257 114.819 92.5238 114.819C91.348 114.819 90.3323 114.883 88.9551 114.883C88.1271 114.883 87.9228 114.041 88.2734 113.964C89.8714 113.619 91.1686 113.58 92.5679 112.735C92.718 112.638 92.8916 112.584 93.0702 112.578Z" fill="#263238"/>
    <path opacity="0.2" d="M93.0176 108.118L93.0341 110.539H95.0627L95.0462 108.118H93.0176Z" fill="black"/>
    <path d="M89.8507 61.2368C89.8507 61.2368 89.0227 76.3975 89.0393 82.5799C89.0393 89.0107 92.2961 110.069 92.2961 110.069H95.7295C95.7295 110.069 94.8353 89.3861 95.2217 83.0767C95.6329 76.1767 97.6257 61.2423 97.6257 61.2423L89.8507 61.2368Z" fill="#FF7900"/>
    <path d="M91.6829 108.7C91.6663 108.7 91.8236 110.127 91.8236 110.127H96.0023L96.1623 108.855L91.6829 108.7Z" fill="#263238"/>
    <path d="M90.5904 43.7109C90.5904 43.7109 87.1348 52.4407 88.639 67.5297H101.258C101.39 65.8737 100.071 51.4499 101.953 43.606C100.759 43.3748 99.5516 43.2218 98.3377 43.1478C96.8026 43.0594 95.2636 43.0594 93.7285 43.1478C92.6695 43.2544 91.6203 43.4426 90.5904 43.7109Z" fill="#263238"/>
    <path opacity="0.2" d="M88.8029 51.6122C88.6152 52.9922 88.4607 54.5681 88.3613 56.3042C90.8122 54.052 91.6513 48.4409 91.6513 48.4409L88.8029 51.6122Z" fill="black"/>
    <path d="M91.8893 47.867C91.3925 49.1587 90.8902 50.4035 90.3382 51.6537C89.7862 52.904 89.2149 54.1377 88.5718 55.3742L88.3207 55.8351L88.1937 56.067C88.1413 56.1608 88.1468 56.1663 88.0033 56.4065C87.7558 56.7956 87.4128 57.1149 87.0069 57.3338C86.6713 57.5103 86.305 57.6208 85.9277 57.6595C85.4092 57.707 84.8864 57.665 84.3821 57.5353C83.9834 57.4366 83.5923 57.3093 83.2119 57.1544C82.529 56.8717 81.8676 56.5396 81.233 56.1608C80.9211 55.9814 80.623 55.7882 80.3277 55.6088C80.0324 55.4294 79.7647 55.2003 79.4473 54.9795L80.9377 52.6943C82.0072 53.2836 83.13 53.7706 84.2911 54.1488C84.5375 54.2249 84.7894 54.2821 85.0445 54.3199C85.1901 54.3509 85.3406 54.3509 85.4861 54.3199C85.5027 54.3199 85.4503 54.3033 85.3592 54.3503C85.2483 54.4068 85.1534 54.4903 85.0832 54.5931C85.0252 54.6897 85.0997 54.5462 85.1246 54.491L85.2239 54.273L85.4227 53.8397C85.9471 52.6694 86.4328 51.4578 86.9048 50.2517C87.3767 49.0455 87.8349 47.787 88.2572 46.5698L91.8893 47.867Z" fill="#263238"/>
    <path d="M93.262 44.6265C93.9078 46.4315 89.3373 53.6986 89.3373 53.6986L86.627 51.0131C86.627 51.0131 87.3197 48.7306 88.2333 45.9816C89.133 43.2796 92.6465 42.9015 93.262 44.6265Z" fill="#263238"/>
</svg>
