<svg width="266" height="267" viewBox="0 0 266 267" fill="none" xmlns="http://www.w3.org/2000/svg">
<path d="M163.426 155.744L162.166 163.308L153.619 209.457H152.242L158.456 163.308L159.376 155.744H163.426Z" fill="#DBDBDB"/>
<path d="M159.377 155.744H163.427L162.167 163.308H158.457L159.377 155.744Z" fill="#A6A6A6"/>
<path d="M190.262 209.457H188.885L180.343 163.308L179.078 155.744H183.134L184.048 163.308L190.262 209.457Z" fill="#DBDBDB"/>
<path d="M183.134 155.744L184.048 163.308H180.343L179.078 155.744H183.134Z" fill="#A6A6A6"/>
<path d="M215.895 209.457H214.518L205.976 163.308L204.711 155.744H208.767L209.681 163.308L215.895 209.457Z" fill="#DBDBDB"/>
<path d="M209.681 163.308H205.976L204.711 155.744H208.767L209.681 163.308Z" fill="#A6A6A6"/>
<path d="M213.706 159.295H151.09V152.699H174.531L182.409 106.863H211.32L213.706 159.295Z" fill="#DBDBDB"/>
<path d="M213.709 159.295H210.296L208.074 106.863H211.322L213.709 159.295Z" fill="#A6A6A6"/>
<path d="M154.276 115.261L159.873 118.732L160.936 117.02C161.089 116.774 161.308 116.575 161.568 116.446C161.829 116.318 162.119 116.264 162.408 116.292C162.733 116.319 163.062 116.329 163.392 116.324C163.681 116.315 163.967 116.387 164.218 116.532C164.468 116.676 164.674 116.888 164.811 117.143L165.768 118.918L171.572 115.803L170.621 114.028C170.484 113.772 170.422 113.483 170.441 113.194C170.46 112.905 170.559 112.627 170.727 112.391C170.919 112.121 171.097 111.84 171.259 111.551C171.399 111.297 171.605 111.086 171.856 110.941C172.107 110.796 172.393 110.722 172.683 110.727L174.698 110.791L174.9 104.205L172.88 104.146C172.59 104.132 172.31 104.039 172.069 103.877C171.828 103.714 171.636 103.49 171.514 103.227C171.445 103.083 171.376 102.94 171.296 102.796C171.216 102.653 171.142 102.509 171.057 102.376C170.905 102.13 170.825 101.847 170.825 101.558C170.825 101.269 170.905 100.985 171.057 100.739L172.12 99.0116L166.523 95.5405L165.459 97.2574C165.306 97.5034 165.087 97.7015 164.827 97.8293C164.566 97.9571 164.276 98.0094 163.987 97.9804C163.663 97.9538 163.333 97.9431 163.009 97.9485C162.72 97.9547 162.435 97.8823 162.184 97.739C161.933 97.5958 161.726 97.3871 161.584 97.1352L160.585 95.3545L154.781 98.4694L155.732 100.245C155.868 100.501 155.931 100.789 155.912 101.078C155.893 101.368 155.794 101.646 155.626 101.882C155.44 102.153 155.27 102.413 155.094 102.716C154.958 102.973 154.753 103.186 154.502 103.333C154.252 103.479 153.965 103.553 153.675 103.546L151.655 103.482L151.453 110.062L153.473 110.126C153.762 110.139 154.042 110.232 154.281 110.394C154.52 110.557 154.71 110.782 154.828 111.046C154.898 111.189 154.972 111.333 155.052 111.482C155.131 111.631 155.206 111.763 155.291 111.902C155.443 112.148 155.524 112.433 155.524 112.723C155.524 113.013 155.443 113.297 155.291 113.544L154.276 115.261ZM158.459 109.685C157.956 108.744 157.742 107.675 157.847 106.613C157.951 105.551 158.367 104.544 159.044 103.719C159.72 102.894 160.626 102.288 161.647 101.978C162.668 101.667 163.758 101.667 164.779 101.976C165.801 102.285 166.707 102.89 167.385 103.715C168.062 104.539 168.48 105.546 168.585 106.608C168.69 107.67 168.478 108.739 167.976 109.68C167.473 110.622 166.703 111.393 165.762 111.896C165.138 112.232 164.453 112.441 163.748 112.512C163.042 112.583 162.33 112.513 161.651 112.308C160.973 112.102 160.341 111.765 159.794 111.315C159.246 110.865 158.792 110.311 158.459 109.685Z" fill="#EBEBEB"/>
<path d="M204.02 97.6342L206.326 101.631L207.549 100.924C207.725 100.824 207.926 100.775 208.129 100.782C208.332 100.79 208.529 100.854 208.697 100.967C208.894 101.089 209.091 101.206 209.298 101.312C209.479 101.403 209.631 101.542 209.738 101.713C209.845 101.885 209.903 102.083 209.904 102.285V103.699H214.518V102.285C214.516 102.082 214.572 101.882 214.681 101.709C214.789 101.537 214.945 101.399 215.129 101.312C215.331 101.206 215.533 101.089 215.724 100.967C215.893 100.854 216.089 100.79 216.292 100.782C216.495 100.775 216.696 100.824 216.872 100.924L218.1 101.631L220.402 97.6342L219.174 96.9272C219.001 96.8231 218.859 96.6733 218.766 96.4942C218.672 96.3151 218.629 96.1137 218.642 95.9119C218.642 95.8003 218.642 95.6834 218.642 95.5717C218.642 95.4601 218.642 95.3432 218.642 95.2316C218.628 95.0297 218.67 94.8277 218.764 94.6484C218.858 94.4691 219 94.3195 219.174 94.2163L220.402 93.504L218.1 89.5068L216.872 90.2137C216.697 90.3192 216.495 90.3719 216.29 90.3653C216.086 90.3587 215.887 90.2931 215.719 90.1765C215.527 90.05 215.329 89.9347 215.124 89.831C214.943 89.7407 214.79 89.6019 214.683 89.4302C214.576 89.2585 214.519 89.0606 214.518 88.8583V87.4443H209.904V88.8583C209.903 89.0606 209.845 89.2585 209.738 89.4302C209.631 89.6019 209.479 89.7407 209.298 89.831C209.094 89.9358 208.895 90.0512 208.702 90.1765C208.535 90.292 208.337 90.3569 208.134 90.3635C207.93 90.3701 207.729 90.3181 207.554 90.2137L206.326 89.5068L204.02 93.504L205.247 94.2163C205.421 94.3199 205.563 94.4696 205.657 94.6488C205.75 94.828 205.793 95.0297 205.779 95.2316C205.779 95.3432 205.779 95.4548 205.779 95.5717C205.779 95.6887 205.779 95.8003 205.779 95.9119C205.792 96.1137 205.75 96.3151 205.656 96.4942C205.562 96.6733 205.421 96.8231 205.247 96.9272L204.02 97.6342ZM208.431 95.5717C208.431 94.8243 208.653 94.0936 209.068 93.4721C209.484 92.8506 210.074 92.3662 210.764 92.0801C211.455 91.7941 212.215 91.7192 212.948 91.865C213.681 92.0109 214.355 92.3708 214.883 92.8994C215.412 93.4279 215.772 94.1013 215.917 94.8344C216.063 95.5675 215.988 96.3274 215.702 97.018C215.416 97.7086 214.932 98.2989 214.31 98.7141C213.689 99.1294 212.958 99.3511 212.211 99.3511C211.714 99.3525 211.221 99.2557 210.761 99.0664C210.301 98.8771 209.884 98.599 209.531 98.2479C209.179 97.8968 208.9 97.4797 208.709 97.0205C208.519 96.5613 208.421 96.0689 208.421 95.5717H208.431Z" fill="#EBEBEB"/>
<path d="M32.1367 139.335L34.4436 143.311L35.6662 142.609C35.8416 142.504 36.0438 142.451 36.2484 142.458C36.453 142.464 36.6514 142.53 36.8197 142.646C37.011 142.769 37.2077 142.886 37.415 142.992C37.5984 143.079 37.7529 143.217 37.8603 143.39C37.9677 143.562 38.0234 143.762 38.021 143.965V145.379H42.6402V143.965C42.6377 143.762 42.6935 143.562 42.8008 143.39C42.9082 143.217 43.0628 143.079 43.2461 142.992C43.4534 142.886 43.6501 142.769 43.8415 142.646C44.0097 142.53 44.2081 142.464 44.4127 142.458C44.6173 142.451 44.8195 142.504 44.9949 142.609L46.2175 143.311L48.5244 139.319L47.2965 138.607C47.1224 138.503 46.9804 138.354 46.8865 138.174C46.7926 137.995 46.7505 137.793 46.765 137.591C46.765 137.48 46.765 137.363 46.765 137.251C46.765 137.139 46.765 137.023 46.765 136.911C46.7512 136.709 46.7935 136.507 46.8873 136.328C46.9812 136.149 47.1228 135.999 47.2965 135.896L48.5297 135.183L46.2228 131.191L44.9949 131.898C44.8186 131.999 44.6177 132.048 44.4148 132.041C44.2119 132.033 44.0152 131.969 43.8468 131.856C43.6544 131.731 43.4557 131.615 43.2514 131.51C43.0695 131.425 42.9156 131.29 42.8074 131.12C42.6992 130.951 42.6412 130.755 42.6402 130.554V129.14H38.021V130.554C38.0234 130.757 37.9677 130.956 37.8603 131.129C37.7529 131.301 37.5984 131.439 37.415 131.526C37.2107 131.631 37.012 131.746 36.8197 131.872C36.6513 131.985 36.4545 132.049 36.2517 132.057C36.0488 132.064 35.8479 132.015 35.6715 131.914L34.4436 131.207L32.1367 135.199L33.3646 135.912C33.5388 136.015 33.6807 136.164 33.7746 136.344C33.8685 136.523 33.9106 136.725 33.8961 136.927C33.8961 137.038 33.8961 137.15 33.8961 137.267C33.8961 137.384 33.8961 137.496 33.8961 137.607C33.9098 137.81 33.8674 138.012 33.7736 138.192C33.6798 138.372 33.5383 138.523 33.3646 138.628L32.1367 139.335ZM36.5486 137.267C36.5475 136.518 36.7687 135.786 37.1842 135.162C37.5997 134.539 38.1907 134.053 38.8825 133.766C39.5742 133.479 40.3356 133.404 41.0703 133.55C41.8049 133.695 42.4798 134.056 43.0094 134.586C43.539 135.115 43.8995 135.79 44.0454 136.525C44.1913 137.259 44.1159 138.021 43.8288 138.713C43.5416 139.404 43.0557 139.995 42.4325 140.411C41.8093 140.826 41.0769 141.047 40.3279 141.046C39.3256 141.046 38.3643 140.648 37.6555 139.939C36.9468 139.231 36.5486 138.269 36.5486 137.267Z" fill="#EBEBEB"/>
<path d="M106.73 133.747L95.2008 209.419H92.9258L100.043 133.747H106.73Z" fill="#EBEBEB"/>
<path d="M106.725 133.747L105.625 140.976H99.3633L100.044 133.747H106.725Z" fill="#A6A6A6"/>
<path d="M212.305 133.747L223.834 209.419H226.109L218.992 133.747H212.305Z" fill="#EBEBEB"/>
<path d="M212.312 133.747L213.413 140.976H219.674L218.994 133.747H212.312Z" fill="#A6A6A6"/>
<path d="M230.4 125.748H88.6406V132.174H230.4V125.748Z" fill="#EBEBEB"/>
<path d="M228.243 132.175H90.7891V133.748H228.243V132.175Z" fill="#C7C7C7"/>
<path d="M132.944 238.78C192.538 238.78 240.849 233.289 240.849 226.517C240.849 219.744 192.538 214.254 132.944 214.254C73.3497 214.254 25.0391 219.744 25.0391 226.517C25.0391 233.289 73.3497 238.78 132.944 238.78Z" fill="#EBEBEB"/>
<path d="M15.8438 209.481L45.1162 209.353L74.3887 209.305L132.939 209.215L191.489 209.305L220.762 209.348L250.034 209.481L220.762 209.608L191.489 209.656L132.939 209.746L74.3887 209.656L45.1162 209.608L15.8438 209.481Z" fill="#263238"/>
<path d="M89.2289 80.3884C100.634 80.3884 109.88 71.1427 109.88 59.7376C109.88 48.3326 100.634 39.0869 89.2289 39.0869C77.8238 39.0869 68.5781 48.3326 68.5781 59.7376C68.5781 71.1427 77.8238 80.3884 89.2289 80.3884Z" fill="#FF7900"/>
<path d="M89.2331 75.4965C97.9374 75.4965 104.994 68.4403 104.994 59.7361C104.994 51.0318 97.9374 43.9756 89.2331 43.9756C80.5289 43.9756 73.4727 51.0318 73.4727 59.7361C73.4727 68.4403 80.5289 75.4965 89.2331 75.4965Z" fill="white"/>
<path d="M100.197 62.3559C101.64 56.3048 97.9038 50.2299 91.8528 48.7872C85.8017 47.3445 79.7268 51.0804 78.2841 57.1314C76.8414 63.1825 80.5772 69.2574 86.6283 70.7001C92.6794 72.1428 98.7543 68.407 100.197 62.3559Z" fill="#FF7900"/>
<path d="M95.3026 61.1317C96.0719 57.7782 93.977 54.4361 90.6235 53.6668C87.27 52.8975 83.9278 54.9924 83.1585 58.3459C82.3893 61.6994 84.4842 65.0416 87.8377 65.8109C91.1912 66.5802 94.5334 64.4853 95.3026 61.1317Z" fill="white"/>
<path d="M92.0446 59.7381C92.0446 60.2953 91.8794 60.84 91.5698 61.3033C91.2602 61.7666 90.8203 62.1277 90.3055 62.3409C89.7907 62.5541 89.2243 62.6099 88.6778 62.5012C88.1313 62.3925 87.6293 62.1242 87.2353 61.7302C86.8413 61.3362 86.573 60.8342 86.4643 60.2877C86.3556 59.7412 86.4114 59.1748 86.6246 58.66C86.8378 58.1452 87.1989 57.7053 87.6622 57.3957C88.1255 57.0861 88.6702 56.9209 89.2274 56.9209C89.5975 56.9202 89.9642 56.9926 90.3063 57.1339C90.6484 57.2753 90.9593 57.4827 91.221 57.7445C91.4828 58.0062 91.6902 58.3171 91.8316 58.6592C91.9729 59.0013 92.0453 59.368 92.0446 59.7381Z" fill="#FF7900"/>
<path d="M117.432 30.8948L90.7461 57.5811L91.3851 58.22L118.071 31.5338L117.432 30.8948Z" fill="#455A64"/>
<path d="M92.7135 58.8019L89.2266 59.7374L90.1621 56.2451L92.7135 58.8019Z" fill="#263238"/>
<path d="M122.219 29.4759L117.217 34.4778L113.289 35.6738L114.49 31.7509L119.492 26.749L118.296 30.6719L122.219 29.4759Z" fill="#263238"/>
<path d="M56.459 153.341C56.459 152.98 56.4219 152.619 56.4219 152.279H56.8201C56.8201 152.624 56.8201 152.975 56.8573 153.341H56.459Z" fill="#263238"/>
<path d="M97.6466 184.241H97.5775V183.842H97.652C98.3217 183.842 99.0127 183.842 99.6984 183.789V184.188C99.0234 184.209 98.327 184.241 97.6466 184.241ZM94.9038 184.151C94.1969 184.108 93.4793 184.044 92.7776 183.97L92.8202 183.571C93.5165 183.651 94.2288 183.709 94.9464 183.757L94.9038 184.151ZM102.383 183.986L102.34 183.587C103.037 183.513 103.744 183.417 104.44 183.311L104.498 183.704C103.797 183.8 103.084 183.89 102.383 183.97V183.986ZM90.1571 183.593C89.4608 183.47 88.7591 183.332 88.0309 183.173L88.1213 182.785C88.8123 182.939 89.5086 183.077 90.1996 183.199L90.1571 183.593ZM107.167 183.215L107.082 182.827C107.767 182.678 108.464 182.508 109.144 182.333L109.245 182.715C108.522 182.88 107.821 183.05 107.13 183.178L107.167 183.215ZM85.4795 182.514C84.7991 182.317 84.1134 182.104 83.4383 181.876L83.5659 181.498C84.2356 181.727 84.916 181.939 85.5911 182.131L85.4795 182.514ZM111.807 181.982L111.685 181.605C112.344 181.387 113.019 181.153 113.689 180.903L113.827 181.275C113.115 181.493 112.434 181.727 111.77 181.945L111.807 181.982ZM80.9347 180.961C80.2756 180.696 79.6165 180.43 78.9733 180.116L79.1381 179.749C79.7759 180.047 80.435 180.329 81.0835 180.595L80.9347 180.961ZM116.304 180.276L116.145 179.909C116.793 179.632 117.436 179.33 118.058 179.011L118.239 179.367C117.569 179.648 116.921 179.957 116.267 180.238L116.304 180.276ZM76.576 178.926C75.9434 178.585 75.3162 178.235 74.7156 177.862L74.9175 177.522C75.5182 177.878 76.1401 178.229 76.7674 178.585L76.576 178.926ZM120.572 178.075L120.365 177.735C120.966 177.373 121.566 176.985 122.151 176.587L122.374 176.916C121.747 177.283 121.141 177.671 120.535 178.038L120.572 178.075ZM72.4565 176.443C71.8611 176.045 71.2764 175.63 70.7077 175.21L70.9469 174.891C71.4784 175.306 72.0897 175.72 72.6797 176.114L72.4565 176.443ZM124.548 175.332L124.304 175.024C124.835 174.588 125.399 174.131 125.925 173.663L126.191 173.966C125.596 174.397 125.043 174.859 124.485 175.295L124.548 175.332ZM68.6399 173.552C68.1084 173.089 67.5768 172.616 67.0453 172.138L67.3164 171.845C67.8479 172.318 68.3795 172.791 68.911 173.243L68.6399 173.552ZM128.142 172.143L127.86 171.861C128.349 171.372 128.843 170.862 129.327 170.336L129.619 170.601C129.067 171.096 128.572 171.617 128.078 172.106L128.142 172.143ZM65.0626 170.219C64.5736 169.687 64.0899 169.156 63.6274 168.624L63.9304 168.364C64.3875 168.895 64.8659 169.427 65.3496 169.958L65.0626 170.219ZM131.315 168.555L131.012 168.3C131.459 167.768 131.905 167.21 132.336 166.647L132.649 166.891C132.213 167.455 131.767 168.018 131.315 168.555ZM61.953 166.546C61.5278 165.972 61.1132 165.382 60.7252 164.792L61.06 164.574C61.4427 165.153 61.852 165.738 62.2773 166.307L61.953 166.546ZM134.244 164.749L133.914 164.515C134.324 163.941 134.728 163.362 135.121 162.772L135.456 162.99C135.068 163.585 134.653 164.17 134.244 164.749ZM59.3538 162.495C59.0029 161.857 58.684 161.209 58.397 160.576L58.7584 160.412C59.0455 161.039 59.3591 161.677 59.6993 162.304L59.3538 162.495ZM136.907 160.752L136.567 160.539C136.944 159.944 137.311 159.338 137.678 158.727L138.018 158.934C137.651 159.545 137.284 160.151 136.907 160.752ZM57.4242 158.094C57.1957 157.398 57.0043 156.701 56.8555 156.026L57.2435 155.941C57.3923 156.606 57.5784 157.286 57.775 157.972L57.4242 158.094ZM139.368 156.654L139.017 156.457C139.368 155.84 139.714 155.224 140.08 154.602L140.431 154.793C140.064 155.399 139.714 156.016 139.368 156.632V156.654ZM141.675 152.449L141.324 152.258C141.657 151.634 141.987 151.007 142.313 150.376L142.669 150.562C142.339 151.173 142.01 151.816 141.675 152.428V152.449ZM143.886 148.197L143.535 148.016C143.854 147.383 144.173 146.751 144.497 146.118L144.854 146.294L143.886 148.197ZM146.044 143.912L145.688 143.737L146.64 141.829L146.996 142.009L146.044 143.912ZM148.171 139.628L147.814 139.447L148.776 137.544L149.133 137.725L148.171 139.628ZM150.339 135.376L149.988 135.195L150.966 133.303L151.323 133.489L150.339 135.376ZM152.566 131.123L152.216 130.932C152.55 130.31 152.891 129.688 153.231 129.066L153.582 129.257C153.252 129.847 152.917 130.469 152.609 131.086L152.566 131.123ZM154.879 126.945L154.528 126.749C154.879 126.132 155.235 125.521 155.591 124.909L155.936 125.111C155.596 125.691 155.267 126.302 154.895 126.913L154.879 126.945ZM157.308 122.842L156.968 122.629C157.34 122.028 157.712 121.428 158.095 120.832L158.435 121.045C158.068 121.608 157.691 122.209 157.324 122.81L157.308 122.842ZM159.886 118.828L159.551 118.605C159.95 118.015 160.354 117.43 160.763 116.846L161.087 117.08C160.694 117.627 160.295 118.212 159.902 118.797L159.886 118.828ZM162.645 114.922L162.32 114.688C162.746 114.119 163.176 113.55 163.617 112.992L163.931 113.237C163.511 113.763 163.081 114.326 162.661 114.89L162.645 114.922ZM165.595 111.169L165.286 110.914C165.744 110.382 166.206 109.824 166.674 109.292L166.971 109.553C166.52 110.053 166.062 110.595 165.611 111.137L165.595 111.169ZM168.784 107.591L168.492 107.315C168.981 106.784 169.47 106.289 169.975 105.784L170.256 106.066C169.746 106.534 169.257 107.044 168.773 107.56L168.784 107.591ZM172.165 104.216L171.888 103.924C172.42 103.44 172.951 102.962 173.483 102.494L173.743 102.792C173.191 103.227 172.664 103.706 172.154 104.184L172.165 104.216ZM175.758 101.08L175.508 100.772C176.04 100.32 176.624 99.8787 177.183 99.4534L177.427 99.7671C176.864 100.16 176.3 100.602 175.747 101.048L175.758 101.08ZM179.564 98.2043L179.335 97.88C179.915 97.4761 180.51 97.0721 181.105 96.6841L181.323 97.0189C180.723 97.3698 180.133 97.7737 179.553 98.1724L179.564 98.2043ZM183.572 95.6103L183.364 95.2701C183.976 94.9034 184.598 94.5419 185.214 94.207L185.406 94.5525C184.784 94.8608 184.167 95.217 183.561 95.5784L183.572 95.6103Z" fill="#263238"/>
<path d="M187.841 93.217L187.66 92.8613L188.616 92.3887L188.791 92.7444L187.841 93.217Z" fill="#263238"/>
<path d="M182.874 89.5402L179.961 97.5348L186.079 92.7614L209.457 84.2832L182.874 89.5402Z" fill="#FF7900"/>
<path opacity="0.1" d="M182.874 89.5402L179.961 97.5348L186.079 92.7614L209.457 84.2832L182.874 89.5402Z" fill="#17153E"/>
<path d="M186.86 94.6284L179.961 97.536L186.079 92.7627L186.86 94.6284Z" fill="#263238"/>
<path d="M186.074 92.7614L209.452 84.2832L190.273 102.994L186.074 92.7614Z" fill="#FF7900"/>
<path d="M182.875 89.5403L173.164 83.2627L209.458 84.2833L182.875 89.5403Z" fill="#FF7900"/>
<path d="M90.805 204.865H35.1836V206.869H90.805V204.865Z" fill="#00CCA7"/>
<path d="M90.805 217.714H35.1836V219.718H90.805V217.714Z" fill="#00CCA7"/>
<path d="M90.805 219.015H35.1836V219.711H90.805V219.015Z" fill="#37474F"/>
<path d="M92.6502 219.717H33.3398V222.938H92.6502V219.717Z" fill="#00CCA7"/>
<path d="M88.0549 206.869H37.9297V217.713H88.0549V206.869Z" fill="#00CCA7"/>
<path d="M88.0549 206.869H37.9297V209.463H88.0549V206.869Z" fill="#37474F"/>
<path d="M88.0549 215.119H37.9297V217.713H88.0549V215.119Z" fill="#37474F"/>
<path d="M51.6088 152.008C51.6088 152.008 48.2068 147.649 48.3397 147.224C48.4726 146.799 57.0891 142.839 62.3939 144.035C67.6988 145.231 82.7204 152.694 85.6812 164.627C88.6419 176.56 80.0255 193.66 79.8075 197.636C79.6964 200.113 80.1169 202.585 81.0407 204.887H76.6661C76.6661 204.887 74.3272 200.422 75.7837 193.724C77.2401 187.026 81.0407 174.413 79.361 167.519C77.6813 160.624 66.2849 151.434 62.883 150.195C59.481 148.957 51.6088 152.008 51.6088 152.008Z" fill="#263238"/>
<path d="M79.061 204.865H43.3621C43.3621 204.865 43.3621 195.616 46.8969 189.785C50.4317 183.954 58.9099 177.942 60.6215 175.173C61.6425 173.516 62.1012 171.573 61.9291 169.634C60.325 171.808 58.0033 173.345 55.3751 173.972C52.8724 174.584 50.2489 174.492 47.7952 173.706C47.7952 173.706 41.8259 175.651 41.4166 176.061C41.0073 176.47 39.6518 177.655 38.5887 177.703C37.5256 177.751 34.1875 174.142 34.1875 170.952C34.1875 168.295 45.5361 158.418 45.5361 158.418C45.5361 158.418 47.067 154.761 47.4816 153.937C47.8962 153.113 58.3784 148.09 61.1477 148.282C63.9171 148.473 76.079 155.192 80.1241 163.957C84.0097 172.382 79.8105 185.793 78.354 191.598C76.2331 200.124 79.061 204.865 79.061 204.865Z" fill="#00CCA7"/>
<path d="M47.7891 163.128L53.8062 159.832C53.8062 159.832 51.6003 159.301 50.2501 159.917C48.9 160.534 47.7891 163.128 47.7891 163.128Z" fill="#263238"/>
<path d="M56.6115 152.662C56.6115 152.662 51.6894 144.635 51.6096 143.737C51.5618 143.163 58.456 144.667 60.3111 145.948C62.1662 147.229 65.7489 151.168 65.7489 151.168L56.6115 152.662Z" fill="#00CCA7"/>
<path d="M53.8086 145.396C53.8086 145.396 57.2371 146.416 57.9122 147.203C58.6466 148.21 59.3228 149.259 59.9374 150.344" fill="#263238"/>
<path d="M43.4604 202.606L77.6072 199.045C77.8464 202.83 79.0583 204.865 79.0583 204.865H43.3594L43.4604 202.606Z" fill="#37474F"/>
<path d="M228.268 33.2383H162.148V74.8906H228.268V33.2383Z" fill="#EBEBEB"/>
<path d="M167.594 42.7739C176.768 42.7154 185.943 42.7314 195.112 42.7101C204.281 42.6889 213.461 42.7101 222.63 42.7739C213.461 42.8324 204.287 42.8164 195.112 42.8377C185.938 42.859 176.768 42.8483 167.594 42.7739Z" fill="#A6A6A6"/>
<path d="M167.594 48.2119C176.768 48.1641 185.943 48.1641 195.128 48.1641C204.313 48.1641 213.477 48.1641 222.646 48.2279C213.477 48.2863 204.303 48.2704 195.128 48.297C185.953 48.3235 176.768 48.2704 167.594 48.2119Z" fill="#A6A6A6"/>
<path d="M167.594 53.6499C176.768 53.5914 185.943 53.6074 195.112 53.5861C204.281 53.5648 213.461 53.5861 222.63 53.6499C213.461 53.7084 204.287 53.6924 195.112 53.719C185.938 53.7456 176.768 53.7084 167.594 53.6499Z" fill="#A6A6A6"/>
<path d="M167.594 59.0874C176.768 59.0289 185.943 59.0449 195.112 59.0236C204.281 59.0023 213.461 59.0236 222.63 59.0874C213.461 59.1459 204.287 59.1299 195.112 59.1565C185.938 59.1831 176.768 59.1459 167.594 59.0874Z" fill="#A6A6A6"/>
<path d="M167.594 64.5249C176.768 64.4664 185.943 64.4824 195.112 64.4611C204.281 64.4398 213.461 64.4611 222.63 64.5249C213.461 64.5834 204.287 64.5674 195.112 64.594C185.938 64.6206 176.768 64.5834 167.594 64.5249Z" fill="#A6A6A6"/>
<path d="M178.676 39.2393C178.756 44.3209 178.734 49.4025 178.766 54.4841C178.798 59.5657 178.766 64.642 178.676 69.7237C178.596 64.642 178.612 59.5604 178.58 54.4841C178.548 49.4078 178.596 44.3209 178.676 39.2393Z" fill="#A6A6A6"/>
<path d="M188.222 39.2393C188.307 44.3209 188.286 49.4025 188.318 54.4841C188.35 59.5657 188.318 64.642 188.222 69.7237C188.142 64.642 188.164 59.5604 188.132 54.4841C188.1 49.4078 188.116 44.3209 188.222 39.2393Z" fill="#A6A6A6"/>
<path d="M197.715 39.2393C197.795 44.3209 197.774 49.4025 197.811 54.4841C197.848 59.5657 197.811 64.642 197.715 69.7237C197.635 64.642 197.651 59.5604 197.619 54.4841C197.587 49.4078 197.635 44.3209 197.715 39.2393Z" fill="#A6A6A6"/>
<path d="M207.23 39.2393C207.315 44.3209 207.294 49.4025 207.326 54.4841C207.357 59.5657 207.326 64.642 207.23 69.7237C207.15 64.642 207.171 59.5604 207.14 54.4841C207.108 49.4078 207.15 44.3209 207.23 39.2393Z" fill="#A6A6A6"/>
<path d="M216.748 39.2393C216.828 44.3209 216.807 49.4025 216.844 54.4841C216.881 59.5657 216.844 64.642 216.748 69.7237C216.669 64.642 216.69 59.5604 216.653 54.4841C216.616 49.4078 216.669 44.3209 216.748 39.2393Z" fill="#A6A6A6"/>
<path opacity="0.5" d="M168.98 60.5811C170.66 60.5811 171.638 55.0583 174.041 55.0583C176.443 55.0583 176.672 59.0874 178.676 59.0874C180.68 59.0874 180.616 52.0072 183.311 52.0072C186.006 52.0072 185.373 54.8829 188.191 54.8829C191.008 54.8829 189.945 48.2119 192.89 48.2119C195.834 48.2119 194.644 57.4024 197.711 57.4024C199.651 57.4024 200.4 54.4842 202.718 54.4842C204.254 54.4842 205.158 55.9407 207.162 55.9407C209.166 55.9407 209.607 50.3275 212.11 50.3275C214.614 50.3275 214.901 53.6497 216.746 53.6497C218.59 53.6497 219.249 48.2119 222.63 48.2119V69.7238H168.98V60.5811Z" fill="#FF7900"/>
<path d="M168.98 60.847V60.3155C169.512 60.3155 170.187 59.0238 170.703 58.083C171.58 56.4883 172.489 54.7927 174.041 54.7927C175.593 54.7927 176.273 56.0152 176.922 57.0996C177.453 57.9448 177.985 58.8218 178.676 58.8218C179.303 58.8218 179.845 57.1209 180.239 55.8823C180.893 53.8465 181.562 51.7416 183.311 51.7416C184.869 51.7416 185.48 52.5708 186.017 53.299C186.554 54.0272 186.995 54.6172 188.191 54.6172C189.254 54.6172 189.7 53.0598 190.11 51.5502C190.593 49.7801 191.093 47.9463 192.89 47.9463C194.686 47.9463 195.127 50.2532 195.611 52.6984C196.004 54.6757 196.488 57.1368 197.711 57.1368C198.439 57.1368 199.04 56.5255 199.672 55.8877C200.438 55.101 201.315 54.2186 202.718 54.2186C203.477 54.2655 204.21 54.5112 204.844 54.9309C205.531 55.3806 206.326 55.6376 207.146 55.675C207.842 55.675 208.475 54.3408 208.985 53.2671C209.734 51.6725 210.511 50.0778 212.095 50.0778C213.679 50.0778 214.449 51.1409 215.135 52.0764C215.635 52.7568 216.108 53.4 216.73 53.4C217.261 53.4 217.862 52.3688 218.388 51.4545C219.292 49.8971 220.419 47.9622 222.614 47.9622V48.4938C220.924 48.4938 219.956 50.1735 219.084 51.6831C218.346 52.9535 217.766 53.9581 216.73 53.9581C215.693 53.9581 215.077 53.1767 214.465 52.3635C213.854 51.5502 213.216 50.6572 212.095 50.6572C211.031 50.6572 210.335 52.1668 209.697 53.501C208.996 54.9893 208.384 56.2704 207.146 56.2704C206.164 56.2392 205.209 55.9435 204.382 55.4146C203.883 55.0728 203.304 54.8658 202.702 54.8139C201.692 54.8139 200.969 55.5421 200.273 56.2544C199.577 56.9667 198.816 57.7321 197.695 57.7321C195.818 57.7321 195.345 55.3508 194.851 52.8366C194.474 50.923 194.001 48.5416 192.874 48.5416C191.747 48.5416 191.236 50.2266 190.833 51.7309C190.343 53.5276 189.881 55.2285 188.175 55.2285C186.468 55.2285 185.894 54.3727 185.336 53.6339C184.778 52.895 184.395 52.3635 183.295 52.3635C182.195 52.3635 181.488 54.4312 180.962 56.0843C180.361 57.9607 179.899 59.4384 178.66 59.4384C177.421 59.4384 176.853 58.4444 176.215 57.3919C175.625 56.4192 175.019 55.4093 174.025 55.4093C173.031 55.4093 172.101 57.0464 171.367 58.3594C170.623 59.7095 170.006 60.847 168.98 60.847Z" fill="#FF7900"/>
<path d="M168.984 39.5684C169.042 44.5968 169.096 49.62 169.101 54.6484L169.159 69.7232L168.984 69.601L195.811 69.6328H209.222L222.633 69.702L209.222 69.771L195.811 69.7976L168.984 69.8295H168.809V69.702L168.867 54.6272C168.872 49.62 168.92 44.5968 168.984 39.5684Z" fill="#A6A6A6"/>
<path d="M97.9097 84.6826H33.4805V120.185H97.9097V84.6826Z" fill="#EBEBEB"/>
<path d="M94.1668 89.1631H43.207V92.2301H94.1668V89.1631Z" fill="white"/>
<path d="M78.4754 89.1631H43.207V92.2301H78.4754V89.1631Z" fill="#455A64"/>
<path d="M94.1668 95.0322H43.207V98.0993H94.1668V95.0322Z" fill="white"/>
<path d="M88.9576 95.0322H43.207V98.0993H88.9576V95.0322Z" fill="#FF7900"/>
<path d="M94.1668 100.9H43.207V103.967H94.1668V100.9Z" fill="white"/>
<path d="M75.6848 100.9H43.207V103.967H75.6848V100.9Z" fill="#455A64"/>
<path d="M94.1668 106.768H43.207V109.835H94.1668V106.768Z" fill="white"/>
<path d="M80.6866 106.768H43.207V109.835H80.6866V106.768Z" fill="#FF7900"/>
<path d="M94.1668 112.637H43.207V115.704H94.1668V112.637Z" fill="white"/>
<path d="M67.5946 112.637H43.207V115.704H67.5946V112.637Z" fill="#455A64"/>
<path d="M41.5934 100.57H37.8672V104.296H41.5934V100.57Z" fill="#455A64"/>
<path d="M39.3903 102.83H38.8906V102.256H39.3903C39.3903 102.213 39.3903 102.181 39.3903 102.144C39.3903 101.995 39.3903 101.841 39.3903 101.692C39.3936 101.545 39.4486 101.403 39.5458 101.292C39.643 101.182 39.7762 101.109 39.9218 101.086C40.1307 101.073 40.3402 101.073 40.5491 101.086V101.618H40.3471C40.2816 101.612 40.2159 101.612 40.1504 101.618C40.1062 101.623 40.0656 101.644 40.0361 101.678C40.0067 101.711 39.9906 101.754 39.9909 101.798C39.9909 101.947 39.9909 102.091 39.9909 102.25H40.5597C40.5597 102.436 40.5119 102.612 40.4853 102.782C40.4853 102.782 40.4374 102.819 40.4162 102.819H39.9909V104.291H39.3903V102.83Z" fill="white"/>
<path d="M41.5934 106.438H37.8672V110.165H41.5934V106.438Z" fill="#FF7900"/>
<path d="M39.7908 108.497H39.2593V108.172H40.1735V108.364C40.1778 108.596 40.0904 108.821 39.9302 108.989C39.77 109.157 39.5499 109.255 39.3177 109.262C39.0965 109.283 38.8749 109.227 38.6907 109.103C38.5066 108.978 38.3715 108.794 38.3086 108.58C38.2458 108.367 38.259 108.139 38.3462 107.935C38.4333 107.73 38.5889 107.562 38.7862 107.46C38.961 107.368 39.1597 107.33 39.3561 107.353C39.5526 107.376 39.7375 107.458 39.8865 107.588C39.8121 107.662 39.7377 107.742 39.6632 107.811C39.5888 107.88 39.6207 107.811 39.5994 107.811C39.5201 107.775 39.4384 107.745 39.3549 107.721C39.278 107.704 39.1987 107.704 39.1216 107.719C39.0445 107.734 38.9713 107.765 38.9063 107.809C38.8413 107.853 38.7858 107.91 38.7433 107.976C38.7007 108.042 38.6719 108.116 38.6586 108.194C38.6424 108.271 38.6418 108.351 38.6569 108.429C38.672 108.507 38.7025 108.581 38.7466 108.647C38.7906 108.712 38.8474 108.769 38.9135 108.812C38.9796 108.856 39.0538 108.886 39.1317 108.901C39.2016 108.92 39.2745 108.924 39.3462 108.914C39.4178 108.903 39.4866 108.879 39.5483 108.841C39.6101 108.803 39.6634 108.753 39.7051 108.694C39.7468 108.635 39.776 108.568 39.7908 108.497Z" fill="white"/>
<path d="M41.1796 108.161V108.363C41.1796 108.363 41.1796 108.405 41.1796 108.437H40.9141V108.708H40.638V108.442H40.3672V108.166H40.638V107.896H40.9088V108.161H41.1796Z" fill="white"/>
<path d="M41.5934 112.308H37.8672V116.034H41.5934V112.308Z" fill="#455A64"/>
<path d="M38.3281 115.092C38.6256 115.104 38.9182 115.014 39.1573 114.837C38.8118 114.736 38.6736 114.629 38.6258 114.433H38.8544C38.7283 114.396 38.6171 114.32 38.5369 114.216C38.4567 114.112 38.4115 113.985 38.4079 113.853L38.6417 113.912C38.3919 113.604 38.3441 113.38 38.4929 113.136C38.6422 113.315 38.8269 113.461 39.0355 113.566C39.2441 113.67 39.472 113.73 39.7048 113.742C39.7077 113.71 39.7077 113.678 39.7048 113.646C39.6979 113.53 39.7251 113.415 39.7831 113.315C39.8411 113.215 39.9273 113.134 40.0311 113.082C40.1348 113.031 40.2514 113.011 40.3664 113.025C40.4814 113.039 40.5896 113.087 40.6776 113.162C40.6953 113.178 40.717 113.189 40.7404 113.194C40.7638 113.199 40.788 113.197 40.8105 113.189L41.0975 113.083C41.0544 113.201 40.9742 113.301 40.8689 113.37L41.156 113.295C41.0816 113.37 41.0125 113.444 40.9327 113.513C40.9139 113.529 40.8988 113.548 40.8887 113.57C40.8786 113.592 40.8736 113.616 40.8743 113.641C40.876 114.058 40.7215 114.461 40.4411 114.77C40.1607 115.079 39.7748 115.271 39.3593 115.31C39.017 115.342 38.6729 115.272 38.3707 115.108L38.3281 115.092Z" fill="white"/>
<path d="M41.6207 88.835H37.8945V92.5611H41.6207V88.835Z" fill="#455A64"/>
<path d="M41.1223 89.9459C41.1292 89.8643 41.1186 89.7821 41.0912 89.705C41.0638 89.6278 41.0201 89.5574 40.9632 89.4985C40.9063 89.4396 40.8375 89.3935 40.7613 89.3634C40.6852 89.3333 40.6035 89.3199 40.5217 89.324C39.9901 89.324 39.4958 89.324 38.9855 89.324C38.9051 89.3201 38.8249 89.3332 38.7499 89.3623C38.6749 89.3915 38.6069 89.4361 38.5503 89.4932C38.4936 89.5504 38.4496 89.6188 38.4211 89.694C38.3926 89.7692 38.3803 89.8496 38.3848 89.9299C38.3848 90.1851 38.3848 90.4615 38.3848 90.6954C38.3848 90.9292 38.3848 91.195 38.3848 91.4448C38.3779 91.5278 38.3888 91.6114 38.4168 91.6898C38.4448 91.7683 38.4892 91.8398 38.5471 91.8997C38.6049 91.9596 38.6749 92.0064 38.7524 92.0371C38.8298 92.0677 38.9129 92.0815 38.9961 92.0774H40.5163C40.5979 92.0813 40.6793 92.068 40.7553 92.0382C40.8313 92.0085 40.9002 91.963 40.9574 91.9048C41.0146 91.8466 41.0589 91.7769 41.0873 91.7004C41.1157 91.6239 41.1277 91.5422 41.1223 91.4608C41.1259 90.947 41.1259 90.442 41.1223 89.9459ZM40.8778 91.4661C40.8837 91.5152 40.8784 91.565 40.8624 91.6118C40.8463 91.6586 40.82 91.7012 40.7853 91.7364C40.7506 91.7716 40.7084 91.7986 40.6618 91.8153C40.6153 91.832 40.5655 91.838 40.5163 91.8329H38.9961C38.9465 91.8389 38.8962 91.8335 38.849 91.8172C38.8017 91.8009 38.7588 91.7741 38.7235 91.7387C38.6881 91.7034 38.6613 91.6605 38.645 91.6133C38.6287 91.566 38.6233 91.5157 38.6293 91.4661C38.6293 90.9558 38.6293 90.4455 38.6293 89.9352C38.6235 89.8854 38.6289 89.8349 38.6452 89.7875C38.6615 89.7401 38.6883 89.6969 38.7235 89.6612C38.7587 89.6255 38.8014 89.5981 38.8486 89.5812C38.8958 89.5642 38.9462 89.558 38.9961 89.5632H40.511C40.5604 89.5582 40.6103 89.5642 40.6571 89.5809C40.7038 89.5976 40.7463 89.6244 40.7814 89.6595C40.8165 89.6947 40.8434 89.7371 40.86 89.7839C40.8767 89.8307 40.8828 89.8805 40.8778 89.9299C40.8778 90.1851 40.8778 90.4615 40.8778 90.7007C40.8778 90.9399 40.8831 91.2216 40.8778 91.4661Z" fill="white"/>
<path d="M39.7583 89.9827C39.6151 89.9785 39.4739 90.0172 39.3529 90.094C39.2319 90.1707 39.1366 90.2818 39.0794 90.4132C39.0221 90.5445 39.0054 90.6899 39.0316 90.8308C39.0577 90.9717 39.1253 91.1015 39.2259 91.2036C39.3264 91.3056 39.4552 91.3753 39.5957 91.4035C39.7361 91.4318 39.8818 91.4173 40.014 91.362C40.1462 91.3068 40.2588 91.2132 40.3373 91.0934C40.4158 90.9735 40.4567 90.833 40.4546 90.6897C40.4533 90.5044 40.3798 90.327 40.2498 90.195C40.1198 90.063 39.9435 89.9869 39.7583 89.9827ZM39.7583 91.1734C39.6342 91.1707 39.516 91.1198 39.4287 91.0315C39.3414 90.9432 39.2919 90.8245 39.2905 90.7003C39.303 90.5828 39.3585 90.4741 39.4463 90.395C39.5341 90.316 39.6481 90.2723 39.7663 90.2723C39.8844 90.2723 39.9984 90.316 40.0863 90.395C40.1741 90.4741 40.2296 90.5828 40.242 90.7003C40.2413 90.7641 40.2279 90.827 40.2026 90.8855C40.1773 90.944 40.1405 90.9968 40.0944 91.0409C40.0484 91.085 39.994 91.1194 39.9344 91.1422C39.8749 91.1649 39.8114 91.1755 39.7477 91.1734H39.7583Z" fill="white"/>
<path d="M40.6878 89.9606C40.6878 90.0042 40.6705 90.046 40.6397 90.0768C40.6089 90.1076 40.5672 90.1249 40.5236 90.1249C40.4801 90.1249 40.4383 90.1076 40.4075 90.0768C40.3767 90.046 40.3594 90.0042 40.3594 89.9606C40.3607 89.9391 40.3663 89.918 40.3758 89.8985C40.3854 89.8791 40.3986 89.8618 40.4149 89.8475C40.4311 89.8332 40.45 89.8223 40.4705 89.8154C40.491 89.8084 40.5126 89.8056 40.5342 89.807C40.5745 89.8083 40.6129 89.8249 40.6414 89.8535C40.6699 89.882 40.6865 89.9203 40.6878 89.9606Z" fill="white"/>
<path d="M41.5934 94.6494H37.8672V98.3756H41.5934V94.6494Z" fill="#FF7900"/>
<path d="M38.3281 97.8918C38.3919 97.6792 38.4451 97.4825 38.5035 97.2858C38.5246 97.2274 38.5246 97.1635 38.5035 97.1051C38.4127 96.9176 38.3656 96.712 38.3657 96.5037C38.3658 96.2954 38.4133 96.0898 38.5044 95.9025C38.5955 95.7152 38.7279 95.551 38.8917 95.4222C39.0554 95.2935 39.2463 95.2036 39.4498 95.1594C39.6534 95.1151 39.8643 95.1176 40.0668 95.1667C40.2692 95.2158 40.4579 95.3101 40.6186 95.4427C40.7792 95.5753 40.9077 95.7426 40.9944 95.932C41.081 96.1214 41.1236 96.3281 41.1188 96.5363C41.1037 96.8794 40.9625 97.2049 40.7221 97.4502C40.4817 97.6954 40.1592 97.8432 39.8165 97.8652C39.5811 97.8766 39.3463 97.8329 39.1308 97.7376C39.0879 97.7218 39.0408 97.7218 38.9979 97.7376L38.3281 97.8918ZM38.663 97.5675C38.8012 97.5356 38.9181 97.4984 39.0351 97.4772C39.0536 97.4693 39.0735 97.4652 39.0936 97.4652C39.1137 97.4652 39.1335 97.4693 39.152 97.4772C39.3248 97.5668 39.5156 97.6159 39.7102 97.6207C39.8785 97.623 40.0453 97.5884 40.1987 97.5191C40.3521 97.4498 40.4884 97.3477 40.598 97.2199C40.7075 97.092 40.7876 96.9417 40.8326 96.7795C40.8776 96.6173 40.8864 96.4472 40.8583 96.2812C40.8273 96.06 40.7275 95.8541 40.5729 95.6929C40.4183 95.5316 40.2169 95.4231 39.9972 95.3829C39.7788 95.3328 39.5506 95.3474 39.3404 95.4249C39.1302 95.5024 38.9471 95.6394 38.8135 95.8193C38.6799 95.9991 38.6016 96.2139 38.5881 96.4376C38.5746 96.6612 38.6264 96.8839 38.7374 97.0785C38.7533 97.1214 38.7533 97.1685 38.7374 97.2114C38.7228 97.3312 38.7015 97.4501 38.6736 97.5675H38.663Z" fill="white"/>
<path d="M39.1305 95.9514C39.2262 95.8238 39.3485 95.8451 39.4176 95.9886C39.4394 96.0312 39.4571 96.0757 39.4707 96.1215C39.4939 96.1556 39.5029 96.1974 39.496 96.238C39.4891 96.2786 39.4667 96.315 39.4335 96.3395C39.4243 96.3479 39.417 96.3582 39.412 96.3696C39.407 96.3811 39.4044 96.3934 39.4044 96.4059C39.4044 96.4184 39.407 96.4307 39.412 96.4422C39.417 96.4536 39.4243 96.4639 39.4335 96.4723C39.5365 96.6288 39.6822 96.7524 39.8534 96.8285C39.8747 96.8405 39.8998 96.8439 39.9236 96.8379C39.9473 96.832 39.9678 96.8172 39.981 96.7966C40.1033 96.6531 40.1033 96.6531 40.2733 96.7328L40.3318 96.7647C40.3614 96.772 40.3882 96.7879 40.4088 96.8105C40.4293 96.833 40.4427 96.8612 40.4473 96.8913C40.4518 96.9215 40.4473 96.9523 40.4343 96.9799C40.4214 97.0075 40.4005 97.0307 40.3743 97.0464C40.3256 97.0961 40.264 97.1314 40.1965 97.1482C40.1289 97.1651 40.058 97.163 39.9916 97.1421C39.6396 97.0462 39.3386 96.8176 39.1518 96.5042C39.0868 96.4145 39.0515 96.3067 39.0508 96.1959C39.0528 96.1084 39.0805 96.0233 39.1305 95.9514Z" fill="white"/>
<path d="M88.6103 232.149C89.7744 232.526 123.071 232.09 124.325 231.272C124.809 230.969 125.027 226.11 125.128 220.237V220.056C125.128 218.844 125.165 217.595 125.165 216.335C125.165 216.16 125.165 215.984 125.165 215.804L123.57 198.528L101.298 198.752L103.494 215.862V216.543L103.627 220.083V220.444C103.627 220.444 90.9545 226.291 89.6681 227.354C88.3818 228.417 87.4409 231.777 88.6103 232.149Z" fill="#DD6A57"/>
<path d="M88.6116 232.15C89.7757 232.527 123.072 232.091 124.326 231.273C124.81 230.97 125.028 226.111 125.129 220.238V220.057C125.129 218.845 125.166 217.596 125.166 216.336C125.166 216.161 125.166 215.985 125.166 215.805L103.474 215.863V216.544L103.607 220.084V220.445C103.607 220.445 90.9345 226.292 89.6481 227.355C88.3618 228.418 87.4422 231.778 88.6116 232.15Z" fill="#EBEBEB"/>
<path d="M88.6029 232.144C89.2035 232.341 98.2505 232.32 107.09 232.144C108.871 232.112 110.636 232.07 112.321 232.022C118.625 231.852 123.839 231.591 124.323 231.278C124.807 230.964 125.019 226.255 125.115 220.487C125.115 220.407 125.115 220.328 125.115 220.243C125.115 220.158 125.115 220.115 125.115 220.057H125.088L103.635 220.094V220.461C103.635 220.461 90.9683 226.308 89.6819 227.371C88.3956 228.434 87.4388 231.772 88.6029 232.144Z" fill="#FF7900"/>
<path d="M88.9784 230.852C94.5863 230.64 117.236 230.321 122.796 230.539C122.843 230.539 122.843 230.571 122.796 230.576C117.241 230.906 94.5916 231.044 88.9784 230.943C88.8562 230.943 88.8562 230.858 88.9784 230.852Z" fill="#263238"/>
<path d="M101.256 220.185C103.456 219.744 106.162 220.052 107.874 221.599C107.937 221.663 107.874 221.753 107.778 221.732C105.659 221.076 103.476 220.652 101.266 220.467C101.233 220.461 101.203 220.445 101.181 220.42C101.159 220.395 101.146 220.363 101.145 220.33C101.143 220.297 101.154 220.264 101.174 220.237C101.194 220.211 101.223 220.192 101.256 220.185Z" fill="#263238"/>
<path d="M99.6761 221.168C101.882 220.727 104.588 221.03 106.294 222.582C106.358 222.64 106.294 222.736 106.204 222.715C104.084 222.063 101.901 221.639 99.692 221.45C99.6547 221.452 99.618 221.439 99.5901 221.414C99.5622 221.389 99.5453 221.354 99.5432 221.317C99.5411 221.28 99.5539 221.243 99.5788 221.215C99.6037 221.187 99.6387 221.17 99.6761 221.168Z" fill="#263238"/>
<path d="M98.0939 222.15C100.295 221.709 103 222.012 104.706 223.564C104.776 223.623 104.706 223.713 104.616 223.692C102.496 223.042 100.314 222.618 98.1046 222.427C98.0679 222.428 98.0322 222.415 98.0053 222.39C97.9784 222.365 97.9624 222.331 97.961 222.294C97.9596 222.257 97.9728 222.222 97.9978 222.195C98.0227 222.168 98.0573 222.152 98.0939 222.15Z" fill="#263238"/>
<path d="M107.09 232.139C108.871 232.107 110.635 232.065 112.32 232.017C118.624 231.847 123.839 231.586 124.323 231.273C124.806 230.959 125.019 226.25 125.115 220.482C125.115 220.403 125.115 220.323 125.115 220.238C125.115 220.153 125.115 220.11 125.115 220.052H125.088C122.159 222.114 111.799 229.008 107.09 232.139Z" fill="#263238"/>
<path d="M102.189 220.168H126.162C126.162 220.168 121.335 164.164 121.527 163.186C121.766 161.936 123.18 156.275 125.062 148.86C125.657 146.543 126.289 144.076 126.954 141.482C128.74 134.514 130.712 126.902 132.429 120.274C135.007 110.35 137.016 102.637 137.016 102.637H116.695C116.695 102.637 114.335 110.142 111.342 119.923C106.479 135.8 99.983 157.663 99.3399 162.978C98.3033 171.526 102.189 220.168 102.189 220.168Z" fill="#37474F"/>
<path d="M103.248 216.076C106.911 216.002 105.858 215.97 109.521 215.938C111.317 215.938 123.091 215.816 124.766 216.092C124.775 216.092 124.785 216.096 124.792 216.103C124.799 216.11 124.803 216.12 124.803 216.129C124.803 216.139 124.799 216.149 124.792 216.156C124.785 216.163 124.775 216.167 124.766 216.167C123.091 216.443 111.317 216.342 109.521 216.326C105.858 216.289 106.911 216.262 103.248 216.183C103.234 216.183 103.221 216.177 103.211 216.167C103.201 216.157 103.195 216.144 103.195 216.129C103.195 216.115 103.201 216.102 103.211 216.092C103.221 216.082 103.234 216.076 103.248 216.076Z" fill="#263238"/>
<path d="M116.992 159.79C117.779 156.324 118.954 152.927 119.974 149.525C122.051 142.615 124.142 135.705 126.247 128.795C127.31 125.34 128.373 121.888 129.436 118.44C129.971 116.697 130.503 114.955 131.031 113.215C131.562 111.514 132.173 109.829 132.652 108.112C132.849 107.411 132.955 107.793 132.705 108.681C132.173 110.472 131.7 112.258 131.179 114.044C130.148 117.588 129.11 121.119 128.065 124.638C125.999 131.648 123.903 138.66 121.776 145.677C120.713 149.192 119.65 152.709 118.587 156.228C118.051 157.901 117.618 159.605 117.29 161.331C117.009 163.137 116.938 164.968 117.077 166.79C117.311 170.458 117.737 174.12 118.071 177.783L119.092 188.786C119.769 196.082 120.439 203.382 121.101 210.686C121.186 211.61 121.266 212.535 121.335 213.46C121.362 213.769 120.889 213.747 120.857 213.46C120.07 206.242 119.464 199.002 118.784 191.773C118.103 184.544 117.439 177.389 116.764 170.192C116.594 168.39 116.402 166.577 116.402 164.765C116.414 163.09 116.611 161.421 116.992 159.79Z" fill="#263238"/>
<path d="M118.996 102.637C120.41 113.549 123.1 133.998 125.056 148.882C129.643 130.894 137.01 102.637 137.01 102.637H118.996Z" fill="#263238"/>
<path d="M114.009 232.469C115.178 232.851 148.469 232.538 149.729 231.725C150.213 231.422 150.452 226.568 150.569 220.695C150.569 220.631 150.569 220.573 150.569 220.509C150.595 219.297 150.617 218.053 150.622 216.788C150.622 216.618 150.622 216.442 150.622 216.256C150.702 207.783 150.09 198.986 150.09 198.986L128.329 199.13L128.935 216.24V216.916L129.057 220.461V220.822C129.057 220.822 116.369 226.669 115.077 227.685C113.786 228.7 112.845 232.081 114.009 232.469Z" fill="#DD6A57"/>
<path d="M114.009 232.468C115.178 232.851 148.469 232.537 149.729 231.724C150.213 231.421 150.452 226.568 150.569 220.694C150.569 220.631 150.569 220.572 150.569 220.508C150.595 219.296 150.617 218.052 150.622 216.787C150.622 216.617 150.622 216.442 150.622 216.256H128.935V216.931L129.057 220.476V220.838C129.057 220.838 116.369 226.685 115.077 227.7C113.786 228.715 112.845 232.08 114.009 232.468Z" fill="#EBEBEB"/>
<path d="M114.006 232.469C115.176 232.851 148.467 232.538 149.727 231.725C150.21 231.422 150.45 226.569 150.566 220.695C150.566 220.631 150.566 220.573 150.566 220.509L129.081 220.472V220.833C129.081 220.833 116.393 226.68 115.101 227.695C113.81 228.711 112.842 232.081 114.006 232.469Z" fill="#FF7900"/>
<path d="M114.377 231.176C119.99 230.985 142.639 230.746 148.199 230.985C148.242 230.985 148.242 231.017 148.199 231.022C142.639 231.331 119.99 231.384 114.377 231.267C114.26 231.261 114.26 231.176 114.377 231.176Z" fill="#263238"/>
<path d="M126.705 220.551C128.906 220.121 131.611 220.434 133.312 221.992C133.381 222.05 133.312 222.146 133.222 222.125C131.106 221.461 128.924 221.028 126.716 220.833C126.683 220.828 126.652 220.812 126.63 220.787C126.608 220.762 126.595 220.73 126.594 220.696C126.593 220.663 126.603 220.63 126.623 220.604C126.644 220.577 126.672 220.559 126.705 220.551Z" fill="#263238"/>
<path d="M125.119 221.529C127.325 221.093 130.03 221.407 131.731 222.969C131.8 223.028 131.731 223.118 131.641 223.097C129.524 222.436 127.343 222.003 125.135 221.805C125.098 221.807 125.062 221.795 125.035 221.771C125.007 221.746 124.991 221.712 124.989 221.675C124.986 221.638 124.999 221.602 125.023 221.575C125.048 221.548 125.082 221.531 125.119 221.529Z" fill="#263238"/>
<path d="M123.525 222.513C125.731 222.083 128.437 222.396 130.138 223.954C130.202 224.012 130.138 224.108 130.042 224.087C127.926 223.423 125.745 222.989 123.536 222.795C123.503 222.79 123.473 222.773 123.451 222.749C123.428 222.724 123.415 222.692 123.414 222.658C123.413 222.625 123.423 222.592 123.444 222.566C123.464 222.539 123.493 222.521 123.525 222.513Z" fill="#263238"/>
<path d="M117.355 102.637C117.355 102.637 117.823 112.359 120.05 120.061C120.226 120.699 120.423 121.326 120.63 121.927C122.666 122.75 124.623 123.757 126.477 124.935C126.477 124.935 126.711 132.76 126.945 141.482C127.205 151.236 127.476 162.112 127.418 164.419C127.216 173.051 128.481 220.519 128.481 220.519L152.454 220.614C152.454 220.614 148.122 167.608 148.148 164.445C148.196 159.364 146.989 136.895 146.059 120.513C145.485 110.413 144.996 102.637 144.996 102.637H117.355Z" fill="#37474F"/>
<path d="M129.327 216.257C132.989 216.193 131.937 216.161 135.599 216.14C137.39 216.14 149.169 216.076 150.844 216.363C150.876 216.363 150.876 216.432 150.844 216.437C149.164 216.709 137.39 216.554 135.599 216.528C131.937 216.48 132.984 216.453 129.327 216.363C129.312 216.363 129.299 216.357 129.289 216.347C129.279 216.338 129.273 216.324 129.273 216.31C129.273 216.296 129.279 216.282 129.289 216.272C129.299 216.262 129.312 216.257 129.327 216.257Z" fill="#263238"/>
<path d="M143.037 106.102C143.478 119.476 143.946 132.85 144.546 146.218C145.147 159.587 145.955 173.046 147.077 186.425C147.704 193.904 148.294 204.418 149.102 211.875C149.099 211.884 149.093 211.891 149.086 211.896C149.079 211.901 149.071 211.903 149.062 211.903C149.053 211.903 149.045 211.901 149.038 211.896C149.031 211.891 149.025 211.884 149.022 211.875C147.279 198.587 146.306 182.204 145.445 168.857C144.584 155.51 144.004 142.136 143.552 128.768C143.292 121.204 143.095 113.64 142.872 106.076C142.856 105.996 143.037 106.007 143.037 106.102Z" fill="#263238"/>
<path d="M119.649 121.348C122.034 122.342 124.329 123.543 126.506 124.935C126.521 124.947 126.531 124.964 126.534 124.982C126.538 125 126.535 125.019 126.527 125.036C126.518 125.052 126.503 125.065 126.486 125.072C126.469 125.079 126.449 125.08 126.432 125.074C124.119 123.952 121.759 122.873 119.521 121.624C119.491 121.604 119.469 121.573 119.459 121.538C119.449 121.502 119.452 121.465 119.467 121.431C119.483 121.398 119.509 121.371 119.543 121.356C119.576 121.341 119.614 121.338 119.649 121.348Z" fill="#263238"/>
<path d="M119.498 113.098C119.657 113.949 119.864 114.794 120.029 115.639C120.194 116.484 120.332 117.234 120.561 118.031C120.735 118.791 121.122 119.486 121.677 120.035C121.99 120.322 122.331 120.566 122.666 120.848C122.841 120.992 123.038 121.125 123.224 121.273C123.197 121.156 123.181 121.045 123.16 120.928C123.101 120.604 123.048 120.285 122.995 119.96C122.873 119.243 122.756 118.52 122.65 117.802C122.432 116.388 122.235 114.959 121.937 113.55C121.941 113.541 121.947 113.532 121.955 113.527C121.963 113.521 121.973 113.518 121.983 113.518C121.992 113.518 122.002 113.521 122.01 113.527C122.018 113.532 122.024 113.541 122.028 113.55C122.379 114.937 122.767 116.309 123.091 117.707C123.24 118.392 123.776 121.778 123.803 122.023C123.83 122.267 123.846 122.517 123.856 122.767C123.885 123.02 123.885 123.275 123.856 123.527C123.856 123.586 123.766 123.575 123.739 123.527C123.637 123.293 123.566 123.046 123.527 122.794C123.463 122.549 123.41 122.305 123.367 122.06C123.367 121.97 123.335 121.879 123.325 121.789C122.99 121.587 122.681 121.316 122.368 121.093C122.054 120.869 121.693 120.609 121.374 120.343C120.785 119.847 120.36 119.183 120.157 118.44C119.952 117.644 119.819 116.831 119.758 116.011C119.652 115.044 119.572 114.076 119.439 113.119C119.402 113.061 119.487 113.04 119.498 113.098Z" fill="#263238"/>
<path d="M126.779 75.9532C125.875 79.6741 116.068 99.6922 116.148 100.936C116.148 101.234 122.08 105.188 122.224 105.672C122.814 107.58 113.081 115.644 110.949 116.122C104.688 117.536 99.2182 117.244 99.3298 112.104C99.5052 104.04 113.682 84.07 120.943 77.0216C125.716 72.3706 127.672 72.3068 126.779 75.9532Z" fill="#DD6A57"/>
<path d="M108.565 117.085L120.084 102.638C120.084 102.638 116.645 101.394 116.57 100.591C116.496 99.7888 124.825 82.6516 126.627 77.6125C128.429 72.5734 127.031 71.5316 121.631 75.8531C116.23 80.1746 96.1907 108.177 99.1621 114.412C101.209 118.712 108.565 117.085 108.565 117.085Z" fill="#FF7900"/>
<path d="M116.562 100.688C116.052 100.815 115.555 100.993 115.079 101.219C114.597 101.432 114.119 101.65 113.644 101.873C112.703 102.309 111.768 102.761 110.859 103.26C109.95 103.76 109.067 104.291 108.201 104.855L107.584 105.238L107.34 105.323C106.994 105.445 106.649 105.578 106.319 105.732C105.676 106.033 105.052 106.376 104.454 106.758C104.411 106.784 104.454 106.848 104.496 106.827C105.12 106.475 105.768 106.17 106.436 105.913L106.702 105.817C106.351 106.051 106.011 106.295 105.681 106.556C104.798 107.238 103.958 107.974 103.167 108.762C103.13 108.799 103.167 108.852 103.226 108.815C104.65 107.433 106.452 106.434 108.169 105.461C109.886 104.488 111.688 103.367 113.485 102.373C114.016 102.085 114.511 101.814 115.037 101.554C115.573 101.321 116.096 101.06 116.605 100.773C116.615 100.766 116.622 100.756 116.625 100.745C116.628 100.734 116.627 100.722 116.622 100.711C116.616 100.7 116.607 100.692 116.596 100.688C116.586 100.684 116.573 100.683 116.562 100.688Z" fill="#263238"/>
<path d="M147.535 117.085C147.45 117.17 112.325 114.767 112.027 114.379C111.618 113.847 122.265 76.3625 126.209 71.9187C127.049 70.9672 131.992 69.9573 134.634 72.4502C140.236 77.7658 144.165 94.8285 144.989 99.9527C146.355 108.41 147.848 116.771 147.535 117.085Z" fill="#FF7900"/>
<path d="M122.306 79.8927C122.306 79.8343 122.227 79.7918 122.205 79.8502C121.626 81.296 121.089 82.7578 120.563 84.2196C120.59 84.0123 120.611 83.7996 120.627 83.5923C120.669 83.0342 120.664 82.4761 120.712 81.9233C120.712 81.8701 120.632 81.8701 120.632 81.9233C120.6 82.4973 120.494 83.0608 120.409 83.6295C120.324 84.1983 120.265 84.6501 120.18 85.1604L120.132 85.4315C119.282 87.8713 118.485 90.3324 117.703 92.7935C116.321 97.1788 115.045 101.607 113.849 106.045C113.169 108.549 112.574 111.068 112.016 113.598C112.019 113.606 112.024 113.614 112.031 113.618C112.038 113.623 112.047 113.626 112.055 113.626C112.064 113.626 112.073 113.623 112.08 113.618C112.087 113.614 112.092 113.606 112.095 113.598C113.398 109.208 114.657 104.801 115.954 100.411C117.145 96.3655 118.4 92.3417 119.675 88.3178C119.681 88.3213 119.688 88.3234 119.695 88.324C119.702 88.3245 119.71 88.3234 119.716 88.3209C119.723 88.3184 119.729 88.3144 119.734 88.3093C119.738 88.3041 119.742 88.298 119.744 88.2912L120.015 87.2281C120.792 84.8096 121.578 82.3591 122.306 79.8927Z" fill="#263238"/>
<path d="M125.311 73.4761C125.104 75.0707 124.727 78.749 127.241 78.6959C128.259 78.5873 129.225 78.1867 130.021 77.5424C130.85 76.9612 131.611 76.2891 132.291 75.5385C133.084 74.7249 133.807 73.8465 134.454 72.9126C134.454 72.8754 134.544 72.9126 134.513 72.9605C133.853 73.896 133.29 74.874 132.541 75.7405C131.827 76.5896 131.003 77.3387 130.09 77.9677C129.24 78.6269 128.209 79.0124 127.135 79.0733C126.669 79.0636 126.221 78.8932 125.866 78.591C125.512 78.2888 125.272 77.8732 125.189 77.4149C124.938 76.1091 124.98 74.7638 125.311 73.4761Z" fill="#263238"/>
<path d="M136.944 80.2323C145.492 86.6109 155.421 90.05 159.525 88.4448C162.714 87.1903 173.042 77.734 174.732 70.0903C175.104 68.4053 162.151 66.901 161.64 68.0332C160.147 71.2863 154.305 76.9367 153.709 76.8516C152.933 76.7453 144.094 74.853 137.114 73.2105C128.684 71.2278 132.272 76.756 136.944 80.2323Z" fill="#DD6A57"/>
<path d="M177.058 67.3597C176.383 70.0972 172.805 75.1628 171.471 76.0505C170.137 76.9382 161.335 71.1443 161.207 69.5071C161.079 67.87 164.077 58.8177 166.363 57.0689C168.649 55.3201 177.781 64.5212 177.058 67.3597Z" fill="#DD6A57"/>
<path d="M161.466 67.8748C161.149 65.6175 160.505 63.4186 159.553 61.3474C158.33 58.9182 156.241 55.4472 157.522 54.7402C160.154 53.2891 165.363 61.9427 165.363 61.9427C165.363 61.9427 167.048 66.1313 164.565 67.7898C164.107 68.0884 163.575 68.2544 163.028 68.2694C162.481 68.2844 161.941 68.1478 161.466 67.8748Z" fill="#DD6A57"/>
<path d="M163.407 60.4697C164.47 61.4956 165.278 60.5548 165.278 60.5548C165.278 60.5548 163.683 62.9786 164.714 64.2756C165.745 65.5726 167.372 63.8398 167.5 63.7441C167.415 63.8717 166.011 66.1361 167.175 67.332C168.339 68.528 169.775 66.5985 169.865 66.4709C169.822 66.6198 169.333 68.5652 170.397 69.2669C172.273 70.4841 173.687 65.546 175.303 64.7328C175.303 64.7328 176.993 67.3161 177.057 67.3905C177.121 67.4649 178.497 62.7182 177.28 60.5973C177.107 60.2861 176.833 60.0433 176.504 59.9089C176.174 59.7746 175.809 59.7568 175.468 59.8584C175.468 59.8584 176.1 58.402 175.212 57.4293C174.75 56.9349 173.549 57.2273 173.549 57.2273C173.674 56.8898 173.704 56.5243 173.636 56.1708C173.567 55.8174 173.403 55.4896 173.161 55.2233C172.491 54.5748 171.391 54.9682 171.391 54.9682C171.391 54.9682 175.813 49.1211 174.49 48.058C172.204 46.1923 164.459 58.689 163.162 58.7953C162.546 58.8219 162.934 60.0179 163.407 60.4697Z" fill="#DD6A57"/>
<path d="M173.591 57.1517C173.591 57.1517 173.591 57.0933 173.559 57.1092C170.777 58.5029 168.586 60.8468 167.382 63.7164C167.345 63.8174 167.409 63.9503 167.462 63.8386C168.371 61.925 171.47 58.6454 173.591 57.1517Z" fill="#263238"/>
<path d="M169.856 66.6833C171.063 63.8873 173.045 61.7611 175.384 59.8688C175.416 59.8688 175.384 59.805 175.347 59.8156C173.944 60.4322 172.578 61.793 171.626 62.9412C170.697 63.9983 170.063 65.2817 169.787 66.662C169.75 66.6939 169.83 66.7683 169.856 66.6833Z" fill="#263238"/>
<path d="M165.229 60.5596C165.176 60.6552 165.505 60.5968 165.457 60.6925C164.952 61.7556 164.145 63.6798 164.926 64.2857C165.543 64.7641 166.616 64.2857 166.956 63.9243L167.807 63.0419L167.313 64.1688C167.086 64.6737 166.944 65.2125 166.893 65.7634C166.855 66.0132 166.87 66.268 166.937 66.5115C167.004 66.7551 167.121 66.9819 167.281 67.1774C167.432 67.3578 167.641 67.4806 167.872 67.5251C168.104 67.5697 168.343 67.5332 168.551 67.4219C169.01 67.1696 169.396 66.8035 169.673 66.3588L170.481 65.1522L170.114 66.5501C170.009 66.9401 169.957 67.3424 169.96 67.7461C169.949 68.1203 170.047 68.4896 170.241 68.8092C170.337 68.9512 170.47 69.0637 170.626 69.1341C170.782 69.2045 170.954 69.2301 171.124 69.2079C171.498 69.1037 171.834 68.8932 172.091 68.6019C172.66 67.9829 173.179 67.32 173.643 66.6192C173.893 66.2737 174.143 65.9282 174.403 65.5934C174.65 65.2415 174.969 64.9461 175.339 64.7269C175.001 64.9819 174.716 65.2995 174.499 65.6625C174.265 66.0133 174.047 66.3747 173.824 66.7256C173.398 67.4782 172.903 68.19 172.346 68.8518C172.049 69.2117 171.654 69.4777 171.209 69.6172C170.96 69.668 170.701 69.6448 170.465 69.5503C170.229 69.4559 170.025 69.2943 169.88 69.0856C169.619 68.6884 169.483 68.2215 169.492 67.7461C169.487 67.2985 169.539 66.852 169.646 66.4173L170.087 66.6086C169.767 67.1414 169.315 67.5826 168.774 67.8897C168.467 68.0506 168.114 68.0995 167.775 68.0279C167.444 67.9424 167.147 67.7568 166.925 67.4963C166.719 67.2505 166.567 66.9635 166.481 66.6546C166.395 66.3457 166.376 66.0219 166.425 65.705C166.493 65.1081 166.658 64.5264 166.914 63.9828L167.27 64.2273C166.824 64.6578 165.675 65.3382 164.639 64.7057C163.384 63.6798 164.915 61.0273 165.229 60.5596Z" fill="#263238"/>
<path d="M159.79 69.6289L172.574 77.5437C172.574 77.5437 163.234 89.5461 157.116 89.6843C150.998 89.8225 136.917 83.1781 132.442 78.2453C128.572 73.9929 132.909 71.7392 136.917 72.9298C140.925 74.1205 153.475 76.5869 153.826 76.4062C154.177 76.2254 159.79 69.6289 159.79 69.6289Z" fill="#FF7900"/>
<path d="M170.225 79.9093C169.79 79.5611 169.333 79.2398 168.859 78.9472L167.381 77.9319C166.435 77.2888 165.452 76.6987 164.474 76.1034C162.486 74.8915 160.503 73.6423 158.425 72.5898C158.387 72.5898 158.34 72.6271 158.377 72.6536C160.221 74.025 162.188 75.2317 164.133 76.4489C165.101 77.0602 166.068 77.6768 167.057 78.2455L168.556 79.0801C169.078 79.4076 169.622 79.7006 170.182 79.9571C170.214 79.9784 170.257 79.9359 170.225 79.9093Z" fill="#263238"/>
<path d="M141.089 84.2569C139.621 83.4111 137.991 82.8874 136.305 82.7207C136.297 82.7237 136.29 82.7292 136.285 82.7363C136.28 82.7434 136.277 82.7519 136.277 82.7606C136.277 82.7693 136.28 82.7777 136.285 82.7849C136.29 82.792 136.297 82.7974 136.305 82.8004C136.932 82.9812 137.533 83.2363 138.16 83.4383L138.538 83.5552H138.208L137.145 83.5021C137.108 83.5021 137.102 83.5552 137.145 83.5606C137.491 83.6632 137.848 83.7257 138.208 83.7466C138.478 83.7571 138.748 83.7465 139.016 83.7147H139.085C139.361 83.7891 140.807 84.31 141.089 84.3313C141.1 84.3419 141.11 84.31 141.089 84.2569Z" fill="#263238"/>
<path d="M127.247 76.9965C129.033 77.2941 132.243 74.158 133.296 71.9042C133.365 71.7501 133.035 70.1873 132.722 68.2737C132.53 67.1149 132.355 65.8126 132.275 64.6166C132.275 64.3721 131.451 64.8771 131.451 64.8771L129.931 65.3555L124.887 66.9502C125.414 68.4193 125.76 69.9473 125.918 71.5002C125.931 71.6647 125.931 71.8301 125.918 71.9946C125.918 71.9946 125.918 72.0424 125.918 72.0743C125.801 72.9992 125.519 76.7041 127.247 76.9965Z" fill="#DD6A57"/>
<path d="M125.899 71.9779C125.899 71.9779 125.899 72.0257 125.899 72.0576C126.157 72.0786 126.417 72.0786 126.675 72.0576C131.72 71.6111 131.927 65.1475 131.927 65.1475L129.939 65.3654L124.895 66.96C125.422 68.4292 125.768 69.9572 125.926 71.5101C125.929 71.6665 125.92 71.8229 125.899 71.9779Z" fill="#263238"/>
<path d="M124.035 53.1934C124.035 53.1934 121.59 54.1395 121.085 56.5846C120.58 59.0298 121.085 61.6237 121.292 61.7513C121.499 61.8789 124.035 53.1934 124.035 53.1934Z" fill="#263238"/>
<path d="M133.832 56.8548C134.539 59.5498 132.832 67.1934 130.871 68.8359C128.027 71.2173 123.52 71.2811 121.532 67.8951C119.607 64.6101 122.01 54.6914 124.189 53.2137C127.395 51.0396 132.785 52.8682 133.832 56.8548Z" fill="#DD6A57"/>
<path d="M126.901 61.5596C126.901 61.5596 126.938 61.5915 126.933 61.6127C126.811 62.1443 126.757 62.7343 127.188 63.0054C126.625 62.8353 126.704 62.0273 126.901 61.5596Z" fill="#263238"/>
<path d="M127.469 61.1135C128.314 61.2198 128.038 62.9048 127.256 62.8038C126.475 62.7028 126.762 61.0284 127.469 61.1135Z" fill="#263238"/>
<path d="M123.898 60.9854C123.898 60.9854 123.855 60.9854 123.85 61.0225C123.781 61.5535 123.616 62.1323 123.117 62.2279V62.2598C123.68 62.2757 123.898 61.4898 123.898 60.9854Z" fill="#263238"/>
<path d="M123.507 60.3901C122.678 60.1934 122.338 61.8625 123.103 62.0485C123.869 62.2346 124.198 60.5336 123.507 60.3901Z" fill="#263238"/>
<path d="M128.265 60.4542C128.056 60.353 127.851 60.2413 127.654 60.1193C127.42 59.9864 127.218 59.9067 127.095 59.6568C127.066 59.5828 127.062 59.5008 127.085 59.4245C127.109 59.3481 127.157 59.282 127.223 59.2369C127.365 59.1655 127.523 59.1329 127.682 59.1422C127.841 59.1515 127.994 59.2025 128.127 59.2901C128.421 59.4305 128.654 59.6746 128.78 59.9758C128.806 60.0463 128.81 60.1226 128.792 60.1953C128.774 60.268 128.735 60.3339 128.68 60.3848C128.625 60.4358 128.557 60.4695 128.483 60.4818C128.409 60.4941 128.333 60.4845 128.265 60.4542Z" fill="#263238"/>
<path d="M122.988 59.4121C123.221 59.4043 123.454 59.383 123.684 59.3483C123.933 59.3603 124.18 59.2913 124.386 59.1517C124.441 59.0934 124.476 59.0188 124.484 58.9391C124.493 58.8595 124.475 58.7791 124.434 58.7105C124.333 58.5876 124.201 58.4941 124.051 58.4399C123.901 58.3856 123.74 58.3726 123.583 58.4022C123.257 58.4114 122.946 58.5422 122.712 58.7689C122.661 58.8233 122.628 58.8911 122.615 58.9642C122.602 59.0372 122.611 59.1124 122.64 59.1805C122.67 59.2487 122.718 59.3068 122.78 59.3479C122.842 59.3891 122.914 59.4113 122.988 59.4121Z" fill="#263238"/>
<path d="M126.556 66.2948C126.407 66.3957 126.258 66.5444 126.067 66.5285C125.877 66.4915 125.696 66.4156 125.536 66.3054C125.536 66.3054 125.499 66.3054 125.51 66.3054C125.566 66.4201 125.653 66.5172 125.761 66.5864C125.868 66.6556 125.993 66.6943 126.12 66.6984C126.232 66.6921 126.339 66.6508 126.426 66.5802C126.512 66.5096 126.575 66.4135 126.604 66.3054C126.635 66.2948 126.598 66.2789 126.556 66.2948Z" fill="#263238"/>
<path d="M126.287 64.6417C126.121 64.8257 125.919 64.9735 125.693 65.076C125.467 65.1784 125.222 65.2332 124.974 65.2371C124.757 65.2421 124.54 65.2152 124.331 65.1573C124.291 65.1531 124.251 65.1423 124.214 65.1254L124.103 65.0882C124.075 65.0797 124.051 65.0617 124.036 65.0373C124.02 65.013 124.014 64.984 124.018 64.9553C124.015 64.9377 124.015 64.9198 124.018 64.9022V64.8543C124.071 64.4504 124.209 63.8497 124.209 63.8497C124.055 63.8975 123.252 64.1102 123.295 63.9029C123.64 62.1042 124.165 60.3448 124.863 58.6511C124.869 58.6422 124.879 58.6356 124.889 58.6323C124.9 58.629 124.911 58.6291 124.922 58.6326C124.933 58.6361 124.942 58.6429 124.948 58.652C124.955 58.661 124.958 58.6719 124.958 58.683C124.65 60.3468 124.049 61.9468 123.715 63.6105C124.002 63.5326 124.299 63.4933 124.597 63.4936C124.65 63.4936 124.305 64.6577 124.294 64.8384C124.617 64.9251 124.955 64.9457 125.286 64.8992C125.618 64.8526 125.936 64.7397 126.223 64.5673C126.287 64.5673 126.324 64.6098 126.287 64.6417Z" fill="#263238"/>
<path d="M124.605 64.9976C124.778 65.3203 125.03 65.5931 125.339 65.7896C125.51 65.8932 125.709 65.9397 125.908 65.9225C126.344 65.88 126.413 65.4973 126.391 65.1624C126.379 64.9814 126.343 64.8028 126.285 64.6309C125.779 64.9303 125.19 65.0589 124.605 64.9976Z" fill="#263238"/>
<path d="M125.332 65.7898C125.503 65.8932 125.702 65.9397 125.9 65.9226C126.336 65.8801 126.405 65.4978 126.383 65.1632C126.163 65.1352 125.94 65.1817 125.75 65.2953C125.559 65.4088 125.412 65.5829 125.332 65.7898Z" fill="#FF98B9"/>
<path d="M132.604 63.0468C131.009 63.0468 131.211 56.0994 131.211 56.0994C130.286 56.5297 129.3 56.8165 128.288 56.9499C127.259 57.013 126.227 56.9595 125.21 56.7904C124.992 56.7267 127.724 55.6636 127.724 55.6636C127.724 55.6636 120.873 56.9446 120.511 55.6636C120.389 55.2224 123.515 50.5235 128.245 50.8796C131.743 51.1241 133.688 54.728 133.688 54.728C133.688 54.728 135.368 56.6097 135.283 57.71C135.187 59.1399 134.273 63.0468 132.604 63.0468Z" fill="#263238"/>
<path d="M131.94 63.0472C131.94 63.0472 133.827 60.6659 134.922 61.3516C136.017 62.0373 134.491 65.5667 133.136 65.9814C132.965 66.0467 132.784 66.0769 132.601 66.07C132.419 66.0631 132.24 66.0193 132.075 65.9413C131.91 65.8633 131.763 65.7527 131.642 65.6162C131.521 65.4796 131.429 65.32 131.371 65.1468L131.94 63.0472Z" fill="#DD6A57"/>
<path d="M134.46 62.3672C134.46 62.3672 134.46 62.3672 134.46 62.4044C134.021 62.5909 133.626 62.8675 133.301 63.2164C132.976 63.5653 132.728 63.9786 132.573 64.4296C132.632 64.3394 132.709 64.2632 132.801 64.2062C132.892 64.1492 132.995 64.1129 133.101 64.0997C133.208 64.0865 133.317 64.0969 133.419 64.13C133.521 64.1631 133.615 64.2182 133.694 64.2914C133.694 64.2914 133.694 64.3446 133.668 64.3392C133.507 64.2786 133.332 64.2685 133.166 64.3103C133 64.3521 132.85 64.4438 132.738 64.5731C132.554 64.7938 132.394 65.0325 132.259 65.2854C132.211 65.3704 132.062 65.312 132.1 65.2216C132.163 64.015 133.179 62.4097 134.46 62.3672Z" fill="#263238"/>
<path d="M125.865 71.9287L127.693 76.3406L133.142 70.6689L134.736 72.4496C134.736 72.4496 129.421 81.4222 129.421 81.0236L127.55 77.223L124.945 79.9126L125.084 73.231L125.865 71.9287Z" fill="#EBEBEB"/>
<path d="M124.803 76.6073C124.867 75.5069 124.893 74.396 125.005 73.2957C125.005 73.2585 125.069 73.2372 125.079 73.2957C125.313 74.3588 125.079 78.5687 125.079 79.5786C125.185 79.4617 127.498 77.2079 127.519 77.2451C127.923 77.8458 129.294 80.6151 129.39 80.865C130.225 79.4404 133.435 74.2578 134.429 72.8917C134.431 72.8869 134.434 72.8825 134.438 72.8789C134.442 72.8754 134.447 72.8727 134.452 72.871C134.457 72.8694 134.462 72.8688 134.467 72.8693C134.472 72.8699 134.478 72.8716 134.482 72.8742C134.487 72.8769 134.491 72.8805 134.494 72.8848C134.497 72.889 134.499 72.894 134.5 72.8991C134.501 72.9043 134.501 72.9096 134.5 72.9148C134.498 72.9199 134.496 72.9247 134.493 72.9289C133.759 74.4332 129.518 81.4337 129.449 81.3912C128.728 80.0863 128.075 78.745 127.492 77.3727C127.104 77.8617 124.776 80.4025 124.766 80.2377C124.714 79.0278 124.726 77.8159 124.803 76.6073Z" fill="#263238"/>
<path d="M142.207 109.606H117.617V111.042H142.207V109.606Z" fill="#455A64"/>
<path d="M132.564 109.606H117.617V111.042H132.564V109.606Z" fill="#263238"/>
<path d="M129.983 111.061L98.8606 111.066L94.4062 89.8203H125.534L129.983 111.061Z" fill="#455A64"/>
<path d="M114.09 100.442C114.123 100.682 114.104 100.927 114.033 101.159C113.963 101.39 113.843 101.604 113.681 101.785C113.52 101.966 113.322 102.11 113.099 102.207C112.877 102.303 112.637 102.351 112.394 102.345C111.875 102.332 111.378 102.133 110.993 101.784C110.608 101.434 110.362 100.958 110.3 100.442C110.268 100.202 110.288 99.9583 110.359 99.7269C110.43 99.4954 110.55 99.282 110.711 99.1013C110.872 98.9206 111.07 98.7768 111.292 98.6798C111.514 98.5828 111.754 98.5349 111.996 98.5393C112.515 98.5511 113.014 98.75 113.398 99.0997C113.783 99.4493 114.029 99.926 114.09 100.442Z" fill="#263238"/>
<path d="M105.102 112.327C107.02 113.39 109.354 115.851 110.949 116.128C111.34 116.212 111.748 116.168 112.112 116.001C112.476 115.834 112.777 115.554 112.969 115.203C112.969 115.203 113.686 116.851 115.18 116.861C115.951 116.861 116.636 115.649 116.636 115.649C116.818 116.013 117.097 116.32 117.442 116.536C117.787 116.752 118.185 116.868 118.592 116.872C119.655 116.819 120.187 115.601 120.187 115.601C120.187 115.601 121.372 116.564 122.435 116.133C124.562 115.314 125.061 106.225 121.787 104.646C120.261 103.907 120.267 106.135 120.267 106.135C120.267 106.135 119.491 102.945 117.609 102.791C115.727 102.637 115.924 105.571 115.924 105.571C115.924 105.571 115.143 102.477 113.186 102.52C111.151 102.568 111.826 105.428 111.826 105.428C111.826 105.428 110.566 103.333 109.072 103.711C106.616 104.333 109.407 109.079 108.828 111.051H105.575L105.102 112.327Z" fill="#DD6A57"/>
<path d="M107.871 114.102C105.968 113.278 105.054 114.634 103.087 114.379C100.876 114.092 101.594 111.498 105.479 111.035H108.844L107.871 114.102Z" fill="#DD6A57"/>
<path d="M116.649 115.671C116.649 115.708 116.702 115.714 116.713 115.671C117.706 112.284 117.455 108.652 116.006 105.433C115.952 105.322 115.793 105.274 115.841 105.433C116.723 107.666 117.053 112.78 116.649 115.671Z" fill="#263238"/>
<path d="M111.635 105.221C113.022 108.379 113.256 111.669 113.012 115.076C113.012 115.086 113.015 115.095 113.022 115.102C113.029 115.109 113.039 115.113 113.049 115.113C113.059 115.113 113.068 115.109 113.075 115.102C113.082 115.095 113.086 115.086 113.086 115.076C113.66 113.439 113.591 111.249 113.389 109.548C113.232 107.967 112.666 106.453 111.746 105.157C111.709 105.12 111.603 105.152 111.635 105.221Z" fill="#263238"/>
<path d="M205.993 162.977C206.155 160.293 206.535 157.627 207.131 155.004C207.694 152.633 208.497 150.22 209.99 148.259C211.351 146.473 213.313 145.069 215.588 144.772C217.778 144.501 219.84 145.479 221.477 146.861C223.513 148.572 225.07 150.837 226.527 153.032C228.128 155.492 229.585 158.042 230.891 160.671C230.933 160.756 230.801 160.83 230.758 160.74C229.628 158.514 228.323 156.381 226.856 154.361C225.522 152.42 224.019 150.6 222.365 148.923C220.861 147.451 218.947 146.079 216.768 146.01C214.588 145.941 212.595 147.158 211.287 148.828C209.826 150.699 209.087 153.037 208.529 155.312C207.954 157.816 207.577 160.361 207.402 162.924C206.976 168.187 206.87 173.486 206.737 178.77C206.674 181.757 206.629 184.744 206.604 187.732C206.604 189.248 206.592 190.763 206.567 192.276C206.623 193.739 206.565 195.203 206.392 196.656C206.344 196.954 205.86 196.922 205.812 196.656C205.636 195.28 205.569 193.892 205.61 192.505C205.61 191.07 205.573 189.635 205.563 188.2C205.536 185.409 205.52 182.613 205.531 179.822C205.547 174.209 205.616 168.585 205.993 162.977Z" fill="#263238"/>
<path d="M213.519 159.029C213.801 157.541 214.301 155.595 215.151 154.442C216.677 152.369 218.341 153.272 216.799 155.569C215.676 157.273 214.95 159.208 214.673 161.23C214.673 161.23 217.235 164.892 220.329 166.694C220.196 165.285 219.797 163.122 220.074 161.033C220.664 156.51 223.401 156.781 222.731 160.358C222.2 163.239 221.966 166.295 222.109 167.624C223.144 168.286 224.254 168.821 225.416 169.219C225.24 168.687 225.054 168.066 224.842 167.305C223.747 163.25 226.436 161.99 226.537 164.265C226.713 166.211 227.069 168.136 227.6 170.016C229.083 170.516 230.311 170.856 231.066 171.122C233.016 171.842 234.758 173.032 236.137 174.588C237.544 173.314 238.714 171.8 239.592 170.117C238.646 169.304 237.152 168.092 235.079 166.63C231.188 163.882 232.544 160.416 235.611 162.575C237.838 164.127 239.56 167.008 240.342 168.491C241.394 165.915 241.991 163.175 242.106 160.395C239.05 157.525 231.475 153.533 233.777 153.533C235.823 153.533 240.411 156.536 242.09 157.695C242.046 156.906 241.959 156.12 241.83 155.34C238.954 153.458 229.604 150.524 231.098 149.679C232.735 148.754 239.257 151.773 241.224 152.73C240.854 151.449 240.27 150.239 239.496 149.153C235.526 143.837 228.36 141.998 225.235 143.014C223.018 143.731 223.667 149.344 223.194 149.153C214.296 145.597 210.25 148.127 213.519 159.029ZM235.313 158.413C235.94 157.652 238.859 159.89 238.013 161.118C237.168 162.346 234.494 159.391 235.308 158.413H235.313ZM220.074 153.629C220.839 154.118 219.707 156.956 218.521 156.095C217.511 155.356 219.292 153.134 220.068 153.623L220.074 153.629Z" fill="#FF7900"/>
<path d="M221.226 154.473C221.63 153.681 222.05 152.878 222.507 152.129C222.928 151.375 223.419 150.663 223.974 150.002L223.597 149.535C223.544 149.476 223.634 149.386 223.687 149.45C223.836 149.62 223.98 149.79 224.123 149.981C224.15 149.996 224.171 150.021 224.181 150.05C224.713 150.709 225.245 151.39 225.744 152.081C226.619 152.28 227.482 152.531 228.328 152.83C229.199 153.123 230.06 153.426 230.911 153.782C230.996 153.819 230.953 153.962 230.863 153.925C230.023 153.553 229.173 153.192 228.306 152.899C227.44 152.607 226.643 152.41 225.808 152.171C226.079 152.554 226.34 152.942 226.605 153.335C228.174 153.831 229.699 154.453 231.166 155.196C232.708 155.929 234.196 156.79 235.674 157.635C235.753 157.683 235.674 157.811 235.594 157.763C234.141 156.914 232.645 156.14 231.113 155.445C229.683 154.776 228.205 154.223 226.765 153.585C230.39 159.251 232.569 165.784 235.477 171.839C235.519 171.924 235.381 171.998 235.344 171.908C234.456 169.781 233.436 167.719 232.468 165.63C231.597 163.759 230.751 161.872 229.88 160.001C229.625 159.455 229.364 158.908 229.098 158.358C229.258 161.383 229.194 164.461 229.688 167.453C229.688 167.463 229.686 167.473 229.683 167.482C229.679 167.491 229.673 167.499 229.667 167.506C229.66 167.513 229.651 167.518 229.642 167.522C229.633 167.526 229.624 167.528 229.614 167.528C229.604 167.528 229.594 167.526 229.585 167.522C229.576 167.518 229.568 167.513 229.561 167.506C229.554 167.499 229.549 167.491 229.545 167.482C229.541 167.473 229.54 167.463 229.54 167.453C229.332 164.221 228.763 161.037 228.785 157.784C228.785 157.784 228.785 157.758 228.785 157.742C228.168 156.509 227.514 155.286 226.807 154.101C225.601 156.934 224.341 159.81 223.778 162.845C223.778 162.94 223.607 162.898 223.634 162.802C224.453 159.756 225.229 156.705 226.68 153.888C225.907 152.607 225.053 151.377 224.123 150.204C223.719 150.959 223.198 151.666 222.741 152.389C222.284 153.112 221.853 153.798 221.439 154.515C220.548 156.043 219.789 157.643 219.169 159.299C219.137 159.39 218.988 159.342 219.025 159.251C219.732 157.662 220.434 156.067 221.226 154.473Z" fill="#263238"/>
<path d="M192.616 161.384C194.95 159.05 197.655 155.983 201.254 155.988C204.725 155.988 207.282 158.795 208.754 161.681C210.29 164.695 210.843 168.113 211.274 171.435C211.784 175.416 212.091 179.42 212.193 183.432C212.257 185.659 212.252 187.892 212.193 190.119C212.192 192.378 212.014 194.633 211.662 196.865C211.598 197.226 211.024 197.237 211.002 196.865C210.896 194.988 210.971 193.106 211.002 191.23C211.034 189.354 211.002 187.509 210.917 185.681C210.779 181.96 210.508 178.212 210.067 174.518C209.684 171.276 209.381 167.938 208.408 164.807C207.531 161.979 205.889 158.747 203.024 157.503C199.117 155.808 195.295 158.901 192.733 161.516C192.669 161.543 192.552 161.447 192.616 161.384Z" fill="#263238"/>
<path d="M180.738 166.598C180.738 167.076 180.786 167.549 180.818 168.012C181.938 167.171 183.25 166.623 184.635 166.417C187.941 166.066 187.728 168.58 185.522 168.687C183.966 168.706 182.427 169.014 180.983 169.596C181.514 173.96 182.726 177.468 182.902 177.516C185.835 177.348 188.753 176.979 191.635 176.41C190.816 174.661 188.945 172.333 189.897 172.158C190.848 171.982 191.896 174.045 192.422 176.267C194.591 175.854 196.724 175.269 198.8 174.518C197.349 173.258 195.08 171.695 195.962 171.026C196.844 170.356 198.62 172.567 199.683 174.167C200.657 173.773 201.578 173.258 202.426 172.636C200.469 169.76 195.696 169.176 196.318 167.092C196.94 165.008 201.405 167.9 203.414 171.748C205.769 169.309 206.46 165.848 206.21 162.898C204.158 162.659 200.209 163.09 200.496 161.617C200.783 160.145 203.632 160.426 205.971 161.288C205.755 160.118 205.287 159.01 204.6 158.04C202.436 155.265 195.84 158.795 195.84 158.795C195.84 158.795 196.547 152.161 194.027 151.013C192.576 150.354 190.019 150.359 187.452 151.874C188.892 151.991 190.641 152.448 191.332 153.468C192.225 154.744 190.801 155.435 189.918 154.85C189.286 154.431 188.106 153.118 185.974 152.948C185.061 153.719 184.26 154.613 183.593 155.605C183.341 155.958 183.109 156.323 182.896 156.7C184.115 156.154 185.438 155.883 186.774 155.906C188.109 155.93 189.422 156.249 190.62 156.839C193.48 158.263 191.885 161.234 189.424 160.076C186.963 158.917 184.64 157.79 182.009 158.444C181.089 160.797 180.662 163.313 180.754 165.838C182.036 164.906 183.477 164.218 185.007 163.807C187.85 163.058 188.727 164.759 185.586 165.072C183.883 165.245 182.233 165.764 180.738 166.598ZM184.199 162.032C184.002 161.112 186.022 160.846 186.357 161.596C186.628 162.234 184.39 162.978 184.199 162.032ZM201.458 167.135C201.644 166.635 202.994 167.204 202.872 167.831C202.702 168.671 201.272 167.64 201.458 167.135ZM191.943 170.366C192.927 169.978 194.463 172.418 193.389 172.982C192.315 173.545 191.125 170.691 191.943 170.366Z" fill="#FF7900"/>
<path d="M183.291 177.028C184.774 174.551 186.236 172.058 187.793 169.624C188.521 168.492 189.276 167.381 190.068 166.291C189.946 166.291 189.829 166.232 189.712 166.211L189.122 166.094C188.67 166.015 188.208 165.951 187.75 165.903C187.293 165.855 186.884 165.839 186.448 165.834C185.983 165.809 185.516 165.832 185.056 165.903C185.002 165.903 184.992 165.829 185.056 165.829C185.518 165.829 185.991 165.791 186.459 165.781C186.927 165.77 187.357 165.781 187.809 165.813C188.261 165.844 188.649 165.882 189.069 165.945C189.303 165.983 189.531 166.02 189.76 166.068C189.898 166.094 190.041 166.116 190.174 166.153C190.977 165.052 191.812 163.968 192.673 162.91C190.105 161.659 187.369 160.787 184.551 160.322C184.541 160.322 184.531 160.318 184.524 160.311C184.517 160.304 184.513 160.294 184.513 160.284C184.513 160.275 184.517 160.265 184.524 160.258C184.531 160.251 184.541 160.247 184.551 160.247C187.409 160.643 190.188 161.486 192.784 162.746C193.257 162.161 193.736 161.581 194.214 161.007C194.693 160.433 195.325 159.732 195.809 159.046C195.841 159.003 195.904 159.046 195.867 159.088C195.201 159.825 194.573 160.595 193.986 161.395C195.044 162.134 196.051 162.944 196.999 163.819C197.988 164.691 198.95 165.593 199.886 166.525C199.918 166.557 199.886 166.615 199.833 166.578C198.908 165.658 197.951 164.787 196.946 163.952C195.942 163.118 194.895 162.357 193.885 161.534L193.194 162.437L192.843 162.894C192.843 162.894 192.843 162.894 192.816 162.926L191.668 164.436C192.117 165.085 192.5 165.778 192.811 166.504C193.146 167.205 193.433 167.928 193.699 168.63C194.23 170.144 194.644 171.698 194.937 173.276C194.937 173.323 194.873 173.345 194.863 173.276C194.548 171.722 194.098 170.2 193.518 168.725C193.225 167.965 192.901 167.226 192.561 166.488C192.221 165.749 191.881 165.175 191.594 164.5C191.259 164.941 190.929 165.382 190.605 165.829C190.509 165.961 190.419 166.094 190.323 166.222C190.323 166.254 190.323 166.291 190.291 166.291C189.274 167.708 188.298 169.158 187.362 170.639C187.419 170.741 187.462 170.85 187.49 170.963C187.554 171.144 187.607 171.319 187.66 171.495C187.766 171.857 187.853 172.224 187.921 172.595C187.984 172.946 188.032 173.297 188.069 173.658C188.073 174.058 188.103 174.458 188.16 174.854C188.16 174.918 188.075 174.918 188.085 174.854C188.113 174.478 188.084 174.1 188 173.733C187.947 173.35 187.878 172.967 187.788 172.595C187.697 172.223 187.618 171.915 187.517 171.58C187.463 171.41 187.41 171.245 187.352 171.08C187.293 170.915 187.283 170.9 187.251 170.804C186.811 171.495 186.376 172.189 185.943 172.888C185.087 174.275 184.242 175.668 183.392 177.055C183.36 177.161 183.248 177.097 183.291 177.028Z" fill="#263238"/>
<path d="M206.152 196.056C206.19 194.653 206.413 193.239 206.562 191.841C206.71 190.443 206.875 189.035 207.024 187.631C207.311 184.931 207.471 182.162 208.087 179.515C208.557 177.205 209.709 175.088 211.393 173.439C212.264 172.568 213.406 172.023 214.631 171.892C215.863 171.855 217.073 172.229 218.07 172.955C219.209 173.79 220.19 174.822 220.967 176.001C221.804 177.167 222.557 178.39 223.22 179.663C223.247 179.717 223.173 179.743 223.146 179.701C221.894 177.573 220.234 175.714 218.261 174.231C217.387 173.508 216.317 173.06 215.189 172.945C214.074 172.93 213 173.358 212.201 174.135C210.564 175.56 209.618 177.654 209.055 179.711C208.385 182.151 208.167 184.713 207.832 187.211C207.635 188.7 207.444 190.188 207.247 191.671C207.051 193.154 206.934 194.669 206.615 196.126C206.592 196.173 206.555 196.212 206.509 196.236C206.463 196.261 206.41 196.27 206.358 196.262C206.306 196.254 206.258 196.23 206.221 196.193C206.184 196.156 206.16 196.108 206.152 196.056Z" fill="#263238"/>
<path d="M213.054 185.149C213.488 185.74 214.003 186.266 214.585 186.712C214.351 185.341 214.053 182.906 214.766 181.609C215.829 179.595 217.11 180.599 216.472 182.348C215.831 183.927 215.48 185.609 215.435 187.313C216.896 188.233 218.463 188.971 220.102 189.513C219.927 188.725 219.875 187.915 219.948 187.111C220.161 184.985 221.809 184.985 221.383 187.238C221.222 188.106 221.146 188.987 221.155 189.869C223.533 190.602 225.964 191.149 228.426 191.507C229.684 189.878 230.697 188.075 231.435 186.154C229.686 185.713 226.12 185.622 226.215 184.363C226.316 182.678 229.75 183.975 231.759 185.197C232.22 183.732 232.425 182.198 232.365 180.663C230.788 180.223 229.168 179.954 227.533 179.86C223.93 179.552 224.105 177.506 226.72 177.553C228.65 177.585 231.09 178.771 232.243 179.382C231.494 174.476 227.746 171.329 224.748 171.212C219.704 171.005 221.516 177.288 221.516 177.288C221.516 177.288 218.098 174.88 214.872 174.944C211.645 175.007 209.604 180.349 213.054 185.149ZM226.534 176.076C226.417 175.369 228.66 175.199 228.788 176.102C228.921 177.123 226.646 176.799 226.534 176.076ZM230.154 183.443C230.106 182.981 231.079 182.911 231.302 183.48C231.446 183.858 230.212 183.895 230.154 183.443ZM218.04 183.868C218.8 183.98 219.231 186.696 217.923 186.643C216.924 186.6 217.397 183.778 218.04 183.868Z" fill="#FF7900"/>
<path d="M219.094 186.897C219.216 186.562 219.327 186.217 219.439 185.872C219.34 186.226 219.255 186.58 219.184 186.934C219.181 186.94 219.178 186.945 219.173 186.95C219.169 186.954 219.163 186.958 219.157 186.961C219.152 186.963 219.145 186.964 219.139 186.964C219.132 186.964 219.126 186.963 219.12 186.961C219.114 186.958 219.109 186.955 219.104 186.95C219.1 186.946 219.096 186.94 219.094 186.934C219.091 186.928 219.09 186.922 219.09 186.916C219.09 186.909 219.091 186.903 219.094 186.897Z" fill="#263238"/>
<path d="M220.424 182.516C220.663 181.82 220.929 181.134 221.2 180.448C221.344 180.082 221.493 179.72 221.652 179.359C221.769 179.04 221.921 178.736 222.104 178.45C221.947 178.166 221.81 177.871 221.695 177.567C221.695 177.541 221.695 177.52 221.743 177.541C222.111 178.022 222.44 178.532 222.726 179.066L223.135 179.789C223.421 179.816 223.705 179.859 223.986 179.917C224.289 179.975 224.586 180.034 224.889 180.103L225.788 180.31C226.085 180.385 226.378 180.48 226.681 180.528C226.687 180.53 226.693 180.533 226.698 180.537C226.703 180.541 226.707 180.546 226.711 180.552C226.714 180.557 226.716 180.564 226.717 180.57C226.717 180.577 226.717 180.583 226.715 180.589C226.713 180.596 226.71 180.602 226.706 180.607C226.702 180.612 226.697 180.616 226.692 180.619C226.686 180.622 226.68 180.625 226.673 180.625C226.667 180.626 226.66 180.626 226.654 180.624C226.348 180.514 226.033 180.43 225.713 180.374C225.421 180.316 225.134 180.262 224.841 180.22C224.549 180.177 224.251 180.14 223.959 180.114L223.289 180.06C223.412 180.268 223.534 180.48 223.651 180.693C223.671 180.726 223.688 180.759 223.704 180.794C223.949 180.79 224.194 180.819 224.432 180.879C224.693 180.927 224.964 180.975 225.208 181.033C225.74 181.15 226.271 181.272 226.803 181.421C227.866 181.724 228.972 182.075 230.051 182.426C230.109 182.426 230.051 182.537 230.013 182.516C228.943 182.154 227.854 181.853 226.75 181.613C226.218 181.496 225.718 181.373 225.198 181.267L224.422 181.102C224.218 181.072 224.018 181.027 223.821 180.969C224.374 181.994 224.893 183.037 225.378 184.1C226.441 186.418 227.303 188.799 228.201 191.175C228.201 191.234 228.132 191.276 228.11 191.212C227.242 188.854 226.239 186.546 225.107 184.302C224.905 183.893 224.698 183.484 224.491 183.074C224.491 183.159 224.453 183.239 224.437 183.324C224.39 183.606 224.336 183.888 224.289 184.169C224.198 184.733 224.103 185.291 224.018 185.86C223.778 187.013 223.641 188.185 223.608 189.363C223.608 189.375 223.603 189.387 223.594 189.396C223.585 189.405 223.573 189.41 223.56 189.41C223.548 189.41 223.536 189.405 223.527 189.396C223.518 189.387 223.513 189.375 223.513 189.363C223.603 188.804 223.603 188.22 223.64 187.656C223.677 187.093 223.72 186.476 223.789 185.886C223.858 185.296 223.927 184.754 224.018 184.191C224.065 183.909 224.113 183.627 224.166 183.351C224.18 183.139 224.234 182.931 224.326 182.739C224.028 182.144 223.736 181.549 223.438 180.959C223.14 180.369 222.875 179.853 222.588 179.3C222.465 179.072 222.333 178.833 222.2 178.599C222.111 178.891 221.999 179.175 221.865 179.449C221.737 179.763 221.61 180.082 221.477 180.401C221.19 181.102 220.945 181.815 220.648 182.527C220.27 183.537 219.845 184.573 219.531 185.62C219.818 184.584 220.079 183.537 220.424 182.516Z" fill="#263238"/>
<path d="M219.438 185.861C219.438 185.781 219.485 185.702 219.506 185.617L219.438 185.861Z" fill="#263238"/>
<path d="M197.715 193.323L198.071 200.839L198.985 220.193H218.956L219.87 200.839L220.226 193.323H197.715Z" fill="#37474F"/>
<path d="M197.715 193.323L198.071 200.839H219.87L220.226 193.323H197.715Z" fill="#263238"/>
<path d="M196.291 196.364H221.641V190.289H196.291V196.364Z" fill="#37474F"/>
<path d="M217.34 220.194H213.832V223.373H217.34V220.194Z" fill="#37474F"/>
<path d="M217.34 220.194H213.832V221.784H217.34V220.194Z" fill="#263238"/>
<path d="M204.101 220.194H200.598V223.373H204.101V220.194Z" fill="#37474F"/>
<path d="M204.101 220.194H200.598V221.784H204.101V220.194Z" fill="#263238"/>
</svg>
