<svg width="167" height="105" viewBox="0 0 167 105" fill="none" xmlns="http://www.w3.org/2000/svg">
    <path d="M163.649 35.3125C163.649 35.5242 163.617 35.7199 163.551 35.9317C163.551 35.948 163.536 35.9806 163.536 35.9969C163.47 36.1923 163.373 36.3716 163.242 36.567C163.225 36.5996 163.192 36.6322 163.176 36.6648C163.047 36.8439 162.884 37.0232 162.705 37.186C162.59 37.3001 162.427 37.3979 162.281 37.4955C162.15 37.577 162.053 37.6748 161.906 37.7563L157.246 40.4602L157.23 48.2797L161.874 45.5756C161.89 45.5593 161.922 45.543 161.955 45.5267C162.069 45.4617 162.15 45.38 162.248 45.3148C162.395 45.2171 162.558 45.1033 162.671 44.9892C162.687 44.9729 162.705 44.9729 162.705 44.9566C162.85 44.8262 162.965 44.6958 163.079 44.5491C163.111 44.5166 163.128 44.4841 163.144 44.4517C163.176 44.4191 163.192 44.3865 163.209 44.3539C163.242 44.305 163.291 44.2396 163.323 44.1907C163.389 44.0768 163.436 43.9627 163.486 43.8486C163.486 43.8323 163.502 43.8162 163.502 43.8C163.502 43.7837 163.518 43.7674 163.518 43.7348C163.551 43.6534 163.567 43.588 163.584 43.5065C163.599 43.3926 163.617 43.2787 163.617 43.1646V43.1157C163.617 40.8349 163.633 38.5707 163.633 36.2901V35.3452C163.649 35.3452 163.649 35.3288 163.649 35.3125Z" fill="#A9D5EA"/>
    <path d="M164.249 38.5368C166.699 39.9386 166.699 42.2187 164.284 43.6374L159.47 46.4579L70.2263 98.6801L62.778 103.037C60.363 104.456 56.4277 104.456 53.9956 103.054L1.84091 73.1602C-0.591017 71.7583 -0.62481 69.4951 1.80727 68.0763L103.313 8.67625C105.728 7.25753 109.663 7.24063 112.112 8.64246L164.249 38.5368Z" fill="black" fill-opacity="0.14"/>
    <path d="M157.244 39.8125L70.7461 90.0416L70.8247 98.52L157.231 48.3105L157.244 39.8125Z" fill="url(#paint0_linear_384_10001)"/>
    <path d="M5.14342 65.7615C3.97043 65.0773 3.36771 64.1812 3.36771 63.2852L3.35156 71.1048C3.35156 72.0007 3.93798 72.8966 5.12712 73.5807L55.3342 102.562L55.3507 94.7422L5.14342 65.7615Z" fill="#94C4DE"/>
    <path d="M63.8378 94.7555C63.4794 94.9674 63.0721 95.1302 62.6485 95.2769C62.502 95.3258 62.3553 95.3747 62.1925 95.4235C61.9969 95.4725 61.8015 95.5375 61.6061 95.5703C61.3616 95.6192 61.1173 95.6679 60.873 95.7004C60.8078 95.7004 60.7587 95.7167 60.6936 95.733C60.3515 95.7654 60.0258 95.7819 59.6837 95.7819H59.537C59.1949 95.7819 58.8692 95.7654 58.5271 95.733C58.4783 95.733 58.4292 95.7167 58.3803 95.7167C58.0545 95.6841 57.7289 95.6192 57.403 95.5538C57.3542 95.5375 57.2888 95.5212 57.2401 95.5212C56.9467 95.4559 56.6698 95.3586 56.3929 95.2608C56.344 95.2443 56.2952 95.228 56.2627 95.2119C55.9368 95.0814 55.6272 94.9348 55.3503 94.7718L55.334 102.591C55.6109 102.754 55.9044 102.885 56.1976 103.015C56.2139 103.015 56.2302 103.031 56.2465 103.031C56.2952 103.047 56.344 103.064 56.3929 103.08C56.5722 103.145 56.7513 103.21 56.9304 103.259C57.0282 103.292 57.126 103.308 57.2238 103.341C57.2725 103.357 57.3379 103.373 57.3867 103.39C57.4356 103.406 57.4845 103.422 57.5497 103.422C57.7452 103.455 57.9406 103.504 58.1361 103.52C58.2013 103.536 58.2664 103.536 58.3477 103.536C58.3966 103.536 58.4457 103.552 58.5108 103.552C58.576 103.552 58.6572 103.569 58.7224 103.569C58.918 103.585 59.1134 103.601 59.3088 103.601H59.4881H59.6511H59.9119C60.1399 103.601 60.3516 103.585 60.5798 103.552C60.6122 103.552 60.6284 103.536 60.661 103.536C60.7262 103.536 60.775 103.52 60.8402 103.52C61.0194 103.504 61.1823 103.471 61.3452 103.455C61.4267 103.438 61.492 103.422 61.5572 103.406C61.7689 103.357 61.9643 103.308 62.1599 103.259C62.2577 103.227 62.3715 103.21 62.4856 103.178C62.5345 103.162 62.5672 103.129 62.6159 103.113C63.0395 102.966 63.4304 102.803 63.7888 102.591L70.973 98.4209L70.9893 90.6016L63.8378 94.7555Z" fill="#A9D5EA"/>
    <path d="M161.876 32.8546C164.221 34.2067 164.237 36.4062 161.892 37.7746L157.232 40.4787L71.007 90.5883L63.823 94.7749C61.4935 96.127 57.6976 96.127 55.3519 94.7749L5.14461 65.7614C2.79877 64.4093 2.78248 62.2101 5.11202 60.858L103.181 3.85773C105.51 2.50576 109.306 2.50576 111.668 3.85773L161.876 32.8546Z" fill="#DEF6FF"/>
    <path d="M142.374 25.8312C143.009 26.1896 143.025 26.9389 142.097 27.4113C141.461 27.7534 140.647 28.0141 140.011 27.6394L121.75 17.2786C121.114 16.9202 121.929 16.0569 122.564 15.6985C123.183 15.3401 124.193 15.3401 124.829 15.6985L142.374 25.8312Z" fill="#75B1CC"/>
    <path d="M141.819 26.3039C142.454 26.6623 142.454 27.265 141.835 27.6234C141.216 27.9818 140.19 27.9818 139.554 27.6234L122.01 17.4907C121.374 17.1323 121.39 16.5458 122.01 16.1711C122.629 15.8127 123.638 15.8127 124.274 16.1711L141.819 26.3039Z" fill="#A9D5EA"/>
    <path d="M97.5546 7.14062L12.2344 56.7155L71.367 91.6557L157.27 40.4392L97.5546 7.14062Z" fill="url(#paint1_linear_384_10001)"/>
    <path d="M43.7448 50.6132C40.794 48.9102 36.008 48.9102 33.0719 50.6132C30.1357 52.3162 30.1504 55.0909 33.1012 56.7938C36.052 58.4968 40.838 58.4968 43.7742 56.7938C46.7103 55.0909 46.7103 52.3308 43.7448 50.6132Z" fill="black" fill-opacity="0.14"/>
    <path d="M32.0898 51.5986C32.0898 49.3514 32.0947 49.75 32.0947 49.75L46.0602 49.7636V51.5586C46.0602 54.1494 42.1716 55.6677 39.0135 55.6677C35.3694 55.6677 32.0898 53.8457 32.0898 51.5986Z" fill="#E8C900"/>
    <path d="M33.5469 49.594C35.0045 48.926 37.944 47.5898 38.0411 47.5898L44.0538 47.9542L39.6202 53.2988L33.5469 49.594Z" fill="white"/>
    <path d="M43.9935 46.8808C46.7267 48.4582 46.7403 51.0283 44.0207 52.6057C41.301 54.183 36.8816 54.183 34.1347 52.6057C31.4014 51.0283 31.3878 48.4582 34.1075 46.8808C36.8408 45.2897 41.2602 45.2897 43.9935 46.8808ZM34.2844 49.478L39.5468 52.524C40.2676 51.817 40.4851 51.0419 40.1724 50.3891C40.7571 50.3891 41.3556 50.2667 41.8043 50.0083C42.6882 49.5052 42.6746 48.6757 41.7907 48.159C40.9067 47.6559 39.4788 47.6423 38.6086 48.159C38.1598 48.4174 37.9422 48.7574 37.9558 49.111C36.8272 48.9205 35.4947 49.0429 34.2844 49.478Z" fill="#FFDF02"/>
    <path d="M82.3907 29.187C79.3688 27.4429 74.4675 27.4429 71.4606 29.187C68.4538 30.9309 68.4688 33.7725 71.4907 35.5164C74.5126 37.2605 79.4138 37.2605 82.4208 35.5164C85.4277 33.7725 85.4277 30.946 82.3907 29.187Z" fill="black" fill-opacity="0.14"/>
    <path d="M70.6074 29.5322C70.6074 27.285 70.6123 27.6836 70.6123 27.6836L84.5778 27.6972V29.4922C84.5778 32.083 80.6892 33.6013 77.531 33.6013C73.887 33.6013 70.6074 31.7793 70.6074 29.5322Z" fill="#E53399"/>
    <path d="M72.0664 27.5276C73.524 26.8596 76.4635 25.5234 76.5607 25.5234L82.5733 25.8878L78.1397 31.2324L72.0664 27.5276Z" fill="white"/>
    <path d="M82.511 24.8144C85.2443 26.3918 85.2579 28.9619 82.5382 30.5393C79.8186 32.1166 75.3992 32.1166 72.6523 30.5393C69.9189 28.9619 69.9053 26.3918 72.6251 24.8144C75.3583 23.2233 79.7778 23.2233 82.511 24.8144ZM72.802 27.4116L78.0644 30.4576C78.7852 29.7506 79.0027 28.9755 78.6899 28.3227C79.2747 28.3227 79.8731 28.2003 80.3218 27.9419C81.2058 27.4388 81.1922 26.6093 80.3082 26.0926C79.4243 25.5895 77.9964 25.5759 77.1262 26.0926C76.6774 26.351 76.4598 26.691 76.4734 27.0445C75.3447 26.8541 74.0122 26.9765 72.802 27.4116Z" fill="#FF4CAA"/>
    <path d="M95.6922 67.6689C98.149 69.0965 98.1488 71.4038 95.7254 72.8146L91.1274 75.4871L84.8199 79.1555L73.599 85.6789L69.8975 75.6697L55.5561 67.3868C53.0994 65.9592 53.0828 63.6686 55.5228 62.2412L66.4449 55.9004C68.885 54.4894 72.8521 54.4728 75.3253 55.9004L95.6922 67.6689ZM81.4503 76.4166L83.1102 75.4539L61.3325 62.872L59.6726 63.8347L81.4503 76.4166ZM90.9754 71.1307L92.6353 70.168L70.8576 57.586L69.1977 58.5487L90.9754 71.1307ZM86.4222 73.8522L88.0821 72.8895L66.3044 60.3075L64.6445 61.2702L86.4222 73.8522Z" fill="black" fill-opacity="0.14"/>
    <path d="M97.2266 60.1133L73.207 74.7919V78.4986L84.4893 71.9853L90.7969 68.317L95.3947 65.6446C95.9377 65.1948 97.2207 64.932 97.2207 62.5597C97.2207 61.9666 97.2266 60.1133 97.2266 60.1133Z" fill="#C4C4C4"/>
    <path d="M73.2061 75.6092V78.5005L69.5504 68.518C69.5504 68.518 60.7714 63.5345 55.1914 60.2634C53.0415 59.0031 53.3381 57.5945 53.3381 57.5945V54.8516L55.7845 56.186L71.2045 64.3408L73.2061 75.6092Z" fill="#94C4DE"/>
    <path d="M95.3405 57.5986C97.7971 59.0262 97.8942 61.3005 95.3737 62.7443L90.7757 65.4166L84.4682 69.085L73.2076 75.6084L69.546 65.5992L55.2045 57.3165C52.7478 55.889 52.7312 53.5983 55.1713 52.1708L66.0934 45.8299C68.5334 44.4192 72.5005 44.4026 74.9738 45.8299L95.3405 57.5986Z" fill="#F8F8FC"/>
    <path d="M78.9215 65.7729V68.4358L58.7109 56.7683V54.1055L78.9215 65.7729Z" fill="#277484"/>
    <path d="M80.4613 64.8789V67.5416L78.9219 68.4345V65.7715L80.4613 64.8789Z" fill="#38A7BD"/>
    <path d="M80.4607 64.8785L78.9213 65.7712L58.7109 54.1037L60.2502 53.2109L80.4607 64.8785Z" fill="#3EB9D3"/>
    <path d="M83.8433 61.7026V64.3655L63.6328 52.698V50.0352L83.8433 61.7026Z" fill="#277484"/>
    <path d="M85.3831 60.8086V63.4713L83.8438 64.3642V61.7012L85.3831 60.8086Z" fill="#38A7BD"/>
    <path d="M85.3826 60.8082L83.8432 61.7008L63.6328 50.0334L65.1721 49.1406L85.3826 60.8082Z" fill="#3EB9D3"/>
    <path d="M88.4996 58.7847V61.4475L68.2891 49.78V47.1172L88.4996 58.7847Z" fill="#277484"/>
    <path d="M90.0394 57.8945V60.5572L88.5 61.4501V58.7871L90.0394 57.8945Z" fill="#38A7BD"/>
    <path d="M90.0388 57.8942L88.4995 58.7868L68.2891 47.1193L69.8283 46.2266L90.0388 57.8942Z" fill="#3EB9D3"/>
    <path d="M123.99 81.7608C122.7 83.1985 122.245 84.1293 124.492 86.4561C124.906 86.9097 125.848 87.111 126.129 87.1327C127.431 87.1403 128.082 87.7846 128.693 88.4089C129.097 88.8321 129.49 89.2249 130.05 89.457C132.072 90.3071 135.62 88.9162 135.967 87.4622C136.49 85.3832 130.29 83.5798 127.699 81.0485C127.637 81.0188 125.254 81.1442 123.99 81.7608Z" fill="#161615"/>
    <path d="M137.692 73.666C138.063 73.4561 138.063 73.0688 138.595 72.6172C138.95 73.2949 140.015 73.9886 140.37 74.6342C140.451 74.6825 140.532 74.7471 140.596 74.7793C143.839 76.8124 149.478 78.5349 149.413 80.7941C149.382 82.3914 147.731 84.1672 145.44 83.7636C144.81 83.6509 143.708 83.2111 143.192 82.8721C142.417 82.3718 141.268 81.92 140.171 81.6453C139.711 81.5581 138.968 81.3585 138.499 81.0381C135.707 79.1665 137.046 77.3932 135.465 75.0375C136.239 74.5533 136.998 74.0853 137.692 73.666Z" fill="#161615"/>
    <path d="M128.393 59.9034C128.393 59.9034 129.168 54.7882 126.441 49.6409C124.294 45.5585 115.355 41.8633 115.258 41.8633C115.161 41.8633 107.513 45.3326 108.094 46.6235C108.417 47.3496 120.099 58.9836 120.325 59.5323C120.729 60.4843 120.825 61.0329 120.616 62.098C119.76 66.2448 120.712 78.4277 122.261 81.9613C123.407 84.5594 127.651 84.0752 128.425 82.6553C128.571 82.3972 128.474 62.711 128.393 59.9034C128.474 62.711 128.393 59.8874 128.393 59.9034Z" fill="#FD60C9"/>
    <path d="M114.353 41.5547C114.434 41.5547 124.293 45.5564 126.439 49.6226C129.15 54.7701 127.907 58.5943 127.907 58.5943C126.713 57.0937 127.907 58.5943 127.907 58.5943C128.456 59.2881 128.44 62.8703 128.488 65.1453C125.681 62.9187 125.6 56.0125 121.614 58.433C120.888 58.6587 121.404 73.375 122.663 79.087C122.905 80.2004 123.631 82.4109 124.18 83.3953C123.535 83.3306 122.905 83.121 122.26 81.943C121.421 78.9742 119.436 69.0021 120.614 62.0797C120.791 61.0147 120.727 60.4661 120.323 59.514C120.097 58.9653 108.415 47.3474 108.092 46.6052C107.528 45.3143 114.256 41.5547 114.353 41.5547Z" fill="#123E5D" fill-opacity="0.3"/>
    <path d="M110.578 57.2086C118.21 56.6437 124.922 55.4659 124.922 55.4659C127.488 64.0825 130.962 70.7945 136.016 76.5444C136.887 76.4314 139.297 75.1795 139.991 74.1145C137.635 70.2742 132.463 50.86 129.501 47.8126C127.274 46.3281 106.705 45.9456 106.705 44.9935C106.705 44.6063 102.09 44.0899 101.751 44.0899C97.9271 44.0576 97.0881 58.1767 110.578 57.2086Z" fill="#FF60CA"/>
    <path d="M101.767 44.0703C102.106 44.0703 106.72 44.5868 106.72 44.974C106.72 45.3613 109.996 45.5065 114.03 45.6356C113.82 46.0229 113.546 46.4101 113.207 46.7973C110.512 49.7987 104.026 47.0876 101.767 50.4278C100.314 52.574 103.251 54.333 104.671 54.8493C111.255 56.9309 120.259 56.9632 125.374 52.6064C127.617 61.2875 130.701 71.0824 137.274 76.1279C136.758 76.4506 136.289 76.5176 136.031 76.5499C131.011 70.8942 127.504 64.0629 124.938 55.4463C124.938 55.4463 118.225 56.6243 110.593 57.189C97.0872 58.1733 97.9262 44.0542 101.767 44.0703Z" fill="#1A4A6C" fill-opacity="0.3"/>
    <path d="M126.284 42.1083C126.284 42.1083 129.061 42.7203 129.8 44.0954C130.552 45.4792 131.301 46.1375 131.394 47.2989C131.5 48.4689 130.706 48.734 129.858 48.356C129.018 47.9644 127.783 46.9266 126.808 45.5942C125.833 44.2619 125.554 44.373 125.135 44.1302C124.761 43.877 124.718 42.4231 126.284 42.1083Z" fill="#EEB085"/>
    <path d="M112.884 14.2039C114.191 13.8166 116.483 14.1879 117.047 17.7701C117.596 21.3522 120.249 33.5259 120.249 33.5259C120.249 33.5259 126.862 42.2137 127.959 42.5203C127.959 42.5203 124.542 42.6877 125.365 44.5434C125.365 44.5434 118.654 38.2292 116.282 36.0025C113.877 33.7919 107.511 15.8013 112.884 14.2039Z" fill="#5FB8E6"/>
    <path d="M98.6843 21.1254C98.6843 21.1254 102.089 15.6069 115.03 14.1384C115.03 14.1384 117.112 13.3479 116.724 20.0119C116.66 20.9801 117.612 22.6584 118.273 23.546C118.919 24.4334 120.613 27.838 116.579 31.7106C116.579 31.7106 114.885 37.6165 116.595 41.5053C118.112 44.9907 109.528 48.0887 102.347 47.185C101.46 47.0722 99.5072 46.4267 100.378 43.3608C101.234 40.2788 103.235 34.9216 101.96 29.1773C100.637 23.4167 97.6193 23.9975 98.6843 21.1254Z" fill="#77D2FF"/>
    <path d="M98.6861 21.1265C97.6375 23.9987 100.655 23.4178 101.945 29.1623C103.236 34.9066 101.236 40.2799 100.364 43.3458C99.4931 46.4117 101.445 47.0571 102.333 47.17C103.527 47.3314 104.753 47.3637 105.947 47.3153C103.575 41.7 107.109 31.744 107.448 26.1933C107.787 20.3196 102.527 17.8672 102.527 17.8672C99.6544 19.5615 98.6861 21.1265 98.6861 21.1265Z" fill="#5FB8E6"/>
    <path d="M113.391 4.34467C113.391 4.34467 112.358 10.9927 111.777 17.3342C111.696 18.2379 112.632 19.8838 114.326 19.4965C114.326 19.4965 119.361 12.1062 115.73 4.5221C114.568 2.11794 110.26 -1.33523 105.129 2.00494L113.391 4.34467Z" fill="#2F1706"/>
    <path d="M113.982 48.0742L113.934 48.6714L122.615 54.8674L122.663 54.2704L113.982 48.0742Z" fill="#B4B8BB"/>
    <path d="M122.664 54.2717L122.615 54.8688L138.848 47.4139L138.897 46.8008L122.664 54.2717Z" fill="#7C8183"/>
    <path d="M113.98 48.0759L122.661 54.2721L138.895 46.8011L130.213 40.6211L113.98 48.0759Z" fill="#E2E4E4"/>
    <path d="M114.144 12.5118C114.144 12.5118 111.756 15.1421 112.74 18.0788C112.998 18.8855 113.628 22.1774 108.722 20.6767C108.722 20.6767 103.655 17.9012 105.253 16.4007C106.318 15.4002 107.367 13.9319 106.027 8.55859L114.144 12.5118Z" fill="#E8A376"/>
    <path d="M105.235 16.4012C105.058 16.5625 104.977 16.7402 104.961 16.9176C109.673 18.0149 113.029 14.7877 113.029 14.7877L107.058 9.15625C107.058 9.15625 106.752 9.34982 106.268 9.68868C107.188 14.1423 106.22 15.4653 105.235 16.4012Z" fill="#DB9569"/>
    <path d="M113.627 3.03815C113.627 3.03815 114.95 3.5383 114.869 7.50776C114.854 7.94348 115.531 8.54048 115.692 9.63778C115.838 10.7512 115.934 15.1563 113.369 15.5435C111.513 15.818 106.979 14.5108 105.591 10.0251C104.203 5.52317 108.173 -0.0760164 113.627 3.03815Z" fill="#F0B186"/>
    <path d="M113.321 4.61879C113.321 4.61879 101.848 8.42697 109.916 23.2882C109.916 23.2882 103.978 23.6754 101.493 18.5119C100.299 16.027 100.961 11.1054 101.477 6.39381C101.477 6.39381 103.01 -0.819108 109.045 0.45576C109.061 0.45576 113.03 2.11777 113.321 4.61879Z" fill="#221202"/>
    <path d="M113.32 4.6198C113.32 4.6198 115.321 4.29708 116.176 7.99226C116.176 7.99226 116.176 -2.33483 106.301 0.489048C106.301 0.489048 112.11 0.956908 113.32 4.6198Z" fill="#2F1706"/>
    <path d="M107.815 10.8306C107.815 10.8306 107.186 8.62016 105.911 9.24945C105.508 9.44303 105.056 9.89474 105.621 11.0403C106.186 12.186 107.412 13.2509 108.396 13.1542L107.815 10.8306Z" fill="#F0B186"/>
    <path d="M118.797 44.1953C118.797 44.1953 121.637 44.3729 122.589 45.6153C123.541 46.8578 124.848 48.1648 125.138 49.2944C125.413 50.4238 125.171 50.8272 124.283 50.5691C123.396 50.3109 121.056 48.7134 119.878 47.5516C118.684 46.3898 118.442 46.535 118.006 46.3576C117.571 46.18 117.296 44.7439 118.797 44.1953Z" fill="#EEB085"/>
    <path d="M117.999 46.353C118.434 46.5305 118.692 46.3853 119.871 47.547C121.048 48.7089 123.388 50.3064 124.276 50.5645C124.405 50.5968 124.518 50.6291 124.614 50.6291C123.937 49.8706 122.759 48.5636 121.71 47.4503C120.403 46.0626 118.338 45.4817 117.676 45.3203C117.595 45.8045 117.773 46.2562 117.999 46.353Z" fill="#DB9569"/>
    <path d="M100.169 19.9504C101.508 19.6761 103.767 20.2409 104.009 23.8553C104.267 27.4698 108.967 37.4421 108.967 37.4421C108.967 37.4421 118.233 43.6473 119.298 44.0346C119.298 44.0346 117.475 44.7124 118.153 46.6164C118.153 46.6164 107.421 43.1577 105.226 40.7534C103.064 38.3491 94.1925 21.526 100.169 19.9504Z" fill="#8DDFFF"/>
    <path d="M125.276 43.9761L124.631 43.3789L121.92 54.2386L122.566 54.8356L125.276 43.9761Z" fill="#BCBABA"/>
    <path d="M142.237 36.1828L141.592 35.5859L124.633 43.3796L125.278 43.9767L142.237 36.1828Z" fill="#D2D0D0"/>
    <path d="M125.277 43.9733L122.566 54.833L139.542 47.0231L142.236 36.1797L125.277 43.9733Z" fill="#D4DFE6"/>
    <path d="M125.277 43.9733L139.542 47.0232L142.236 36.1797L125.277 43.9733Z" fill="#E9EFF4"/>
    <defs>
        <linearGradient id="paint0_linear_384_10001" x1="71.1313" y1="69.5914" x2="157.234" y2="69.5553" gradientUnits="userSpaceOnUse">
            <stop stop-color="#1B4B92"/>
            <stop offset="0.5" stop-color="#1B53A2"/>
            <stop offset="1" stop-color="#1A5CB2"/>
        </linearGradient>
        <linearGradient id="paint1_linear_384_10001" x1="27.0503" y1="86.631" x2="140.096" y2="19.5889" gradientUnits="userSpaceOnUse">
            <stop stop-color="#1A6BB2"/>
            <stop offset="0.5" stop-color="#1B5BA2"/>
            <stop offset="1" stop-color="#1B4B92"/>
        </linearGradient>
    </defs>
</svg>
