<svg width="393" height="263" viewBox="0 0 393 263" fill="none" xmlns="http://www.w3.org/2000/svg">
<path d="M241.346 20.9888C241.346 20.9888 198.106 5.61619 155.661 30.093C113.216 54.5699 91.8264 103.168 73.4086 142.091C54.9908 181.014 65.602 220.608 98.0006 238.664C130.399 256.721 152.417 230.104 197.891 228.807C243.365 227.509 255.567 234.008 293.287 208.332C331.007 182.657 337.819 121.999 308.068 77.1422C278.317 32.2854 241.346 20.9888 241.346 20.9888Z" fill="#FF7900"/>
<path opacity="0.7" d="M241.346 20.9888C241.346 20.9888 198.106 5.61619 155.661 30.093C113.216 54.5699 91.8264 103.168 73.4086 142.091C54.9908 181.014 65.602 220.608 98.0006 238.664C130.399 256.721 152.417 230.104 197.891 228.807C243.365 227.509 255.567 234.008 293.287 208.332C331.007 182.657 337.819 121.999 308.068 77.1422C278.317 32.2854 241.346 20.9888 241.346 20.9888Z" fill="white"/>
<path d="M119.809 118.672C121.531 118.264 124.649 115.81 124.655 115.81C124.66 115.81 122.41 114.24 122.258 114.162C120.469 113.23 116.461 112.482 114.854 114.067C114.594 114.338 114.394 114.66 114.267 115.014C114.14 115.367 114.089 115.743 114.117 116.117C114.145 116.492 114.252 116.856 114.43 117.186C114.609 117.516 114.855 117.805 115.153 118.034C116.382 119.054 118.344 119.017 119.809 118.672Z" fill="#FF7900"/>
<path d="M127.809 127.034C129.301 126.217 131.514 123.272 131.687 123.036C133.368 124.306 135.134 125.462 136.971 126.495C138.018 127.107 139.132 127.688 140.236 128.253C139.713 128.07 139.19 127.907 139.137 127.892C137.165 127.468 133.104 127.803 131.969 129.754C131.79 130.084 131.682 130.449 131.652 130.823C131.623 131.198 131.673 131.574 131.799 131.928C131.924 132.282 132.124 132.606 132.383 132.877C132.642 133.149 132.956 133.363 133.303 133.506C134.758 134.16 136.647 133.611 137.971 132.889C139.294 132.167 141.246 129.681 141.754 129.017L143.025 129.66C145.071 130.675 147.117 131.68 149.094 132.726C149.79 133.098 150.46 133.485 151.135 133.872C150.654 133.71 150.246 133.574 150.183 133.564C148.21 133.135 144.15 133.469 143.02 135.426C142.84 135.756 142.732 136.12 142.703 136.494C142.674 136.868 142.724 137.244 142.85 137.598C142.975 137.951 143.175 138.274 143.434 138.546C143.693 138.817 144.007 139.031 144.354 139.173C145.809 139.832 147.692 139.277 149.016 138.555C150.34 137.833 152.103 135.588 152.71 134.804C153.385 135.222 154.065 135.636 154.704 136.075C155.133 136.379 155.572 136.645 155.985 136.975L157.22 137.927C157.989 138.56 158.79 139.209 159.512 139.842C160.035 140.282 160.501 140.711 160.988 141.14C160.297 140.763 158.931 140.057 158.811 140.01C156.927 139.288 152.862 139.005 151.449 140.768C151.222 141.067 151.06 141.411 150.974 141.776C150.889 142.142 150.881 142.521 150.951 142.89C151.022 143.258 151.169 143.608 151.384 143.916C151.599 144.224 151.876 144.483 152.197 144.677C153.537 145.546 155.483 145.284 156.906 144.771C158.476 144.206 161.009 141.742 161.322 141.428C162.123 142.145 162.892 142.84 163.609 143.521C165.54 145.326 167.162 146.948 168.433 148.261L169.637 147.361C168.302 146.037 166.581 144.379 164.514 142.532C163.708 141.804 162.829 141.046 161.898 140.271C162.489 139.299 163.022 138.293 163.494 137.258C165.173 137.561 168.423 136.954 168.841 136.87C169.113 137.917 169.365 138.916 169.595 139.874C170.191 142.37 170.641 144.583 170.976 146.336L172.284 145.352C171.923 143.704 171.473 141.742 170.898 139.549C170.62 138.503 170.312 137.378 169.977 136.232C170.369 136.049 173.577 134.521 174.654 133.255C175.628 132.109 176.554 130.372 176.224 128.818C176.158 128.447 176.014 128.093 175.802 127.782C175.59 127.47 175.314 127.206 174.993 127.009C174.672 126.811 174.312 126.684 173.938 126.635C173.564 126.586 173.184 126.616 172.823 126.725C170.683 127.437 169.527 131.345 169.548 133.365C169.548 133.485 169.705 134.772 169.815 135.588C169.673 135.118 169.548 134.662 169.401 134.186C169.113 133.234 168.799 132.292 168.465 131.282C168.287 130.796 168.104 130.309 167.941 129.817C167.779 129.325 167.528 128.823 167.319 128.326C166.795 127.17 166.272 126.029 165.66 124.888C166.492 124.637 169.433 123.695 170.573 122.701C171.714 121.707 172.891 120.137 172.781 118.547C172.77 118.172 172.679 117.803 172.515 117.465C172.351 117.128 172.118 116.828 171.831 116.587C171.543 116.345 171.208 116.167 170.847 116.064C170.486 115.961 170.108 115.935 169.736 115.988C167.507 116.365 165.775 120.059 165.487 122.052C165.487 122.178 165.425 123.622 165.414 124.433C165.053 123.753 164.692 123.068 164.305 122.393C163.18 120.436 161.982 118.484 160.794 116.538L159.716 114.743C160.014 114.659 163.531 113.618 164.812 112.503C165.953 111.52 167.13 109.945 167.02 108.349C167.008 107.974 166.917 107.606 166.753 107.269C166.589 106.931 166.355 106.632 166.068 106.391C165.781 106.15 165.446 105.971 165.086 105.868C164.725 105.764 164.347 105.738 163.975 105.79C161.746 106.172 160.014 109.861 159.727 111.855C159.727 112.006 159.643 114.105 159.653 114.638C158.863 113.32 158.084 112.022 157.383 110.667C156.415 108.874 155.566 107.019 154.84 105.115C154.976 105.074 158.654 104.001 159.967 102.865C161.103 101.877 162.28 100.302 162.175 98.711C162.162 98.3358 162.07 97.9677 161.906 97.6303C161.741 97.2929 161.507 96.9939 161.22 96.7527C160.932 96.5115 160.597 96.3334 160.236 96.2299C159.875 96.1265 159.497 96.1001 159.125 96.1524C156.896 96.5291 155.164 100.218 154.876 102.217C154.876 102.374 154.787 104.629 154.808 105.037C154.766 104.927 154.709 104.817 154.667 104.702C153.992 102.772 153.49 100.787 153.165 98.7686C152.972 97.6593 152.851 96.5814 152.757 95.535C153.463 95.4042 156.676 94.7763 157.989 93.8868C159.303 92.9973 160.569 91.595 160.637 89.9992C160.666 89.625 160.616 89.249 160.489 88.8956C160.363 88.5421 160.164 88.2192 159.905 87.9477C159.646 87.6763 159.333 87.4624 158.986 87.3201C158.638 87.1777 158.265 87.11 157.89 87.1214C155.635 87.2522 153.511 90.7265 153.003 92.6834C152.977 92.788 152.815 93.8973 152.71 94.7083C152.673 94.2374 152.626 93.7455 152.6 93.2955C152.501 91.5898 152.516 90.0201 152.543 88.6283C152.543 87.8382 152.595 87.1266 152.632 86.4621C153.259 85.9703 155.771 83.9715 156.477 82.6111C157.184 81.2507 157.717 79.3828 157.042 77.9386C156.896 77.593 156.677 77.2821 156.402 77.0263C156.127 76.7705 155.802 76.5756 155.446 76.4541C155.091 76.3327 154.714 76.2875 154.34 76.3215C153.966 76.3555 153.603 76.468 153.275 76.6515C151.334 77.8078 151.051 81.8838 151.501 83.8407C151.538 84.0081 152.454 86.5982 152.485 86.572L152.527 86.5406C152.475 87.1842 152.428 87.8696 152.396 88.6335C152.339 90.0253 152.291 91.6003 152.354 93.3112C152.402 95.1605 152.557 97.0054 152.82 98.8366C153.105 100.888 153.571 102.91 154.212 104.88C154.218 104.903 154.227 104.926 154.238 104.948C153.851 104.425 152.715 102.949 152.611 102.855C151.203 101.411 147.629 99.454 145.61 100.459C145.278 100.635 144.988 100.879 144.757 101.175C144.526 101.47 144.36 101.812 144.27 102.176C144.18 102.54 144.167 102.919 144.233 103.289C144.299 103.658 144.442 104.009 144.652 104.32C145.505 105.67 147.384 106.251 148.885 106.376C150.575 106.523 154.05 105.283 154.327 105.183C155.017 107.17 155.838 109.109 156.786 110.986C157.341 112.08 157.932 113.168 158.539 114.251C158.188 113.796 157.874 113.398 157.822 113.346C156.415 111.902 152.841 109.94 150.816 110.944C150.485 111.121 150.195 111.366 149.964 111.663C149.734 111.959 149.569 112.301 149.479 112.666C149.389 113.03 149.377 113.41 149.443 113.779C149.509 114.149 149.653 114.5 149.864 114.811C150.711 116.156 152.59 116.736 154.091 116.867C155.593 116.998 158.596 115.999 159.381 115.727C159.622 116.14 159.852 116.553 160.093 116.967C161.239 118.939 162.39 120.907 163.457 122.869C163.839 123.565 164.185 124.255 164.535 124.962C164.221 124.559 163.954 124.224 163.907 124.177C162.5 122.733 158.926 120.771 156.906 121.78C156.575 121.957 156.285 122.2 156.054 122.496C155.823 122.792 155.657 123.133 155.567 123.498C155.476 123.862 155.464 124.241 155.529 124.61C155.595 124.98 155.738 125.331 155.949 125.642C156.802 126.992 158.68 127.573 160.182 127.698C161.683 127.824 164.394 126.929 165.33 126.605C165.665 127.327 166 128.049 166.298 128.766C166.487 129.257 166.701 129.718 166.864 130.225L167.387 131.701C167.68 132.648 167.983 133.626 168.24 134.563C168.428 135.212 168.59 135.829 168.763 136.457C168.397 135.761 167.643 134.422 167.57 134.317C166.485 132.911 165.056 131.808 163.421 131.115C163.309 130.952 163.181 130.801 163.039 130.665C162.777 130.395 162.462 130.184 162.114 130.044C161.766 129.904 161.392 129.839 161.017 129.854C160.641 129.868 160.274 129.961 159.937 130.127C159.6 130.293 159.302 130.528 159.062 130.817C157.665 132.59 158.858 136.488 159.988 138.142C160.056 138.236 160.893 139.23 161.438 139.842C161.066 139.528 160.705 139.22 160.318 138.906C159.554 138.267 158.774 137.66 157.937 136.996L156.655 136.101C156.242 135.782 155.766 135.5 155.316 135.196C154.269 134.511 153.16 133.872 152.035 133.25C152.59 132.58 154.52 130.173 154.929 128.713C155.337 127.253 155.452 125.302 154.479 124.004C154.261 123.698 153.981 123.441 153.658 123.251C153.335 123.06 152.975 122.939 152.602 122.896C152.229 122.853 151.851 122.889 151.493 123.001C151.135 123.114 150.804 123.3 150.523 123.549C148.875 125.119 149.476 129.127 150.329 130.953C150.382 131.068 151.146 132.308 151.58 132.978C150.9 132.611 150.225 132.24 149.529 131.889C147.509 130.874 145.437 129.911 143.37 128.943L141.481 128.038C141.686 127.803 144.045 124.993 144.501 123.361C144.903 121.906 145.024 119.944 144.051 118.678C143.833 118.372 143.553 118.115 143.23 117.924C142.907 117.733 142.547 117.612 142.174 117.569C141.801 117.526 141.423 117.562 141.065 117.675C140.707 117.787 140.376 117.974 140.095 118.222C138.447 119.766 139.048 123.8 139.896 125.626C139.964 125.762 141.068 127.546 141.366 127.986C139.985 127.321 138.614 126.646 137.285 125.93C135.489 124.964 133.757 123.884 132.1 122.696C132.194 122.586 134.669 119.666 135.135 117.987C135.543 116.538 135.658 114.575 134.685 113.278C134.468 112.972 134.188 112.715 133.865 112.524C133.542 112.333 133.183 112.213 132.81 112.17C132.437 112.128 132.06 112.164 131.702 112.278C131.344 112.391 131.015 112.578 130.734 112.828C129.081 114.371 129.688 118.4 130.535 120.226C130.603 120.373 131.791 122.288 132.032 122.618C131.938 122.55 131.828 122.487 131.734 122.419C130.105 121.182 128.59 119.803 127.208 118.296C126.433 117.474 125.737 116.647 125.078 115.826C125.601 115.329 127.935 113.032 128.521 111.572C129.107 110.112 129.41 108.234 128.589 106.863C128.406 106.535 128.156 106.249 127.856 106.024C127.555 105.799 127.211 105.64 126.845 105.557C126.479 105.473 126.099 105.468 125.731 105.54C125.362 105.613 125.013 105.762 124.707 105.979C122.896 107.334 123.043 111.405 123.697 113.304C123.733 113.409 124.22 114.424 124.571 115.156C124.283 114.779 123.974 114.398 123.702 114.037C122.656 112.666 121.824 111.352 121.086 110.18C120.667 109.511 120.301 108.898 119.961 108.318C120.217 107.564 121.196 104.519 121.049 102.986C120.903 101.453 120.301 99.611 118.956 98.8C118.643 98.5929 118.29 98.4541 117.919 98.3926C117.549 98.3311 117.17 98.3483 116.807 98.4431C116.443 98.5378 116.104 98.708 115.811 98.9426C115.518 99.1772 115.277 99.4709 115.105 99.8046C114.122 101.84 116.126 105.387 117.591 106.779C117.716 106.9 119.903 108.553 119.919 108.511V108.469C120.233 109.029 120.573 109.631 120.965 110.274C121.688 111.467 122.535 112.807 123.514 114.199C124.573 115.715 125.719 117.168 126.946 118.552C128.315 120.105 129.819 121.534 131.441 122.822L131.498 122.863C130.881 122.633 129.128 122.037 128.987 122.011C127.014 121.582 122.954 121.916 121.818 123.873C121.64 124.203 121.532 124.567 121.504 124.941C121.475 125.315 121.525 125.69 121.651 126.044C121.776 126.397 121.975 126.72 122.234 126.992C122.493 127.263 122.806 127.477 123.153 127.62C124.597 128.31 126.486 127.756 127.809 127.034Z" fill="#FF7900"/>
<path d="M152.407 95.2887C152.449 95.2887 151.402 92.751 151.319 92.594C150.34 90.8307 147.41 87.9948 145.197 88.4343C144.835 88.5196 144.495 88.6796 144.198 88.904C143.902 89.1284 143.656 89.4123 143.475 89.7375C143.295 90.0626 143.185 90.4218 143.151 90.7921C143.118 91.1624 143.162 91.5355 143.282 91.8877C143.742 93.4103 145.401 94.4672 146.819 94.9852C148.451 95.5974 152.407 95.2887 152.407 95.2887Z" fill="#FF7900"/>
<path d="M268.718 37.8697H231.626L230.057 40.7318C229.224 42.2329 228.004 43.4838 226.525 44.3548C225.045 45.2258 223.36 45.6851 221.643 45.6851C219.926 45.6851 218.241 45.2258 216.761 44.3548C215.282 43.4838 214.063 42.2329 213.229 40.7318L211.686 37.8697H174.62C172.745 37.846 170.937 38.5679 169.594 39.8768C168.25 41.1856 167.482 42.9743 167.457 44.8496V235.861C167.482 237.736 168.25 239.525 169.594 240.834C170.937 242.143 172.745 242.865 174.62 242.841H268.718C270.594 242.865 272.403 242.143 273.747 240.834C275.091 239.526 275.86 237.737 275.887 235.861V44.8496C275.86 42.9739 275.091 41.1852 273.747 39.8764C272.403 38.5677 270.594 37.846 268.718 37.8697Z" fill="white"/>
<path d="M268.426 40.6182H260.949V44.7203H268.426V40.6182Z" stroke="#263238" stroke-width="0.476521" stroke-linecap="round" stroke-linejoin="round"/>
<path d="M266.783 40.6182H260.949V44.7203H266.783V40.6182Z" fill="#263238" stroke="#263238" stroke-width="0.420809" stroke-linecap="round" stroke-linejoin="round"/>
<path d="M269.458 41.7627H268.406V43.5679H269.458V41.7627Z" fill="#263238" stroke="#263238" stroke-width="0.420809" stroke-linecap="round" stroke-linejoin="round"/>
<path d="M175.004 41.8887H173.633V44.238H175.004V41.8887Z" fill="#263238" stroke="#263238" stroke-width="0.512515" stroke-linecap="round" stroke-linejoin="round"/>
<path d="M177.152 41.0605H175.781V44.2366H177.152V41.0605Z" fill="#263238" stroke="#263238" stroke-width="0.512515" stroke-linecap="round" stroke-linejoin="round"/>
<path d="M179.312 40.0879H177.941V44.2371H179.312V40.0879Z" fill="#263238" stroke="#263238" stroke-width="0.512515" stroke-linecap="round" stroke-linejoin="round"/>
<path d="M170.773 46.1211H272.548" stroke="#263238" stroke-width="0.580368" stroke-linecap="round" stroke-linejoin="round"/>
<path d="M281.164 103.52C281.366 103.52 281.559 103.44 281.701 103.298C281.843 103.155 281.923 102.962 281.923 102.761V82.397C281.923 82.1958 281.843 82.0028 281.701 81.8605C281.559 81.7182 281.366 81.6383 281.164 81.6383H279.187V42.7359C279.187 41.4519 278.934 40.1805 278.442 38.9944C277.95 37.8082 277.23 36.7305 276.322 35.8228C275.414 34.9151 274.336 34.1953 273.149 33.7044C271.963 33.2135 270.691 32.9612 269.407 32.9619H173.928C172.644 32.9612 171.372 33.2135 170.186 33.7044C168.999 34.1953 167.921 34.9151 167.013 35.8228C166.105 36.7305 165.384 37.8082 164.893 38.9944C164.401 40.1805 164.148 41.4519 164.148 42.7359V243.48C164.148 244.764 164.401 246.035 164.893 247.221C165.384 248.407 166.105 249.485 167.013 250.393C167.921 251.3 168.999 252.02 170.186 252.511C171.372 253.002 172.644 253.254 173.928 253.254H269.407C270.691 253.254 271.963 253.002 273.149 252.511C274.336 252.02 275.414 251.3 276.322 250.393C277.23 249.485 277.95 248.407 278.442 247.221C278.934 246.035 279.187 244.764 279.187 243.48V121.043H281.164C281.366 121.043 281.559 120.963 281.701 120.821C281.843 120.679 281.923 120.486 281.923 120.284V111.206C281.923 111.005 281.843 110.812 281.701 110.67C281.559 110.527 281.366 110.448 281.164 110.448H279.187V103.52H281.164ZM275.885 235.861C275.859 237.737 275.089 239.526 273.745 240.835C272.401 242.143 270.592 242.865 268.717 242.841H174.618C172.743 242.865 170.935 242.143 169.592 240.834C168.249 239.525 167.48 237.737 167.455 235.861V44.8498C167.48 42.9745 168.249 41.1858 169.592 39.8769C170.935 38.568 172.743 37.8461 174.618 37.8698H211.71L213.254 40.7319C214.087 42.233 215.306 43.484 216.786 44.3549C218.265 45.2259 219.951 45.6852 221.667 45.6852C223.384 45.6852 225.07 45.2259 226.549 44.3549C228.029 43.484 229.248 42.233 230.081 40.7319L231.651 37.8698H268.743C270.619 37.8461 272.427 38.5678 273.771 39.8766C275.115 41.1853 275.885 42.974 275.911 44.8498L275.885 235.861Z" fill="#263238" stroke="#263238" stroke-width="0.580368" stroke-linecap="round" stroke-linejoin="round"/>
<path d="M224.22 38.9635C224.22 38.4585 224.07 37.9649 223.79 37.545C223.509 37.1251 223.11 36.7978 222.644 36.6045C222.177 36.4113 221.664 36.3607 221.169 36.4592C220.673 36.5577 220.218 36.8009 219.861 37.158C219.504 37.5151 219.261 37.9701 219.162 38.4654C219.064 38.9607 219.114 39.4741 219.308 39.9407C219.501 40.4072 219.828 40.806 220.248 41.0866C220.668 41.3672 221.162 41.5169 221.667 41.5169C222.002 41.5176 222.335 41.452 222.645 41.324C222.955 41.1959 223.236 41.0078 223.474 40.7706C223.711 40.5333 223.899 40.2516 224.027 39.9415C224.155 39.6314 224.221 39.299 224.22 38.9635Z" fill="white" stroke="#263238" stroke-width="0.580368" stroke-linecap="round" stroke-linejoin="round"/>
<path d="M235.078 51.9072H177.523C176.358 51.9072 175.242 52.3697 174.419 53.193C173.595 54.0163 173.133 55.1329 173.133 56.2972V79.8793L178.297 74.3592H235.078C236.243 74.3592 237.359 73.8967 238.183 73.0734C239.006 72.2501 239.468 71.1335 239.468 69.9692V56.2972C239.468 55.1329 239.006 54.0163 238.183 53.193C237.359 52.3697 236.243 51.9072 235.078 51.9072Z" fill="#00CCA7"/>
<path d="M185.853 67.6428C189.216 67.0952 191.498 63.9252 190.95 60.5625C190.403 57.1998 187.233 54.9178 183.87 55.4654C180.507 56.0131 178.225 59.183 178.773 62.5457C179.321 65.9084 182.49 68.1905 185.853 67.6428Z" fill="white"/>
<path d="M187.974 61.6962C187.974 61.6962 188.623 60.8329 188.769 61.6962C188.916 62.5595 187.66 63.6426 187.66 63.6426L187.974 61.6962Z" fill="white" stroke="#263238" stroke-width="0.580368" stroke-linecap="round" stroke-linejoin="round"/>
<path d="M181.771 61.6962C181.771 61.6962 181.127 60.8329 180.981 61.6962C180.834 62.5595 182.085 63.6426 182.085 63.6426L181.771 61.6962Z" fill="white" stroke="#263238" stroke-width="0.580368" stroke-linecap="round" stroke-linejoin="round"/>
<path d="M185.091 57.4442C185.091 57.4442 182.647 57.2558 182.082 58.883C181.517 60.5103 181.899 63.1422 182.082 63.6445C182.265 64.1468 183.84 66.585 184.274 66.7839C184.709 66.9827 185.781 66.9094 185.965 66.6583C186.148 66.4071 187.723 64.0892 187.843 63.2782C187.894 62.0815 187.872 60.8827 187.775 59.6888C187.752 59.2677 187.611 58.8617 187.367 58.5173C187.124 58.173 186.788 57.9044 186.399 57.7424C185.983 57.5701 185.54 57.4693 185.091 57.4442Z" fill="white" stroke="#263238" stroke-width="0.580368" stroke-linecap="round" stroke-linejoin="round"/>
<path d="M187.772 59.6784C187.749 59.2573 187.608 58.8512 187.365 58.5068C187.121 58.1625 186.785 57.8939 186.396 57.7319C185.979 57.5632 185.537 57.4659 185.088 57.4442C185.088 57.4442 182.645 57.2558 182.079 58.883C181.814 59.8106 181.72 60.7787 181.802 61.7399C181.928 61.8864 182.325 62.3207 182.273 61.7713C182.2 61.1225 182.127 59.1551 182.634 58.747C183.142 58.3389 183.21 57.9569 183.926 58.5325C184.643 59.108 184.575 59.6103 185.297 59.2545C186.019 58.8987 186.161 58.1034 186.804 58.3912C187.448 58.679 187.239 60.0446 187.239 60.6934C187.239 61.3422 187.239 62.5614 187.673 61.9858C187.752 61.8655 187.815 61.7353 187.861 61.5986C187.84 60.9394 187.804 60.233 187.772 59.6784Z" fill="#263238" stroke="#263238" stroke-width="0.580368" stroke-linecap="round" stroke-linejoin="round"/>
<path d="M184.047 66.3803C184.047 66.3803 184.821 64.8106 185.313 65.3966C185.62 65.7601 185.841 66.1873 185.962 66.6472C185.665 66.8451 185.307 66.9272 184.954 66.878C184.601 66.8288 184.278 66.6517 184.047 66.3803Z" fill="#263238" stroke="#263238" stroke-width="0.580368" stroke-linecap="round" stroke-linejoin="round"/>
<path d="M184.395 57.3229C184.273 57.0425 184.08 56.799 183.835 56.6165L183.484 56.4072C183.484 56.4072 184.327 56.0567 184.604 56.3392C184.781 56.5141 184.945 56.7012 185.096 56.8991C185.096 56.8991 185.237 55.9154 185.588 56.266C185.787 56.4671 185.998 56.6558 186.221 56.831C186.221 56.831 185.237 57.1084 185.237 57.8147" fill="#263238"/>
<path d="M184.395 57.3229C184.273 57.0425 184.08 56.799 183.835 56.6165L183.484 56.4072C183.484 56.4072 184.327 56.0567 184.604 56.3392C184.781 56.5141 184.945 56.7012 185.096 56.8991C185.096 56.8991 185.237 55.9154 185.588 56.266C185.787 56.4671 185.998 56.6558 186.221 56.831C186.221 56.831 185.237 57.1084 185.237 57.8147" stroke="#263238" stroke-width="0.580368" stroke-linecap="round" stroke-linejoin="round"/>
<path d="M194.668 57.1504H207.456" stroke="white" stroke-width="1.16074" stroke-linecap="round" stroke-linejoin="round"/>
<path d="M194.668 61.6035H233.811" stroke="white" stroke-width="0.580368" stroke-linecap="round" stroke-linejoin="round"/>
<path d="M194.668 65.2852H233.811" stroke="white" stroke-width="0.580368" stroke-linecap="round" stroke-linejoin="round"/>
<path d="M194.668 69.3574H233.811" stroke="white" stroke-width="0.580368" stroke-linecap="round" stroke-linejoin="round"/>
<path d="M265.624 83.7773H208.037C207.461 83.7773 206.89 83.8909 206.358 84.1116C205.826 84.3323 205.342 84.6557 204.935 85.0634C204.528 85.4712 204.205 85.9551 203.985 86.4877C203.765 87.0203 203.652 87.591 203.652 88.1673V101.86C203.652 103.024 204.114 104.139 204.936 104.963C205.758 105.786 206.874 106.249 208.037 106.25H264.824L270.014 111.749V88.1568C270.011 86.9943 269.548 85.8804 268.725 85.0594C267.902 84.2384 266.787 83.7773 265.624 83.7773Z" fill="#FF7900"/>
<path d="M225.219 89.0049H238.007" stroke="#263238" stroke-width="1.16074" stroke-linecap="round" stroke-linejoin="round"/>
<path d="M225.219 93.4619H264.362" stroke="#263238" stroke-width="0.580368" stroke-linecap="round" stroke-linejoin="round"/>
<path d="M225.219 97.1465H264.362" stroke="#263238" stroke-width="0.580368" stroke-linecap="round" stroke-linejoin="round"/>
<path d="M225.219 101.216H264.362" stroke="#263238" stroke-width="0.580368" stroke-linecap="round" stroke-linejoin="round"/>
<path d="M215.665 100.876C219.072 100.876 221.834 98.114 221.834 94.707C221.834 91.3 219.072 88.5381 215.665 88.5381C212.258 88.5381 209.496 91.3 209.496 94.707C209.496 98.114 212.258 100.876 215.665 100.876Z" fill="white"/>
<path d="M214.887 90.0201C214.248 89.9818 213.615 90.1575 213.087 90.5195C212.559 90.8815 212.167 91.4091 211.973 92.0189C211.251 93.9506 210.845 95.9858 210.77 98.0465C210.77 99.3232 213.297 100.333 214.678 100.438C216.059 100.542 219.167 100.49 220.235 98.7895C221.302 97.089 219.57 93.6357 219.141 91.5113C218.712 89.387 216.373 89.9155 214.887 90.0201Z" fill="#263238" stroke="#263238" stroke-width="0.580368" stroke-linecap="round" stroke-linejoin="round"/>
<path d="M218.775 94.2841C218.775 94.2841 219.424 93.4208 219.565 94.2841C219.706 95.1474 218.461 96.2253 218.461 96.2253L218.775 94.2841Z" fill="white" stroke="#263238" stroke-width="0.580368" stroke-linecap="round" stroke-linejoin="round"/>
<path d="M212.567 94.2841C212.567 94.2841 211.918 93.4208 211.777 94.2841C211.636 95.1474 212.881 96.2253 212.881 96.2253L212.567 94.2841Z" fill="white" stroke="#263238" stroke-width="0.580368" stroke-linecap="round" stroke-linejoin="round"/>
<path d="M215.897 90.0555C215.897 90.0555 213.453 89.8671 212.888 91.4944C212.323 93.1216 212.7 95.7535 212.888 96.2506C213.077 96.7476 214.641 99.1964 215.081 99.39C215.52 99.5836 216.582 99.5155 216.771 99.2644C216.959 99.0132 218.524 96.6953 218.649 95.8843C218.7 94.6876 218.678 93.4888 218.581 92.2949C218.559 91.8737 218.418 91.4673 218.174 91.1229C217.931 90.7784 217.595 90.5099 217.205 90.3485C216.789 90.178 216.346 90.0789 215.897 90.0555Z" fill="white" stroke="#263238" stroke-width="0.580368" stroke-linecap="round" stroke-linejoin="round"/>
<path d="M214.034 90.6577C214.034 90.6577 217.985 94.2837 218.775 94.2837C219.565 94.2837 219.669 91.6152 218.816 90.3385C217.964 89.0618 213.909 88.3189 214.034 90.6577Z" fill="#263238" stroke="#263238" stroke-width="0.580368" stroke-linecap="round" stroke-linejoin="round"/>
<path d="M235.078 116.574H177.523C176.359 116.574 175.244 117.036 174.42 117.858C173.597 118.68 173.134 119.796 173.133 120.959V144.541L178.323 139.042H235.078C235.655 139.043 236.225 138.93 236.758 138.71C237.291 138.49 237.775 138.167 238.182 137.759C238.59 137.352 238.913 136.869 239.134 136.336C239.355 135.804 239.468 135.233 239.468 134.657V120.959C239.468 120.383 239.355 119.812 239.134 119.28C238.913 118.747 238.59 118.264 238.182 117.857C237.775 117.449 237.291 117.127 236.758 116.906C236.225 116.686 235.655 116.574 235.078 116.574Z" fill="#00CCA7"/>
<path d="M190.551 128.586C191.863 125.442 190.378 121.83 187.234 120.518C184.089 119.206 180.477 120.691 179.165 123.835C177.853 126.979 179.338 130.592 182.482 131.904C185.626 133.216 189.239 131.731 190.551 128.586Z" fill="white"/>
<path d="M187.974 126.363C187.974 126.363 188.623 125.5 188.769 126.363C188.916 127.227 187.66 128.304 187.66 128.304L187.974 126.363Z" fill="white" stroke="#263238" stroke-width="0.580368" stroke-linecap="round" stroke-linejoin="round"/>
<path d="M181.771 126.363C181.771 126.363 181.127 125.5 180.981 126.363C180.834 127.227 182.085 128.304 182.085 128.304L181.771 126.363Z" fill="white" stroke="#263238" stroke-width="0.580368" stroke-linecap="round" stroke-linejoin="round"/>
<path d="M185.091 122.104C185.091 122.104 182.647 121.916 182.082 123.543C181.517 125.17 181.899 127.802 182.082 128.305C182.265 128.807 183.84 131.25 184.274 131.444C184.709 131.638 185.781 131.57 185.965 131.318C186.148 131.067 187.723 128.755 187.843 127.938C187.894 126.742 187.872 125.543 187.775 124.349C187.753 123.928 187.612 123.523 187.368 123.179C187.125 122.835 186.789 122.568 186.399 122.408C185.982 122.236 185.54 122.133 185.091 122.104Z" fill="white" stroke="#263238" stroke-width="0.580368" stroke-linecap="round" stroke-linejoin="round"/>
<path d="M187.772 124.339C187.75 123.918 187.609 123.512 187.366 123.168C187.122 122.825 186.786 122.557 186.396 122.397C185.979 122.229 185.537 122.13 185.088 122.104C185.088 122.104 182.644 121.916 182.079 123.543C181.814 124.473 181.72 125.442 181.802 126.405C181.928 126.547 182.325 126.986 182.273 126.437C182.2 125.788 182.126 123.821 182.634 123.412C183.142 123.004 183.21 122.622 183.926 123.198C184.643 123.773 184.575 124.276 185.297 123.915C186.019 123.554 186.161 122.764 186.804 123.051C187.448 123.339 187.238 124.705 187.238 125.354C187.238 126.002 187.238 127.227 187.673 126.651C187.752 126.529 187.815 126.397 187.861 126.259C187.84 125.605 187.804 124.888 187.772 124.339Z" fill="#263238" stroke="#263238" stroke-width="0.580368" stroke-linecap="round" stroke-linejoin="round"/>
<path d="M184.047 131.041C184.047 131.041 184.821 129.472 185.313 130.058C185.619 130.422 185.84 130.849 185.962 131.308C185.665 131.506 185.307 131.588 184.954 131.539C184.601 131.49 184.278 131.313 184.047 131.041Z" fill="#263238" stroke="#263238" stroke-width="0.580368" stroke-linecap="round" stroke-linejoin="round"/>
<path d="M184.395 121.974C184.274 121.695 184.08 121.453 183.835 121.273L183.484 121.063C183.484 121.063 184.327 120.713 184.604 120.99C184.78 121.168 184.945 121.356 185.096 121.555C185.096 121.555 185.237 120.572 185.588 120.922C185.786 121.123 185.998 121.31 186.221 121.482C186.221 121.482 185.237 121.765 185.237 122.466" fill="#263238"/>
<path d="M184.395 121.974C184.274 121.695 184.08 121.453 183.835 121.273L183.484 121.063C183.484 121.063 184.327 120.713 184.604 120.99C184.78 121.168 184.945 121.356 185.096 121.555C185.096 121.555 185.237 120.572 185.588 120.922C185.786 121.123 185.998 121.31 186.221 121.482C186.221 121.482 185.237 121.765 185.237 122.466" stroke="#263238" stroke-width="0.580368" stroke-linecap="round" stroke-linejoin="round"/>
<path d="M194.668 121.812H207.456" stroke="white" stroke-width="1.16074" stroke-linecap="round" stroke-linejoin="round"/>
<path d="M194.668 126.268H233.811" stroke="white" stroke-width="0.580368" stroke-linecap="round" stroke-linejoin="round"/>
<path d="M194.668 129.952H233.811" stroke="white" stroke-width="0.580368" stroke-linecap="round" stroke-linejoin="round"/>
<path d="M194.668 134.018H233.811" stroke="white" stroke-width="0.580368" stroke-linecap="round" stroke-linejoin="round"/>
<path d="M235.08 148.768H177.524C176.945 148.763 176.37 148.873 175.833 149.091C175.296 149.31 174.808 149.632 174.396 150.04C173.985 150.449 173.658 150.934 173.435 151.469C173.212 152.004 173.098 152.578 173.098 153.158V176.74L178.288 171.241H235.08C236.244 171.241 237.361 170.778 238.184 169.955C239.007 169.132 239.47 168.015 239.47 166.851V153.158C239.47 152.581 239.357 152.01 239.137 151.477C238.917 150.944 238.593 150.46 238.186 150.052C237.778 149.644 237.294 149.321 236.761 149.101C236.228 148.88 235.657 148.767 235.08 148.768Z" fill="#00CCA7"/>
<path d="M190.543 160.78C191.855 157.636 190.37 154.023 187.226 152.711C184.081 151.399 180.469 152.884 179.157 156.029C177.845 159.173 179.33 162.785 182.474 164.097C185.619 165.409 189.231 163.924 190.543 160.78Z" fill="white"/>
<path d="M187.974 158.559C187.974 158.559 188.623 157.695 188.769 158.559C188.916 159.422 187.66 160.5 187.66 160.5L187.974 158.559Z" fill="white" stroke="#263238" stroke-width="0.580368" stroke-linecap="round" stroke-linejoin="round"/>
<path d="M181.771 158.559C181.771 158.559 181.127 157.695 180.981 158.559C180.834 159.422 182.085 160.5 182.085 160.5L181.771 158.559Z" fill="white" stroke="#263238" stroke-width="0.580368" stroke-linecap="round" stroke-linejoin="round"/>
<path d="M185.091 154.299C185.091 154.299 182.647 154.11 182.082 155.743C181.517 157.375 181.899 159.997 182.082 160.499C182.265 161.001 183.84 163.445 184.274 163.638C184.709 163.832 185.781 163.764 185.965 163.513C186.148 163.262 187.723 160.944 187.843 160.127C187.894 158.931 187.871 157.732 187.775 156.538C187.753 156.117 187.612 155.712 187.368 155.368C187.125 155.024 186.789 154.757 186.399 154.597C185.982 154.427 185.54 154.326 185.091 154.299Z" fill="white" stroke="#263238" stroke-width="0.580368" stroke-linecap="round" stroke-linejoin="round"/>
<path d="M187.772 156.533C187.75 156.112 187.609 155.706 187.366 155.363C187.122 155.019 186.786 154.752 186.396 154.592C185.979 154.423 185.537 154.324 185.088 154.299C185.088 154.299 182.645 154.11 182.079 155.743C181.814 156.67 181.72 157.638 181.802 158.6C181.928 158.746 182.325 159.18 182.273 158.631C182.2 157.982 182.127 156.041 182.634 155.607C183.142 155.172 183.21 154.817 183.926 155.392C184.643 155.968 184.575 156.47 185.297 156.109C186.019 155.748 186.161 154.958 186.804 155.246C187.448 155.533 187.239 156.904 187.239 157.548C187.239 158.191 187.239 159.421 187.673 158.846C187.751 158.725 187.814 158.595 187.861 158.458C187.84 157.799 187.804 157.082 187.772 156.533Z" fill="#263238" stroke="#263238" stroke-width="0.580368" stroke-linecap="round" stroke-linejoin="round"/>
<path d="M184.047 163.236C184.047 163.236 184.821 161.692 185.313 162.257C185.62 162.621 185.841 163.048 185.962 163.508C185.664 163.704 185.306 163.784 184.953 163.734C184.6 163.684 184.278 163.507 184.047 163.236Z" fill="#263238" stroke="#263238" stroke-width="0.580368" stroke-linecap="round" stroke-linejoin="round"/>
<path d="M184.395 154.178C184.274 153.899 184.08 153.657 183.835 153.477L183.484 153.268C183.484 153.268 184.327 152.917 184.604 153.194C184.78 153.372 184.945 153.56 185.096 153.759C185.096 153.759 185.237 152.776 185.588 153.126C185.786 153.327 185.998 153.514 186.221 153.686C186.221 153.686 185.237 153.969 185.237 154.67" fill="#263238"/>
<path d="M184.395 154.178C184.274 153.899 184.08 153.657 183.835 153.477L183.484 153.268C183.484 153.268 184.327 152.917 184.604 153.194C184.78 153.372 184.945 153.56 185.096 153.759C185.096 153.759 185.237 152.776 185.588 153.126C185.786 153.327 185.998 153.514 186.221 153.686C186.221 153.686 185.237 153.969 185.237 154.67" stroke="#263238" stroke-width="0.580368" stroke-linecap="round" stroke-linejoin="round"/>
<path d="M194.668 154.007H207.456" stroke="white" stroke-width="1.16074" stroke-linecap="round" stroke-linejoin="round"/>
<path d="M194.668 158.464H233.811" stroke="white" stroke-width="0.580368" stroke-linecap="round" stroke-linejoin="round"/>
<path d="M194.668 162.147H233.811" stroke="white" stroke-width="0.580368" stroke-linecap="round" stroke-linejoin="round"/>
<path d="M194.668 166.213H233.811" stroke="white" stroke-width="0.580368" stroke-linecap="round" stroke-linejoin="round"/>
<path d="M235.078 209.438H177.523C176.358 209.438 175.242 209.9 174.419 210.723C173.595 211.547 173.133 212.663 173.133 213.827V237.41L178.323 231.91H235.078C235.655 231.911 236.226 231.798 236.759 231.578C237.292 231.357 237.776 231.034 238.184 230.626C238.592 230.218 238.915 229.734 239.136 229.201C239.356 228.668 239.469 228.097 239.468 227.52V213.827C239.468 212.663 239.006 211.547 238.183 210.723C237.359 209.9 236.243 209.438 235.078 209.438Z" fill="#00CCA7"/>
<path d="M185.857 225.175C189.22 224.627 191.502 221.457 190.954 218.095C190.407 214.732 187.237 212.45 183.874 212.998C180.511 213.545 178.229 216.715 178.777 220.078C179.324 223.441 182.494 225.723 185.857 225.175Z" fill="white"/>
<path d="M187.974 219.232C187.974 219.232 188.623 218.369 188.769 219.232C188.916 220.096 187.66 221.174 187.66 221.174L187.974 219.232Z" fill="white" stroke="#263238" stroke-width="0.580368" stroke-linecap="round" stroke-linejoin="round"/>
<path d="M181.771 219.232C181.771 219.232 181.127 218.369 180.981 219.232C180.834 220.096 182.085 221.174 182.085 221.174L181.771 219.232Z" fill="white" stroke="#263238" stroke-width="0.580368" stroke-linecap="round" stroke-linejoin="round"/>
<path d="M185.091 214.972C185.091 214.972 182.647 214.784 182.082 216.411C181.517 218.039 181.899 220.67 182.082 221.173C182.265 221.675 183.84 224.113 184.274 224.312C184.709 224.511 185.781 224.438 185.965 224.187C186.148 223.935 187.723 221.623 187.843 220.807C187.894 219.61 187.872 218.411 187.775 217.217C187.752 216.796 187.611 216.39 187.367 216.046C187.124 215.701 186.788 215.433 186.399 215.271C185.982 215.101 185.54 215 185.091 214.972Z" fill="white" stroke="#263238" stroke-width="0.580368" stroke-linecap="round" stroke-linejoin="round"/>
<path d="M187.772 217.202C187.749 216.781 187.608 216.375 187.365 216.03C187.121 215.686 186.785 215.417 186.396 215.255C185.979 215.089 185.537 214.992 185.088 214.968C185.088 214.968 182.644 214.779 182.079 216.406C181.814 217.336 181.72 218.306 181.802 219.269C181.928 219.41 182.325 219.849 182.273 219.295C182.2 218.651 182.126 216.705 182.634 216.276C183.142 215.847 183.21 215.48 183.926 216.056C184.643 216.631 184.575 217.139 185.297 216.778C186.019 216.417 186.161 215.627 186.804 215.915C187.448 216.202 187.238 217.568 187.238 218.217C187.238 218.866 187.238 220.09 187.673 219.514C187.751 219.392 187.814 219.26 187.861 219.122C187.84 218.468 187.804 217.756 187.772 217.202Z" fill="#263238" stroke="#263238" stroke-width="0.580368" stroke-linecap="round" stroke-linejoin="round"/>
<path d="M184.047 223.91C184.047 223.91 184.821 222.366 185.313 222.926C185.619 223.29 185.84 223.717 185.962 224.177C185.665 224.374 185.307 224.457 184.954 224.407C184.601 224.358 184.278 224.181 184.047 223.91Z" fill="#263238" stroke="#263238" stroke-width="0.580368" stroke-linecap="round" stroke-linejoin="round"/>
<path d="M184.395 214.853C184.274 214.574 184.08 214.332 183.835 214.152L183.484 213.943C183.484 213.943 184.327 213.587 184.604 213.869C184.779 214.046 184.944 214.233 185.096 214.429C185.096 214.429 185.237 213.451 185.588 213.801C185.786 214.002 185.998 214.189 186.221 214.361C186.221 214.361 185.237 214.644 185.237 215.345" fill="#263238"/>
<path d="M184.395 214.853C184.274 214.574 184.08 214.332 183.835 214.152L183.484 213.943C183.484 213.943 184.327 213.587 184.604 213.869C184.779 214.046 184.944 214.233 185.096 214.429C185.096 214.429 185.237 213.451 185.588 213.801C185.786 214.002 185.998 214.189 186.221 214.361C186.221 214.361 185.237 214.644 185.237 215.345" stroke="#263238" stroke-width="0.580368" stroke-linecap="round" stroke-linejoin="round"/>
<path d="M194.668 214.679H207.456" stroke="white" stroke-width="1.16074" stroke-linecap="round" stroke-linejoin="round"/>
<path d="M194.668 219.138H233.811" stroke="white" stroke-width="0.580368" stroke-linecap="round" stroke-linejoin="round"/>
<path d="M194.668 222.815H233.811" stroke="white" stroke-width="0.580368" stroke-linecap="round" stroke-linejoin="round"/>
<path d="M194.668 226.887H233.811" stroke="white" stroke-width="0.580368" stroke-linecap="round" stroke-linejoin="round"/>
<path d="M265.624 180.89H208.037C207.461 180.89 206.89 181.005 206.357 181.226C205.825 181.447 205.342 181.771 204.934 182.179C204.527 182.587 204.204 183.072 203.985 183.604C203.765 184.137 203.652 184.708 203.652 185.285V198.978C203.652 199.554 203.765 200.125 203.985 200.657C204.205 201.19 204.528 201.674 204.935 202.082C205.342 202.489 205.826 202.813 206.358 203.033C206.89 203.254 207.461 203.368 208.037 203.368H264.824L270.014 208.867V185.285C270.015 184.708 269.902 184.136 269.681 183.603C269.461 183.07 269.138 182.585 268.73 182.177C268.322 181.769 267.838 181.445 267.305 181.224C266.772 181.003 266.201 180.89 265.624 180.89Z" fill="#FF7900"/>
<path d="M225.219 186.133H238.007" stroke="#263238" stroke-width="1.16074" stroke-linecap="round" stroke-linejoin="round"/>
<path d="M225.219 190.591H264.362" stroke="#263238" stroke-width="0.580368" stroke-linecap="round" stroke-linejoin="round"/>
<path d="M225.219 194.269H264.362" stroke="#263238" stroke-width="0.580368" stroke-linecap="round" stroke-linejoin="round"/>
<path d="M225.219 198.34H264.362" stroke="#263238" stroke-width="0.580368" stroke-linecap="round" stroke-linejoin="round"/>
<path d="M215.665 198.004C219.072 198.004 221.834 195.242 221.834 191.835C221.834 188.428 219.072 185.666 215.665 185.666C212.258 185.666 209.496 188.428 209.496 191.835C209.496 195.242 212.258 198.004 215.665 198.004Z" fill="white"/>
<path d="M214.887 187.148C214.248 187.11 213.615 187.285 213.087 187.647C212.559 188.009 212.167 188.537 211.973 189.147C211.251 191.078 210.844 193.114 210.77 195.174C210.77 196.451 213.297 197.461 214.678 197.566C216.059 197.67 219.167 197.618 220.235 195.917C221.302 194.217 219.57 190.764 219.141 188.634C218.712 186.505 216.373 187.043 214.887 187.148Z" fill="#263238" stroke="#263238" stroke-width="0.580368" stroke-linecap="round" stroke-linejoin="round"/>
<path d="M218.775 191.412C218.775 191.412 219.424 190.549 219.565 191.412C219.706 192.275 218.461 193.353 218.461 193.353L218.775 191.412Z" fill="white" stroke="#263238" stroke-width="0.580368" stroke-linecap="round" stroke-linejoin="round"/>
<path d="M212.567 191.412C212.567 191.412 211.918 190.549 211.777 191.412C211.636 192.275 212.881 193.353 212.881 193.353L212.567 191.412Z" fill="white" stroke="#263238" stroke-width="0.580368" stroke-linecap="round" stroke-linejoin="round"/>
<path d="M215.897 187.153C215.897 187.153 213.453 186.965 212.888 188.597C212.323 190.23 212.7 192.851 212.888 193.353C213.077 193.856 214.641 196.299 215.081 196.493C215.52 196.686 216.582 196.618 216.771 196.367C216.959 196.116 218.524 193.798 218.649 192.982C218.7 191.785 218.678 190.586 218.581 189.393C218.559 188.972 218.418 188.566 218.175 188.222C217.931 187.879 217.595 187.611 217.205 187.451C216.788 187.281 216.346 187.181 215.897 187.153Z" fill="white" stroke="#263238" stroke-width="0.580368" stroke-linecap="round" stroke-linejoin="round"/>
<path d="M214.034 187.786C214.034 187.786 217.985 191.412 218.775 191.412C219.565 191.412 219.669 188.743 218.816 187.466C217.964 186.19 213.909 185.447 214.034 187.786Z" fill="#263238" stroke="#263238" stroke-width="0.580368" stroke-linecap="round" stroke-linejoin="round"/>
<path d="M280.366 240.589L279.707 252.257C279.813 252.486 279.965 252.69 280.154 252.857C280.343 253.024 280.565 253.149 280.806 253.225C281.512 253.351 296.911 253.225 296.911 253.225C297.018 252.599 296.975 251.957 296.785 251.352C296.671 250.954 296.457 250.591 296.165 250.298C295.872 250.005 295.509 249.792 295.111 249.677C294.337 249.484 288.989 247.035 288.534 246.841C288.079 246.648 287.828 243.556 287.828 243.556L280.366 240.589Z" fill="white" stroke="#263238" stroke-width="0.580368" stroke-miterlimit="10"/>
<path d="M296.908 253.222C296.971 252.807 296.971 252.386 296.908 251.971L279.725 251.511L279.684 252.254C279.789 252.483 279.942 252.687 280.131 252.854C280.32 253.02 280.542 253.146 280.782 253.222C281.51 253.347 296.908 253.222 296.908 253.222Z" fill="white" stroke="#263238" stroke-width="0.580368" stroke-miterlimit="10"/>
<path d="M283.564 181.476C283.564 181.476 284.888 210.107 284.742 210.986L279.75 241.082C279.75 241.082 284.004 243.432 286.06 243.871C287.661 244.171 289.279 244.367 290.905 244.457C290.905 244.457 297.66 217.003 297.953 215.392C298.246 213.78 294.573 179.006 294.573 179.006L283.564 181.476Z" fill="#263238" stroke="#263238" stroke-width="0.580368" stroke-miterlimit="10"/>
<path d="M283.764 237.499C283.764 237.499 277.773 245.745 278.48 246.582C279.186 247.42 284.408 252.38 285.7 252.961C286.993 253.541 298.781 252.961 298.781 252.961C298.901 252.624 298.966 252.271 298.975 251.914C298.975 251.391 298.912 249.403 298.206 248.822C297.499 248.241 292.147 245.729 291.927 245.342C291.707 244.955 291.477 241.8 291.477 241.8L283.764 237.499Z" fill="white" stroke="#263238" stroke-width="0.580368" stroke-miterlimit="10"/>
<path d="M298.778 252.959C298.898 252.623 298.963 252.27 298.971 251.913V251.672L290.788 251.981C290.788 251.981 288.277 252.363 286.927 251.269C285.791 250.354 280.826 245.828 279.235 244.373C278.633 245.472 278.283 246.325 278.482 246.565C279.193 247.403 284.41 252.363 285.702 252.944C286.995 253.524 298.778 252.959 298.778 252.959Z" fill="white" stroke="#263238" stroke-width="0.580368" stroke-miterlimit="10"/>
<path d="M279.316 168.117C279.316 168.117 280.201 176.63 280.933 177.954C281.666 179.277 282.843 181.328 282.843 181.328L293.967 212.602L282.519 237.853C282.519 237.853 290.89 243.285 292.648 243.871C293.402 244.168 294.192 244.365 294.998 244.457C294.998 244.457 308.502 212.895 308.502 210.692C308.502 208.49 299.084 176.928 299.084 176.928L299.723 166.061L279.316 168.117Z" fill="#263238" stroke="#263238" stroke-width="0.580368" stroke-miterlimit="10"/>
<path d="M290.457 170.76L296.631 173.229L291.514 169.169L295.041 170.76" stroke="#696969" stroke-width="0.580368" stroke-linecap="round" stroke-linejoin="round"/>
<path d="M286.904 192.213L293.983 212.603L283.707 236.238" stroke="#696969" stroke-width="0.580368" stroke-miterlimit="10"/>
<path d="M285.473 188.084L286.2 190.187" stroke="#696969" stroke-width="0.580368" stroke-miterlimit="10"/>
<path d="M307.732 152.321C307.732 152.321 311.206 149.056 311.918 148.659C312.629 148.261 315.46 147.408 315.664 146.435C315.868 145.462 315.596 140.679 315.319 140.883C315.041 141.087 311.363 146.299 311.363 146.299L306.57 150.05L307.732 152.321Z" fill="white" stroke="#263238" stroke-width="0.580368" stroke-miterlimit="10"/>
<path d="M312.669 144.754L312.25 147.946" stroke="#263238" stroke-width="0.580368" stroke-miterlimit="10"/>
<path d="M313.773 143.085L313.915 146.978" stroke="#263238" stroke-width="0.580368" stroke-miterlimit="10"/>
<path d="M314.901 141.767C314.901 141.767 314.833 145.864 314.901 146.282V141.767Z" fill="white"/>
<path d="M314.901 141.767C314.901 141.767 314.833 145.864 314.901 146.282" stroke="#263238" stroke-width="0.580368" stroke-miterlimit="10"/>
<path d="M315.854 145.31C315.854 145.31 317.036 143.85 316.759 142.882C316.682 142.602 316.542 142.343 316.348 142.126C316.155 141.909 315.914 141.74 315.645 141.632L315.854 145.31Z" fill="white" stroke="#263238" stroke-width="0.580368" stroke-miterlimit="10"/>
<path d="M307.318 148.575C307.527 148.711 309.191 151.28 309.191 151.28L307.098 154.059C307.098 154.059 308.144 156.005 307.517 156.492C306.889 156.978 301.682 159.683 301.682 159.683L299.945 152.672C299.945 152.672 303.833 150.239 304.042 150.312C304.248 150.419 304.435 150.559 304.597 150.726L307.318 148.575Z" fill="#FF7900" stroke="#263238" stroke-width="0.580368" stroke-miterlimit="10"/>
<path d="M309.531 147.639L310.253 148.136L317.903 137.19L317.181 136.688L309.531 147.639Z" fill="#263238" stroke="#263238" stroke-width="0.580368" stroke-miterlimit="10"/>
<path d="M287.765 127.483C287.336 127.693 281.271 135.039 279.032 137.911C276.792 140.784 277.012 145.472 277.117 148.026C277.221 150.579 276.07 169.53 276.07 169.53C276.07 169.53 285.332 168.787 290.867 168.254C296.403 167.72 304.278 167.207 304.278 167.207C304.278 167.207 302.044 157.418 300.981 153.049C299.919 148.68 298.214 142.406 297.042 139.445C296.232 137.455 295.27 135.53 294.164 133.689L287.765 127.483Z" fill="#FF7900" stroke="#263238" stroke-width="0.580368" stroke-miterlimit="10"/>
<path d="M299.045 127.803L295.639 131.633L290.406 125.035L293.493 121.414C293.493 121.414 295.304 119.499 296.371 119.708C297.439 119.918 299.045 127.803 299.045 127.803Z" fill="white" stroke="#263238" stroke-width="0.580368" stroke-miterlimit="10"/>
<path d="M295.43 123.862L297.507 129.654L299.045 127.802L295.43 123.862Z" fill="#263238" stroke="#263238" stroke-width="0.580368" stroke-miterlimit="10"/>
<path d="M295.017 121.309C295.017 121.309 293.741 123.328 292.679 122.905C291.616 122.481 288.739 119.388 287.446 115.579C286.154 111.77 290.853 111.106 291.596 109.62C292.339 108.134 292.982 107.914 294.044 102.697C295.106 97.4807 307.031 99.5056 308.841 102.274C310.652 105.041 310.333 110.577 315.335 108.767C320.337 106.956 325.768 105.041 326.94 109.51C328.112 113.978 324.277 119.409 325.663 121.33C327.05 123.25 331.518 121.853 331.199 123.669C330.88 125.484 328.536 126.651 329.279 127.075C330.022 127.499 334.176 125.374 333.004 127.289C331.832 129.204 329.389 131.229 329.069 130.376C328.75 129.524 329.07 128.461 327.897 129.1C326.725 129.738 323.188 132.291 321.723 130.91C320.258 129.529 322.147 124.521 319.698 123.988C317.25 123.454 311.29 125.16 309.265 125.264C307.24 125.369 307.031 124.741 303.305 122.926C299.58 121.11 295.017 121.309 295.017 121.309Z" fill="#263238" stroke="#263238" stroke-width="0.580368" stroke-miterlimit="10"/>
<path d="M295.854 118.31C295.854 118.31 302.132 118.629 306.177 117.562C308.027 117.13 309.842 116.562 311.608 115.861C311.608 115.861 311.713 120.011 310.651 121.183C309.589 122.355 308.202 123.417 308.202 124.27C308.202 125.123 309.248 126.504 308.626 127.252C308.003 128 306.496 127.995 306.072 127.995C305.649 127.995 302.242 131.192 301.285 131.192C300.327 131.192 295.529 124.803 295.43 123.867C295.372 122.732 295.372 121.595 295.43 120.461" fill="white"/>
<path d="M295.854 118.31C295.854 118.31 302.132 118.629 306.177 117.562C308.027 117.13 309.842 116.562 311.608 115.861C311.608 115.861 311.713 120.011 310.651 121.183C309.589 122.355 308.202 123.417 308.202 124.27C308.202 125.123 309.248 126.504 308.626 127.252C308.003 128 306.496 127.995 306.072 127.995C305.649 127.995 302.242 131.192 301.285 131.192C300.327 131.192 295.529 124.803 295.43 123.867C295.372 122.732 295.372 121.595 295.43 120.461" stroke="#263238" stroke-width="0.580368" stroke-miterlimit="10"/>
<path d="M307.049 122.052L305.877 123.433C305.508 123.377 305.162 123.218 304.88 122.973C304.597 122.729 304.39 122.409 304.281 122.052" stroke="#263238" stroke-width="0.580368" stroke-miterlimit="10"/>
<path d="M303.088 125.243C303.088 125.243 302.983 126.949 304.37 127.163" stroke="#263238" stroke-width="0.580368" stroke-miterlimit="10"/>
<path d="M305.754 120.242C305.754 120.242 307.669 119.604 308.522 121.2" stroke="#263238" stroke-width="0.580368" stroke-miterlimit="10"/>
<path d="M297.453 119.923C297.453 119.923 295.884 115.213 294.366 116.94C292.849 118.667 293.728 121.649 294.89 122.267C295.233 122.451 295.617 122.547 296.007 122.547C296.396 122.547 296.78 122.451 297.124 122.267" fill="white"/>
<path d="M297.453 119.923C297.453 119.923 295.884 115.213 294.366 116.94C292.849 118.667 293.728 121.649 294.89 122.267C295.233 122.451 295.617 122.547 296.007 122.547C296.396 122.547 296.78 122.451 297.124 122.267" stroke="#263238" stroke-width="0.580368" stroke-miterlimit="10"/>
<path d="M290.828 123.328C290.828 123.328 297.85 130.25 297.63 131.208C297.41 132.165 296.243 132.777 296.243 132.777C296.243 132.777 296.562 134.692 296.034 135.116C295.689 135.378 295.288 135.557 294.862 135.639C294.862 135.639 288.212 128.775 287.333 127.692C286.453 126.608 287.123 126.096 287.652 125.881C288.032 125.741 288.425 125.634 288.824 125.562C288.824 125.562 289.572 123.019 290.828 123.328Z" fill="#FF7900" stroke="#263238" stroke-width="0.580368" stroke-miterlimit="10"/>
<path d="M280.663 138.796C280.254 141.271 280.033 143.774 280.004 146.283C280.004 150.024 281.542 168.411 282.317 169.405C283.091 170.399 286.168 171.273 287.491 170.394C288.815 169.515 300.263 162.137 300.373 160.923C300.483 159.709 298.61 155.309 297.841 154.979C297.072 154.65 296.407 154.759 295.308 155.748C294.055 156.722 292.733 157.605 291.353 158.391C291.353 158.391 290.584 144.3 289.705 140.883C288.826 137.467 288.381 136.813 287.831 136.593" fill="#FF7900"/>
<path d="M280.663 138.796C280.254 141.271 280.033 143.774 280.004 146.283C280.004 150.024 281.542 168.411 282.317 169.405C283.091 170.399 286.168 171.273 287.491 170.394C288.815 169.515 300.263 162.137 300.373 160.923C300.483 159.709 298.61 155.309 297.841 154.979C297.072 154.65 296.407 154.759 295.308 155.748C294.055 156.722 292.733 157.605 291.353 158.391C291.353 158.391 290.584 144.3 289.705 140.883C288.826 137.467 288.381 136.813 287.831 136.593" stroke="#263238" stroke-width="0.580368" stroke-miterlimit="10"/>
<path d="M300.965 153.026C300.965 153.026 304.104 145.508 304.334 144.958C304.565 144.409 305.329 143.524 305.988 143.415C306.647 143.305 311.712 142.206 312.152 142.096C312.591 141.986 312.926 142.536 311.712 143.305C310.498 144.074 307.526 144.409 307.526 144.409L307.081 147.71C307.081 147.71 310.059 145.398 310.059 146.612C310.059 147.825 307.856 148.589 307.526 148.704C307.197 148.82 306.318 150.227 306.004 150.463C305.498 150.694 304.973 150.878 304.434 151.012C304.434 151.012 304.214 152.336 303.775 152.775C303.335 153.215 301.352 154.648 301.352 154.648L300.965 153.026Z" fill="white" stroke="#263238" stroke-width="0.580368" stroke-miterlimit="10"/>
<path d="M304.332 144.958C304.332 144.958 305.609 143.389 305.797 143.389C306.698 144.025 307.559 144.715 308.377 145.455C308.534 145.607 307.55 147.208 307.398 147.465C307.246 147.721 307.189 147.93 306.776 147.779C306.496 147.663 306.235 147.506 306.001 147.313" fill="white"/>
<path d="M304.332 144.958C304.332 144.958 305.609 143.389 305.797 143.389C306.698 144.025 307.559 144.715 308.377 145.455C308.534 145.607 307.55 147.208 307.398 147.465C307.246 147.721 307.189 147.93 306.776 147.779C306.496 147.663 306.235 147.506 306.001 147.313" stroke="#263238" stroke-width="0.580368" stroke-miterlimit="10"/>
<path d="M303.996 146.24C303.996 146.24 305.388 144.67 305.592 144.67C305.796 144.67 307.554 146.062 307.554 146.318C307.554 146.574 307.245 148.128 306.989 148.181C306.625 148.183 306.262 148.148 305.906 148.076" fill="white"/>
<path d="M303.996 146.24C303.996 146.24 305.388 144.67 305.592 144.67C305.796 144.67 307.554 146.062 307.554 146.318C307.554 146.574 307.245 148.128 306.989 148.181C306.625 148.183 306.262 148.148 305.906 148.076" stroke="#263238" stroke-width="0.580368" stroke-miterlimit="10"/>
<path d="M303.941 147.737C304.313 147.331 304.729 146.967 305.181 146.654C305.59 146.445 306.521 147.324 307.086 147.7C307.651 148.077 308.326 148.292 308.017 148.653C307.709 149.014 306.521 148.501 306.265 148.501C305.978 148.454 305.7 148.365 305.438 148.239L304.768 150.254" fill="white"/>
<path d="M303.941 147.737C304.313 147.331 304.729 146.967 305.181 146.654C305.59 146.445 306.521 147.324 307.086 147.7C307.651 148.077 308.326 148.292 308.017 148.653C307.709 149.014 306.521 148.501 306.265 148.501C305.978 148.454 305.7 148.365 305.438 148.239L304.768 150.254" stroke="#263238" stroke-width="0.580368" stroke-miterlimit="10"/>
<path d="M297.293 155.308L301.144 152.227L302.907 155.528L299.6 158.94C299.6 158.94 297.293 158.5 297.293 155.308Z" fill="#FF7900" stroke="#263238" stroke-width="0.580368" stroke-miterlimit="10"/>
<path d="M70.018 246.008C68.4394 245.511 66.963 244.735 65.6594 243.716C63.9171 242.214 58.4127 238.133 56.822 237.086C55.2314 236.04 55.425 240.875 55.9639 243.365C56.3998 245.517 57.3135 247.543 58.6377 249.294C59.6423 250.486 66.1984 252.956 66.9309 253.124C67.6634 253.291 70.5935 253.343 71.19 253.061C71.7865 252.778 70.5412 248.074 70.018 246.008Z" fill="white" stroke="#263238" stroke-width="0.580368" stroke-miterlimit="10"/>
<path d="M58.9761 247.258C57.443 245.291 56.3599 239.258 56.3128 236.945C55.2664 237.191 55.4966 241.183 55.9675 243.381C56.4033 245.533 57.3171 247.558 58.6412 249.309C59.6458 250.502 66.2019 252.972 66.9345 253.139C67.9247 253.27 68.9248 253.308 69.9221 253.254C66.3589 252.004 60.5196 249.236 58.9761 247.258Z" fill="white" stroke="#263238" stroke-width="0.580368" stroke-miterlimit="10"/>
<path d="M141.55 210.156C141.55 210.156 139.74 213.51 138.824 215.456C137.908 217.403 137.123 218.805 137.123 218.805C137.123 218.805 136.25 217.099 135.585 217.418C135.121 217.627 134.637 217.786 134.141 217.895C134.141 217.895 133.314 214.933 132.048 213.379C130.782 211.825 129.709 212.573 128.537 211.537C126.878 210.072 126.209 209.633 125.099 208.743C123.734 207.65 121.646 212.28 121.609 214.028C121.573 215.776 130.525 226.758 132.76 229.762C134.994 232.765 137.249 234.654 138.704 232.828C140.158 231.002 140.849 229.264 141.948 223.409C143.046 217.555 145.731 208.602 141.55 210.156Z" fill="#FF7900" stroke="#263238" stroke-width="0.580368" stroke-miterlimit="10"/>
<path d="M125.082 208.744L121.017 205.693C120.577 204.83 119.693 203.035 119.212 201.785C118.552 200.084 118.265 199.001 116.752 197.819C115.24 196.636 111.661 195.202 111.206 194.716C110.751 194.229 110.568 196.087 111.395 196.95C111.763 197.397 112.228 197.755 112.755 197.996C112.755 197.996 106.858 197.264 106.848 197.724C106.837 198.185 111.86 204.526 113.676 205.997C114.435 206.625 116.13 207.216 117.093 207.906C117.568 208.247 118.006 208.637 118.401 209.068C118.176 209.194 118.102 209.188 118.076 209.173C118.286 209.466 121.409 213.924 122.367 213.73C123.324 213.536 126.526 213.249 125.082 208.744Z" fill="white" stroke="#263238" stroke-width="0.580368" stroke-miterlimit="10"/>
<path d="M107.015 190.691L106.379 191.124L114.547 203.116L115.183 202.683L107.015 190.691Z" fill="#263238" stroke="#263238" stroke-width="0.580368" stroke-miterlimit="10"/>
<path d="M108.681 194.521C108.681 194.521 105.541 197.911 105.918 198.225C106.295 198.539 107.488 199.716 107.812 199.57C108.137 199.423 109.79 196.692 109.874 196.383C109.957 196.075 108.681 194.521 108.681 194.521Z" fill="white" stroke="#263238" stroke-width="0.580368" stroke-miterlimit="10"/>
<path d="M110.251 196.798C110.251 196.798 107.876 200.283 108.101 200.597C108.326 200.91 111.329 204.421 111.706 204.657C112.083 204.892 114.202 202.862 114.202 202.862L110.251 196.798Z" fill="white" stroke="#263238" stroke-width="0.580368" stroke-miterlimit="10"/>
<path d="M111.521 198.797C111.521 198.797 109.302 202.287 109.532 202.292" stroke="#263238" stroke-width="0.580368" stroke-miterlimit="10"/>
<path d="M113.007 201.21L110.961 203.627" stroke="#263238" stroke-width="0.580368" stroke-miterlimit="10"/>
<path d="M112.758 197.98L114.662 198.859C114.662 198.859 114.186 203.537 116.755 205.138" fill="white"/>
<path d="M112.758 197.98L114.662 198.859C114.662 198.859 114.186 203.537 116.755 205.138" stroke="#263238" stroke-width="0.580368" stroke-miterlimit="10"/>
<path d="M139.833 234.601C139.833 234.601 121.321 212.494 119.312 210.119C117.303 207.743 112.772 206.759 110.114 207.586C107.456 208.413 104.222 215.843 103.579 218.914C102.935 221.986 97.6765 235.244 96.7765 236.987C95.8766 238.729 94.5057 240.613 94.49 241.35C94.4743 242.088 94.4639 242.669 94.4639 242.669L93.543 244.704C93.543 244.704 97.7916 245.228 99.5602 244.971C101.329 244.715 103.861 242.706 104.322 241.685C104.782 240.665 106.08 238.153 107.644 237.055C109.873 235.485 113.75 224.984 113.75 224.984L121.075 240.989C121.075 240.989 135.569 243.035 138.808 242.659C142.047 242.282 139.833 234.601 139.833 234.601Z" fill="#263238" stroke="#263238" stroke-width="0.580368" stroke-miterlimit="10"/>
<path d="M139.136 232.827C139.136 232.827 136.876 235.715 136.865 236.307V236.893L124.496 238.133C124.496 238.133 111.724 237.882 109.809 238.284C107.894 238.687 80.1416 246.075 78.3731 246.337C76.6046 246.599 75.7569 245.107 75.0244 245.092C74.2919 245.076 73.5646 244.474 72.539 244.453C71.5135 244.432 70.6031 245.887 70.0118 246.023C69.6311 246.164 69.2335 246.253 68.8293 246.29C68.3898 246.29 68.7037 245.243 68.3898 246.29C68.0759 247.336 67.2858 250.23 67.9921 251.564C68.4476 252.395 69.0865 253.11 69.8601 253.657C69.8601 253.657 93.6515 253.683 97.5915 253.762C101.531 253.84 113.765 252.762 115.235 252.642C116.705 252.522 137.969 253.819 141.344 253.887C144.719 253.955 155.885 253.887 157.816 252.741C159.746 251.596 162.221 245.191 161.829 242.69C161.436 240.189 141.02 233.031 141.02 233.031L139.136 232.827Z" fill="#263238" stroke="#263238" stroke-width="0.580368" stroke-miterlimit="10"/>
<path d="M138.29 230.755C138.081 231.265 138.02 231.824 138.112 232.367C138.238 233.413 161.223 244.401 161.966 243.993C162.709 243.585 163.233 239.316 163.233 239.316L138.316 229.432L138.29 230.755Z" fill="#FF7900" stroke="#263238" stroke-width="0.580368" stroke-miterlimit="10"/>
<path d="M148.086 195.559C148.086 195.559 143.864 201.351 142.304 205.872C140.745 210.393 138.239 225.907 137.323 227.801C136.407 229.695 136.381 230.867 137.695 231.186C139.008 231.505 151.534 237.036 155.757 238.731C159.979 240.426 163.767 241.975 164.406 239.343C165.044 236.712 165.081 235.1 165.007 231.134C164.934 227.168 164.866 208.514 164.531 203.078C164.196 197.642 161.287 188.768 157.468 188.987C153.648 189.207 148.086 195.559 148.086 195.559Z" fill="#FF7900" stroke="#263238" stroke-width="0.580368" stroke-miterlimit="10"/>
<path d="M156.087 175.172C155.637 171.981 154.11 169.375 151.499 167.742C151.911 167.281 152.471 166.977 153.082 166.882C153.694 166.786 154.319 166.906 154.853 167.219C154.853 167.219 155.203 165.974 154.188 165.54C153.89 165.424 153.567 165.385 153.249 165.427C152.932 165.469 152.63 165.591 152.372 165.78C152.372 165.78 152.545 164.111 153.675 163.3C154.805 162.489 157.008 163.645 157.008 163.645C157.008 163.645 156.537 159.318 153.738 160.098C150.939 160.878 151.31 163.237 151.31 163.237C151.31 163.237 150.787 161.28 149.123 161.108C147.459 160.935 146.177 162.301 146.177 162.301C146.177 162.301 147.595 161.076 149.087 163.195C149.48 163.703 149.741 164.301 149.845 164.935C149.949 165.57 149.894 166.22 149.683 166.827C149.24 166.653 148.787 166.505 148.328 166.382C144.393 165.335 139.904 166.466 137.989 168.381C136.458 168.758 135.022 169.449 133.771 170.411C131.679 172.185 133.635 174.633 133.923 174.968L134.08 175.847C134.278 177.63 134.57 179.401 134.954 181.153C135.346 182.414 136.032 182.843 136 183.539C135.969 184.235 134.823 186.72 135.639 187.568C136.456 188.415 137.162 188.159 137.162 188.159C137.162 188.159 140.369 194.903 141.772 194.37C143.174 193.836 145.586 191.382 145.586 191.382L148.752 193.396L154.586 186.966L153.539 184.161C153.539 184.161 156.7 179.499 156.087 175.172Z" fill="white" stroke="#263238" stroke-width="0.580368" stroke-miterlimit="10"/>
<path d="M136.524 174.869C138.219 174.063 142.557 173.069 141.814 174.372C141.071 175.675 140.903 177.956 141.856 178.213C142.808 178.469 144.827 179.829 145.518 180.306C146.209 180.782 147.088 180.457 147.088 179.735C147.088 179.013 147.852 177.59 149.395 178.338C150.939 179.086 151.033 180.531 150.641 182.205C150.432 183.171 149.856 184.019 149.034 184.57C149.034 184.57 150.876 186.051 153.712 184.633L153.529 184.151C153.529 184.151 156.668 179.479 156.072 175.152C155.622 171.96 154.094 169.354 151.483 167.722C151.896 167.261 152.455 166.957 153.067 166.861C153.678 166.766 154.303 166.885 154.837 167.199C154.837 167.199 155.187 165.953 154.172 165.519C153.874 165.403 153.551 165.365 153.234 165.407C152.916 165.449 152.615 165.57 152.357 165.76C152.357 165.76 152.529 164.091 153.66 163.28C154.79 162.469 156.993 163.625 156.993 163.625C156.993 163.625 156.522 159.298 153.722 160.077C150.923 160.857 151.295 163.217 151.295 163.217C151.295 163.217 150.771 161.26 149.108 161.087C147.444 160.915 146.162 162.28 146.162 162.28C146.162 162.28 147.58 161.056 149.071 163.175C149.465 163.683 149.725 164.281 149.83 164.915C149.934 165.549 149.878 166.199 149.667 166.806C149.224 166.633 148.772 166.484 148.312 166.361C144.378 165.315 139.888 166.445 137.973 168.36C136.442 168.738 135.006 169.429 133.756 170.39C131.663 172.164 133.62 174.613 133.908 174.948C133.923 174.979 134.829 175.675 136.524 174.869Z" fill="#263238" stroke="#263238" stroke-width="0.580368" stroke-miterlimit="10"/>
<path d="M137.844 181.134L137.812 182.703C138.331 182.841 138.875 182.853 139.399 182.738C139.923 182.624 140.413 182.386 140.826 182.044" stroke="#263238" stroke-width="0.580368" stroke-miterlimit="10"/>
<path d="M136.066 179.663C136.476 179.156 137.053 178.812 137.694 178.692C138.334 178.572 138.996 178.685 139.562 179.009" stroke="#263238" stroke-width="0.580368" stroke-miterlimit="10"/>
<path d="M139.137 188.357C139.137 188.357 141.177 188.279 142.423 185.903" stroke="#263238" stroke-width="0.580368" stroke-miterlimit="10"/>
<path d="M142.809 191.069C141.595 191.644 140.067 190.054 139.35 189.923C138.769 189.813 138.869 190.969 138.931 191.419C139.915 193.062 141.082 194.653 141.794 194.381C143.196 193.858 145.608 191.393 145.608 191.393L145.718 191.466C146.041 190.926 146.244 190.323 146.314 189.698C146.33 188.74 144.017 190.519 142.809 191.069Z" fill="#263238" stroke="#263238" stroke-width="0.580368" stroke-miterlimit="10"/>
<path d="M160.762 185.528C160.762 185.528 156.383 184.121 153.835 186.862C151.286 189.604 144.369 197.688 145.84 197.72C147.31 197.751 149.884 193.685 152.846 192.419C155.807 191.153 157.555 191.195 158.554 193.267C159.554 195.339 162.955 208.624 164.31 206.301C165.665 203.977 168.114 199.331 166.879 194.899C165.644 190.468 162.212 186.439 160.762 185.528Z" fill="white" stroke="#263238" stroke-width="0.580368" stroke-miterlimit="10"/>
<path d="M149.586 201.313C149.586 201.313 145.924 207.702 145.573 211.218C145.223 214.734 144.045 229.401 144.045 229.401C144.045 229.401 142.596 228.49 141.843 229.354C141.089 230.217 140.613 232.121 140.613 232.121C140.613 232.121 138.572 231.494 138.112 232.367C137.849 232.875 137.544 233.359 137.202 233.817L124.492 238.133C124.492 238.133 144.584 239.264 146.201 239.148C147.188 239.069 148.124 238.675 148.87 238.024C148.87 238.024 150.167 239.07 152.386 238.238C154.604 237.406 155.363 236.391 155.98 234.638C156.598 232.885 159.517 211.511 159.517 211.511" fill="#FF7900"/>
<path d="M149.586 201.313C149.586 201.313 145.924 207.702 145.573 211.218C145.223 214.734 144.045 229.401 144.045 229.401C144.045 229.401 142.596 228.49 141.843 229.354C141.089 230.217 140.613 232.121 140.613 232.121C140.613 232.121 138.572 231.494 138.112 232.367C137.849 232.875 137.544 233.359 137.202 233.817L124.492 238.133C124.492 238.133 144.584 239.264 146.201 239.148C147.188 239.069 148.124 238.675 148.87 238.024C148.87 238.024 150.167 239.07 152.386 238.238C154.604 237.406 155.363 236.391 155.98 234.638C156.598 232.885 159.517 211.511 159.517 211.511" stroke="#263238" stroke-width="0.580368" stroke-miterlimit="10"/>
<path d="M124.492 238.133C124.492 238.133 130.598 238.479 136.349 238.766C135.517 237.411 135.904 235.454 136.349 234.12L124.492 238.133Z" fill="white" stroke="#263238" stroke-width="0.580368" stroke-miterlimit="10"/>
<path d="M52.2305 253.253H324.464" stroke="#263238" stroke-width="0.580368" stroke-miterlimit="10"/>
</svg>
