<svg width="200" height="149" viewBox="0 0 200 149" fill="none" xmlns="http://www.w3.org/2000/svg">
    <path d="M179.959 137.396H166.711V137.496H179.959V137.396Z" fill="#EBEBEB"/>
    <path d="M132.488 138.484H129.012V138.584H132.488V138.484Z" fill="#EBEBEB"/>
    <path d="M166.311 133.684H158.635V133.784H166.311V133.684Z" fill="#EBEBEB"/>
    <path d="M38.2604 134.356H20.9844V134.456H38.2604V134.356Z" fill="#EBEBEB"/>
    <path d="M44.3562 134.356H41.8242V134.456H44.3562V134.356Z" fill="#EBEBEB"/>
    <path d="M90.0599 136.044H52.5879V136.144H90.0599V136.044Z" fill="#EBEBEB"/>
    <path d="M95.3599 113.12H18.1199C17.5142 113.12 16.9332 112.879 16.5049 112.451C16.0766 112.023 15.8359 111.442 15.8359 110.836V2.264C15.8412 1.66172 16.0842 1.0859 16.5119 0.661882C16.9397 0.237865 17.5176 -2.30904e-05 18.1199 1.68102e-09H95.3599C95.6599 1.68102e-09 95.9569 0.0590769 96.234 0.173859C96.5111 0.28864 96.7629 0.456879 96.975 0.668968C97.1871 0.881057 97.3553 1.13284 97.4701 1.40995C97.5849 1.68706 97.6439 1.98406 97.6439 2.284V110.836C97.6439 111.136 97.5849 111.433 97.4701 111.71C97.3553 111.987 97.1871 112.239 96.975 112.451C96.7629 112.663 96.5111 112.831 96.234 112.946C95.9569 113.061 95.6599 113.12 95.3599 113.12ZM18.1199 0.0800003C17.541 0.0810577 16.9861 0.311496 16.5768 0.720847C16.1674 1.1302 15.937 1.68509 15.9359 2.264V110.836C15.937 111.415 16.1674 111.97 16.5768 112.379C16.9861 112.789 17.541 113.019 18.1199 113.02H95.3599C95.9389 113.019 96.4938 112.789 96.9031 112.379C97.3125 111.97 97.5429 111.415 97.5439 110.836V2.264C97.5429 1.68509 97.3125 1.1302 96.9031 0.720847C96.4938 0.311496 95.9389 0.0810577 95.3599 0.0800003H18.1199Z" fill="#EBEBEB"/>
    <path d="M181.881 113.12H104.641C104.036 113.12 103.455 112.879 103.026 112.451C102.598 112.023 102.357 111.442 102.357 110.836V2.264C102.363 1.66172 102.606 1.0859 103.033 0.661882C103.461 0.237865 104.039 -2.30904e-05 104.641 1.68102e-09H181.881C182.487 1.68102e-09 183.068 0.240635 183.496 0.668968C183.925 1.0973 184.165 1.67825 184.165 2.284V110.836C184.165 111.442 183.925 112.023 183.496 112.451C183.068 112.879 182.487 113.12 181.881 113.12ZM104.641 0.0800003C104.063 0.0810577 103.508 0.311496 103.098 0.720847C102.689 1.1302 102.458 1.68509 102.457 2.264V110.836C102.458 111.415 102.689 111.97 103.098 112.379C103.508 112.789 104.063 113.019 104.641 113.02H181.881C182.46 113.019 183.015 112.789 183.425 112.379C183.834 111.97 184.064 111.415 184.065 110.836V2.264C184.064 1.68509 183.834 1.1302 183.425 0.720847C183.015 0.311496 182.46 0.0810577 181.881 0.0800003H104.641Z" fill="#EBEBEB"/>
    <path d="M200 130.96H0V131.06H200V130.96Z" fill="#EBEBEB"/>
    <path d="M178.904 15.748H114.088V130.956H178.904V15.748Z" fill="#FAFAFA"/>
    <path d="M175.365 25.3359H118.885V130.956H175.365V25.3359Z" fill="#EBEBEB"/>
    <path d="M174.013 27.4199H147.441V128.872H174.013V27.4199Z" fill="#FAFAFA"/>
    <path d="M146.812 27.624H120.24V129.076H146.812V27.624Z" fill="#FAFAFA"/>
    <path d="M150.98 18.46H142.432V21.376H150.98V18.46Z" fill="#F0F0F0"/>
    <path d="M85.9117 15.748H21.0957V130.956H85.9117V15.748Z" fill="#FAFAFA"/>
    <path d="M82.3667 25.3359H25.8867V130.956H82.3667V25.3359Z" fill="#EBEBEB"/>
    <path d="M81.0154 27.4199H54.4434V128.872H81.0154V27.4199Z" fill="#FAFAFA"/>
    <path d="M53.8161 27.624H27.2441V129.076H53.8161V27.624Z" fill="#FAFAFA"/>
    <path d="M57.9836 18.46H49.4355V21.376H57.9836V18.46Z" fill="#F0F0F0"/>
    <path d="M103.848 54.2158H96.1562V69.0318H103.848V54.2158Z" fill="#E6E6E6"/>
    <path d="M100.084 57.3521C100.558 57.3521 101.022 57.4928 101.417 57.7565C101.812 58.0202 102.119 58.3951 102.301 58.8336C102.483 59.2721 102.53 59.7547 102.437 60.2203C102.345 60.6858 102.116 61.1135 101.781 61.4491C101.445 61.7847 101.017 62.0133 100.552 62.1059C100.086 62.1985 99.6037 62.151 99.1651 61.9694C98.7266 61.7877 98.3518 61.4801 98.0881 61.0854C97.8243 60.6907 97.6836 60.2267 97.6836 59.7521C97.6836 59.1155 97.9364 58.5051 98.3865 58.055C98.8366 57.6049 99.4471 57.3521 100.084 57.3521Z" fill="#F5F5F5"/>
    <path d="M101.371 60.1478H98.7988L100.127 58.3398L101.371 60.1478Z" fill="#E6E6E6"/>
    <path d="M100.084 62.4722C100.558 62.4722 101.022 62.6129 101.417 62.8766C101.812 63.1404 102.119 63.5152 102.301 63.9537C102.483 64.3923 102.53 64.8748 102.437 65.3404C102.345 65.8059 102.116 66.2336 101.781 66.5692C101.445 66.9049 101.017 67.1335 100.552 67.2261C100.086 67.3187 99.6037 67.2711 99.1651 67.0895C98.7266 66.9078 98.3518 66.6002 98.0881 66.2055C97.8243 65.8109 97.6836 65.3468 97.6836 64.8722C97.6836 64.2356 97.9364 63.6252 98.3865 63.1751C98.8366 62.725 99.4471 62.4722 100.084 62.4722Z" fill="#F5F5F5"/>
    <path d="M101.371 64.2559H98.7988L100.127 66.0679L101.371 64.2559Z" fill="#E6E6E6"/>
    <path d="M101.481 91.356C101.957 90.156 103.045 89.484 104.033 89.756C105.021 90.028 105.829 91.208 105.929 92.556C106.246 92.2373 106.673 92.0516 107.123 92.0367C107.573 92.0218 108.011 92.1789 108.349 92.476C108.732 92.8583 109.02 93.3254 109.19 93.8396C109.359 94.3538 109.406 94.9006 109.325 95.436C110.125 94.636 111.401 94.964 111.909 96.104C112.417 97.244 112.025 98.904 111.109 99.464C111.725 99.52 112.249 100.296 112.233 101.12C112.217 101.944 111.661 102.684 111.033 102.696C111.657 102.696 112.233 103.408 112.305 104.232C112.377 105.056 111.949 105.92 111.345 106.136C111.977 106.492 112.145 107.808 111.625 108.412C111.105 109.016 110.153 108.636 109.973 107.748C109.959 107.804 109.929 107.856 109.887 107.896C109.845 107.936 109.793 107.963 109.736 107.975C109.679 107.987 109.62 107.982 109.566 107.962C109.511 107.942 109.464 107.906 109.429 107.86C109.359 107.746 109.331 107.611 109.35 107.479C109.369 107.347 109.434 107.226 109.533 107.136C109.245 107.644 108.521 107.408 108.441 106.784C108.653 108.232 107.285 109.584 106.309 108.912C106.423 109.215 106.422 109.55 106.305 109.852C106.189 110.155 105.965 110.404 105.677 110.552C105.161 110.74 104.617 110.472 104.137 110.172C103.657 109.872 103.157 109.516 102.625 109.524C102.149 109.603 101.692 109.766 101.273 110.004C99.8488 110.58 98.2048 110.028 97.1488 108.624C96.4088 109.88 94.6568 109.544 94.2128 108.06C94.1008 108.772 93.6008 109.34 93.0568 109.38C92.5128 109.42 91.9728 108.932 91.8008 108.24L91.7648 109.192C90.7408 109.5 89.7288 107.824 90.1648 106.548C89.4328 106.548 88.7408 105.748 88.6448 104.792C88.5488 103.836 89.0448 102.812 89.7768 102.576C88.5768 102.148 87.6488 100.576 87.6368 98.896C87.6248 97.216 88.5208 95.616 89.7168 95.156C89.9474 95.0435 90.2075 95.0065 90.4603 95.0503C90.7131 95.0941 90.9456 95.2164 91.1248 95.4C91.5008 95.82 91.5528 96.748 91.1248 97.088C90.7648 95.588 91.3008 93.796 92.3248 93.048C93.3488 92.3 94.7768 92.688 95.5248 93.916C95.3492 93.5702 95.2576 93.1878 95.2576 92.8C95.2576 92.4121 95.3492 92.0298 95.5248 91.684C95.6515 91.3856 95.8893 91.1481 96.1879 91.022C96.4866 90.8958 96.8226 90.8908 97.1248 91.008C97.2648 89.98 98.0768 89.2 98.8488 89.352C99.6208 89.504 100.229 90.552 100.145 91.6C100.233 90.732 101.301 90.476 101.609 91.248C102.045 91.076 101.481 91.356 101.481 91.356Z" fill="#EBEBEB"/>
    <path d="M101.201 101.02C101.342 100.88 101.515 100.776 101.705 100.719C101.896 100.661 102.097 100.65 102.293 100.688C102.501 100.753 102.687 100.876 102.829 101.042C102.971 101.208 103.062 101.412 103.093 101.628C103.142 101.85 103.117 102.082 103.02 102.289C102.924 102.495 102.763 102.663 102.561 102.768C102.105 102.908 101.649 102.432 101.185 102.516C101.02 102.565 100.86 102.627 100.705 102.7C100.041 102.924 99.3806 102.372 98.8246 101.852C98.6157 101.672 98.4385 101.459 98.3006 101.22C98.2307 101.086 98.1896 100.939 98.1799 100.788C98.1703 100.637 98.1923 100.486 98.2446 100.344C98.3327 100.189 98.4704 100.067 98.6357 99.9989C98.801 99.9307 98.9844 99.9199 99.1566 99.9682C99.8636 100.086 100.513 100.43 101.009 100.948C101.009 100.816 100.977 100.684 100.957 100.548L101.201 101.02Z" fill="#FAFAFA"/>
    <path d="M91.5031 100.296C91.6667 100.122 91.8659 99.9859 92.0871 99.8961C92.1964 99.8593 92.3149 99.8602 92.4237 99.8986C92.5324 99.937 92.6252 100.011 92.6871 100.108C92.7666 100.274 92.7932 100.46 92.7631 100.641C92.733 100.822 92.6478 100.989 92.5191 101.12C92.2818 101.328 91.985 101.455 91.6711 101.484C91.3631 101.548 90.9751 101.56 90.8231 101.216C90.7779 101.085 90.7675 100.945 90.7927 100.809C90.818 100.673 90.878 100.546 90.9671 100.44C91.1344 100.267 91.3419 100.138 91.5711 100.064L91.5031 100.296Z" fill="#FAFAFA"/>
    <path d="M106.8 93.916C107.133 94.1172 107.417 94.3899 107.631 94.7144C107.846 95.0388 107.985 95.4069 108.04 95.792C108.084 96.04 108.076 96.356 107.904 96.488C107.839 96.5216 107.767 96.5392 107.694 96.5392C107.621 96.5392 107.549 96.5216 107.484 96.488L105.712 95.956C106.012 96.0787 106.284 96.2611 106.512 96.492C106.635 96.6306 106.726 96.7945 106.778 96.9721C106.831 97.1498 106.844 97.3368 106.816 97.52C106.78 97.7132 106.678 97.8881 106.528 98.0149C106.378 98.1418 106.189 98.2128 105.992 98.216C105.618 98.1747 105.272 98 105.016 97.724C104.839 97.5855 104.693 97.4121 104.586 97.2146C104.48 97.0171 104.415 96.7997 104.396 96.576C104.396 96.092 104.872 95.648 105.164 95.956C104.467 95.7123 103.821 95.3406 103.26 94.86C103.032 94.684 102.844 94.4618 102.708 94.208C102.636 94.0674 102.594 93.9135 102.584 93.7558C102.575 93.5982 102.598 93.4402 102.652 93.292C103.256 91.896 104.024 93.94 104.396 94.124C105.116 94.48 105.916 93.44 106.8 93.916Z" fill="#FAFAFA"/>
    <path d="M109.571 99.8683C109.607 100.001 109.611 100.14 109.584 100.275C109.557 100.409 109.499 100.536 109.415 100.644C109.374 100.688 109.322 100.719 109.264 100.735C109.207 100.752 109.146 100.752 109.088 100.737C109.03 100.722 108.977 100.692 108.935 100.649C108.893 100.607 108.862 100.554 108.847 100.496C109.279 100.62 109.654 100.888 109.911 101.256C110.159 101.68 110.099 102.416 109.703 102.58C109.573 102.608 109.438 102.603 109.31 102.567C109.182 102.531 109.064 102.464 108.967 102.372C108.314 101.916 107.701 101.405 107.135 100.844C107.169 100.965 107.178 101.091 107.162 101.215C107.145 101.339 107.103 101.458 107.039 101.565C106.974 101.672 106.889 101.765 106.787 101.838C106.685 101.911 106.57 101.962 106.447 101.988C105.983 101.968 105.544 101.773 105.215 101.444C104.751 101.088 104.219 100.54 104.339 99.8723C104.361 99.7476 104.41 99.6292 104.482 99.5253C104.555 99.4214 104.649 99.3344 104.758 99.2704C104.867 99.2065 104.989 99.1671 105.115 99.155C105.241 99.1429 105.368 99.1583 105.487 99.2003C105.952 99.4485 106.338 99.8228 106.599 100.28C106.552 100.167 106.528 100.044 106.53 99.9207C106.531 99.7973 106.558 99.6755 106.609 99.563C106.659 99.4504 106.733 99.3495 106.824 99.2665C106.915 99.1835 107.023 99.1201 107.139 99.0803C107.366 99.0758 107.59 99.1338 107.786 99.2482C107.983 99.3625 108.143 99.5286 108.251 99.7283C107.755 99.3843 107.647 98.4923 108.307 98.3883C108.735 98.3043 109.467 99.4123 109.571 99.8683Z" fill="#FAFAFA"/>
    <path d="M96.0325 97.8639C96.135 97.832 96.2434 97.8232 96.3498 97.8381C96.4562 97.853 96.558 97.8913 96.6478 97.9502C96.7377 98.009 96.8134 98.0871 96.8695 98.1787C96.9256 98.2703 96.9608 98.3732 96.9725 98.4799C97.0287 98.7042 97.0017 98.9413 96.8966 99.1472C96.7914 99.3532 96.6151 99.514 96.4005 99.5999C96.5547 99.6218 96.7022 99.6776 96.8322 99.7634C96.9623 99.8492 97.0717 99.9627 97.1525 100.096C97.2696 100.258 97.3262 100.456 97.3125 100.656C97.2971 100.79 97.2355 100.914 97.1385 101.008C97.0414 101.101 96.9148 101.158 96.7805 101.168C96.533 101.152 96.2948 101.067 96.0925 100.924C96.3397 100.926 96.5786 101.014 96.7685 101.172C96.8724 101.275 96.9391 101.409 96.958 101.554C96.9768 101.699 96.9467 101.846 96.8725 101.972C96.7984 102.044 96.7035 102.09 96.6015 102.104C96.4994 102.119 96.3955 102.1 96.3045 102.052C95.8508 101.882 95.4495 101.597 95.1405 101.224C95.0447 101.394 94.9023 101.533 94.73 101.624C94.5577 101.716 94.3629 101.756 94.1685 101.74C93.9663 101.674 93.7966 101.533 93.6935 101.347C93.5904 101.161 93.5615 100.943 93.6125 100.736C93.6474 100.595 93.7229 100.468 93.8296 100.37C93.9363 100.272 94.0694 100.207 94.2125 100.184C94.4788 100.164 94.7457 100.216 94.9845 100.336C94.6935 100.119 94.4769 99.8171 94.3645 99.4719C94.2725 99.0959 94.4725 98.5879 94.7845 98.6159C95.0965 98.6439 95.3165 99.2559 95.5845 99.4719C95.9205 99.0599 95.2805 98.2159 96.0325 97.8639Z" fill="#FAFAFA"/>
    <path d="M102.352 96.0001C102.752 96.3401 102.888 97.0161 102.864 97.6241C102.832 98.2961 102.588 99.0161 102.104 99.2841C101.46 99.6401 100.66 98.9641 100.544 98.0841C100.494 97.6702 100.556 97.2502 100.724 96.8686C100.892 96.487 101.161 96.158 101.5 95.9161C101.634 95.8424 101.787 95.8109 101.94 95.8259C102.092 95.8409 102.236 95.9017 102.352 96.0001Z" fill="#FAFAFA"/>
    <path d="M97.8756 95.2921L97.7076 95.4721C97.7644 95.3716 97.8446 95.2862 97.9413 95.2232C98.0381 95.1601 98.1486 95.1213 98.2635 95.1099C98.3784 95.0985 98.4943 95.1149 98.6016 95.1578C98.7088 95.2007 98.8041 95.2687 98.8796 95.3561C99.0355 95.5721 99.1193 95.8317 99.1193 96.0981C99.1193 96.3645 99.0355 96.6241 98.8796 96.8401C98.8043 96.9271 98.7093 96.9949 98.6026 97.0378C98.4958 97.0808 98.3804 97.0977 98.2658 97.0871C98.1513 97.0765 98.0409 97.0388 97.9438 96.9771C97.8467 96.9154 97.7657 96.8314 97.7076 96.7321C97.4775 96.8697 97.2028 96.912 96.9421 96.85C96.6813 96.788 96.4551 96.6265 96.3116 96.4001C95.9836 95.9041 96.0596 95.0361 96.5036 94.7161C96.9476 94.3961 97.6196 94.8761 97.5716 95.5161L97.7676 95.2441L97.8756 95.2921Z" fill="#FAFAFA"/>
    <path d="M92.9316 96.3002C93.2903 96.6867 93.5521 97.1528 93.6956 97.6602C93.8116 98.2042 93.6196 98.8962 93.1876 99.0322C92.7556 99.1682 92.3516 98.7242 92.1076 98.2602C91.8508 97.8329 91.7584 97.3267 91.8476 96.8362C91.9756 96.3562 92.5196 96.0722 92.7916 96.4362L92.9316 96.3002Z" fill="#FAFAFA"/>
    <path d="M100.056 93.0197C100.085 92.919 100.137 92.8265 100.209 92.7502C100.281 92.674 100.37 92.6161 100.469 92.5816C100.568 92.5471 100.674 92.5369 100.777 92.5519C100.881 92.5669 100.979 92.6066 101.065 92.6678C101.233 92.8375 101.352 93.0507 101.407 93.2837C101.462 93.5167 101.451 93.7604 101.377 93.9878C101.317 94.1981 101.199 94.3875 101.037 94.5345C100.875 94.6815 100.676 94.7803 100.46 94.8197C100.326 94.8283 100.192 94.8068 100.067 94.7567C99.942 94.7067 99.8299 94.6294 99.7387 94.5305C99.6475 94.4316 99.5795 94.3137 99.5396 94.1852C99.4998 94.0567 99.4892 93.9209 99.5085 93.7878C99.4146 93.945 99.2767 94.0713 99.1117 94.151C98.9467 94.2306 98.762 94.2601 98.5805 94.2358C98.225 94.1642 97.8925 94.0063 97.6125 93.7758C97.3764 93.6356 97.1794 93.4383 97.0396 93.2021C96.8998 92.9658 96.8217 92.6981 96.8125 92.4238C96.8241 92.2118 96.9065 92.0099 97.0464 91.8504C97.1864 91.6908 97.3759 91.5828 97.5845 91.5437C97.781 91.5395 97.9758 91.5811 98.1535 91.6651C98.3313 91.7491 98.487 91.8732 98.6085 92.0278C98.8325 92.2718 99.0085 92.5678 99.2605 92.7838C99.363 92.8975 99.5004 92.9737 99.6511 93.0005C99.8018 93.0274 99.9571 93.0031 100.092 92.9317L100.056 93.0197Z" fill="#FAFAFA"/>
    <path d="M98.7078 106.836C99.1587 108.186 99.2851 109.623 99.0766 111.031C98.8681 112.44 98.3306 113.779 97.5078 114.94C99.2998 114.94 100.904 115.064 102.708 115.064C101.899 112.298 101.712 109.387 102.16 106.54C101.144 106.54 99.7038 106.836 98.7078 106.836Z" fill="#E0E0E0"/>
    <path d="M92.348 130.86H107.848L109.364 115.24H90.832L92.348 130.86Z" fill="#EBEBEB"/>
    <path d="M89.632 116.044H110.72L111.096 113.968H89.252L89.632 116.044Z" fill="#F5F5F5"/>
    <path d="M99.9994 148.804C142.832 148.804 177.555 146.777 177.555 144.276C177.555 141.775 142.832 139.748 99.9994 139.748C57.1664 139.748 22.4434 141.775 22.4434 144.276C22.4434 146.777 57.1664 148.804 99.9994 148.804Z" fill="#F5F5F5"/>
    <path d="M155.544 25.3519H152.208C152.994 25.3431 153.774 25.4968 154.498 25.8034C155.223 26.1101 155.876 26.5629 156.417 27.1337C156.958 27.7045 157.375 28.3809 157.643 29.1205C157.911 29.8601 158.022 30.647 157.972 31.4319L152.66 132.732C152.558 134.366 151.841 135.901 150.654 137.029C149.467 138.157 147.897 138.794 146.26 138.812H149.6C151.237 138.794 152.807 138.157 153.994 137.029C155.181 135.901 155.898 134.366 156 132.732L161.308 31.4319C161.358 30.647 161.247 29.8601 160.979 29.1205C160.711 28.3809 160.294 27.7045 159.753 27.1337C159.212 26.5629 158.559 26.1101 157.834 25.8034C157.11 25.4968 156.33 25.3431 155.544 25.3519Z" fill="#407BFF"/>
    <path opacity="0.1" d="M155.544 25.3519H152.208C152.994 25.3431 153.774 25.4968 154.498 25.8034C155.223 26.1101 155.876 26.5629 156.417 27.1337C156.958 27.7045 157.375 28.3809 157.643 29.1205C157.911 29.8601 158.022 30.647 157.972 31.4319L152.66 132.732C152.558 134.366 151.841 135.901 150.654 137.029C149.467 138.157 147.897 138.794 146.26 138.812H149.6C151.237 138.794 152.807 138.157 153.994 137.029C155.181 135.901 155.898 134.366 156 132.732L161.308 31.4319C161.358 30.647 161.247 29.8601 160.979 29.1205C160.711 28.3809 160.294 27.7045 159.753 27.1337C159.212 26.5629 158.559 26.1101 157.834 25.8034C157.11 25.4968 156.33 25.3431 155.544 25.3519Z" fill="white"/>
    <path d="M148.603 138.8H107.743C106.96 138.806 106.183 138.65 105.462 138.343C104.741 138.036 104.091 137.584 103.552 137.015C103.013 136.446 102.597 135.772 102.33 135.035C102.063 134.298 101.951 133.514 101.999 132.732L107.307 31.4319C107.409 29.7976 108.126 28.2624 109.313 27.1346C110.5 26.0068 112.07 25.37 113.707 25.3519H154.547C155.334 25.3431 156.114 25.4968 156.838 25.8034C157.562 26.1101 158.215 26.5629 158.757 27.1337C159.298 27.7045 159.715 28.3809 159.983 29.1205C160.25 29.8601 160.362 30.647 160.311 31.4319L155.003 132.732C154.899 134.364 154.181 135.896 152.994 137.022C151.807 138.147 150.239 138.782 148.603 138.8Z" fill="#407BFF"/>
    <path opacity="0.4" d="M148.603 138.8H107.743C106.96 138.806 106.183 138.65 105.462 138.343C104.741 138.036 104.091 137.584 103.552 137.015C103.013 136.446 102.597 135.772 102.33 135.035C102.063 134.298 101.951 133.514 101.999 132.732L107.307 31.4319C107.409 29.7976 108.126 28.2624 109.313 27.1346C110.5 26.0068 112.07 25.37 113.707 25.3519H154.547C155.334 25.3431 156.114 25.4968 156.838 25.8034C157.562 26.1101 158.215 26.5629 158.757 27.1337C159.298 27.7045 159.715 28.3809 159.983 29.1205C160.25 29.8601 160.362 30.647 160.311 31.4319L155.003 132.732C154.899 134.364 154.181 135.896 152.994 137.022C151.807 138.147 150.239 138.782 148.603 138.8Z" fill="white"/>
    <path d="M113.834 27.3039C112.695 27.3168 111.603 27.7603 110.777 28.5453C109.951 29.3303 109.453 30.3987 109.382 31.5359L104.074 132.832C104.036 133.352 104.107 133.875 104.283 134.366C104.458 134.858 104.734 135.307 105.092 135.686C105.451 136.065 105.885 136.365 106.366 136.567C106.847 136.769 107.365 136.869 107.886 136.86H148.746C149.885 136.846 150.977 136.402 151.803 135.617C152.628 134.833 153.127 133.765 153.198 132.628L158.506 31.3319C158.544 30.8111 158.473 30.2882 158.298 29.7965C158.122 29.3048 157.846 28.8551 157.487 28.4761C157.128 28.097 156.694 27.797 156.212 27.5952C155.731 27.3934 155.212 27.2942 154.69 27.3039H113.834Z" fill="#263238"/>
    <path d="M130.599 98.2275C132.655 98.2275 133.483 101.332 134.223 103.276C134.495 103.877 134.906 104.405 135.423 104.816C134.767 105.312 134.213 105.93 133.791 106.636C132.655 108.568 131.319 111.404 129.451 111.404C127.583 111.404 126.743 108.568 125.943 106.636C125.649 105.937 125.201 105.315 124.631 104.816C125.217 104.404 125.716 103.881 126.099 103.276C127.175 101.332 128.543 98.2275 130.599 98.2275Z" fill="#407BFF"/>
    <path d="M108.734 103.056C109.434 103.056 109.73 103.888 109.994 104.412C110.096 104.573 110.233 104.709 110.394 104.812C110.183 104.938 110 105.106 109.854 105.304C109.478 105.82 109.054 106.58 108.41 106.58C107.766 106.58 107.474 105.82 107.21 105.304C107.097 105.108 106.941 104.939 106.754 104.812C106.94 104.711 107.104 104.575 107.238 104.412C107.598 103.888 108.038 103.056 108.734 103.056Z" fill="#407BFF"/>
    <path d="M151.729 103.056C152.425 103.056 152.725 103.888 152.989 104.412C153.09 104.574 153.226 104.71 153.389 104.812C153.177 104.939 152.992 105.106 152.845 105.304C152.473 105.82 152.045 106.58 151.405 106.58C150.765 106.58 150.469 105.82 150.185 105.304C150.073 105.106 149.917 104.938 149.729 104.812C149.915 104.711 150.081 104.575 150.217 104.412C150.589 103.888 151.033 103.056 151.729 103.056Z" fill="#407BFF"/>
    <path d="M117.974 101.244C120.738 101.244 122.062 102.924 123.194 103.98C123.715 104.354 124.295 104.637 124.91 104.816C124.177 105.039 123.481 105.373 122.846 105.804C121.454 106.852 119.858 108.388 117.346 108.388C114.834 108.388 113.51 106.852 112.302 105.804C111.731 105.361 111.087 105.022 110.398 104.8C111.058 104.616 111.686 104.334 112.262 103.964C113.598 102.924 115.198 101.244 117.974 101.244Z" fill="#407BFF"/>
    <path d="M142.8 101.244C145.564 101.244 146.892 102.924 148.02 103.98C148.541 104.354 149.121 104.637 149.736 104.816C149.003 105.04 148.307 105.373 147.672 105.804C146.28 106.852 144.684 108.388 142.176 108.388C139.668 108.388 138.34 106.852 137.128 105.804C136.559 105.368 135.919 105.034 135.236 104.816C135.896 104.632 136.524 104.35 137.1 103.98C138.424 102.924 140.044 101.244 142.8 101.244Z" fill="#407BFF"/>
    <g opacity="0.2">
        <path d="M125.314 100.36C126.706 100.36 127.266 102.464 127.77 103.78C127.95 104.187 128.224 104.545 128.57 104.824C128.125 105.162 127.749 105.581 127.462 106.06C126.69 107.372 125.786 109.292 124.518 109.292C123.25 109.292 122.682 107.372 122.142 106.06C121.943 105.587 121.639 105.164 121.254 104.824C121.651 104.546 121.988 104.191 122.246 103.78C122.99 102.464 123.918 100.36 125.314 100.36Z" fill="white"/>
    </g>
    <g opacity="0.2">
        <path d="M117.693 103.848C118.641 103.847 119.57 104.106 120.381 104.596C120.667 104.703 120.963 104.78 121.265 104.824C120.916 104.881 120.573 104.972 120.241 105.096C119.401 105.538 118.47 105.78 117.521 105.804C116.609 105.791 115.714 105.547 114.921 105.096C114.608 104.971 114.282 104.88 113.949 104.824C114.263 104.778 114.571 104.702 114.869 104.596C115.734 104.116 116.704 103.859 117.693 103.848Z" fill="white"/>
    </g>
    <g opacity="0.2">
        <path d="M110.448 104.4C111.367 104.394 112.284 104.504 113.176 104.728C113.448 104.784 114.068 104.824 114.068 104.824C114.068 104.824 113.46 104.868 113.06 104.944C112.179 105.142 111.279 105.244 110.376 105.248C109.489 105.246 108.604 105.144 107.74 104.944C107.34 104.868 106.756 104.824 106.756 104.824C106.756 104.824 107.384 104.784 107.664 104.728C108.575 104.507 109.51 104.397 110.448 104.4Z" fill="white"/>
    </g>
    <g opacity="0.2">
        <path d="M142.648 103.848C141.66 103.859 140.689 104.116 139.824 104.596C139.526 104.702 139.218 104.778 138.904 104.824C139.237 104.88 139.563 104.971 139.876 105.096C140.669 105.547 141.564 105.791 142.476 105.804C143.425 105.78 144.356 105.538 145.196 105.096C145.528 104.972 145.871 104.881 146.22 104.824C145.918 104.78 145.622 104.703 145.336 104.596C144.525 104.106 143.596 103.847 142.648 103.848Z" fill="white"/>
    </g>
    <g opacity="0.2">
        <path d="M149.798 104.4C148.855 104.395 147.915 104.505 146.998 104.728C146.714 104.784 146.086 104.824 146.086 104.824C146.086 104.824 146.69 104.868 147.074 104.944C147.937 105.144 148.82 105.246 149.706 105.248C150.61 105.244 151.512 105.142 152.394 104.944C152.794 104.868 153.402 104.824 153.402 104.824C153.402 104.824 152.778 104.784 152.506 104.728C151.621 104.505 150.711 104.395 149.798 104.4Z" fill="white"/>
    </g>
    <g opacity="0.2">
        <path d="M135.636 100.36C137.032 100.36 137.588 102.464 138.092 103.78C138.272 104.187 138.546 104.545 138.892 104.824C138.447 105.162 138.071 105.581 137.784 106.06C137.016 107.372 136.108 109.292 134.844 109.292C133.58 109.292 133.008 107.372 132.464 106.06C132.267 105.586 131.963 105.163 131.576 104.824C131.973 104.546 132.311 104.191 132.568 103.78C133.312 102.464 134.24 100.36 135.636 100.36Z" fill="white"/>
    </g>
    <g opacity="0.2">
        <path d="M130.172 103.848C130.744 103.848 131.008 104.308 131.236 104.596C131.336 104.696 131.456 104.773 131.588 104.824C131.428 104.888 131.281 104.98 131.152 105.096C130.86 105.384 130.52 105.804 130 105.804C129.48 105.804 129.2 105.384 128.968 105.096C128.856 104.978 128.719 104.885 128.568 104.824C128.715 104.774 128.851 104.696 128.968 104.596C129.252 104.308 129.6 103.848 130.172 103.848Z" fill="white"/>
    </g>
    <g opacity="0.1">
        <path d="M130.296 136.86H114L129.36 27.3038H142.476C143.038 27.3007 143.595 27.4148 144.111 27.6386C144.627 27.8624 145.09 28.1911 145.472 28.6038L130.296 136.86Z" fill="white"/>
        <path d="M111.076 136.86H107.412L122.768 27.3037H126.436L111.076 136.86Z" fill="white"/>
    </g>
    <g opacity="0.8">
        <path d="M145.471 82.9013C153.963 74.7005 154.647 61.6317 146.998 53.7116C139.35 45.7914 126.265 46.0189 117.773 54.2198C109.281 62.4207 108.597 75.4894 116.245 83.4096C123.894 91.3298 136.978 91.1022 145.471 82.9013Z" fill="white"/>
    </g>
    <path d="M130.275 86.1761C120.575 86.1761 113.231 78.2801 113.911 68.5761C114.591 58.8721 123.035 50.9761 132.739 50.9761C142.443 50.9761 149.783 58.8721 149.103 68.5761C148.423 78.2801 139.999 86.1761 130.275 86.1761ZM132.675 52.0801C123.579 52.0801 115.663 59.4801 115.027 68.5801C114.391 77.6801 121.271 85.0761 130.371 85.0761C139.471 85.0761 147.383 77.6761 148.019 68.5801C148.655 59.4841 141.755 52.0801 132.659 52.0801H132.675Z" fill="#407BFF"/>
    <path d="M128.915 63.8719L129.167 60.2439C129.244 59.3578 129.647 58.5316 130.297 57.9245C130.947 57.3173 131.798 56.9723 132.687 56.9559C133.11 56.9498 133.53 57.0325 133.919 57.1987C134.308 57.365 134.658 57.611 134.946 57.9208C135.234 58.2307 135.454 58.5976 135.591 58.9978C135.729 59.3979 135.78 59.8224 135.743 60.2439L135.243 67.3999C135.172 68.2873 134.772 69.116 134.122 69.7241C133.471 70.3322 132.618 70.6758 131.727 70.6879C131.304 70.6939 130.885 70.6112 130.495 70.445C130.106 70.2788 129.756 70.0329 129.468 69.7231C129.179 69.4133 128.959 69.0464 128.821 68.6463C128.683 68.2461 128.631 67.8215 128.667 67.3999L128.915 63.8719Z" fill="#407BFF"/>
    <path d="M131.464 74.4641C130.7 74.4747 129.942 74.3251 129.238 74.0247C128.535 73.7244 127.903 73.2801 127.382 72.7205C126.861 72.1608 126.464 71.4983 126.215 70.7755C125.966 70.0527 125.871 69.2858 125.936 68.5241L126.336 62.7361C126.348 62.5878 126.415 62.4494 126.524 62.348C126.633 62.2467 126.775 62.1896 126.924 62.1881C126.995 62.1867 127.065 62.2002 127.13 62.2277C127.195 62.2553 127.254 62.2962 127.302 62.3479C127.351 62.3996 127.387 62.4609 127.411 62.5278C127.434 62.5946 127.442 62.6656 127.436 62.7361L127.036 68.5241C126.982 69.145 127.059 69.7702 127.262 70.3595C127.465 70.9488 127.789 71.4891 128.213 71.9455C128.638 72.4019 129.153 72.7643 129.726 73.0093C130.299 73.2543 130.917 73.3766 131.54 73.3681C132.854 73.3509 134.114 72.8453 135.075 71.9498C136.036 71.0544 136.63 69.8332 136.74 68.5241L137.14 62.7361C137.152 62.5878 137.219 62.4494 137.328 62.348C137.437 62.2467 137.579 62.1896 137.728 62.1881C137.799 62.1867 137.869 62.2002 137.934 62.2277C137.999 62.2553 138.058 62.2962 138.106 62.3479C138.155 62.3996 138.191 62.4609 138.215 62.5278C138.238 62.5946 138.246 62.6656 138.24 62.7361L137.84 68.5241C137.705 70.1293 136.977 71.6268 135.799 72.7249C134.62 73.8229 133.075 74.4429 131.464 74.4641Z" fill="#407BFF"/>
    <path d="M130.952 81.756C130.881 81.7575 130.81 81.7438 130.744 81.7158C130.678 81.6878 130.619 81.6461 130.571 81.5935C130.522 81.5409 130.486 81.4786 130.463 81.4108C130.441 81.3429 130.433 81.2711 130.44 81.2L130.952 73.908C130.964 73.7597 131.031 73.6213 131.14 73.5199C131.249 73.4185 131.391 73.3615 131.54 73.36C131.611 73.3586 131.681 73.3721 131.746 73.3996C131.811 73.4272 131.87 73.4681 131.918 73.5198C131.967 73.5715 132.004 73.6328 132.027 73.6996C132.05 73.7665 132.058 73.8375 132.052 73.908L131.54 81.2C131.53 81.3496 131.464 81.49 131.355 81.5931C131.246 81.6961 131.102 81.7543 130.952 81.756Z" fill="#407BFF"/>
    <path d="M134.6 81.7557H127.308C127.236 81.7566 127.166 81.7425 127.101 81.7142C127.035 81.6859 126.977 81.6442 126.929 81.5917C126.881 81.5391 126.844 81.4771 126.822 81.4095C126.8 81.3419 126.792 81.2704 126.8 81.1997C126.811 81.051 126.878 80.9122 126.987 80.8101C127.096 80.7081 127.238 80.6502 127.388 80.6477H134.68C134.751 80.6457 134.822 80.6589 134.888 80.6864C134.955 80.7139 135.014 80.755 135.063 80.8071C135.112 80.8592 135.15 80.9212 135.173 80.9888C135.197 81.0565 135.206 81.1283 135.2 81.1997C135.188 81.351 135.12 81.4926 135.009 81.5957C134.898 81.6989 134.751 81.7561 134.6 81.7557Z" fill="#407BFF"/>
    <path d="M161.79 54.4439C161.764 54.4424 161.738 54.4357 161.714 54.4242C161.691 54.4127 161.669 54.3966 161.652 54.3769C161.634 54.3572 161.621 54.3343 161.612 54.3094C161.604 54.2845 161.6 54.2582 161.602 54.2319L162.402 40.0239C162.403 39.9973 162.409 39.9711 162.421 39.947C162.432 39.9228 162.448 39.9012 162.468 39.8833C162.487 39.8654 162.51 39.8517 162.536 39.8428C162.561 39.834 162.587 39.8303 162.614 39.8319C162.666 39.837 162.715 39.8616 162.75 39.9009C162.785 39.9403 162.803 39.9914 162.802 40.0439L162.002 54.2559C162.001 54.2824 161.995 54.3084 161.983 54.3323C161.972 54.3562 161.956 54.3777 161.936 54.3952C161.916 54.4128 161.893 54.4262 161.868 54.4345C161.843 54.4429 161.816 54.4461 161.79 54.4439Z" fill="#407BFF"/>
    <path d="M162.735 37.508C162.709 37.507 162.684 37.5008 162.66 37.4897C162.636 37.4787 162.615 37.463 162.597 37.4436C162.58 37.4242 162.566 37.4016 162.558 37.3769C162.549 37.3522 162.546 37.3261 162.547 37.3L162.755 33.548C162.759 33.4954 162.784 33.4463 162.823 33.4112C162.863 33.3762 162.914 33.3578 162.967 33.36C162.994 33.3616 163.019 33.3683 163.043 33.3798C163.067 33.3913 163.088 33.4073 163.105 33.427C163.123 33.4467 163.136 33.4697 163.145 33.4945C163.153 33.5194 163.157 33.5458 163.155 33.572L162.947 37.32C162.946 37.3463 162.939 37.372 162.928 37.3957C162.916 37.4194 162.9 37.4406 162.88 37.4581C162.861 37.4755 162.838 37.4889 162.813 37.4975C162.788 37.5061 162.762 37.5097 162.735 37.508Z" fill="#407BFF"/>
    <path d="M106.141 10.3077L105.165 24.5117C105.161 24.6019 105.149 24.6915 105.129 24.7797C105.029 25.224 104.78 25.6209 104.424 25.9046C104.067 26.1882 103.625 26.3417 103.169 26.3397H99.9372C100.281 28.3397 102.765 31.0637 102.765 31.0637C102.765 31.0637 98.0572 30.3997 95.4572 26.3117L72.3132 26.1717C72.074 26.1751 71.8366 26.1287 71.6163 26.0354C71.3959 25.9421 71.1974 25.804 71.0334 25.6298C70.8693 25.4556 70.7433 25.2491 70.6634 25.0236C70.5835 24.798 70.5514 24.5583 70.5692 24.3197L71.5412 10.1157C71.5457 10.0257 71.5564 9.93619 71.5732 9.84769C71.6768 9.40399 71.927 9.0082 72.2834 8.72437C72.6398 8.44054 73.0816 8.28528 73.5372 8.28369L104.397 8.46769C104.635 8.46558 104.871 8.51248 105.09 8.60546C105.309 8.69844 105.506 8.83552 105.67 9.00815C105.833 9.18077 105.96 9.38525 106.041 9.60883C106.122 9.83241 106.156 10.0703 106.141 10.3077Z" fill="white"/>
    <path d="M103.289 31.3239L102.737 31.2479C102.689 31.2479 97.9768 30.5319 95.3448 26.4919L72.3128 26.3559C72.046 26.3543 71.7822 26.2993 71.537 26.1942C71.2917 26.0891 71.07 25.936 70.8848 25.7439C70.7057 25.5497 70.5676 25.3214 70.479 25.0726C70.3903 24.8237 70.3528 24.5595 70.3688 24.2959L71.3408 10.0839C71.3446 9.98414 71.358 9.88501 71.3808 9.78787C71.4959 9.29975 71.7719 8.86459 72.1645 8.55255C72.5571 8.24052 73.0433 8.06978 73.5448 8.06787L104.397 8.25187C104.663 8.25019 104.926 8.30336 105.171 8.40807C105.416 8.51278 105.636 8.66678 105.818 8.86046C106.001 9.05413 106.141 9.28333 106.231 9.53374C106.321 9.78415 106.358 10.0504 106.341 10.3159L105.365 24.5159C105.361 24.6156 105.348 24.7147 105.325 24.8119C105.213 25.3017 104.938 25.7389 104.545 26.0515C104.151 26.3641 103.663 26.5336 103.161 26.5319H100.185C100.657 28.4399 102.889 30.8959 102.913 30.9319L103.289 31.3239ZM73.4768 8.46787C73.0775 8.48194 72.6939 8.62704 72.3852 8.88079C72.0765 9.13453 71.8599 9.4828 71.7688 9.87187C71.7538 9.94976 71.7445 10.0286 71.7408 10.1079L70.7688 24.3159C70.7542 24.5256 70.7821 24.7361 70.8508 24.9347C70.9195 25.1334 71.0277 25.3161 71.1688 25.4719C71.3172 25.6243 71.4944 25.7455 71.6901 25.8286C71.8858 25.9117 72.0962 25.955 72.3088 25.9559L95.5568 26.0959L95.6168 26.1879C97.6168 29.3199 100.905 30.4119 102.217 30.7319C101.493 29.8679 100.001 27.9319 99.7328 26.3559L99.6928 26.1199H103.161C103.57 26.1195 103.967 25.9806 104.288 25.7256C104.608 25.4707 104.833 25.1148 104.925 24.7159C104.944 24.6385 104.954 24.5594 104.957 24.4799L105.933 10.2759C105.945 10.0672 105.914 9.85832 105.843 9.66195C105.771 9.46559 105.66 9.28589 105.517 9.13387C105.373 8.98184 105.2 8.86068 105.008 8.7778C104.817 8.69492 104.61 8.65207 104.401 8.65187L73.5448 8.46787H73.4768Z" fill="#407BFF"/>
    <path d="M102.116 12.8237H74.5996V13.2237H102.116V12.8237Z" fill="#407BFF"/>
    <path d="M101.856 16.748H74.3398V17.148H101.856V16.748Z" fill="#407BFF"/>
    <path d="M101.6 20.6719H74.084V21.0719H101.6V20.6719Z" fill="#407BFF"/>
    <path d="M68.6776 35.0761C68.6319 35.0773 68.5872 35.0627 68.5509 35.0349C68.5147 35.0071 68.489 34.9677 68.4783 34.9232C68.4675 34.8788 68.4723 34.832 68.4918 34.7907C68.5114 34.7494 68.5445 34.716 68.5856 34.6961L72.3576 32.6961C72.3809 32.6836 72.4065 32.6758 72.4329 32.6733C72.4593 32.6707 72.4859 32.6734 72.5112 32.6813C72.5365 32.6891 72.56 32.7018 72.5803 32.7188C72.6006 32.7358 72.6174 32.7566 72.6296 32.7801C72.642 32.8032 72.6497 32.8284 72.6522 32.8545C72.6547 32.8806 72.652 32.9069 72.6442 32.9318C72.6363 32.9568 72.6236 32.98 72.6066 33C72.5897 33.0199 72.569 33.0363 72.5456 33.0481L68.7736 35.0481C68.7443 35.065 68.7114 35.0746 68.6776 35.0761Z" fill="#407BFF"/>
    <path d="M73.4938 36.7999H69.2898C69.2371 36.7989 69.1868 36.7775 69.1496 36.7402C69.1123 36.7029 69.0909 36.6526 69.0898 36.5999C69.0898 36.5469 69.1109 36.496 69.1484 36.4585C69.1859 36.421 69.2368 36.3999 69.2898 36.3999H73.4938C73.5469 36.3999 73.5978 36.421 73.6353 36.4585C73.6728 36.496 73.6938 36.5469 73.6938 36.5999C73.6928 36.6526 73.6714 36.7029 73.6341 36.7402C73.5968 36.7775 73.5466 36.7989 73.4938 36.7999Z" fill="#407BFF"/>
    <path d="M72.3225 40.532C72.2903 40.5322 72.2586 40.5239 72.2305 40.508L71.6825 40.216C71.6575 40.2047 71.6351 40.1885 71.6166 40.1682C71.5982 40.1479 71.5841 40.1241 71.5752 40.0981C71.5663 40.0722 71.5629 40.0447 71.5651 40.0174C71.5673 39.99 71.5751 39.9635 71.588 39.9393C71.601 39.9151 71.6187 39.8938 71.6402 39.8768C71.6617 39.8597 71.6864 39.8473 71.7129 39.8402C71.7394 39.8332 71.7671 39.8316 71.7942 39.8357C71.8213 39.8398 71.8473 39.8494 71.8705 39.864L72.4185 40.152C72.4645 40.1781 72.4986 40.221 72.5135 40.2718C72.5284 40.3225 72.5231 40.3771 72.4985 40.424C72.4818 40.4563 72.4566 40.4834 72.4256 40.5024C72.3945 40.5215 72.3589 40.5317 72.3225 40.532Z" fill="#407BFF"/>
    <path d="M70.9461 39.7963C70.9127 39.796 70.8798 39.7878 70.8501 39.7723L68.4501 38.4923C68.4251 38.4811 68.4027 38.4648 68.3842 38.4446C68.3657 38.4243 68.3516 38.4005 68.3428 38.3745C68.3339 38.3486 68.3305 38.3211 68.3327 38.2937C68.3349 38.2664 68.3427 38.2398 68.3556 38.2156C68.3685 38.1915 68.3863 38.1702 68.4078 38.1531C68.4293 38.1361 68.454 38.1237 68.4805 38.1166C68.507 38.1095 68.5347 38.108 68.5618 38.1121C68.5889 38.1162 68.6149 38.1258 68.6381 38.1403L71.0381 39.4203C71.0615 39.4321 71.0822 39.4485 71.0992 39.4685C71.1161 39.4885 71.1289 39.5116 71.1367 39.5366C71.1445 39.5616 71.1473 39.5879 71.1448 39.6139C71.1423 39.64 71.1346 39.6653 71.1221 39.6883C71.1054 39.7206 71.0802 39.7478 71.0491 39.7668C71.0181 39.7858 70.9825 39.796 70.9461 39.7963Z" fill="#407BFF"/>
    <path d="M82.4984 39.0601C82.4618 39.0609 82.4256 39.0517 82.3939 39.0333C82.3621 39.015 82.336 38.9883 82.3184 38.9561L80.3184 35.1801C80.306 35.1571 80.2983 35.1318 80.2958 35.1057C80.2933 35.0796 80.2961 35.0534 80.3039 35.0284C80.3117 35.0034 80.3245 34.9802 80.3414 34.9603C80.3583 34.9403 80.3791 34.9239 80.4024 34.9121C80.4252 34.8995 80.4503 34.8916 80.4762 34.8888C80.5021 34.886 80.5283 34.8884 80.5532 34.8959C80.5782 34.9033 80.6014 34.9157 80.6215 34.9322C80.6416 34.9487 80.6583 34.9691 80.6704 34.9921L82.6704 38.7681C82.6945 38.8148 82.6991 38.8692 82.6834 38.9193C82.6677 38.9695 82.6329 39.0114 82.5864 39.0361C82.5596 39.0514 82.5293 39.0596 82.4984 39.0601Z" fill="#407BFF"/>
    <path d="M84.2176 38.4481C84.1645 38.4481 84.1137 38.4271 84.0762 38.3896C84.0386 38.3521 84.0176 38.3012 84.0176 38.2481V34.0481C84.0176 33.9951 84.0386 33.9442 84.0762 33.9067C84.1137 33.8692 84.1645 33.8481 84.2176 33.8481C84.2706 33.8481 84.3215 33.8692 84.359 33.9067C84.3965 33.9442 84.4176 33.9951 84.4176 34.0481V38.2481C84.4176 38.3012 84.3965 38.3521 84.359 38.3896C84.3215 38.4271 84.2706 38.4481 84.2176 38.4481Z" fill="#407BFF"/>
    <path d="M87.6633 35.9644C87.6299 35.964 87.597 35.9558 87.5673 35.9404C87.5443 35.9282 87.5239 35.9116 87.5074 35.8914C87.4909 35.8713 87.4785 35.8481 87.4711 35.8231C87.4636 35.7982 87.4612 35.772 87.464 35.7461C87.4668 35.7202 87.4747 35.6951 87.4873 35.6724L87.7753 35.1244C87.7875 35.1009 87.8043 35.08 87.8246 35.0631C87.8449 35.0461 87.8684 35.0333 87.8937 35.0255C87.919 35.0177 87.9456 35.015 87.972 35.0175C87.9984 35.0201 88.024 35.0278 88.0473 35.0404C88.094 35.0658 88.1289 35.1085 88.1446 35.1593C88.1603 35.2101 88.1555 35.265 88.1313 35.3124L87.8393 35.8604C87.8214 35.8914 87.7958 35.9172 87.765 35.9355C87.7341 35.9537 87.6991 35.9636 87.6633 35.9644Z" fill="#407BFF"/>
    <path d="M85.938 39.2003C85.9058 39.2005 85.8741 39.1922 85.846 39.1763C85.8225 39.1641 85.8017 39.1473 85.7847 39.127C85.7678 39.1067 85.755 39.0832 85.7472 39.0579C85.7394 39.0326 85.7367 39.006 85.7392 38.9796C85.7418 38.9532 85.7495 38.9276 85.762 38.9043L87.042 36.5043C87.0542 36.4813 87.0708 36.4609 87.091 36.4444C87.1111 36.4279 87.1343 36.4155 87.1593 36.4081C87.1842 36.4006 87.2104 36.3982 87.2363 36.401C87.2622 36.4038 87.2872 36.4117 87.31 36.4243C87.3334 36.4361 87.3542 36.4525 87.3711 36.4725C87.388 36.4924 87.4008 36.5156 87.4086 36.5406C87.4164 36.5656 87.4192 36.5919 87.4167 36.6179C87.4142 36.644 87.4065 36.6693 87.394 36.6923L86.114 39.0923C86.097 39.1243 86.0717 39.1512 86.0407 39.1702C86.0098 39.1892 85.9743 39.1996 85.938 39.2003Z" fill="#407BFF"/>
    <path d="M61.3988 23.8158C60.7748 21.9878 58.5508 21.4478 56.8388 22.1718C55.1268 22.8958 49.3308 25.6878 50.7588 31.3518C50.9668 32.1518 51.6228 33.0038 51.2548 33.7918C49.4428 37.6558 45.2548 35.7238 42.4188 39.1598C35.8268 47.1998 44.3908 50.1638 43.6988 52.2238C43.0068 54.2838 41.2228 56.0038 39.2988 56.0838C41.9308 56.9998 44.2508 57.9958 47.0588 57.6838C49.9894 57.3796 52.7215 56.0609 54.7828 53.9558C56.8828 51.7598 58.1748 48.5278 57.8508 45.4598C57.6148 43.2118 54.5068 43.5278 56.0468 41.9238C57.0708 40.8598 58.4468 40.3638 59.6188 39.5238C62.3228 37.5598 63.6388 33.9238 64.3468 30.4998C64.6508 29.0398 64.8708 27.5038 64.4988 26.0998C64.3166 25.4246 63.9108 24.8312 63.3478 24.4163C62.7847 24.0015 62.0977 23.7898 61.3988 23.8158Z" fill="#263238"/>
    <path d="M70.1236 54.4759C67.4596 51.8599 65.5516 50.1159 65.5516 50.1159C64.7276 49.5399 65.2036 47.6319 65.8476 46.8599C66.1782 46.477 66.6089 46.1937 67.0914 46.0418C67.574 45.8899 68.0893 45.8754 68.5796 45.9999C68.5796 45.9999 72.5796 51.1159 75.8716 53.8119L76.6716 43.8119C77.7876 43.7159 77.5316 43.9079 78.6516 43.8119C78.6516 43.8119 79.3236 51.6999 79.4516 55.7839C79.4824 56.3376 79.3382 56.887 79.0396 57.3543C78.741 57.8216 78.303 58.1832 77.7876 58.3879C77.6276 58.4458 77.461 58.4835 77.2916 58.4999C75.9756 58.6319 73.1996 57.5039 70.1236 54.4759Z" fill="#B25B52"/>
    <path d="M76.0388 52.2279C75.9028 55.6239 75.5948 56.3919 76.6948 59.6079C76.29 59.8076 75.841 59.9006 75.3902 59.8782C74.9394 59.8558 74.5018 59.7187 74.1188 59.4799C73.7254 59.1896 73.4055 58.8111 73.1846 58.3749C72.9637 57.9387 72.8481 57.4569 72.8468 56.9679C69.9388 55.2199 69.0508 54.2639 66.4468 50.6519C66.0511 50.1188 65.8125 49.4856 65.7581 48.8239C65.7036 48.1622 65.8355 47.4985 66.1388 46.9079C66.4734 46.2131 67.039 45.656 67.7388 45.3319C68.3548 45.0799 68.8628 45.3319 69.3948 45.7319L73.5228 51.1679C73.6072 50.9184 73.73 50.6835 73.8868 50.4719L76.0388 52.2279Z" fill="#407BFF"/>
    <path opacity="0.7" d="M76.0388 52.2279C75.9028 55.6239 75.5948 56.3919 76.6948 59.6079C76.29 59.8076 75.841 59.9006 75.3902 59.8782C74.9394 59.8558 74.5018 59.7187 74.1188 59.4799C73.7254 59.1896 73.4055 58.8111 73.1846 58.3749C72.9637 57.9387 72.8481 57.4569 72.8468 56.9679C69.9388 55.2199 69.0508 54.2639 66.4468 50.6519C66.0511 50.1188 65.8125 49.4856 65.7581 48.8239C65.7036 48.1622 65.8355 47.4985 66.1388 46.9079C66.4734 46.2131 67.039 45.656 67.7388 45.3319C68.3548 45.0799 68.8628 45.3319 69.3948 45.7319L73.5228 51.1679C73.6072 50.9184 73.73 50.6835 73.8868 50.4719L76.0388 52.2279Z" fill="#151515"/>
    <path d="M81.2742 45.0837C80.5742 45.5637 78.0462 45.5477 77.7222 45.3917C76.1222 44.6397 76.3942 42.4557 78.1502 42.4597C78.9302 42.5317 79.7033 42.6654 80.4622 42.8597C80.9262 42.4117 82.6782 41.6157 82.9742 41.7797C83.1141 41.8766 83.221 42.0141 83.2803 42.1736C83.3397 42.3331 83.3487 42.5069 83.3062 42.6717C83.2156 43.0002 83.056 43.3057 82.8382 43.5677C82.4137 44.1642 81.8837 44.678 81.2742 45.0837Z" fill="#B25B52"/>
    <path d="M59.293 82.7118C59.925 85.3158 60.741 88.1998 61.781 91.3398C62.085 85.0158 63.781 76.5398 63.853 76.2598L59.293 82.7118Z" fill="#151515"/>
    <path d="M65.825 76.5716L57.025 109.648L45.025 133.852L41.873 132.756C41.873 132.756 43.669 122.944 47.269 113.932C48.101 111.852 49.669 109.724 50.213 108.024C50.673 106.528 49.945 89.8396 52.073 85.9596C52.073 85.9596 49.985 79.7396 53.777 74.3916L65.825 76.5716Z" fill="#B25B52"/>
    <path d="M43.0424 138.679L40.8184 137.523L41.6704 133.499L42.6304 129.855L46.2544 130.819L44.5584 134.979L43.0424 138.679Z" fill="#B25B52"/>
    <path d="M44.3977 144.616C44.1609 144.17 43.8436 143.771 43.4617 143.44C43.4617 143.44 42.6977 141.576 43.7337 137.368L42.1937 136.188C41.9304 135.993 41.6135 135.883 41.2858 135.874C40.9582 135.864 40.6356 135.956 40.3617 136.136C40.2845 136.186 40.2157 136.248 40.1577 136.32C39.894 136.705 39.6548 137.105 39.4417 137.52C38.7418 138.917 38.1261 140.354 37.5977 141.824L37.9057 141.964L39.1777 139.296C39.5777 138.384 39.8657 139.78 39.6497 140.852C39.4337 141.924 39.4137 143.176 41.4177 144.076C43.7417 145.124 44.7617 145.448 44.3977 144.616Z" fill="#263238"/>
    <path d="M44.0335 135.828C44.0335 135.828 43.6335 137.784 43.3815 140.032C43.1906 141.163 43.2205 142.32 43.4695 143.44C43.4695 143.44 41.8415 143.068 41.6175 141.772C41.3935 140.476 41.9695 136.62 40.3535 136.148C40.5822 135.944 40.8331 135.767 41.1015 135.62C41.5295 135.38 44.0335 135.828 44.0335 135.828Z" fill="#B25B52"/>
    <path d="M67.1979 74.8438L73.1339 107.644L75.8339 134.52L72.5819 135.268C72.5819 135.268 68.8899 126 67.1539 116.468C66.7539 114.264 66.9659 111.62 66.5059 109.896C66.1059 108.388 65.3819 107.496 64.1059 104.132C62.5579 100.052 60.7939 94.5317 60.5379 90.1317C60.5379 90.1317 55.4659 85.9758 55.8379 79.4278L67.1979 74.8438Z" fill="#B25B52"/>
    <path d="M76.6981 139.655L74.1981 139.851L72.7861 135.995L71.6621 132.395L75.2461 131.287L76.0181 135.715L76.6981 139.655Z" fill="#B25B52"/>
    <path d="M81.0089 143.96C80.5705 143.707 80.089 143.538 79.5889 143.46C79.5889 143.46 77.9489 142.288 76.5929 138.172L74.6609 137.988C74.3348 137.963 74.009 138.039 73.7272 138.205C73.4454 138.371 73.2213 138.619 73.0849 138.916C73.0444 138.999 73.0174 139.088 73.0049 139.18C72.9848 139.641 72.9929 140.104 73.0289 140.564C73.1764 142.123 73.4182 143.671 73.7529 145.2L74.0889 145.16L73.7489 142.224C73.6209 141.228 74.5849 142.268 74.9729 143.292C75.3609 144.316 76.0049 145.384 78.1729 145.084C80.7129 144.74 81.7489 144.472 81.0089 143.96Z" fill="#263238"/>
    <path d="M76.0221 136.712C76.0221 136.712 76.7261 138.58 77.7021 140.62C78.1431 141.679 78.7842 142.643 79.5901 143.46C79.5901 143.46 78.0141 144.012 77.1341 143.032C76.2541 142.052 74.6941 138.476 73.0781 138.936C73.1636 138.642 73.2816 138.359 73.4301 138.092C73.6661 137.66 76.0221 136.712 76.0221 136.712Z" fill="#B25B52"/>
    <path d="M72.1213 98.3194C72.1213 98.3194 62.4733 101.427 50.4333 98.9674C50.4333 98.9674 48.8853 83.2994 51.4173 76.2594L54.5173 67.6394C54.5173 67.6394 68.8853 66.8034 68.8853 67.7234L72.1213 98.3194Z" fill="#407BFF"/>
    <path d="M70.0347 56.2395C69.9307 58.9555 69.3907 61.8075 68.7067 66.0675C68.7483 66.0625 68.7905 66.066 68.8308 66.0776C68.8711 66.0893 68.9086 66.109 68.941 66.1355C68.9735 66.162 69.0003 66.1948 69.0199 66.2319C69.0394 66.269 69.0512 66.3097 69.0547 66.3515C69.0551 66.3581 69.0551 66.3648 69.0547 66.3715C69.0867 66.6795 69.1107 66.9795 69.1427 67.2875C69.1531 67.3758 69.1289 67.4646 69.0752 67.5355C69.0215 67.6063 68.9425 67.6536 68.8547 67.6675C64.0438 68.2282 59.1834 68.2188 54.3747 67.6395C54.2818 67.6141 54.2023 67.5536 54.1531 67.4708C54.1038 67.388 54.0886 67.2893 54.1107 67.1955C54.1126 67.1809 54.1126 67.1661 54.1107 67.1515C54.2307 66.8555 54.3507 66.5635 54.4587 66.2675C54.4825 66.2052 54.5256 66.1521 54.5818 66.1161C54.6379 66.0801 54.7042 66.0631 54.7707 66.0675H54.9107C55.1267 62.1395 54.5867 57.5275 52.1107 48.8075C51.9591 48.3312 51.9162 47.8271 51.9851 47.332C52.054 46.837 52.2329 46.3637 52.5088 45.947C52.7847 45.5303 53.1505 45.1807 53.5794 44.924C54.0082 44.6672 54.4891 44.5099 54.9867 44.4635C55.5587 44.4035 56.1667 44.3555 56.7867 44.3235C58.9667 44.1715 61.1547 44.1715 63.3347 44.3235C64.0307 44.3915 64.7827 44.4795 65.4907 44.5755C68.0347 44.9275 69.5307 46.9955 69.9987 49.8475C70.2173 51.972 70.2294 54.1127 70.0347 56.2395Z" fill="#407BFF"/>
    <path d="M57.5592 36.5518C58.1592 38.7678 58.8992 42.8638 57.4512 44.3518C57.4512 44.3518 59.3632 45.8838 63.4152 47.3598C64.6152 47.0518 64.3712 44.3518 64.3712 44.3518C61.8392 43.7558 61.7672 41.9158 62.0712 40.1838L57.5592 36.5518Z" fill="#B25B52"/>
    <path d="M64.1855 44.2236C67.9495 49.0556 68.0055 56.2596 67.0455 79.7116C66.9615 81.7516 68.8255 81.5316 70.8415 81.2076L73.4695 80.8076C73.4695 80.8076 70.4935 73.6076 71.2295 62.8716C71.9655 52.1356 71.4575 48.3396 69.7135 46.3556C67.9695 44.3716 64.1855 44.2236 64.1855 44.2236Z" fill="#407BFF"/>
    <path opacity="0.6" d="M64.1855 44.2236C67.9495 49.0556 68.0055 56.2596 67.0455 79.7116C66.9615 81.7516 68.8255 81.5316 70.8415 81.2076L73.4695 80.8076C73.4695 80.8076 70.4935 73.6076 71.2295 62.8716C71.9655 52.1356 71.4575 48.3396 69.7135 46.3556C67.9695 44.3716 64.1855 44.2236 64.1855 44.2236Z" fill="#151515"/>
    <path d="M57.2936 43.9995C57.2936 43.9995 59.9136 46.3275 60.6936 51.9395C61.9416 60.9955 61.5496 69.7275 61.0936 79.6955C61.0776 80.036 60.9813 80.3679 60.8126 80.664C60.6439 80.9601 60.4074 81.2121 60.1226 81.3993C59.8379 81.5866 59.5128 81.7038 59.1741 81.7414C58.8353 81.779 58.4925 81.7358 58.1736 81.6155C58.1736 81.6155 50.0496 81.3635 47.7736 79.3955C47.6096 76.3915 52.5056 69.7675 51.9936 61.8275C51.4816 53.8875 50.5016 46.9675 51.5256 45.4715C52.5496 43.9755 57.2936 43.9995 57.2936 43.9995Z" fill="#407BFF"/>
    <path opacity="0.6" d="M57.2936 43.9995C57.2936 43.9995 59.9136 46.3275 60.6936 51.9395C61.9416 60.9955 61.5496 69.7275 61.0936 79.6955C61.0776 80.036 60.9813 80.3679 60.8126 80.664C60.6439 80.9601 60.4074 81.2121 60.1226 81.3993C59.8379 81.5866 59.5128 81.7038 59.1741 81.7414C58.8353 81.779 58.4925 81.7358 58.1736 81.6155C58.1736 81.6155 50.0496 81.3635 47.7736 79.3955C47.6096 76.3915 52.5056 69.7675 51.9936 61.8275C51.4816 53.8875 50.5016 46.9675 51.5256 45.4715C52.5496 43.9755 57.2936 43.9995 57.2936 43.9995Z" fill="#151515"/>
    <path opacity="0.2" d="M59.3977 38.0317L62.0737 40.1797C61.9977 40.5848 61.9576 40.9957 61.9537 41.4077C60.9937 41.2717 59.6137 40.2317 59.4377 39.2357C59.3545 38.8398 59.3409 38.4323 59.3977 38.0317Z" fill="#151515"/>
    <path d="M62.4352 28.3998C65.0667 31.9623 66.2021 36.412 65.5992 40.7998C66.8672 38.3998 67.3912 35.5678 67.4752 32.8478C67.5152 31.4798 67.4352 30.0478 66.8272 28.8478C66.2192 27.6478 64.9712 26.6318 63.6032 26.6878C63.1093 26.6891 62.635 26.8811 62.2792 27.2238C61.9512 27.5718 62.1432 27.9998 62.4352 28.3998Z" fill="#263238"/>
    <path d="M55.6542 32.0796C56.3302 35.6796 56.5382 37.2116 58.6062 38.9356C61.6942 41.5196 65.9382 40.1596 66.3542 36.4916C66.7262 33.1916 65.5542 27.8636 61.8462 26.6716C61.0571 26.3824 60.2048 26.3106 59.3784 26.4638C58.5521 26.617 57.7821 26.9895 57.1491 27.5424C56.5161 28.0952 56.0434 28.8081 55.7804 29.6063C55.5174 30.4045 55.4738 31.2587 55.6542 32.0796Z" fill="#B25B52"/>
    <path d="M61.901 32.9036C61.989 33.1996 62.213 33.4036 62.401 33.3636C62.589 33.3236 62.677 33.0476 62.593 32.7516C62.509 32.4556 62.281 32.2516 62.093 32.2916C61.905 32.3316 61.817 32.6076 61.901 32.9036Z" fill="#263238"/>
    <path d="M64.9607 32.1676C65.0447 32.4596 65.2687 32.6676 65.4607 32.6236C65.6527 32.5796 65.7367 32.3076 65.6487 32.0156C65.5607 31.7236 65.3407 31.5156 65.1487 31.5596C64.9567 31.6036 64.8727 31.8716 64.9607 32.1676Z" fill="#263238"/>
    <path d="M65.0703 31.5997L65.7143 31.2397C65.7143 31.2397 65.5143 31.8677 65.0703 31.5997Z" fill="#263238"/>
    <path d="M64.1016 32.8716C64.5632 33.4886 65.1008 34.045 65.7016 34.5276C65.5799 34.6676 65.4282 34.7784 65.2579 34.8518C65.0876 34.9251 64.9029 34.9593 64.7176 34.9516L64.1016 32.8716Z" fill="#9D2724"/>
    <path d="M55.8697 35.7234C56.0545 36.0206 56.2995 36.2759 56.5888 36.4729C56.8781 36.6699 57.2054 36.8043 57.5497 36.8674C58.4057 36.9834 58.6577 35.9874 58.2577 35.0674C57.8897 34.2434 57.0297 33.1874 56.2577 33.4914C55.4857 33.7954 55.3617 34.9354 55.8697 35.7234Z" fill="#B25B52"/>
    <path d="M65.6374 30.4234C65.6722 30.4227 65.7059 30.4109 65.7335 30.3897C65.7612 30.3685 65.7814 30.3391 65.7912 30.3057C65.801 30.2722 65.7999 30.2366 65.7881 30.2038C65.7762 30.171 65.7543 30.1429 65.7254 30.1234C65.5118 29.9293 65.2564 29.7869 64.979 29.7071C64.7015 29.6274 64.4095 29.6124 64.1254 29.6635C64.0833 29.6756 64.0475 29.7037 64.0259 29.7418C64.0042 29.78 63.9983 29.825 64.0094 29.8674C64.0234 29.9133 64.0543 29.9521 64.096 29.9759C64.1376 29.9997 64.1868 30.0067 64.2334 29.9955C64.4591 29.9574 64.6905 29.9712 64.9102 30.0356C65.1298 30.1 65.332 30.2135 65.5014 30.3674C65.5191 30.3854 65.5403 30.3997 65.5637 30.4093C65.5871 30.4189 65.6121 30.4237 65.6374 30.4234Z" fill="#263238"/>
    <path d="M61.998 32.3278L62.638 31.9678C62.638 31.9678 62.454 32.6038 61.998 32.3278Z" fill="#263238"/>
    <path d="M64.7975 36.1436C64.7975 36.1436 63.8015 35.7956 60.9375 35.4956C61.1775 36.3916 61.7375 37.1516 63.1975 37.3076C63.3712 37.3456 63.5507 37.3487 63.7256 37.3166C63.9005 37.2845 64.0673 37.218 64.2162 37.1208C64.3651 37.0236 64.4932 36.8978 64.593 36.7506C64.6928 36.6035 64.7623 36.4379 64.7975 36.2636C64.7975 36.2236 64.7975 36.1836 64.7975 36.1436Z" fill="#263238"/>
    <path d="M62.5904 36.5478C63.1581 36.5782 63.7021 36.7852 64.1464 37.1398C63.8554 37.2883 63.526 37.3441 63.2024 37.2998C62.6354 37.2718 62.092 37.0645 61.6504 36.7078C61.9388 36.5561 62.268 36.5001 62.5904 36.5478Z" fill="#9D2724"/>
    <path d="M64.6645 36.1035C64.6281 36.2095 64.5627 36.3031 64.4757 36.3738C64.3887 36.4445 64.2837 36.4895 64.1725 36.5035C63.3219 36.4079 62.4805 36.2434 61.6565 36.0115C61.5247 35.9842 61.4015 35.9251 61.2976 35.8393C61.1938 35.7536 61.1124 35.6438 61.0605 35.5195C62.275 35.6219 63.4799 35.8171 64.6645 36.1035Z" fill="#FAFAFA"/>
    <path d="M59.8064 27.5436C58.7883 29.6088 58.1899 31.8555 58.0457 34.1535C57.9015 36.4515 58.2145 38.7553 58.9664 40.9316C57.1464 38.7036 56.0264 35.8996 55.3944 33.1156C55.0744 31.7156 54.8744 30.2436 55.2704 28.8636C55.6664 27.4836 56.7744 26.2156 58.2264 26.0036C58.7459 25.907 59.2826 26.0129 59.7264 26.2996C60.1504 26.5996 60.0384 27.0836 59.8064 27.5436Z" fill="#263238"/>
    <path d="M47.7544 57.7837L44.0784 70.5397H40.8464L39.0584 71.5997C38.9416 71.6678 38.8409 71.7602 38.7631 71.8707C38.6853 71.9813 38.6323 72.1073 38.6076 72.2401C38.5829 72.373 38.5872 72.5097 38.6201 72.6407C38.653 72.7718 38.7138 72.8943 38.7984 72.9997C39.0616 73.3424 39.3562 73.6598 39.6784 73.9477C39.7779 74.0312 39.8935 74.0935 40.018 74.1306C40.1425 74.1677 40.2733 74.179 40.4024 74.1637L42.4544 73.9277C43.2453 73.8381 43.9958 73.5307 44.6224 73.0397L45.6424 72.2397C45.6424 72.2397 50.0944 63.0717 52.6904 57.8397C52.1824 56.9877 51.0904 56.5397 50.1024 56.4997C49.1144 56.4597 47.9064 56.7997 47.7544 57.7837Z" fill="#B25B52"/>
    <path d="M51.7343 44.9439C49.5783 45.9559 48.4183 48.3479 47.8583 50.6639C47.2983 52.9799 47.1623 55.4159 46.2583 57.6199C45.9486 57.5649 45.6297 57.5971 45.3373 57.713C45.0448 57.8288 44.7904 58.0237 44.6023 58.2759C44.3946 58.7516 44.3027 59.2698 44.3343 59.7879C44.3629 60.3054 44.2725 60.8226 44.0703 61.2999C45.5703 62.9519 49.1903 63.5759 51.4183 63.6999C52.4463 62.2759 52.6783 60.2679 52.3823 58.5359C53.7023 55.1079 54.4383 51.4199 55.0263 47.7919C55.2263 46.5519 54.6503 44.7519 52.8863 44.7559C52.4946 44.7554 52.1055 44.8189 51.7343 44.9439Z" fill="#407BFF"/>
    <g opacity="0.6">
        <path d="M51.7363 44.9439C49.5803 45.9559 48.4203 48.3479 47.8603 50.6639C47.3003 52.9799 47.1643 55.4159 46.2603 57.6199C45.9506 57.5649 45.6317 57.5971 45.3392 57.713C45.0468 57.8288 44.7923 58.0237 44.6043 58.2759C44.3966 58.7516 44.3047 59.2698 44.3363 59.7879C44.3648 60.3054 44.2745 60.8226 44.0723 61.2999C45.5723 62.9519 49.1923 63.5759 51.4203 63.6999C52.4483 62.2759 52.6803 60.2679 52.3843 58.5359C53.7043 55.1079 54.4403 51.4199 55.0283 47.7919C55.2283 46.5519 54.6523 44.7519 52.8883 44.7559C52.4966 44.7554 52.1075 44.8189 51.7363 44.9439Z" fill="#151515"/>
    </g>
    <path d="M57.7831 33.1478C58.8765 32.5544 59.8285 31.7312 60.5736 30.7348C61.3186 29.7384 61.839 28.5925 62.099 27.3758C62.9536 27.6089 63.7433 28.0348 64.4076 28.6207C65.0719 29.2067 65.5931 29.9371 65.931 30.7558C66.216 30.2094 66.3341 29.5913 66.2706 28.9784C66.2072 28.3654 65.965 27.7846 65.5742 27.3082C65.1834 26.8317 64.6612 26.4806 64.0726 26.2985C63.4839 26.1164 62.8546 26.1113 62.263 26.2838C61.323 26.1118 60.263 25.7798 59.403 26.2038C58.6592 26.6395 58.1066 27.3392 57.855 28.1638C57.2538 29.7665 57.2283 31.5284 57.7831 33.1478Z" fill="#263238"/>
    <path d="M84.218 42.9436V43.1996C84.217 43.2795 84.1921 43.3573 84.1464 43.4229C84.1008 43.4885 84.0366 43.5389 83.962 43.5676C83.9179 43.5869 83.8702 43.5964 83.822 43.5956H76.398C76.292 43.5956 76.1902 43.5535 76.1152 43.4785C76.0402 43.4035 75.998 43.3017 75.998 43.1956V42.9316L84.218 42.9436Z" fill="#407BFF"/>
    <g opacity="0.4">
        <path d="M84.22 42.9436V43.1996C84.219 43.2795 84.194 43.3573 84.1484 43.4229C84.1028 43.4885 84.0385 43.5389 83.964 43.5676C83.9199 43.5869 83.8721 43.5964 83.824 43.5956H76.4C76.2939 43.5956 76.1922 43.5535 76.1172 43.4785C76.0421 43.4035 76 43.3017 76 43.1956V42.9316L84.22 42.9436Z" fill="white"/>
    </g>
    <path d="M84.214 42.944H75.998L79.198 41.712C79.3913 41.64 79.5959 41.6034 79.802 41.604H87.722L84.214 42.944Z" fill="#263238"/>
    <path d="M87.7229 41.5996V41.8356C87.7224 41.91 87.6992 41.9825 87.6563 42.0433C87.6134 42.1041 87.5529 42.1503 87.4829 42.1756L83.9629 43.5716C84.0374 43.5428 84.1017 43.4924 84.1473 43.4268C84.1929 43.3613 84.2179 43.2835 84.2189 43.2036V42.9396L87.7229 41.5996Z" fill="#407BFF"/>
</svg>
