<svg xmlns="http://www.w3.org/2000/svg" width="1728" height="1739" viewBox="0 0 1728 1739" fill="none">
    <path d="M1335.39 1738.85H939.482C803.809 1741.22 669.128 1715.33 544.006 1662.82C418.885 1610.31 306.062 1532.33 212.716 1433.85C133.731 1347.5 73.8856 1245.43 37.1005 1134.34C0.315384 1023.25 -12.5786 905.64 -0.736303 789.217C17.2328 599.786 96.7478 421.452 225.651 281.484C354.554 141.515 525.75 47.6148 713.064 14.1404C836.12 -8.68454 962.714 -3.82854 1083.66 28.3561C1204.61 60.5406 1316.87 119.247 1412.31 200.214C1513.34 285.146 1594.5 391.226 1650.04 510.96C1705.58 630.695 1734.16 761.165 1733.75 893.155V1340.48C1733.62 1446.1 1691.6 1547.34 1616.93 1622.02C1542.25 1696.7 1441 1738.72 1335.39 1738.85ZM866.761 217.814C704.119 217.674 547.271 278.196 426.88 387.551C306.488 496.905 231.209 647.229 215.758 809.135C206.896 895.5 216.382 982.763 243.593 1065.21C270.804 1147.65 315.126 1223.42 373.656 1287.54C446.603 1363.63 534.57 1423.72 631.976 1464.01C729.382 1504.3 834.099 1523.89 939.482 1521.56H1335.39C1383.41 1521.56 1429.47 1502.48 1463.43 1468.52C1497.38 1434.57 1516.46 1388.51 1516.46 1340.48V893.155C1516.8 792.897 1495.14 693.786 1453.01 602.807C1410.89 511.827 1349.33 431.193 1272.66 366.586C1159.34 270.337 1015.44 217.595 866.761 217.814ZM864.589 435.105C835.774 435.105 808.14 446.552 787.765 466.927C767.39 487.302 755.943 514.936 755.943 543.751C755.943 572.565 767.39 600.2 787.765 620.575C808.14 640.95 835.774 652.396 864.589 652.396C893.403 652.396 921.038 640.95 941.412 620.575C961.787 600.2 973.234 572.565 973.234 543.751C973.234 514.936 961.787 487.302 941.412 466.927C921.038 446.552 893.403 435.105 864.589 435.105ZM900.804 1376.7C871.989 1376.7 844.355 1365.25 823.98 1344.88C803.605 1324.5 792.158 1296.87 792.158 1268.05V942.117H755.943C727.129 942.117 699.494 930.671 679.119 910.296C658.744 889.921 647.298 862.286 647.298 833.472C647.298 804.657 658.744 777.023 679.119 756.648C699.494 736.273 727.129 724.826 755.943 724.826H828.373C876.398 724.826 922.455 743.904 956.413 777.862C990.372 811.821 1009.45 857.878 1009.45 905.902V1268.05C1009.45 1296.87 998.003 1324.5 977.628 1344.88C957.253 1365.25 929.618 1376.7 900.804 1376.7Z" fill="#3F4CB0" fill-opacity="0.06"/>
</svg>