<svg xmlns="http://www.w3.org/2000/svg" width="93" height="93" viewBox="0 0 93 93" fill="none">
    <mask id="path-1-inside-1_56_515" fill="white">
        <path d="M6.33944 31.7517C1.10432 33.6466 -0.538681 38.4826 0.151069 42.4351C0.840819 46.3876 4.03769 50.375 9.60219 50.375H42.6211V83.3938C42.6211 88.9622 46.6046 92.1513 50.5571 92.845C51.1228 92.9418 51.7041 92.9961 52.2931 92.9961C55.8271 92.9961 59.6129 91.1438 61.2366 86.6605L92.4071 0.647095L6.33944 31.7517ZM57.6018 85.343C56.3928 88.6677 53.4207 89.4195 51.2313 89.0242C49.0497 88.6406 46.4999 86.9356 46.4999 83.39V46.4961H9.60607C6.06044 46.4961 4.35544 43.9463 3.97182 41.7608C3.58819 39.5753 4.32444 36.5993 7.65694 35.3942L85.9436 7.10284L57.6018 85.343Z"/>
    </mask>
    <path d="M6.33944 31.7517C1.10432 33.6466 -0.538681 38.4826 0.151069 42.4351C0.840819 46.3876 4.03769 50.375 9.60219 50.375H42.6211V83.3938C42.6211 88.9622 46.6046 92.1513 50.5571 92.845C51.1228 92.9418 51.7041 92.9961 52.2931 92.9961C55.8271 92.9961 59.6129 91.1438 61.2366 86.6605L92.4071 0.647095L6.33944 31.7517ZM57.6018 85.343C56.3928 88.6677 53.4207 89.4195 51.2313 89.0242C49.0497 88.6406 46.4999 86.9356 46.4999 83.39V46.4961H9.60607C6.06044 46.4961 4.35544 43.9463 3.97182 41.7608C3.58819 39.5753 4.32444 36.5993 7.65694 35.3942L85.9436 7.10284L57.6018 85.343Z" fill="#3F4CB0"/>
    <path d="M6.33944 31.7517L2.94062 22.347L2.93599 22.3487L6.33944 31.7517ZM42.6211 50.375H52.6211V40.375H42.6211V50.375ZM50.5571 92.845L48.8286 102.694L48.8489 102.698L48.8693 102.702L50.5571 92.845ZM61.2366 86.6605L51.8349 83.2534L51.8341 83.2554L61.2366 86.6605ZM92.4071 0.647095L101.809 4.05418L109.08 -16.0116L89.0082 -8.75758L92.4071 0.647095ZM57.6018 85.343L66.9998 88.7604L67.004 88.7488L57.6018 85.343ZM51.2313 89.0242L53.0079 79.1833L52.9856 79.1793L52.9632 79.1753L51.2313 89.0242ZM46.4999 46.4961H56.4999V36.4961H46.4999V46.4961ZM7.65694 35.3942L4.25825 25.9895L4.2562 25.9902L7.65694 35.3942ZM85.9436 7.10284L95.3457 10.5087L102.613 -9.55426L82.5449 -2.30188L85.9436 7.10284ZM2.93599 22.3487C-7.77887 26.227 -11.0445 36.4499 -9.70005 44.1542L10.0022 40.716C10.0025 40.7179 10.0012 40.7011 10.0027 40.6895C10.0036 40.6827 9.99843 40.7332 9.95114 40.8269C9.89814 40.9319 9.81332 41.0474 9.70998 41.1392C9.6629 41.181 9.63017 41.2016 9.62354 41.2055C9.61726 41.2092 9.65192 41.1877 9.7429 41.1547L2.93599 22.3487ZM-9.70005 44.1542C-8.35147 51.8821 -1.78161 60.375 9.60219 60.375V40.375C9.50602 40.375 9.46637 40.3666 9.47355 40.3679C9.48111 40.3693 9.51871 40.3775 9.57694 40.4007C9.70469 40.4516 9.82349 40.5309 9.90933 40.6119C9.94808 40.6484 9.97326 40.6787 9.98783 40.6982C10.0021 40.7173 10.0074 40.7277 10.0075 40.7278C10.0077 40.7282 10.0071 40.7271 10.0061 40.7247C10.005 40.7222 10.0039 40.7193 10.0029 40.7162C10.0004 40.7089 10.0007 40.7076 10.0022 40.716L-9.70005 44.1542ZM9.60219 60.375H42.6211V40.375H9.60219V60.375ZM32.6211 50.375V83.3938H52.6211V50.375H32.6211ZM32.6211 83.3938C32.6211 94.7849 41.1129 101.34 48.8286 102.694L52.2856 82.9955C52.2915 82.9965 52.2883 82.9963 52.2796 82.9934C52.2759 82.9921 52.2725 82.9908 52.2696 82.9896C52.2667 82.9883 52.2653 82.9876 52.2654 82.9877C52.2656 82.9878 52.2681 82.9891 52.2728 82.992C52.2775 82.995 52.285 82.9999 52.2948 83.0073C52.3146 83.022 52.3453 83.0476 52.3823 83.0868C52.4644 83.1739 52.5445 83.294 52.5957 83.4225C52.619 83.481 52.627 83.5185 52.6283 83.5255C52.6296 83.5322 52.6211 83.4915 52.6211 83.3938H32.6211ZM48.8693 102.702C49.944 102.886 51.0912 102.996 52.2931 102.996V82.9961C52.317 82.9961 52.3017 82.9982 52.2448 82.9884L48.8693 102.702ZM52.2931 102.996C59.3659 102.996 67.3661 99.1032 70.639 90.0655L51.8341 83.2554C51.7811 83.4019 51.7585 83.4005 51.8196 83.3236C51.8797 83.2479 51.9683 83.1655 52.0714 83.0992C52.1683 83.0369 52.243 83.0108 52.2765 83.0015C52.306 82.9933 52.3093 82.9961 52.2931 82.9961V102.996ZM70.6383 90.0676L101.809 4.05418L83.0054 -2.76L51.8349 83.2534L70.6383 90.0676ZM89.0082 -8.75758L2.94062 22.347L9.73827 41.1564L95.8059 10.0518L89.0082 -8.75758ZM48.2039 81.9255C48.3177 81.6125 48.5574 81.1425 49.0005 80.6545C49.4412 80.169 49.9642 79.797 50.4974 79.544C51.4886 79.0737 52.364 79.0671 53.0079 79.1833L49.4547 98.8651C55.0244 99.8706 63.6802 97.8892 66.9998 88.7604L48.2039 81.9255ZM52.9632 79.1753C53.5721 79.2824 54.3774 79.5745 55.1466 80.3499C55.5617 80.7683 55.9298 81.2979 56.1815 81.9102C56.4346 82.526 56.4999 83.0546 56.4999 83.39H36.4999C36.4999 93.1631 44.0293 97.9112 49.4995 98.8731L52.9632 79.1753ZM56.4999 83.39V46.4961H36.4999V83.39H56.4999ZM46.4999 36.4961H9.60607V56.4961H46.4999V36.4961ZM9.60607 36.4961C9.94139 36.4961 10.4703 36.5614 11.0865 36.8148C11.6993 37.0667 12.2294 37.4353 12.648 37.8508C13.424 38.6211 13.7149 39.4264 13.8212 40.032L-5.87759 43.4897C-4.91691 48.9627 -0.170156 56.4961 9.60607 56.4961V36.4961ZM13.8212 40.032C13.9279 40.6394 13.9282 41.4976 13.4597 42.4875C13.2071 43.0214 12.8336 43.5487 12.3426 43.9944C11.849 44.4425 11.3734 44.684 11.0577 44.7982L4.2562 25.9902C-4.93526 29.3141 -6.83913 38.0119 -5.87759 43.4897L13.8212 40.032ZM11.0556 44.7989L89.3423 16.5076L82.5449 -2.30188L4.25825 25.9895L11.0556 44.7989ZM76.5414 3.69701L48.1997 81.9371L67.004 88.7488L95.3457 10.5087L76.5414 3.69701Z" fill="#3F4CB0" mask="url(#path-1-inside-1_56_515)"/>
</svg>