<svg xmlns="http://www.w3.org/2000/svg" width="78" height="78" viewBox="0 0 78 78" fill="none">
    <path d="M78 8.125C78 3.64325 74.3535 0 69.875 0H45.5V14.495L47.5995 13.858C49.5332 13.2665 51.2363 13 52 13C53.7907 13 55.25 14.456 55.25 16.25C55.25 18.044 53.7907 19.5 52 19.5C51.2363 19.5 49.5332 19.2335 47.5995 18.642L45.5 18.005V32.5H55.692C55.4125 33.7643 55.25 34.918 55.25 35.75C55.25 39.3348 58.1652 42.25 61.75 42.25C65.3347 42.25 68.25 39.3348 68.25 35.75C68.25 34.918 68.0875 33.7643 67.808 32.5H78V8.125ZM74.75 29.25H63.5083L64.1452 31.3495C64.7335 33.2832 65 34.9863 65 35.75C65 37.544 63.5407 39 61.75 39C59.9593 39 58.5 37.544 58.5 35.75C58.5 34.9863 58.7698 33.28 59.3548 31.3495L59.9917 29.25H48.75V22.3048C50.0143 22.5875 51.1712 22.75 52 22.75C55.5848 22.75 58.5 19.8347 58.5 16.25C58.5 12.6652 55.5848 9.75 52 9.75C51.1712 9.75 50.0143 9.9125 48.75 10.1953V3.25H69.875C72.5628 3.25 74.75 5.43725 74.75 8.125V29.25ZM47.8953 47.5995C48.4835 49.5332 48.75 51.2363 48.75 52C48.75 53.794 47.2907 55.25 45.5 55.25C43.7093 55.25 42.25 53.794 42.25 52C42.25 51.2363 42.5197 49.53 43.1047 47.5995L43.7417 45.5H32.5V16.25H8.125C3.6465 16.25 0 19.8932 0 24.375V78H61.75V45.5H47.2583L47.8953 47.5995ZM3.25 24.375C3.25 21.6873 5.43725 19.5 8.125 19.5H29.25V45.5H22.308C22.5875 44.2357 22.75 43.082 22.75 42.25C22.75 38.6652 19.8347 35.75 16.25 35.75C12.6652 35.75 9.75 38.6652 9.75 42.25C9.75 43.082 9.9125 44.2357 10.192 45.5H3.25V24.375ZM29.25 74.75H3.25V48.75H14.4918L13.8547 46.6505C13.2665 44.7168 13 43.0137 13 42.25C13 40.456 14.4593 39 16.25 39C18.0408 39 19.5 40.456 19.5 42.25C19.5 43.0137 19.2302 44.72 18.6453 46.6505L18.0082 48.75H29.25V55.6952C27.9858 55.4125 26.8288 55.25 26 55.25C22.4153 55.25 19.5 58.1652 19.5 61.75C19.5 65.3347 22.4153 68.25 26 68.25C26.8288 68.25 27.9858 68.0875 29.25 67.8048V74.75ZM51.558 48.75H58.5V74.75H32.5V63.505L30.4005 64.142C28.4668 64.7335 26.7638 65 26 65C24.2092 65 22.75 63.544 22.75 61.75C22.75 59.956 24.2092 58.5 26 58.5C26.7638 58.5 28.4668 58.7665 30.4005 59.358L32.5 59.995V48.75H39.442C39.1625 50.0143 39 51.168 39 52C39 55.5848 41.9152 58.5 45.5 58.5C49.0848 58.5 52 55.5848 52 52C52 51.168 51.8375 50.0143 51.558 48.75Z" fill="#3F4CB0"/>
</svg>