<svg xmlns="http://www.w3.org/2000/svg" width="92" height="92" viewBox="0 0 92 92" fill="none">
    <path d="M70.9167 92H47.9167C36.3017 92 26.8333 82.5317 26.8333 70.9167V65.1667H21.0833C9.46833 65.1667 0 55.6983 0 44.0833V21.0833C0 9.46833 9.46833 0 21.0833 0H44.0833C55.6983 0 65.1667 9.46833 65.1667 21.0833V26.8333H70.9167C82.5317 26.8333 92 36.3017 92 47.9167V70.9167C92 82.5317 82.5317 92 70.9167 92ZM21.0833 11.5C15.7933 11.5 11.5 15.7933 11.5 21.0833V44.0833C11.5 49.3733 15.7933 53.6667 21.0833 53.6667H32.5833C35.765 53.6667 38.3333 56.235 38.3333 59.4167V70.9167C38.3333 76.2067 42.6267 80.5 47.9167 80.5H70.9167C76.2067 80.5 80.5 76.2067 80.5 70.9167V47.9167C80.5 42.6267 76.2067 38.3333 70.9167 38.3333H59.4167C56.235 38.3333 53.6667 35.765 53.6667 32.5833V21.0833C53.6667 15.7933 49.3733 11.5 44.0833 11.5H21.0833ZM39.5217 43.2783C40.4033 41.7067 41.7067 40.4033 43.2783 39.5217C46.0383 37.9883 47.035 34.4617 45.5017 31.7017C43.9683 28.9417 40.48 27.945 37.6817 29.4783C34.2317 31.395 31.395 34.2317 29.44 37.72C27.9067 40.48 28.9033 44.0067 31.6633 45.54C32.545 46.0383 33.5033 46.2683 34.4617 46.2683C36.4933 46.2683 38.4483 45.195 39.4833 43.3167L39.5217 43.2783ZM54.28 62.5217C57.73 60.605 60.605 57.7683 62.5217 54.28C64.055 51.52 63.0583 47.9933 60.2983 46.46C57.5 44.9267 54.0117 45.9233 52.4783 48.6833C51.5967 50.255 50.2933 51.5583 48.7217 52.44C45.9617 53.9733 44.9267 57.4617 46.4983 60.26C47.5333 62.1767 49.5267 63.2117 51.52 63.2117C52.4783 63.2117 53.4367 62.9817 54.3183 62.4833L54.28 62.5217Z" fill="#3F4CB0"/>
</svg>