<svg xmlns="http://www.w3.org/2000/svg" width="32" height="32" viewBox="0 0 32 32" fill="none">
    <path d="M6.66675 10.6665L6.66675 2.6665" stroke="#292828" stroke-width="2" stroke-linecap="round" stroke-linejoin="round"/>
    <path fill-rule="evenodd" clip-rule="evenodd" d="M4.20601 11.1108C4 12.1832 4 13.5566 4 16C4 18.7899 4 20.1849 4.30667 21.3294C5.13887 24.4352 7.5648 26.8611 10.6706 27.6933C11.8151 28 13.2101 28 16 28H22C24.8284 28 26.2426 28 27.1213 27.1213C28 26.2426 28 24.8284 28 22V16C28 13.2101 28 11.8151 27.6933 10.6706C26.8611 7.5648 24.4352 5.13887 21.3294 4.30667C20.1849 4 18.7899 4 16 4C13.5566 4 12.1832 4 11.1108 4.20601C12.2797 4.4156 13.1667 5.43755 13.1667 6.66667C13.1667 8.04738 12.0474 9.16667 10.6667 9.16667H9.16667V10.6667C9.16667 12.0474 8.04738 13.1667 6.66667 13.1667C5.43755 13.1667 4.4156 12.2797 4.20601 11.1108ZM12 13.6667C11.4477 13.6667 11 14.1144 11 14.6667C11 15.219 11.4477 15.6667 12 15.6667H20C20.5523 15.6667 21 15.219 21 14.6667C21 14.1144 20.5523 13.6667 20 13.6667H12ZM16 19C15.4477 19 15 19.4477 15 20C15 20.5523 15.4477 21 16 21H20C20.5523 21 21 20.5523 21 20C21 19.4477 20.5523 19 20 19H16Z" fill="#292828"/>
    <path d="M2.66675 6.6665L10.6667 6.6665" stroke="#292828" stroke-width="2" stroke-linecap="round" stroke-linejoin="round"/>
</svg>