<svg xmlns="http://www.w3.org/2000/svg" width="32" height="32" viewBox="0 0 32 32" fill="none">
    <path fill-rule="evenodd" clip-rule="evenodd" d="M2.66675 15.9998C2.66675 8.63604 8.63628 2.6665 16.0001 2.6665C23.3639 2.6665 29.3334 8.63604 29.3334 15.9998C29.3334 20.1462 27.4407 23.8506 24.4722 26.296C23.8908 24.6743 22.854 23.2481 21.4789 22.193C19.9071 20.9869 17.9813 20.3332 16.0001 20.3332C14.0189 20.3332 12.093 20.9869 10.5212 22.193C9.14621 23.2481 8.10936 24.6743 7.52801 26.296C4.55944 23.8506 2.66675 20.1462 2.66675 15.9998ZM20.2614 23.7797C21.4774 24.7128 22.3534 26.0191 22.7552 27.4978C20.7742 28.6642 18.4653 29.3332 16.0001 29.3332C13.5349 29.3332 11.226 28.6642 9.24498 27.4978C9.64675 26.0191 10.5227 24.7128 11.7388 23.7797C12.9613 22.8416 14.4591 22.3332 16.0001 22.3332C17.541 22.3332 19.0389 22.8416 20.2614 23.7797ZM13.0001 11.9998C13.0001 10.343 14.3432 8.99984 16.0001 8.99984C17.6569 8.99984 19.0001 10.343 19.0001 11.9998C19.0001 13.6567 17.6569 14.9998 16.0001 14.9998C14.3432 14.9998 13.0001 13.6567 13.0001 11.9998ZM16.0001 6.99984C13.2387 6.99984 11.0001 9.23841 11.0001 11.9998C11.0001 14.7613 13.2387 16.9998 16.0001 16.9998C18.7615 16.9998 21.0001 14.7613 21.0001 11.9998C21.0001 9.23841 18.7615 6.99984 16.0001 6.99984Z" fill="#292828"/>
    <rect x="3.16675" y="3.1665" width="25.6667" height="25.6667" rx="12.8333" stroke="#292828"/>
</svg>