<svg xmlns="http://www.w3.org/2000/svg" width="32" height="32" viewBox="0 0 32 32" fill="none">
    <circle cx="16" cy="12" r="4" fill="#151515"/>
    <path fill-rule="evenodd" clip-rule="evenodd" d="M23.2683 21.2108C23.3449 21.3491 23.3055 21.5216 23.1789 21.6163C21.1769 23.1132 18.6919 23.9997 15.9999 23.9997C13.3078 23.9997 10.8228 23.1132 8.82085 21.6163C8.69421 21.5216 8.65484 21.3491 8.73141 21.2108C9.99828 18.9217 12.7764 17.333 15.9999 17.333C19.2233 17.333 22.0015 18.9217 23.2683 21.2108Z" fill="#151515"/>
    <path d="M23.3333 4.6665H23.5999C25.9884 4.6665 27.1826 4.6665 27.9246 5.4085C28.6666 6.1505 28.6666 7.34472 28.6666 9.73317V9.99984" stroke="#151515" stroke-width="1.33333" stroke-linecap="round"/>
    <path d="M23.3333 27.3335H23.5999C25.9884 27.3335 27.1826 27.3335 27.9246 26.5915C28.6666 25.8495 28.6666 24.6553 28.6666 22.2668V22.0002" stroke="#151515" stroke-width="1.33333" stroke-linecap="round"/>
    <path d="M8.66675 4.6665H8.40008C6.01163 4.6665 4.81741 4.6665 4.07541 5.4085C3.33341 6.1505 3.33341 7.34472 3.33341 9.73317V9.99984" stroke="#151515" stroke-width="1.33333" stroke-linecap="round"/>
    <path d="M8.66675 27.3335H8.40008C6.01163 27.3335 4.81741 27.3335 4.07541 26.5915C3.33341 25.8495 3.33341 24.6553 3.33341 22.2668V22.0002" stroke="#151515" stroke-width="1.33333" stroke-linecap="round"/>
</svg>