<svg xmlns="http://www.w3.org/2000/svg" width="32" height="32" viewBox="0 0 32 32" fill="none">
    <path fill-rule="evenodd" clip-rule="evenodd" d="M3.83832 5.17157C2.66675 6.34315 2.66675 8.22876 2.66675 12V20C2.66675 23.7712 2.66675 25.6569 3.83832 26.8284C5.00989 28 6.89551 28 10.6667 28H21.3334C25.1047 28 26.9903 28 28.1618 26.8284C29.3334 25.6569 29.3334 23.7712 29.3334 20V12C29.3334 8.22876 29.3334 6.34315 28.1618 5.17157C26.9903 4 25.1047 4 21.3334 4H10.6667C6.89551 4 5.00989 4 3.83832 5.17157ZM21.3336 10.6667C22.07 10.6667 22.6669 11.2636 22.6669 12V22.6667C22.6669 23.403 22.07 24 21.3336 24C20.5972 24 20.0002 23.403 20.0002 22.6667V12C20.0002 11.2636 20.5972 10.6667 21.3336 10.6667ZM12.0002 14.6667C12.0002 13.9303 11.4033 13.3333 10.6669 13.3333C9.93053 13.3333 9.33358 13.9303 9.33358 14.6667L9.33358 22.6667C9.33358 23.403 9.93053 24 10.6669 24C11.4033 24 12.0002 23.403 12.0002 22.6667L12.0002 14.6667ZM17.3336 17.3333C17.3336 16.597 16.7366 16 16.0002 16C15.2639 16 14.6669 16.597 14.6669 17.3333V22.6667C14.6669 23.403 15.2639 24 16.0002 24C16.7366 24 17.3336 23.403 17.3336 22.6667V17.3333Z" fill="#292828"/>
</svg>