<svg  width="135" height="110" viewBox="0 0 133 164" fill="none" xmlns="http://www.w3.org/2000/svg">
    <path d="M130.901 76.0797C128.134 66.2057 122.628 57.1346 115.245 50.0305C111.779 46.6965 107.603 44.5878 103.984 41.5612C99.901 38.1475 98.8695 33.6273 97.0906 28.7817C95.2978 23.8986 92.0631 19.6689 88.4731 15.9044C82.281 9.41107 74.7327 3.99026 66.1236 1.46253C57.5144 -1.06519 47.7755 -0.457329 40.1374 4.25075C34.1703 7.9289 24.7533 14.3614 21.0492 20.3123C7.48864 42.0987 19.5062 68.2433 19.8977 81.8111C20.3274 96.6989 13.0322 111.204 14.6228 126.012C15.861 137.541 22.817 148.315 32.8146 154.189C42.8122 160.063 55.6095 160.895 66.2834 156.365C72.9894 153.519 78.711 148.782 85.1638 145.4C95.6972 139.88 108.222 137.929 117.278 130.22C121.512 126.616 124.728 121.93 127.173 116.936C133.32 104.377 134.673 89.5435 130.901 76.0797Z" fill="#E7E9F1"/>
    <path d="M28.756 125.928C28.4263 127.725 38.4864 139.161 40.9967 136.774C44.9319 133.032 51.6973 121.511 52.3289 116.118C52.7391 112.617 59.1713 91.4557 58.733 90.5228C58.2062 89.4015 42.5303 81.4274 41.9223 82.5069C35.2497 94.3563 30.7312 115.164 28.756 125.928Z" fill="#BE7854"/>
    <path d="M43.3131 64.2414C43.8163 68.0134 42.766 88.6245 43.3131 92.3904C47.1024 118.48 52.4701 131.024 48.5314 153.469C48.2243 155.22 47.8974 157.126 48.7398 158.691C49.813 160.685 52.3212 161.327 54.5539 161.703C73.0475 164.82 92.2888 163.4 110.124 157.601C112.966 150.313 107.855 142.602 106.084 134.983C104.724 129.13 105.376 123.029 105.769 117.033C107.113 96.5234 104.098 77.5899 99.2443 57.6172C94.1764 55.8559 89.252 53.9762 84.1923 52.7148C84.1923 52.7148 74.1751 59.4865 66.8984 60.9782C61.235 62.1395 50.6519 59.353 50.6519 59.353C47.0237 61.8849 43.3131 64.2414 43.3131 64.2414Z" fill="#ACB6DF"/>
    <path d="M33.9554 98.5356C33.0901 101.402 32.624 100.82 32.3868 103.804C32.3418 104.37 52.8743 110.545 53.2322 109.051C55.6167 99.106 55.3795 88.5446 52.5512 78.7164C51.8979 76.4461 49.7708 61.8447 43.3185 64.2414C40.7491 65.1957 38.8723 71.1712 37.4054 75.8756C35.1839 82.9999 36.1794 91.1691 33.9554 98.5356Z" fill="#ACB6DF"/>
    <path d="M82.6693 74.3265C82.3539 79.0103 82.0384 83.6943 81.7232 88.3781C81.6916 88.8448 82.4186 88.8429 82.4499 88.3781C82.7653 83.6943 83.0805 79.0103 83.396 74.3265C83.4275 73.8596 82.7006 73.8615 82.6693 74.3265Z" fill="#8F9CC1"/>
    <path d="M78.3478 80.3953C78.7379 83.6393 79.4138 86.8047 80.3983 89.9211C80.5384 90.3654 81.2405 90.1756 81.099 89.7279C80.1351 86.6767 79.4565 83.5728 79.0745 80.3953C79.0194 79.9367 78.292 79.9313 78.3478 80.3953Z" fill="#8F9CC1"/>
    <path d="M46.5068 107.162C46.2424 106.036 45.9782 104.911 45.7137 103.786C45.6069 103.331 44.906 103.523 45.013 103.979C45.2774 105.104 45.5418 106.229 45.806 107.355C45.913 107.81 46.6139 107.617 46.5068 107.162Z" fill="#8F9CC1"/>
    <path d="M45.7706 77.9604C45.5824 74.41 45.501 70.8589 45.5268 67.3036C45.5301 66.8359 44.8035 66.8354 44.8 67.3036C44.7744 70.8589 44.8556 74.41 45.0437 77.9604C45.0685 78.4257 45.7955 78.4286 45.7706 77.9604Z" fill="#8F9CC1"/>
    <path d="M50.7694 63.9336C53.1706 65.4999 55.6317 67.0807 58.4555 67.75C61.1926 68.3989 64.1427 68.3896 66.9213 68.0561C72.4228 67.3959 77.578 65.1706 81.8964 61.7159C82.2617 61.4238 81.7445 60.9126 81.3826 61.2021C77.0733 64.6496 71.828 66.8499 66.3252 67.3955C63.7986 67.646 61.128 67.637 58.6486 67.0493C55.8842 66.394 53.4854 64.8384 51.1362 63.3061C50.7433 63.0498 50.3787 63.6788 50.7694 63.9336Z" fill="#8F9CC1"/>
    <path d="M55.0263 83.8018C58.4809 87.4083 61.8692 91.095 65.4178 94.6093C68.2616 97.4254 71.4001 99.953 75.3155 101.045C75.7666 101.171 75.9592 100.471 75.5085 100.345C71.3136 99.1742 68.0765 96.2936 65.0911 93.2484C61.8714 89.9644 58.7215 86.6093 55.5403 83.2879C55.2161 82.9496 54.7028 83.4638 55.0263 83.8018Z" fill="#8F9CC1"/>
    <path d="M58.9503 127.015C63.645 134.735 71.3221 140.269 80.1359 142.265C80.5912 142.368 80.7857 141.668 80.3291 141.564C71.6942 139.609 64.1791 134.215 59.5778 126.649C59.3351 126.25 58.7063 126.614 58.9503 127.015Z" fill="#8F9CC1"/>
    <path d="M56.6846 145.594C59.049 147.649 62.7309 147.435 65.6679 147.724C69.9594 148.145 74.251 148.566 78.5427 148.988C79.0077 149.033 79.0045 148.306 78.5427 148.261C74.9469 147.908 71.3513 147.555 67.7557 147.202C66.0158 147.031 64.2757 146.862 62.5361 146.69C60.6395 146.501 58.7044 146.389 57.1985 145.08C56.847 144.775 56.3309 145.287 56.6846 145.594Z" fill="#8F9CC1"/>
    <path d="M54.3579 57.2228C53.0876 57.8712 52.0023 58.7805 50.6546 59.3551C53.2563 63.0607 62.0785 65.7084 66.5672 65.1145C73.2927 64.2247 82.9966 59.3943 84.1952 52.7169L78.5785 51.1108C75.6955 46.8387 69.67 35.4288 66.7782 31.5898C64.2198 37.4802 54.7981 44.0718 48.377 44.1751C49.6572 47.4239 55.663 56.5568 54.3579 57.2228Z" fill="#AA684A"/>
    <path d="M36.1083 34.5647C35.1562 41.3889 42.9404 51.1338 46.7329 53.6444C47.7062 54.2887 51.8627 56.6378 55.673 56.5422C61.8259 56.388 63.1467 51.185 65.6803 46.5716C68.2138 41.9582 66.0796 39.2359 65.6803 33.9878C65.3603 29.7808 65.6397 23.7608 63.3377 20.2251C62.1713 18.4334 60.5984 16.786 58.5617 16.1357C57.1802 15.6946 55.6966 15.7447 54.2473 15.7992C52.2021 15.8761 50.1566 15.9532 48.1114 16.0302C27.0822 16.8216 37.9238 21.551 36.1083 34.5647Z" fill="#BE7854"/>
    <path d="M31.7137 22.1377C31.4605 23.7185 29.1903 24.0311 28.3576 25.3985C27.5291 26.7587 28.4312 28.4807 29.3142 29.8061C30.0439 30.9011 29.5411 33.5521 29.642 34.8641C29.834 37.3594 31.9237 38.1096 33.7527 38.1272C37.0267 38.159 39.4381 35.1323 38.5319 33.5435C39.792 34.0514 41.1205 34.569 42.4684 34.4017C43.8167 34.2343 45.1509 33.1198 45.0524 31.7649C44.9383 30.1964 43.085 28.6309 43.9713 27.383C44.3096 26.9064 44.9217 26.693 45.5017 26.7659C53.1261 27.724 47.8788 21.8264 53.1573 21.4679C54.9795 21.0437 57.4547 22.267 58.0089 24.3306C59.3944 29.4894 60.1748 30.1632 63.2335 31.9848C64.1435 31.5972 64.5063 34.8275 64.8632 35.7502C65.2202 36.6728 66.448 36.3714 66.4965 37.3594C66.6062 39.5898 69.5369 42.5396 72.905 41.6312C77.1549 38.7323 72.3408 37.3296 73.3198 36.0357C74.2473 34.81 76.2635 34.0882 76.0603 32.5646C75.9128 31.4598 74.6067 30.8984 74.1485 29.8822C73.1385 27.6423 76.6819 24.9588 75.2795 22.9412C74.5493 21.8908 72.9449 21.9201 71.9804 21.0798C70.4001 19.7036 71.3835 17.1425 71.1156 15.0642C70.7307 12.0785 66.942 10.1185 64.2826 11.5296C64.4195 10.4815 63.0515 9.76388 62.0475 10.0941C61.0433 10.4242 60.3897 11.3669 59.8103 12.2509C59.5024 9.64434 56.3584 7.81096 53.9383 8.82663C52.188 9.5613 50.8528 11.4689 48.9566 11.382C46.4223 11.2656 45.3677 9.08818 42.5942 9.54477C40.8756 9.82762 37.9534 11.4846 36.2745 12.2641C30.9027 14.7576 32.5099 17.1686 31.7137 22.1377Z" fill="#8E401F"/>
    <path d="M67.8417 32.9929C67.5361 32.2422 66.0095 25.9327 62.441 27.9891C59.1536 29.8836 61.6482 35.2569 61.6482 35.2569C61.6592 36.7964 64.0321 39.973 65.5703 40.0359C68.5282 40.157 69.0573 35.9792 67.8417 32.9929Z" fill="#BE7854"/>
    <path d="M44.1847 37.9154C44.4324 39.6049 46.0962 40.3981 45.7884 42.2331C45.635 43.1477 45.0282 44.1333 45.1565 45.0696C45.4536 47.2392 48.2332 46.1426 49.5915 46.5018C50.044 46.6214 50.2371 45.9206 49.7846 45.801C49.0269 45.6006 48.2553 45.7733 47.4855 45.7725C46.7024 45.7719 45.8679 45.7537 45.8794 44.6453C45.883 44.295 46.1379 43.8207 46.2312 43.4896C46.4555 42.6939 46.7249 41.7547 46.5654 40.9215C46.33 39.6915 45.0738 39.0068 44.8855 37.7222C44.818 37.2611 44.1175 37.457 44.1847 37.9154Z" fill="#9B5A43"/>
    <path d="M49.1036 50.1006C49.3708 49.3128 49.6636 48.4667 50.5616 48.31C51.0704 48.2212 51.3773 48.5418 51.8647 48.4819C52.8883 48.3564 52.9627 47.0665 54.262 47.2839C54.7194 47.3604 54.9162 46.6603 54.4552 46.5832C53.8607 46.4836 53.2867 46.5194 52.7577 46.8446C52.5251 46.9877 52.3956 47.207 52.1847 47.3594C51.4466 47.8916 51.4685 47.5388 50.8392 47.4839C49.4315 47.3615 48.7758 48.8082 48.4029 49.9074C48.2523 50.3513 48.9539 50.5418 49.1036 50.1006Z" fill="#9B5A43"/>
    <path d="M50.6584 50.7185C51.5745 50.5887 52.4413 50.3142 53.2733 49.9115C53.6942 49.7079 53.3262 49.081 52.9065 49.2841C52.1311 49.6592 51.3175 49.897 50.4653 50.0179C50.0042 50.0832 50.2004 50.7836 50.6584 50.7185Z" fill="#9B5A43"/>
    <path d="M47.402 33.9921C48.4899 31.6335 50.6871 30.0401 53.2856 29.8123C53.7479 29.7717 53.7521 29.0447 53.2856 29.0857C50.4409 29.3349 47.9747 31.0228 46.7743 33.6254C46.5798 34.0472 47.2062 34.4168 47.402 33.9921Z" fill="#8E401F"/>
    <path d="M38.0043 37.7234C37.6751 36.7902 39.0672 36.4126 39.7044 36.2897C40.567 36.1235 41.4314 36.1634 42.2881 36.3382C42.7447 36.4315 42.94 35.7312 42.4814 35.6376C41.207 35.3775 39.7253 35.3317 38.5109 35.8814C37.71 36.244 36.9758 36.9879 37.3036 37.9166C37.4582 38.3545 38.1605 38.1659 38.0043 37.7234Z" fill="#8E401F"/>
    <path d="M63.2311 31.1043C64.1968 30.6215 64.7831 30.7249 64.99 31.4146C65.1184 31.6693 65.221 31.9343 65.2977 32.2096C65.436 32.6243 65.5341 33.0534 65.6275 33.4797C65.8096 34.3106 66.4588 36.2063 65.6111 36.8448C65.2421 37.1228 65.6038 37.7542 65.9778 37.4724C66.7835 36.8656 66.7873 36.0558 66.6606 35.0979C66.4653 33.6213 66.2285 31.6549 65.2751 30.4393C64.2639 29.1502 61.7911 29.6164 62.6035 31.4711C62.7908 31.8985 63.417 31.529 63.2311 31.1043Z" fill="#9B5A43"/>
    <path d="M34.5562 25.3092C33.284 26.002 33.354 27.8724 34.3701 28.7679C35.7195 29.9571 37.7114 28.9986 38.6086 27.7484C38.8815 27.3677 38.2514 27.0046 37.9809 27.3815C37.3483 28.2634 35.9182 29.0445 34.9097 28.2692C34.1933 27.7185 34.062 26.4058 34.923 25.9369C35.3339 25.7132 34.9675 25.0854 34.5562 25.3092Z" fill="#A45235"/>
    <path d="M36.9335 16.3548C36.4203 17.7611 35.8766 20.0086 37.6462 20.8402C38.6774 21.3248 39.6392 20.649 40.6183 20.358C42.5258 19.7911 44.4425 20.0173 46.2225 20.8764C46.6416 21.0789 47.0106 20.4524 46.5891 20.249C45.1376 19.5483 43.6248 19.1945 42.0055 19.3513C41.2575 19.4238 40.5779 19.7272 39.8534 19.8599C39.1177 19.9946 38.0749 20.1431 37.3786 19.6188C36.6439 19.0655 37.367 17.2799 37.6341 16.548C37.7947 16.1079 37.0928 15.9182 36.9335 16.3548Z" fill="#A45235"/>
    <path d="M46.3334 14.3854C47.0875 17.0014 50.0545 17.9027 52.1786 16.2462C52.547 15.9589 52.0295 15.4479 51.6647 15.7323C49.9595 17.0621 47.6258 16.2446 47.0342 14.1922C46.9047 13.7436 46.2034 13.9344 46.3334 14.3854Z" fill="#A45235"/>
    <path d="M57.2863 16.2601C58.1813 19.7621 62.5354 20.5289 64.6558 17.6566C64.9338 17.28 64.3032 16.9172 64.0281 17.2898C62.2499 19.6984 58.7162 18.92 57.9872 16.0671C57.8713 15.6142 57.1704 15.806 57.2863 16.2601Z" fill="#A45235"/>
    <path d="M61.5117 23.1608C62.3847 25.0858 64.4578 26.1202 66.5212 25.7647C66.9811 25.6855 66.7862 24.9851 66.3281 25.064C64.569 25.3671 62.8678 24.4009 62.1392 22.7941C61.9463 22.3688 61.3198 22.7377 61.5117 23.1608Z" fill="#A45235"/>
    <path d="M67.0329 21.6259C67.5417 22.8816 68.6174 23.803 69.9662 24.0299C70.4237 24.1068 70.6203 23.4067 70.1594 23.3291C69.0785 23.1472 68.1501 22.4606 67.7336 21.4327C67.5603 21.005 66.8569 21.1919 67.0329 21.6259Z" fill="#A45235"/>
    <path d="M32.0968 32.5421C32.6151 34.0695 34.3627 34.8074 35.8252 34.1513C36.2512 33.9602 35.882 33.3337 35.4584 33.5239C34.4372 33.9821 33.1539 33.3993 32.7974 32.349C32.6479 31.9085 31.9459 32.0975 32.0968 32.5421Z" fill="#A45235"/>
    <path d="M63.6171 13.3945C64.2105 15.5678 66.8801 16.2178 68.391 14.5252C68.7013 14.1773 68.1892 13.6616 67.877 14.0114C66.7343 15.2916 64.7746 14.874 64.3179 13.2014C64.1948 12.7507 63.4936 12.942 63.6171 13.3945Z" fill="#A45235"/>
    <path d="M38.6427 23.1974C39.5147 25.2557 42.1873 25.4051 43.4095 23.6024C43.6726 23.2143 43.0433 22.8502 42.782 23.2356C41.8289 24.6412 39.9092 24.3389 39.2702 22.8307C39.0884 22.4013 38.4622 22.7713 38.6427 23.1974Z" fill="#A45235"/>
    <path d="M69.2142 28.0656C69.0337 29.7255 70.3621 31.2185 71.9999 31.3412C72.4666 31.3763 72.4643 30.6493 71.9999 30.6145C70.7253 30.5189 69.8057 29.3094 69.9408 28.0656C69.9913 27.6013 69.2643 27.6049 69.2142 28.0656Z" fill="#A45235"/>
    <path d="M42.1479 39.8421C42.4873 40.5296 42.4195 41.2563 41.9963 41.4653C41.5733 41.6742 40.955 41.2864 40.6156 40.599C40.2761 39.9117 40.3438 39.1851 40.767 38.976C41.1901 38.7671 41.8083 39.1548 42.1479 39.8421Z" fill="#5E443A"/>
    <path d="M50.9471 36.4439C51.2866 37.1313 51.2189 37.858 50.7957 38.0669C50.3726 38.2759 49.7543 37.888 49.415 37.2007C49.0754 36.5132 49.1431 35.7866 49.5663 35.5776C49.9894 35.3686 50.6077 35.7565 50.9471 36.4439Z" fill="#5E443A"/>
    <path d="M50.88 96.1061C49.9015 95.2903 46.4802 89.3377 45.9754 87.9635C45.1152 85.6213 42.7809 84.134 40.4214 83.3223C34.0881 81.144 26.5729 82.9256 21.8913 87.7149C23.8056 89.0721 26.3589 87.6303 28.462 86.5894C30.565 85.5486 33.9523 85.5064 34.3903 87.8118C32.6355 88.6455 30.8441 89.59 29.6884 91.1517C28.5327 92.7135 28.2146 95.0633 29.4682 96.5477C30.0033 96.7513 30.6493 96.6247 31.0681 96.2341C30.6668 98.4334 31.8169 98.7239 32.1914 99.9689C32.9836 99.9738 33.7742 99.6789 34.3696 99.1561C34.2373 101.698 35.0696 104.262 37.8342 101.952C38.9446 101.024 40.6986 106.059 44.0466 105.245C55.0159 116.587 65.3647 128.13 79.7321 134.653C91.3662 139.935 97.087 136.916 98.826 133.934C101.192 129.876 108.013 106.601 109.189 100.686C109.331 99.9701 104.295 97.3674 103.145 97.1175C97.4804 95.8854 91.4488 86.9657 85.7204 86.2694C84.9875 94.3933 85.4409 102.538 83.4923 112.761C71.6903 108.707 60.3551 104.082 50.88 96.1061Z" fill="#BE7854"/>
    <path d="M31.9511 94.9369C32.4249 93.3609 33.8475 91.9472 35.5016 91.7312C35.9643 91.6709 35.8977 90.9471 35.4328 91.0078C33.4285 91.2693 31.8056 92.9137 31.2353 94.8111C31.1007 95.2586 31.8181 95.3796 31.9511 94.9369Z" fill="#9B5A43"/>
    <path d="M34.6829 97.4933C35.0921 96.4599 35.2544 94.3261 36.6283 94.1285C37.0897 94.062 37.0237 93.3382 36.5596 93.405C34.7475 93.6656 34.5684 95.8113 34.0235 97.1876C33.8516 97.6214 34.5104 97.9286 34.6829 97.4933Z" fill="#9B5A43"/>
    <path d="M37.6357 100.875C37.6305 99.9815 37.9959 98.0629 39.1548 97.9932C39.622 97.9652 39.5526 97.2417 39.0861 97.2697C37.4574 97.3677 36.9045 99.6418 36.9123 100.944C36.9151 101.411 37.6385 101.34 37.6357 100.875Z" fill="#9B5A43"/>
    <path d="M85.1983 114.879C87.4942 115.788 89.3614 117.433 90.5088 119.626C90.7227 120.034 91.4052 119.782 91.1881 119.367C89.9524 117.006 87.9869 115.202 85.5041 114.22C85.0701 114.048 84.7629 114.707 85.1983 114.879Z" fill="#AA684A"/>
    <path d="M0.736422 82.8084C5.60972 88.3034 16.6886 102.145 16.6886 102.145L30.5391 99.9989C31.8838 99.7904 32.5186 98.2217 31.697 97.1368L17.9697 79.0083C16.9859 77.709 15.3414 77.093 13.746 77.426L1.69121 79.942C0.377281 80.2161 -0.154205 81.8043 0.736422 82.8084Z" fill="#302452"/>
    <path d="M41.4458 128.46C40.5379 124.174 35.769 119.978 32.6449 116.907C29.841 114.15 27.6721 112.899 24.6262 110.412C23.4062 109.416 18.8829 105.965 18.2991 104.503C17.6961 102.991 16.0276 101.241 16.9292 99.8492C17.7988 98.5064 22.1642 96.1988 20.6879 95.4589C19.4264 95.0213 15.691 96.3575 14.9792 97.4872C14.5423 94.4349 21.1212 92.439 18.9186 90.2402C16.9875 90.4346 14.1828 92.1503 12.6251 93.3081C12.3952 90.5542 18.6294 86.6084 15.6218 85.857C13.8055 86.2453 10.6827 88.8605 9.45325 90.2526C7.77594 89.0252 15.3842 82.3732 12.3562 81.9481C10.3997 81.9293 6.35674 84.8233 4.952 87.7498C3.54726 90.6763 3.23416 93.6617 3.11674 96.9057C3.0187 99.6163 4.92154 103.676 6.71185 105.469C15.7083 117.153 15.6797 127.55 25.606 135.412C28.0688 137.362 34.6478 140.268 39.6547 138.236C43.7143 136.589 42.3536 132.746 41.4458 128.46Z" fill="#BE7854"/>
    <path d="M7.25121 92.1993C7.1856 92.8732 7.11998 93.547 7.05437 94.2209C7.00948 94.6835 7.72355 94.8207 7.76882 94.3553L7.96554 92.3337C8.01044 91.8712 7.29648 91.7337 7.25121 92.1993Z" fill="#9B5A43"/>
    <path d="M11.1652 94.2509C10.8569 94.7154 10.4819 95.1431 10.2087 95.6299C9.93791 96.1127 9.86738 96.6382 9.85105 97.1836C9.83672 97.6502 10.5611 97.586 10.5752 97.1231C10.6055 96.1164 11.1902 95.5181 11.72 94.7202C11.976 94.3347 11.4239 93.8614 11.1652 94.2509Z" fill="#9B5A43"/>
    <path d="M13.3873 97.8864L13.3126 99.1689C13.2858 99.6301 13.9999 99.7689 14.0269 99.3031C14.0519 98.8756 14.0769 98.4481 14.1017 98.0207C14.1286 97.5593 13.4145 97.4206 13.3873 97.8864Z" fill="#9B5A43"/>
    <path d="M31.3537 116.609C34.4756 119 39.4898 121.748 39.1022 126.304C39.0627 126.767 39.7768 126.904 39.8165 126.439C40.238 121.485 35.229 118.662 31.8229 116.054C31.4524 115.771 30.9814 116.324 31.3537 116.609Z" fill="#AA684A"/>
    <path d="M109.431 66.326C111.635 71.6677 113.06 78.5739 112.662 84.2813C112.213 90.7337 111.733 97.1869 109.276 106.547C108.572 109.229 84.839 101.236 84.8305 100.145C84.7394 88.5892 84.0778 79.2402 88.1827 68.1541C89.9819 63.2954 93.9983 56.371 99.0644 57.6505C104.505 59.0244 107.378 61.3486 109.431 66.326Z" fill="#ACB6DF"/>
    <path d="M84.6231 100.021C82.8937 99.0365 84.3875 96.4666 84.6927 95.2187C84.9237 94.2732 85.0468 93.3039 85.1167 92.3345C85.2933 89.8927 85.0563 87.4487 84.9507 85.0094C84.7154 79.5739 85.628 74.2798 87.7994 69.2833C87.9844 68.8574 87.3511 68.4999 87.1648 68.9287C84.7392 74.5108 83.9685 80.2603 84.2893 86.3031C84.4547 89.4165 84.7038 92.61 83.8273 95.6469C83.3317 97.3637 82.2563 99.5099 84.2685 100.655C84.6758 100.888 85.0296 100.253 84.6231 100.021Z" fill="#8F9CC1"/>
    <path d="M90.2012 65.7538C91.299 64.0236 92.6327 62.4926 94.1867 61.1581C94.5417 60.8533 94.0154 60.3518 93.663 60.6543C92.0625 62.0288 90.6965 63.6183 89.5667 65.3993C89.3154 65.7952 89.9516 66.1474 90.2012 65.7538Z" fill="#8F9CC1"/>
</svg>