<svg width="135" height="130" viewBox="0 0 135 108" fill="none" xmlns="http://www.w3.org/2000/svg">
    <path d="M133.02 36.4878C133.02 36.7064 132.994 36.9085 132.94 37.1271C132.94 37.1439 132.928 37.1776 132.928 37.1944C132.874 37.3962 132.795 37.5813 132.689 37.7831C132.676 37.8167 132.648 37.8504 132.635 37.8841C132.53 38.069 132.398 38.2541 132.252 38.4222C132.159 38.54 132.026 38.641 131.908 38.7418C131.801 38.826 131.722 38.9269 131.603 39.0111L127.816 41.803L127.803 49.8769L131.577 47.0848C131.59 47.068 131.616 47.0512 131.643 47.0344C131.735 46.9672 131.801 46.8829 131.881 46.8156C132 46.7146 132.133 46.5971 132.225 46.4793C132.238 46.4625 132.252 46.4625 132.252 46.4457C132.371 46.3111 132.464 46.1764 132.556 46.025C132.582 45.9913 132.596 45.9578 132.609 45.9243C132.635 45.8907 132.648 45.857 132.663 45.8234C132.689 45.7729 132.729 45.7054 132.755 45.6549C132.808 45.5373 132.847 45.4195 132.887 45.3017C132.887 45.2849 132.9 45.2682 132.9 45.2515C132.9 45.2347 132.913 45.2178 132.913 45.1842C132.94 45.1001 132.953 45.0326 132.967 44.9485C132.98 44.8308 132.994 44.7132 132.994 44.5954V44.5449C132.994 42.1899 133.007 39.852 133.007 37.4972V36.5216C133.02 36.5216 133.02 36.5046 133.02 36.4878Z" fill="#A9D5EA"/>
    <path d="M133.503 39.8178C135.494 41.2653 135.494 43.6195 133.531 45.0843L129.618 47.9967L57.0805 101.918L51.0265 106.417C49.0635 107.882 45.8649 107.882 43.888 106.435L1.49631 75.5677C-0.480383 74.1203 -0.507851 71.7834 1.46896 70.3185L83.9734 8.98564C85.9366 7.52075 89.1352 7.5033 91.1256 8.95074L133.503 39.8178Z" fill="black" fill-opacity="0.14"/>
    <path d="M127.807 41.1338L57.5005 92.9973L57.5644 101.752L127.796 49.9083L127.807 41.1338Z" fill="url(#paint0_linear_18_8133)"/>
    <path d="M4.18007 67.9275C3.22665 67.2211 2.73676 66.2958 2.73676 65.3706L2.72363 73.4447C2.72363 74.3698 3.20028 75.2948 4.16682 76.0012L44.9756 105.925L44.9889 97.8512L4.18007 67.9275Z" fill="#94C4DE"/>
    <path d="M51.8895 97.8678C51.5982 98.0865 51.2672 98.2547 50.9229 98.4061C50.8038 98.4566 50.6845 98.5071 50.5522 98.5574C50.3932 98.608 50.2344 98.6752 50.0755 98.709C49.8768 98.7595 49.6783 98.8098 49.4797 98.8433C49.4267 98.8433 49.3868 98.8602 49.3338 98.877C49.0558 98.9105 48.7911 98.9275 48.513 98.9275H48.3938C48.1157 98.9275 47.851 98.9105 47.573 98.877C47.5332 98.877 47.4934 98.8602 47.4536 98.8602C47.1888 98.8265 46.9241 98.7595 46.6593 98.692C46.6195 98.6752 46.5664 98.6584 46.5268 98.6584C46.2884 98.5909 46.0633 98.4904 45.8382 98.3894C45.7985 98.3725 45.7589 98.3556 45.7324 98.3389C45.4676 98.2042 45.2159 98.0529 44.9908 97.8846L44.9775 105.959C45.2026 106.127 45.4412 106.261 45.6795 106.396C45.6927 106.396 45.706 106.413 45.7192 106.413C45.7589 106.429 45.7985 106.446 45.8382 106.463C45.9839 106.53 46.1295 106.598 46.2751 106.648C46.3546 106.682 46.4341 106.699 46.5136 106.732C46.5532 106.749 46.6063 106.766 46.646 106.783C46.6858 106.8 46.7255 106.816 46.7785 106.816C46.9374 106.85 47.0962 106.9 47.2552 106.917C47.3081 106.934 47.361 106.934 47.4271 106.934C47.4669 106.934 47.5067 106.951 47.5597 106.951C47.6127 106.951 47.6787 106.968 47.7317 106.968C47.8907 106.985 48.0495 107.001 48.2083 107.001H48.3541H48.4865H48.6985C48.8838 107.001 49.0559 106.985 49.2414 106.951C49.2677 106.951 49.2809 106.934 49.3073 106.934C49.3603 106.934 49.4001 106.917 49.4531 106.917C49.5987 106.9 49.7311 106.867 49.8635 106.85C49.9297 106.833 49.9828 106.816 50.0358 106.8C50.2079 106.749 50.3667 106.699 50.5257 106.648C50.6052 106.614 50.6977 106.598 50.7904 106.564C50.8301 106.547 50.8567 106.513 50.8964 106.497C51.2407 106.345 51.5584 106.177 51.8497 105.959L57.689 101.652L57.7023 93.5786L51.8895 97.8678Z" fill="#A9D5EA"/>
    <path d="M131.572 33.9498C133.478 35.3459 133.491 37.6169 131.585 39.0298L127.798 41.8219L57.7131 93.562L51.8738 97.8848C49.9804 99.2809 46.895 99.2809 44.9884 97.8848L4.17956 67.9273C2.27285 66.5312 2.2596 64.2605 4.15307 62.8644L83.8641 4.00938C85.7576 2.61341 88.8427 2.61341 90.7626 4.00938L131.572 33.9498Z" fill="#DEF6FF"/>
    <path d="M115.724 26.6994C116.24 27.0695 116.253 27.8431 115.499 28.331C114.982 28.6842 114.32 28.9533 113.804 28.5664L98.9606 17.8686C98.4441 17.4985 99.1061 16.6071 99.6226 16.237C100.126 15.867 100.947 15.867 101.463 16.237L115.724 26.6994Z" fill="#75B1CC"/>
    <path d="M115.27 27.1872C115.786 27.5573 115.786 28.1796 115.283 28.5497C114.78 28.9198 113.946 28.9198 113.429 28.5497L99.169 18.0873C98.6525 17.7172 98.6658 17.1117 99.169 16.7248C99.6722 16.3548 100.493 16.3548 101.009 16.7248L115.27 27.1872Z" fill="#A9D5EA"/>
    <path d="M79.2952 7.3999L9.94629 58.5879L58.0098 94.665L127.832 41.7819L79.2952 7.3999Z" fill="url(#paint1_linear_18_8133)"/>
    <path d="M35.5562 52.2876C33.1577 50.5291 29.2676 50.5291 26.8811 52.2876C24.4946 54.0459 24.5065 56.9109 26.905 58.6693C29.3034 60.4277 33.1934 60.4277 35.58 58.6693C37.9665 56.9109 37.9665 54.0611 35.5562 52.2876Z" fill="black" fill-opacity="0.14"/>
    <path d="M26.0806 53.3032C26.0806 50.9829 26.0845 51.3944 26.0845 51.3944L37.4358 51.4085V53.2619C37.4358 55.937 34.2751 57.5047 31.7081 57.5047C28.7463 57.5047 26.0806 55.6234 26.0806 53.3032Z" fill="#E8C900"/>
    <path d="M27.2681 51.2349C28.4528 50.5451 30.8421 49.1655 30.921 49.1655L35.8081 49.5418L32.2045 55.0602L27.2681 51.2349Z" fill="white"/>
    <path d="M35.7568 48.4319C37.9784 50.0605 37.9894 52.7143 35.7789 54.343C33.5684 55.9717 29.9762 55.9717 27.7435 54.343C25.5218 52.7143 25.5108 50.0605 27.7214 48.4319C29.943 46.789 33.5352 46.789 35.7568 48.4319ZM27.8652 51.1136L32.1425 54.2587C32.7284 53.5286 32.9052 52.7283 32.651 52.0543C33.1262 52.0543 33.6127 51.9279 33.9774 51.6611C34.6958 51.1417 34.6848 50.2852 33.9663 49.7516C33.2479 49.2322 32.0872 49.2181 31.3799 49.7516C31.0151 50.0184 30.8383 50.3695 30.8493 50.7346C29.932 50.5379 28.8489 50.6643 27.8652 51.1136Z" fill="#FFDF02"/>
    <path d="M66.9653 30.1617C64.5091 28.3608 60.5252 28.3608 58.0812 30.1617C55.6372 31.9624 55.6495 34.8964 58.1057 36.6971C60.5619 38.4979 64.5457 38.4979 66.9898 36.6971C69.4338 34.8964 69.4338 31.9779 66.9653 30.1617Z" fill="black" fill-opacity="0.14"/>
    <path d="M57.3853 30.5175C57.3853 28.1973 57.3892 28.6088 57.3892 28.6088L68.7405 28.6228V30.4763C68.7405 33.1513 65.5798 34.7191 63.0128 34.7191C60.0509 34.7191 57.3853 32.8378 57.3853 30.5175Z" fill="#E53399"/>
    <path d="M58.5718 28.4493C59.7565 27.7595 62.1458 26.3799 62.2248 26.3799L67.1119 26.7561L63.5082 32.2746L58.5718 28.4493Z" fill="white"/>
    <path d="M67.0605 25.6472C69.2821 27.2759 69.2932 29.9296 67.0826 31.5583C64.8721 33.187 61.2799 33.187 59.0472 31.5583C56.8255 29.9296 56.8145 27.2759 59.0251 25.6472C61.2467 24.0043 64.8389 24.0043 67.0605 25.6472ZM59.1689 28.3289L63.4462 31.474C64.0321 30.744 64.2089 29.9437 63.9547 29.2697C64.43 29.2697 64.9164 29.1432 65.2811 28.8765C65.9995 28.357 65.9885 27.5005 65.27 26.967C64.5516 26.4475 63.3909 26.4334 62.6836 26.967C62.3188 27.2337 62.142 27.5848 62.1531 27.9499C61.2357 27.7532 60.1526 27.8796 59.1689 28.3289Z" fill="#FF4CAA"/>
    <path d="M77.7765 69.8995C79.7734 71.3735 79.7733 73.7559 77.8035 75.2126L74.0662 77.9721L68.9394 81.7598L59.819 88.4954L56.8104 78.1605L45.1535 69.6081C43.1567 68.1342 43.1432 65.769 45.1265 64.2952L54.0041 57.748C55.9874 56.2912 59.2119 56.274 61.2222 57.748L77.7765 69.8995ZM66.2006 78.9318L67.5498 77.9378L49.8486 64.9464L48.4995 65.9405L66.2006 78.9318ZM73.9427 73.4739L75.2918 72.4799L57.5907 59.4885L56.2416 60.4825L73.9427 73.4739ZM70.2418 76.2839L71.591 75.2899L53.8898 62.2985L52.5407 63.2926L70.2418 76.2839Z" fill="black" fill-opacity="0.14"/>
    <path d="M79.0233 62.0972L59.5 77.2534V81.0807L68.6703 74.3555L73.7972 70.5678L77.5343 67.8085C77.9757 67.344 79.0185 67.0727 79.0185 64.6232C79.0185 64.0108 79.0233 62.0972 79.0233 62.0972Z" fill="#C4C4C4"/>
    <path d="M59.4981 78.0962V81.0815L56.5267 70.7742C56.5267 70.7742 49.391 65.6285 44.8556 62.251C43.1081 60.9497 43.3492 59.4953 43.3492 59.4953V56.6631L45.3376 58.0409L57.8711 66.4611L59.4981 78.0962Z" fill="#94C4DE"/>
    <path d="M77.4912 59.4991C79.488 60.9731 79.5669 63.3214 77.5182 64.8122L73.7809 67.5714L68.6541 71.3593L59.5014 78.0949L56.5252 67.76L44.8684 59.2078C42.8716 57.7338 42.8581 55.3687 44.8414 53.8947L53.7189 47.3475C55.7022 45.8908 58.9267 45.8737 60.937 47.3475L77.4912 59.4991Z" fill="#F8F8FC"/>
    <path d="M64.1495 67.9412V70.6906L47.7222 58.6435V55.894L64.1495 67.9412Z" fill="#277484"/>
    <path d="M65.3972 67.0186V69.7679L64.146 70.6898V67.9402L65.3972 67.0186Z" fill="#38A7BD"/>
    <path d="M65.4025 67.0184L64.1513 67.9401L47.7241 55.893L48.9752 54.9712L65.4025 67.0184Z" fill="#3EB9D3"/>
    <path d="M68.1451 63.7361V66.4856L51.7178 54.4385V51.689L68.1451 63.7361Z" fill="#277484"/>
    <path d="M69.3943 62.8159V65.5653L68.1431 66.4872V63.7376L69.3943 62.8159Z" fill="#38A7BD"/>
    <path d="M69.3981 62.8148L68.1469 63.7365L51.7197 51.6894L52.9708 50.7676L69.3981 62.8148Z" fill="#3EB9D3"/>
    <path d="M71.9366 60.7273V63.4768L55.5093 51.4297V48.6802L71.9366 60.7273Z" fill="#277484"/>
    <path d="M73.1843 59.8062V62.5555L71.9331 63.4774V60.7278L73.1843 59.8062Z" fill="#38A7BD"/>
    <path d="M73.1877 59.8051L71.9364 60.7267L55.5093 48.6796L56.7604 47.7578L73.1877 59.8051Z" fill="#3EB9D3"/>
    <path d="M100.781 84.4457C99.7318 85.9302 99.3624 86.8913 101.189 89.2938C101.525 89.7621 102.291 89.97 102.519 89.9924C103.577 90.0002 104.107 90.6656 104.603 91.3101C104.931 91.7471 105.251 92.1526 105.706 92.3924C107.35 93.2701 110.233 91.834 110.516 90.3326C110.941 88.186 105.902 86.3239 103.795 83.7103C103.745 83.6795 101.808 83.809 100.781 84.4457Z" fill="#161615"/>
    <path d="M111.918 76.0883C112.219 75.8716 112.219 75.4716 112.652 75.0054C112.941 75.7051 113.806 76.4214 114.095 77.088C114.161 77.1379 114.226 77.2045 114.279 77.2379C116.915 79.3371 121.498 81.1157 121.445 83.4483C121.42 85.0976 120.078 86.9312 118.216 86.5145C117.704 86.3981 116.808 85.944 116.388 85.594C115.759 85.0774 114.825 84.6109 113.933 84.3272C113.559 84.2372 112.955 84.0311 112.574 83.7003C110.305 81.7678 111.393 79.9368 110.108 77.5044C110.737 77.0045 111.354 76.5212 111.918 76.0883Z" fill="#161615"/>
    <path d="M104.356 61.8767C104.356 61.8767 104.986 56.595 102.769 51.2802C101.025 47.0649 93.7591 43.2495 93.6804 43.2495C93.6016 43.2495 87.385 46.8317 87.8571 48.1646C88.1194 48.9144 97.615 60.9269 97.7987 61.4934C98.1266 62.4764 98.2052 63.0428 98.0347 64.1427C97.3394 68.4243 98.1135 81.0037 99.3725 84.6523C100.304 87.3348 103.753 86.8349 104.383 85.3689C104.501 85.1023 104.422 64.7756 104.356 61.8767C104.422 64.7756 104.356 61.8601 104.356 61.8767Z" fill="#FD60C9"/>
    <path d="M92.9448 42.9346C93.0105 42.9346 101.024 47.0665 102.768 51.265C104.972 56.58 103.962 60.5286 103.962 60.5286C102.991 58.9792 103.962 60.5286 103.962 60.5286C104.408 61.245 104.395 64.9438 104.434 67.2928C102.152 64.9938 102.086 57.8628 98.8467 60.362C98.2566 60.5951 98.6763 75.7902 99.6992 81.6881C99.8961 82.8378 100.486 85.1202 100.932 86.1366C100.408 86.0698 99.8961 85.8534 99.3713 84.6371C98.6894 81.5716 97.0763 71.275 98.0337 64.1274C98.1779 63.0278 98.1255 62.4614 97.7975 61.4782C97.6139 60.9117 88.1184 48.9158 87.856 48.1494C87.3971 46.8165 92.8661 42.9346 92.9448 42.9346Z" fill="#123E5D" fill-opacity="0.3"/>
    <path d="M89.8782 59.0974C96.0818 58.5141 101.538 57.2979 101.538 57.2979C103.623 66.1949 106.446 73.1253 110.554 79.0623C111.262 78.9456 113.222 77.6531 113.785 76.5534C111.871 72.5881 107.667 52.5422 105.259 49.3956C103.449 47.8629 86.7304 47.4679 86.7304 46.4848C86.7304 46.0851 82.9792 45.5518 82.7039 45.5518C79.5955 45.5185 78.9135 60.097 89.8782 59.0974Z" fill="#FF60CA"/>
    <path d="M82.7136 45.5337C82.989 45.5337 86.74 46.0669 86.74 46.4668C86.74 46.8667 89.4026 47.0166 92.6814 47.1499C92.5109 47.5498 92.288 47.9496 92.0126 48.3495C89.8223 51.4484 84.5499 48.6492 82.7136 52.098C81.5333 54.314 83.9203 56.1303 85.0744 56.6634C90.4255 58.8127 97.744 58.846 101.902 54.3475C103.725 63.3111 106.231 73.4247 111.574 78.6343C111.155 78.9676 110.774 79.0367 110.564 79.0701C106.484 73.2304 103.633 66.1768 101.547 57.2798C101.547 57.2798 96.0914 58.4962 89.8878 59.0793C78.9101 60.0956 79.5921 45.517 82.7136 45.5337Z" fill="#1A4A6C" fill-opacity="0.3"/>
    <path d="M102.647 43.5055C102.647 43.5055 104.903 44.1374 105.504 45.5572C106.116 46.986 106.725 47.6658 106.8 48.8649C106.886 50.073 106.241 50.3467 105.551 49.9564C104.869 49.5521 103.865 48.4805 103.072 47.1048C102.28 45.7291 102.053 45.8439 101.713 45.5931C101.408 45.3317 101.373 43.8305 102.647 43.5055Z" fill="#EEB085"/>
    <path d="M91.7529 14.6937C92.8151 14.2938 94.6778 14.6772 95.1368 18.3759C95.5825 22.0746 97.7394 34.6445 97.7394 34.6445C97.7394 34.6445 103.114 43.6149 104.006 43.9315C104.006 43.9315 101.228 44.1043 101.897 46.0204C101.897 46.0204 96.4423 39.5008 94.5143 37.2016C92.5601 34.9191 87.3855 16.3431 91.7529 14.6937Z" fill="#5FB8E6"/>
    <path d="M80.2109 21.8414C80.2109 21.8414 82.978 16.1434 93.4967 14.6272C93.4967 14.6272 95.1887 13.8109 94.8738 20.6918C94.8213 21.6914 95.5951 23.4243 96.1329 24.3408C96.6576 25.2571 98.0347 28.7725 94.7557 32.7711C94.7557 32.7711 93.3788 38.8692 94.7691 42.8845C96.0019 46.4833 89.0244 49.6822 83.188 48.749C82.4668 48.6325 80.8797 47.9661 81.5879 44.8004C82.2831 41.6181 83.9094 36.0866 82.8734 30.1554C81.7979 24.2073 79.3452 24.8071 80.2109 21.8414Z" fill="#77D2FF"/>
    <path d="M80.2094 21.8419C79.3571 24.8075 81.8094 24.2078 82.8586 30.1392C83.9079 36.0704 82.2817 41.6186 81.5735 44.7842C80.8653 47.9499 82.4522 48.6163 83.1735 48.7328C84.144 48.8995 85.1409 48.9329 86.1114 48.8829C84.1835 43.0848 87.0557 32.8049 87.3312 27.0735C87.6067 21.0088 83.3311 18.4766 83.3311 18.4766C80.9964 20.226 80.2094 21.8419 80.2094 21.8419Z" fill="#5FB8E6"/>
    <path d="M92.1629 4.51271C92.1629 4.51271 91.3235 11.3771 90.8513 17.9249C90.7857 18.858 91.5464 20.5575 92.9236 20.1576C92.9236 20.1576 97.0156 12.5267 94.0646 4.69591C93.1203 2.21352 89.6184 -1.35201 85.4478 2.09684L92.1629 4.51271Z" fill="#2F1706"/>
    <path d="M92.6453 49.665L92.606 50.2816L99.6621 56.6793L99.7014 56.0628L92.6453 49.665Z" fill="#B4B8BB"/>
    <path d="M99.701 56.0631L99.6616 56.6797L112.856 48.9822L112.895 48.3491L99.701 56.0631Z" fill="#7C8183"/>
    <path d="M92.6436 49.6651L99.6995 56.0629L112.894 48.3489L105.838 41.9678L92.6436 49.6651Z" fill="#E2E4E4"/>
    <path d="M92.7772 12.9446C92.7772 12.9446 90.8362 15.6605 91.6362 18.6928C91.8461 19.5258 92.3575 22.9248 88.3705 21.3752C88.3705 21.3752 84.2521 18.5094 85.5505 16.96C86.4162 15.927 87.2687 14.411 86.1801 8.86279L92.7772 12.9446Z" fill="#E8A376"/>
    <path d="M85.5345 16.9616C85.3903 17.1281 85.3245 17.3116 85.3115 17.4949C89.1412 18.6279 91.8691 15.2957 91.8691 15.2957L87.0163 9.48096C87.0163 9.48096 86.7672 9.68083 86.3736 10.0307C87.1213 14.6292 86.3345 15.9953 85.5345 16.9616Z" fill="#DB9569"/>
    <path d="M92.3562 3.16465C92.3562 3.16465 93.4318 3.68107 93.3661 7.7797C93.3532 8.22959 93.9038 8.84602 94.0349 9.97902C94.153 11.1287 94.2317 15.6771 92.1463 16.0769C90.638 16.3603 86.9525 15.0106 85.8246 10.3789C84.6967 5.73053 87.9232 -0.0508475 92.3562 3.16465Z" fill="#F0B186"/>
    <path d="M92.1105 4.79677C92.1105 4.79677 82.7855 8.72885 89.3434 24.0737C89.3434 24.0737 84.5169 24.4734 82.4969 19.1419C81.5264 16.5762 82.0641 11.4945 82.4838 6.62954C82.4838 6.62954 83.7299 -0.818077 88.6349 0.498273C88.6481 0.498273 91.8745 2.21437 92.1105 4.79677Z" fill="#221202"/>
    <path d="M92.107 4.79746C92.107 4.79746 93.7334 4.46424 94.4285 8.27965C94.4285 8.27965 94.4285 -2.38346 86.4019 0.532305C86.4019 0.532305 91.1234 1.01539 92.107 4.79746Z" fill="#2F1706"/>
    <path d="M87.6347 11.2119C87.6347 11.2119 87.1232 8.92953 86.0871 9.57929C85.7592 9.77917 85.3919 10.2456 85.851 11.4284C86.31 12.6114 87.3068 13.711 88.1068 13.6111L87.6347 11.2119Z" fill="#F0B186"/>
    <path d="M96.5558 45.6611C96.5558 45.6611 98.8641 45.8445 99.638 47.1274C100.412 48.4102 101.474 49.7598 101.71 50.9261C101.933 52.0923 101.736 52.5088 101.015 52.2423C100.294 51.9757 98.3919 50.3262 97.4344 49.1267C96.4641 47.927 96.2672 48.077 95.9132 47.8938C95.5589 47.7104 95.336 46.2276 96.5558 45.6611Z" fill="#EEB085"/>
    <path d="M95.9117 47.8876C96.2657 48.0708 96.4755 47.921 97.4331 49.1205C98.3905 50.3201 100.292 51.9696 101.014 52.2361C101.119 52.2695 101.21 52.3028 101.289 52.3028C100.738 51.5197 99.7808 50.1701 98.9283 49.0206C97.8659 47.5877 96.1871 46.988 95.6494 46.8213C95.5839 47.3212 95.7281 47.7876 95.9117 47.8876Z" fill="#DB9569"/>
    <path d="M81.4174 20.6247C82.506 20.3415 84.3421 20.9246 84.5388 24.6567C84.7486 28.3888 88.5691 38.6855 88.5691 38.6855C88.5691 38.6855 96.1005 45.0927 96.9661 45.4926C96.9661 45.4926 95.484 46.1924 96.035 48.1583C96.035 48.1583 87.3121 44.5871 85.5284 42.1046C83.7709 39.622 76.5599 22.2516 81.4174 20.6247Z" fill="#8DDFFF"/>
    <path d="M101.826 45.4335L101.301 44.8169L99.0981 56.0299L99.6229 56.6463L101.826 45.4335Z" fill="#BCBABA"/>
    <path d="M115.61 37.3868L115.086 36.7705L101.301 44.8177L101.826 45.4343L115.61 37.3868Z" fill="#D2D0D0"/>
    <path d="M101.828 45.433L99.6245 56.646L113.422 48.5819L115.612 37.3857L101.828 45.433Z" fill="#D4DFE6"/>
    <path d="M101.825 45.433L113.419 48.5821L115.609 37.3857L101.825 45.433Z" fill="#E9EFF4"/>
    <defs>
        <linearGradient id="paint0_linear_18_8133" x1="57.8136" y1="71.8816" x2="127.798" y2="71.8585" gradientUnits="userSpaceOnUse">
            <stop stop-color="#1B4B92"/>
            <stop offset="0.5" stop-color="#1B53A2"/>
            <stop offset="1" stop-color="#1A5CB2"/>
        </linearGradient>
        <linearGradient id="paint1_linear_18_8133" x1="21.9888" y1="89.4768" x2="123.965" y2="41.8695" gradientUnits="userSpaceOnUse">
            <stop stop-color="#1A6BB2"/>
            <stop offset="0.5" stop-color="#1B5BA2"/>
            <stop offset="1" stop-color="#1B4B92"/>
        </linearGradient>
    </defs>
</svg>