<svg width="136" height="130" viewBox="0 0 136 114" fill="none" xmlns="http://www.w3.org/2000/svg">
    <path d="M128.604 99.9462C128.604 99.9462 98.0986 88.0377 67.3742 88.2504C36.6498 88.463 8.33948 100.159 8.33948 100.159L0 113.981L135.846 112.28L128.604 99.9462Z" fill="#00CCA7"/>
    <path d="M34.1235 0C43.2074 0 50.5829 7.14666 50.5829 15.9488C50.5829 24.7509 43.2074 31.8976 34.1235 31.8976C25.0395 31.8976 17.6641 24.7509 17.6641 15.9488C17.6641 7.14666 25.0395 0 34.1235 0Z" fill="#00CCA7"/>
    <path d="M70.9952 25.6726C70.7757 25.6194 70.3368 25.7258 70.3368 25.7258C70.3368 25.7258 68.4714 29.713 67.9776 29.8193C67.4838 29.9256 72.2022 33.1154 72.2571 33.0623C72.312 33.0091 72.9703 31.1484 73.1349 30.9357C73.2995 30.7231 73.519 29.2877 73.4093 28.9687C73.2995 28.6497 71.2147 25.7258 70.9952 25.6726Z" fill="#E6AC83"/>
    <path d="M61.4454 24.5577C56.727 24.7704 56.7819 28.9171 56.7819 28.9171C56.7819 28.9171 55.6846 31.3626 54.1483 32.4258C52.6121 33.4891 53.3209 35.9185 53.8192 36.1472C54.8616 36.6257 54.3678 37.2105 54.3129 37.2637C54.2581 37.3168 52.7767 39.975 52.7767 40.2408C52.7767 40.5066 51.149 40.2862 50.2529 41.2509C48.7716 42.8458 50.5821 44.547 50.5821 44.547C50.5821 44.547 49.6494 45.0786 49.6494 45.4508C49.6494 45.8229 50.0883 46.833 50.7467 46.833C51.4051 46.833 49.6494 51.7772 54.6421 53.1594C59.6348 54.5416 61.7197 53.0531 61.8294 52.9467C61.9392 52.8404 64.207 51.3879 63.4754 49.5975C57.1111 34.0207 68.3584 30.3525 68.3584 30.193C68.3584 30.0335 69.2308 24.2068 61.4454 24.5577Z" fill="#0B0B29"/>
    <path d="M61.4454 24.5577C56.727 24.7704 56.7819 28.9171 56.7819 28.9171C56.7819 28.9171 55.6846 31.3626 54.1483 32.4258C52.6121 33.4891 53.3209 35.9185 53.8192 36.1472C54.8616 36.6257 54.3678 37.2105 54.3129 37.2637C54.2581 37.3168 52.7767 39.975 52.7767 40.2408C52.7767 40.5066 51.149 40.2862 50.2529 41.2509C48.7716 42.8458 50.5821 44.547 50.5821 44.547C50.5821 44.547 49.6494 45.0786 49.6494 45.4508C49.6494 45.8229 50.0883 46.833 50.7467 46.833C51.4051 46.833 49.6494 51.7772 54.6421 53.1594C59.6348 54.5416 61.7197 53.0531 61.8294 52.9467C61.9392 52.8404 64.207 51.3879 63.4754 49.5975C57.1111 34.0207 68.3584 30.3525 68.3584 30.193C68.3584 30.0335 69.2308 24.2068 61.4454 24.5577Z" stroke="#161551" stroke-width="0.599902"/>
    <path d="M70.1741 30.0321C67.2662 28.065 63.5354 33.3813 61.9992 36.6243C60.463 39.8672 62.877 48.0011 62.9868 48.2138C63.0965 48.4264 72.7527 48.2138 73.1368 47.3632C73.5208 46.5126 73.466 45.8746 73.5208 42.5254C73.5757 39.1761 72.6979 35.3484 72.4784 33.9661C72.2589 32.5839 71.1368 30.6833 70.1741 30.0321Z" fill="#E9E8E8"/>
    <path d="M70.1741 30.0321C67.2662 28.065 63.5354 33.3813 61.9992 36.6243C60.463 39.8672 62.877 48.0011 62.9868 48.2138C63.0965 48.4264 72.7527 48.2138 73.1368 47.3632C73.5208 46.5126 73.466 45.8746 73.5208 42.5254C73.5757 39.1761 72.6979 35.3484 72.4784 33.9661C72.2589 32.5839 71.1368 30.6833 70.1741 30.0321Z" stroke="#161551" stroke-width="0.599902"/>
    <path d="M67.2879 29.2078L67.3153 29.6597C67.3153 29.6597 72.1983 30.085 71.1559 34.2849C70.1134 38.4847 60.5669 41.3024 60.1829 40.9834C59.7988 40.6644 59.7988 42.3125 59.7988 42.3125C59.7988 42.3125 73.5288 38.405 72.3629 33.4342C71.5399 29.9255 68.6157 29.2993 68.3029 29.2344C67.9188 29.1546 67.2879 29.2078 67.2879 29.2078Z" fill="#0B0B29"/>
    <path d="M75.2222 21.1822C73.5763 20.8893 71.0251 20.9683 70.2567 22.0314C69.4882 23.0944 69.8445 24.2375 70.2282 25.3009C70.6119 26.3642 72.5128 29.8361 74.7255 30.3527C76.5497 30.7785 76.4678 29.4494 76.4678 29.4494C76.4678 29.4494 76.8272 28.8015 77.1621 27.9374C77.1966 27.8484 77.6268 28.0571 77.7305 27.9168C78.2379 27.2304 77.4892 25.9275 77.4293 25.1701C77.2926 23.4422 76.8681 21.4751 75.2222 21.1822Z" fill="#E6AC83"/>
    <path d="M76.2967 24.7579C76.3762 24.7579 76.4406 24.8293 76.4406 24.9173C76.4406 25.0052 76.3761 25.0766 76.2966 25.0766C76.2172 25.0766 76.1528 25.0051 76.1528 24.9172C76.1528 24.8292 76.2173 24.7578 76.2967 24.7579Z" fill="#171616"/>
    <path d="M76.3168 19.2959C75.7682 19.0299 72.8055 18.8695 73.1892 20.1456C73.5728 21.4216 74.6152 21.7409 74.9442 22.3789C75.2732 23.017 76.0954 24.5594 77.5217 24.9851C78.9481 25.4108 80.5934 26.1041 81.1427 24.2436C81.6919 22.383 80.8141 22.1697 80.485 21.9569C80.1559 21.7442 79.0886 21.9164 78.7298 21.6895C77.4681 20.8917 76.8653 19.5618 76.3168 19.2959Z" fill="#341B07"/>
    <path d="M72.9379 17.778C70.6611 17.4583 70.7976 19.5317 70.7976 19.5583C70.7976 19.5849 69.6181 19.1326 68.5479 20.3019C67.4777 21.4712 68.4647 23.0664 68.5196 23.1461C68.5744 23.2259 69.1774 23.9433 69.2596 24.3686C69.3417 24.794 69.8076 26.3092 69.7802 26.3624C69.7527 26.4155 70.7128 26.4424 70.7403 26.3893C70.7677 26.3361 70.8502 25.9374 70.6309 25.2728C70.4117 24.6082 70.0005 23.5714 71.427 23.4655C72.8535 23.3596 72.5513 24.7949 72.5513 24.7949L73.4293 24.5028C73.4293 24.5028 73.7311 24.2105 73.594 23.9712C73.4569 23.7319 72.8262 23.1203 73.1555 22.6686C73.4849 22.2168 74.253 21.9512 74.5822 22.0842C74.9113 22.2172 76.8317 21.8722 76.9416 21.4203C77.0515 20.9685 76.8599 19.533 76.3662 19.2937C75.8725 19.0543 75.2147 18.0976 72.9379 17.778Z" fill="#341B07"/>
    <path d="M73.5705 24.4373C73.6116 24.424 72.7749 24.3041 72.5965 24.7161C72.4181 25.128 71.9645 27.9987 72.6089 28.916C73.2533 29.8332 74.7207 30.4982 75.2831 30.4585C75.8455 30.4188 76.3805 30.0069 76.4217 29.8607C76.4629 29.7145 76.5454 29.1563 76.71 28.9969C76.8747 28.8375 77.0944 28.1464 77.0944 28.1464C77.0944 28.1464 76.9985 27.6546 76.1619 27.4949C75.3252 27.3352 74.7627 27.9729 74.7078 28.0793C74.6529 28.1856 73.967 28.2917 73.8436 28.1189C73.7202 27.9461 73.2676 27.8928 73.1719 27.0288C73.0761 26.1649 73.5293 24.4505 73.5705 24.4373Z" fill="#341B07"/>
    <path d="M83.6453 84.5596L86.2954 89.1818L97.4373 83.1839L98.3048 82.717C98.3048 82.717 97.5777 80.5153 94.8428 81.5161C92.1077 82.5168 91.6155 82.9882 90.6248 82.5609C90.0617 82.3179 89.6585 81.8 89.4285 81.4309C89.2891 81.2071 88.9945 81.1284 88.7588 81.2552L83.8388 83.9037C83.5984 84.0332 83.5119 84.3267 83.6453 84.5596Z" fill="#161551"/>
    <path d="M89.3069 82.9174C89.3648 83.0181 89.4956 83.0546 89.5995 82.9985C89.7037 82.9428 89.741 82.8158 89.6832 82.7149C89.6253 82.6142 89.4946 82.578 89.3904 82.634C89.2866 82.6899 89.2491 82.8165 89.3069 82.9174Z" fill="#00CCA7"/>
    <path d="M90.3445 83.4139C90.4023 83.5148 90.5333 83.5509 90.6371 83.495C90.7414 83.4391 90.7787 83.3121 90.721 83.2112C90.663 83.1105 90.5323 83.0743 90.4282 83.1303C90.3244 83.1863 90.2869 83.3131 90.3445 83.4139Z" fill="#00CCA7"/>
    <path d="M91.7099 83.33C91.7675 83.4308 91.8986 83.4669 92.0025 83.4111C92.1066 83.3551 92.144 83.2281 92.086 83.1274C92.0285 83.0267 91.8975 82.9903 91.7934 83.0463C91.6896 83.1023 91.652 83.2293 91.7099 83.33Z" fill="#00CCA7"/>
    <path d="M93.0731 82.8344C93.1309 82.9352 93.2618 82.9713 93.3657 82.9155C93.4698 82.8595 93.5072 82.7325 93.4494 82.6316C93.3917 82.531 93.2607 82.4947 93.1568 82.5508C93.0528 82.6066 93.0153 82.7335 93.0731 82.8344Z" fill="#00CCA7"/>
    <path d="M86.2182 90.021L90.9828 87.2846L91.3049 87.8378L86.4345 90.4535L86.2182 90.021Z" fill="#161551"/>
    <path d="M85.8382 89.4151L86.2889 90.2139L95.7679 85.0987L99.2491 83.2201L98.8112 82.4297L95.3638 84.2859L85.8382 89.4151Z" fill="#161551"/>
    <path d="M86.2393 89.1216C86.2393 89.1216 93.6462 85.168 94.7588 84.5635C95.8714 83.959 98.2533 82.667 98.2533 82.667" stroke="#00CCA7" stroke-width="1.25979"/>
    <path d="M75.1036 67.11C76.8608 71.1915 82.0305 81.8223 82.1982 81.9595C82.3659 82.0967 89.4564 78.5742 89.5718 78.112C89.6873 77.6499 83.6335 63.2304 82.8963 62.3465C82.8663 62.3104 81.8081 61.5035 81.1781 61.3621C78.9686 60.9701 73.689 63.8241 75.1036 67.11Z" fill="#2A2876"/>
    <path d="M67.606 52.191C67.7679 53.1818 65.5178 53.1047 74.4655 65.9959C74.6054 66.1975 76.3815 69.2933 79.8219 68.3244C83.075 67.4083 83.673 63.8959 83.3115 63.053C82.6458 61.5006 75.7852 50.8829 72.285 45.1311C71.5047 43.8488 67.4442 51.2003 67.606 52.191Z" fill="#2A2876"/>
    <path d="M50.694 83.8514L48.1675 88.538C48.1675 88.538 55.8666 91.6256 57.2699 92.1301C58.7937 92.6779 61.1502 92.9329 61.1502 92.9329C61.1502 92.9329 62.5033 90.5116 59.7124 90.2482C57.4139 90.1277 55.8033 89.5361 55.9433 88.4111C56.0148 87.8209 56.3795 87.1999 56.5712 86.8109C56.6876 86.575 56.5934 86.2933 56.3543 86.1723L51.3656 83.6471C51.1219 83.5238 50.8212 83.6152 50.694 83.8514Z" fill="#161551"/>
    <path d="M47.2896 89.0914C47.2896 89.0914 54.0816 92.375 56.1045 93.1568C57.8601 93.8353 61.1779 93.7499 61.1779 93.7499L61.3608 92.9466C61.3608 92.9466 59.7753 92.743 57.256 91.8865C54.8512 91.069 47.7555 88.3425 47.7555 88.3425L47.2896 89.0914Z" fill="#161551"/>
    <path d="M55.2255 87.5287C55.1703 87.6308 55.2113 87.7569 55.3166 87.8101C55.422 87.8636 55.5521 87.8242 55.607 87.7218C55.6622 87.6198 55.6214 87.4938 55.5159 87.4405C55.4106 87.3869 55.2805 87.4267 55.2255 87.5287Z" fill="#00CCA7"/>
    <path d="M55.3685 88.6441C55.3134 88.746 55.3541 88.8722 55.4596 88.9255C55.565 88.9789 55.6952 88.9394 55.7501 88.8371C55.8051 88.7349 55.7643 88.6089 55.659 88.5557C55.5535 88.5024 55.4235 88.5419 55.3685 88.6441Z" fill="#00CCA7"/>
    <path d="M55.9711 89.7944C55.9161 89.8966 55.9569 90.0225 56.0622 90.0757C56.1676 90.1293 56.2977 90.0898 56.3526 89.9875C56.4079 89.8854 56.367 89.7595 56.2615 89.7061C56.1561 89.6527 56.0261 89.6923 55.9711 89.7944Z" fill="#00CCA7"/>
    <path d="M57.2015 90.3999C57.1463 90.502 57.1871 90.628 57.2926 90.6813C57.3981 90.7347 57.5282 90.6952 57.5831 90.5929C57.6382 90.4907 57.5972 90.3649 57.492 90.3115C57.3866 90.2582 57.2566 90.2978 57.2015 90.3999Z" fill="#00CCA7"/>
    <path d="M47.4418 88.8133L52.3843 91.2882L51.9472 91.8781L47.0645 89.4372L47.4418 88.8133Z" fill="#161551"/>
    <path d="M48.1712 88.5358C48.1712 88.5358 53.1564 91.2922 56.6186 92.4258C58.4314 93.02 61.1279 92.9648 61.1279 92.9648" stroke="#00CCA7" stroke-width="0.806268"/>
    <path d="M62.6811 64.0716C60.8085 63.5644 57.6511 64.8258 57.6511 64.8258C57.6511 64.8258 51.4037 80.7515 51.5723 81.2925C51.741 81.8335 59.8305 84.0372 59.9526 84.0485C60.0747 84.0598 67.0795 68.8976 66.9136 68.2006C66.5298 66.5889 64.5537 64.5789 62.6811 64.0716Z" fill="#2A2976"/>
    <path d="M73.4652 48.0316C73.5315 47.8137 65.1872 43.2662 63.8029 43.9862C62.4186 44.7061 61.4725 45.7461 60.7195 48.6577C59.9665 51.5694 58.2672 62.5974 58.1624 62.8998C58.0243 63.2983 58.0999 63.8194 57.6427 64.584C57.4038 64.9836 56.9206 69.4404 60.8553 70.9195C64.7899 72.3987 66.8401 68.4372 66.8401 68.4372C66.8401 68.4372 68.3868 63.9749 68.555 62.4336C68.7232 60.8922 71.577 51.1271 71.577 51.1271C71.577 51.1271 73.3988 48.2494 73.4652 48.0316Z" fill="#2A2976"/>
    <path d="M73.6284 46.2754L61.2015 46.9931L60.9546 47.8703C60.9546 47.8703 73.1539 47.8781 73.5735 47.4716C73.6558 47.3918 73.6284 46.2754 73.6284 46.2754Z" fill="#0B0B29"/>
    <path d="M80.3968 40.2838L85.2581 35.4919C85.3883 35.3637 85.5999 35.3589 85.7361 35.4813L85.8137 35.5512C85.9554 35.6785 85.9605 35.8942 85.8252 36.0275L80.9559 40.8301C80.8142 40.9699 80.5788 40.9611 80.4487 40.811L80.3787 40.7305C80.2651 40.5994 80.2728 40.406 80.3968 40.2838Z" fill="#0F1029"/>
    <path d="M76.4298 41.8999L78.893 41.3761C78.979 40.7403 80.2169 39.6132 80.7111 39.1861C80.9057 39.0176 81.2236 39.1358 81.2378 39.3885C81.2431 39.4829 81.2273 39.6015 81.1781 39.7497C81.1781 39.7497 82.9952 39.4104 82.6008 40.5932C82.6008 40.5932 83.313 40.7762 82.9641 41.5186C82.9641 41.5186 83.5256 41.7135 83.1675 42.4167C83.1675 42.4167 83.5054 42.8982 82.8177 43.5078C82.1298 44.1174 79.7666 44.012 79.7666 44.012L76.8156 44.9374L76.4298 41.8999Z" fill="#E6AC83"/>
    <path d="M69.5631 30.512C68.5756 30.0069 67.4941 30.6177 66.9296 31.0436C63.8297 33.3828 62.1015 37.1042 61.0042 40.294C59.9069 43.4837 60.8945 46.0356 60.8945 46.0887C60.8945 46.1419 61.7759 47.3261 63.6926 45.7166C66.1615 43.6432 70.825 34.3397 70.8799 34.127C70.9348 33.9144 71.6936 31.6015 69.5631 30.512Z" fill="#00CCA7"/>
    <path d="M69.5631 30.512C68.5756 30.0069 67.4941 30.6177 66.9296 31.0436C63.8297 33.3828 62.1015 37.1042 61.0042 40.294C59.9069 43.4837 60.8945 46.0356 60.8945 46.0887C60.8945 46.1419 61.7759 47.3261 63.6926 45.7166C66.1615 43.6432 70.825 34.3397 70.8799 34.127C70.9348 33.9144 71.6936 31.6015 69.5631 30.512Z" stroke="#161551" stroke-width="0.599902"/>
    <path d="M77.2227 40.7718C77.1733 40.5843 76.4001 40.7491 76.4001 40.7491C76.4001 40.7491 73.1911 41.6178 70.6542 42.0265C68.1174 42.4351 65.9863 42.1104 64.8284 42.2911C63.6705 42.4719 60.8893 43.7248 60.6904 44.8893C60.4915 46.0539 61.0526 47.5054 64.3839 48.076C67.7153 48.6466 77.4551 45.9371 77.7888 45.7867C78.1225 45.6364 78.0269 45.1551 78.0818 45.1566C78.1366 45.1581 77.2721 40.9593 77.2227 40.7718Z" fill="#00CCA7"/>
    <path d="M77.2227 40.7718C77.1733 40.5843 76.4001 40.7491 76.4001 40.7491C76.4001 40.7491 73.1911 41.6178 70.6542 42.0265C68.1174 42.4351 65.9863 42.1104 64.8284 42.2911C63.6705 42.4719 60.8893 43.7248 60.6904 44.8893C60.4915 46.0539 61.0526 47.5054 64.3839 48.076C67.7153 48.6466 77.4551 45.9371 77.7888 45.7867C78.1225 45.6364 78.0269 45.1551 78.0818 45.1566C78.1366 45.1581 77.2721 40.9593 77.2227 40.7718Z" stroke="#161551" stroke-width="0.599902"/>
    <path d="M108.574 11.4397C108.574 15.2783 105.362 18.39 101.401 18.39C97.4398 18.39 94.2285 15.2783 94.2285 11.4397C94.2285 7.60151 97.4398 4.49023 101.401 4.49023C105.362 4.49023 108.574 7.60151 108.574 11.4397Z" fill="#00CCA7"/>
    <path d="M95.0986 14.7618L101.399 24.4824L107.751 14.668L95.0986 14.7618Z" fill="#00CCA7"/>
    <path d="M104.142 11.3221C104.142 12.7931 102.912 13.9854 101.393 13.9854C99.8751 13.9854 98.6445 12.7931 98.6445 11.3221C98.6445 9.85106 99.8751 8.65869 101.393 8.65869C102.912 8.65869 104.142 9.85106 104.142 11.3221Z" fill="#00CCA7"/>
</svg>