<svg width="32" height="37" viewBox="0 0 32 37" fill="none" xmlns="http://www.w3.org/2000/svg">
<path d="M16 0C10.486 0 6 4.08956 6 9.11628V14.586H4C1.794 14.586 0 16.2215 0 18.2326V32.8186C0 34.8297 1.794 36.4651 4 36.4651H28C30.206 36.4651 32 34.8297 32 32.8186V18.2326C32 16.2215 30.206 14.586 28 14.586H26V9.11628C26 4.08956 21.514 0 16 0ZM28 18.2326L28.004 32.8186H4V18.2326H28ZM10 14.586V9.11628C10 6.10061 12.692 3.64651 16 3.64651C19.308 3.64651 22 6.10061 22 9.11628V14.586H10Z" fill="#00CCA7"/>
</svg>
