<svg width="32" height="32" viewBox="0 0 32 32" fill="none" xmlns="http://www.w3.org/2000/svg">
<path d="M23.6369 13.7248L16.0124 8.13551C13.4709 9.99855 10.9294 11.8617 8.38789 13.7248L11.3002 22.7683H20.7247L23.6369 13.7248ZM22.6202 14.0581L20.0963 21.8958H11.9285L9.40461 14.0581L16.0124 9.21409L22.6202 14.0581ZM16.0124 0C14.5637 0.020969 13.0826 0.158533 11.7097 0.633994C10.8578 1.08541 11.4545 2.51572 12.3706 2.22336C14.625 1.60945 17.0182 1.61065 19.2923 2.11471C20.226 2.19073 20.5199 0.725133 19.6305 0.428355C18.4513 0.129411 17.2271 0.00563946 16.0124 0ZM25.0242 2.9629C24.1115 2.85732 23.7518 4.23321 24.5703 4.62666C26.4035 5.99957 27.8626 7.8429 28.8805 9.89861C29.4056 10.682 30.722 9.99726 30.3952 9.11075C29.2589 6.7017 27.4996 4.57713 25.3345 3.04548C25.235 3.00091 25.1321 2.97516 25.0242 2.9629ZM6.65038 3.31014C5.88841 3.39967 5.41031 4.12714 4.84487 4.5893C3.38066 6.04243 2.16286 7.77184 1.37105 9.68774C1.10498 10.5947 2.46469 11.1871 2.93548 10.3694C3.90057 8.17827 5.40303 6.24482 7.26189 4.7553C7.73758 4.23539 7.35166 3.32267 6.65038 3.31014ZM16.0124 3.31733C15.3139 3.38415 14.3231 3.15483 13.9786 3.95841C13.6971 4.69842 14.5143 5.32955 15.1956 5.09404C17.0022 4.94637 18.8269 5.29923 20.4895 6.01018C21.3908 6.26778 21.9608 4.88763 21.1453 4.42223C19.545 3.6795 17.771 3.32255 16.0124 3.31733ZM10.5333 4.69542C9.69785 4.84788 9.01624 5.46275 8.32267 5.93334C7.11976 6.88218 6.00489 8.01509 5.26633 9.36943C4.93549 10.2816 6.32883 10.9366 6.81311 10.0986C7.85796 8.42686 9.4085 7.14535 11.0976 6.18843C11.6426 5.68466 11.2692 4.71089 10.5333 4.69542ZM24.436 6.83155C23.5613 6.76115 23.2155 8.01586 23.9346 8.47461C25.2601 9.82811 26.1234 11.5659 26.6829 13.362C27.1506 14.211 28.5519 13.5737 28.2402 12.656C27.6363 10.5177 26.4889 8.51862 24.8888 6.9856C24.7533 6.89486 24.5981 6.8426 24.436 6.83155ZM4.46716 12.9468C3.64521 12.8762 3.47126 13.7813 3.42077 14.4166C3.16464 16.3647 3.32706 18.3873 3.98263 20.2415C4.38894 21.0938 5.79018 20.6102 5.59491 19.6851C4.98095 17.8002 4.87942 15.7645 5.26087 13.8209C5.26709 13.3766 4.90596 12.979 4.46716 12.9468ZM31.1538 14.5628C30.4082 14.5253 30.1399 15.3556 30.2755 15.971C30.318 18.3874 29.7049 20.7892 28.6154 22.933C28.3059 23.8258 29.6353 24.4845 30.1451 23.6909C31.5101 21.1195 32.161 18.1483 31.9661 15.2362C31.8796 14.8596 31.5366 14.5751 31.1538 14.5628ZM0.956852 15.1396C0.174967 15.0657 -0.0866125 15.9221 0.0243024 16.5566C0.0918369 18.995 0.685348 21.4371 1.8329 23.5877C2.36736 24.3646 3.67542 23.6637 3.33797 22.7813C2.25597 20.6457 1.71507 18.2491 1.73507 15.8528C1.66712 15.4724 1.33856 15.1711 0.956852 15.1396ZM27.744 17.1825C26.967 17.1349 26.7918 17.9881 26.7228 18.5888C26.3694 20.2973 25.5206 21.8519 24.5071 23.242C24.0998 24.1222 25.4324 24.8955 25.9861 24.1027C27.3481 22.3523 28.2827 20.2379 28.5691 18.0264C28.5591 17.5822 28.1837 17.1983 27.744 17.1825ZM6.85699 22.9235C6.04931 22.9421 5.77459 24.0567 6.38745 24.5296C7.77949 26.1522 9.57443 27.4441 11.5813 28.1634C12.4913 28.3875 13.011 26.9873 12.1792 26.5523C10.3435 25.8453 8.70969 24.6479 7.45591 23.1227C7.28716 22.9855 7.07336 22.9146 6.85699 22.9235ZM21.9142 25.6499C21.1036 25.8462 20.4103 26.4176 19.5889 26.6323C18.3861 27.0942 17.0897 27.1735 15.8308 27.3023C14.9621 27.6128 15.258 29.0474 16.1771 28.9819C18.3784 28.9478 20.589 28.35 22.4696 27.1863C23.0739 26.6867 22.6967 25.6393 21.9142 25.6499ZM6.34638 27.0696C5.51339 27.0784 5.2367 28.3 5.9507 28.7035C7.93656 30.3204 10.3092 31.4789 12.8185 31.961C13.7522 32.0371 14.0461 30.5714 13.1566 30.2747C10.8324 29.7795 8.64413 28.7022 6.81204 27.1777C6.66829 27.101 6.50879 27.0644 6.34638 27.0696ZM25.5537 27.1577C24.7882 27.249 24.3127 28.0074 23.6323 28.327C22.1159 29.3285 20.3806 29.9228 18.6364 30.352C17.7637 30.7607 18.2903 32.2188 19.2195 31.9721C21.7634 31.4408 24.1997 30.2953 26.1828 28.5951C26.6521 28.0694 26.255 27.1615 25.5537 27.1577Z" fill="#00CCA7"/>
</svg>
