<svg width="420" height="420" viewBox="0 0 420 420" fill="none" xmlns="http://www.w3.org/2000/svg">
<g clip-path="url(#clip0_1_7662)">
<path d="M56.0019 350.316L83.8096 349.157L83.8183 349.367L56.0107 350.526L56.0019 350.316Z" fill="#EBEBEB"/>
<path d="M155.741 348.446L163.037 348.142L163.046 348.352L155.75 348.656L155.741 348.446Z" fill="#EBEBEB"/>
<path d="M84.3255 341.333L100.438 340.661L100.446 340.871L84.3343 341.543L84.3255 341.333Z" fill="#EBEBEB"/>
<path d="M353.165 331.539L389.428 330.028L389.436 330.238L353.174 331.749L353.165 331.539Z" fill="#EBEBEB"/>
<path d="M340.366 332.072L345.681 331.851L345.689 332.06L340.375 332.282L340.366 332.072Z" fill="#EBEBEB"/>
<path d="M244.583 339.614L323.237 336.336L323.246 336.546L244.592 339.824L244.583 339.614Z" fill="#EBEBEB"/>
<path d="M231.455 291.96L393.583 285.203C394.854 285.15 396.053 284.594 396.914 283.657C397.776 282.721 398.23 281.48 398.177 280.209L388.679 52.3156C388.616 51.0519 388.055 49.8645 387.12 49.0119C386.185 48.1593 384.952 47.7105 383.687 47.7633L221.56 54.52C220.93 54.5462 220.312 54.6962 219.741 54.9614C219.169 55.2265 218.655 55.6017 218.229 56.0654C217.802 56.5292 217.471 57.0724 217.254 57.6641C217.037 58.2558 216.939 58.8843 216.966 59.5139L226.461 287.365C226.488 287.995 226.638 288.613 226.903 289.185C227.168 289.756 227.543 290.27 228.007 290.697C228.471 291.123 229.014 291.454 229.606 291.671C230.197 291.888 230.826 291.986 231.455 291.96ZM383.694 47.9312C384.91 47.8828 386.094 48.3179 386.989 49.1413C387.884 49.9648 388.417 51.1093 388.47 52.3244L397.967 280.218C398.016 281.433 397.58 282.618 396.757 283.513C395.934 284.408 394.789 284.94 393.574 284.993L231.447 291.75C230.231 291.798 229.047 291.363 228.152 290.54C227.256 289.716 226.724 288.572 226.671 287.357L217.174 59.4632C217.125 58.248 217.561 57.0631 218.384 56.168C219.207 55.273 220.352 54.7408 221.567 54.6879L383.694 47.9312Z" fill="#EBEBEB"/>
<path d="M49.846 299.528L211.973 292.772C213.245 292.719 214.443 292.163 215.305 291.226C216.166 290.29 216.621 289.049 216.568 287.778L207.07 59.8845C207.006 58.6207 206.446 57.4333 205.511 56.5808C204.576 55.7282 203.342 55.2794 202.078 55.3321L39.9507 62.0888C38.6792 62.1418 37.4808 62.6977 36.6192 63.6343C35.7576 64.5708 35.3033 65.8113 35.3563 67.0828L44.8521 294.934C44.9051 296.206 45.461 297.404 46.3976 298.266C47.3341 299.127 48.5745 299.581 49.846 299.528ZM202.085 55.5C203.3 55.4516 204.485 55.8868 205.38 56.7102C206.275 57.5336 206.807 58.6782 206.86 59.8932L216.358 287.787C216.406 289.002 215.971 290.187 215.148 291.082C214.324 291.977 213.18 292.509 211.965 292.562L49.8373 299.319C48.6221 299.367 47.4372 298.932 46.5421 298.108C45.6471 297.285 45.1149 296.14 45.062 294.925L35.5645 67.032C35.5161 65.8168 35.9512 64.6319 36.7746 63.7369C37.598 62.8418 38.7426 62.3096 39.9577 62.2567L202.085 55.5Z" fill="#EBEBEB"/>
<path d="M13.3735 338.56L433.175 321.065L433.184 321.275L13.3822 338.77L13.3735 338.56Z" fill="#EBEBEB"/>
<path d="M327.702 316.664L319.67 298.1L320.787 298.054L329.322 316.597L327.702 316.664Z" fill="#FF7900"/>
<path d="M324.949 316.879L315.316 303.68L316.189 303.442L326.213 316.532L324.949 316.879Z" fill="#FF7900"/>
<path d="M359.316 315.297L365.775 296.129L364.659 296.176L357.687 315.365L359.316 315.297Z" fill="#FF7900"/>
<path d="M362.072 315.279L370.574 301.325L369.684 301.16L360.783 315.038L362.072 315.279Z" fill="#FF7900"/>
<path d="M342.02 313.948L343.607 313.882L342.286 292.465L341.555 292.495L342.02 313.948Z" fill="#FF7900"/>
<path d="M359.023 315.31L358.681 316.165L357.607 316.21L357.916 315.356L359.023 315.31Z" fill="#FF7900"/>
<path d="M327.975 316.598L328.379 317.422L329.462 317.377L329.083 316.552L327.975 316.598Z" fill="#FF7900"/>
<path d="M361.781 315.243L361.309 316.22L360.252 316.264L361.12 315.102L361.781 315.243Z" fill="#FF7900"/>
<path d="M325.206 316.766L325.758 317.702L326.815 317.658L325.854 316.571L325.206 316.766Z" fill="#FF7900"/>
<path d="M343.378 313.889L343.45 315.61L342.316 315.657L342.244 313.936L343.378 313.889Z" fill="#FF7900"/>
<path d="M356.644 321.192L361.128 321.005L361.244 323.801L356.761 323.988L356.644 321.192Z" fill="#FF7900"/>
<path d="M326.235 322.461L330.719 322.274L330.835 325.07L326.352 325.257L326.235 322.461Z" fill="#FF7900"/>
<path d="M324.712 323.761L334.496 324.412C340.705 324.827 346.94 324.567 353.093 323.637L362.797 322.173L362.544 316.103L354.583 315.409C347.155 314.751 339.673 315.063 332.326 316.336L324.459 317.69L324.712 323.761Z" fill="#EBEBEB"/>
<path d="M358.754 317.674C359.11 317.661 359.463 317.753 359.767 317.94C360.07 318.127 360.312 318.399 360.462 318.723C360.611 319.047 360.661 319.408 360.606 319.76C360.55 320.112 360.392 320.44 360.15 320.703C359.909 320.965 359.595 321.15 359.249 321.235C358.902 321.319 358.539 321.299 358.204 321.177C357.868 321.056 357.577 320.837 357.365 320.55C357.154 320.263 357.033 319.919 357.016 319.563C357.005 319.325 357.041 319.086 357.123 318.862C357.204 318.638 357.33 318.432 357.491 318.256C357.653 318.081 357.848 317.939 358.064 317.839C358.281 317.739 358.516 317.683 358.754 317.674ZM358.875 320.571C359.16 320.559 359.428 320.434 359.622 320.224C359.815 320.014 359.917 319.736 359.905 319.451C359.893 319.166 359.768 318.898 359.558 318.704C359.348 318.511 359.07 318.409 358.785 318.421C358.5 318.433 358.232 318.558 358.038 318.768C357.845 318.978 357.743 319.256 357.755 319.541C357.767 319.826 357.892 320.094 358.102 320.288C358.312 320.481 358.59 320.583 358.875 320.571Z" fill="white"/>
<path d="M348.602 319.92C348.607 320.033 348.645 320.142 348.712 320.233C348.778 320.325 348.87 320.394 348.977 320.433C349.083 320.472 349.198 320.478 349.308 320.452C349.417 320.425 349.517 320.366 349.593 320.283C349.67 320.2 349.72 320.096 349.737 319.985C349.755 319.873 349.739 319.759 349.691 319.656C349.643 319.554 349.567 319.468 349.47 319.409C349.374 319.35 349.262 319.321 349.149 319.326C348.998 319.332 348.855 319.398 348.753 319.51C348.65 319.621 348.596 319.769 348.602 319.92Z" fill="white"/>
<path d="M346.571 320.008C346.576 320.121 346.614 320.23 346.68 320.321C346.747 320.412 346.839 320.481 346.945 320.52C347.051 320.559 347.167 320.566 347.276 320.539C347.386 320.512 347.485 320.454 347.562 320.371C347.638 320.288 347.689 320.184 347.706 320.072C347.723 319.96 347.707 319.846 347.66 319.744C347.612 319.641 347.535 319.555 347.439 319.496C347.342 319.438 347.231 319.409 347.118 319.413C346.967 319.42 346.824 319.486 346.721 319.597C346.619 319.709 346.565 319.856 346.571 320.008Z" fill="white"/>
<path d="M344.541 320.091C344.547 320.242 344.613 320.385 344.725 320.487C344.836 320.59 344.984 320.644 345.135 320.638C345.287 320.631 345.429 320.565 345.532 320.454C345.634 320.342 345.688 320.195 345.682 320.043C345.676 319.892 345.61 319.749 345.498 319.647C345.387 319.544 345.239 319.49 345.088 319.496C344.936 319.503 344.794 319.569 344.691 319.68C344.589 319.792 344.535 319.939 344.541 320.091Z" fill="white"/>
<path d="M342.506 320.174C342.512 320.326 342.578 320.468 342.69 320.571C342.801 320.673 342.949 320.727 343.1 320.721C343.251 320.715 343.394 320.649 343.497 320.537C343.599 320.426 343.653 320.278 343.647 320.127C343.641 319.975 343.574 319.833 343.463 319.73C343.351 319.628 343.204 319.574 343.052 319.58C342.901 319.586 342.759 319.652 342.656 319.764C342.553 319.875 342.499 320.023 342.506 320.174Z" fill="white"/>
<path d="M340.466 320.257C340.47 320.37 340.508 320.479 340.575 320.57C340.642 320.662 340.734 320.731 340.84 320.77C340.946 320.809 341.061 320.815 341.171 320.789C341.281 320.762 341.38 320.703 341.456 320.62C341.533 320.537 341.583 320.433 341.6 320.322C341.618 320.21 341.602 320.096 341.554 319.993C341.507 319.891 341.43 319.805 341.333 319.746C341.237 319.687 341.125 319.658 341.012 319.663C340.861 319.669 340.718 319.735 340.616 319.847C340.513 319.958 340.459 320.106 340.466 320.257Z" fill="white"/>
<path d="M338.434 320.345C338.439 320.458 338.477 320.567 338.544 320.658C338.61 320.749 338.703 320.818 338.809 320.857C338.915 320.896 339.03 320.903 339.14 320.876C339.249 320.849 339.349 320.791 339.425 320.708C339.502 320.625 339.552 320.521 339.569 320.409C339.587 320.297 339.571 320.183 339.523 320.081C339.475 319.978 339.399 319.892 339.302 319.833C339.206 319.775 339.094 319.746 338.981 319.75C338.906 319.752 338.832 319.77 338.763 319.801C338.695 319.832 338.633 319.876 338.582 319.932C338.531 319.987 338.492 320.052 338.466 320.123C338.441 320.194 338.43 320.27 338.434 320.345Z" fill="white"/>
<path d="M336.428 320.428C336.434 320.579 336.5 320.722 336.611 320.824C336.723 320.927 336.871 320.981 337.022 320.975C337.173 320.968 337.316 320.902 337.418 320.791C337.521 320.679 337.575 320.531 337.569 320.38C337.562 320.229 337.496 320.086 337.385 319.984C337.273 319.881 337.126 319.827 336.974 319.833C336.823 319.84 336.68 319.906 336.578 320.017C336.475 320.129 336.421 320.276 336.428 320.428Z" fill="white"/>
<path d="M96.9677 332.964L102.188 319.987L115.622 319.427L114.054 331.444C114.033 331.6 114.047 331.758 114.094 331.907C114.141 332.057 114.22 332.195 114.326 332.31C114.432 332.426 114.562 332.517 114.706 332.578C114.851 332.638 115.007 332.666 115.164 332.66L121.041 332.415C121.116 332.41 121.192 332.421 121.263 332.447C121.334 332.472 121.399 332.511 121.454 332.562C121.51 332.613 121.554 332.675 121.586 332.744C121.617 332.812 121.634 332.886 121.636 332.962L121.662 333.591C121.666 333.667 121.656 333.742 121.63 333.813C121.605 333.884 121.565 333.949 121.514 334.005C121.463 334.06 121.402 334.105 121.333 334.136C121.265 334.167 121.19 334.184 121.115 334.186L97.455 335.172C97.2916 335.177 97.133 335.117 97.0134 335.005C96.8939 334.894 96.823 334.74 96.8162 334.576L96.7882 333.905C96.7812 333.582 96.8423 333.261 96.9677 332.964Z" fill="#F5F5F5"/>
<path d="M96.2153 332.998L101.436 320.021L102.191 319.99L96.971 332.966C96.8493 333.27 96.7941 333.596 96.809 333.923L96.8363 334.578C96.8431 334.742 96.9139 334.896 97.0335 335.007C97.153 335.119 97.3117 335.179 97.4751 335.174L96.7194 335.206C96.5547 335.212 96.3939 335.154 96.2725 335.042C96.1512 334.93 96.0791 334.775 96.0722 334.61L96.0442 333.938C96.0308 333.616 96.0893 333.295 96.2153 332.998Z" fill="#FF7900"/>
<path d="M102.189 319.996L115.631 319.436L115.229 322.497L100.947 323.093L102.189 319.996Z" fill="#FF7900"/>
<path d="M81.6594 322.191L138.996 319.802C139.265 319.796 139.53 319.733 139.772 319.616C140.015 319.5 140.23 319.333 140.403 319.126C140.576 318.92 140.703 318.679 140.775 318.42C140.848 318.161 140.864 317.889 140.823 317.623L135.469 276.348C135.388 275.783 135.103 275.267 134.668 274.898C134.233 274.529 133.677 274.332 133.106 274.344L75.7699 276.734C75.5008 276.739 75.2361 276.803 74.9934 276.919C74.7508 277.036 74.5358 277.203 74.3628 277.409C74.1899 277.615 74.063 277.856 73.9906 278.115C73.9182 278.375 73.902 278.646 73.9431 278.912L79.2966 320.187C79.3776 320.752 79.6626 321.268 80.098 321.637C80.5333 322.007 81.0887 322.204 81.6594 322.191Z" fill="#E6E6E6"/>
<path d="M140.243 313.153L140.825 317.62C140.866 317.886 140.849 318.158 140.777 318.417C140.705 318.676 140.578 318.917 140.405 319.123C140.232 319.33 140.017 319.497 139.774 319.613C139.532 319.73 139.267 319.793 138.998 319.799L81.6612 322.188C81.0892 322.203 80.5317 322.007 80.0946 321.637C79.6576 321.268 79.3713 320.751 79.29 320.185L78.7086 315.718L140.243 313.153Z" fill="#F5F5F5"/>
<path d="M80.6862 314.393L137.947 312.007C138.093 312.003 138.236 311.968 138.367 311.905C138.499 311.841 138.615 311.75 138.708 311.638C138.801 311.526 138.869 311.395 138.908 311.254C138.947 311.114 138.955 310.966 138.932 310.822L134.508 276.708C134.466 276.401 134.312 276.121 134.075 275.921C133.838 275.721 133.536 275.616 133.226 275.626L75.974 278.012C75.8282 278.015 75.6847 278.049 75.5531 278.112C75.4215 278.174 75.3048 278.264 75.2107 278.376C75.1167 278.487 75.0474 278.617 75.0077 278.757C74.9679 278.898 74.9585 279.045 74.9801 279.189L79.4044 313.303C79.4497 313.609 79.6046 313.889 79.8403 314.089C80.0761 314.29 80.3767 314.398 80.6862 314.393Z" fill="#FF7900"/>
<path d="M74.5023 276.8L75.7701 276.747C75.501 276.753 75.2363 276.816 74.9936 276.933C74.751 277.049 74.536 277.216 74.363 277.422C74.1901 277.629 74.0632 277.87 73.9908 278.129C73.9184 278.388 73.9022 278.66 73.9433 278.926L79.2968 320.201C79.378 320.767 79.6643 321.284 80.1014 321.653C80.5385 322.023 81.0959 322.219 81.668 322.204L80.4002 322.257C79.8281 322.272 79.2707 322.076 78.8336 321.706C78.3965 321.337 78.1102 320.82 78.029 320.253L72.6755 278.979C72.6344 278.713 72.6506 278.441 72.723 278.182C72.7954 277.922 72.9223 277.682 73.0952 277.475C73.2682 277.269 73.4832 277.102 73.7258 276.986C73.9685 276.869 74.2332 276.806 74.5023 276.8Z" fill="#FF7900"/>
<path d="M100.9 333.827L100.925 334.431C100.931 334.589 101.001 334.738 101.117 334.845C101.233 334.952 101.388 335.009 101.546 335.002L121.134 334.186C121.209 334.184 121.283 334.167 121.352 334.136C121.42 334.105 121.482 334.06 121.533 334.004C121.584 333.949 121.623 333.884 121.649 333.813C121.674 333.742 121.685 333.667 121.681 333.591L121.655 332.962C121.653 332.886 121.635 332.812 121.604 332.744C121.573 332.675 121.528 332.613 121.473 332.562C121.418 332.511 121.352 332.472 121.281 332.446C121.21 332.421 121.135 332.41 121.06 332.414L115.183 332.659C115.11 332.671 115.037 332.674 114.964 332.669L101.464 333.231C101.311 333.24 101.168 333.306 101.063 333.417C100.958 333.527 100.9 333.674 100.9 333.827Z" fill="#FAFAFA"/>
<path d="M96.8478 333.398L114.958 332.644C114.72 332.601 114.504 332.479 114.344 332.298C114.184 332.117 114.089 331.887 114.075 331.646L97.2834 332.346L96.8478 333.398Z" fill="#FF7900"/>
<g opacity="0.3">
<path d="M98.7659 313.181L96.5577 313.273L87.4089 277.598L87.389 277.523L89.5887 277.431L89.617 277.506L98.7659 313.181Z" fill="white"/>
<path d="M109.261 312.742L100.991 313.087L91.8421 277.412L91.8221 277.337L100.092 276.992L100.112 277.067L109.261 312.742Z" fill="white"/>
</g>
<path d="M136.01 329.847L112.661 330.82L112.819 334.615L159.518 332.669L159.453 331.116L136.01 329.847Z" fill="#F0F0F0"/>
<path d="M136.165 333.643L112.816 334.616L112.657 330.821L136.1 332.089L136.165 333.643Z" fill="#FF7900"/>
<path d="M72.4003 182.538L88.6466 181.861C93.752 181.649 98.0631 185.615 98.2759 190.72L98.9529 206.966C99.1657 212.072 95.1995 216.383 90.0942 216.596L73.8479 217.273C68.7425 217.486 64.4313 213.519 64.2186 208.414L63.5415 192.168C63.3287 187.062 67.295 182.751 72.4003 182.538Z" fill="#FF7900"/>
<path fill-rule="evenodd" clip-rule="evenodd" d="M87.649 204.94C87.9504 204.837 88.2225 204.663 88.4427 204.433C88.6629 204.202 88.8246 203.923 88.9144 203.617C89.4454 202.031 89.4177 195.514 88.2885 194.249C87.9233 193.843 87.416 193.593 86.8716 193.551C83.9113 193.354 74.8118 193.776 73.7784 194.206C73.4888 194.313 73.2274 194.485 73.0138 194.708C72.8002 194.931 72.64 195.2 72.5452 195.493C71.9743 197.132 72.1269 203.013 72.9217 204.528C73.1287 204.928 73.4651 205.246 73.8761 205.43C74.9074 205.959 86.2165 205.479 87.649 204.94ZM84.4389 203.593L76.4183 199.832L84.1975 195.378C84.3116 198.115 84.3665 200.846 84.4389 203.593Z" fill="white"/>
<path d="M335.664 170.868L351.927 170.19C357.041 169.977 361.36 173.95 361.573 179.065L362.251 195.328C362.464 200.443 358.491 204.762 353.376 204.975L337.113 205.653C331.999 205.866 327.68 201.892 327.466 196.778L326.789 180.515C326.576 175.4 330.549 171.081 335.664 170.868Z" fill="#FF7900"/>
<path d="M353.453 177.22L354.325 177.184L354.362 178.057L353.489 178.093L353.453 177.22Z" fill="white"/>
<path d="M352.58 177.253L353.453 177.216L353.489 178.089L352.617 178.125L352.58 177.253Z" fill="white"/>
<path d="M351.708 177.289L352.581 177.253L352.617 178.126L351.745 178.162L351.708 177.289Z" fill="white"/>
<path d="M353.49 178.093L354.362 178.056L354.399 178.929L353.526 178.965L353.49 178.093Z" fill="white"/>
<path d="M353.527 178.965L354.399 178.928L354.436 179.801L353.563 179.837L353.527 178.965Z" fill="white"/>
<path d="M354.284 197.107L355.156 197.07L355.193 197.943L354.32 197.979L354.284 197.107Z" fill="white"/>
<path d="M354.246 196.235L355.119 196.198L355.156 197.071L354.283 197.107L354.246 196.235Z" fill="white"/>
<path d="M354.209 195.363L355.082 195.326L355.118 196.199L354.246 196.235L354.209 195.363Z" fill="white"/>
<path d="M353.412 197.144L354.284 197.107L354.321 197.98L353.448 198.016L353.412 197.144Z" fill="white"/>
<path d="M352.538 197.181L353.411 197.145L353.448 198.017L352.575 198.054L352.538 197.181Z" fill="white"/>
<path d="M333.774 178.037L334.646 178.001L334.683 178.874L333.81 178.91L333.774 178.037Z" fill="white"/>
<path d="M333.811 178.914L334.684 178.877L334.72 179.75L333.847 179.786L333.811 178.914Z" fill="white"/>
<path d="M333.847 179.786L334.72 179.75L334.756 180.623L333.883 180.659L333.847 179.786Z" fill="white"/>
<path d="M334.646 178.005L335.519 177.968L335.555 178.841L334.682 178.877L334.646 178.005Z" fill="white"/>
<path d="M335.523 177.968L336.396 177.932L336.432 178.804L335.559 178.841L335.523 177.968Z" fill="white"/>
<path d="M334.646 197.928L335.519 197.892L335.555 198.765L334.682 198.801L334.646 197.928Z" fill="white"/>
<path d="M334.609 197.056L335.481 197.02L335.518 197.892L334.645 197.929L334.609 197.056Z" fill="white"/>
<path d="M334.572 196.184L335.444 196.147L335.481 197.02L334.608 197.057L334.572 196.184Z" fill="white"/>
<path d="M335.518 197.891L336.391 197.855L336.427 198.728L335.554 198.764L335.518 197.891Z" fill="white"/>
<path d="M336.39 197.855L337.263 197.818L337.299 198.691L336.426 198.727L336.39 197.855Z" fill="white"/>
<path d="M351.791 179.297L352.664 179.261L352.7 180.133L351.828 180.17L351.791 179.297Z" fill="white"/>
<path d="M350.919 179.334L351.792 179.298L351.828 180.171L350.956 180.207L350.919 179.334Z" fill="white"/>
<path d="M350.046 179.371L350.919 179.334L350.955 180.207L350.083 180.244L350.046 179.371Z" fill="white"/>
<path d="M349.174 179.408L350.047 179.372L350.083 180.244L349.211 180.281L349.174 179.408Z" fill="white"/>
<path d="M348.307 179.445L349.18 179.408L349.216 180.281L348.343 180.317L348.307 179.445Z" fill="white"/>
<path d="M347.435 179.482L348.308 179.445L348.344 180.318L347.471 180.354L347.435 179.482Z" fill="white"/>
<path d="M346.562 179.514L347.435 179.478L347.471 180.35L346.598 180.387L346.562 179.514Z" fill="white"/>
<path d="M351.829 180.174L352.701 180.138L352.738 181.01L351.865 181.047L351.829 180.174Z" fill="white"/>
<path d="M346.594 180.391L347.467 180.354L347.503 181.227L346.63 181.264L346.594 180.391Z" fill="white"/>
<path d="M351.865 181.046L352.737 181.01L352.774 181.882L351.901 181.919L351.865 181.046Z" fill="white"/>
<path d="M350.12 181.12L350.993 181.083L351.03 181.956L350.157 181.993L350.12 181.12Z" fill="white"/>
<path d="M349.244 181.153L350.116 181.116L350.153 181.989L349.28 182.025L349.244 181.153Z" fill="white"/>
<path d="M348.38 181.189L349.253 181.153L349.289 182.025L348.417 182.062L348.38 181.189Z" fill="white"/>
<path d="M346.631 181.263L347.504 181.227L347.54 182.099L346.668 182.136L346.631 181.263Z" fill="white"/>
<path d="M351.902 181.919L352.774 181.882L352.811 182.755L351.938 182.791L351.902 181.919Z" fill="white"/>
<path d="M350.153 181.992L351.025 181.956L351.062 182.829L350.189 182.865L350.153 181.992Z" fill="white"/>
<path d="M349.281 182.029L350.153 181.993L350.19 182.865L349.317 182.902L349.281 182.029Z" fill="white"/>
<path d="M348.412 182.062L349.285 182.025L349.322 182.898L348.449 182.934L348.412 182.062Z" fill="white"/>
<path d="M346.668 182.135L347.541 182.099L347.577 182.972L346.705 183.008L346.668 182.135Z" fill="white"/>
<path d="M351.939 182.791L352.812 182.754L352.848 183.627L351.975 183.663L351.939 182.791Z" fill="white"/>
<path d="M350.19 182.864L351.062 182.828L351.099 183.701L350.226 183.737L350.19 182.864Z" fill="white"/>
<path d="M349.318 182.902L350.19 182.865L350.227 183.738L349.354 183.774L349.318 182.902Z" fill="white"/>
<path d="M348.454 182.938L349.327 182.902L349.364 183.775L348.491 183.811L348.454 182.938Z" fill="white"/>
<path d="M346.71 183.008L347.583 182.971L347.619 183.844L346.747 183.88L346.71 183.008Z" fill="white"/>
<path d="M351.971 183.663L352.844 183.626L352.88 184.499L352.007 184.536L351.971 183.663Z" fill="white"/>
<path d="M346.743 183.88L347.615 183.844L347.652 184.716L346.779 184.753L346.743 183.88Z" fill="white"/>
<path d="M352.008 184.54L352.881 184.503L352.917 185.376L352.045 185.412L352.008 184.54Z" fill="white"/>
<path d="M351.136 184.577L352.009 184.541L352.045 185.413L351.172 185.45L351.136 184.577Z" fill="white"/>
<path d="M350.263 184.609L351.136 184.573L351.172 185.445L350.299 185.482L350.263 184.609Z" fill="white"/>
<path d="M349.391 184.646L350.264 184.61L350.3 185.483L349.427 185.519L349.391 184.646Z" fill="white"/>
<path d="M348.529 184.683L349.401 184.646L349.438 185.519L348.565 185.556L348.529 184.683Z" fill="white"/>
<path d="M347.652 184.72L348.524 184.684L348.561 185.556L347.688 185.593L347.652 184.72Z" fill="white"/>
<path d="M346.779 184.757L347.651 184.72L347.688 185.593L346.815 185.629L346.779 184.757Z" fill="white"/>
<path d="M340.885 179.754L341.758 179.718L341.794 180.59L340.922 180.627L340.885 179.754Z" fill="white"/>
<path d="M340.013 179.786L340.886 179.75L340.922 180.623L340.049 180.659L340.013 179.786Z" fill="white"/>
<path d="M339.136 179.823L340.009 179.787L340.045 180.659L339.172 180.696L339.136 179.823Z" fill="white"/>
<path d="M338.264 179.86L339.137 179.824L339.173 180.696L338.3 180.733L338.264 179.86Z" fill="white"/>
<path d="M337.392 179.897L338.265 179.861L338.301 180.734L337.428 180.77L337.392 179.897Z" fill="white"/>
<path d="M336.52 179.934L337.393 179.897L337.429 180.77L336.556 180.807L336.52 179.934Z" fill="white"/>
<path d="M335.648 179.971L336.521 179.935L336.557 180.807L335.684 180.844L335.648 179.971Z" fill="white"/>
<path d="M340.922 180.626L341.795 180.59L341.831 181.463L340.959 181.499L340.922 180.626Z" fill="white"/>
<path d="M335.68 180.843L336.553 180.807L336.589 181.679L335.716 181.716L335.68 180.843Z" fill="white"/>
<path d="M340.954 181.498L341.827 181.462L341.864 182.335L340.991 182.371L340.954 181.498Z" fill="white"/>
<path d="M339.21 181.573L340.083 181.536L340.119 182.409L339.247 182.445L339.21 181.573Z" fill="white"/>
<path d="M338.338 181.609L339.211 181.573L339.247 182.445L338.375 182.482L338.338 181.609Z" fill="white"/>
<path d="M337.466 181.641L338.339 181.605L338.375 182.478L337.503 182.514L337.466 181.641Z" fill="white"/>
<path d="M335.716 181.72L336.589 181.684L336.625 182.556L335.753 182.593L335.716 181.72Z" fill="white"/>
<path d="M340.992 182.371L341.864 182.334L341.901 183.207L341.028 183.244L340.992 182.371Z" fill="white"/>
<path d="M339.247 182.445L340.12 182.408L340.156 183.281L339.284 183.317L339.247 182.445Z" fill="white"/>
<path d="M338.375 182.482L339.248 182.445L339.284 183.318L338.412 183.354L338.375 182.482Z" fill="white"/>
<path d="M337.498 182.518L338.371 182.482L338.407 183.355L337.535 183.391L337.498 182.518Z" fill="white"/>
<path d="M335.753 182.592L336.626 182.556L336.662 183.428L335.79 183.465L335.753 182.592Z" fill="white"/>
<path d="M341.029 183.243L341.901 183.207L341.938 184.079L341.065 184.116L341.029 183.243Z" fill="white"/>
<path d="M339.285 183.317L340.157 183.28L340.194 184.153L339.321 184.189L339.285 183.317Z" fill="white"/>
<path d="M338.408 183.354L339.28 183.317L339.317 184.19L338.444 184.226L338.408 183.354Z" fill="white"/>
<path d="M337.535 183.391L338.407 183.354L338.444 184.227L337.571 184.264L337.535 183.391Z" fill="white"/>
<path d="M335.79 183.465L336.663 183.428L336.699 184.301L335.827 184.337L335.79 183.465Z" fill="white"/>
<path d="M341.071 184.12L341.943 184.083L341.98 184.956L341.107 184.993L341.071 184.12Z" fill="white"/>
<path d="M335.828 184.337L336.7 184.3L336.737 185.173L335.864 185.209L335.828 184.337Z" fill="white"/>
<path d="M341.103 184.992L341.976 184.956L342.012 185.828L341.139 185.865L341.103 184.992Z" fill="white"/>
<path d="M340.23 185.029L341.103 184.993L341.139 185.865L340.266 185.902L340.23 185.029Z" fill="white"/>
<path d="M339.358 185.061L340.23 185.025L340.267 185.898L339.394 185.934L339.358 185.061Z" fill="white"/>
<path d="M338.486 185.098L339.358 185.062L339.395 185.935L338.522 185.971L338.486 185.098Z" fill="white"/>
<path d="M337.614 185.135L338.486 185.099L338.523 185.971L337.65 186.008L337.614 185.135Z" fill="white"/>
<path d="M336.737 185.172L337.609 185.136L337.646 186.008L336.773 186.045L336.737 185.172Z" fill="white"/>
<path d="M335.865 185.209L336.737 185.173L336.774 186.046L335.901 186.082L335.865 185.209Z" fill="white"/>
<path d="M337.082 193.47L337.955 193.434L337.991 194.306L337.119 194.343L337.082 193.47Z" fill="white"/>
<path d="M337.12 194.333L337.992 194.297L338.029 195.17L337.156 195.206L337.12 194.333Z" fill="white"/>
<path d="M337.157 195.205L338.029 195.169L338.066 196.042L337.193 196.078L337.157 195.205Z" fill="white"/>
<path d="M337.955 193.428L338.828 193.392L338.864 194.265L337.992 194.301L337.955 193.428Z" fill="white"/>
<path d="M337.992 194.296L338.864 194.26L338.901 195.132L338.028 195.169L337.992 194.296Z" fill="white"/>
<path d="M338.029 195.169L338.901 195.132L338.938 196.005L338.065 196.041L338.029 195.169Z" fill="white"/>
<path d="M338.828 193.396L339.7 193.36L339.737 194.233L338.864 194.269L338.828 193.396Z" fill="white"/>
<path d="M339.704 193.359L340.577 193.323L340.614 194.195L339.741 194.232L339.704 193.359Z" fill="white"/>
<path d="M340.539 192.45L341.412 192.414L341.448 193.286L340.576 193.323L340.539 192.45Z" fill="white"/>
<path d="M340.502 191.578L341.375 191.542L341.411 192.414L340.539 192.451L340.502 191.578Z" fill="white"/>
<path d="M340.614 194.19L341.486 194.154L341.523 195.026L340.65 195.063L340.614 194.19Z" fill="white"/>
<path d="M340.65 195.062L341.522 195.026L341.559 195.899L340.686 195.935L340.65 195.062Z" fill="white"/>
<path d="M352.244 190.212L353.116 190.175L353.153 191.048L352.28 191.084L352.244 190.212Z" fill="white"/>
<path d="M351.371 190.249L352.244 190.212L352.281 191.085L351.408 191.121L351.371 190.249Z" fill="white"/>
<path d="M350.499 190.286L351.372 190.25L351.408 191.122L350.536 191.159L350.499 190.286Z" fill="white"/>
<path d="M349.626 190.323L350.499 190.286L350.535 191.159L349.663 191.195L349.626 190.323Z" fill="white"/>
<path d="M348.764 190.36L349.637 190.323L349.673 191.196L348.8 191.232L348.764 190.36Z" fill="white"/>
<path d="M347.891 190.396L348.764 190.36L348.8 191.233L347.927 191.269L347.891 190.396Z" fill="white"/>
<path d="M347.014 190.429L347.887 190.393L347.923 191.265L347.05 191.302L347.014 190.429Z" fill="white"/>
<path d="M352.281 191.089L353.153 191.052L353.19 191.925L352.317 191.961L352.281 191.089Z" fill="white"/>
<path d="M347.051 191.305L347.924 191.269L347.96 192.142L347.088 192.178L347.051 191.305Z" fill="white"/>
<path d="M352.318 191.961L353.19 191.925L353.227 192.797L352.354 192.834L352.318 191.961Z" fill="white"/>
<path d="M350.573 192.03L351.445 191.994L351.482 192.866L350.609 192.903L350.573 192.03Z" fill="white"/>
<path d="M349.696 192.067L350.568 192.031L350.605 192.903L349.732 192.94L349.696 192.067Z" fill="white"/>
<path d="M348.832 192.104L349.705 192.068L349.741 192.941L348.869 192.977L348.832 192.104Z" fill="white"/>
<path d="M347.088 192.178L347.961 192.142L347.997 193.014L347.125 193.051L347.088 192.178Z" fill="white"/>
<path d="M352.359 192.833L353.231 192.797L353.268 193.67L352.395 193.706L352.359 192.833Z" fill="white"/>
<path d="M350.61 192.907L351.482 192.871L351.519 193.743L350.646 193.78L350.61 192.907Z" fill="white"/>
<path d="M349.738 192.944L350.61 192.908L350.647 193.78L349.774 193.817L349.738 192.944Z" fill="white"/>
<path d="M348.87 192.976L349.742 192.94L349.779 193.813L348.906 193.849L348.87 192.976Z" fill="white"/>
<path d="M347.125 193.05L347.998 193.014L348.034 193.886L347.162 193.923L347.125 193.05Z" fill="white"/>
<path d="M352.391 193.696L353.264 193.66L353.3 194.532L352.427 194.569L352.391 193.696Z" fill="white"/>
<path d="M350.647 193.77L351.52 193.734L351.556 194.607L350.683 194.643L350.647 193.77Z" fill="white"/>
<path d="M349.77 193.807L350.643 193.771L350.679 194.643L349.806 194.68L349.77 193.807Z" fill="white"/>
<path d="M348.907 193.839L349.779 193.803L349.816 194.675L348.943 194.712L348.907 193.839Z" fill="white"/>
<path d="M347.162 193.918L348.035 193.881L348.072 194.754L347.199 194.79L347.162 193.918Z" fill="white"/>
<path d="M352.428 194.569L353.301 194.532L353.337 195.405L352.464 195.441L352.428 194.569Z" fill="white"/>
<path d="M347.195 194.79L348.067 194.754L348.104 195.627L347.231 195.663L347.195 194.79Z" fill="white"/>
<path d="M352.465 195.441L353.338 195.404L353.374 196.277L352.502 196.313L352.465 195.441Z" fill="white"/>
<path d="M351.593 195.478L352.466 195.441L352.502 196.314L351.63 196.35L351.593 195.478Z" fill="white"/>
<path d="M350.72 195.514L351.593 195.478L351.629 196.351L350.756 196.387L350.72 195.514Z" fill="white"/>
<path d="M349.843 195.552L350.716 195.515L350.752 196.388L349.88 196.424L349.843 195.552Z" fill="white"/>
<path d="M348.981 195.589L349.854 195.552L349.89 196.425L349.017 196.461L348.981 195.589Z" fill="white"/>
<path d="M348.108 195.625L348.98 195.589L349.017 196.462L348.144 196.498L348.108 195.625Z" fill="white"/>
<path d="M347.232 195.662L348.104 195.626L348.141 196.499L347.268 196.535L347.232 195.662Z" fill="white"/>
<path d="M206.662 62.3572L222.925 61.6794C228.039 61.4663 232.358 65.4397 232.571 70.5543L233.249 86.8174C233.462 91.932 229.489 96.251 224.374 96.4641L208.111 97.1419C202.997 97.3551 198.678 93.3817 198.465 88.267L197.787 72.0039C197.574 66.8893 201.547 62.5703 206.662 62.3572Z" fill="#FF7900"/>
<path fill-rule="evenodd" clip-rule="evenodd" d="M210.761 79.5889C210.797 80.4993 211.103 81.3785 211.639 82.1152C212.175 82.852 212.918 83.4131 213.773 83.7276C214.628 84.0421 215.557 84.0958 216.443 83.882C217.328 83.6682 218.131 83.1965 218.748 82.5265C219.366 81.8565 219.771 81.0184 219.912 80.1182C220.053 79.2181 219.924 78.2963 219.541 77.4696C219.157 76.6429 218.538 75.9484 217.76 75.474C216.982 74.9996 216.081 74.7666 215.17 74.8045C213.952 74.8575 212.805 75.3905 211.979 76.287C211.152 77.1835 210.715 78.3706 210.761 79.5889Z" fill="white"/>
<path fill-rule="evenodd" clip-rule="evenodd" d="M205.731 72.9689L224.311 72.1945C225.134 72.1602 225.936 72.4535 226.543 73.01C227.149 73.5665 227.511 74.3408 227.547 75.1632L227.857 82.6105C227.89 83.433 227.594 84.2347 227.036 84.8397C226.478 85.4448 225.702 85.8038 224.88 85.8381L206.274 86.6134C205.453 86.6477 204.651 86.3541 204.046 85.7973C203.441 85.2405 203.081 84.4661 203.047 83.6444L202.737 76.1971C202.72 75.7882 202.784 75.3799 202.925 74.9958C203.067 74.6117 203.283 74.2594 203.561 73.9593C203.84 73.6592 204.175 73.4171 204.547 73.2471C204.92 73.0772 205.322 72.9826 205.731 72.9689ZM215.604 85.2574C216.767 85.209 217.889 84.8169 218.828 84.1308C219.768 83.4448 220.483 82.4955 220.883 81.403C221.283 80.3106 221.35 79.124 221.076 77.9934C220.801 76.8628 220.198 75.8389 219.342 75.0512C218.486 74.2635 217.415 73.7474 216.266 73.5681C215.116 73.3889 213.939 73.5545 212.884 74.0441C211.828 74.5337 210.942 75.3252 210.336 76.3186C209.731 77.3121 209.434 78.4627 209.482 79.6251C209.547 81.1839 210.228 82.6529 211.377 83.7092C212.525 84.7655 214.045 85.3224 215.604 85.2574ZM205.927 76.0642L208.975 75.9372L208.907 74.3083L205.859 74.4354L205.927 76.0642Z" fill="white"/>
<path d="M222.841 70.9792L222.405 70.9974C222.182 71.0067 221.972 71.1041 221.821 71.2681C221.671 71.4321 221.591 71.6493 221.6 71.872L221.63 72.5773L223.754 72.4888L223.724 71.7835C223.72 71.6725 223.693 71.5636 223.646 71.4629C223.599 71.3623 223.533 71.272 223.451 71.1972C223.369 71.1224 223.272 71.0646 223.168 71.0272C223.063 70.9898 222.952 70.9735 222.841 70.9792Z" fill="white"/>
<path d="M224.73 364.494C134.823 368.241 61.7622 367.023 61.5434 361.774C61.3247 356.525 134.031 349.232 223.938 345.485C313.845 341.738 386.906 342.956 387.125 348.205C387.343 353.454 314.637 360.747 224.73 364.494Z" fill="#F5F5F5"/>
<path d="M189.934 352.056L190.009 352.053C190.117 352.028 190.211 351.961 190.27 351.868C190.33 351.774 190.349 351.66 190.325 351.552C190.319 351.418 187.191 338.705 177.437 331.904C169.994 326.68 161.78 314.423 161.699 314.3C161.668 314.254 161.629 314.214 161.583 314.183C161.537 314.152 161.485 314.13 161.431 314.119C161.376 314.108 161.32 314.108 161.266 314.119C161.211 314.129 161.16 314.151 161.113 314.182C161.021 314.245 160.958 314.341 160.935 314.45C160.913 314.56 160.935 314.673 160.995 314.767C161.084 314.889 169.38 327.277 176.953 332.605C186.482 339.265 189.522 351.67 189.527 351.787C189.558 351.87 189.613 351.94 189.686 351.988C189.76 352.037 189.846 352.061 189.934 352.056Z" fill="#263238"/>
<path d="M178.78 335.691C178.78 335.691 168.958 334.115 172.589 339.91C176.22 345.705 183.887 342.804 183.887 342.804C183.887 342.804 190.346 338.153 186.733 332.996C183.12 327.84 178.78 335.691 178.78 335.691Z" fill="#00CCA7"/>
<path opacity="0.1" d="M186.733 333.023C183.154 327.865 178.779 335.693 178.779 335.693C178.779 335.693 178.232 339.534 183.887 342.831C183.887 342.831 190.346 338.18 186.733 333.023Z" fill="black"/>
<path d="M161.713 314.509C161.713 314.509 155.296 309.074 155.394 314.857C155.492 320.639 162.282 321.912 162.282 321.912C162.282 321.912 168.988 321.372 168.632 316.063C168.276 310.754 161.713 314.509 161.713 314.509Z" fill="#00CCA7"/>
<path opacity="0.1" d="M168.635 316.064C168.279 310.763 161.715 314.51 161.715 314.51C161.715 314.51 159.643 317.053 162.285 321.913C162.285 321.922 168.991 321.373 168.635 316.064Z" fill="black"/>
<path d="M169.984 324.964C169.984 324.964 167.222 317.022 172.577 319.187C177.932 321.353 176.685 328.15 176.685 328.15C176.685 328.15 173.767 334.218 168.947 331.98C164.127 329.742 169.984 324.964 169.984 324.964Z" fill="#00CCA7"/>
<path opacity="0.1" d="M168.944 331.965C164.124 329.727 169.98 324.949 169.98 324.949C169.98 324.949 173.1 323.92 176.682 328.135C176.682 328.135 173.764 334.203 168.944 331.965Z" fill="black"/>
<path d="M197.984 351.72C198.07 351.715 198.152 351.685 198.22 351.633C198.289 351.58 198.34 351.508 198.367 351.427C198.404 351.307 201.921 340.042 211.315 333.57C220.913 326.946 225.058 319.052 225.097 318.975C225.123 318.926 225.138 318.872 225.143 318.817C225.148 318.762 225.142 318.706 225.125 318.653C225.109 318.601 225.082 318.552 225.046 318.509C225.011 318.467 224.967 318.432 224.918 318.406C224.869 318.381 224.815 318.365 224.76 318.36C224.705 318.355 224.649 318.361 224.596 318.378C224.544 318.395 224.495 318.422 224.452 318.457C224.41 318.493 224.375 318.536 224.349 318.585C224.31 318.663 220.259 326.384 210.832 332.875C201.201 339.517 197.596 351.089 197.566 351.183C197.549 351.235 197.543 351.289 197.548 351.344C197.553 351.398 197.569 351.451 197.594 351.499C197.62 351.547 197.655 351.59 197.697 351.625C197.739 351.659 197.788 351.685 197.84 351.701C197.886 351.716 197.935 351.722 197.984 351.72Z" fill="#263238"/>
<path d="M196.147 351.794C196.202 351.788 196.255 351.77 196.303 351.743C196.352 351.716 196.394 351.68 196.428 351.636C196.462 351.592 196.488 351.542 196.502 351.489C196.517 351.436 196.521 351.38 196.514 351.325C196.51 351.232 195.396 341.649 194.257 332.672C193.117 323.695 189.013 318.659 188.845 318.456C188.771 318.379 188.671 318.332 188.564 318.326C188.457 318.32 188.352 318.355 188.27 318.424C188.188 318.493 188.136 318.591 188.123 318.697C188.111 318.803 188.139 318.91 188.203 318.996C188.247 319.053 192.311 323.938 193.428 332.773C194.559 341.751 195.665 351.327 195.677 351.427C195.684 351.482 195.701 351.535 195.728 351.583C195.756 351.632 195.792 351.674 195.836 351.708C195.879 351.742 195.929 351.768 195.983 351.782C196.036 351.797 196.092 351.801 196.147 351.794Z" fill="#263238"/>
<path d="M192.789 326.141C192.789 326.141 189.691 320.021 196.677 321.353C203.663 322.685 201.486 328.176 201.486 328.176C201.486 328.176 197.146 333.218 190.88 331.797C184.614 330.376 192.789 326.141 192.789 326.141Z" fill="#00CCA7"/>
<path opacity="0.1" d="M190.88 331.8C184.614 330.379 192.789 326.145 192.789 326.145C194.301 325.887 195.85 325.934 197.343 326.283C198.837 326.633 200.246 327.277 201.486 328.179C201.486 328.179 197.146 333.221 190.88 331.8Z" fill="black"/>
<path d="M219.851 326.089C219.851 326.089 216.753 319.977 223.739 321.301C230.724 322.625 228.557 328.131 228.557 328.131C228.557 328.131 224.208 333.165 217.942 331.744C211.676 330.323 219.851 326.089 219.851 326.089Z" fill="#00CCA7"/>
<path opacity="0.1" d="M217.944 331.744C211.678 330.323 219.853 326.089 219.853 326.089C221.367 325.831 222.917 325.879 224.412 326.23C225.908 326.581 227.317 327.227 228.559 328.131C228.559 328.131 224.21 333.165 217.944 331.744Z" fill="black"/>
<path d="M204.833 340.117C204.833 340.117 203.168 333.458 209.721 336.305C216.273 339.152 212.902 344.036 212.902 344.036C212.902 344.036 207.55 347.985 201.757 345.207C195.964 342.429 204.833 340.117 204.833 340.117Z" fill="#00CCA7"/>
<path opacity="0.1" d="M201.726 345.207C195.933 342.437 204.836 340.115 204.836 340.115C206.369 340.201 207.869 340.592 209.249 341.265C210.629 341.939 211.86 342.881 212.871 344.036C212.871 344.036 207.519 347.985 201.726 345.207Z" fill="black"/>
<path d="M193.961 336.849C193.961 336.849 191.853 332.681 196.617 333.584C201.382 334.487 199.898 338.233 199.898 338.233C199.898 338.233 196.937 341.67 192.667 340.704C188.396 339.738 193.961 336.849 193.961 336.849Z" fill="#00CCA7"/>
<path opacity="0.1" d="M192.663 340.704C188.417 339.729 193.958 336.848 193.958 336.848C194.991 336.671 196.049 336.702 197.07 336.939C198.091 337.177 199.054 337.617 199.903 338.232C199.903 338.232 196.934 341.67 192.663 340.704Z" fill="black"/>
<path d="M188.983 318.343C188.983 318.343 191.139 311.751 185.589 313.799C180.04 315.847 182.092 321.296 182.092 321.296C182.092 321.296 185.865 326.059 190.833 323.985C195.801 321.91 188.983 318.343 188.983 318.343Z" fill="#00CCA7"/>
<path opacity="0.1" d="M190.831 323.986C195.791 321.904 188.981 318.344 188.981 318.344C188.981 318.344 185.521 317.647 182.09 321.298C182.09 321.298 185.863 326.061 190.831 323.986Z" fill="black"/>
<path d="M224.25 316.344C224.25 316.344 221.318 312.404 225.504 312.532C229.689 312.66 229.533 316.78 229.533 316.78C229.533 316.78 228.07 320.819 224.273 320.54C220.477 320.261 224.25 316.344 224.25 316.344Z" fill="#00CCA7"/>
<path opacity="0.1" d="M224.271 320.539C220.475 320.26 224.247 316.334 224.247 316.334C224.247 316.334 226.425 315.108 229.53 316.77C229.531 316.779 228.069 320.86 224.271 320.539Z" fill="black"/>
<path d="M212.466 331.007C212.466 331.007 222.267 329.252 216.925 324.984C211.583 320.715 205.291 325.94 205.291 325.94C205.291 325.94 200.735 332.463 205.834 336.144C210.933 339.826 212.466 331.007 212.466 331.007Z" fill="#00CCA7"/>
<path opacity="0.1" d="M205.833 336.146C210.94 339.819 212.465 331.009 212.465 331.009C212.465 331.009 211.718 327.196 205.29 325.942C205.29 325.942 200.734 332.465 205.833 336.146Z" fill="black"/>
<path d="M204.135 360.91L188.233 361.573C187.5 361.601 186.78 361.372 186.199 360.924C185.618 360.477 185.212 359.839 185.053 359.123L182.828 349.123L208.494 348.054L207.1 358.205C207.001 358.931 206.65 359.6 206.108 360.094C205.566 360.589 204.868 360.877 204.135 360.91Z" fill="#00CCA7"/>
<path opacity="0.6" d="M204.135 360.91L188.233 361.573C187.5 361.601 186.78 361.372 186.199 360.924C185.618 360.477 185.212 359.839 185.053 359.123L182.828 349.123L208.494 348.054L207.1 358.205C207.001 358.931 206.65 359.6 206.108 360.094C205.566 360.589 204.868 360.877 204.135 360.91Z" fill="black"/>
<path d="M182.327 297.607L251.426 294.728C253.238 294.679 255.02 294.251 256.656 293.47C258.293 292.69 259.747 291.575 260.925 290.197C262.104 288.819 262.98 287.21 263.497 285.472C264.015 283.735 264.162 281.908 263.929 280.11L245.518 115.441C245.047 111.656 243.184 108.182 240.291 105.696C237.397 103.211 233.682 101.892 229.87 101.997L160.779 104.876C158.966 104.925 157.184 105.353 155.547 106.134C153.911 106.914 152.456 108.029 151.277 109.407C150.098 110.784 149.221 112.394 148.702 114.131C148.184 115.869 148.036 117.695 148.267 119.494L166.711 284.162C167.178 287.943 169.036 291.414 171.922 293.9C174.809 296.386 178.518 297.707 182.327 297.607Z" fill="#00CCA7"/>
<path d="M182.327 297.607L251.426 294.728C253.238 294.679 255.02 294.251 256.656 293.47C258.293 292.69 259.747 291.575 260.925 290.197C262.104 288.819 262.98 287.21 263.497 285.472C264.015 283.735 264.162 281.908 263.929 280.11L245.518 115.441C245.047 111.656 243.184 108.182 240.291 105.696C237.397 103.211 233.682 101.892 229.87 101.997L160.779 104.876C158.966 104.925 157.184 105.353 155.547 106.134C153.911 106.914 152.456 108.029 151.277 109.407C150.098 110.784 149.221 112.394 148.702 114.131C148.184 115.869 148.036 117.695 148.267 119.494L166.711 284.162C167.178 287.943 169.036 291.414 171.922 293.9C174.809 296.386 178.518 297.707 182.327 297.607Z" fill="#FF7900"/>
<path d="M185.913 297.455L255.012 294.575C256.824 294.527 258.606 294.098 260.242 293.318C261.879 292.537 263.333 291.422 264.511 290.045C265.69 288.667 266.566 287.058 267.083 285.32C267.601 283.583 267.748 281.756 267.515 279.958L249.104 115.289C248.634 111.505 246.771 108.032 243.88 105.547C240.988 103.061 237.275 101.741 233.464 101.844L164.365 104.724C162.552 104.773 160.77 105.201 159.134 105.981C157.498 106.762 156.044 107.877 154.865 109.254C153.687 110.632 152.811 112.242 152.293 113.979C151.776 115.717 151.629 117.543 151.862 119.341L170.272 284.011C170.743 287.794 172.605 291.267 175.497 293.752C178.388 296.238 182.101 297.558 185.913 297.455Z" fill="#FF7900"/>
<path d="M164.722 107.938L182.681 107.19C183.264 107.168 183.836 107.35 184.3 107.703C184.764 108.056 185.091 108.56 185.226 109.127L185.359 109.685C185.7 111.066 186.502 112.288 187.634 113.149C188.765 114.011 190.157 114.46 191.578 114.422L208.655 113.71C210.015 113.675 211.308 113.111 212.26 112.139C213.211 111.167 213.747 109.862 213.754 108.502L213.73 107.939C213.733 107.382 213.953 106.848 214.343 106.45C214.733 106.053 215.263 105.822 215.82 105.808L233.787 105.06C236.725 104.978 239.588 105.995 241.816 107.912C244.044 109.828 245.477 112.507 245.834 115.424L264.253 280.093C264.432 281.478 264.319 282.885 263.921 284.223C263.523 285.561 262.848 286.801 261.942 287.862C261.035 288.924 259.916 289.784 258.657 290.386C257.397 290.989 256.026 291.321 254.63 291.361L185.539 294.24C182.601 294.322 179.737 293.305 177.508 291.389C175.278 289.472 173.844 286.794 173.484 283.876L155.065 119.207C154.886 117.82 155 116.41 155.4 115.069C155.8 113.729 156.477 112.487 157.387 111.425C158.298 110.363 159.421 109.503 160.684 108.903C161.948 108.302 163.323 107.973 164.722 107.938Z" fill="#00CCA7"/>
<path opacity="0.6" d="M155.084 119.206L155.468 122.555L173.495 283.876C173.859 286.793 175.296 289.471 177.526 291.387C179.756 293.303 182.62 294.32 185.559 294.24L254.658 291.36C256.054 291.321 257.426 290.99 258.686 290.388C259.946 289.786 261.066 288.926 261.973 287.864C262.88 286.802 263.554 285.562 263.951 284.223C264.349 282.884 264.461 281.477 264.281 280.092L246.254 118.763L245.87 115.414C245.509 112.499 244.075 109.822 241.848 107.906C239.621 105.99 236.76 104.972 233.823 105.05L215.856 105.799C215.298 105.813 214.767 106.044 214.376 106.444C213.986 106.843 213.767 107.379 213.767 107.938L213.79 108.492C213.781 109.852 213.245 111.155 212.293 112.127C211.342 113.099 210.051 113.663 208.691 113.701L191.597 114.413C190.175 114.452 188.783 114.004 187.651 113.142C186.52 112.28 185.717 111.057 185.378 109.676L185.245 109.127C185.105 108.56 184.775 108.058 184.311 107.704C183.846 107.351 183.275 107.166 182.692 107.181L164.732 107.929C163.334 107.966 161.959 108.295 160.696 108.897C159.433 109.499 158.31 110.359 157.4 111.422C156.491 112.485 155.815 113.727 155.416 115.068C155.017 116.409 154.904 117.819 155.084 119.206Z" fill="black"/>
<g opacity="0.7">
<path d="M203.654 108.153C203.699 108.522 203.881 108.861 204.163 109.103C204.446 109.345 204.809 109.473 205.181 109.46C205.357 109.455 205.53 109.412 205.689 109.336C205.847 109.26 205.989 109.152 206.103 109.018C206.218 108.884 206.304 108.728 206.355 108.559C206.406 108.391 206.421 108.213 206.4 108.039C206.351 107.671 206.169 107.334 205.887 107.093C205.605 106.851 205.244 106.723 204.873 106.731C204.696 106.734 204.522 106.775 204.362 106.85C204.202 106.925 204.059 107.034 203.944 107.168C203.829 107.302 203.744 107.46 203.694 107.629C203.644 107.799 203.63 107.978 203.654 108.153Z" fill="black"/>
<path d="M193.767 107.195L198.477 106.998C198.848 106.99 199.209 107.119 199.49 107.36C199.772 107.601 199.955 107.938 200.003 108.306C200.025 108.481 200.009 108.658 199.958 108.827C199.907 108.995 199.822 109.152 199.707 109.285C199.592 109.419 199.451 109.527 199.292 109.604C199.133 109.68 198.96 109.722 198.784 109.728L194.074 109.924C193.703 109.932 193.342 109.804 193.06 109.562C192.779 109.321 192.596 108.984 192.548 108.617C192.526 108.442 192.542 108.264 192.593 108.096C192.644 107.927 192.729 107.771 192.844 107.637C192.959 107.503 193.1 107.395 193.259 107.319C193.418 107.243 193.591 107.2 193.767 107.195Z" fill="black"/>
</g>
<path d="M237.984 112.462L236.533 112.523L236.371 111.075L237.823 111.015L237.984 112.462Z" fill="#00CCA7"/>
<path d="M234.916 111.138L235.077 112.587L233.625 112.647L233.463 111.199L233.302 109.751L234.755 109.69L234.916 111.138Z" fill="#00CCA7"/>
<path d="M231.686 108.36L231.847 109.809L232.009 111.257L232.17 112.705L230.717 112.766L230.556 111.317L230.395 109.869L230.234 108.421L231.686 108.36Z" fill="#00CCA7"/>
<path d="M169.21 111.054L169.33 112.118L170.043 112.088L170.275 114.215L169.57 114.244L169.69 115.307L163.292 115.574L162.82 111.321L169.21 111.054ZM166.723 114.363L168.881 114.273L168.641 112.146L166.517 112.235L166.723 114.363Z" fill="#00CCA7"/>
<path d="M291.643 339.531L294.176 352.47L287.878 352.732L283.197 339.883L291.643 339.531Z" fill="#FFC3BD"/>
<path d="M294.849 349.535L286.445 349.691C286.378 349.686 286.312 349.694 286.249 349.716C286.187 349.738 286.129 349.773 286.081 349.819C286.033 349.865 285.995 349.92 285.97 349.981C285.945 350.043 285.933 350.109 285.935 350.175L286.192 356.346C286.241 356.689 286.415 357.002 286.681 357.225C286.946 357.449 287.284 357.566 287.63 357.556C290.552 357.435 291.941 357.267 295.648 357.222C299.578 357.045 303.493 356.624 307.371 355.96C310.347 355.323 309.414 352.511 308.07 352.567C301.941 352.603 298.47 351.47 296.188 349.983C295.798 349.7 295.331 349.543 294.849 349.535Z" fill="#263238"/>
<path opacity="0.2" d="M292.66 344.721L291.645 339.532L283.198 339.884L285.501 346.306L292.66 344.721Z" fill="black"/>
<path d="M233.179 268.823C233.179 268.823 284.416 267.2 285.872 283.381C287.977 306.649 293.363 342.035 293.363 342.035L283.818 345.091C283.818 345.091 268.579 310.401 267.317 292.228C252.79 289.965 215.883 294.372 211.14 285.099C208.818 280.37 208.023 275.037 208.864 269.836L233.179 268.823Z" fill="#00CCA7"/>
<path opacity="0.3" d="M233.179 268.823C233.179 268.823 284.416 267.2 285.872 283.381C287.977 306.649 293.363 342.035 293.363 342.035L283.818 345.091C283.818 345.091 268.579 310.401 267.317 292.228C252.79 289.965 215.883 294.372 211.14 285.099C208.818 280.37 208.023 275.037 208.864 269.836L233.179 268.823Z" fill="white"/>
<path d="M300.465 337.972L307.788 347.995L304.078 353.827L294.254 343.933L300.465 337.972Z" fill="#FFC3BD"/>
<path opacity="0.2" d="M297.952 347.654L294.256 343.931L299.852 337.146L303.873 342.622L297.952 347.654Z" fill="black"/>
<path d="M307.432 347.505L302.103 351.814C302.042 351.851 301.988 351.898 301.946 351.955C301.903 352.012 301.872 352.076 301.855 352.145C301.838 352.214 301.834 352.285 301.844 352.356C301.854 352.426 301.879 352.493 301.915 352.554L305.355 358.214C305.569 358.5 305.886 358.692 306.238 358.748C306.591 358.804 306.952 358.72 307.243 358.514C309.692 356.73 310.827 355.715 314.006 353.488C315.951 352.12 318.491 350.501 321.187 348.605C323.884 346.71 322.032 344.247 320.744 344.831C314.897 347.412 312.916 346.906 310.154 346.819C309.216 346.902 308.297 347.134 307.432 347.505Z" fill="#263238"/>
<path d="M302.901 340.273L295.6 346.709C295.6 346.709 278.234 329.602 260.362 299.556L260.556 299.169C245.58 298.624 204.387 296.262 199.234 290.463C193.797 284.331 193.856 277.062 195.529 270.39L219.877 269.375C219.877 269.375 258.974 273.499 272.168 285.161C282.068 293.243 302.901 340.273 302.901 340.273Z" fill="#00CCA7"/>
<g opacity="0.4">
<path d="M302.901 340.274L295.6 346.71C295.6 346.71 278.234 329.603 260.362 299.557L260.556 299.17C245.58 298.625 204.387 296.263 199.234 290.464C193.797 284.332 193.856 277.063 195.529 270.391L219.877 269.376C219.877 269.376 258.974 273.5 272.168 285.162C282.068 293.244 302.901 340.274 302.901 340.274Z" fill="white"/>
</g>
<path d="M220.147 214.2L237.128 216.015C246.633 217.032 256.22 211.78 264.13 206.412L268.222 210.346C268.222 210.346 251.548 223.774 242.985 224.165C238.132 224.367 230.489 223.407 224.775 222.527C223.868 222.385 223.005 222.037 222.252 221.512C221.499 220.986 220.875 220.295 220.429 219.493C219.983 218.69 219.726 217.796 219.677 216.879C219.628 215.962 219.789 215.045 220.147 214.2Z" fill="#FF8B7B"/>
<path d="M273.84 198.524C273.493 201.297 273.138 204.079 272.782 206.852C271.254 207.917 269.959 209.325 268.422 210.398C266.713 209.494 265.224 208.223 264.062 206.678C264.294 205.381 264.796 204.124 265.003 202.828C265.401 200.675 267.946 199.173 269.313 197.468C270.61 197.708 272.543 198.275 273.84 198.524Z" fill="#FF8B7B"/>
<path d="M224.247 227.083L236.827 226.222L238.075 214.395C238.075 214.395 230.989 213.303 224.351 212.234C224.276 216.08 224.364 223.251 224.247 227.083Z" fill="#00CCA7"/>
<path opacity="0.1" d="M224.247 227.083L236.827 226.222L238.075 214.395C238.075 214.395 230.989 213.303 224.351 212.234C224.276 216.08 224.364 223.251 224.247 227.083Z" fill="black"/>
<path opacity="0.2" d="M236.87 226.224L225 224.54L225.046 227.07L236.87 226.224Z" fill="black"/>
<path d="M194.609 271.737C199.153 272.607 207.783 271.398 215.931 270.756C221.598 270.301 229.272 268.989 229.272 268.989C228.263 259.493 228.125 249.936 229.984 232.575C230.866 224.296 224.314 212.172 224.289 212.173C223.342 212.061 222.321 211.969 221.266 211.886C220.675 211.844 220.085 211.818 219.479 211.801C214.578 211.801 209.681 212.086 204.813 212.656C203.9 212.753 202.964 212.876 202.053 213.015C201.142 213.154 200.381 213.278 199.614 213.428L198.537 213.624C197.875 213.756 197.245 214.018 196.685 214.394C196.124 214.77 195.644 215.254 195.271 215.817C194.898 216.379 194.64 217.01 194.512 217.673C194.384 218.336 194.389 219.018 194.525 219.679C194.523 219.698 194.523 219.718 194.528 219.738C195.136 223.64 195.674 227.074 196.016 230.214C196.02 230.315 196.024 230.424 196.029 230.525C196.468 234.014 196.759 237.147 196.909 240.152C197.427 249.542 196.624 257.717 194.609 271.737Z" fill="#00CCA7"/>
<path d="M195.932 229.098C195.947 229.459 195.962 229.829 196.027 230.188C196.032 230.288 196.036 230.397 196.04 230.498C196.48 233.987 196.77 237.121 196.921 240.125C198.838 236.076 200.652 230.365 200.401 227.566L195.932 229.098Z" fill="#00CCA7"/>
<path opacity="0.2" d="M195.928 229.098C195.943 229.46 195.958 229.829 196.024 230.188C196.03 230.244 196.033 230.3 196.031 230.356C196.473 233.895 196.773 237.053 196.926 240.125C198.843 236.076 200.657 230.365 200.406 227.566L195.928 229.098Z" fill="black"/>
<path d="M205.335 196.08C206.538 200.74 207.956 209.327 204.849 212.669C207.556 215.079 211.077 217.809 216.69 217.684C222.303 217.56 221.092 213.733 219.506 211.814C214.168 210.859 214.074 206.994 214.784 203.239L205.335 196.08Z" fill="#FF8B7B"/>
<path opacity="0.2" d="M209.173 198.974L214.757 203.207C214.584 204.07 214.485 204.947 214.463 205.827C213.288 205.689 212.166 205.264 211.196 204.588C210.226 203.913 209.438 203.008 208.902 201.954C208.342 200.64 208.677 199.188 209.173 198.974Z" fill="black"/>
<path d="M216.712 182.099C220.843 188.992 223.534 196.651 224.622 204.613C224.831 205.642 224.838 206.701 224.643 207.732C224.534 208.248 224.292 208.726 223.941 209.118C223.59 209.51 223.142 209.804 222.642 209.969C222.828 209.781 222.969 209.555 223.056 209.306C223.143 209.057 223.173 208.791 223.145 208.529C223.116 208.266 223.029 208.014 222.89 207.789C222.752 207.565 222.565 207.374 222.343 207.231C222.562 208.49 222.301 209.786 221.611 210.861C221.278 211.292 220.854 211.644 220.371 211.893C219.887 212.143 219.355 212.284 218.812 212.307C218.984 211.819 219.006 211.291 218.874 210.79C218.146 211.889 216.619 212.567 215.495 211.848C213.614 210.69 213.466 207.963 212.99 205.804L208.048 183.302C208.476 182.744 209.02 182.286 209.643 181.959C210.265 181.633 210.951 181.445 211.653 181.41C213.077 181.37 214.5 181.531 215.879 181.89L215.568 181.903" fill="#263238"/>
<path d="M200.935 191.041C203.162 197.054 204.171 200.679 208.207 202.883C214.291 206.195 221.001 201.096 220.592 194.519C220.238 188.647 216.614 179.79 209.919 179.169C208.433 179.025 206.935 179.265 205.568 179.864C204.201 180.464 203.01 181.404 202.109 182.594C201.208 183.785 200.627 185.186 200.422 186.664C200.216 188.143 200.393 189.65 200.935 191.041Z" fill="#FF8B7B"/>
<path d="M205.107 192.465C205.603 193.661 206.188 194.817 206.858 195.925C205.557 195.582 204.206 195.471 202.866 195.595C202.402 195.665 201.935 195.71 201.467 195.729C200.99 195.743 200.525 195.586 200.153 195.287C199.938 195.075 199.785 194.808 199.709 194.515C199.633 194.222 199.638 193.914 199.722 193.623C199.896 193.062 200.247 192.572 200.724 192.227C201.246 191.827 201.881 191.603 202.539 191.588C203.22 191.585 204.855 191.862 205.107 192.465Z" fill="#263238"/>
<path d="M200.708 197.528C201.255 198.002 201.889 198.363 202.576 198.591C203.262 198.819 203.987 198.91 204.708 198.858C206.645 198.71 206.945 196.831 205.849 195.354C204.868 194.024 202.677 192.509 201.015 193.385C200.662 193.592 200.365 193.881 200.148 194.227C199.932 194.574 199.803 194.968 199.773 195.376C199.742 195.784 199.812 196.193 199.975 196.567C200.138 196.942 200.389 197.272 200.708 197.528Z" fill="#FF8B7B"/>
<path d="M214.66 189.037C215.708 190.383 216.935 191.58 218.307 192.594C218.041 192.939 217.703 193.222 217.316 193.423C216.929 193.623 216.503 193.737 216.067 193.755L214.66 189.037Z" fill="#FF5652"/>
<path d="M215.736 196.261C215.161 196.36 214.573 196.342 214.005 196.208C213.437 196.074 212.902 195.827 212.432 195.482C212.403 195.454 212.386 195.415 212.384 195.375C212.383 195.334 212.396 195.294 212.423 195.264C212.436 195.248 212.453 195.236 212.471 195.227C212.49 195.218 212.51 195.213 212.53 195.213C212.551 195.212 212.571 195.215 212.59 195.222C212.609 195.229 212.627 195.24 212.641 195.255C213.167 195.632 213.775 195.879 214.415 195.976C215.055 196.074 215.709 196.019 216.323 195.816C216.362 195.806 216.403 195.811 216.438 195.83C216.473 195.849 216.499 195.88 216.513 195.917C216.525 195.957 216.521 196 216.502 196.037C216.483 196.074 216.451 196.102 216.411 196.115C216.187 196.167 215.962 196.218 215.736 196.261Z" fill="#263238"/>
<path d="M208.449 188.643C208.4 188.657 208.348 188.659 208.298 188.649C208.261 188.637 208.227 188.617 208.197 188.591C208.168 188.565 208.143 188.534 208.126 188.498C208.109 188.463 208.099 188.424 208.097 188.385C208.095 188.346 208.101 188.307 208.114 188.27C208.269 187.809 208.532 187.392 208.883 187.055C209.234 186.718 209.661 186.471 210.128 186.335C210.166 186.327 210.206 186.326 210.245 186.332C210.284 186.339 210.321 186.354 210.354 186.375C210.387 186.396 210.415 186.424 210.437 186.457C210.459 186.489 210.475 186.526 210.482 186.565C210.501 186.643 210.488 186.725 210.447 186.794C210.406 186.864 210.34 186.914 210.262 186.935C209.888 187.041 209.545 187.237 209.263 187.505C208.981 187.773 208.769 188.106 208.644 188.475C208.628 188.517 208.602 188.554 208.568 188.584C208.534 188.613 208.493 188.633 208.449 188.643Z" fill="#263238"/>
<path d="M218.211 185.56C218.161 185.566 218.11 185.56 218.062 185.543C218.015 185.526 217.972 185.499 217.937 185.462C217.683 185.174 217.365 184.95 217.009 184.807C216.652 184.664 216.267 184.607 215.884 184.64C215.845 184.647 215.805 184.647 215.766 184.638C215.728 184.63 215.691 184.614 215.658 184.591C215.626 184.568 215.599 184.538 215.578 184.504C215.557 184.471 215.544 184.433 215.538 184.393C215.522 184.315 215.539 184.233 215.583 184.167C215.628 184.101 215.697 184.054 215.775 184.039C216.252 183.992 216.734 184.059 217.18 184.235C217.626 184.411 218.024 184.691 218.341 185.05C218.37 185.077 218.394 185.11 218.411 185.146C218.427 185.182 218.437 185.221 218.438 185.261C218.44 185.301 218.434 185.34 218.42 185.378C218.406 185.415 218.386 185.449 218.358 185.479C218.319 185.52 218.267 185.549 218.211 185.56Z" fill="#263238"/>
<path d="M199.88 216.377C199.922 216.376 199.989 216.373 199.998 216.373C202.018 223.479 201.995 230.991 203.933 238.345C205.282 243.478 215.58 242.965 225.632 246.608L224.758 252.886C224.758 252.886 204.184 252.658 198.212 245.169C194.83 240.92 194.027 238.792 192.971 232.418C191.857 225.879 191.121 217.499 195.403 216.514L199.88 216.377Z" fill="#FF8B7B"/>
<path d="M234.39 254.717L228.983 254.943C228.734 254.964 228.483 254.926 228.252 254.831C228.021 254.737 227.815 254.589 227.652 254.399C227.489 254.21 227.373 253.984 227.314 253.742C227.255 253.499 227.254 253.245 227.312 253.002L229.729 238.746C229.839 238.185 230.129 237.675 230.554 237.293C230.98 236.911 231.519 236.678 232.089 236.63L237.496 236.404C237.745 236.384 237.996 236.424 238.227 236.519C238.458 236.615 238.664 236.764 238.827 236.954C238.99 237.144 239.105 237.37 239.164 237.613C239.223 237.856 239.224 238.11 239.166 238.353L236.75 252.609C236.64 253.169 236.35 253.679 235.924 254.059C235.498 254.44 234.959 254.671 234.39 254.717Z" fill="#00CCA7"/>
<path opacity="0.3" d="M234.39 254.717L228.983 254.943C228.734 254.964 228.483 254.926 228.252 254.831C228.021 254.737 227.815 254.589 227.652 254.399C227.489 254.21 227.373 253.984 227.314 253.742C227.255 253.499 227.254 253.245 227.312 253.002L229.729 238.746C229.839 238.185 230.129 237.675 230.554 237.293C230.98 236.911 231.519 236.678 232.089 236.63L237.496 236.404C237.745 236.384 237.996 236.424 238.227 236.519C238.458 236.615 238.664 236.764 238.827 236.954C238.99 237.144 239.105 237.37 239.164 237.613C239.223 237.856 239.224 238.11 239.166 238.353L236.75 252.609C236.64 253.169 236.35 253.679 235.924 254.059C235.498 254.44 234.959 254.671 234.39 254.717Z" fill="white"/>
<path d="M235.189 254.685L229.782 254.911C229.533 254.932 229.283 254.894 229.051 254.799C228.82 254.705 228.614 254.557 228.451 254.367C228.288 254.178 228.173 253.952 228.114 253.71C228.055 253.467 228.054 253.213 228.112 252.97L230.529 238.714C230.637 238.152 230.926 237.641 231.352 237.259C231.778 236.877 232.318 236.645 232.888 236.598L238.287 236.373C238.537 236.351 238.788 236.389 239.02 236.484C239.253 236.579 239.459 236.728 239.622 236.918C239.786 237.109 239.901 237.335 239.959 237.579C240.018 237.823 240.017 238.078 239.958 238.321L237.549 252.577C237.438 253.137 237.147 253.645 236.722 254.026C236.296 254.406 235.758 254.638 235.189 254.685Z" fill="#00CCA7"/>
<path opacity="0.6" d="M235.189 254.685L229.782 254.911C229.533 254.932 229.283 254.894 229.051 254.799C228.82 254.705 228.614 254.557 228.451 254.367C228.288 254.178 228.173 253.952 228.114 253.71C228.055 253.467 228.054 253.213 228.112 252.97L230.529 238.714C230.637 238.152 230.926 237.641 231.352 237.259C231.778 236.877 232.318 236.645 232.888 236.598L238.287 236.373C238.537 236.351 238.788 236.389 239.02 236.484C239.253 236.579 239.459 236.728 239.622 236.918C239.786 237.109 239.901 237.335 239.959 237.579C240.018 237.823 240.017 238.078 239.958 238.321L237.549 252.577C237.438 253.137 237.147 253.645 236.722 254.026C236.296 254.406 235.758 254.638 235.189 254.685Z" fill="white"/>
<path d="M232.454 240.779L232.983 240.757C233.373 240.733 233.743 240.58 234.037 240.323C234.331 240.066 234.531 239.718 234.606 239.335L234.693 238.802C234.733 238.638 234.734 238.467 234.695 238.303C234.656 238.139 234.578 237.987 234.468 237.859C234.358 237.731 234.22 237.631 234.064 237.568C233.907 237.504 233.738 237.479 233.57 237.494L233.05 237.516C232.668 237.549 232.307 237.705 232.022 237.961C231.737 238.217 231.543 238.56 231.469 238.936L231.374 239.47C231.334 239.63 231.333 239.797 231.37 239.958C231.407 240.118 231.481 240.268 231.585 240.395C231.69 240.522 231.824 240.623 231.974 240.69C232.125 240.756 232.29 240.787 232.454 240.779Z" fill="#00CCA7"/>
<path d="M233.657 238.325C233.627 238.482 233.547 238.624 233.428 238.731C233.31 238.837 233.16 238.902 233.001 238.916C232.931 238.922 232.862 238.911 232.797 238.884C232.733 238.857 232.676 238.816 232.631 238.762C232.586 238.709 232.554 238.646 232.538 238.578C232.523 238.51 232.524 238.439 232.541 238.372C232.571 238.217 232.651 238.077 232.768 237.972C232.885 237.867 233.033 237.803 233.189 237.79C233.259 237.783 233.328 237.793 233.393 237.819C233.458 237.844 233.515 237.885 233.561 237.937C233.607 237.99 233.639 238.052 233.656 238.12C233.673 238.187 233.673 238.258 233.657 238.325Z" fill="#263238"/>
<path d="M233.383 239.958C233.352 240.114 233.272 240.255 233.153 240.36C233.034 240.465 232.884 240.529 232.726 240.54C232.657 240.547 232.587 240.538 232.523 240.512C232.458 240.487 232.401 240.446 232.356 240.393C232.31 240.34 232.279 240.277 232.263 240.21C232.248 240.142 232.249 240.072 232.267 240.004C232.297 239.848 232.377 239.705 232.496 239.599C232.614 239.492 232.764 239.427 232.923 239.414C232.992 239.408 233.062 239.419 233.127 239.446C233.191 239.472 233.248 239.514 233.293 239.567C233.338 239.62 233.37 239.684 233.385 239.752C233.401 239.82 233.4 239.89 233.383 239.958Z" fill="#263238"/>
<path d="M234.227 251.69C233.701 252.183 226.835 253.117 224.758 252.926C224.051 251.088 224.526 249.176 224.756 247.224C225.894 246.285 227.209 245.549 228.339 244.618C230.226 243.068 233.067 243.639 235.47 243.169C236.038 243.869 236.27 245.617 236.267 247.148C236.255 248.004 236.068 248.849 235.717 249.63C235.367 250.411 234.859 251.113 234.227 251.69Z" fill="#FF8B7B"/>
<path d="M203.301 216.478C203.777 224.666 203.338 224.836 204.952 232.877L191.054 232.396C191.054 232.396 189.34 226.58 190.708 221.477C191.72 217.709 193.664 214.297 198.101 213.204C200.166 212.689 203.154 213.952 203.301 216.478Z" fill="#00CCA7"/>
<path opacity="0.1" d="M203.301 216.478C203.777 224.666 203.338 224.836 204.952 232.877L191.054 232.396C191.054 232.396 189.34 226.58 190.708 221.477C191.72 217.709 193.664 214.297 198.101 213.204C200.166 212.689 203.154 213.952 203.301 216.478Z" fill="white"/>
<path d="M195.757 197.9C195.825 198.05 195.932 198.178 196.068 198.271C196.204 198.363 196.363 198.416 196.527 198.423C196.76 198.414 196.993 198.387 197.222 198.344C198.133 198.205 199.609 197.908 199.842 197.831C200.946 195.262 200.228 193.181 201.963 191.014C201.387 191.316 200.817 191.567 200.255 191.817C199.694 192.068 199.148 192.301 198.606 192.601C197.77 193.948 196.71 195.539 195.985 196.915C195.881 197.055 195.806 197.214 195.767 197.384C195.728 197.553 195.724 197.729 195.757 197.9Z" fill="#263238"/>
<path d="M205.162 183.881C204.972 185.551 205.108 187.243 205.563 188.861C206.445 188.448 207.223 187.842 207.839 187.089C208.455 186.335 208.895 185.453 209.125 184.507C209.289 185.314 209.198 186.153 208.863 186.906C209.546 186.631 210.148 186.186 210.611 185.614C211.075 185.041 211.384 184.359 211.51 183.634C211.769 184.314 211.8 185.059 211.599 185.758C212.247 185.626 212.841 185.305 213.308 184.837C213.774 184.369 214.093 183.774 214.223 183.125C214.39 183.346 214.507 183.601 214.566 183.871C214.625 184.142 214.625 184.422 214.566 184.692C215.032 184.407 215.398 183.984 215.613 183.482C215.829 182.979 215.883 182.423 215.768 181.888C215.654 181.354 215.376 180.868 214.974 180.498C214.571 180.129 214.064 179.893 213.522 179.824C211.907 179.585 210.258 179.884 208.83 180.675C207.464 181.567 206.229 182.647 205.162 183.881Z" fill="#263238"/>
<path opacity="0.2" d="M195.288 198.189C195.355 198.344 195.465 198.476 195.604 198.57C195.744 198.664 195.907 198.716 196.076 198.72C196.312 198.71 196.547 198.684 196.779 198.64C197.715 198.492 199.224 198.194 199.457 198.117C200.594 195.546 199.856 193.356 201.63 191.129C201.037 191.44 200.459 191.691 199.881 191.951C199.303 192.21 198.749 192.444 198.165 192.754C197.323 194.135 196.23 195.762 195.49 197.189C195.389 197.332 195.318 197.495 195.283 197.668C195.249 197.84 195.25 198.018 195.288 198.189Z" fill="black"/>
<path d="M195.288 198.191C195.355 198.345 195.465 198.477 195.604 198.571C195.744 198.665 195.907 198.718 196.076 198.722C196.312 198.712 196.547 198.685 196.779 198.642C197.906 196.627 199.102 194.659 200.368 192.74C200.213 192.452 200.043 192.198 199.88 191.919C199.318 192.169 198.748 192.412 198.164 192.722C197.321 194.103 196.228 195.73 195.489 197.157C195.383 197.304 195.31 197.473 195.275 197.652C195.241 197.83 195.245 198.014 195.288 198.191Z" fill="#00CCA7"/>
<path d="M198.212 192.5C198.212 192.5 199.249 194.593 199.252 194.652C199.346 194.488 199.456 194.315 199.567 194.142C201.576 191.1 203.769 188.183 206.133 185.408C208.965 182.918 212.419 180.638 217.012 182.667C216.383 181.112 211.044 169.643 200.736 178.812C198.881 180.431 197.468 182.496 196.63 184.811C196.233 186.123 196.171 187.514 196.447 188.856C196.723 190.199 197.33 191.451 198.212 192.5Z" fill="#00CCA7"/>
<path d="M208.101 182.078C207.938 181.811 207.859 181.502 207.873 181.19C207.887 180.877 207.993 180.576 208.179 180.325C208.566 179.829 209.108 179.478 209.719 179.327C210.311 179.129 210.952 179.129 211.544 179.327C211.839 179.429 212.101 179.609 212.302 179.848C212.503 180.087 212.635 180.376 212.685 180.684C211.063 180.682 209.488 181.237 208.226 182.258L208.101 182.078Z" fill="#263238"/>
<path d="M210.722 189.945C210.894 190.434 211.261 190.764 211.593 190.666C211.926 190.568 212.057 190.083 211.91 189.585C211.763 189.086 211.371 188.766 211.039 188.856C210.706 188.945 210.584 189.446 210.722 189.945Z" fill="#263238"/>
<path d="M211.088 189.071C211.088 189.071 211.092 189.18 211.16 189.186C211.186 189.185 211.213 189.179 211.237 189.168C211.261 189.157 211.282 189.141 211.3 189.121C211.544 188.91 211.732 188.643 211.848 188.342C211.601 188.56 211.326 188.744 211.03 188.889L211.088 189.071Z" fill="#263238"/>
<path d="M216.371 188.23C216.543 188.728 216.901 189.049 217.242 188.951C217.582 188.853 217.714 188.368 217.558 187.87C217.403 187.371 217.028 187.051 216.688 187.157C216.347 187.264 216.215 187.732 216.371 188.23Z" fill="#263238"/>
<path d="M216.815 187.368C216.775 187.412 216.82 187.485 216.879 187.483C216.907 187.483 216.935 187.477 216.96 187.466C216.986 187.455 217.009 187.439 217.028 187.418C217.271 187.207 217.459 186.939 217.575 186.639C217.326 186.855 217.051 187.042 216.758 187.194L216.815 187.368Z" fill="#263238"/>
<path d="M203.811 193.232C204.077 192.715 204.443 192.255 204.888 191.88C205.333 191.505 205.848 191.222 206.403 191.047L208.893 190.253C208.716 189.568 208.804 188.841 209.14 188.217C209.475 187.594 210.033 187.119 210.702 186.889C211.372 186.658 212.104 186.689 212.752 186.973C213.4 187.258 213.917 187.777 214.2 188.426C214.366 188.292 214.577 188.226 214.789 188.242C214.667 187.537 214.822 186.812 215.222 186.219C215.623 185.626 216.238 185.212 216.937 185.063C217.637 184.914 218.367 185.042 218.974 185.42C219.582 185.798 220.019 186.397 220.194 187.091C220.369 187.785 220.268 188.519 219.913 189.14C219.557 189.761 218.975 190.22 218.289 190.421C217.602 190.621 216.864 190.548 216.23 190.216C215.597 189.884 215.116 189.32 214.89 188.641C214.793 188.601 214.685 188.596 214.584 188.628C214.484 188.66 214.398 188.726 214.342 188.815C214.578 189.524 214.523 190.297 214.189 190.965C213.855 191.632 213.269 192.14 212.56 192.376C211.852 192.612 211.079 192.556 210.411 192.222C209.743 191.888 209.236 191.302 209 190.594L206.51 191.396C205.483 191.722 204.627 192.441 204.129 193.396L203.585 194.461L203.258 194.298L203.811 193.232ZM218.297 190.063C218.761 189.916 219.17 189.634 219.474 189.253C219.778 188.873 219.962 188.411 220.003 187.926C220.044 187.441 219.941 186.955 219.706 186.528C219.471 186.102 219.115 185.755 218.682 185.531C218.25 185.307 217.761 185.216 217.278 185.27C216.794 185.324 216.337 185.52 215.964 185.833C215.592 186.147 215.321 186.564 215.185 187.031C215.049 187.499 215.055 187.996 215.202 188.46C215.3 188.768 215.457 189.055 215.666 189.303C215.874 189.55 216.129 189.754 216.417 189.903C216.704 190.052 217.018 190.143 217.341 190.171C217.663 190.198 217.988 190.162 218.297 190.063ZM212.37 191.95C212.837 191.804 213.249 191.522 213.555 191.14C213.862 190.759 214.048 190.295 214.09 189.808C214.132 189.32 214.029 188.831 213.793 188.403C213.557 187.974 213.2 187.625 212.765 187.4C212.331 187.175 211.84 187.084 211.354 187.139C210.867 187.193 210.408 187.391 210.035 187.706C209.661 188.022 209.389 188.441 209.254 188.911C209.119 189.381 209.126 189.881 209.276 190.347C209.376 190.655 209.536 190.94 209.746 191.186C209.957 191.433 210.214 191.635 210.503 191.781C210.792 191.928 211.107 192.016 211.43 192.041C211.753 192.065 212.078 192.026 212.386 191.925L212.37 191.95Z" fill="#263238"/>
<path d="M199.595 203.628C199.696 206.054 199.978 208.574 201.339 210.57C203.389 213.537 207.391 214.523 210.973 214.281C210.416 214.245 209.882 214.049 209.434 213.717C208.986 213.385 208.644 212.931 208.447 212.41C209.449 212.723 210.516 212.763 211.539 212.525C211.164 212.426 210.817 212.242 210.525 211.987C210.233 211.732 210.003 211.414 209.854 211.056C209.564 210.337 209.385 209.579 209.323 208.807C208.334 201.01 207.287 193.038 206.297 185.241C205.441 186.022 204.657 186.879 203.957 187.802C202.459 189.65 201.09 191.598 199.86 193.634C199.846 193.718 199.455 200.48 199.595 203.628Z" fill="#263238"/>
<path d="M266.993 77.3953L283.256 76.7175C288.37 76.5043 292.689 80.4778 292.903 85.5924L293.58 101.855C293.793 106.97 289.82 111.289 284.705 111.502L268.442 112.18C263.328 112.393 259.009 108.42 258.796 103.305L258.118 87.042C257.905 81.9274 261.878 77.6084 266.993 77.3953Z" fill="#00CCA7"/>
<path d="M274.421 102.418C274.414 102.672 274.46 102.923 274.555 103.158C274.65 103.393 274.792 103.606 274.972 103.784C275.153 103.961 275.368 104.1 275.604 104.191C275.84 104.282 276.093 104.324 276.346 104.313C276.599 104.303 276.847 104.24 277.075 104.13C277.303 104.019 277.506 103.863 277.671 103.671C277.836 103.479 277.96 103.255 278.035 103.013C278.11 102.771 278.134 102.517 278.107 102.265L278.099 102.089L274.422 102.242C274.417 102.301 274.417 102.36 274.421 102.418Z" fill="white"/>
<path d="M276.52 86.1591C276.549 85.9782 276.538 85.793 276.487 85.617C276.436 85.441 276.346 85.2786 276.225 85.1415C276.103 85.0044 275.952 84.8961 275.784 84.8245C275.615 84.7528 275.432 84.7196 275.249 84.7272C275.066 84.7348 274.887 84.7831 274.725 84.8686C274.563 84.954 274.422 85.0745 274.312 85.2212C274.202 85.3679 274.126 85.5373 274.09 85.7169C274.053 85.8966 274.058 86.082 274.102 86.2599C274.1 86.3076 274.102 86.3553 274.108 86.4026L276.518 86.3022L276.52 86.1591Z" fill="white"/>
<path d="M268.577 101.832L283.69 101.202L282.51 98.5262L282.451 98.5286L282.191 92.282C282.156 90.952 281.7 89.6672 280.891 88.6117C280.081 87.5561 278.957 86.784 277.682 86.4059C276.19 86.0592 274.631 86.1242 273.173 86.5938C272.355 86.9626 271.617 87.4876 271 88.1393C269.844 89.4008 269.234 91.0676 269.301 92.7771L269.561 99.0238L269.494 99.0266L268.577 101.832Z" fill="white"/>
<path d="M323.325 112.613L339.588 111.935C344.702 111.722 349.021 115.695 349.235 120.81L349.912 137.073C350.126 142.187 346.152 146.506 341.037 146.72L324.774 147.397C319.66 147.61 315.341 143.637 315.128 138.522L314.45 122.259C314.237 117.145 318.21 112.826 323.325 112.613Z" fill="#00CCA7"/>
<path opacity="0.6" d="M323.325 112.613L339.588 111.935C344.702 111.722 349.021 115.695 349.235 120.81L349.912 137.073C350.126 142.187 346.152 146.506 341.037 146.72L324.774 147.397C319.66 147.61 315.341 143.637 315.128 138.522L314.45 122.259C314.237 117.145 318.21 112.826 323.325 112.613Z" fill="white"/>
<path fill-rule="evenodd" clip-rule="evenodd" d="M335.406 134.213C336.262 134.154 337.08 133.834 337.75 133.297C338.419 132.759 338.907 132.029 339.149 131.206C338.566 131.341 337.961 131.346 337.375 131.221L337.325 131.223C338.261 131.001 339.092 130.46 339.673 129.693C340.255 128.926 340.552 127.981 340.514 127.019C339.975 127.346 339.366 127.541 338.738 127.59C339.566 126.952 340.128 126.029 340.312 125.001C340.521 123.984 340.332 122.927 339.785 122.045C338.788 123.353 337.532 124.441 336.095 125.24C334.657 126.04 333.071 126.534 331.434 126.691C331.435 126.537 331.454 126.384 331.49 126.235C331.582 125.294 331.341 124.352 330.807 123.572C330.49 123.096 330.071 122.697 329.58 122.403C329.089 122.109 328.539 121.928 327.97 121.873C327.319 121.785 326.658 121.857 326.041 122.082C325.425 122.307 324.873 122.678 324.432 123.165C324.409 123.199 324.376 123.224 324.337 123.238C324.298 123.252 324.256 123.253 324.217 123.241C323.373 123.102 322.558 122.826 321.802 122.425L321.744 122.427C322.07 123.29 322.674 124.02 323.462 124.5C322.672 124.443 321.896 124.265 321.16 123.974C321.32 124.177 321.48 124.381 321.648 124.576C322.096 125.093 322.61 125.55 323.177 125.934C323.201 125.943 323.222 125.96 323.237 125.982C323.251 126.004 323.258 126.03 323.257 126.056C323.263 126.666 323.319 127.274 323.426 127.874C323.617 129.129 324.008 130.346 324.585 131.476C325.174 132.65 325.958 133.715 326.903 134.626C328.485 136.155 330.491 137.171 332.66 137.54C333.421 137.667 334.192 137.728 334.963 137.722C337.289 137.694 339.556 136.982 341.48 135.676L341.587 135.612C340.196 135.828 338.773 135.69 337.449 135.213C336.723 134.98 336.035 134.643 335.406 134.213Z" fill="#00CCA7"/>
<path d="M311.795 226.683L328.059 226.005C333.173 225.792 337.492 229.765 337.705 234.88L338.383 251.143C338.596 256.258 334.623 260.577 329.508 260.79L313.245 261.468C308.13 261.681 303.811 257.707 303.598 252.593L302.921 236.33C302.707 231.215 306.681 226.896 311.795 226.683Z" fill="#00CCA7"/>
<path d="M313.094 238.489L313.737 253.929C313.738 253.976 313.748 254.023 313.767 254.066C313.786 254.109 313.814 254.148 313.848 254.18C313.882 254.212 313.923 254.237 313.967 254.254C314.011 254.27 314.058 254.278 314.105 254.276L328.378 253.681C328.474 253.677 328.564 253.635 328.629 253.564C328.694 253.494 328.728 253.4 328.724 253.305L327.887 233.221C327.883 233.126 327.841 233.035 327.771 232.971C327.7 232.906 327.607 232.871 327.511 232.875L317.898 233.276L313.094 238.489Z" fill="#00CCA7"/>
<g opacity="0.7">
<path d="M313.096 238.491L313.739 253.931C313.74 253.978 313.75 254.025 313.769 254.068C313.788 254.111 313.816 254.15 313.85 254.182C313.884 254.214 313.925 254.239 313.969 254.256C314.013 254.272 314.06 254.28 314.107 254.278L328.38 253.683C328.476 253.679 328.566 253.637 328.631 253.566C328.696 253.496 328.73 253.402 328.726 253.307L327.889 233.223C327.885 233.128 327.843 233.037 327.773 232.972C327.702 232.908 327.609 232.873 327.513 232.877L317.9 233.278L313.096 238.491Z" fill="white"/>
</g>
<path d="M317.908 233.276L318.102 237.927C318.106 238.023 318.072 238.116 318.007 238.187C317.942 238.257 317.852 238.299 317.756 238.303L313.113 238.497L317.908 233.276Z" fill="#00CCA7"/>
<path d="M317.908 233.276L318.102 237.927C318.106 238.023 318.072 238.116 318.007 238.187C317.942 238.257 317.852 238.299 317.756 238.303L313.113 238.497L317.908 233.276Z" fill="white"/>
<path d="M314.901 241.169L326.414 240.746C326.595 240.739 326.747 240.881 326.753 241.061L326.757 241.162C326.764 241.343 326.622 241.495 326.442 241.502L314.928 241.925C314.747 241.932 314.595 241.791 314.589 241.61L314.585 241.509C314.578 241.328 314.72 241.176 314.901 241.169Z" fill="#00CCA7"/>
<path d="M315.016 244.27L326.529 243.847C326.71 243.84 326.862 243.982 326.868 244.162L326.872 244.263C326.879 244.444 326.738 244.596 326.557 244.603L315.044 245.026C314.863 245.033 314.711 244.892 314.704 244.711L314.7 244.61C314.694 244.429 314.835 244.277 315.016 244.27Z" fill="#00CCA7"/>
<path d="M315.141 247.367L326.654 246.944C326.835 246.937 326.987 247.078 326.993 247.259L326.997 247.36C327.004 247.541 326.863 247.693 326.682 247.699L315.169 248.123C314.988 248.13 314.836 247.988 314.829 247.807L314.825 247.707C314.819 247.526 314.96 247.374 315.141 247.367Z" fill="#00CCA7"/>
<path d="M321.221 250.228L326.799 250.055C326.841 250.053 326.884 250.059 326.924 250.074C326.964 250.089 327 250.112 327.031 250.141C327.062 250.171 327.087 250.206 327.104 250.245C327.121 250.284 327.131 250.326 327.131 250.369L327.135 250.469C327.139 250.556 327.108 250.641 327.049 250.705C326.99 250.769 326.908 250.807 326.822 250.81L321.253 250.984C321.166 250.987 321.081 250.956 321.017 250.897C320.953 250.839 320.915 250.757 320.912 250.67L320.907 250.552C320.909 250.469 320.943 250.389 321.001 250.329C321.059 250.27 321.138 250.233 321.221 250.228Z" fill="#00CCA7"/>
<path d="M276.273 165.466L292.536 164.788C297.651 164.575 301.97 168.549 302.183 173.663L302.861 189.926C303.074 195.041 299.1 199.36 293.986 199.573L277.723 200.251C272.608 200.464 268.289 196.491 268.076 191.376L267.398 175.113C267.185 169.998 271.158 165.679 276.273 165.466Z" fill="#00CCA7"/>
<path opacity="0.6" d="M276.273 165.466L292.536 164.788C297.651 164.575 301.97 168.549 302.183 173.663L302.861 189.926C303.074 195.041 299.1 199.36 293.986 199.573L277.723 200.251C272.608 200.464 268.289 196.491 268.076 191.376L267.398 175.113C267.185 169.998 271.158 165.679 276.273 165.466Z" fill="white"/>
<path d="M278.427 170.29L290.525 169.786C291.597 169.741 292.501 170.573 292.546 171.645L293.401 192.173C293.446 193.244 292.614 194.149 291.543 194.193L279.444 194.697C278.373 194.742 277.468 193.91 277.424 192.839L276.568 172.31C276.523 171.239 277.356 170.335 278.427 170.29Z" fill="white"/>
<path d="M279.922 190.259L281.47 190.472L281.029 188.976L272.811 181.909C272.728 181.836 272.63 181.781 272.525 181.746C272.419 181.712 272.308 181.698 272.197 181.707C272.086 181.715 271.979 181.745 271.88 181.796C271.781 181.846 271.693 181.916 271.621 182.001C271.546 182.082 271.487 182.177 271.449 182.281C271.41 182.386 271.393 182.496 271.397 182.607C271.402 182.718 271.429 182.827 271.476 182.927C271.522 183.028 271.589 183.118 271.671 183.193L279.922 190.259Z" fill="#00CCA7"/>
<path d="M286.731 191.794C286.873 191.791 287.014 191.761 287.144 191.703C287.275 191.646 287.393 191.563 287.49 191.459C287.684 191.2 287.782 190.883 287.769 190.56C287.755 190.237 287.631 189.929 287.417 189.688C286.966 189.009 286.367 188.442 285.665 188.028C285.31 187.805 284.915 187.65 284.503 187.572C284.563 187.43 284.655 187.305 284.773 187.207C285.375 186.703 286.374 187.065 287.058 187.533C288.24 188.355 289.163 189.499 289.718 190.828C289.764 190.93 289.847 191.011 289.951 191.053C290.054 191.096 290.17 191.097 290.274 191.057C290.326 191.035 290.372 191.004 290.411 190.964C290.45 190.924 290.48 190.877 290.501 190.825C290.522 190.774 290.532 190.718 290.531 190.663C290.53 190.607 290.518 190.552 290.495 190.501C289.866 189.018 288.827 187.746 287.5 186.833C286.539 186.183 285.167 185.761 284.216 186.558C283.896 186.829 283.675 187.199 283.587 187.61C283.227 187.692 282.905 187.896 282.677 188.188C282.449 188.479 282.327 188.84 282.334 189.21C282.372 189.538 282.486 189.853 282.666 190.129C282.669 190.205 282.748 190.277 282.785 190.352C282.84 190.434 282.876 190.529 282.888 190.627C282.901 190.726 282.891 190.826 282.859 190.92C282.795 190.967 282.718 190.993 282.639 190.997C282.56 191 282.482 190.98 282.414 190.939C282.175 190.769 281.974 190.551 281.824 190.299C281.76 190.209 281.663 190.146 281.554 190.126C281.445 190.105 281.332 190.128 281.239 190.189C281.148 190.253 281.086 190.351 281.067 190.46C281.048 190.57 281.073 190.682 281.137 190.773C281.353 191.141 281.655 191.452 282.016 191.679C282.255 191.82 282.536 191.874 282.811 191.83C283.086 191.787 283.336 191.648 283.52 191.44C283.662 191.224 283.739 190.972 283.741 190.714C283.744 190.456 283.672 190.202 283.535 189.984C283.531 189.9 283.452 189.819 283.407 189.737C283.288 189.562 283.206 189.365 283.164 189.158C283.167 189.029 283.205 188.902 283.275 188.792C283.345 188.683 283.443 188.594 283.559 188.536C283.594 188.774 283.66 189.006 283.756 189.226C284.148 189.979 284.701 190.636 285.375 191.152C285.62 191.403 285.915 191.599 286.24 191.73C286.399 191.779 286.565 191.801 286.731 191.794ZM284.386 188.418C284.689 188.478 284.978 188.591 285.241 188.752C285.84 189.1 286.351 189.579 286.738 190.153C286.909 190.415 287.032 190.755 286.911 190.886C286.854 190.919 286.79 190.937 286.724 190.94C286.659 190.943 286.593 190.93 286.534 190.902C286.317 190.799 286.121 190.659 285.953 190.489C285.377 190.051 284.899 189.498 284.548 188.865C284.473 188.724 284.419 188.574 284.386 188.418Z" fill="#00CCA7"/>
<path d="M278.857 173.348L290.37 172.925C290.551 172.918 290.703 173.059 290.709 173.24L290.713 173.341C290.72 173.522 290.578 173.674 290.398 173.68L278.884 174.104C278.704 174.111 278.551 173.969 278.545 173.788L278.541 173.688C278.534 173.507 278.676 173.355 278.857 173.348Z" fill="#00CCA7"/>
<path d="M278.968 176.445L290.481 176.021C290.662 176.015 290.814 176.156 290.821 176.337L290.824 176.438C290.831 176.618 290.69 176.77 290.509 176.777L278.996 177.201C278.815 177.207 278.663 177.066 278.656 176.885L278.652 176.784C278.646 176.603 278.787 176.451 278.968 176.445Z" fill="#00CCA7"/>
<path d="M279.083 179.541L290.596 179.118C290.777 179.111 290.929 179.253 290.936 179.433L290.94 179.534C290.946 179.715 290.805 179.867 290.624 179.874L279.111 180.297C278.93 180.304 278.778 180.163 278.771 179.982L278.768 179.881C278.761 179.7 278.902 179.548 279.083 179.541Z" fill="#00CCA7"/>
<path d="M285.164 182.402L290.741 182.229C290.784 182.227 290.826 182.234 290.866 182.249C290.906 182.264 290.943 182.286 290.974 182.316C291.005 182.345 291.029 182.38 291.047 182.419C291.064 182.458 291.073 182.5 291.074 182.543L291.078 182.644C291.081 182.731 291.05 182.815 290.992 182.879C290.933 182.943 290.851 182.981 290.764 182.985L285.195 183.158C285.152 183.16 285.11 183.153 285.07 183.138C285.03 183.123 284.993 183.1 284.962 183.071C284.931 183.042 284.907 183.007 284.889 182.968C284.872 182.929 284.863 182.887 284.862 182.844L284.858 182.743C284.855 182.701 284.861 182.658 284.875 182.618C284.889 182.577 284.91 182.54 284.939 182.508C284.967 182.477 285.002 182.451 285.04 182.433C285.079 182.414 285.121 182.404 285.164 182.402Z" fill="#00CCA7"/>
<path d="M147.635 66.0232L163.898 65.3454C169.013 65.1323 173.332 69.1057 173.545 74.2203L174.223 90.4834C174.436 95.598 170.463 99.917 165.348 100.13L149.085 100.808C143.97 101.021 139.651 97.0477 139.438 91.9331L138.76 75.67C138.547 70.5553 142.521 66.2363 147.635 66.0232Z" fill="#00CCA7"/>
<path opacity="0.6" d="M147.635 66.0232L163.898 65.3454C169.013 65.1323 173.332 69.1057 173.545 74.2203L174.223 90.4834C174.436 95.598 170.463 99.917 165.348 100.13L149.085 100.808C143.97 101.021 139.651 97.0477 139.438 91.9331L138.76 75.67C138.547 70.5553 142.521 66.2363 147.635 66.0232Z" fill="white"/>
<path d="M155.856 70.9548C156.905 70.9111 157.952 71.0744 158.937 71.4353C159.923 71.7962 160.827 72.3476 161.6 73.0582C162.372 73.7687 162.997 74.6244 163.438 75.5764C163.88 76.5285 164.13 77.5581 164.174 78.6067C164.358 83.023 156.841 94.5897 156.841 94.5897C156.841 94.5897 148.388 83.6885 148.204 79.2722C148.161 78.2237 148.324 77.1768 148.685 76.1913C149.046 75.2058 149.597 74.3011 150.308 73.5288C151.018 72.7564 151.874 72.1316 152.826 71.69C153.778 71.2483 154.808 70.9985 155.856 70.9548ZM156.282 82.7792C157.029 82.7465 157.749 82.493 158.352 82.051C158.955 81.609 159.413 80.9982 159.669 80.2959C159.925 79.5935 159.967 78.831 159.789 78.1048C159.612 77.3785 159.224 76.7211 158.673 76.2156C158.122 75.7101 157.434 75.3791 156.695 75.2646C155.957 75.15 155.201 75.257 154.523 75.5719C153.845 75.8869 153.275 76.3957 152.886 77.0341C152.497 77.6726 152.307 78.4119 152.338 79.1588C152.358 79.6557 152.477 80.1436 152.686 80.5946C152.896 81.0456 153.192 81.4509 153.559 81.7872C153.925 82.1235 154.354 82.3842 154.821 82.5544C155.289 82.7247 155.785 82.8011 156.282 82.7792Z" fill="#00CCA7"/>
<path d="M93.5575 105.75L109.804 105.073C114.909 104.86 119.22 108.827 119.433 113.932L120.11 130.178C120.323 135.284 116.357 139.595 111.251 139.808L95.0051 140.485C89.8997 140.697 85.5886 136.731 85.3758 131.626L84.6987 115.38C84.486 110.274 88.4522 105.963 93.5575 105.75Z" fill="#00CCA7"/>
<path d="M93.5575 105.75L109.804 105.073C114.909 104.86 119.22 108.827 119.433 113.932L120.11 130.178C120.323 135.284 116.357 139.595 111.251 139.808L95.0051 140.485C89.8997 140.697 85.5886 136.731 85.3758 131.626L84.6987 115.38C84.486 110.274 88.4522 105.963 93.5575 105.75Z" fill="#00CCA7"/>
<path d="M98.2816 117.411L98.4856 122.305C98.5261 123.279 98.9516 124.196 99.6683 124.855C100.385 125.515 101.334 125.862 102.308 125.822L106.976 125.627L112.529 130.736L112.307 125.405C113.28 125.364 114.197 124.939 114.857 124.222C115.516 123.505 115.864 122.556 115.823 121.583L115.619 116.688C115.577 115.716 115.15 114.802 114.434 114.144C113.717 113.486 112.769 113.14 111.798 113.18L101.798 113.597C101.317 113.616 100.844 113.73 100.406 113.932C99.9687 114.134 99.5754 114.42 99.2487 114.774C98.9221 115.129 98.6685 115.544 98.5026 115.996C98.3366 116.448 98.2615 116.929 98.2816 117.411Z" fill="white"/>
<path d="M112.991 131.737L112.742 125.784C113.735 125.627 114.636 125.111 115.273 124.334C115.911 123.557 116.24 122.573 116.2 121.569L115.996 116.674C115.949 115.591 115.474 114.571 114.675 113.838C113.877 113.105 112.82 112.719 111.737 112.764L101.738 113.181C100.655 113.226 99.6338 113.699 98.8991 114.496C98.1644 115.293 97.7759 116.349 97.8188 117.432L98.0228 122.327C98.0702 123.41 98.545 124.431 99.3433 125.165C100.142 125.9 101.198 126.288 102.282 126.245L106.774 126.058L112.991 131.737ZM111.814 113.602C112.675 113.566 113.514 113.873 114.148 114.455C114.783 115.037 115.161 115.847 115.199 116.707L115.403 121.602C115.436 122.464 115.128 123.303 114.544 123.937C113.961 124.571 113.15 124.949 112.289 124.987L111.869 125.005L112.066 129.731L107.125 125.194L102.289 125.395C101.427 125.431 100.586 125.123 99.9515 124.539C99.3168 123.955 98.94 123.143 98.9041 122.282L98.7001 117.387C98.6823 116.96 98.7488 116.535 98.8958 116.134C99.0428 115.734 99.2673 115.366 99.5566 115.052C99.8459 114.739 100.194 114.485 100.582 114.306C100.969 114.128 101.388 114.027 101.814 114.01L111.814 113.602Z" fill="#00CCA7"/>
<path d="M89.0267 125.191L89.1834 128.952C89.2146 129.7 89.5417 130.405 90.0928 130.912C90.6439 131.419 91.3739 131.687 92.1221 131.656L92.2932 135.761L96.2277 131.484L99.7876 131.336C100.536 131.305 101.241 130.978 101.748 130.427C102.255 129.876 102.522 129.146 102.491 128.397L102.334 124.636C102.301 123.889 101.973 123.185 101.423 122.678C100.872 122.172 100.143 121.904 99.3957 121.933L91.6966 122.253C90.9554 122.295 90.2603 122.627 89.7609 123.176C89.2616 123.725 88.9979 124.449 89.0267 125.191Z" fill="white"/>
<path d="M91.9148 136.793L96.4206 131.896L99.8042 131.755C100.664 131.719 101.474 131.343 102.056 130.71C102.639 130.077 102.946 129.238 102.91 128.379L102.753 124.617C102.717 123.758 102.342 122.948 101.709 122.365C101.075 121.783 100.237 121.476 99.3773 121.512L91.6781 121.832C90.8186 121.868 90.0085 122.244 89.4261 122.877C88.8436 123.51 88.5365 124.349 88.5724 125.208L88.7291 128.97C88.7632 129.756 89.0814 130.504 89.6249 131.074C90.1683 131.643 90.9 131.997 91.6842 132.068L91.9148 136.793ZM99.4123 122.351C100.049 122.325 100.67 122.552 101.14 122.984C101.609 123.415 101.887 124.015 101.914 124.652L102.07 128.414C102.084 128.729 102.034 129.044 101.926 129.34C101.817 129.637 101.652 129.909 101.438 130.141C101.224 130.373 100.967 130.561 100.681 130.694C100.394 130.827 100.085 130.902 99.7692 130.915L95.9994 131.072L92.6361 134.728L92.4898 131.218L92.07 131.236C91.4338 131.26 90.8137 131.032 90.3451 130.601C89.8765 130.17 89.5974 129.571 89.5687 128.935L89.412 125.173C89.3877 124.537 89.6159 123.917 90.047 123.448C90.4781 122.98 91.0771 122.701 91.7131 122.672L99.4123 122.351Z" fill="#00CCA7"/>
<path d="M102.173 117.529L111.224 117.152C111.335 117.147 111.44 117.099 111.515 117.017C111.591 116.935 111.631 116.826 111.626 116.715C111.621 116.603 111.573 116.498 111.491 116.423C111.409 116.348 111.3 116.308 111.189 116.312L102.138 116.69C102.026 116.694 101.921 116.743 101.846 116.825C101.771 116.907 101.731 117.016 101.735 117.127C101.74 117.238 101.789 117.343 101.871 117.419C101.953 117.494 102.061 117.534 102.173 117.529Z" fill="#00CCA7"/>
<path d="M102.261 119.675L111.311 119.298C111.423 119.293 111.528 119.245 111.603 119.163C111.679 119.081 111.718 118.972 111.714 118.861C111.709 118.749 111.66 118.644 111.578 118.569C111.496 118.494 111.388 118.454 111.276 118.458L102.226 118.836C102.114 118.84 102.009 118.889 101.934 118.971C101.858 119.053 101.819 119.162 101.823 119.273C101.828 119.384 101.877 119.489 101.959 119.565C102.041 119.64 102.149 119.68 102.261 119.675Z" fill="#00CCA7"/>
<path d="M104.863 121.68L111.403 121.407C111.515 121.403 111.62 121.354 111.695 121.272C111.77 121.19 111.81 121.081 111.806 120.97C111.801 120.859 111.752 120.754 111.67 120.678C111.588 120.603 111.48 120.563 111.368 120.568L104.828 120.84C104.717 120.847 104.614 120.896 104.539 120.978C104.464 121.059 104.423 121.167 104.425 121.278C104.43 121.389 104.479 121.494 104.561 121.569C104.643 121.645 104.751 121.685 104.863 121.68Z" fill="#00CCA7"/>
<path d="M114.651 164.362L130.914 163.684C136.029 163.471 140.348 167.444 140.561 172.559L141.239 188.822C141.452 193.936 137.478 198.255 132.364 198.469L116.101 199.146C110.986 199.359 106.667 195.386 106.454 190.271L105.776 174.008C105.563 168.894 109.536 164.575 114.651 164.362Z" fill="#00CCA7"/>
<path d="M110.397 184.26C110.413 184.638 110.467 185.94 110.559 186.314L137.132 185.207C137.124 185.022 137.077 183.88 137.069 183.687C137.007 182.202 136.395 180.794 135.351 179.736C134.307 178.679 132.906 178.048 131.422 177.968L131.412 177.708C131.336 176.041 130.668 174.456 129.528 173.238C128.388 172.019 126.851 171.248 125.193 171.061C123.535 170.875 121.865 171.286 120.483 172.221C119.102 173.156 118.099 174.553 117.655 176.161C117.239 176.191 116.825 176.25 116.417 176.339C114.645 176.746 113.072 177.761 111.972 179.209C110.872 180.657 110.315 182.444 110.397 184.26Z" fill="white"/>
<path d="M102.473 228.93L118.719 228.253C123.824 228.041 128.135 232.007 128.348 237.112L129.025 253.358C129.238 258.464 125.272 262.775 120.166 262.988L103.92 263.665C98.8148 263.878 94.5036 259.911 94.2908 254.806L93.6138 238.56C93.401 233.454 97.3672 229.143 102.473 228.93Z" fill="#00CCA7"/>
<g opacity="0.6">
<path d="M102.472 228.931L118.718 228.254C123.823 228.041 128.134 232.007 128.347 237.113L129.024 253.359C129.237 258.464 125.271 262.775 120.165 262.988L103.919 263.665C98.8138 263.878 94.5026 259.912 94.2899 254.807L93.6128 238.56C93.4 233.455 97.3662 229.144 102.472 228.931Z" fill="white"/>
</g>
<path fill-rule="evenodd" clip-rule="evenodd" d="M100.6 242.905L101.016 252.896L122.166 252.015L121.746 241.939L111.667 249.122L100.6 242.905Z" fill="white"/>
<path fill-rule="evenodd" clip-rule="evenodd" d="M100.513 240.874L100.519 241.016L111.586 247.225L121.665 240.043L121.663 239.992L100.513 240.874Z" fill="white"/>
</g>
<defs>
<clipPath id="clip0_1_7662">
<rect width="420.166" height="420.166" fill="white" transform="matrix(-0.999133 0.0416392 0.0416392 0.999133 419.801 0)"/>
</clipPath>
</defs>
</svg>
