<svg width="32" height="23" viewBox="0 0 32 23" fill="none" xmlns="http://www.w3.org/2000/svg">
<path d="M29.0909 6.75049C26.9818 6.75049 25.8036 8.69557 26.2836 10.1409L21.12 14.9495C20.6836 14.828 20.0436 14.828 19.6073 14.9495L15.8982 11.5051C16.3927 10.0598 15.2145 8.10124 13.0909 8.10124C10.9818 8.10124 9.78909 10.0463 10.2836 11.5051L3.65091 17.651C2.09455 17.2053 0 18.2994 0 20.258C0 21.7438 1.30909 22.9595 2.90909 22.9595C5.01818 22.9595 6.19636 21.0144 5.71636 19.5691L12.3345 13.4097C12.7709 13.5313 13.4109 13.5313 13.8473 13.4097L17.5564 16.8541C17.0618 18.2994 18.24 20.258 20.3636 20.258C22.4727 20.258 23.6655 18.3129 23.1709 16.8541L28.3491 12.0589C29.9055 12.5047 32 11.4106 32 9.45199C32 7.96616 30.6909 6.75049 29.0909 6.75049Z" fill="#00CCA7"/>
<path d="M20.3636 8.1045L21.7309 5.30845L24.7273 4.05225L21.7309 2.79605L20.3636 0L19.0255 2.79605L16 4.05225L19.0255 5.30845L20.3636 8.1045ZM3.63636 10.806L4.36364 8.1045L7.27273 7.42912L4.36364 6.75375L3.63636 4.05225L2.90909 6.75375L0 7.42912L2.90909 8.1045L3.63636 10.806Z" fill="#00CCA7"/>
</svg>
