<svg width="32" height="29" viewBox="0 0 32 29" fill="none" xmlns="http://www.w3.org/2000/svg">
<path d="M31.4915 17.3821L26.5574 14.5555V8.90226C26.5571 8.72527 26.5097 8.55154 26.4202 8.39886C26.3307 8.24618 26.2023 8.12002 26.048 8.03329L20.6145 4.91702C20.4626 4.82935 20.2904 4.7832 20.1151 4.7832C19.9397 4.7832 19.7675 4.82935 19.6157 4.91702L14.1822 8.03329C14.0279 8.12002 13.8994 8.24618 13.8099 8.39886C13.7204 8.55154 13.6731 8.72527 13.6728 8.90226V14.5555L8.73867 17.3821C8.58625 17.4701 8.45978 17.5968 8.37209 17.7494C8.28439 17.902 8.23857 18.0751 8.23927 18.2511V24.4836C8.24032 24.6579 8.28697 24.8289 8.37458 24.9796C8.46219 25.1303 8.58771 25.2555 8.73867 25.3426L14.1822 28.4589C14.334 28.5465 14.5062 28.5927 14.6816 28.5927C14.8569 28.5927 15.0291 28.5465 15.181 28.4589L20.1251 25.6323L25.0692 28.4589C25.2204 28.5487 25.3927 28.5969 25.5686 28.5987C25.741 28.5952 25.9096 28.547 26.058 28.4589L31.5015 25.3426C31.6524 25.2555 31.7779 25.1303 31.8656 24.9796C31.9532 24.8289 31.9998 24.6579 32.0009 24.4836V18.2511C32.0006 18.0741 31.9532 17.9004 31.8637 17.7477C31.7742 17.595 31.6458 17.4688 31.4915 17.3821ZM20.1151 6.93461L24.5598 9.48156V14.8052L20.1051 17.3621L15.6704 14.7652V9.48156L20.1151 6.93461ZM14.6716 26.4413L10.2369 23.9043V18.8004L14.9113 16.1236L19.306 18.6906V23.7945L14.6716 26.4413ZM29.9633 23.9043L25.5286 26.4413L20.9041 23.7945V18.7305L25.3588 16.1636L29.9633 18.8004V23.9043Z" fill="#00CCA7"/>
<path d="M4.99449 23.2252C4.72959 23.2252 4.47554 23.12 4.28823 22.9327C4.10091 22.7454 3.99568 22.4913 3.99568 22.2264V15.7042C3.98959 15.5232 4.03284 15.3439 4.12081 15.1856C4.20878 15.0272 4.33815 14.8958 4.49509 14.8053L9.43918 11.9787V6.3554C9.43848 6.1794 9.4843 6.00634 9.572 5.85374C9.65969 5.70115 9.78616 5.57444 9.93858 5.48644L15.1424 2.49002C15.2564 2.42398 15.3823 2.38114 15.5129 2.36398C15.6435 2.34682 15.7763 2.35567 15.9035 2.39002C16.0306 2.42437 16.1498 2.48354 16.254 2.56413C16.3582 2.64472 16.4455 2.74513 16.5107 2.85958C16.5764 2.97417 16.6186 3.10064 16.6351 3.23168C16.6515 3.36271 16.6418 3.4957 16.6065 3.62296C16.5712 3.75021 16.511 3.86921 16.4294 3.97305C16.3478 4.0769 16.2465 4.16353 16.1312 4.22794L11.4368 6.90474V12.558C11.4365 12.735 11.3892 12.9087 11.2997 13.0614C11.2101 13.2141 11.0817 13.3402 10.9274 13.4269L5.9933 16.2835V22.2264C5.9933 22.4913 5.88806 22.7454 5.70075 22.9327C5.51344 23.12 5.25939 23.2252 4.99449 23.2252Z" fill="#00CCA7"/>
<path d="M0.998806 20.8485C0.733906 20.8485 0.479856 20.7433 0.292544 20.556C0.105231 20.3687 0 20.1146 0 19.8497V13.3375C0.00105211 13.1632 0.0477019 12.9922 0.135313 12.8415C0.222924 12.6908 0.348446 12.5657 0.499403 12.4785L5.49343 9.64192V3.98868C5.49449 3.81437 5.54114 3.64338 5.62875 3.49269C5.71636 3.342 5.84188 3.21686 5.99284 3.12971L11.2366 0.133287C11.467 0.000837326 11.7407 -0.0346368 11.9973 0.0346688C12.2539 0.103974 12.4725 0.272383 12.6049 0.502845C12.7374 0.733308 12.7729 1.00695 12.7036 1.26357C12.6342 1.52018 12.4658 1.73876 12.2354 1.87121L7.44111 4.56799V10.2212C7.4408 10.3982 7.39348 10.5719 7.30397 10.7246C7.21447 10.8773 7.086 11.0035 6.93172 11.0902L1.99761 13.9168V19.8497C1.99761 20.1146 1.89238 20.3687 1.70507 20.556C1.51776 20.7433 1.26371 20.8485 0.998806 20.8485Z" fill="#00CCA7"/>
</svg>
