<svg width="32" height="39" viewBox="0 0 32 39" fill="none" xmlns="http://www.w3.org/2000/svg">
<path d="M13.9153 23.3986V26.9984C11.1474 26.9984 8.49282 28.1362 6.5356 30.1614C4.57838 32.1867 3.47883 34.9336 3.47883 37.7977H0C0 33.9788 1.46607 30.3164 4.0757 27.616C6.68533 24.9156 10.2247 23.3986 13.9153 23.3986ZM13.9153 21.5987C8.14915 21.5987 3.47883 16.766 3.47883 10.7993C3.47883 4.83271 8.14915 0 13.9153 0C19.6815 0 24.3518 4.83271 24.3518 10.7993C24.3518 16.766 19.6815 21.5987 13.9153 21.5987ZM13.9153 17.9989C17.7594 17.9989 20.873 14.7771 20.873 10.7993C20.873 6.82159 17.7594 3.59978 13.9153 3.59978C10.0712 3.59978 6.95766 6.82159 6.95766 10.7993C6.95766 14.7771 10.0712 17.9989 13.9153 17.9989ZM18.4291 32.0597C18.2085 31.0993 18.2085 30.0988 18.4291 29.1384L16.7036 28.1071L18.443 24.9897L20.1685 26.021C20.8611 25.3423 21.6983 24.8416 22.6124 24.5595V22.4986H26.0912V24.5595C27.0166 24.8439 27.8515 25.3515 28.5351 26.021L30.2606 24.9897L32 28.1071L30.2745 29.1384C30.4948 30.0982 30.4948 31.0981 30.2745 32.0579L32 33.0892L30.2606 36.2066L28.5351 35.1753C27.8425 35.8541 27.0053 36.3547 26.0912 36.6368V38.6977H22.6124V36.6368C21.6983 36.3547 20.8611 35.8541 20.1685 35.1753L18.443 36.2066L16.7036 33.0892L18.4291 32.0597ZM24.3518 33.298C25.0438 33.298 25.7074 33.0135 26.1967 32.5072C26.686 32.0009 26.9609 31.3142 26.9609 30.5982C26.9609 29.8821 26.686 29.1954 26.1967 28.6891C25.7074 28.1828 25.0438 27.8983 24.3518 27.8983C23.6598 27.8983 22.9962 28.1828 22.5069 28.6891C22.0176 29.1954 21.7427 29.8821 21.7427 30.5982C21.7427 31.3142 22.0176 32.0009 22.5069 32.5072C22.9962 33.0135 23.6598 33.298 24.3518 33.298Z" fill="#00CCA7"/>
</svg>
