<svg xmlns="http://www.w3.org/2000/svg" width="64" height="65" viewBox="0 0 64 65" fill="none">
    <path d="M64 32.875C64 50.5481 49.6731 64.875 32 64.875C14.3269 64.875 0 50.5481 0 32.875C0 15.2019 14.3269 0.875 32 0.875C49.6731 0.875 64 15.2019 64 32.875Z" fill="white"/>
    <path fill-rule="evenodd" clip-rule="evenodd" d="M32 61.0442C47.5574 61.0442 60.1692 48.4324 60.1692 32.875C60.1692 17.3176 47.5574 4.70581 32 4.70581C16.4426 4.70581 3.83081 17.3176 3.83081 32.875C3.83081 48.4324 16.4426 61.0442 32 61.0442ZM32 64.875C49.6731 64.875 64 50.5481 64 32.875C64 15.2019 49.6731 0.875 32 0.875C14.3269 0.875 0 15.2019 0 32.875C0 50.5481 14.3269 64.875 32 64.875Z" fill="#FFA95C"/>
    <path d="M57.8736 32.8748C57.8736 47.1637 46.2901 58.7471 32.0012 58.7471C17.7123 58.7471 6.12891 47.1637 6.12891 32.8748C6.12891 18.5859 17.7123 7.00244 32.0012 7.00244C46.2901 7.00244 57.8736 18.5859 57.8736 32.8748Z" fill="#FF912E"/>
    <path d="M35.6253 34.9237H33.6395V33.037C33.6387 32.2867 33.3246 31.5673 32.7662 31.0367C32.2077 30.5061 31.4505 30.2077 30.6608 30.207H26.6891C25.8994 30.2077 25.1422 30.5061 24.5837 31.0367C24.0253 31.5673 23.7112 32.2867 23.7104 33.037V34.9237H21.7246V33.037C21.7262 31.7865 22.2497 30.5877 23.1804 29.7035C24.1111 28.8192 25.373 28.3218 26.6891 28.3203H30.6608C31.977 28.3218 33.2388 28.8192 34.1695 29.7035C35.1002 30.5877 35.6237 31.7865 35.6253 33.037V34.9237Z" fill="white"/>
    <path d="M28.6804 18.8867C29.2695 18.8867 29.8454 19.0527 30.3352 19.3636C30.8251 19.6746 31.2069 20.1166 31.4323 20.6337C31.6578 21.1508 31.7168 21.7198 31.6018 22.2688C31.4869 22.8178 31.2032 23.322 30.7866 23.7178C30.37 24.1136 29.8393 24.3831 29.2615 24.4923C28.6837 24.6015 28.0847 24.5455 27.5404 24.3313C26.9962 24.1171 26.5309 23.7544 26.2036 23.289C25.8763 22.8236 25.7016 22.2764 25.7016 21.7167C25.7016 20.9661 26.0155 20.2463 26.5741 19.7156C27.1327 19.1848 27.8903 18.8867 28.6804 18.8867ZM28.6804 17C27.6985 17 26.7386 17.2766 25.9222 17.7949C25.1058 18.3132 24.4695 19.0498 24.0937 19.9117C23.718 20.7736 23.6197 21.7219 23.8112 22.6369C24.0028 23.5518 24.4756 24.3923 25.1699 25.0519C25.8642 25.7115 26.7488 26.1608 27.7118 26.3428C28.6748 26.5248 29.673 26.4314 30.5802 26.0744C31.4873 25.7174 32.2627 25.1128 32.8082 24.3372C33.3537 23.5615 33.6449 22.6496 33.6449 21.7167C33.6449 20.4658 33.1218 19.266 32.1908 18.3815C31.2598 17.4969 29.997 17 28.6804 17Z" fill="white"/>
    <path d="M19.7422 37.7539H47.5436V39.6406H19.7422V37.7539Z" fill="white"/>
    <path d="M49.4951 24.302C49.4614 24.1823 49.4031 24.0701 49.3237 23.9718C49.2443 23.8735 49.1453 23.7911 49.0324 23.7291C48.9194 23.6672 48.7947 23.627 48.6654 23.6109C48.5361 23.5947 48.4048 23.6029 48.2788 23.635L45.2147 24.4142L41.5856 19.8296L40.5927 20.0824L42.0404 25.2217L39.294 25.9198L37.614 23.7973L36.6211 24.0501L37.5485 27.3405C37.6164 27.5821 37.7827 27.7882 38.0106 27.9135C38.2385 28.0387 38.5094 28.0729 38.7638 28.0083L48.7921 25.4576C48.9182 25.4256 49.0364 25.3703 49.1399 25.2949C49.2435 25.2195 49.3304 25.1255 49.3957 25.0182C49.461 24.9109 49.5034 24.7924 49.5204 24.6695C49.5375 24.5466 49.5289 24.4217 49.4951 24.302Z" fill="white"/>
</svg>