<svg xmlns="http://www.w3.org/2000/svg" width="64" height="65" viewBox="0 0 64 65" fill="none">
    <path d="M64 32.875C64 50.5481 49.6731 64.875 32 64.875C14.3269 64.875 0 50.5481 0 32.875C0 15.2019 14.3269 0.875 32 0.875C49.6731 0.875 64 15.2019 64 32.875Z" fill="white"/>
    <path fill-rule="evenodd" clip-rule="evenodd" d="M32 62.1516C48.169 62.1516 61.2766 49.044 61.2766 32.875C61.2766 16.706 48.169 3.5984 32 3.5984C15.831 3.5984 2.7234 16.706 2.7234 32.875C2.7234 49.044 15.831 62.1516 32 62.1516ZM32 64.875C49.6731 64.875 64 50.5481 64 32.875C64 15.2019 49.6731 0.875 32 0.875C14.3269 0.875 0 15.2019 0 32.875C0 50.5481 14.3269 64.875 32 64.875Z" fill="#98F5E5"/>
    <path d="M57.8746 32.8772C57.8746 47.1661 46.2911 58.7496 32.0022 58.7496C17.7133 58.7496 6.12988 47.1661 6.12988 32.8772C6.12988 18.5883 17.7133 7.00488 32.0022 7.00488C46.2911 7.00488 57.8746 18.5883 57.8746 32.8772Z" fill="#98F5E5"/>
    <path fill-rule="evenodd" clip-rule="evenodd" d="M15.6582 28.4174C15.6582 27.6653 16.2679 27.0557 17.0199 27.0557H23.5561C24.3081 27.0557 24.9178 27.6653 24.9178 28.4174V39.2847C24.9178 40.0367 24.3081 40.6464 23.5561 40.6464H17.0199C16.2679 40.6464 15.6582 40.0367 15.6582 39.2847V28.4174ZM18.3816 29.7791V37.923H22.1944V29.7791H18.3816Z" fill="white"/>
    <path fill-rule="evenodd" clip-rule="evenodd" d="M27.0986 23.7621C27.0986 23.01 27.7083 22.4004 28.4603 22.4004H34.9965C35.7486 22.4004 36.3582 23.01 36.3582 23.7621V43.9442C36.3582 44.6962 35.7486 45.3059 34.9965 45.3059H28.4603C27.7083 45.3059 27.0986 44.6962 27.0986 43.9442V23.7621ZM29.822 25.1238V42.5825H33.6348V25.1238H29.822Z" fill="white"/>
    <path fill-rule="evenodd" clip-rule="evenodd" d="M31.7299 42.5815C32.4819 42.5815 33.0916 43.1912 33.0916 43.9432V47.0482C33.0916 47.8002 32.4819 48.4099 31.7299 48.4099C30.9778 48.4099 30.3682 47.8002 30.3682 47.0482V43.9432C30.3682 43.1912 30.9778 42.5815 31.7299 42.5815Z" fill="white"/>
    <path fill-rule="evenodd" clip-rule="evenodd" d="M38.5352 22.2103C38.5352 21.4583 39.1448 20.8486 39.8969 20.8486H46.433C47.1851 20.8486 47.7947 21.4583 47.7947 22.2103V29.1965C47.7947 29.9485 47.1851 30.5582 46.433 30.5582H39.8969C39.1448 30.5582 38.5352 29.9485 38.5352 29.1965V22.2103ZM41.2586 23.572V27.8347H45.0713V23.572H41.2586Z" fill="white"/>
    <path fill-rule="evenodd" clip-rule="evenodd" d="M20.2894 19.2969C21.0415 19.2969 21.6511 19.9065 21.6511 20.6586V28.4209C21.6511 29.173 21.0415 29.7826 20.2894 29.7826C19.5374 29.7826 18.9277 29.173 18.9277 28.4209V20.6586C18.9277 19.9065 19.5374 19.2969 20.2894 19.2969Z" fill="white"/>
    <path fill-rule="evenodd" clip-rule="evenodd" d="M43.1635 27.8315C43.9155 27.8315 44.5252 28.4412 44.5252 29.1932V39.2843C44.5252 40.0363 43.9155 40.646 43.1635 40.646C42.4114 40.646 41.8018 40.0363 41.8018 39.2843V29.1932C41.8018 28.4412 42.4114 27.8315 43.1635 27.8315Z" fill="white"/>
    <path fill-rule="evenodd" clip-rule="evenodd" d="M43.1635 14.6382C43.9155 14.6382 44.5252 15.2478 44.5252 15.9999V22.2098C44.5252 22.9618 43.9155 23.5715 43.1635 23.5715C42.4114 23.5715 41.8018 22.9618 41.8018 22.2098V15.9999C41.8018 15.2478 42.4114 14.6382 43.1635 14.6382Z" fill="white"/>
</svg>