<svg width="32" height="36" viewBox="0 0 32 36" fill="none" xmlns="http://www.w3.org/2000/svg">
<path d="M13.1729 4.99524C13.1729 4.73362 13.2768 4.48271 13.4618 4.29772C13.6468 4.11272 13.8977 4.00879 14.1593 4.00879H18.1051C18.3668 4.00879 18.6177 4.11272 18.8027 4.29772C18.9877 4.48271 19.0916 4.73362 19.0916 4.99524C19.0916 5.25687 18.9877 5.50778 18.8027 5.69277C18.6177 5.87777 18.3668 5.9817 18.1051 5.9817H14.1593C13.8977 5.9817 13.6468 5.87777 13.4618 5.69277C13.2768 5.50778 13.1729 5.25687 13.1729 4.99524Z" fill="#00CCA7"/>
<path fill-rule="evenodd" clip-rule="evenodd" d="M25.2391 12.3504C24.881 12.6316 24.4164 12.8565 23.856 13.039C23.9632 14.1349 23.8399 15.2411 23.494 16.2865C23.1481 17.3318 22.5872 18.2933 21.8474 19.1089C21.1077 19.9245 20.2054 20.5763 19.1987 21.0224C18.192 21.4684 17.103 21.6989 16.0019 21.6989C14.9008 21.6989 13.8118 21.4684 12.8051 21.0224C11.7983 20.5763 10.8961 19.9245 10.1563 19.1089C9.41659 18.2933 8.85572 17.3318 8.50979 16.2865C8.16387 15.2411 8.04053 14.1349 8.14773 13.039C7.58743 12.8565 7.1228 12.6316 6.76571 12.3504C6.30207 11.9854 5.99134 11.4981 5.95484 10.9122C5.92032 10.3686 6.13536 9.90697 6.35041 9.58144C6.5627 9.2731 6.81478 8.99416 7.10012 8.75183C7.23822 8.6305 7.37435 8.52297 7.50062 8.42926C7.46313 8.22704 7.4217 7.9824 7.38027 7.69928C7.20551 6.45583 7.1198 5.20149 7.12379 3.94582C7.12379 3.63607 7.25598 3.40524 7.31714 3.30758C7.39408 3.18428 7.48483 3.07873 7.5677 2.99389C7.73243 2.82126 7.94551 2.64567 8.1793 2.47699C8.6528 2.1337 9.30386 1.748 10.0772 1.38696C11.6191 0.666844 13.737 0 16.0019 0C18.2678 0 20.3847 0.66783 21.9265 1.38696C22.5914 1.69106 23.2268 2.05596 23.8245 2.47699C24.0583 2.64567 24.2713 2.82225 24.4361 2.99389C24.5189 3.07873 24.6097 3.18428 24.6866 3.30758C24.7478 3.40524 24.88 3.63607 24.88 3.94582C24.88 5.52612 24.7518 6.80654 24.6235 7.69928C24.5821 7.9824 24.5406 8.22704 24.5032 8.42926C24.6294 8.52297 24.7665 8.6305 24.9047 8.75183C25.1513 8.96786 25.4334 9.24901 25.6534 9.58144C25.8694 9.90697 26.0835 10.3686 26.0499 10.9132C26.0134 11.4981 25.7027 11.9854 25.2391 12.3504ZM9.09868 4.25951C9.11347 5.58926 9.22395 6.66449 9.33345 7.41617C9.3591 7.59373 9.38475 7.75157 9.40842 7.89164H22.5954C22.62 7.75157 22.6447 7.59275 22.6703 7.41617C22.7788 6.66449 22.8903 5.58926 22.9051 4.25951C22.8283 4.1946 22.749 4.13274 22.6674 4.07406C22.3113 3.8166 21.7707 3.49205 21.092 3.1754C19.7277 2.53815 17.8998 1.97291 16.0019 1.97291C14.1039 1.97291 12.276 2.53815 10.9118 3.1754C10.2331 3.49205 9.69252 3.8166 9.3374 4.07307C9.25538 4.13237 9.17574 4.1949 9.09868 4.2605V4.25951ZM8.88757 9.86455L8.88461 9.86653C8.71436 9.97998 8.55128 10.1038 8.39632 10.2374C8.22073 10.3913 8.08065 10.5413 7.99582 10.6715C7.97563 10.7008 7.9575 10.7314 7.94156 10.7632C7.95553 10.776 7.97001 10.7881 7.98497 10.7997C8.13294 10.9161 8.45057 11.0868 9.07007 11.2555C9.19239 11.289 9.32359 11.3206 9.46366 11.3521L9.47254 11.3541C9.96774 11.4636 10.5774 11.5613 11.3202 11.6382C12.3727 11.7477 13.6975 11.8197 15.3528 11.8355L16.0019 11.8375C19.1852 11.8375 21.2439 11.6392 22.5322 11.3541L22.5401 11.3521C22.6812 11.3206 22.8124 11.289 22.9347 11.2555C23.5532 11.0878 23.8718 10.9161 24.0188 10.7997C24.0338 10.7881 24.0482 10.776 24.0622 10.7632C24.0466 10.7314 24.0288 10.7008 24.0089 10.6715C23.8942 10.5102 23.7593 10.3644 23.6075 10.2374C23.4528 10.1039 23.2901 9.97999 23.1202 9.86653L23.1162 9.86455H8.88757ZM15.7336 13.8104C18.3398 13.8104 20.3601 13.6723 21.9088 13.4316C21.9597 14.2358 21.8458 15.042 21.5742 15.8008C21.3025 16.5595 20.8787 17.2547 20.3289 17.8439C19.779 18.433 19.1146 18.9037 18.3764 19.227C17.6383 19.5503 16.8418 19.7195 16.036 19.7241C15.2301 19.7288 14.4318 19.5688 13.6899 19.254C12.948 18.9392 12.2783 18.4762 11.7217 17.8934C11.1651 17.3107 10.7333 16.6203 10.453 15.8648C10.1726 15.1093 10.0494 14.3044 10.091 13.4996C11.5342 13.6989 13.3838 13.8104 15.7336 13.8104Z" fill="#00CCA7"/>
<path fill-rule="evenodd" clip-rule="evenodd" d="M8.18685 32.4321C8.13545 32.7991 8.10974 33.1692 8.10991 33.5399V34.5263C8.11002 34.7432 8.03867 34.954 7.90689 35.1262C7.77512 35.2985 7.59027 35.4225 7.38093 35.4791C7.17159 35.5357 6.94944 35.5217 6.74883 35.4394C6.54822 35.357 6.38034 35.2108 6.27115 35.0235C5.60632 35.3841 4.82834 35.4756 4.09799 35.279L2.19216 34.768C1.43432 34.5646 0.788297 34.0685 0.396129 33.3889C0.00396162 32.7092 -0.10224 31.9017 0.100875 31.1437L0.866364 28.285C1.06957 27.527 1.56555 26.8807 2.24521 26.4884C2.92487 26.096 3.73255 25.9896 4.4906 26.1927L6.39643 26.7027C7.05933 26.8803 7.60977 27.2699 7.99252 27.779C8.9057 26.5079 10.1086 25.4726 11.5015 24.759C12.8945 24.0454 14.4374 23.6739 16.0025 23.6753C17.5668 23.6743 19.1088 24.0458 20.5011 24.759C21.8933 25.4723 23.0956 26.5068 24.0086 27.777C24.4051 27.2511 24.9663 26.8733 25.6027 26.7037L27.5086 26.1937C28.2665 25.9906 29.074 26.0968 29.7537 26.489C30.4333 26.8811 30.9294 27.5272 31.1328 28.285L31.8993 31.1447C31.9998 31.5202 32.0254 31.9117 31.9746 32.297C31.9238 32.6823 31.7976 33.0539 31.6033 33.3904C31.4089 33.7269 31.1501 34.0219 30.8418 34.2584C30.5334 34.495 30.1814 34.6685 29.806 34.769L27.9012 35.279C27.1721 35.4757 26.3954 35.3853 25.731 35.0264C25.6214 35.2135 25.4533 35.3593 25.2526 35.4413C25.0519 35.5233 24.8298 35.5368 24.6206 35.4799C24.4114 35.423 24.2268 35.2987 24.0953 35.1264C23.9638 34.954 23.8928 34.7431 23.8932 34.5263V33.5399C23.8934 33.1692 23.8677 32.7991 23.8162 32.4321L18.6827 33.8082C18.4444 34.3182 18.0656 34.7497 17.5907 35.052C17.1158 35.3543 16.5645 35.5149 16.0015 35.5149C15.4386 35.5149 14.8873 35.3543 14.4124 35.052C13.9375 34.7497 13.5587 34.3182 13.3204 33.8082L8.18685 32.4321ZM13.1606 31.7218C13.293 31.2721 13.5301 30.8602 13.8524 30.5198C14.1748 30.1794 14.5732 29.9203 15.0151 29.7637V25.7094C13.6314 25.8843 12.3188 26.4224 11.2104 27.2689C10.1021 28.1155 9.23756 29.2403 8.70474 30.5292L13.1606 31.7228V31.7218ZM23.2984 30.5282C22.7654 29.2395 21.9008 28.1149 20.7925 27.2685C19.6842 26.4221 18.3715 25.8842 16.988 25.7094V29.7627C17.8798 30.0784 18.5762 30.8084 18.8425 31.7228L23.2984 30.5292V30.5282ZM25.4163 29.818C25.3827 29.6928 25.3741 29.5623 25.391 29.4338C25.4079 29.3054 25.4499 29.1815 25.5147 29.0693C25.5794 28.9571 25.6657 28.8587 25.7685 28.7798C25.8712 28.7009 25.9886 28.6431 26.1137 28.6095L28.0195 28.0986C28.2721 28.0311 28.5412 28.0666 28.7676 28.1974C28.994 28.3282 29.1592 28.5435 29.227 28.796L29.9934 31.6547C30.027 31.7799 30.0356 31.9104 30.0187 32.0389C30.0018 32.1673 29.9598 32.2912 29.895 32.4034C29.8303 32.5156 29.744 32.614 29.6413 32.6929C29.5385 32.7717 29.4212 32.8296 29.296 32.8631L27.3902 33.3741C27.265 33.4077 27.1344 33.4162 27.0059 33.3993C26.8774 33.3823 26.7535 33.3402 26.6412 33.2754C26.529 33.2105 26.4307 33.1241 26.3518 33.0213C26.273 32.9184 26.2152 32.801 26.1818 32.6757L25.4163 29.818ZM3.9806 28.0986C3.8554 28.0648 3.72478 28.0561 3.59621 28.073C3.46764 28.0898 3.34364 28.1318 3.23132 28.1965C3.11899 28.2613 3.02054 28.3476 2.94159 28.4505C2.86264 28.5533 2.80474 28.6707 2.77121 28.796L2.00572 31.6537C1.97215 31.7789 1.96357 31.9094 1.98045 32.0379C1.99733 32.1663 2.03936 32.2902 2.10412 32.4024C2.16888 32.5146 2.25512 32.613 2.3579 32.6919C2.46068 32.7708 2.578 32.8286 2.70314 32.8622L4.60898 33.3731C4.73412 33.4067 4.86464 33.4153 4.9931 33.3984C5.12156 33.3815 5.24543 33.3395 5.35765 33.2747C5.46986 33.21 5.56822 33.1237 5.6471 33.021C5.72598 32.9182 5.78385 32.8009 5.81738 32.6757L6.58287 29.817C6.61659 29.6918 6.62529 29.5611 6.60848 29.4326C6.59166 29.304 6.54967 29.18 6.48489 29.0677C6.42012 28.9554 6.33383 28.8569 6.23098 28.778C6.12812 28.699 6.0107 28.6411 5.88545 28.6076L3.97962 28.0976L3.9806 28.0986ZM16.988 32.5534C16.988 32.815 16.8841 33.0659 16.6991 33.2509C16.5141 33.4359 16.2632 33.5399 16.0015 33.5399C15.7399 33.5399 15.489 33.4359 15.304 33.2509C15.119 33.0659 15.0151 32.815 15.0151 32.5534C15.0151 32.2918 15.119 32.0409 15.304 31.8559C15.489 31.6709 15.7399 31.5669 16.0015 31.5669C16.2632 31.5669 16.5141 31.6709 16.6991 31.8559C16.8841 32.0409 16.988 32.2918 16.988 32.5534Z" fill="#00CCA7"/>
</svg>
