<svg width="1440" height="698" viewBox="0 0 1440 698" fill="none" xmlns="http://www.w3.org/2000/svg">
<path fill-rule="evenodd" clip-rule="evenodd" d="M1537.67 387.306C1517.82 423.919 1479.36 443.345 1443.33 460C1409.9 475.455 1375.68 474.842 1340.44 478.488C1292.93 483.405 1227.6 524.608 1201.61 485.014C1174.08 443.055 1238.56 383.82 1242.95 329.918C1246.11 291.181 1208.7 258.121 1223.13 221.23C1237.68 184.021 1280.36 170.926 1313.18 150.41C1347.95 128.668 1383.53 87.6885 1419.72 98.3306C1456.57 109.164 1453.62 167.476 1477.11 198.613C1497.65 225.84 1536.76 234.115 1547.57 267.777C1559.54 305.082 1557.61 350.526 1537.67 387.306Z" fill="#DAF8F7"/>
<path fill-rule="evenodd" clip-rule="evenodd" d="M232.733 345.516C212.804 382.266 174.199 401.766 138.038 418.484C104.483 433.997 70.1321 433.382 34.7614 437.042C-12.9296 441.977 -78.5108 483.335 -104.59 443.592C-132.226 401.475 -67.5093 342.017 -63.0968 287.91C-59.9258 249.028 -97.4825 215.843 -82.996 178.812C-68.385 141.464 -25.5506 128.319 7.39202 107.725C42.3019 85.9019 78.0121 44.7674 114.341 55.4497C151.323 66.3239 148.361 124.856 171.943 156.11C192.563 183.44 231.825 191.746 242.669 225.535C254.688 262.981 252.753 308.597 232.733 345.516Z" fill="#DAF8F7"/>
<path d="M1127.32 170.929C1127.32 176.553 1122.76 181.112 1117.13 181.112C1111.51 181.112 1106.95 176.553 1106.95 170.929C1106.95 165.305 1111.51 160.746 1117.13 160.746C1122.76 160.746 1127.32 165.305 1127.32 170.929Z" fill="#FF7900"/>
<path d="M1205.39 218.873C1205.39 223.325 1201.78 226.935 1197.33 226.935C1192.87 226.935 1189.26 223.325 1189.26 218.873C1189.26 214.421 1192.87 210.812 1197.33 210.812C1201.78 210.812 1205.39 214.421 1205.39 218.873Z" fill="#FF7900"/>
<path d="M1173.99 380.529C1173.99 383.81 1171.33 386.469 1168.05 386.469C1164.77 386.469 1162.11 383.81 1162.11 380.529C1162.11 377.248 1164.77 374.589 1168.05 374.589C1171.33 374.589 1173.99 377.248 1173.99 380.529Z" fill="#FF7900"/>
<path d="M206.6 570.614C206.6 576.238 202.041 580.797 196.417 580.797C190.793 580.797 186.234 576.238 186.234 570.614C186.234 564.99 190.793 560.431 196.417 560.431C202.041 560.431 206.6 564.99 206.6 570.614Z" fill="#FF7900"/>
<path d="M408.566 215.904C408.566 220.122 405.146 223.542 400.928 223.542C396.71 223.542 393.291 220.122 393.291 215.904C393.291 211.686 396.71 208.267 400.928 208.267C405.146 208.267 408.566 211.686 408.566 215.904Z" fill="#FF7900"/>
<path d="M226.966 225.238C226.966 230.862 222.407 235.421 216.783 235.421C211.159 235.421 206.6 230.862 206.6 225.238C206.6 219.614 211.159 215.055 216.783 215.055C222.407 215.055 226.966 219.614 226.966 225.238Z" fill="#FF7900"/>
<path d="M499.363 231.178C499.363 233.522 497.463 235.421 495.12 235.421C492.777 235.421 490.877 233.522 490.877 231.178C490.877 228.835 492.777 226.936 495.12 226.936C497.463 226.936 499.363 228.835 499.363 231.178Z" fill="#FF7900"/>
<path d="M243.938 453.507C243.938 455.85 242.038 457.75 239.695 457.75C237.352 457.75 235.452 455.85 235.452 453.507C235.452 451.164 237.352 449.264 239.695 449.264C242.038 449.264 243.938 451.164 243.938 453.507Z" fill="#FF7900"/>
<path d="M247.334 624.923C247.334 630.547 242.775 635.106 237.151 635.106C231.527 635.106 226.968 630.547 226.968 624.923C226.968 619.299 231.527 614.74 237.151 614.74C242.775 614.74 247.334 619.299 247.334 624.923Z" fill="#00CCA7"/>
<path d="M299.943 190.446C299.943 196.07 295.384 200.629 289.76 200.629C284.136 200.629 279.577 196.07 279.577 190.446C279.577 184.822 284.136 180.263 289.76 180.263C295.384 180.263 299.943 184.822 299.943 190.446Z" fill="#00CCA7"/>
<path d="M251.576 692.385C251.576 695.431 249.106 697.901 246.06 697.901C243.013 697.901 240.544 695.431 240.544 692.385C240.544 689.339 243.013 686.869 246.06 686.869C249.106 686.869 251.576 689.339 251.576 692.385Z" fill="#00CCA7"/>
<path d="M1175.69 141.653C1175.69 143.762 1173.98 145.471 1171.87 145.471C1169.76 145.471 1168.05 143.762 1168.05 141.653C1168.05 139.544 1169.76 137.834 1171.87 137.834C1173.98 137.834 1175.69 139.544 1175.69 141.653Z" fill="#00CCA7"/>
<path d="M1123.07 233.3C1123.07 236.815 1120.23 239.664 1116.71 239.664C1113.2 239.664 1110.35 236.815 1110.35 233.3C1110.35 229.785 1113.2 226.936 1116.71 226.936C1120.23 226.936 1123.07 229.785 1123.07 233.3Z" fill="#00CCA7"/>
<path d="M202.356 390.712C202.356 396.336 197.797 400.895 192.173 400.895C186.549 400.895 181.99 396.336 181.99 390.712C181.99 385.088 186.549 380.529 192.173 380.529C197.797 380.529 202.356 385.088 202.356 390.712Z" fill="#00CCA7"/>
</svg>
