<svg width="362" height="408" viewBox="0 0 362 408" fill="none" xmlns="http://www.w3.org/2000/svg">
<path fill-rule="evenodd" clip-rule="evenodd" d="M344.342 292.516C324.413 329.266 285.809 348.766 249.647 365.484C216.093 380.997 181.741 380.382 146.371 384.042C98.6798 388.977 33.0986 430.335 7.01975 390.592C-20.617 348.475 44.1 289.017 48.5126 234.91C51.6836 196.028 14.1268 162.843 28.6134 125.812C43.2243 88.4637 86.0588 75.3191 119.001 54.7254C153.911 32.9019 189.621 -8.23261 225.95 2.44965C262.932 13.3239 259.971 71.8563 283.552 103.11C304.172 130.44 343.434 138.746 354.279 172.535C366.297 209.981 364.362 255.597 344.342 292.516Z" fill="#DAF8F7"/>
</svg>
