<svg width="153" height="58" viewBox="0 0 153 58" fill="none" xmlns="http://www.w3.org/2000/svg">
<g clip-path="url(#clip0_1_7563)">
<path d="M3.0724 32.9928C5.16479 25.8033 7.33132 18.4497 11.4337 12.1056C14.8359 6.82017 21.8627 -0.886354 28.8896 2.74121C32.0117 4.34981 33.9805 7.59985 35.4221 10.6611C37.0449 14.0999 38.33 17.6947 39.5739 21.2812C42.1112 28.5938 44.3436 36.0705 47.8776 42.9973C49.5993 46.3787 51.6175 49.6944 54.1218 52.5669C56.6261 55.4394 59.6082 57.6553 63.3316 57.9672C71.52 58.6566 76.5203 49.9488 79.9307 43.8755C83.8684 36.842 86.834 29.3242 90.4998 22.1594C92.3039 18.6303 94.248 15.1094 96.6369 11.9332C98.754 9.12638 101.456 6.71348 105.212 7.41929C112.981 8.88017 117.141 16.8821 124.266 19.6726C131.886 22.66 139.597 18.6713 145.429 13.8701C146.92 12.6473 148.329 11.3259 149.713 9.98813C150.215 9.50391 150.067 9.00327 149.4 8.83092C148.683 8.65037 147.62 8.94582 147.085 9.44646C142.085 14.1492 135.214 20.641 127.693 18.3102C124.077 17.1858 121.177 14.5103 118.393 12.081C115.452 9.52033 112.338 7.06638 108.532 5.942C104.726 4.81762 100.64 5.54806 97.4442 7.89531C94.248 10.2426 92.3039 13.4926 90.4092 16.6852C86.2573 23.6695 83.2423 31.2283 79.6671 38.508C77.9125 42.0781 76.0178 45.5908 73.7936 48.8983C71.9978 51.5738 69.51 55.5461 66.0172 56.1206C62.5243 56.6951 58.9244 53.4779 56.7991 50.9419C54.2948 47.9627 52.2683 44.5813 50.5631 41.0933C47.1444 34.109 44.945 26.624 42.3583 19.3115C41.0732 15.6839 39.7634 12.0071 37.984 8.59292C36.4518 5.65475 34.4253 2.78225 31.3938 1.2393C24.1611 -2.45392 16.0551 2.81508 11.4255 8.19077C6.54873 13.8619 3.80556 21.0104 1.61431 28.0521C1.06238 29.8166 0.543401 31.5976 0.0244222 33.3785C-0.288613 34.4537 2.7676 34.0269 3.0724 33.001V32.9928Z" fill="#8F070F"/>
<path d="M141.632 22.7587C143.436 20.2719 145.166 17.7277 146.97 15.2409C147.86 14.018 148.758 12.8034 149.656 11.5887C150.125 10.965 150.587 10.3412 151.064 9.71748C151.501 9.14298 151.905 8.46178 152.407 7.94473L151.254 8.51923L151.443 8.46999L149.606 8.28123L149.524 8.05963L151.921 6.86959H151.847C151.089 6.91063 150.01 7.09939 149.573 7.81342C149.137 8.52744 149.928 8.81469 150.504 8.8229H150.578C151.287 8.83111 152.481 8.57668 152.86 7.88728C153.412 6.89422 152.275 6.55772 151.452 6.66441C150.158 6.82035 149.475 7.50975 148.733 8.4782C147.555 10.0294 146.394 11.5887 145.249 13.1563C142.958 16.2832 140.644 19.4265 138.527 22.6766C138.106 23.3249 138.889 23.6368 139.433 23.6532C140.182 23.6779 141.171 23.3824 141.632 22.7422V22.7587Z" fill="#8F070F"/>
<path d="M149.046 7.017C142.819 9.22473 136.484 10.9646 130.108 12.6717C129.63 12.803 128.501 13.2544 128.683 13.9356C128.864 14.6168 130.091 14.4117 130.553 14.3132C137.299 12.8687 143.931 10.7513 150.43 8.44505C150.933 8.26449 151.822 7.64895 151.361 7.04983C150.9 6.45071 149.598 6.82003 149.055 7.017H149.046Z" fill="#8F070F"/>
</g>
<defs>
<clipPath id="clip0_1_7563">
<rect width="153" height="58" fill="white"/>
</clipPath>
</defs>
</svg>
