<svg width="78" height="61" viewBox="0 0 78 61" fill="none" xmlns="http://www.w3.org/2000/svg">
<g clip-path="url(#clip0_1_7567)">
<path d="M5.04139 9.91941C11.1242 7.04979 17.662 4.62433 24.2944 3.41374C27.23 2.87486 30.4371 2.75573 33.0641 4.40276C35.4697 5.90655 36.8223 8.57426 37.6512 11.2055C38.6171 14.2761 39.0743 17.5087 39.5297 20.6832C40.0392 24.2448 40.4668 27.8181 41.1752 31.3471C42.3287 37.1204 44.3486 42.9947 48.2939 47.4697C53.0917 52.9103 60.1675 54.7978 66.9674 56.3292C67.5086 56.4482 68.214 56.3696 68.6505 55.9992C69.0069 55.6988 68.9961 55.274 68.4894 55.1573C62.2537 53.6653 55.6939 52.0926 51.1017 47.2704C46.8275 42.7841 44.7341 36.7188 43.5425 30.7453C42.8312 27.1755 42.3952 23.5551 41.8656 19.9514C41.3837 16.659 40.9016 13.2852 39.8085 10.1302C38.9127 7.54659 37.5172 5.0792 35.2012 3.53518C32.5041 1.73222 29.0692 1.55083 25.9541 1.92617C22.1678 2.38831 18.4292 3.49278 14.8133 4.66388C10.9956 5.90806 7.25882 7.40185 3.62842 9.11219C3.2459 9.28884 2.92664 9.71968 3.3567 10.0227C3.78676 10.3257 4.60505 10.1213 5.04139 9.91941Z" fill="#7B007D"/>
<path d="M57.1494 58.8396C60.1288 58.751 63.1024 58.6621 66.0822 58.5678C67.4734 58.5253 68.8787 58.5304 70.2682 58.4298C71.5007 58.3414 72.8155 58.0671 73.7492 57.2028C73.8605 57.1002 74.0949 56.8899 74.0276 56.6936C73.4688 55.1675 72.3178 54.0881 71.1868 52.9694C69.9258 51.7255 68.6836 50.4597 67.4538 49.1831C64.962 46.5928 62.5449 43.9264 60.1955 41.2008C59.6816 40.6073 57.46 41.2773 58.0204 41.9495C60.2571 44.6324 62.5742 47.2396 64.9714 49.7768C66.1568 51.027 67.3607 52.2612 68.583 53.4791C69.6979 54.5793 71.0105 55.6641 71.5706 57.1729L71.849 56.6636C71.1625 57.3012 70.081 57.1329 69.2114 57.1594L65.386 57.2703C62.7894 57.3448 60.1866 57.4248 57.5899 57.4993C57.1496 57.5093 56.273 57.7212 56.1504 58.2355C56.02 58.7782 56.8312 58.8406 57.1671 58.835L57.1494 58.8396Z" fill="#7B007D"/>
</g>
<defs>
<clipPath id="clip0_1_7567">
<rect width="74" height="55" fill="white" transform="translate(3.82422) rotate(3.98826)"/>
</clipPath>
</defs>
</svg>
