<svg width="366" height="366" viewBox="0 0 366 366" fill="none" xmlns="http://www.w3.org/2000/svg">
<path d="M325.527 255.572H193.248C192.11 255.571 191.021 255.118 190.217 254.314C189.412 253.51 188.96 252.42 188.958 251.283V58.562C188.962 57.4262 189.415 56.3381 190.219 55.5357C191.023 54.7333 192.112 54.2817 193.248 54.2798H325.527C326.663 54.2817 327.752 54.7333 328.556 55.5357C329.359 56.3381 329.813 57.4262 329.817 58.562V251.283C329.815 252.42 329.362 253.51 328.558 254.314C327.754 255.118 326.664 255.571 325.527 255.572ZM193.248 54.4628C192.706 54.4589 192.17 54.5621 191.669 54.7662C191.168 54.9704 190.712 55.2716 190.327 55.6526C189.943 56.0335 189.638 56.4866 189.429 56.9859C189.221 57.4852 189.113 58.0209 189.112 58.562V251.283C189.112 252.372 189.544 253.417 190.314 254.187C191.085 254.957 192.129 255.389 193.218 255.389H325.527C326.616 255.389 327.661 254.957 328.431 254.187C329.201 253.417 329.634 252.372 329.634 251.283V58.562C329.634 57.4729 329.201 56.4284 328.431 55.6582C327.661 54.8881 326.616 54.4555 325.527 54.4555L193.248 54.4628Z" fill="#F0F0F0"/>
<path d="M172.957 255.57H40.6479C39.5109 255.568 38.4209 255.115 37.6169 254.311C36.8129 253.507 36.3603 252.417 36.3584 251.28V58.5591C36.3603 57.422 36.8129 56.3321 37.6169 55.528C38.4209 54.724 39.5109 54.2715 40.6479 54.2695H172.957C174.094 54.2715 175.184 54.724 175.988 55.528C176.792 56.3321 177.245 57.422 177.246 58.5591V251.28C177.245 252.417 176.792 253.507 175.988 254.311C175.184 255.115 174.094 255.568 172.957 255.57ZM40.6479 54.4599C39.5601 54.4599 38.5167 54.8915 37.7468 55.66C36.9768 56.4286 36.5433 57.4712 36.5414 58.5591V251.28C36.5414 252.369 36.974 253.414 37.7442 254.184C38.5143 254.954 39.5588 255.387 40.6479 255.387H172.957C174.046 255.387 175.091 254.954 175.861 254.184C176.631 253.414 177.063 252.369 177.063 251.28V58.5591C177.063 57.4699 176.631 56.4254 175.861 55.6553C175.091 54.8852 174.046 54.4525 172.957 54.4525L40.6479 54.4599Z" fill="#F0F0F0"/>
<path d="M366 300.274H0L0 300.457H366V300.274Z" fill="#E0E0E0"/>
<path d="M348.866 300.273C338.186 290.655 273.726 234.459 233.364 241.94C193.565 249.312 150.648 291.994 142.596 300.273H348.866Z" fill="#E6E6E6"/>
<path d="M239.906 300.274C228.926 285.575 173.667 207.691 131.841 212.302C96.8075 216.16 40.1361 285.004 27.9775 300.274H239.906Z" fill="#F5F5F5"/>
<path d="M44.8779 71.7366C44.8779 71.7366 48.5379 66.027 56.8022 67.2128C63.6244 68.1864 65.674 58.6631 72.9062 58.6191C80.3799 58.6191 78.6744 65.273 87.8829 66.1441C94.3611 66.7517 99.4632 59.8123 103.987 71.7366H44.8779Z" fill="#F0F0F0"/>
<path d="M264.01 89.1362C264.01 89.1362 267.67 83.4266 275.934 84.6051C282.756 85.5787 284.813 76.0554 292.038 76.0188C299.512 75.9748 297.806 82.6727 307.015 83.5364C313.493 84.1513 318.595 77.2046 323.119 89.1362H264.01Z" fill="#F0F0F0"/>
<path d="M169.783 81.0567C171.505 73.8242 167.037 66.5655 159.805 64.8438C152.572 63.1221 145.314 67.5895 143.592 74.8219C141.87 82.0544 146.338 89.3132 153.57 91.0349C160.803 92.7565 168.061 88.2892 169.783 81.0567Z" fill="#F0F0F0"/>
<path d="M62.6411 176.777C62.1141 175.035 60.1669 169.86 54.8307 168.762C49.9263 167.752 45.3147 171.28 42.5111 173.022C39.7075 174.764 37.248 174.362 32.2631 173.066C28.8886 172.195 25.3969 175.057 24.4893 176.777H62.6411Z" fill="#F0F0F0"/>
<path d="M138.103 123.854C138.103 123.907 138.084 123.958 138.05 123.999C138.016 124.04 137.97 124.068 137.918 124.079C137.866 124.09 137.812 124.083 137.765 124.059C137.717 124.036 137.679 123.997 137.657 123.949C137.478 123.492 137.173 123.096 136.778 122.806C136.383 122.515 135.913 122.343 135.424 122.309C135.06 122.33 134.698 122.254 134.373 122.089C134.047 121.925 133.771 121.677 133.572 121.372V129.424C131.01 131.569 126.531 130.156 127.812 127.755C129.093 125.354 132.46 127.755 132.46 127.755V118.115H133.572C133.572 118.115 134.678 120.508 136.676 120.699C138.001 120.823 138.147 122.646 138.103 123.854Z" fill="#E0E0E0"/>
<path d="M245.22 95.0225L238.75 91.6553V93.1998V99.9415C238.75 99.9415 236.4 98.2433 235.507 99.9415C234.614 101.64 237.739 102.606 239.533 101.105V94.7663L244.444 97.1453V101.75C244.444 101.75 242.095 100.044 241.202 101.75C240.309 103.455 243.434 104.407 245.22 102.906V95.0005V95.0225ZM244.137 96.0473L239.877 94.0196V93.1998L244.137 95.3006V96.0473Z" fill="#E0E0E0"/>
<path d="M335.26 323.967C335.26 326.756 264.988 329.018 178.239 329.018C91.4898 329.018 21.2324 326.756 21.2324 323.967C21.2324 321.178 91.5044 318.909 178.254 318.909C265.003 318.909 335.26 321.171 335.26 323.967Z" fill="#F5F5F5"/>
<path d="M64.7206 96.7837C62.7296 97.2961 62.2026 98.0281 61.7926 100.685C61.7846 100.723 61.7639 100.757 61.7339 100.781C61.7039 100.805 61.6665 100.819 61.6279 100.819C61.5894 100.819 61.5519 100.805 61.522 100.781C61.492 100.757 61.4712 100.723 61.4632 100.685C61.0753 98.0281 60.5482 97.2961 58.5352 96.7837C58.4795 96.7701 58.43 96.7382 58.3945 96.6931C58.3591 96.6479 58.3398 96.5922 58.3398 96.5349C58.3398 96.4775 58.3591 96.4218 58.3945 96.3767C58.43 96.3315 58.4795 96.2996 58.5352 96.286C60.5336 95.7736 61.0606 95.0416 61.4632 92.3844C61.4712 92.3467 61.492 92.3128 61.522 92.2885C61.5519 92.2642 61.5894 92.251 61.6279 92.251C61.6665 92.251 61.7039 92.2642 61.7339 92.2885C61.7639 92.3128 61.7846 92.3467 61.7926 92.3844C62.1806 95.0416 62.7076 95.7736 64.7206 96.286C64.7764 96.2996 64.8259 96.3315 64.8614 96.3767C64.8968 96.4218 64.916 96.4775 64.916 96.5349C64.916 96.5922 64.8968 96.6479 64.8614 96.6931C64.8259 96.7382 64.7764 96.7701 64.7206 96.7837Z" fill="#FF7900"/>
<g opacity="0.6">
<path d="M64.7294 96.7842C62.7384 97.2966 62.2113 98.0286 61.8014 100.686C61.7934 100.724 61.7727 100.757 61.7427 100.782C61.7127 100.806 61.6753 100.819 61.6367 100.819C61.5981 100.819 61.5607 100.806 61.5307 100.782C61.5008 100.757 61.48 100.724 61.472 100.686C61.0841 98.0286 60.557 97.2966 58.544 96.7842C58.4883 96.7706 58.4387 96.7387 58.4033 96.6936C58.3679 96.6484 58.3486 96.5927 58.3486 96.5354C58.3486 96.478 58.3679 96.4223 58.4033 96.3771C58.4387 96.332 58.4883 96.3001 58.544 96.2865C60.5424 95.7741 61.0694 95.0421 61.472 92.3849C61.48 92.3472 61.5008 92.3133 61.5307 92.289C61.5607 92.2647 61.5981 92.2515 61.6367 92.2515C61.6753 92.2515 61.7127 92.2647 61.7427 92.289C61.7727 92.3133 61.7934 92.3472 61.8014 92.3849C62.1894 95.0421 62.7164 95.7741 64.7294 96.2865C64.7852 96.3001 64.8347 96.332 64.8701 96.3771C64.9056 96.4223 64.9248 96.478 64.9248 96.5354C64.9248 96.5927 64.9056 96.6484 64.8701 96.6936C64.8347 96.7387 64.7852 96.7706 64.7294 96.7842Z" fill="white"/>
</g>
<path d="M41.4218 115.275C39.4235 115.788 38.8964 116.52 38.4938 119.177C38.4858 119.215 38.4651 119.249 38.4351 119.273C38.4051 119.297 38.3677 119.31 38.3291 119.31C38.2905 119.31 38.2531 119.297 38.2231 119.273C38.1931 119.249 38.1724 119.215 38.1644 119.177C37.7765 116.52 37.2494 115.788 35.2364 115.275C35.1807 115.262 35.1311 115.23 35.0957 115.185C35.0603 115.14 35.041 115.084 35.041 115.027C35.041 114.969 35.0603 114.913 35.0957 114.868C35.1311 114.823 35.1807 114.791 35.2364 114.778C37.2275 114.265 37.7545 113.533 38.1644 110.876C38.1724 110.838 38.1931 110.805 38.2231 110.78C38.2531 110.756 38.2905 110.743 38.3291 110.743C38.3677 110.743 38.4051 110.756 38.4351 110.78C38.4651 110.805 38.4858 110.838 38.4938 110.876C38.8818 113.533 39.4088 114.265 41.4218 114.778C41.4775 114.791 41.5271 114.823 41.5625 114.868C41.5979 114.913 41.6172 114.969 41.6172 115.027C41.6172 115.084 41.5979 115.14 41.5625 115.185C41.5271 115.23 41.4775 115.262 41.4218 115.275Z" fill="#FF7900"/>
<g opacity="0.6">
<path d="M41.4208 115.271C39.4225 115.783 38.8954 116.515 38.4928 119.172C38.4848 119.21 38.4641 119.244 38.4341 119.268C38.4041 119.292 38.3667 119.306 38.3281 119.306C38.2895 119.306 38.2521 119.292 38.2221 119.268C38.1922 119.244 38.1714 119.21 38.1634 119.172C37.7755 116.515 37.2484 115.783 35.2354 115.271C35.1797 115.257 35.1302 115.225 35.0947 115.18C35.0593 115.135 35.04 115.079 35.04 115.022C35.04 114.964 35.0593 114.909 35.0947 114.863C35.1302 114.818 35.1797 114.786 35.2354 114.773C37.2265 114.26 37.7535 113.528 38.1634 110.871C38.1714 110.833 38.1922 110.8 38.2221 110.775C38.2521 110.751 38.2895 110.738 38.3281 110.738C38.3667 110.738 38.4041 110.751 38.4341 110.775C38.4641 110.8 38.4848 110.833 38.4928 110.871C38.8808 113.528 39.4078 114.26 41.4208 114.773C41.4766 114.786 41.5261 114.818 41.5615 114.863C41.597 114.909 41.6162 114.964 41.6162 115.022C41.6162 115.079 41.597 115.135 41.5615 115.18C41.5261 115.225 41.4766 115.257 41.4208 115.271Z" fill="white"/>
</g>
<path d="M324.128 136.359C327.364 133.123 327.364 127.877 324.128 124.641C320.892 121.405 315.645 121.405 312.409 124.641C309.173 127.877 309.173 133.123 312.409 136.359C315.645 139.595 320.892 139.595 324.128 136.359Z" fill="#FF7900"/>
<path opacity="0.6" d="M324.128 136.359C327.364 133.123 327.364 127.877 324.128 124.641C320.892 121.405 315.645 121.405 312.409 124.641C309.173 127.877 309.173 133.123 312.409 136.359C315.645 139.595 320.892 139.595 324.128 136.359Z" fill="white"/>
<path d="M316.436 126.232V134.774L322.343 130.499L316.436 126.232Z" fill="white"/>
<path d="M247.506 63.0551V76.7728C247.506 77.0834 247.382 77.3813 247.163 77.6009C246.943 77.8206 246.645 77.944 246.334 77.944H232.229C231.918 77.944 231.62 77.8206 231.401 77.6009C231.181 77.3813 231.058 77.0834 231.058 76.7728V63.0551C231.058 62.7445 231.181 62.4466 231.401 62.2269C231.62 62.0073 231.918 61.8839 232.229 61.8839H246.32C246.475 61.8819 246.629 61.9108 246.773 61.9688C246.916 62.0268 247.047 62.1127 247.157 62.2217C247.268 62.3306 247.355 62.4604 247.415 62.6035C247.475 62.7465 247.506 62.9 247.506 63.0551Z" fill="#FF7900"/>
<g opacity="0.6">
<path d="M247.507 63.0556V76.7732C247.507 77.0839 247.383 77.3818 247.164 77.6014C246.944 77.8211 246.646 77.9445 246.335 77.9445H232.23C231.919 77.9445 231.621 77.8211 231.402 77.6014C231.182 77.3818 231.059 77.0839 231.059 76.7732V63.0556C231.059 62.7449 231.182 62.447 231.402 62.2274C231.621 62.0078 231.919 61.8844 232.23 61.8844H246.321C246.476 61.8824 246.63 61.9113 246.773 61.9693C246.917 62.0273 247.048 62.1132 247.158 62.2222C247.269 62.3311 247.356 62.4609 247.416 62.604C247.476 62.747 247.507 62.9005 247.507 63.0556Z" fill="white"/>
</g>
<path d="M243.227 70.7498C242.107 72.115 240.778 73.2936 239.289 74.2414C237.796 73.2946 236.464 72.1159 235.343 70.7498C233.938 68.8393 234.948 66.3578 236.807 66.5408C237.335 66.577 237.843 66.7553 238.277 67.0569C238.711 67.3585 239.056 67.772 239.274 68.2537C239.487 67.7697 239.829 67.3538 240.263 67.0516C240.697 66.7495 241.206 66.5727 241.734 66.5408C243.622 66.3944 244.632 68.81 243.227 70.7498Z" fill="white"/>
<path d="M131.568 82.5022V97.2959C131.566 97.6312 131.432 97.9522 131.195 98.1893C130.958 98.4263 130.637 98.5604 130.302 98.5623H115.098C114.932 98.5633 114.767 98.5312 114.613 98.4679C114.459 98.4046 114.319 98.3114 114.201 98.1936C114.083 98.0758 113.99 97.9358 113.926 97.7817C113.863 97.6276 113.831 97.4625 113.832 97.2959V82.5022C113.832 82.1683 113.965 81.8481 114.201 81.6119C114.437 81.3758 114.757 81.2432 115.091 81.2432H130.295C130.461 81.2422 130.626 81.274 130.78 81.3368C130.934 81.3995 131.074 81.492 131.192 81.6089C131.311 81.7258 131.405 81.8649 131.469 82.0182C131.534 82.1714 131.567 82.3359 131.568 82.5022Z" fill="#FF7900"/>
<g opacity="0.6">
<path d="M131.57 82.5027V97.2964C131.568 97.6317 131.434 97.9527 131.197 98.1898C130.96 98.4268 130.639 98.5609 130.304 98.5628H115.1C114.934 98.5638 114.769 98.5317 114.615 98.4684C114.461 98.4051 114.321 98.3118 114.203 98.1941C114.085 98.0763 113.992 97.9363 113.928 97.7822C113.865 97.6281 113.833 97.463 113.834 97.2964V82.5027C113.834 82.1688 113.967 81.8486 114.203 81.6124C114.439 81.3763 114.759 81.2437 115.093 81.2437H130.297C130.463 81.2427 130.628 81.2745 130.782 81.3373C130.936 81.4 131.076 81.4925 131.194 81.6094C131.313 81.7263 131.407 81.8654 131.471 82.0187C131.536 82.1719 131.569 82.3364 131.57 82.5027Z" fill="white"/>
</g>
<path d="M125.17 92.1135C124.909 92.1135 124.651 92.1744 124.417 92.2913C124.183 92.4082 123.98 92.5779 123.823 92.787L120.544 90.8911C120.626 90.6915 120.669 90.4776 120.668 90.2616C120.667 90.0698 120.635 89.8795 120.573 89.6979L124.16 87.6264C124.426 87.9147 124.785 88.101 125.174 88.1531C125.563 88.2052 125.957 88.1198 126.29 87.9116C126.623 87.7035 126.872 87.3857 126.996 87.0132C127.119 86.6406 127.108 86.2367 126.965 85.8713C126.822 85.5058 126.556 85.2017 126.213 85.0116C125.87 84.8215 125.471 84.7572 125.085 84.8299C124.7 84.9027 124.351 85.1078 124.101 85.4099C123.851 85.712 123.713 86.0921 123.714 86.4845C123.714 86.5796 123.714 86.6675 123.714 86.748L119.973 88.944C119.725 88.7592 119.432 88.646 119.124 88.617C118.817 88.5879 118.507 88.644 118.229 88.7791C117.952 88.9143 117.716 89.1232 117.549 89.3831C117.382 89.643 117.29 89.9439 117.283 90.2527C117.275 90.5615 117.353 90.8664 117.507 91.1341C117.662 91.4017 117.887 91.6217 118.158 91.77C118.429 91.9183 118.735 91.9892 119.044 91.9749C119.352 91.9606 119.651 91.8617 119.907 91.689L123.465 93.7386C123.465 93.7386 123.465 93.7971 123.465 93.8337C123.465 94.1682 123.564 94.4951 123.75 94.7732C123.935 95.0512 124.199 95.268 124.508 95.3959C124.817 95.5239 125.157 95.5574 125.485 95.4922C125.813 95.4269 126.115 95.2659 126.351 95.0294C126.588 94.7929 126.749 94.4916 126.814 94.1636C126.879 93.8356 126.846 93.4956 126.718 93.1866C126.59 92.8777 126.373 92.6136 126.095 92.4278C125.817 92.242 125.49 92.1428 125.156 92.1428L125.17 92.1135Z" fill="white"/>
<path d="M256.69 199.504L190.971 283.735H256.69V324.727H134.043V286.078L198.84 201.612H134.043V160.854H256.69V199.504Z" fill="#FF7900"/>
<g opacity="0.3">
<path d="M256.69 199.503L190.971 283.734H256.69V324.726H134.043V286.077L198.84 201.611H134.043V160.854H256.69V199.503Z" fill="#263238"/>
</g>
<path d="M239.27 199.504L173.551 283.735H239.27V324.727H116.623V286.078L181.42 201.612H116.623V160.854H239.27V199.504Z" fill="#FF7900"/>
<path d="M145.881 144.954L142.368 154.558L136.79 155.004L138.305 143.285L145.881 144.954Z" fill="#B55B52"/>
<path d="M138.667 153.607C138.667 153.607 137.693 152.465 136.544 152.875C135.395 153.285 133.953 155.181 133.953 155.181C133.953 155.181 127.745 157.216 126.047 157.325C124.349 157.435 122.9 158.394 122.438 161.717H143.125C143.125 161.717 143.542 154.244 143.593 152.933C143.645 151.623 141.712 153.248 141.712 153.248L138.667 153.607Z" fill="#FF7900"/>
<g opacity="0.7">
<path d="M138.667 153.604C138.667 153.604 137.693 152.462 136.544 152.872C135.395 153.282 133.953 155.178 133.953 155.178C133.953 155.178 127.745 157.213 126.047 157.323C124.349 157.432 122.9 158.391 122.438 161.715H143.125C143.125 161.715 143.542 154.241 143.593 152.931C143.645 151.62 141.712 153.245 141.712 153.245L138.667 153.604Z" fill="white"/>
</g>
<path d="M143.036 160.469L126.749 160.652L123.023 160.689C122.818 160.689 122.796 160.374 123.023 160.374L139.31 160.191L143.036 160.154C143.241 160.154 143.256 160.469 143.036 160.469Z" fill="#263238"/>
<path d="M134.784 156.456C134.631 156.215 134.43 156.008 134.193 155.849C133.956 155.69 133.689 155.582 133.408 155.532C133.127 155.481 132.839 155.49 132.561 155.557C132.284 155.624 132.024 155.748 131.797 155.922C131.636 156.046 131.46 155.768 131.621 155.644C132.741 154.765 134.169 155.146 135.047 156.295C135.179 156.463 134.908 156.624 134.784 156.456Z" fill="#263238"/>
<path d="M133.022 156.997C132.871 156.755 132.67 156.548 132.433 156.388C132.196 156.228 131.929 156.119 131.647 156.069C131.366 156.019 131.078 156.028 130.8 156.096C130.522 156.163 130.262 156.288 130.036 156.463C129.882 156.587 129.706 156.309 129.86 156.185C130.987 155.306 132.415 155.687 133.293 156.836C133.418 157.004 133.147 157.165 133.022 156.997Z" fill="#263238"/>
<path d="M131.219 157.533C131.067 157.292 130.865 157.085 130.629 156.926C130.392 156.767 130.124 156.659 129.844 156.609C129.563 156.558 129.274 156.567 128.997 156.634C128.72 156.701 128.459 156.826 128.233 156.999C128.072 157.123 127.896 156.845 128.057 156.728C129.177 155.85 130.604 156.23 131.483 157.372C131.614 157.54 131.344 157.701 131.219 157.533Z" fill="#263238"/>
<path d="M192.726 145.74L192.221 145.996L189.989 147.13L173.848 155.278C172.999 153.543 172.106 151.757 171.184 149.905C169.91 147.365 168.57 144.7 167.187 141.933C163.798 135.14 160.174 127.718 156.719 119.761C157.29 126.349 151.595 138.354 145.498 149.736L134.957 149.224C134.957 149.224 144.195 93.6944 156.719 95.5976C166.967 97.1495 184.535 129.723 190.604 141.523C190.999 142.255 191.336 142.987 191.636 143.544C192.339 144.934 192.726 145.74 192.726 145.74Z" fill="#263238"/>
<path opacity="0.2" d="M192.408 146.762L189.992 147.113L171.187 149.888C169.913 147.348 168.574 144.683 167.19 141.916C174.298 140.621 182.131 140.54 190.614 141.521L191.178 141.587L191.647 143.541L192.232 145.993L192.408 146.762Z" fill="black"/>
<path d="M134.222 146.253L133.717 149.716L146.241 150.418L147.859 147.124L134.222 146.253Z" fill="#263238"/>
<g opacity="0.3">
<path d="M134.222 146.249L133.717 149.711L146.241 150.414L147.859 147.12L134.222 146.249Z" fill="white"/>
</g>
<path d="M170.276 102.179C173.746 104.785 177.42 107.662 181.022 110.231L178.401 114.924C174.097 113.278 169.891 111.386 165.804 109.258C164.771 108.716 163.725 108.153 162.7 107.53C161.595 106.882 160.527 106.173 159.501 105.408C158.844 104.927 158.233 104.385 157.678 103.79C157.181 103.265 156.767 102.668 156.449 102.018C156.38 101.878 156.319 101.734 156.266 101.587L156.185 101.367L156.083 101.067C156.031 100.862 155.98 100.664 155.943 100.445C155.901 100.163 155.876 99.8798 155.87 99.5955C155.868 99.2644 155.895 98.9337 155.951 98.6073C155.977 98.432 156.014 98.2584 156.061 98.0876C156.12 97.8814 156.191 97.6786 156.273 97.48C156.5 96.9193 156.822 96.4018 157.224 95.9501C157.608 95.5055 158.051 95.1163 158.542 94.7936C158.813 94.6096 159.094 94.441 159.384 94.2885C159.79 94.0707 160.208 93.8752 160.636 93.7029C161.368 93.3954 162.004 93.1832 162.627 92.9709C165.093 92.195 167.348 91.6752 169.639 91.1775C171.93 90.6797 174.178 90.2625 176.432 89.9111C180.956 89.1791 185.428 88.5789 190.011 88.2129L191.167 99.4344C186.819 100.027 182.383 100.518 177.991 101.016C175.795 101.294 173.599 101.521 171.477 101.821L170.056 102.011L170.276 102.179Z" fill="#B55B52"/>
<path d="M192.428 86.1353L175.064 89.3048L178.959 103.059L191.161 102.327C191.161 102.327 195.509 91.7863 192.428 86.1353Z" fill="#FF7900"/>
<g opacity="0.3">
<path d="M192.428 86.1318L175.065 89.3014L178.96 103.056L191.162 102.324C191.162 102.324 195.51 91.7829 192.428 86.1318Z" fill="white"/>
</g>
<path d="M227.267 116.313C226.258 122.312 224.862 128.239 223.087 134.057C221.936 137.894 220.575 141.664 219.01 145.351C212.912 159.633 208.323 154.992 208.323 154.992C208.323 154.992 192.775 145.154 189.744 142.336C186.714 139.517 180.17 128.428 179.87 126.905C179.57 125.382 179.138 122.674 183.054 119.805C183.799 119.238 184.462 118.57 185.023 117.821C187.453 114.659 189.188 109.542 189.481 104.85C189.615 103.134 189.499 101.408 189.137 99.7259C187.592 93.1379 185.792 89.573 190.469 86.9671C192.716 85.7081 197.613 84.7711 202.093 84.1123C209.346 82.9419 216.768 84.6634 222.765 88.9069C224.714 90.1997 226.337 91.9258 227.508 93.9504C229.184 97.2956 228.987 106.036 227.267 116.313Z" fill="#FF7900"/>
<path opacity="0.2" d="M227.269 116.312C226.261 122.311 224.865 128.238 223.089 134.056C217.643 132.284 196.166 125.038 185.025 117.82C187.456 114.658 189.19 109.541 189.483 104.849C194.066 107.345 212.395 116.781 227.269 116.312Z" fill="#263238"/>
<path d="M228.758 97.6401C229.9 103.115 230.896 108.62 231.803 114.139C232.711 119.659 233.538 125.207 234.358 130.653L234.68 132.63C234.721 132.916 234.778 133.199 234.849 133.479C234.907 133.742 234.958 133.999 235.053 134.328C235.383 135.543 235.785 136.839 236.21 138.134C237.052 140.733 237.93 143.368 238.853 145.996L242.381 159.172L237.93 161.668C235.244 156.698 233.963 154.129 231.503 149.034C230.295 146.479 229.088 143.91 227.946 141.282C227.375 139.957 226.818 138.625 226.277 137.175C226.013 136.502 225.706 135.521 225.501 134.833C225.296 134.145 225.091 133.369 224.908 132.71C223.444 127.191 222.126 121.73 220.897 116.262C219.667 110.794 218.583 105.282 217.661 99.7483L228.758 97.6401Z" fill="#B55B52"/>
<path d="M251.411 161.673C252.523 161.322 252.919 160.444 251.528 159.851C249.61 159.031 247.582 157.933 245.518 157.128C243.454 156.322 238.93 157.677 238.747 157.808L237.949 161.673H251.411Z" fill="#B55B52"/>
<path d="M215.729 100.375L218.862 116.691L233.202 112.592C233.202 112.592 232.47 97.7692 227.536 93.9482C222.932 90.3614 216.029 92.3817 215.597 98.3402C215.555 99.0214 215.6 99.7051 215.729 100.375Z" fill="#B55B52"/>
<path d="M215.729 100.375L218.862 116.691L233.202 112.592C233.202 112.592 232.47 97.7692 227.536 93.9482C222.932 90.3614 216.029 92.3817 215.597 98.3402C215.555 99.0214 215.6 99.7051 215.729 100.375Z" fill="#FF7900"/>
<g opacity="0.3">
<path d="M215.728 100.379L218.861 116.695L233.201 112.596C233.201 112.596 232.469 97.7727 227.535 93.9516C222.931 90.3648 216.028 92.3851 215.596 98.3436C215.554 99.0248 215.599 99.7085 215.728 100.379Z" fill="white"/>
</g>
<path d="M205.83 55.9166C204.754 54.6942 201.043 54.5185 199.242 56.795C197.302 59.2179 194.813 63.7417 193.32 62.4973C193.531 63.187 193.946 63.7964 194.51 64.2448C195.075 64.6932 195.763 64.9593 196.482 65.008C196.482 65.008 194.901 66.6624 192.925 65.9962C193.25 66.9844 193.847 67.8612 194.647 68.5265C195.447 69.1918 196.418 69.6188 197.449 69.7587C200.845 70.3224 205.786 60.6673 206.577 59.0862C206.591 57.322 206.459 57.3879 205.83 55.9166Z" fill="#263238"/>
<path d="M207.941 56.3645C209.443 56.2131 210.96 56.3728 212.397 56.8338C213.834 57.2948 215.16 58.047 216.294 59.0436C217.758 60.3758 218.907 62.118 218.343 64.1676C217.033 68.911 213.651 76.5384 213.651 76.5384L199.436 65.1485C199.436 65.1485 199.436 60.5149 201.829 58.2677C203.066 57.0965 205.687 56.5987 207.941 56.3645Z" fill="#263238"/>
<path d="M205.289 56.0769C205.289 56.0769 210.34 52.6292 216.862 57.6873C223.384 62.7455 216.54 71.5295 216.54 71.5295C216.54 71.5295 214.344 75.431 216.189 76.4339C215.527 76.6804 214.822 76.79 214.117 76.7559C214.117 76.7559 214.732 77.9637 215.581 77.8832C215.581 77.8832 214.424 78.3151 212.411 77.3635C210.398 76.4119 205.289 56.0769 205.289 56.0769Z" fill="#263238"/>
<path d="M205.094 80.6711C205.094 80.6711 205.094 80.6711 205.094 80.7297L205.431 83.6577C205.393 84.6883 205.183 85.7053 204.809 86.6662C204.077 87.3982 203.506 89.2868 205.687 89.5942C208.432 90.0115 214.061 86.7175 214.42 85.5316C213.688 81.5861 213.263 77.0404 213.988 73.4756L210.328 76.4036L205.094 80.6711Z" fill="#B55B52"/>
<g opacity="0.2">
<path d="M205.106 80.7362L205.443 83.6642C207.273 83.1225 209.323 81.6951 210.004 79.9237C210.479 78.6427 210.062 77.3178 209.542 77.1714L205.106 80.7362Z" fill="black"/>
</g>
<path d="M198.991 73.8863C199.064 74.5158 199.159 75.138 199.269 75.7602C200.257 81.2136 206.589 82.6118 211.157 79.3544C211.568 79.0565 211.957 78.7286 212.32 78.3735C215.344 75.4016 215.073 72.7444 215.534 66.8591C215.655 65.4913 215.424 64.1152 214.864 62.8617C214.303 61.6081 213.431 60.5188 212.331 59.6973C211.23 58.8757 209.938 58.3492 208.577 58.1678C207.216 57.9863 205.831 58.156 204.554 58.6607C199.327 60.703 198.229 67.5838 198.991 73.8863Z" fill="#B55B52"/>
<path d="M204.13 75.6751H203.969C203.945 75.6699 203.923 75.6601 203.903 75.6462C203.883 75.6324 203.867 75.6147 203.854 75.5943C203.841 75.5739 203.832 75.5511 203.828 75.5273C203.824 75.5035 203.824 75.4791 203.83 75.4555C203.843 75.4102 203.874 75.3715 203.914 75.3472C203.955 75.3228 204.003 75.3145 204.049 75.3238C204.395 75.4003 204.752 75.4062 205.099 75.3411C205.447 75.276 205.777 75.1413 206.071 74.945C206.366 74.7487 206.617 74.495 206.81 74.199C207.004 73.9031 207.135 73.571 207.197 73.2229C207.211 73.176 207.242 73.1362 207.284 73.1117C207.326 73.0871 207.376 73.0798 207.424 73.0911C207.447 73.0979 207.469 73.1091 207.487 73.1241C207.506 73.1392 207.522 73.1578 207.533 73.1788C207.545 73.1999 207.552 73.2231 207.555 73.2469C207.557 73.2708 207.555 73.295 207.548 73.3181C207.399 74.0794 206.958 74.7522 206.319 75.1926C205.68 75.633 204.895 75.8062 204.13 75.6751Z" fill="#263238"/>
<path d="M205.928 69.8148C205.629 69.7029 205.386 69.48 205.247 69.1926C205.233 69.1469 205.236 69.0974 205.256 69.054C205.277 69.0105 205.313 68.9764 205.357 68.9584C205.379 68.9503 205.403 68.9468 205.426 68.948C205.45 68.9492 205.473 68.9551 205.494 68.9653C205.515 68.9755 205.534 68.9899 205.549 69.0076C205.565 69.0253 205.577 69.0459 205.584 69.0682C205.677 69.2213 205.805 69.3499 205.958 69.4429C206.111 69.5359 206.284 69.5907 206.462 69.6025C206.682 69.6337 206.906 69.6053 207.11 69.5203C207.315 69.4353 207.493 69.2968 207.626 69.1194C207.638 69.0959 207.655 69.0753 207.676 69.059C207.697 69.0426 207.721 69.031 207.747 69.0248C207.772 69.0187 207.799 69.0182 207.825 69.0233C207.851 69.0284 207.875 69.0391 207.897 69.0546C207.918 69.0701 207.936 69.0901 207.949 69.1131C207.962 69.1361 207.969 69.1617 207.972 69.188C207.974 69.2143 207.97 69.2408 207.961 69.2656C207.952 69.2904 207.938 69.3129 207.919 69.3317C207.746 69.5639 207.512 69.7445 207.244 69.8541C206.976 69.9637 206.683 69.9982 206.397 69.9539C206.235 69.9283 206.077 69.8815 205.928 69.8148Z" fill="#263238"/>
<path d="M200.456 69.786C200.173 69.6963 199.935 69.5027 199.79 69.2443C199.779 69.2026 199.784 69.1585 199.803 69.1198C199.822 69.0811 199.854 69.0503 199.893 69.0329C199.932 69.0154 199.976 69.0123 200.018 69.0242C200.059 69.0361 200.095 69.0622 200.119 69.0979C200.232 69.2344 200.373 69.3443 200.533 69.4198C200.693 69.4953 200.868 69.5344 201.045 69.5344C201.222 69.5344 201.397 69.4953 201.557 69.4198C201.717 69.3443 201.858 69.2344 201.971 69.0979C201.984 69.0787 202.001 69.0622 202.02 69.0494C202.039 69.0366 202.061 69.0278 202.084 69.0233C202.106 69.0189 202.13 69.019 202.153 69.0237C202.175 69.0283 202.197 69.0374 202.216 69.0503C202.235 69.0633 202.252 69.08 202.265 69.0993C202.277 69.1187 202.286 69.1403 202.291 69.1631C202.295 69.1859 202.295 69.2093 202.29 69.232C202.286 69.2547 202.277 69.2763 202.264 69.2956C202.111 69.5083 201.902 69.6743 201.66 69.7751C201.419 69.8759 201.154 69.9076 200.895 69.8665C200.746 69.8551 200.599 69.8281 200.456 69.786Z" fill="#263238"/>
<path d="M215.531 67.4092C215.531 67.4092 213.767 67.2335 213.467 68.7268C213.167 70.2201 213.299 70.4397 213.299 70.4397L211.161 70.5715C211.161 70.5715 212.581 64.9204 211.059 64.7667C209.536 64.613 211.556 62.2779 210.7 61.7728C208.687 60.5797 202.86 59.6647 200.086 62.8489C200.086 62.8489 201.191 59.467 204.244 58.003C207.296 56.539 212.925 56.9709 214.777 60.0453C216.629 63.1197 215.531 67.4092 215.531 67.4092Z" fill="#263238"/>
<path d="M218.011 70.8227C217.567 72.2403 216.581 73.4245 215.266 74.1167C213.524 75.0171 212.25 73.5458 212.404 71.6938C212.543 70.0248 213.619 67.5434 215.53 67.4116C217.44 67.2798 218.531 69.0806 218.011 70.8227Z" fill="#B55B52"/>
<path d="M214.83 69.9185L214.098 73.1393L214.771 72.9855L215.313 71.3239C215.313 71.3239 216.535 71.075 216.44 70.5041C216.345 69.9331 214.83 69.9185 214.83 69.9185Z" fill="white"/>
<path d="M199.597 67.3431C199.639 67.3442 199.68 67.3339 199.716 67.3133C199.752 67.2926 199.782 67.2624 199.802 67.2259C199.876 67.0793 199.979 66.9492 200.105 66.8435C200.231 66.7378 200.377 66.6587 200.534 66.6111C200.86 66.5461 201.199 66.6034 201.486 66.7721C201.539 66.8041 201.603 66.8137 201.663 66.7986C201.724 66.7834 201.776 66.745 201.808 66.6916C201.84 66.6382 201.849 66.5743 201.834 66.5139C201.819 66.4535 201.781 66.4015 201.727 66.3695C201.333 66.1417 200.87 66.0662 200.424 66.1572C200.203 66.2163 199.997 66.3211 199.82 66.4648C199.642 66.6086 199.496 66.7881 199.392 66.9917C199.376 67.0186 199.366 67.0483 199.362 67.0791C199.358 67.1099 199.36 67.1412 199.369 67.1711C199.377 67.2011 199.391 67.2292 199.41 67.2536C199.429 67.2781 199.453 67.2986 199.48 67.3138C199.515 67.3351 199.556 67.3453 199.597 67.3431Z" fill="#263238"/>
<path d="M208.549 67.5446H208.651C208.705 67.5151 208.745 67.4656 208.763 67.4067C208.781 67.3478 208.775 67.2843 208.746 67.2298C208.518 66.8314 208.15 66.5315 207.714 66.388C207.495 66.3337 207.266 66.3252 207.043 66.363C206.821 66.4008 206.608 66.4841 206.418 66.6076C206.391 66.6228 206.368 66.6433 206.348 66.6678C206.329 66.6922 206.315 66.7203 206.307 66.7503C206.299 66.7802 206.297 66.8115 206.301 66.8423C206.305 66.8732 206.315 66.9028 206.331 66.9297C206.364 66.9817 206.415 67.0194 206.475 67.0356C206.534 67.0519 206.598 67.0454 206.653 67.0175C206.79 66.9248 206.944 66.8614 207.106 66.8311C207.269 66.8009 207.436 66.8046 207.597 66.8419C207.904 66.9537 208.163 67.1684 208.329 67.4494C208.355 67.4825 208.388 67.5085 208.427 67.5251C208.465 67.5418 208.507 67.5485 208.549 67.5446Z" fill="#263238"/>
<path d="M203.313 68.8071C203.036 69.7774 202.485 70.6469 201.725 71.3106C200.502 72.2988 202.859 73.2357 202.859 73.2357L203.313 68.8071Z" fill="#A02724"/>
<path d="M166.196 217.037L166.189 226.538L161.028 228.58L160.369 216.897L166.196 217.037Z" fill="#B55B52"/>
<path d="M162.41 226.693C162.41 226.693 161.143 225.887 160.163 226.59C159.182 227.293 158.376 229.518 158.376 229.518C158.376 229.518 153.033 233.266 151.437 233.866C149.841 234.466 148.743 235.806 149.241 239.107L169.005 233.068C169.005 233.068 167.219 225.8 166.904 224.555C166.59 223.311 165.199 225.412 165.199 225.412L162.41 226.693Z" fill="#FF7900"/>
<g opacity="0.7">
<path d="M162.408 226.692C162.408 226.692 161.141 225.886 160.161 226.589C159.18 227.292 158.375 229.517 158.375 229.517C158.375 229.517 153.031 233.265 151.435 233.865C149.839 234.465 148.741 235.805 149.239 239.106L169.003 233.067C169.003 233.067 167.217 225.799 166.902 224.554C166.588 223.31 165.197 225.411 165.197 225.411L162.408 226.692Z" fill="white"/>
</g>
<path d="M168.593 231.983L153.067 236.895L149.51 238.022C149.312 238.08 149.202 237.78 149.4 237.722L164.933 232.773L168.483 231.646C168.681 231.588 168.791 231.888 168.593 231.954V231.983Z" fill="#263238"/>
<path d="M159.527 230.579C159.312 230.391 159.059 230.25 158.785 230.166C158.512 230.082 158.224 230.056 157.94 230.09C157.656 230.123 157.382 230.216 157.136 230.362C156.89 230.508 156.677 230.704 156.512 230.937C156.402 231.098 156.153 230.886 156.263 230.725C157.083 229.554 158.561 229.502 159.732 230.344C159.908 230.469 159.696 230.703 159.527 230.579Z" fill="#263238"/>
<path d="M158.006 231.574C157.79 231.387 157.538 231.248 157.265 231.164C156.993 231.081 156.705 231.055 156.422 231.089C156.139 231.122 155.866 231.215 155.621 231.36C155.375 231.505 155.163 231.7 154.997 231.932C154.88 232.101 154.631 231.881 154.748 231.72C155.568 230.556 157.04 230.498 158.218 231.339C158.386 231.464 158.174 231.698 158.006 231.574Z" fill="#263238"/>
<path d="M156.429 232.622C156.213 232.435 155.96 232.294 155.687 232.21C155.413 232.126 155.125 232.1 154.841 232.133C154.557 232.167 154.283 232.26 154.037 232.406C153.791 232.552 153.579 232.748 153.413 232.981C153.303 233.142 153.054 232.93 153.164 232.769C153.984 231.598 155.463 231.546 156.634 232.388C156.809 232.513 156.597 232.74 156.429 232.622Z" fill="#263238"/>
<path d="M211.168 161.131L177.562 161.673C173.844 162.881 167.775 220.328 167.775 220.328H159.657C159.657 220.328 152.337 166.98 157.996 154.675C160.192 149.8 174.532 143.937 185.021 142.333C201.125 139.874 218.32 142.831 218.349 147.231C218.4 153.819 213.738 161.036 211.168 161.131Z" fill="#263238"/>
<path d="M158.503 218.304L158.906 220.924H168.312L168.685 218.26L158.503 218.304Z" fill="#263238"/>
<g opacity="0.3">
<path d="M158.502 218.3L158.905 220.92H168.311L168.684 218.256L158.502 218.3Z" fill="white"/>
</g>
<path d="M182.058 111.124C182.988 111.945 183.833 112.858 184.583 113.847C185.564 115.098 186.596 116.16 186.376 116.877C186.157 117.594 183.602 115.581 183.375 115.413C182.858 114.008 182.418 112.576 182.058 111.124Z" fill="#B55B52"/>
<g opacity="0.2">
<path d="M182.056 111.126C182.986 111.948 183.832 112.86 184.581 113.85C185.562 115.101 186.594 116.163 186.374 116.88C186.155 117.597 183.6 115.584 183.373 115.416C182.856 114.011 182.416 112.579 182.056 111.126Z" fill="black"/>
</g>
<path d="M182.259 124.254C181.336 123.763 180.546 120.901 180.546 120.901C180.546 120.901 181.527 123.39 179.945 122.841C178.986 122.519 178.416 119.393 178.159 118.083C177.559 116.297 176.695 114.086 176.695 114.086C176.695 114.086 179.66 109.789 180.978 110.287C182.119 110.712 183.752 113.04 184.879 115.287C185.091 115.654 185.272 116.039 185.421 116.436C185.531 116.729 185.64 117.036 185.743 117.395C187.895 124.854 183.174 124.744 182.259 124.254Z" fill="#B55B52"/>
<path d="M325.744 158.713C325.744 158.713 326.307 153.677 325.744 152.557C325.18 151.437 323.548 156.217 323.548 156.217L325.744 158.713Z" fill="#CE7A63"/>
<path d="M269.096 125.357C269.096 125.357 262.874 120.328 268.555 116.302C274.235 112.276 287.367 118.425 291.408 122.392C295.448 126.359 291.913 129.829 291.913 129.829L269.096 125.357Z" fill="#263238"/>
<path d="M254.196 307.199L253.472 318.809L258.42 319.204L261.743 307.785L254.196 307.199Z" fill="#D5794A"/>
<path d="M257.266 318.048C257.466 317.794 257.733 317.602 258.038 317.493C258.342 317.384 258.67 317.363 258.986 317.433C259.945 317.748 261.182 319.329 261.182 319.329C261.182 319.329 266.409 320.998 267.814 321.085C269.219 321.173 270.149 322.081 270.266 324.702H252.537C252.537 324.702 252.537 318.545 253.137 317.477C253.664 316.554 254.711 317.74 254.711 317.74L257.266 318.048Z" fill="#263238"/>
<path d="M269.888 323.891L266.806 323.854L253.337 323.722C253.307 323.715 253.28 323.698 253.26 323.673C253.241 323.649 253.23 323.618 253.23 323.587C253.23 323.555 253.241 323.525 253.26 323.5C253.28 323.476 253.307 323.459 253.337 323.451H254.252C254.529 322.787 254.539 322.042 254.282 321.371C254.024 320.699 253.518 320.152 252.869 319.843C252.842 319.824 252.823 319.795 252.816 319.763C252.81 319.731 252.815 319.698 252.831 319.669C252.848 319.641 252.874 319.619 252.906 319.61C252.937 319.6 252.971 319.602 253.001 319.616C253.695 319.952 254.237 320.537 254.519 321.254C254.801 321.972 254.803 322.769 254.523 323.488H256.419L269.888 323.634C269.917 323.641 269.942 323.658 269.961 323.681C269.979 323.704 269.989 323.733 269.989 323.763C269.989 323.792 269.979 323.821 269.961 323.844C269.942 323.867 269.917 323.884 269.888 323.891Z" fill="white"/>
<path d="M260.588 320.399C260.71 320.199 260.872 320.028 261.065 319.895C261.258 319.763 261.477 319.673 261.708 319.631C261.938 319.59 262.175 319.598 262.402 319.654C262.629 319.711 262.842 319.815 263.025 319.96C263.164 320.063 263.296 319.828 263.164 319.733C262.95 319.57 262.704 319.454 262.442 319.392C262.18 319.331 261.908 319.325 261.644 319.375C261.379 319.426 261.128 319.531 260.907 319.685C260.686 319.839 260.5 320.037 260.361 320.268C260.258 320.407 260.485 320.539 260.588 320.399Z" fill="white"/>
<path d="M262.059 320.845C262.181 320.645 262.345 320.473 262.539 320.341C262.732 320.208 262.952 320.118 263.183 320.077C263.414 320.035 263.651 320.043 263.879 320.1C264.106 320.157 264.319 320.261 264.504 320.406C264.636 320.509 264.767 320.274 264.636 320.172C264.421 320.01 264.174 319.895 263.912 319.835C263.65 319.774 263.378 319.77 263.114 319.821C262.849 319.872 262.599 319.977 262.378 320.131C262.157 320.285 261.971 320.483 261.832 320.714C261.73 320.853 261.964 320.984 262.059 320.845Z" fill="white"/>
<path d="M263.599 321.294C263.72 321.093 263.882 320.92 264.075 320.787C264.268 320.654 264.487 320.563 264.717 320.521C264.947 320.479 265.184 320.486 265.412 320.542C265.639 320.599 265.852 320.702 266.036 320.847C266.175 320.949 266.307 320.723 266.175 320.62C265.96 320.457 265.713 320.341 265.45 320.28C265.187 320.219 264.914 320.214 264.649 320.265C264.384 320.316 264.133 320.422 263.912 320.577C263.69 320.731 263.504 320.931 263.365 321.162C263.269 321.294 263.496 321.433 263.599 321.294Z" fill="white"/>
<path d="M292.153 307.074L292.841 318.808L297.841 319.203L299.773 307.667L292.153 307.074Z" fill="#D5794A"/>
<path d="M296.685 318.049C296.886 317.796 297.153 317.604 297.457 317.495C297.762 317.386 298.09 317.365 298.405 317.434C299.372 317.748 300.601 319.33 300.601 319.33C300.601 319.33 305.821 320.999 307.233 321.086C308.646 321.174 309.876 321.972 310.403 324.702H293.34C293.34 324.702 292.667 318.532 292.564 317.478C292.462 316.423 294.131 317.741 294.131 317.741L296.685 318.049Z" fill="#263238"/>
<path d="M309.928 323.891L306.846 323.854L293.377 323.722C293.347 323.715 293.32 323.698 293.3 323.673C293.281 323.649 293.27 323.618 293.27 323.587C293.27 323.555 293.281 323.525 293.3 323.5C293.32 323.476 293.347 323.459 293.377 323.451H294.263C294.54 322.787 294.55 322.042 294.293 321.371C294.035 320.699 293.529 320.152 292.88 319.843C292.853 319.824 292.834 319.795 292.827 319.763C292.82 319.731 292.826 319.698 292.842 319.669C292.859 319.641 292.885 319.619 292.916 319.61C292.948 319.6 292.982 319.602 293.011 319.616C293.705 319.952 294.248 320.537 294.53 321.254C294.812 321.972 294.813 322.769 294.534 323.488H296.43L309.899 323.634C309.929 323.637 309.957 323.65 309.978 323.671C310 323.693 310.014 323.721 310.017 323.751C310.021 323.781 310.014 323.811 309.997 323.836C309.981 323.862 309.957 323.881 309.928 323.891Z" fill="white"/>
<path d="M300.025 320.399C300.148 320.199 300.311 320.027 300.505 319.895C300.698 319.762 300.918 319.672 301.149 319.631C301.38 319.589 301.617 319.597 301.845 319.654C302.072 319.711 302.286 319.815 302.47 319.96C302.602 320.063 302.734 319.828 302.602 319.733C302.388 319.57 302.141 319.454 301.879 319.392C301.617 319.331 301.345 319.325 301.081 319.375C300.816 319.426 300.566 319.531 300.345 319.685C300.124 319.839 299.937 320.037 299.798 320.268C299.703 320.407 299.93 320.539 300.025 320.399Z" fill="white"/>
<path d="M301.497 320.845C301.619 320.645 301.783 320.473 301.976 320.341C302.17 320.208 302.39 320.118 302.621 320.077C302.852 320.035 303.089 320.043 303.316 320.1C303.544 320.157 303.757 320.261 303.942 320.406C304.081 320.509 304.213 320.274 304.073 320.172C303.858 320.01 303.612 319.895 303.35 319.835C303.088 319.774 302.816 319.77 302.551 319.821C302.287 319.872 302.037 319.977 301.816 320.131C301.595 320.285 301.409 320.483 301.27 320.714C301.175 320.853 301.402 320.984 301.497 320.845Z" fill="white"/>
<path d="M303.05 321.293C303.172 321.092 303.335 320.92 303.528 320.787C303.722 320.653 303.941 320.563 304.172 320.52C304.403 320.478 304.641 320.485 304.869 320.542C305.097 320.598 305.31 320.702 305.495 320.847C305.627 320.949 305.759 320.722 305.627 320.62C305.412 320.457 305.166 320.341 304.903 320.28C304.641 320.219 304.369 320.214 304.104 320.265C303.84 320.316 303.589 320.422 303.368 320.577C303.148 320.731 302.962 320.93 302.823 321.161C302.721 321.293 302.955 321.432 303.05 321.293Z" fill="white"/>
<path d="M303.883 181.699C303.883 181.699 306.716 224.038 306.526 241.255C306.328 259.167 300.487 311.278 300.487 311.278H290.919C290.919 311.278 289.155 260.082 288.299 242.47C287.369 223.299 281.638 181.714 281.638 181.714L303.883 181.699Z" fill="#FF7900"/>
<path opacity="0.3" d="M306.526 241.256C306.328 259.168 300.487 311.279 300.487 311.279H290.919C290.919 311.279 289.155 260.083 288.299 242.471C288.028 236.783 287.325 229.112 286.476 221.14C285.744 214.106 284.866 206.837 284.083 200.483C282.758 189.781 281.638 181.678 281.638 181.678H303.883C303.883 181.678 306.709 224.039 306.526 241.256Z" fill="white"/>
<path opacity="0.2" d="M286.476 221.163C285.744 214.129 284.865 206.86 284.082 200.506L285.202 193.801C285.202 193.801 288.95 204.269 286.476 221.163Z" fill="#263238"/>
<path d="M290.203 308.386C290.203 309.418 290.298 311.475 290.298 311.475H301.322L301.652 308.386H290.203Z" fill="#263238"/>
<path d="M287.474 181.699C287.474 181.699 284.546 224.887 281.449 241.042C278.031 258.742 262.52 311.278 262.52 311.278H252.177C252.177 311.278 258.816 260.309 260.587 242.777C262.505 223.745 265.58 185.008 265.58 185.008L287.474 181.699Z" fill="#FF7900"/>
<path opacity="0.3" d="M287.474 181.699C287.474 181.699 284.546 224.887 281.449 241.042C278.031 258.742 262.52 311.278 262.52 311.278H252.177C252.177 311.278 258.816 260.309 260.587 242.777C262.505 223.745 265.58 185.008 265.58 185.008L287.474 181.699Z" fill="white"/>
<path d="M254.691 308.774C254.712 308.773 254.733 308.764 254.749 308.749C254.765 308.735 254.775 308.715 254.779 308.694C254.859 308.167 262.216 262.622 263.804 246.876C265.524 229.784 269.111 191.896 269.148 191.515C269.15 191.502 269.149 191.489 269.146 191.476C269.142 191.463 269.136 191.451 269.128 191.441C269.12 191.43 269.109 191.422 269.098 191.416C269.086 191.41 269.073 191.406 269.06 191.405C269.035 191.405 269.011 191.414 268.992 191.43C268.973 191.446 268.961 191.469 268.957 191.493C268.921 191.874 265.334 229.762 263.614 246.847C262.055 262.592 254.661 308.174 254.588 308.664C254.586 308.677 254.587 308.69 254.59 308.702C254.592 308.714 254.598 308.726 254.605 308.736C254.613 308.746 254.622 308.755 254.633 308.762C254.644 308.768 254.656 308.772 254.669 308.774H254.691Z" fill="#263238"/>
<path d="M251.723 308.314C251.62 309.369 251.459 311.477 251.459 311.477H263.574L264.306 308.314H251.723Z" fill="#263238"/>
<path d="M324.757 161.232C324.593 164.03 324.266 166.817 323.776 169.577C323.512 170.982 323.198 172.402 322.759 173.925C322.515 174.756 322.217 175.57 321.865 176.362C321.654 176.866 321.41 177.355 321.133 177.826C320.689 178.559 320.139 179.223 319.501 179.795C318.71 180.509 317.764 181.03 316.738 181.318C315.712 181.606 314.634 181.654 313.587 181.457C313.256 181.39 312.931 181.299 312.613 181.186C312.328 181.083 312.049 180.963 311.779 180.827C311.527 180.694 311.283 180.547 311.047 180.388C310.82 180.227 310.556 180.022 310.476 179.956L310.132 179.656L309.963 179.495L309.853 179.4L309.436 178.975C308.704 178.148 308.25 177.577 307.818 177.014L307.65 176.794C306.713 175.55 305.923 174.393 305.132 173.229L304.707 172.578C303.324 170.477 302.05 168.383 300.762 166.297C299.378 163.984 298.039 161.656 296.714 159.329C295.389 157.001 294.108 154.658 292.886 152.294C290.389 147.565 288.018 142.822 285.873 137.903L299.108 128.797C301.509 133.445 304.81 140.575 306.991 145.355C308.104 147.734 309.136 150.149 310.234 152.528L313.404 159.709C314.04 161.173 314.692 162.637 315.343 164.101C315.951 162.637 316.544 161.137 317.137 159.709L324.757 161.232Z" fill="#263238"/>
<path opacity="0.2" d="M307.771 177.009L307.603 176.789C306.666 175.545 305.875 174.388 305.085 173.225L304.66 172.573L303.196 145.226C303.196 145.226 306.776 166.981 307.771 177.009Z" fill="black"/>
<path d="M311.632 163.576L311.573 158.079C311.621 157.551 311.813 157.046 312.13 156.621C312.446 156.196 312.874 155.867 313.367 155.67L324.273 152.435C324.389 152.385 324.516 152.367 324.641 152.38C324.767 152.394 324.886 152.44 324.989 152.514C325.091 152.587 325.173 152.686 325.226 152.801C325.279 152.915 325.301 153.041 325.291 153.167L325.349 158.664C325.302 159.19 325.11 159.693 324.795 160.117C324.48 160.541 324.054 160.869 323.563 161.065L312.635 164.301C312.52 164.347 312.396 164.363 312.273 164.348C312.151 164.333 312.034 164.287 311.934 164.214C311.834 164.142 311.753 164.046 311.701 163.934C311.648 163.822 311.624 163.699 311.632 163.576Z" fill="#FF7900"/>
<g opacity="0.4">
<path d="M311.633 163.574L311.574 158.077C311.622 157.549 311.814 157.044 312.131 156.619C312.447 156.194 312.875 155.865 313.368 155.668L324.274 152.433C324.39 152.383 324.517 152.365 324.642 152.378C324.768 152.392 324.887 152.438 324.99 152.512C325.092 152.585 325.174 152.684 325.227 152.799C325.28 152.913 325.302 153.039 325.292 153.165L325.35 158.662C325.303 159.188 325.111 159.691 324.796 160.115C324.481 160.539 324.055 160.867 323.564 161.063L312.636 164.299C312.521 164.345 312.397 164.361 312.274 164.346C312.151 164.331 312.035 164.285 311.935 164.213C311.835 164.14 311.754 164.044 311.702 163.932C311.649 163.82 311.625 163.697 311.633 163.574Z" fill="#263238"/>
</g>
<path d="M311.641 164.134L311.582 158.636C311.628 158.109 311.819 157.605 312.134 157.18C312.45 156.754 312.877 156.425 313.368 156.228L324.275 152.993C324.391 152.943 324.518 152.924 324.643 152.938C324.768 152.952 324.888 152.998 324.99 153.071C325.093 153.145 325.174 153.244 325.227 153.358C325.28 153.473 325.303 153.599 325.292 153.725L325.351 159.222C325.305 159.75 325.113 160.255 324.796 160.681C324.48 161.106 324.051 161.435 323.558 161.63L312.636 164.866C312.521 164.91 312.397 164.925 312.275 164.909C312.153 164.893 312.037 164.846 311.937 164.773C311.838 164.7 311.759 164.603 311.707 164.491C311.655 164.38 311.632 164.257 311.641 164.134Z" fill="#FF7900"/>
<g opacity="0.4">
<path d="M318.916 159.829C318.243 160.1 317.694 159.829 317.687 159.273C317.727 158.928 317.861 158.6 318.076 158.326C318.29 158.052 318.576 157.843 318.902 157.721C319.575 157.45 320.124 157.721 320.131 158.278C320.091 158.623 319.957 158.951 319.742 159.225C319.528 159.498 319.242 159.708 318.916 159.829Z" fill="#263238"/>
</g>
<path d="M323.691 155.297C323.354 155.422 323.054 155.297 323.032 154.961C323.034 154.788 323.091 154.62 323.193 154.481C323.296 154.342 323.439 154.238 323.603 154.185C323.94 154.068 324.24 154.221 324.262 154.529C324.26 154.701 324.204 154.868 324.102 155.006C323.999 155.144 323.855 155.246 323.691 155.297Z" fill="#FF7900"/>
<g opacity="0.3">
<path d="M323.684 155.293C323.347 155.417 323.047 155.293 323.025 154.956C323.028 154.783 323.084 154.615 323.186 154.476C323.289 154.337 323.432 154.233 323.596 154.18C323.933 154.063 324.233 154.216 324.255 154.524C324.254 154.696 324.198 154.863 324.095 155.001C323.992 155.139 323.849 155.241 323.684 155.293Z" fill="#263238"/>
</g>
<path d="M303.965 192.239C291.229 195.13 277.987 195.094 264.328 192.678C263.52 192.526 262.797 192.081 262.298 191.428C261.798 190.776 261.556 189.962 261.619 189.143C261.714 187.774 261.861 186.083 262.036 184.114L262.344 180.52C262.834 174.62 263.398 167.073 263.566 158.896C263.566 157.432 263.603 155.968 263.603 154.46C263.603 153.728 263.603 152.923 263.603 152.155C263.603 150.983 263.603 149.805 263.537 148.626C263.411 143.092 262.971 137.568 262.219 132.083C262.083 131.23 262.118 130.358 262.32 129.518C262.523 128.679 262.89 127.887 263.401 127.19C263.911 126.493 264.555 125.904 265.295 125.458C266.034 125.011 266.855 124.715 267.709 124.588C269.422 124.361 271.304 124.17 273.163 124.075C278.243 123.771 283.337 123.771 288.418 124.075C290.053 124.227 291.678 124.472 293.286 124.807C295.796 125.349 298.629 127.384 299.676 129.799C304.924 141.965 304.741 169.452 305.166 188.001C305.188 189.633 305.488 191.895 303.965 192.239Z" fill="#263238"/>
<path opacity="0.2" d="M270.428 142.01C268.554 147.522 266.504 152.821 263.583 157.133C263.583 156.401 263.583 152.902 263.583 152.133C263.583 150.962 263.583 149.784 263.518 148.605L270.428 142.01Z" fill="black"/>
<path d="M300.674 113.379C300.981 110.33 298.947 107.629 296.131 107.346C293.315 107.063 290.784 109.305 290.478 112.354C290.171 115.403 292.205 118.104 295.021 118.387C297.837 118.671 300.368 116.428 300.674 113.379Z" fill="#263238"/>
<g opacity="0.2">
<path d="M300.677 113.377C300.984 110.328 298.95 107.627 296.134 107.344C293.318 107.061 290.787 109.303 290.481 112.352C290.174 115.401 292.208 118.102 295.024 118.386C297.84 118.669 300.371 116.426 300.677 113.377Z" fill="white"/>
</g>
<path d="M282.972 100.85C282.972 100.85 284.567 96.3413 285.9 96.7512C287.232 97.1611 286.441 98.7862 286.441 98.7862C286.441 98.7862 288.754 95.5873 290.16 95.8143C291.565 96.0412 291.104 97.7394 291.104 97.7394C291.104 97.7394 294.288 96.3413 295.196 97.2124C296.104 98.0835 294.61 99.079 294.61 99.079C294.61 99.079 298.9 98.3909 299.544 99.4084C300.188 100.426 297.853 100.872 297.853 100.872C297.853 100.872 301.462 101.363 301.462 103.229C301.474 103.465 301.432 103.7 301.338 103.917C301.245 104.134 301.102 104.326 300.923 104.479C300.743 104.632 300.53 104.741 300.301 104.799C300.072 104.856 299.833 104.86 299.603 104.811C299.603 104.811 301.989 106.897 301.462 108.178C300.935 109.459 299.368 108.544 299.368 108.544C299.368 108.544 299.559 111.34 297.861 110.776C296.791 110.391 295.862 109.692 295.196 108.771L282.972 100.85Z" fill="#263238"/>
<path d="M292.067 100.193C290.79 99.6556 289.416 99.3875 288.031 99.4051C286.645 99.4227 285.278 99.7258 284.015 100.295C282.361 101.027 280.897 102.286 280.846 104.219C280.877 108.266 281.136 112.308 281.622 116.326L297.162 110.155C297.162 110.155 298.384 106.085 296.913 103.472C296.123 102.111 293.948 100.969 292.067 100.193Z" fill="#263238"/>
<path d="M287.994 122.247V122.299L286.925 124.744C286.788 125.249 286.7 125.766 286.662 126.288C286.633 126.71 286.633 127.133 286.662 127.554C287.064 128.777 287.101 130.197 285.103 129.897C282.585 129.516 278.515 125.117 278.515 123.982C280.22 120.718 281.816 116.845 282.175 113.529L284.561 117.087L287.994 122.247Z" fill="#CE7A63"/>
<g opacity="0.2">
<path d="M287.962 122.299L286.894 124.744C285.43 123.785 284.017 121.977 283.9 120.235C283.827 118.983 284.544 117.936 285.049 117.951L287.962 122.299Z" fill="black"/>
</g>
<path d="M295.167 117.935C294.933 118.47 294.684 118.989 294.435 119.502C292.1 124.018 286.156 123.535 283.045 119.458C282.772 119.086 282.528 118.695 282.313 118.287C280.469 114.868 281.42 112.606 282.599 107.307C282.859 106.077 283.429 104.934 284.256 103.986C285.082 103.039 286.137 102.319 287.32 101.894C288.503 101.469 289.776 101.354 291.016 101.56C292.256 101.765 293.423 102.285 294.406 103.068C298.425 106.289 297.532 112.614 295.167 117.935Z" fill="#CE7A63"/>
<path d="M291.529 118.293H291.676C291.697 118.295 291.718 118.293 291.737 118.287C291.757 118.28 291.776 118.27 291.791 118.256C291.807 118.243 291.82 118.226 291.829 118.207C291.838 118.188 291.843 118.168 291.844 118.147C291.845 118.126 291.842 118.105 291.835 118.085C291.827 118.065 291.816 118.047 291.802 118.031C291.788 118.015 291.771 118.003 291.751 117.994C291.732 117.985 291.712 117.98 291.69 117.979C291.375 117.961 291.066 117.88 290.783 117.74C290.5 117.6 290.248 117.404 290.042 117.164C289.837 116.924 289.683 116.645 289.588 116.343C289.494 116.041 289.462 115.724 289.494 115.409C289.497 115.388 289.494 115.367 289.487 115.347C289.48 115.327 289.469 115.309 289.455 115.293C289.44 115.278 289.422 115.266 289.403 115.258C289.383 115.251 289.362 115.247 289.341 115.248C289.32 115.247 289.298 115.25 289.278 115.258C289.259 115.265 289.24 115.276 289.225 115.29C289.209 115.304 289.196 115.322 289.187 115.341C289.178 115.36 289.173 115.381 289.172 115.402C289.103 116.098 289.312 116.793 289.754 117.335C290.195 117.877 290.834 118.221 291.529 118.293Z" fill="#263238"/>
<path d="M282.409 107.796C282.409 107.796 284.012 108.125 283.873 109.509C283.734 110.892 283.558 111.061 283.558 111.061L285.396 111.749C285.396 111.749 285.674 106.413 287.05 106.691C288.426 106.969 287.284 104.378 288.17 104.165C290.256 103.66 295.614 104.429 297.188 107.964C297.093 105.95 296.262 104.041 294.853 102.599C292.577 100.498 287.533 99.356 285.066 101.545C282.6 103.733 282.409 107.796 282.409 107.796Z" fill="#263238"/>
<path d="M279.325 110.124C279.327 110.798 279.462 111.465 279.722 112.087C279.982 112.709 280.362 113.273 280.84 113.748C282.129 115.007 283.636 114.062 284.002 112.401C284.332 110.893 284.054 108.433 282.414 107.796C282.053 107.665 281.665 107.626 281.284 107.683C280.904 107.739 280.544 107.89 280.237 108.122C279.931 108.353 279.686 108.657 279.527 109.007C279.368 109.357 279.298 109.741 279.325 110.124Z" fill="#CE7A63"/>
<path d="M290.08 111.546C289.955 111.971 290.08 112.373 290.358 112.454C290.636 112.534 290.951 112.256 291.09 111.839C291.229 111.422 291.09 111.005 290.812 110.931C290.533 110.858 290.211 111.129 290.08 111.546Z" fill="#263238"/>
<path d="M294.721 112.825C294.597 113.249 294.721 113.659 294.999 113.74C295.277 113.82 295.6 113.542 295.731 113.117C295.863 112.693 295.731 112.29 295.453 112.21C295.175 112.129 294.86 112.407 294.721 112.825Z" fill="#263238"/>
<path d="M296.406 111.999C296.369 111.989 296.335 111.968 296.309 111.94C296.284 111.911 296.266 111.876 296.259 111.838C296.232 111.69 296.175 111.549 296.092 111.423C296.009 111.298 295.902 111.19 295.776 111.106C295.506 110.967 295.195 110.925 294.898 110.989C294.87 110.999 294.84 111.003 294.811 111.001C294.781 110.999 294.752 110.99 294.726 110.976C294.7 110.963 294.677 110.943 294.659 110.92C294.641 110.896 294.628 110.87 294.621 110.841C294.613 110.812 294.612 110.782 294.617 110.753C294.622 110.724 294.634 110.696 294.65 110.671C294.667 110.647 294.688 110.626 294.713 110.61C294.738 110.594 294.766 110.584 294.795 110.579C295.202 110.483 295.629 110.54 295.996 110.74C296.173 110.852 296.326 111 296.443 111.174C296.56 111.348 296.64 111.544 296.677 111.751C296.688 111.806 296.677 111.863 296.647 111.911C296.617 111.959 296.57 111.993 296.516 112.007L296.406 111.999Z" fill="#263238"/>
<path d="M289.139 110.084C289.108 110.074 289.08 110.057 289.058 110.033C289.018 109.993 288.996 109.939 288.996 109.883C288.996 109.827 289.018 109.773 289.058 109.733C289.347 109.429 289.738 109.244 290.156 109.213C290.366 109.21 290.574 109.251 290.766 109.333C290.959 109.415 291.133 109.536 291.276 109.689C291.314 109.73 291.335 109.783 291.335 109.839C291.335 109.895 291.314 109.948 291.276 109.989C291.235 110.029 291.18 110.052 291.122 110.052C291.065 110.052 291.01 110.029 290.969 109.989C290.866 109.877 290.742 109.788 290.603 109.726C290.465 109.664 290.315 109.632 290.164 109.63C289.86 109.66 289.577 109.797 289.366 110.018C289.338 110.05 289.302 110.073 289.262 110.084C289.222 110.096 289.179 110.096 289.139 110.084Z" fill="#263238"/>
<path d="M292.755 112.292C292.933 113.603 293.3 114.88 293.846 116.084C293.941 116.26 291.965 116.297 291.965 116.297L292.755 112.292Z" fill="#BA4D3C"/>
<path d="M280.746 129.509C281.419 138.637 281.924 147.809 281.924 156.959C281.924 159.272 281.924 161.592 281.756 163.905C281.756 164.198 282.195 164.198 282.217 163.905C282.752 154.785 282.217 145.561 281.668 136.455C281.529 134.142 281.375 131.822 281.207 129.509C281.207 129.216 280.724 129.216 280.746 129.509Z" fill="white"/>
<path d="M288.952 129.566C289.94 138.665 290.767 147.808 291.096 156.95C291.177 159.271 291.228 161.584 291.169 163.904C291.169 164.197 291.623 164.182 291.631 163.904C291.843 154.769 290.972 145.568 290.115 136.491C289.896 134.178 289.652 131.87 289.383 129.566C289.347 129.273 288.893 129.288 288.922 129.566H288.952Z" fill="white"/>
<path d="M284.62 106.51C284.62 106.51 296.163 108.926 297.884 110.756C299.011 111.956 297.832 114.811 297.152 115.836C296.698 116.509 294.224 116.495 293.587 115.323C292.95 114.152 293.14 114.218 292.503 113.925C291.867 113.633 291.252 114.416 290.212 114.452C289.173 114.489 286.757 113.669 286.252 112.308C285.747 110.946 286.216 110.295 285.074 109.987L283.236 109.541C283.068 109.502 282.909 109.429 282.769 109.326C282.63 109.224 282.513 109.094 282.426 108.944C282.339 108.794 282.283 108.629 282.263 108.457C282.242 108.285 282.257 108.111 282.307 107.945C282.512 107.257 282.885 106.481 283.544 106.349L284.62 106.51Z" fill="#FF7900"/>
<g opacity="0.4">
<path d="M296.87 111.962L289.181 109.521C288.734 109.379 288.257 109.626 288.115 110.073L288.093 110.143C287.951 110.59 288.198 111.067 288.645 111.209L296.333 113.651C296.78 113.793 297.258 113.546 297.4 113.099L297.422 113.029C297.564 112.582 297.316 112.104 296.87 111.962Z" fill="black"/>
</g>
<path d="M276.528 108.236C276.513 109.229 276.788 110.206 277.319 111.046C277.85 111.886 278.613 112.554 279.516 112.968C280.42 113.382 281.424 113.525 282.407 113.378C283.39 113.231 284.309 112.802 285.052 112.142C285.796 111.483 286.331 110.621 286.594 109.663C286.856 108.704 286.834 107.69 286.53 106.744C286.226 105.798 285.654 104.96 284.883 104.333C284.111 103.707 283.175 103.318 282.186 103.214C280.77 103.13 279.379 103.612 278.317 104.553C277.256 105.495 276.613 106.819 276.528 108.236Z" fill="#263238"/>
<g opacity="0.2">
<path d="M276.534 108.239C276.519 109.233 276.794 110.209 277.325 111.049C277.855 111.89 278.619 112.557 279.522 112.972C280.426 113.386 281.43 113.528 282.413 113.381C283.396 113.235 284.315 112.806 285.058 112.146C285.802 111.486 286.337 110.625 286.599 109.666C286.862 108.708 286.84 107.693 286.536 106.747C286.232 105.801 285.66 104.964 284.889 104.337C284.117 103.71 283.18 103.321 282.192 103.217C280.776 103.133 279.384 103.615 278.323 104.557C277.262 105.498 276.619 106.823 276.534 108.239Z" fill="white"/>
</g>
<g opacity="0.2">
<path d="M276.977 108.172C276.962 108.845 277.144 109.509 277.5 110.08C277.856 110.652 278.371 111.107 278.981 111.391C279.592 111.674 280.272 111.773 280.939 111.676C281.605 111.579 282.229 111.29 282.733 110.843C283.237 110.397 283.601 109.814 283.778 109.164C283.956 108.515 283.941 107.827 283.734 107.187C283.527 106.546 283.138 105.979 282.614 105.556C282.09 105.133 281.454 104.872 280.784 104.805C279.833 104.747 278.897 105.069 278.183 105.7C277.47 106.332 277.036 107.221 276.977 108.172Z" fill="white"/>
</g>
<path d="M283.005 104.034L282.485 103.903C282.485 103.851 283.891 98.6541 291.086 97.4756L291.167 98.0026C284.323 99.1226 283.012 103.983 283.005 104.034Z" fill="white"/>
<path d="M325.582 163.042C325.293 163.328 324.905 163.492 324.499 163.503C322.925 163.781 318.211 164.521 317.845 163.635C317.413 162.566 319.258 162.068 319.258 162.068C318.57 161.844 317.981 161.386 317.595 160.774C317.209 160.162 317.049 159.434 317.142 158.716C317.486 156.3 323.679 155.056 325.67 155.422C326.307 155.554 327.288 160.722 325.582 163.042Z" fill="#CE7A63"/>
<path d="M260.085 168.487C264.031 171.232 269.045 173.611 273.825 175.807L272.061 182.469C269.159 182.098 266.284 181.543 263.453 180.807C260.518 180.073 257.651 179.094 254.881 177.879C253.349 177.177 251.88 176.347 250.489 175.398C249.652 174.833 248.868 174.194 248.147 173.487C247.255 172.625 246.494 171.639 245.885 170.559C245.716 170.237 245.548 169.915 245.394 169.549L245.284 169.278L245.226 169.139L245.16 168.934C245.072 168.663 244.999 168.385 244.926 168.107C244.749 167.287 244.665 166.449 244.677 165.611C244.699 164.49 244.832 163.375 245.072 162.28C245.436 160.623 245.926 158.995 246.536 157.412C247.59 154.608 248.797 151.864 250.152 149.192C251.45 146.591 252.812 144.061 254.237 141.601C257.084 136.645 260.049 131.917 263.387 127.225L274.865 135.079C272.002 139.566 269.009 144.178 266.168 148.723C264.748 151.007 263.35 153.291 262.025 155.568C260.7 157.844 259.441 160.121 258.417 162.302C257.954 163.272 257.543 164.267 257.187 165.281C257.106 165.501 257.048 165.713 257.004 165.86C257.166 166.062 257.34 166.255 257.523 166.438C258.311 167.2 259.169 167.886 260.085 168.487Z" fill="#263238"/>
<path d="M272.217 175.134L270.431 182.344L275.32 184.284C275.32 184.284 278.388 179.797 278.527 178.245C278.666 176.693 272.217 175.134 272.217 175.134Z" fill="#CE7A63"/>
<path d="M273.273 171.291C273.273 171.291 274.071 180.331 271.019 183.889C271.019 183.889 287.613 189.24 299.874 183.889C299.874 183.889 301.946 176.84 299.874 171.291C291.069 172.776 282.078 172.776 273.273 171.291Z" fill="#263238"/>
<path opacity="0.1" d="M273.273 171.291C273.273 171.291 274.071 180.331 271.019 183.889C271.019 183.889 287.613 189.24 299.874 183.889C299.874 183.889 301.946 176.84 299.874 171.291C291.069 172.776 282.078 172.776 273.273 171.291Z" fill="#F0F0F0"/>
<path d="M85.9535 139.355C85.2873 139.48 84.7823 139.56 84.2113 139.648L82.5497 139.861C81.437 139.97 80.3537 140.066 79.2191 140.117C76.9698 140.233 74.7155 140.203 72.47 140.029C71.3281 139.941 70.1715 139.795 69.0077 139.597C67.817 139.41 66.6388 139.151 65.4794 138.821C64.2514 138.474 63.0502 138.039 61.8853 137.518C61.2675 137.238 60.6663 136.923 60.0846 136.574C59.7918 136.406 59.4917 136.208 59.1989 136.01L58.7597 135.71L58.5693 135.571L58.3424 135.395C58.2145 135.297 58.0923 135.192 57.9764 135.081C57.3674 134.5 56.827 133.852 56.366 133.148C55.9927 132.592 55.6779 132.065 55.3925 131.552C54.8142 130.528 54.3311 129.525 53.8699 128.529C52.9403 126.553 52.1351 124.584 51.3738 122.607C49.8512 118.655 47.8382 112.989 47.5527 109.534C47.9919 107.997 49.5145 108.575 52.0472 108.707C54.0456 112.293 56.0513 115.91 58.0643 119.438C59.0744 121.195 60.0992 122.944 61.1313 124.598C61.6511 125.426 62.1927 126.231 62.7125 126.955C62.9687 127.314 63.2322 127.651 63.4445 127.929C63.6567 128.207 63.9349 128.441 63.8763 128.339L63.8105 128.266L63.7299 128.207L63.9569 128.317C64.1033 128.395 64.2549 128.464 64.4107 128.522C64.7181 128.661 65.0695 128.771 65.4135 128.895C66.1743 129.143 66.9523 129.334 67.7413 129.466C69.4878 129.762 71.2551 129.918 73.0263 129.935C74.8637 129.986 76.7595 129.935 78.6627 129.803C79.607 129.737 80.5659 129.671 81.5175 129.569L82.9303 129.43L84.2625 129.283L85.9535 139.355Z" fill="#263238"/>
<path d="M53.2358 104.169C53.2985 105.027 53.2067 105.89 52.965 106.716L51.8963 109.974C51.845 111.284 48.2363 111.343 47.6653 109.893L46.2891 106.021C45.1765 104.396 44.0199 101.629 44.0931 99.5428C44.1235 98.5844 44.2287 97.6299 44.4079 96.688C44.4494 96.4764 44.5371 96.2766 44.6648 96.1029C44.7925 95.9292 44.957 95.7858 45.1465 95.683C45.336 95.5802 45.5459 95.5205 45.7611 95.5082C45.9763 95.496 46.1917 95.5314 46.3916 95.6119C47.9998 96.1778 49.4641 97.0899 50.6811 98.2837C50.6445 97.8277 50.6766 97.3687 50.7763 96.9222C51.0911 96.117 52.0207 97.8006 53.0235 99.5574C53.7043 100.743 53.4408 102.895 53.2358 104.169Z" fill="#FFC3BD"/>
<path d="M46.0526 107.536L49.9103 106.548C50.2894 106.372 50.6089 106.089 50.8299 105.734C51.0509 105.379 51.1638 104.968 51.1547 104.55L50.7301 94.5213C50.7301 93.9723 50.3934 93.6722 49.9981 93.7893L46.1185 94.7702C45.7428 94.9508 45.4263 95.2346 45.2059 95.5885C44.9855 95.9424 44.8705 96.3517 44.8741 96.7685L45.2987 106.797C45.306 107.346 45.6207 107.646 46.0526 107.536Z" fill="#263238"/>
<g opacity="0.3">
<path d="M46.0507 107.536L49.9083 106.548C50.2874 106.372 50.607 106.089 50.828 105.734C51.049 105.379 51.1618 104.968 51.1527 104.55L50.7282 94.5213C50.7282 93.9723 50.3914 93.6722 49.9962 93.7893L46.1166 94.7702C45.7408 94.9508 45.4243 95.2346 45.204 95.5885C44.9836 95.9424 44.8685 96.3517 44.8722 96.7685L45.2967 106.797C45.304 107.346 45.6188 107.646 46.0507 107.536Z" fill="white"/>
</g>
<path d="M46.4415 107.442L50.2992 106.447C50.6789 106.273 50.9992 105.992 51.2205 105.638C51.4417 105.284 51.5541 104.873 51.5436 104.455L51.1263 94.4271C51.1263 93.8781 50.7823 93.5779 50.3504 93.6951L46.4928 94.6833C46.1139 94.8591 45.7948 95.142 45.5749 95.4972C45.3551 95.8523 45.2441 96.2641 45.2557 96.6816L45.6729 106.703C45.6949 107.252 46.0097 107.552 46.4415 107.442Z" fill="#263238"/>
<g opacity="0.4">
<path d="M46.4299 106.659L46.0127 96.6237C46.0131 96.3788 46.075 96.1379 46.1926 95.923C46.3103 95.7082 46.48 95.5263 46.6861 95.394L50.3461 94.4497L50.7634 104.471C50.763 104.716 50.7011 104.957 50.5834 105.172C50.4658 105.386 50.2961 105.568 50.0899 105.701L46.4299 106.659Z" fill="white"/>
</g>
<path d="M96.7437 273.364L110.176 279.974L110.564 284.988L94.2256 281.423L96.7437 273.364Z" fill="#FFC3BD"/>
<path d="M109.296 283.282C109.019 283.512 108.81 283.812 108.691 284.151C108.571 284.49 108.545 284.855 108.615 285.207C108.959 286.239 110.686 287.535 110.686 287.535C110.686 287.535 112.502 293.164 112.597 294.701C112.692 296.238 113.556 297.549 116.55 297.981L116.608 279.249C116.608 279.249 109.845 278.853 108.688 278.795C107.531 278.736 108.966 280.5 108.966 280.5L109.296 283.282Z" fill="#263238"/>
<path d="M111.27 279.044C111.622 279.743 112.235 280.274 112.977 280.522C113.719 280.77 114.528 280.715 115.23 280.369C115.398 280.281 115.545 280.53 115.369 280.611C114.606 281 113.719 281.07 112.904 280.807C112.089 280.543 111.412 279.967 111.021 279.205C110.926 279.044 111.182 278.883 111.27 279.044Z" fill="white"/>
<path d="M115.52 279.342L115.63 294.092V297.467C115.63 297.65 115.344 297.664 115.344 297.467L115.234 282.717V279.342C115.234 279.159 115.52 279.145 115.52 279.342Z" fill="white"/>
<path d="M111.859 286.811C111.64 286.949 111.453 287.13 111.308 287.344C111.163 287.558 111.064 287.8 111.018 288.054C110.972 288.308 110.979 288.569 111.04 288.82C111.1 289.071 111.212 289.307 111.369 289.512C111.478 289.659 111.222 289.812 111.112 289.673C110.936 289.434 110.812 289.161 110.747 288.871C110.682 288.582 110.677 288.282 110.733 287.99C110.79 287.699 110.906 287.422 111.074 287.178C111.243 286.933 111.46 286.726 111.713 286.57C111.866 286.453 112.013 286.701 111.859 286.811Z" fill="white"/>
<path d="M112.34 288.406C112.121 288.543 111.933 288.724 111.787 288.938C111.642 289.151 111.543 289.393 111.496 289.647C111.449 289.901 111.456 290.162 111.515 290.414C111.575 290.665 111.686 290.902 111.843 291.108C111.96 291.254 111.704 291.408 111.594 291.269C111.418 291.029 111.294 290.756 111.228 290.467C111.163 290.177 111.159 289.877 111.215 289.585C111.271 289.294 111.387 289.017 111.556 288.773C111.724 288.528 111.942 288.321 112.194 288.165C112.348 288.048 112.494 288.297 112.34 288.406Z" fill="white"/>
<path d="M112.831 290.047C112.611 290.183 112.422 290.363 112.276 290.577C112.13 290.79 112.03 291.032 111.983 291.287C111.936 291.541 111.943 291.803 112.003 292.054C112.064 292.306 112.176 292.542 112.333 292.748C112.451 292.887 112.194 293.048 112.085 292.902C111.909 292.663 111.785 292.39 111.719 292.101C111.654 291.812 111.65 291.513 111.706 291.222C111.763 290.931 111.879 290.655 112.047 290.411C112.216 290.167 112.433 289.961 112.685 289.805C112.839 289.688 112.985 289.93 112.831 290.047Z" fill="white"/>
<path d="M100.385 284.988C100.434 284.992 100.482 285.007 100.524 285.032C99.8947 284.403 96.9227 284.396 96.1322 284.066C76.3828 276.19 51.8389 256.199 49.372 243.982C47.6372 235.447 61.7501 199.542 68.8139 179.112C69.2239 177.926 69.6094 176.831 69.9705 175.825C70.3951 174.625 70.783 173.563 71.1197 172.678L84.3616 178.849L85.5914 179.419L87.2896 180.21C87.2896 180.21 86.6235 182.516 85.5401 186.33C80.6065 203.736 68.1039 241.822 70.3877 245.439C71.3247 246.903 103.43 275.751 103.43 275.751L100.385 284.988Z" fill="#FF7900"/>
<path d="M101.873 273.312L96.8584 285.602L100.84 286.634L105.62 275.134L101.873 273.312Z" fill="#263238"/>
<g opacity="0.2">
<path d="M79.0093 194.06L66.053 265.503C64.4352 264.28 61.0753 260.972 58.8793 258.768C58.8793 258.768 57.5105 257.648 57.635 253.835C58.0449 240.966 79.0093 194.06 79.0093 194.06Z" fill="black"/>
</g>
<g opacity="0.2">
<path d="M51.1179 244.647C52.6407 245.313 54.3558 245.394 55.9345 244.874C55.9918 244.854 56.0386 244.811 56.0647 244.756C56.0908 244.701 56.094 244.638 56.0736 244.581C56.0532 244.524 56.0109 244.477 55.956 244.451C55.9011 244.425 55.838 244.422 55.7808 244.442C54.3173 244.922 52.7289 244.849 51.3156 244.237C51.0447 244.12 50.8398 244.53 51.1179 244.647Z" fill="black"/>
</g>
<path opacity="0.2" d="M78.4229 253.067L79.7917 254.326L82.4489 277.187L79.0085 275.042L78.4229 253.067Z" fill="black"/>
<g opacity="0.2">
<path d="M73.5727 176.352C73.2324 178.396 72.4553 180.341 71.2943 182.057C70.1334 183.772 68.6159 185.217 66.8456 186.293C66.5455 186.476 66.8456 186.952 67.1237 186.769C68.9518 185.658 70.5208 184.169 71.7253 182.401C72.9298 180.633 73.7419 178.628 74.107 176.521C74.1656 176.177 73.6312 176.023 73.5727 176.374V176.352Z" fill="black"/>
</g>
<path d="M82.2804 305.375L83.6785 318.228L78.2764 318.668L74.0381 306.026L82.2804 305.375Z" fill="#FFC3BD"/>
<path d="M79.473 317.402C79.243 317.126 78.9427 316.917 78.6039 316.797C78.2651 316.677 77.9003 316.651 77.5478 316.721C76.5157 317.072 75.2274 318.8 75.2274 318.8C75.2274 318.8 69.6056 320.615 68.0831 320.732C66.5605 320.849 65.2356 321.706 64.8184 324.7H83.5283C83.5283 324.7 83.9089 317.936 83.9602 316.772C84.0114 315.608 82.2546 317.065 82.2546 317.065L79.473 317.402Z" fill="#263238"/>
<path d="M83.7188 319.342C83.3708 319.514 83.0604 319.753 82.8056 320.046C82.5509 320.339 82.3569 320.679 82.235 321.048C82.113 321.416 82.0656 321.805 82.0954 322.192C82.1252 322.579 82.2317 322.957 82.4086 323.302C82.4964 323.47 82.2548 323.617 82.167 323.448C81.7765 322.686 81.7036 321.8 81.9642 320.984C82.2248 320.168 82.7977 319.488 83.5578 319.093C83.7188 318.998 83.8799 319.247 83.7188 319.342Z" fill="white"/>
<path d="M83.4585 323.617L68.7087 323.771L65.3342 323.807C65.1512 323.807 65.1366 323.522 65.3342 323.515L80.084 323.361H83.4585C83.6415 323.361 83.6562 323.646 83.4585 323.646V323.617Z" fill="white"/>
<path d="M75.9516 319.976C75.8144 319.757 75.6329 319.569 75.4188 319.425C75.2046 319.28 74.9625 319.182 74.7081 319.136C74.4537 319.091 74.1926 319.099 73.9416 319.16C73.6905 319.222 73.4551 319.335 73.2505 319.493C73.1115 319.603 72.9504 319.354 73.0895 319.244C73.3274 319.067 73.5997 318.94 73.8889 318.874C74.1782 318.807 74.4782 318.8 74.7699 318.856C75.0617 318.911 75.3388 319.026 75.5838 319.193C75.8288 319.361 76.0363 319.578 76.1932 319.83C76.3103 319.984 76.0687 320.13 75.9516 319.976Z" fill="white"/>
<path d="M74.3579 320.468C74.2207 320.249 74.0392 320.061 73.825 319.917C73.6109 319.772 73.3688 319.674 73.1144 319.628C72.86 319.583 72.5988 319.591 72.3478 319.652C72.0968 319.714 71.8614 319.827 71.6568 319.985C71.5177 320.095 71.3567 319.839 71.4957 319.729C71.7345 319.553 72.0072 319.428 72.2965 319.362C72.5859 319.296 72.8857 319.291 73.1772 319.347C73.4687 319.403 73.7455 319.518 73.9902 319.686C74.235 319.853 74.4424 320.07 74.5994 320.322C74.7165 320.476 74.475 320.615 74.3579 320.468Z" fill="white"/>
<path d="M72.7182 320.954C72.5803 320.736 72.3984 320.549 72.1842 320.405C71.97 320.261 71.7282 320.163 71.4741 320.118C71.22 320.072 70.9593 320.08 70.7084 320.141C70.4576 320.202 70.2222 320.314 70.0171 320.471C69.8781 320.581 69.717 320.332 69.8561 320.222C70.0966 320.052 70.369 319.932 70.6569 319.869C70.9449 319.806 71.2426 319.802 71.5322 319.856C71.8218 319.911 72.0974 320.023 72.3427 320.187C72.588 320.35 72.7978 320.561 72.9598 320.808C73.0769 320.961 72.8353 321.108 72.7182 320.954Z" fill="white"/>
<path d="M103.004 189.858C99.4907 210.705 77.8015 247.305 77.8015 247.305C77.8015 249.75 79.2655 257.839 79.6315 263.329C79.9609 268.167 80.3635 273.76 80.8467 279.337C82.0764 294.358 83.4599 309.291 83.4599 309.291L73.8487 310.023C73.8487 310.023 66.6166 289.219 63.2128 270.788C61.9098 263.782 59.9481 253.564 60.336 248.52C61.3828 235.059 77.172 200.274 82.9548 185.407C84.4188 181.674 85.3192 179.419 85.3192 179.419H87.1126H102.375C102.998 180.471 103.364 181.655 103.443 182.874C103.594 185.211 103.447 187.558 103.004 189.858Z" fill="#FF7900"/>
<path d="M84.7136 305.792L71.5596 307.526L72.6356 311.501L84.9918 309.949L84.7136 305.792Z" fill="#263238"/>
<g opacity="0.2">
<path d="M62.1575 250.232C63.6677 250.929 65.3802 251.051 66.9741 250.576C67.0323 250.56 67.0816 250.521 67.1111 250.468C67.1406 250.415 67.148 250.353 67.1315 250.294C67.115 250.236 67.076 250.187 67.0231 250.157C66.9703 250.128 66.9079 250.121 66.8496 250.137C65.3766 250.582 63.7919 250.475 62.3918 249.837C62.1282 249.712 61.894 250.108 62.1575 250.232Z" fill="black"/>
</g>
<g opacity="0.2">
<path d="M94.0868 181.961C93.2969 183.249 92.7864 184.689 92.5883 186.187C92.3902 187.685 92.5089 189.207 92.9367 190.657C93.3645 192.106 94.092 193.449 95.0719 194.599C96.0518 195.749 97.2624 196.68 98.6252 197.333C98.9399 197.487 99.2181 197.011 98.9033 196.857C97.6008 196.241 96.4429 195.357 95.5052 194.263C94.5676 193.168 93.8712 191.889 93.4616 190.507C93.0519 189.126 92.9383 187.673 93.128 186.245C93.3177 184.816 93.8065 183.444 94.5626 182.217C94.7456 181.917 94.2698 181.639 94.0868 181.939V181.961Z" fill="black"/>
</g>
<path d="M115.376 144.67C106.753 161.506 105.252 176.754 105.714 185.076C100.042 185.103 94.3798 184.613 88.7971 183.612C84.7404 182.917 80.7291 181.978 76.785 180.802C75.665 180.465 74.589 180.114 73.6813 179.769C70.1311 178.467 67.9937 177.149 68.2865 176.146C71.2144 166.059 73.308 157.773 74.018 151.99C68.3963 145.739 74.8964 143.301 76.1554 136.699C77.1144 131.655 82.2384 128.325 87.8674 128.983C88.7971 129.093 89.7487 129.218 90.7003 129.349L92.6108 129.642C96.475 130.308 100.294 131.215 104.045 132.358L106.768 133.156C108.1 133.544 109.396 133.968 110.611 134.393C115.149 135.989 117.374 140.761 115.376 144.67Z" fill="#263238"/>
<path d="M104.037 132.373C102.258 133.559 100.567 136.59 99.015 140.374C96.3139 146.962 94.0447 155.827 92.5149 161.397C90.7434 167.839 90.8313 178.562 88.7963 183.584C84.7402 182.898 80.729 181.969 76.7842 180.802C79.6536 174.763 81.8423 158.879 83.0867 148.712C83.552 144.882 84.5371 141.134 86.0147 137.57C87.1883 134.635 88.7544 131.872 90.6702 129.357L92.5807 129.65C96.4525 130.318 100.279 131.227 104.037 132.373Z" fill="white"/>
<path d="M104.039 132.372C102.26 133.558 100.569 136.589 99.0174 140.373C96.5432 142.393 93.586 143.74 90.4164 142.979C87.2469 142.218 86.1342 140.051 86.0244 137.577C87.198 134.641 88.7641 131.879 90.6799 129.364L92.5905 129.657C96.4596 130.322 100.283 131.229 104.039 132.372Z" fill="#FFC3BD"/>
<path d="M113.383 136.149C115.967 139.114 118.382 142.152 120.754 145.292C121.947 146.866 123.104 148.462 124.26 150.153C124.838 151.016 125.402 151.836 126.046 152.971C126.271 153.37 126.473 153.78 126.654 154.201C126.878 154.762 127.042 155.346 127.144 155.943C127.309 157.017 127.264 158.113 127.013 159.171C126.651 160.584 126.052 161.926 125.241 163.138C124.59 164.148 123.938 164.998 123.294 165.825C121.991 167.442 120.695 168.906 119.392 170.356C117.065 172.932 114.744 175.48 112.373 177.954C112.131 178.21 111.808 178.372 111.458 178.414C111.109 178.455 110.757 178.373 110.462 178.181L108.339 176.805C108.107 176.65 107.938 176.417 107.864 176.148C107.79 175.879 107.816 175.592 107.937 175.341C109.584 172.098 111.318 168.753 113.192 165.73C114.21 164.083 115.249 162.457 116.157 160.898C116.587 160.187 116.98 159.454 117.335 158.702C117.569 158.277 117.716 157.809 117.767 157.326C117.767 157.275 117.694 157.421 117.716 157.67C117.738 157.919 117.914 158.314 117.716 157.978C117.35 157.458 116.786 156.704 116.252 156.001C115.125 154.537 113.91 153.073 112.717 151.609C110.308 148.681 107.849 145.687 105.499 142.686L113.383 136.149Z" fill="#263238"/>
<path d="M108.204 176.014C108.204 176.014 105.583 177.983 104.544 180.143C103.505 182.302 104.28 185.267 104.654 186.372C105.027 187.477 106.059 188.012 107.399 188.063C108.738 188.114 109.178 186.262 109.595 185.003C109.595 185.003 109.383 186.665 109.858 186.796C110.334 186.928 111.242 184.344 111.483 182.287C111.725 180.23 112.171 178.459 112.062 177.105C111.952 175.751 109.88 175.106 108.204 176.014Z" fill="#FFC3BD"/>
<path d="M95.7344 127.57L101.664 105.925C101.664 105.925 95.1927 100.596 89.4392 106.657C84.5421 111.839 88.0191 117.776 84.8496 123.368C83.7662 125.286 82.8585 126.179 82.251 127.563C85.2229 128.939 90.1346 128.148 95.7344 127.57Z" fill="#FF7900"/>
<path d="M97.8048 128.179C100.96 127.754 104.927 128.699 108.895 129.108C108.814 128.933 108.353 127.827 108.265 127.644C107.233 125.309 110.995 122.44 109.81 119.27C108.624 116.101 108.748 116.43 109.019 112.47C109.363 107.383 100.381 102.515 98.7345 105.831C98.7345 105.831 97.0289 108.459 98.9394 113.51C100.85 118.56 101.062 120.2 99.0565 122.125C97.5999 123.523 97.5633 125.785 97.8048 128.179Z" fill="#FF7900"/>
<path d="M93.9357 134.022L93.5917 133.971C93.1746 133.887 92.7867 133.696 92.467 133.415C92.1474 133.135 91.9073 132.775 91.7707 132.372C91.6342 131.969 91.6062 131.538 91.6894 131.12C91.7726 130.703 91.9642 130.315 92.2448 129.996C92.7202 129.382 93.0007 128.64 93.05 127.866C93.1212 127.075 93.0941 126.278 92.9695 125.494L94.1992 124.66L100.399 121.087C99.3818 124.33 98.1374 129.498 100.209 131.98C98.8345 133.077 97.1872 133.781 95.4436 134.015C94.9424 134.065 94.4375 134.067 93.9357 134.022Z" fill="#FFC3BD"/>
<path d="M92.5241 138.669C92.2086 138.668 91.8952 138.618 91.5945 138.523C91.2375 138.417 90.9101 138.23 90.6382 137.976C90.3662 137.722 90.1573 137.408 90.028 137.059C89.0105 134.445 91.6897 129.665 91.7995 129.468C91.8109 129.447 91.8265 129.428 91.8453 129.413C91.864 129.398 91.8856 129.386 91.9087 129.38C91.9318 129.373 91.956 129.371 91.98 129.373C92.004 129.376 92.0272 129.383 92.0483 129.395C92.0897 129.419 92.1203 129.458 92.1339 129.505C92.1475 129.551 92.1431 129.6 92.1215 129.644C92.1215 129.695 89.4131 134.475 90.3647 136.927C90.4761 137.225 90.6562 137.492 90.8902 137.707C91.1242 137.922 91.4056 138.078 91.7116 138.164C95.4741 139.386 100.349 131.378 100.4 131.298C100.426 131.256 100.466 131.226 100.514 131.214C100.561 131.203 100.611 131.21 100.653 131.236C100.695 131.261 100.725 131.302 100.736 131.349C100.748 131.396 100.74 131.446 100.715 131.488C100.525 131.81 96.3379 138.669 92.5241 138.669Z" fill="white"/>
<g opacity="0.2">
<path d="M93.0463 127.863C93.1175 127.072 93.0905 126.275 92.9658 125.491L94.1956 124.657L97.0284 125.067C97.0284 125.067 95.235 127.57 93.0463 127.863Z" fill="black"/>
</g>
<path d="M103.397 115.792C101.735 121.114 101.259 122.468 97.892 124.576C92.8266 127.753 86.6632 125.498 86.729 119.789C86.7949 114.665 89.5106 106.803 95.2349 105.932C100.959 105.061 105.066 110.456 103.397 115.785" fill="#FFC3BD"/>
<path d="M103.217 109.067C103.217 109.067 101.021 106.139 99.1766 110.97C98.591 112.478 91.8566 110.011 89.6606 109.367C87.4646 108.723 92.2812 105.18 94.7188 104.514C97.1563 103.848 102.785 107.434 103.217 109.067Z" fill="#FF7900"/>
<path d="M88.7959 118.838C90.2998 119.172 91.8499 119.243 93.3782 119.05C93.3782 119.05 92.0899 121.122 90.4502 120.917C88.8105 120.712 88.7959 118.838 88.7959 118.838Z" fill="white"/>
<path d="M94.3873 114.792C94.2775 115.231 93.9555 115.524 93.6553 115.458C93.3552 115.392 93.2235 114.975 93.3333 114.536C93.4431 114.097 93.7651 113.804 94.0653 113.862C94.3654 113.921 94.4971 114.353 94.3873 114.792Z" fill="#263238"/>
<path d="M89.775 113.766C89.6652 114.205 89.3432 114.498 89.043 114.439C88.7429 114.38 88.6112 113.949 88.721 113.509C88.8308 113.07 89.1528 112.777 89.453 112.843C89.7531 112.909 89.8848 113.326 89.775 113.766Z" fill="#263238"/>
<path d="M89.5668 112.895L88.5859 112.331C88.5859 112.331 88.9227 113.29 89.5668 112.895Z" fill="#263238"/>
<path d="M91.0555 114.19C91.0555 114.19 90.0087 115.171 88.9327 115.984C88.8521 116.047 88.7868 116.127 88.742 116.219C88.6971 116.311 88.6738 116.412 88.6738 116.515C88.6738 116.617 88.6971 116.718 88.742 116.81C88.7868 116.902 88.8521 116.982 88.9327 117.045C89.3179 117.36 89.7379 117.631 90.1844 117.85L91.0555 114.19Z" fill="#ED847E"/>
<path d="M95.9016 113.46C95.865 113.456 95.8299 113.443 95.7993 113.423C95.7687 113.402 95.7435 113.375 95.7259 113.343C95.5483 113.059 95.3068 112.822 95.0208 112.649C94.7347 112.476 94.4121 112.373 94.0789 112.347C94.0401 112.354 94.0004 112.351 93.9625 112.341C93.9246 112.331 93.8894 112.312 93.8594 112.287C93.8294 112.261 93.8053 112.229 93.7888 112.194C93.7722 112.158 93.7637 112.119 93.7637 112.08C93.7637 112.041 93.7722 112.002 93.7888 111.966C93.8053 111.93 93.8294 111.899 93.8594 111.873C93.8894 111.848 93.9246 111.829 93.9625 111.819C94.0004 111.808 94.0401 111.806 94.0789 111.813C94.5013 111.837 94.9117 111.962 95.2759 112.177C95.6402 112.392 95.9475 112.691 96.1724 113.05C96.211 113.11 96.2242 113.183 96.2091 113.253C96.1941 113.323 96.1519 113.384 96.0919 113.423C96.0642 113.442 96.0331 113.454 96.0004 113.461C95.9677 113.467 95.9341 113.467 95.9016 113.46Z" fill="#263238"/>
<path d="M88.2937 111.711C88.2283 111.691 88.1731 111.646 88.14 111.587C88.122 111.556 88.1103 111.522 88.1057 111.487C88.1011 111.452 88.1037 111.416 88.1133 111.382C88.1228 111.348 88.1392 111.316 88.1614 111.288C88.1836 111.26 88.2112 111.237 88.2425 111.221C88.6061 111.006 89.0156 110.882 89.4371 110.857C89.8585 110.833 90.2797 110.91 90.6654 111.082C90.6969 111.097 90.7251 111.119 90.7481 111.145C90.7712 111.172 90.7886 111.203 90.7996 111.236C90.8105 111.27 90.8146 111.305 90.8117 111.34C90.8087 111.375 90.7988 111.409 90.7825 111.44C90.7497 111.503 90.6939 111.55 90.6269 111.572C90.56 111.593 90.4871 111.588 90.4238 111.557C90.1161 111.424 89.781 111.366 89.4462 111.387C89.1115 111.409 88.7867 111.51 88.4987 111.682C88.4664 111.696 88.4315 111.703 88.3962 111.703C88.3609 111.703 88.326 111.696 88.2937 111.682" fill="#263238"/>
<path d="M94.1957 113.921L93.2148 113.35C93.2148 113.35 93.5516 114.316 94.1957 113.921Z" fill="#263238"/>
<path d="M107.719 112.669C106.841 115.392 107.061 116.205 107.668 117.398L102.486 119.799C102.442 119.652 102.09 119.389 101.636 119.008C101.468 118.876 101.292 118.723 101.109 118.554C100.019 117.559 98.7597 116.022 99.2648 113.972C99.4039 113.394 99.5064 112.845 99.5796 112.332C99.6528 111.82 99.6894 111.322 99.7113 110.868C99.858 109.13 99.513 107.384 98.7158 105.832C99.9017 103.863 109.366 107.604 107.719 112.669Z" fill="#FF7900"/>
<path d="M103.219 118.839L101.638 119.007C101.47 118.875 101.294 118.721 101.111 118.553C100.02 117.558 98.7612 116.02 99.2663 113.971C99.4054 113.392 99.5078 112.843 99.581 112.331C101.198 112.428 102.768 112.915 104.156 113.751C106.345 115.266 103.219 118.839 103.219 118.839Z" fill="#FFC3BD"/>
<g opacity="0.2">
<path d="M103.214 118.838L101.633 119.006C101.465 118.874 101.289 118.72 101.106 118.552C100.015 117.557 98.7563 116.019 99.2614 113.97C99.4005 113.391 99.503 112.842 99.5762 112.33C101.193 112.427 102.763 112.914 104.151 113.75C106.34 115.265 103.214 118.838 103.214 118.838Z" fill="black"/>
</g>
<path d="M104.393 120.048C104.083 120.45 103.691 120.781 103.243 121.019C102.795 121.258 102.301 121.398 101.794 121.432C100.506 121.432 100.235 119.968 100.909 118.752C101.509 117.618 102.9 116.242 104.042 116.798C105.184 117.354 105.242 118.994 104.393 120.048Z" fill="#FFC3BD"/>
<path d="M101.458 121.901C101.585 122.028 101.747 122.114 101.922 122.148C102.098 122.183 102.281 122.164 102.446 122.095C102.611 122.026 102.753 121.91 102.852 121.761C102.952 121.612 103.005 121.437 103.005 121.257C103.005 121.078 102.952 120.903 102.852 120.754C102.753 120.605 102.611 120.488 102.446 120.419C102.281 120.35 102.098 120.332 101.922 120.367C101.747 120.401 101.585 120.487 101.458 120.613C101.373 120.698 101.305 120.798 101.259 120.908C101.213 121.019 101.189 121.138 101.189 121.257C101.189 121.377 101.213 121.496 101.259 121.606C101.305 121.717 101.373 121.817 101.458 121.901Z" fill="white"/>
<path d="M86.4953 111.66L91.0922 112.714C91.0922 112.714 90.309 115.723 88.0471 115.642C85.7852 115.562 86.4953 111.66 86.4953 111.66Z" fill="#263238"/>
<path d="M92.0181 112.991L97.1421 113.84C97.1421 113.84 96.4102 116.871 93.958 116.893C91.5058 116.915 92.0181 112.991 92.0181 112.991Z" fill="#263238"/>
<path d="M92.1231 113.669C91.9468 113.461 91.7184 113.303 91.4612 113.212C91.2041 113.12 90.9273 113.099 90.6591 113.149L90.5859 112.827C90.9174 112.76 91.2609 112.784 91.5795 112.898C91.8981 113.011 92.1797 113.21 92.394 113.471L92.1231 113.669Z" fill="#263238"/>
<path d="M102.607 116.87C102.376 116.433 102.056 116.05 101.668 115.745C101.279 115.44 100.831 115.219 100.352 115.098C98.5664 114.586 96.8462 114.139 96.8242 114.132L96.9121 113.817C96.9121 113.817 98.6469 114.271 100.44 114.784C100.969 114.914 101.464 115.156 101.891 115.495C102.318 115.833 102.667 116.26 102.914 116.745L102.607 116.87Z" fill="#263238"/>
</svg>
