<svg width="100" height="28" viewBox="0 0 100 28" fill="none" xmlns="http://www.w3.org/2000/svg">
<g clip-path="url(#clip0_1_7660)">
<path d="M98.613 0.305935C73.702 -0.446685 48.7402 0.203884 23.9056 2.24489C16.8063 2.83167 9.7071 3.53327 2.63331 4.34967C1.80634 4.43896 0.394123 4.87268 0.0633337 5.76562C-0.267455 6.65855 0.674021 6.9647 1.39921 6.9647C23.1804 6.97746 44.9616 6.63304 66.7427 5.91869C72.9514 5.71459 79.1473 5.48498 85.3559 5.2171C86.3738 5.17883 87.8878 4.91095 88.4603 3.92871C89.0328 2.94648 87.9895 2.57655 87.188 2.53828C60.9157 1.67085 34.4399 0.841698 8.40939 5.17883C7.5697 5.31915 6.14476 5.67632 5.81397 6.60753C5.48318 7.53874 6.43738 7.78111 7.17529 7.81937C20.903 8.67404 34.6308 9.54147 48.3585 10.3834L49.5926 7.74284C34.1473 9.74557 18.7147 11.7483 3.26944 13.7383C2.42975 13.8403 0.992087 14.2613 0.661298 15.167C0.330509 16.0727 1.28471 16.3406 2.02262 16.3916C10.1142 16.9018 18.2058 17.4121 26.2974 17.9223L26.9081 15.3838C20.814 16.8763 14.7198 18.3816 8.61295 19.874C7.97682 20.0271 6.65367 20.5629 6.55188 21.3665C6.4501 22.1702 7.36613 22.4381 8.01499 22.4253C13.3712 22.3232 18.7275 22.6166 24.0455 23.331L24.5672 21.0349C19.4781 23.0886 14.1855 24.5301 8.76562 25.3465C7.95137 25.474 6.2211 25.9205 6.08115 26.9538C5.9412 27.987 7.42975 28.0636 8.11677 27.9615C14.4145 27.0558 20.5468 25.3975 26.4501 22.9993C27.3789 22.6166 28.842 20.9583 26.9717 20.7032C21.2974 19.9378 15.5977 19.5806 9.87249 19.6955L9.26181 22.2467C15.356 20.7415 21.4501 19.249 27.557 17.7437C29.1346 17.3611 30.7376 15.3583 28.1677 15.2053C20.0761 14.695 11.9845 14.1975 3.89285 13.6873L2.64603 16.3406C18.0913 14.3378 33.5366 12.3351 48.9692 10.3451C49.8089 10.2431 51.2338 9.82211 51.5646 8.91641C51.8954 8.01072 50.9412 7.74284 50.2033 7.70457C36.4755 6.83714 22.7478 5.98247 9.02008 5.1278L7.78598 7.78111C33.4348 3.50776 59.5035 4.34967 85.3814 5.20434L87.2135 2.53828C65.445 3.45673 43.6638 4.03076 21.8699 4.22211C15.6613 4.27313 9.45265 4.29865 3.244 4.29865L2.02262 6.91368C26.4755 4.1073 51.1193 2.65309 75.7631 2.60206C82.786 2.60206 89.8089 2.69136 96.8318 2.89546C97.7987 2.92097 99.3254 2.56379 99.8471 1.64534C100.369 0.726891 99.389 0.318691 98.613 0.293178V0.305935Z" fill="#66E0CA"/>
</g>
<defs>
<clipPath id="clip0_1_7660">
<rect width="100" height="28" fill="white"/>
</clipPath>
</defs>
</svg>
