<svg width="62" height="34" viewBox="0 0 62 34" fill="none" xmlns="http://www.w3.org/2000/svg">
<path d="M3.50057 2.4668L4.28637 4.76451H6.82927L4.77202 6.18457L5.55782 8.48228L3.50057 7.06221L1.44332 8.48228L2.22912 6.18457L0.171875 4.76451H2.71477L3.50057 2.4668Z" fill="#E28800"/>
<path d="M23.501 25.2686L24.1588 28.0352L26.683 26.5208L25.089 28.919L28.001 29.5439L25.089 30.1688L26.683 32.567L24.1588 31.0526L23.501 33.8193L22.8432 31.0526L20.319 32.567L21.913 30.1688L19.001 29.5439L21.913 28.919L20.319 26.5208L22.8432 28.0352L23.501 25.2686Z" fill="#E28800"/>
<path d="M37.501 0.566406L38.1588 3.33303L40.683 1.81863L39.089 4.21682L42.001 4.84176L39.089 5.4667L40.683 7.86489L38.1588 6.35049L37.501 9.11711L36.8432 6.35049L34.319 7.86489L35.913 5.4667L33.001 4.84176L35.913 4.21682L34.319 1.81863L36.8432 3.33303L37.501 0.566406Z" fill="#E28800"/>
<path d="M58.0002 11.9673L58.7642 14.5105L61.4643 13.8674L59.5281 15.7676L61.4643 17.6678L58.7642 17.0247L58.0002 19.5679L57.2363 17.0247L54.5361 17.6678L56.4724 15.7676L54.5361 13.8674L57.2363 14.5105L58.0002 11.9673Z" fill="#E28800"/>
</svg>
