<svg xmlns="http://www.w3.org/2000/svg" width="72" height="72" viewBox="0 0 72 72" fill="none">
    <path d="M71.0701 35.6337C71.0701 55.2591 55.1605 71.1687 35.535 71.1687C15.9096 71.1687 0 55.2591 0 35.6337C0 16.0082 15.9096 0.0986328 35.535 0.0986328C55.1605 0.0986328 71.0701 16.0082 71.0701 35.6337Z" fill="white"/>
    <path fill-rule="evenodd" clip-rule="evenodd" d="M35.535 68.1444C53.4902 68.1444 68.0458 53.5889 68.0458 35.6337C68.0458 17.6785 53.4902 3.12289 35.535 3.12289C17.5798 3.12289 3.02426 17.6785 3.02426 35.6337C3.02426 53.5889 17.5798 68.1444 35.535 68.1444ZM35.535 71.1687C55.1605 71.1687 71.0701 55.2591 71.0701 35.6337C71.0701 16.0082 55.1605 0.0986328 35.535 0.0986328C15.9096 0.0986328 0 16.0082 0 35.6337C0 55.2591 15.9096 71.1687 35.535 71.1687Z" fill="#FFA95C"/>
    <path d="M64.2646 35.6328C64.2646 51.5002 51.4016 64.3632 35.5342 64.3632C19.6668 64.3632 6.80371 51.5002 6.80371 35.6328C6.80371 19.7654 19.6668 6.90234 35.5342 6.90234C51.4016 6.90234 64.2646 19.7654 64.2646 35.6328Z" fill="#00A386"/>
    <path d="M39.5633 42.2172H37.3581V40.012C37.3572 39.135 37.0084 38.2941 36.3883 37.674C35.7681 37.0539 34.9273 36.7051 34.0503 36.7042H29.6399C28.7629 36.7051 27.9221 37.0539 27.3019 37.674C26.6818 38.2941 26.333 39.135 26.3321 40.012V42.2172H24.127V40.012C24.1287 38.5504 24.7101 37.1492 25.7436 36.1157C26.7771 35.0822 28.1783 34.5008 29.6399 34.499H34.0503C35.5119 34.5008 36.9131 35.0822 37.9466 36.1157C38.9801 37.1492 39.5615 38.5504 39.5633 40.012V42.2172Z" fill="white"/>
    <path d="M31.8499 23.4728C32.5041 23.4728 33.1436 23.6668 33.6876 24.0302C34.2315 24.3937 34.6555 24.9103 34.9059 25.5147C35.1562 26.1191 35.2217 26.7842 35.0941 27.4259C34.9665 28.0675 34.6514 28.6569 34.1888 29.1195C33.7262 29.5821 33.1368 29.8971 32.4952 30.0248C31.8535 30.1524 31.1885 30.0869 30.584 29.8365C29.9796 29.5862 29.463 29.1622 29.0996 28.6182C28.7361 28.0743 28.5421 27.4348 28.5421 26.7805C28.5421 25.9033 28.8906 25.0619 29.5109 24.4416C30.1313 23.8213 30.9726 23.4728 31.8499 23.4728ZM31.8499 21.2676C30.7595 21.2676 29.6936 21.5909 28.787 22.1967C27.8804 22.8025 27.1738 23.6635 26.7566 24.6708C26.3393 25.6782 26.2301 26.7867 26.4428 27.8561C26.6556 28.9255 27.1806 29.9078 27.9516 30.6788C28.7226 31.4498 29.7049 31.9749 30.7744 32.1876C31.8438 32.4003 32.9522 32.2911 33.9596 31.8739C34.967 31.4566 35.828 30.75 36.4337 29.8434C37.0395 28.9368 37.3628 27.8709 37.3628 26.7805C37.3628 25.3184 36.782 23.9162 35.7481 22.8823C34.7143 21.8484 33.312 21.2676 31.8499 21.2676Z" fill="white"/>
    <path d="M21.9248 45.5259H52.7974V47.7311H21.9248V45.5259Z" fill="white"/>
    <path d="M54.9642 29.8021C54.9267 29.6622 54.862 29.5311 54.7739 29.4162C54.6857 29.3013 54.5757 29.2049 54.4503 29.1326C54.3249 29.0602 54.1864 29.0132 54.0429 28.9943C53.8993 28.9754 53.7534 28.985 53.6135 29.0226L50.2109 29.9333L46.1809 24.5747L45.0783 24.8702L46.6859 30.8771L43.6361 31.693L41.7706 29.2122L40.668 29.5077L41.6978 33.3536C41.7733 33.636 41.9579 33.8769 42.2109 34.0233C42.464 34.1697 42.7649 34.2096 43.0474 34.1342L54.1836 31.1528C54.3235 31.1154 54.4548 31.0508 54.5698 30.9627C54.6848 30.8746 54.7813 30.7647 54.8538 30.6392C54.9263 30.5138 54.9734 30.3753 54.9923 30.2316C55.0112 30.088 55.0017 29.942 54.9642 29.8021Z" fill="white"/>
</svg>