<svg width="264" height="263" viewBox="0 0 264 263" fill="none" xmlns="http://www.w3.org/2000/svg">
<path fill-rule="evenodd" clip-rule="evenodd" d="M263.66 125.948C262.147 150.193 242.693 169.771 223.975 187.29C206.607 203.545 183.554 211.446 161.189 221.857C131.034 235.894 100.617 273.514 70.5609 258.702C38.7093 243.005 62.7655 196.002 48.4068 166.277C38.0882 144.915 2.4913 136.327 0.293741 113.237C-1.92268 89.9486 22.3771 72.7252 37.7139 53.924C53.9667 34 64.5793 3.65254 92.1664 0.611884C120.249 -2.48342 136.988 29.239 162.669 40.1514C185.125 49.6936 213.904 44.6912 231.921 59.9971C251.887 76.9593 265.18 101.592 263.66 125.948Z" fill="#DAF8F7"/>
</svg>
