<svg width="482" height="366" viewBox="0 0 482 366" fill="none" xmlns="http://www.w3.org/2000/svg">
<path d="M482 321.62H0V321.865H482V321.62Z" fill="#E6E6E6"/>
<path d="M126.718 332.88H87.1167V333.124H126.718V332.88Z" fill="#E6E6E6"/>
<path d="M80.0502 332.998H67.817V333.242H80.0502V332.998Z" fill="#E6E6E6"/>
<path d="M384.314 336.299H377.595V336.543H384.314V336.299Z" fill="#E6E6E6"/>
<path d="M173.693 330.42H166.974V330.664H173.693V330.42Z" fill="#E6E6E6"/>
<path d="M293.086 328.705H247.334V328.949H293.086V328.705Z" fill="#E6E6E6"/>
<path d="M339.163 336.456H307.37V336.7H339.163V336.456Z" fill="#E6E6E6"/>
<path d="M302.024 336.456H274.473V336.7H302.024V336.456Z" fill="#E6E6E6"/>
<path d="M410.214 330.538H358.427V330.782H410.214V330.538Z" fill="#E6E6E6"/>
<path d="M228.468 277.917H42.3293C40.8711 277.914 39.4735 277.324 38.4433 276.275C37.4131 275.226 36.8345 273.804 36.8345 272.322V6.34702C36.8472 4.87328 37.4314 3.46413 38.4602 2.42567C39.489 1.38721 40.8794 0.803306 42.3293 0.800781H228.468C229.928 0.800781 231.328 1.39028 232.36 2.43959C233.393 3.4889 233.972 4.91207 233.972 6.39602V272.322C233.972 273.806 233.393 275.229 232.36 276.278C231.328 277.327 229.928 277.917 228.468 277.917ZM42.3293 0.996762C40.935 0.999358 39.5987 1.56419 38.6137 2.56728C37.6287 3.57036 37.0755 4.92974 37.0755 6.34702V272.322C37.0755 273.739 37.6287 275.098 38.6137 276.101C39.5987 277.105 40.935 277.669 42.3293 277.672H228.468C229.863 277.669 231.2 277.105 232.187 276.102C233.174 275.099 233.729 273.74 233.731 272.322V6.34702C233.729 4.92884 233.174 3.56949 232.187 2.56668C231.2 1.56387 229.863 0.999353 228.468 0.996762H42.3293Z" fill="#E6E6E6"/>
<path d="M436.994 277.917H250.845C249.386 277.914 247.988 277.324 246.956 276.275C245.924 275.227 245.343 273.805 245.341 272.322V6.34702C245.356 4.87238 245.942 3.46325 246.973 2.42506C248.003 1.38687 249.394 0.803278 250.845 0.800781H436.994C438.442 0.805881 439.83 1.39093 440.856 2.42911C441.883 3.4673 442.466 4.87497 442.479 6.34702V272.322C442.479 273.802 441.902 275.223 440.873 276.271C439.845 277.32 438.45 277.912 436.994 277.917ZM250.845 0.996762C249.45 0.999353 248.113 1.56387 247.126 2.56668C246.14 3.56949 245.584 4.92884 245.582 6.34702V272.322C245.584 273.74 246.14 275.099 247.126 276.102C248.113 277.105 249.45 277.669 250.845 277.672H436.994C438.389 277.669 439.726 277.105 440.713 276.102C441.699 275.099 442.255 273.74 442.257 272.322V6.34702C442.255 4.92884 441.699 3.56949 440.713 2.56668C439.726 1.56387 438.389 0.999353 436.994 0.996762H250.845Z" fill="#E6E6E6"/>
<path d="M305.648 19.0574H68.5815V174.666H305.648V19.0574Z" fill="#E0E0E0"/>
<path d="M309.212 19.0574H70.2465V174.666H309.212V19.0574Z" fill="#F5F5F5"/>
<path d="M305.648 174.664H68.5815V183.385H305.648V174.664Z" fill="#E0E0E0"/>
<path d="M325.541 174.664H94.3835V183.385H325.541V174.664Z" fill="#F5F5F5"/>
<path d="M304.222 168.07V25.6614L75.2531 25.6614V168.07L304.222 168.07Z" fill="#FAFAFA"/>
<path d="M131.043 168.061L160.377 25.6614H197.81L168.475 168.061H131.043Z" fill="white"/>
<path d="M179.074 168.061L208.409 25.6614H225.78L196.436 168.061H179.074Z" fill="white"/>
<path d="M304.222 153.167V24.77H303.586V153.167H304.222Z" fill="#E0E0E0"/>
<path d="M66.3307 18.8307V74.2341H80.7907C80.7907 74.2341 106.703 57.0565 112.603 21.7116C112.743 20.8699 112.701 20.0072 112.48 19.1837C112.258 18.3601 111.863 17.5954 111.322 16.9426C110.781 16.2899 110.106 15.7647 109.345 15.4038C108.584 15.0428 107.755 14.8546 106.915 14.8523H70.2831C69.7666 14.8498 69.2546 14.9506 68.7765 15.1492C68.2983 15.3477 67.8633 15.64 67.4963 16.0095C67.1293 16.3789 66.8374 16.8182 66.6374 17.3023C66.4375 17.7863 66.3332 18.3057 66.3307 18.8307Z" fill="#E0E0E0"/>
<path d="M66.3307 163.044V78.7036H80.7907C80.7907 78.7036 89.0811 95.7343 97.3522 115.313C99.5346 120.524 100.414 126.203 99.9108 131.843C99.408 137.483 97.5389 142.909 94.4705 147.636C91.4021 152.363 87.2299 156.244 82.3264 158.933C77.4229 161.621 71.9406 163.034 66.3692 163.044H66.3307Z" fill="#E0E0E0"/>
<path d="M78.8286 74.2341H65.3615C64.5629 74.2341 63.9155 74.8923 63.9155 75.7041V77.2329C63.9155 78.0448 64.5629 78.7029 65.3615 78.7029H78.8286C79.6272 78.7029 80.2746 78.0448 80.2746 77.2329V75.7041C80.2746 74.8923 79.6272 74.2341 78.8286 74.2341Z" fill="#FAFAFA"/>
<path d="M314.816 18.8307V74.2341H300.356C300.356 74.2341 274.444 57.0565 268.544 21.7116C268.404 20.8699 268.446 20.0072 268.667 19.1837C268.889 18.3601 269.284 17.5954 269.825 16.9426C270.366 16.2899 271.041 15.7647 271.802 15.4038C272.563 15.0428 273.392 14.8546 274.232 14.8523H310.864C311.38 14.8498 311.892 14.9506 312.37 15.1492C312.849 15.3477 313.284 15.64 313.651 16.0095C314.018 16.3789 314.31 16.8182 314.509 17.3023C314.709 17.7863 314.814 18.3057 314.816 18.8307Z" fill="#E0E0E0"/>
<path d="M314.814 163.044V78.7036H300.354C300.354 78.7036 292.064 95.7343 283.793 115.313C281.61 120.524 280.731 126.203 281.234 131.843C281.737 137.483 283.606 142.909 286.674 147.636C289.743 152.363 293.915 156.244 298.819 158.933C303.722 161.621 309.204 163.034 314.776 163.044H314.814Z" fill="#E0E0E0"/>
<path d="M299.306 78.7036H312.773C313.571 78.7036 314.219 78.0455 314.219 77.2338V75.7051C314.219 74.8934 313.571 74.2353 312.773 74.2353H299.306C298.507 74.2353 297.86 74.8934 297.86 75.7051V77.2338C297.86 78.0455 298.507 78.7036 299.306 78.7036Z" fill="#FAFAFA"/>
<path d="M421.23 42.4568H365.048V153.166H421.23V42.4568Z" fill="#E0E0E0"/>
<path d="M429.363 42.4568H366.491V153.166H429.363V42.4568Z" fill="#F5F5F5"/>
<path d="M422.879 146.571V49.0518H372.973V146.571H422.879Z" fill="white"/>
<path d="M384.683 120.966C384.683 114.283 390.014 62.5637 396.589 62.5637H399.269C405.833 62.5637 411.164 114.283 411.164 120.966C411.167 122.556 410.861 124.131 410.265 125.601C409.668 127.071 408.792 128.407 407.688 129.532C406.583 130.658 405.271 131.551 403.826 132.161C402.381 132.771 400.833 133.086 399.269 133.087H396.589C395.024 133.087 393.474 132.774 392.028 132.164C390.583 131.555 389.269 130.662 388.163 129.536C387.058 128.41 386.181 127.074 385.584 125.603C384.987 124.133 384.681 122.557 384.683 120.966Z" fill="#F5F5F5"/>
<path d="M228.553 208.01H187.188V321.62H228.553V208.01Z" fill="#E0E0E0"/>
<path d="M217.508 321.62H228.556V302.806H205.93L217.508 321.62Z" fill="#FAFAFA"/>
<path d="M109.947 208.01H68.5815V321.62H109.947V208.01Z" fill="#E0E0E0"/>
<path d="M228.554 208.01H100.303V315.143H228.554V208.01Z" fill="#FAFAFA"/>
<path d="M111.351 321.62H100.303V302.806H122.929L111.351 321.62Z" fill="#FAFAFA"/>
<path d="M219.985 217.221H108.874V256.652H219.985V217.221Z" fill="#F0F0F0"/>
<path d="M219.985 266.188H108.874V305.619H219.985V266.188Z" fill="#F0F0F0"/>
<path d="M184.722 217.221H108.874V256.652H184.722V217.221Z" fill="#E0E0E0"/>
<path d="M260.279 134.214H230.839C230.839 134.214 235.948 143.239 235.948 148.541C235.948 153.842 213.593 174.665 245.588 174.665C277.583 174.665 255.228 153.852 255.228 148.541C255.228 143.229 260.279 134.214 260.279 134.214Z" fill="#E0E0E0"/>
<path d="M184.723 159.094C184.723 167.659 195.847 174.665 209.45 174.665H221.721C235.323 174.665 246.448 167.659 246.448 159.094H184.723Z" fill="#EBEBEB"/>
<path d="M184.722 266.188H108.874V305.619H184.722V266.188Z" fill="#E0E0E0"/>
<path d="M187.316 304.904H206.538V272.361H187.316V304.904Z" fill="white"/>
<path d="M203.548 305.413H204.859V272.87H203.548V305.413Z" fill="#E0E0E0"/>
<path d="M204.964 305.668H208.319C208.574 305.668 208.781 305.458 208.781 305.198V273.096C208.781 272.837 208.574 272.626 208.319 272.626H204.964C204.708 272.626 204.501 272.837 204.501 273.096V305.198C204.501 305.458 204.708 305.668 204.964 305.668Z" fill="#E6E6E6"/>
<path d="M204.501 287.892H208.781V280.171H204.501V287.892Z" fill="white"/>
<path d="M204.501 295.025H208.781V290.263H204.501V295.025Z" fill="white"/>
<path d="M186.34 305.668H203.664C203.919 305.668 204.126 305.458 204.126 305.198V273.096C204.126 272.837 203.919 272.626 203.664 272.626H186.34C186.085 272.626 185.878 272.837 185.878 273.096V305.198C185.878 305.458 186.085 305.668 186.34 305.668Z" fill="#E6E6E6"/>
<path d="M177.952 304.834H199.16V268.93H177.952V304.834Z" fill="white"/>
<path d="M195.866 305.384H197.302V269.48H195.866V305.384Z" fill="#E6E6E6"/>
<path d="M197.416 305.657H201.118C201.4 305.657 201.629 305.425 201.629 305.138V269.724C201.629 269.438 201.4 269.205 201.118 269.205H197.416C197.134 269.205 196.905 269.438 196.905 269.724V305.138C196.905 305.425 197.134 305.657 197.416 305.657Z" fill="#F0F0F0"/>
<path d="M196.905 282.062H201.629V280.817H196.905V282.062Z" fill="white"/>
<path d="M196.905 285.668H201.629V284.424H196.905V285.668Z" fill="white"/>
<path d="M196.905 289.264H201.629V288.02H196.905V289.264Z" fill="white"/>
<path d="M176.874 305.657H195.98C196.263 305.657 196.491 305.425 196.491 305.138V269.724C196.491 269.438 196.263 269.205 195.98 269.205H176.874C176.592 269.205 176.363 269.438 176.363 269.724V305.138C176.363 305.425 176.592 305.657 176.874 305.657Z" fill="#F0F0F0"/>
<path d="M151.297 297.995C155.722 297.995 159.308 294.35 159.308 289.852C159.308 285.355 155.722 281.709 151.297 281.709C146.873 281.709 143.287 285.355 143.287 289.852C143.287 294.35 146.873 297.995 151.297 297.995Z" fill="#FAFAFA"/>
<path d="M139.385 300.111C142.845 300.111 145.651 297.259 145.651 293.742C145.651 290.224 142.845 287.372 139.385 287.372C135.924 287.372 133.119 290.224 133.119 293.742C133.119 297.259 135.924 300.111 139.385 300.111Z" fill="#FAFAFA"/>
<path d="M164.248 299.484C168.673 299.484 172.259 295.838 172.259 291.341C172.259 286.843 168.673 283.198 164.248 283.198C159.824 283.198 156.238 286.843 156.238 291.341C156.238 295.838 159.824 299.484 164.248 299.484Z" fill="#FAFAFA"/>
<path d="M123.394 294.889C123.394 294.889 124.146 305.668 152.738 305.668C181.33 305.668 182.082 294.889 182.082 294.889H123.394Z" fill="#F0F0F0"/>
<path d="M386.11 307.509C387.19 276.75 388.327 234.144 385.985 218.72L382.129 215.722C382.129 215.722 382.967 218.603 383.401 265.697C383.835 312.791 384.365 300.483 383.922 307.49L386.11 307.509Z" fill="#E0E0E0"/>
<path d="M393.213 205.658C400.279 195.918 415.154 189 430.549 189C436.603 189 412.551 200.318 402.815 212.802C395.257 222.493 386.909 238.798 384.19 247.853C385.501 228.843 386.157 215.398 393.213 205.658Z" fill="#E0E0E0"/>
<path d="M379.046 231.018C372.558 220.886 358.108 213.086 342.742 212.204C336.698 211.861 360.094 224.58 369.059 237.613C376.048 247.745 383.432 264.521 385.621 273.722C385.418 254.595 385.543 241.15 379.046 231.018Z" fill="#E0E0E0"/>
<path d="M381.946 189.412C376.036 177.584 362.232 166.178 347.242 161.543C341.351 159.721 365.789 180.524 372.768 196.398C378.196 208.725 384.77 224.335 386.505 234.164C387.132 214.82 387.845 201.239 381.946 189.412Z" fill="#E0E0E0"/>
<path d="M384.686 321.62C388.275 321.621 391.73 320.226 394.339 317.72C396.949 315.215 398.517 311.79 398.722 308.146L399.965 286.197H369.406L370.65 308.146C370.854 311.79 372.422 315.215 375.032 317.72C377.642 320.226 381.096 321.621 384.686 321.62Z" fill="#F0F0F0"/>
<path d="M367.43 291.165H401.942L402.935 282.062H366.438L367.43 291.165Z" fill="#F0F0F0"/>
<path d="M240.998 365.871C344.226 365.871 427.908 360.905 427.908 354.779C427.908 348.653 344.226 343.687 240.998 343.687C137.771 343.687 54.0883 348.653 54.0883 354.779C54.0883 360.905 137.771 365.871 240.998 365.871Z" fill="#F5F5F5"/>
<path d="M413.926 41.7502H68.0719C65.6164 41.758 63.2635 42.7523 61.5262 44.5163C59.789 46.2804 58.8084 48.6711 58.7982 51.1671V285.814C58.8059 288.311 59.7857 290.703 61.5234 292.468C63.2612 294.232 65.6156 295.226 68.0719 295.231H413.926C416.381 295.223 418.733 294.229 420.468 292.464C422.204 290.7 423.183 288.309 423.19 285.814V51.1671C423.18 48.6728 422.201 46.2835 420.466 44.5198C418.73 42.756 416.38 41.7606 413.926 41.7502Z" fill="#00CCA7"/>
<path d="M58.7982 66.1106V285.814C58.8059 288.311 59.7857 290.703 61.5234 292.468C63.2612 294.232 65.6156 295.226 68.0719 295.231H413.926C416.381 295.223 418.733 294.229 420.468 292.464C422.204 290.7 423.183 288.309 423.19 285.814V66.1106H58.7982Z" fill="#00CCA7"/>
<path opacity="0.6" d="M58.7982 66.1106V285.814C58.8059 288.311 59.7857 290.703 61.5234 292.468C63.2612 294.232 65.6156 295.226 68.0719 295.231H413.926C416.381 295.223 418.733 294.229 420.468 292.464C422.204 290.7 423.183 288.309 423.19 285.814V66.1106H58.7982Z" fill="white"/>
<path d="M60.5131 66.1106V277.358C60.5118 278.06 60.6468 278.756 60.9102 279.405C61.1737 280.054 61.5605 280.644 62.0485 281.141C62.5364 281.637 63.116 282.032 63.7541 282.301C64.3921 282.57 65.0761 282.708 65.7669 282.708H416.219C416.91 282.708 417.594 282.57 418.232 282.301C418.87 282.032 419.45 281.637 419.938 281.141C420.426 280.644 420.813 280.054 421.076 279.405C421.34 278.756 421.474 278.06 421.473 277.358V66.1106H60.5131Z" fill="white"/>
<path d="M176.763 89.9424H75.8221V238.789H176.763V89.9424Z" fill="#00CCA7"/>
<path d="M175.116 89.9424H74.1752V238.789H175.116V89.9424Z" fill="#00CCA7"/>
<path opacity="0.2" d="M175.116 89.9424H74.1752V238.789H175.116V89.9424Z" fill="white"/>
<path opacity="0.61" d="M127.666 56.9775H78.7141C77.9471 56.9775 77.2115 56.6677 76.6692 56.1165C76.1268 55.5652 75.8221 54.8175 75.8221 54.0378C75.8221 53.2582 76.1268 52.5104 76.6692 51.9591C77.2115 51.4079 77.9471 51.0981 78.7141 51.0981H127.666C128.433 51.0981 129.169 51.4079 129.711 51.9591C130.253 52.5104 130.558 53.2582 130.558 54.0378C130.558 54.8175 130.253 55.5652 129.711 56.1165C129.169 56.6677 128.433 56.9775 127.666 56.9775Z" fill="#F5F5F5"/>
<path opacity="0.61" d="M140.529 56.9775H143.797C144.564 56.9775 145.3 56.6677 145.842 56.1165C146.384 55.5652 146.689 54.8175 146.689 54.0378C146.689 53.2582 146.384 52.5104 145.842 51.9591C145.3 51.4079 144.564 51.0981 143.797 51.0981H140.529C139.762 51.0981 139.026 51.4079 138.484 51.9591C137.942 52.5104 137.637 53.2582 137.637 54.0378C137.637 54.8175 137.942 55.5652 138.484 56.1165C139.026 56.6677 139.762 56.9775 140.529 56.9775Z" fill="#F5F5F5"/>
<path d="M154.87 227.069C150.869 221.189 152.99 215.31 155.034 209.685C157.077 204.061 159.034 198.671 155.323 193.193C151.612 187.716 146.001 187.657 140.063 187.598C134.125 187.539 128.013 187.471 124.022 181.572C120.031 175.673 122.094 169.813 124.186 164.188C126.278 158.564 128.186 153.184 124.465 147.706C120.744 142.229 115.153 142.17 109.215 142.101C103.277 142.033 97.1744 141.974 93.1738 136.085C89.1732 130.196 91.2458 124.326 93.3473 118.701C95.4488 113.077 97.3383 107.697 93.6269 102.219L94.4174 101.661C98.418 107.54 96.3454 113.42 94.2438 119.044C92.1423 124.669 90.2529 130.049 93.9643 135.526C97.6757 141.004 103.286 141.063 109.224 141.122C115.163 141.18 121.265 141.249 125.265 147.148C129.266 153.047 127.193 158.907 125.092 164.531C122.99 170.156 121.101 175.536 124.812 181.013C128.524 186.491 134.134 186.55 140.072 186.618C146.011 186.687 152.113 186.746 156.113 192.635C160.114 198.524 158.041 204.394 155.94 210.018C153.838 215.643 151.949 221.032 155.66 226.51L154.87 227.069Z" fill="white"/>
<path d="M407.813 89.9424H306.872V238.789H407.813V89.9424Z" fill="#00CCA7"/>
<path d="M406.163 89.9424H305.232V238.789H406.163V89.9424Z" fill="#00CCA7"/>
<path opacity="0.6" d="M406.163 89.9424H305.232V238.789H406.163V89.9424Z" fill="white"/>
<path opacity="0.65" d="M366.953 119.662C366.944 127.366 365.23 134.97 361.938 141.909C358.646 148.849 353.86 154.947 347.935 159.752C342.011 164.556 335.099 167.945 327.711 169.666C320.323 171.388 312.649 171.398 305.257 169.696V89.9709H357.641C363.711 98.641 366.966 109.021 366.953 119.662Z" fill="#00CCA7"/>
<path d="M406.165 147.786V217.006C401.694 217.006 397.266 216.111 393.136 214.372C389.005 212.632 385.251 210.083 382.089 206.869C378.928 203.655 376.42 199.84 374.709 195.641C372.998 191.442 372.117 186.941 372.117 182.396C372.117 177.851 372.998 173.351 374.709 169.152C376.42 164.952 378.928 161.137 382.089 157.923C385.251 154.709 389.005 152.16 393.136 150.421C397.266 148.681 401.694 147.786 406.165 147.786Z" fill="#FF7900"/>
<path opacity="0.78" d="M377.264 238.789H310.556C312.131 230.979 316.311 223.962 322.388 218.923C328.465 213.884 336.067 211.132 343.91 211.132C351.753 211.132 359.355 213.884 365.432 218.923C371.509 223.962 375.689 230.979 377.264 238.789Z" fill="#00CCA7"/>
<path d="M292.289 161.2H191.349V282.708H292.289V161.2Z" fill="#00CCA7"/>
<path d="M290.639 161.2H189.698V282.708H290.639V161.2Z" fill="#00CCA7"/>
<path opacity="0.5" d="M290.639 161.2H189.698V282.708H290.639V161.2Z" fill="white"/>
<path d="M240.177 174.41C245.947 174.41 251.481 176.74 255.562 180.888C259.642 185.035 261.934 190.661 261.934 196.526V282.708H218.419V196.526C218.419 190.661 220.712 185.035 224.792 180.888C228.872 176.74 234.406 174.41 240.177 174.41Z" fill="white"/>
<path d="M214.927 205.923H177.283V295.231H214.927V205.923Z" fill="#D5E1FD"/>
<path d="M106.256 244.739L105.118 261.16L106.08 261.229L107.218 244.808L106.256 244.739Z" fill="#00CCA7"/>
<path d="M104.582 268.875L104.032 276.812L104.994 276.881L105.544 268.944L104.582 268.875Z" fill="#00CCA7"/>
<path d="M204.583 354.779H103.643L113.986 205.923H214.927L204.583 354.779Z" fill="#00CCA7"/>
<path opacity="0.5" d="M204.583 354.779H103.643L113.986 205.923H214.927L204.583 354.779Z" fill="black"/>
<path d="M202.943 354.779H102.003L112.347 205.923H213.277L202.943 354.779Z" fill="#00CCA7"/>
<path d="M144.921 283.502C141.21 283.562 137.528 282.824 134.118 281.335C130.708 279.847 127.645 277.643 125.132 274.867C122.618 272.091 120.711 268.806 119.534 265.228C118.358 261.65 117.939 257.859 118.305 254.105C119.558 237.947 133.517 224.806 149.413 224.806C153.124 224.746 156.806 225.485 160.216 226.973C163.627 228.461 166.689 230.666 169.202 233.442C171.716 236.217 173.623 239.502 174.8 243.08C175.976 246.658 176.395 250.449 176.029 254.203C174.776 270.352 160.817 283.502 144.921 283.502ZM149.413 225.796C133.989 225.796 120.493 238.534 119.259 254.213C118.905 257.832 119.308 261.487 120.443 264.936C121.577 268.386 123.416 271.552 125.84 274.228C128.263 276.903 131.216 279.027 134.505 280.46C137.794 281.893 141.343 282.603 144.921 282.542C160.345 282.542 173.841 269.803 175.065 254.125C175.421 250.506 175.019 246.852 173.886 243.402C172.753 239.953 170.915 236.786 168.492 234.11C166.069 231.435 163.116 229.31 159.828 227.877C156.54 226.444 152.99 225.735 149.413 225.796Z" fill="#FF7900"/>
<path d="M186.627 319.084C193.75 312.123 194.395 301.055 188.067 294.364C181.74 287.673 170.835 287.892 163.712 294.853C156.588 301.814 155.943 312.881 162.271 319.572C168.598 326.263 179.503 326.045 186.627 319.084Z" fill="#FF7900"/>
<path d="M290.639 66.1106H189.698V145.414H290.639V66.1106Z" fill="#00CCA7"/>
<path opacity="0.5" d="M292.289 66.1106H191.349V145.414H292.289V66.1106Z" fill="black"/>
<path d="M254.329 66.1106H211.431V132.92H254.329V66.1106Z" fill="#00CCA7"/>
<path d="M197.299 66.1106C197.238 69.0665 197.758 72.005 198.828 74.7539C199.899 77.5029 201.498 80.0069 203.533 82.1194C205.568 84.2318 207.998 85.91 210.679 87.0558C213.36 88.2015 216.239 88.7917 219.148 88.7917C222.056 88.7917 224.936 88.2015 227.617 87.0558C230.298 85.91 232.727 84.2318 234.762 82.1194C236.797 80.0069 238.397 77.5029 239.467 74.7539C240.538 72.005 241.058 69.0665 240.997 66.1106H197.299Z" fill="#FF7900"/>
<path d="M249.13 66.1106C249.236 70.6173 251.071 74.9033 254.244 78.0527C257.417 81.2022 261.676 82.9653 266.111 82.9653C270.546 82.9653 274.805 81.2022 277.978 78.0527C281.151 74.9033 282.986 70.6173 283.092 66.1106H249.13Z" fill="#FF7900"/>
<path opacity="0.5" d="M254.329 66.1106H211.431V132.92H254.329V66.1106Z" fill="#FF7900"/>
<path d="M236.054 129.816C236.17 130.384 235.967 130.903 235.601 130.982C235.234 131.06 234.839 130.668 234.723 130.1C234.608 129.532 234.81 129.002 235.177 128.924C235.543 128.846 235.938 129.247 236.054 129.816Z" fill="#263238"/>
<path d="M236.015 130.894C235.704 132.773 235.14 134.6 234.337 136.322C234.776 136.52 235.252 136.618 235.732 136.607C236.212 136.597 236.683 136.48 237.113 136.263L236.015 130.894Z" fill="#DE5753"/>
<path d="M234.577 126.336C234.52 126.336 234.464 126.321 234.414 126.294C234.363 126.267 234.32 126.227 234.288 126.18C234.241 126.103 234.226 126.01 234.246 125.922C234.266 125.834 234.319 125.758 234.394 125.709C234.857 125.441 235.376 125.291 235.909 125.272C236.441 125.253 236.97 125.366 237.45 125.602C237.491 125.619 237.528 125.644 237.56 125.676C237.591 125.708 237.616 125.747 237.632 125.789C237.648 125.831 237.656 125.876 237.654 125.922C237.653 125.967 237.642 126.011 237.623 126.052C237.586 126.134 237.518 126.197 237.435 126.228C237.352 126.259 237.26 126.256 237.18 126.219C236.798 126.036 236.38 125.947 235.958 125.957C235.537 125.967 235.123 126.077 234.751 126.278C234.7 126.316 234.64 126.336 234.577 126.336Z" fill="#263238"/>
<path d="M255.38 131.637C254.368 136.899 253.866 146.551 257.491 150.059C257.491 150.059 256.074 155.409 246.444 155.409C235.84 155.409 241.392 150.059 241.392 150.059C247.176 148.658 247.012 144.307 246.01 140.26L255.38 131.637Z" fill="#E56D00"/>
<path d="M254.496 124.661C255.508 131.726 256.424 135.812 253.715 140.133C249.599 146.63 240.47 145.229 237.404 138.605C234.637 132.647 233.452 122.084 239.602 117.88C240.958 116.96 242.522 116.406 244.146 116.267C245.771 116.129 247.403 116.412 248.891 117.089C250.379 117.767 251.673 118.816 252.654 120.141C253.634 121.465 254.267 123.02 254.496 124.661Z" fill="#E56D00"/>
<path d="M261.472 120.427C265.164 113.568 256.701 110.432 253.568 111.118C252.865 109.74 251.767 108.612 250.419 107.884C249.07 107.156 247.536 106.862 246.019 107.042C242.231 107.375 240.534 109.306 239.628 111.775C237.507 110.628 231.183 112.363 232.08 117.576C232.88 122.23 237.864 123.651 240.399 123.916C242.327 131.843 247.427 141.74 254.252 138.203C256.488 137.037 258.426 134.117 259.699 130.364C265.097 128.737 263.931 122.564 261.472 120.427Z" fill="#263238"/>
<path d="M245.607 128.648C245.568 130.431 244.955 132.152 243.862 133.548C242.406 135.351 240.748 134.361 240.363 132.274C240.016 130.392 240.363 127.188 242.194 126.139C244.026 125.091 245.616 126.512 245.607 128.648Z" fill="#E56D00"/>
<path d="M258.961 151.569C261.004 152.608 260.821 149.315 259.028 146.621C257.9 144.935 246.323 146.454 242.785 147.836C242.317 147.986 241.883 148.229 241.508 148.551C241.134 148.873 240.826 149.267 240.602 149.711C240.379 150.155 240.245 150.64 240.207 151.137C240.17 151.635 240.23 152.135 240.384 152.608L258.961 151.569Z" fill="#00CCA7"/>
<path opacity="0.8" d="M258.961 151.569C261.004 152.608 260.821 149.315 259.028 146.621C257.9 144.935 246.323 146.454 242.785 147.836C242.317 147.986 241.883 148.229 241.508 148.551C241.134 148.873 240.826 149.267 240.602 149.711C240.379 150.155 240.245 150.64 240.207 151.137C240.17 151.635 240.23 152.135 240.384 152.608L258.961 151.569Z" fill="black"/>
<path d="M273.305 164.788C272.678 166.199 272.09 167.424 271.377 168.708C270.663 169.991 270.066 171.216 269.372 172.451C267.974 174.92 266.48 177.351 264.86 179.692C263.228 182.081 261.461 184.371 259.568 186.552C257.603 188.858 255.413 190.956 253.032 192.813C250.691 194.533 248.236 196.089 245.686 197.468C243.247 198.81 240.799 200.045 238.331 201.231C233.395 203.592 228.411 205.699 223.283 207.59L220.979 202.691L234.475 194.077C236.702 192.627 238.9 191.138 241.049 189.697C243.109 188.306 245.091 186.802 246.988 185.19C248.724 183.566 250.314 181.789 251.74 179.879C253.244 177.919 254.677 175.845 256.04 173.656C257.389 171.481 258.7 169.257 259.953 166.993C260.59 165.856 261.207 164.72 261.804 163.573L263.511 160.183L273.305 164.788Z" fill="#E56D00"/>
<path d="M275.462 156.027C278.354 162.308 269.109 182.141 269.109 182.141L253.319 174.694C255.037 169.065 257.184 163.581 259.739 158.291C263.865 149.971 272.532 149.609 275.462 156.027Z" fill="#00CCA7"/>
<path opacity="0.6" d="M275.462 156.027C278.354 162.308 269.109 182.141 269.109 182.141L253.319 174.694C255.037 169.065 257.184 163.581 259.739 158.291C263.865 149.971 272.532 149.609 275.462 156.027Z" fill="black"/>
<path d="M282.604 348.665C282.305 348.706 282.001 348.685 281.709 348.604C281.418 348.524 281.145 348.385 280.908 348.195C280.824 348.077 280.779 347.934 280.779 347.788C280.779 347.643 280.824 347.5 280.908 347.382C280.963 347.28 281.039 347.192 281.13 347.123C281.222 347.053 281.327 347.005 281.438 346.98C282.47 346.745 284.426 348.097 284.513 348.156C284.538 348.177 284.557 348.204 284.569 348.235C284.581 348.266 284.585 348.3 284.581 348.332C284.574 348.364 284.559 348.392 284.536 348.415C284.514 348.437 284.486 348.453 284.455 348.46C283.847 348.593 283.227 348.662 282.604 348.665ZM281.718 347.294H281.515C281.45 347.307 281.388 347.336 281.335 347.376C281.282 347.417 281.238 347.469 281.207 347.529C281.052 347.803 281.139 347.921 281.207 347.96C281.515 348.372 282.961 348.372 284.012 348.195C283.322 347.729 282.538 347.427 281.718 347.313V347.294Z" fill="#00CCA7"/>
<path d="M284.377 348.489H284.29C283.557 348.078 282.14 346.53 282.294 345.707C282.319 345.581 282.385 345.468 282.481 345.386C282.578 345.304 282.699 345.258 282.825 345.256C282.952 345.242 283.08 345.254 283.203 345.291C283.325 345.328 283.439 345.389 283.538 345.471C284.367 346.157 284.502 348.235 284.502 348.323C284.506 348.354 284.501 348.385 284.487 348.413C284.473 348.441 284.452 348.464 284.425 348.48L284.377 348.489ZM282.94 345.55H282.873C282.651 345.55 282.632 345.687 282.622 345.726C282.535 346.197 283.442 347.392 284.165 347.95C284.136 347.15 283.875 346.376 283.413 345.726C283.355 345.671 283.286 345.629 283.212 345.602C283.137 345.575 283.058 345.564 282.979 345.569L282.94 345.55Z" fill="#00CCA7"/>
<path d="M292.584 348.313H285.508L278.982 331.645H286.057L292.584 348.313Z" fill="#E56D00"/>
<path d="M284.949 347.48H292.902C293.044 347.479 293.181 347.529 293.29 347.62C293.399 347.711 293.473 347.838 293.5 347.979L294.907 354.378C294.939 354.534 294.936 354.695 294.899 354.849C294.861 355.004 294.789 355.148 294.689 355.27C294.589 355.393 294.463 355.49 294.321 355.557C294.178 355.623 294.023 355.655 293.866 355.652C291.09 355.603 289.74 355.436 286.241 355.436C284.091 355.436 279.657 355.671 276.678 355.671C273.699 355.671 273.323 352.732 274.538 352.408C279.994 351.193 282.048 349.518 283.793 347.93C284.109 347.639 284.522 347.478 284.949 347.48Z" fill="#263238"/>
<path d="M286.067 331.654H278.982L283.676 343.629L290.232 342.276L286.067 331.654Z" fill="#CE6F64"/>
<path d="M246.668 214.283C246.668 214.283 245.251 243.445 240.007 269.157C238.349 277.3 239.438 286.021 244.133 292.832C257.927 312.832 279.801 339.465 279.801 339.465L291.263 338.162C291.263 338.162 272.667 303.16 263.172 285.786C261.012 281.867 259.104 278.28 260.733 274.028C276.475 233.411 267.963 214.254 267.963 214.254L246.668 214.283Z" fill="#00CCA7"/>
<path opacity="0.5" d="M246.668 214.283C246.668 214.283 245.251 243.445 240.007 269.157C238.349 277.3 239.438 286.021 244.133 292.832C257.927 312.832 279.801 339.465 279.801 339.465L291.263 338.162C291.263 338.162 272.667 303.16 263.172 285.786C261.012 281.867 259.104 278.28 260.733 274.028C276.475 233.411 267.963 214.254 267.963 214.254L246.668 214.283Z" fill="black"/>
<path d="M222.614 201.906L217.428 201.083L219.298 210.078C219.298 210.078 223.269 209.579 224.956 206.541L222.614 201.906Z" fill="#E56D00"/>
<path d="M211.236 201.955L213.116 209.314L219.295 210.078L217.425 201.083L211.236 201.955Z" fill="#E56D00"/>
<path d="M236.807 162.112C234.58 166.59 232.247 170.931 229.818 175.331C227.389 179.731 224.873 183.993 222.212 188.256L221.248 189.853L220.554 190.833L219.831 191.813C218.904 192.934 217.895 193.982 216.814 194.949C214.836 196.722 212.728 198.34 210.509 199.789C206.263 202.602 201.778 205.026 197.109 207.031L194.487 202.327C198.247 199.388 202.055 196.291 205.535 193.146C207.225 191.631 208.834 190.025 210.355 188.334C211.048 187.574 211.692 186.769 212.283 185.924L212.63 185.355L212.919 184.816L213.767 183.2C218.279 174.537 222.713 165.689 227.35 157.046L236.807 162.112Z" fill="#E56D00"/>
<path opacity="0.3" d="M267.028 157.31L270.595 178.819C269.746 180.847 269.149 182.141 269.149 182.141L253.358 174.694C253.358 174.694 260.453 162.161 267.028 157.31Z" fill="black"/>
<path d="M227.443 164.807L233.295 179.506L227.443 188.159C226.865 180.386 226.865 172.58 227.443 164.807Z" fill="#1F2D43"/>
<path d="M196.163 202.072L188.75 201.151L189.039 209.872C189.039 209.872 194.871 210.391 198.014 206.501L196.163 202.072Z" fill="#E56D00"/>
<path d="M181.375 203.218L184.325 210.293L189.039 209.872L188.75 201.151L181.375 203.218Z" fill="#E56D00"/>
<path opacity="0.1" d="M244.539 239.485L255.509 226.177C255.924 232.145 252.376 254.467 240.211 268.186C242.148 258.514 243.546 248.314 244.539 239.485Z" fill="black"/>
<path d="M235.408 348.313H228.322L226.259 331.645H233.335L235.408 348.313Z" fill="#E56D00"/>
<path d="M225.229 348.666C224.323 348.666 223.446 348.538 223.156 348.127C223.081 348.018 223.04 347.888 223.04 347.755C223.04 347.621 223.081 347.491 223.156 347.382C223.213 347.282 223.289 347.194 223.38 347.125C223.472 347.056 223.576 347.007 223.687 346.98C224.872 346.657 227.34 348.088 227.446 348.146C227.475 348.165 227.499 348.191 227.514 348.222C227.53 348.253 227.536 348.288 227.533 348.323C227.527 348.357 227.511 348.389 227.487 348.414C227.463 348.438 227.432 348.454 227.398 348.46C226.683 348.596 225.957 348.665 225.229 348.666ZM224.111 347.274C224.002 347.259 223.892 347.259 223.783 347.274C223.715 347.288 223.651 347.316 223.594 347.356C223.538 347.397 223.49 347.449 223.455 347.51C223.339 347.725 223.388 347.823 223.455 347.882C223.773 348.333 225.566 348.362 226.887 348.176C226.027 347.701 225.084 347.402 224.111 347.294V347.274Z" fill="#00CCA7"/>
<path d="M227.379 348.489H227.301C226.453 348.107 224.756 346.529 224.891 345.735C224.891 345.539 225.046 345.304 225.508 345.255C225.68 345.231 225.856 345.244 226.022 345.295C226.188 345.346 226.342 345.432 226.472 345.549C227.369 346.294 227.562 348.234 227.571 348.322C227.572 348.352 227.567 348.381 227.555 348.408C227.544 348.436 227.526 348.46 227.504 348.479C227.464 348.497 227.42 348.501 227.379 348.489ZM225.643 345.549H225.576C225.277 345.549 225.258 345.706 225.248 345.745C225.171 346.235 226.318 347.46 227.176 347.989C227.085 347.168 226.749 346.395 226.212 345.774C226.052 345.64 225.851 345.567 225.643 345.569V345.549Z" fill="#00CCA7"/>
<path d="M228.131 347.479H235.843C235.985 347.479 236.121 347.529 236.231 347.62C236.34 347.711 236.414 347.838 236.441 347.979L237.839 354.378C237.874 354.532 237.874 354.692 237.839 354.846C237.805 354.999 237.736 355.143 237.638 355.266C237.541 355.389 237.417 355.487 237.276 355.554C237.136 355.621 236.982 355.654 236.827 355.652C234.031 355.603 230.001 355.436 226.492 355.436C222.395 355.436 218.858 355.671 214.047 355.671C211.155 355.671 210.336 352.732 211.55 352.408C217.093 351.174 221.615 351.046 226.406 348.048C226.915 347.694 227.514 347.496 228.131 347.479Z" fill="#263238"/>
<path d="M233.338 331.654H226.252L227.775 343.795L234.726 342.707L233.338 331.654Z" fill="#CE6F64"/>
<path d="M276.57 337.69L278.816 342.413L292.63 338.807L291.531 334.427L276.57 337.69Z" fill="#00CCA7"/>
<path d="M230.076 214.282C230.076 214.282 224.147 234.429 214.353 260.338C211.162 268.765 209.928 276.878 212.146 284.012C219.019 306.158 224.957 339.464 224.957 339.464L236.766 338.161C236.766 338.161 237.219 304.188 233.035 286.677C230.886 277.692 231.618 274.419 233.816 271.45C263.903 230.774 255.824 214.312 255.824 214.312L230.076 214.282Z" fill="#00CCA7"/>
<path opacity="0.5" d="M230.076 214.282C230.076 214.282 224.147 234.429 214.353 260.338C211.162 268.765 209.928 276.878 212.146 284.012C219.019 306.158 224.957 339.464 224.957 339.464L236.766 338.161C236.766 338.161 237.219 304.188 233.035 286.677C230.886 277.692 231.618 274.419 233.816 271.45C263.903 230.774 255.824 214.312 255.824 214.312L230.076 214.282Z" fill="#263238"/>
<path d="M222.915 337.427L223.532 342.209L237.472 339.808L237.886 335.438L222.915 337.427Z" fill="#00CCA7"/>
<path d="M230.504 152.06C230.504 152.06 222.965 160.722 230.08 214.283H267.994C268.254 208.404 264.6 179.546 270.211 151.687C266.024 150.868 261.79 150.325 257.534 150.061C252.172 149.747 246.797 149.747 241.435 150.061C237.746 150.441 234.092 151.109 230.504 152.06Z" fill="#00CCA7"/>
<path opacity="0.6" d="M230.504 152.06C230.504 152.06 222.965 160.722 230.08 214.283H267.994C268.254 208.404 264.6 179.546 270.211 151.687C266.024 150.868 261.79 150.325 257.534 150.061C252.172 149.747 246.797 149.747 241.435 150.061C237.746 150.441 234.092 151.109 230.504 152.06Z" fill="#00856D"/>
<path d="M239.716 156.811C242.049 163.278 232.679 182.896 232.679 182.896L215.713 174.243C217.886 168.363 220.672 162.736 224.022 157.458C229.093 149.873 237.142 149.746 239.716 156.811Z" fill="#00CCA7"/>
<path d="M239.716 156.811C242.049 163.278 232.679 182.896 232.679 182.896L215.713 174.243C217.886 168.363 220.672 162.736 224.022 157.458C229.093 149.873 237.142 149.746 239.716 156.811Z" fill="#00CCA7"/>
<path opacity="0.6" d="M239.716 156.811C242.049 163.278 232.679 182.896 232.679 182.896L215.713 174.243C217.886 168.363 220.672 162.736 224.022 157.458C229.093 149.873 237.142 149.746 239.716 156.811Z" fill="#00CCA7"/>
</svg>
