<svg width="525" height="393" viewBox="0 0 525 393" fill="none" xmlns="http://www.w3.org/2000/svg">
<path d="M524.341 344.96H0V345.222H524.341V344.96Z" fill="#EBEBEB"/>
<path d="M471.803 361.87H437.071V362.132H471.803V361.87Z" fill="#EBEBEB"/>
<path d="M347.344 364.729H338.23V364.991H347.344V364.729Z" fill="#EBEBEB"/>
<path d="M436.018 352.117H415.894V352.379H436.018V352.117Z" fill="#EBEBEB"/>
<path d="M100.308 353.882H55.0151V354.144H100.308V353.882Z" fill="#EBEBEB"/>
<path d="M116.287 353.882H109.648V354.144H116.287V353.882Z" fill="#EBEBEB"/>
<path d="M236.112 358.318H137.872V358.58H236.112V358.318Z" fill="#EBEBEB"/>
<path d="M248.538 298.087H46.0477C44.4614 298.084 42.941 297.45 41.8203 296.325C40.6996 295.2 40.0702 293.675 40.0702 292.086V6.82152C40.084 5.24089 40.7195 3.72955 41.8387 2.61578C42.9579 1.50201 44.4704 0.875755 46.0477 0.873047H248.538C250.126 0.873047 251.649 1.5053 252.772 2.63071C253.895 3.75612 254.525 5.2825 254.525 6.87407V292.086C254.525 293.677 253.895 295.204 252.772 296.329C251.649 297.454 250.126 298.087 248.538 298.087ZM46.0477 1.08324C44.5309 1.08603 43.0772 1.69182 42.0057 2.76765C40.9342 3.84349 40.3324 5.30146 40.3324 6.82152V292.086C40.3324 293.606 40.9342 295.064 42.0057 296.14C43.0772 297.215 44.5309 297.821 46.0477 297.824H248.538C250.055 297.821 251.51 297.216 252.583 296.14C253.656 295.065 254.261 293.607 254.263 292.086V6.82152C254.261 5.30049 253.656 3.84255 252.583 2.76701C251.51 1.69148 250.055 1.08602 248.538 1.08324H46.0477Z" fill="#EBEBEB"/>
<path d="M475.38 298.087H272.88C271.292 298.084 269.771 297.451 268.649 296.326C267.526 295.201 266.894 293.676 266.892 292.086V6.82152C266.908 5.23994 267.546 3.72861 268.667 2.61512C269.788 1.50164 271.301 0.875725 272.88 0.873047H475.38C476.955 0.878517 478.465 1.50599 479.582 2.61947C480.699 3.73295 481.333 5.24271 481.347 6.82152V292.086C481.347 293.674 480.719 295.197 479.6 296.322C478.482 297.446 476.964 298.081 475.38 298.087ZM272.88 1.08324C271.362 1.08602 269.907 1.69148 268.834 2.76701C267.761 3.84255 267.157 5.30049 267.154 6.82152V292.086C267.157 293.607 267.761 295.065 268.834 296.14C269.907 297.216 271.362 297.821 272.88 297.824H475.38C476.898 297.821 478.352 297.216 479.426 296.14C480.499 295.065 481.103 293.607 481.106 292.086V6.82152C481.103 5.30049 480.499 3.84255 479.426 2.76701C478.352 1.69148 476.898 1.08602 475.38 1.08324H272.88Z" fill="#EBEBEB"/>
<path d="M391.325 79.7063H376.465V126.064H391.325V79.7063Z" fill="#E6E6E6"/>
<path d="M431.607 126.064H382.298L374.852 71.803H424.161L431.607 126.064Z" fill="#F0F0F0"/>
<path d="M436.945 126.064H386.021L378.575 71.803H429.499L436.945 126.064Z" fill="#F5F5F5"/>
<path d="M389.701 121.787L383.43 76.0806H425.817L432.099 121.787H389.701Z" fill="white"/>
<path d="M398.076 107.946L395.717 90.7938C395.647 90.3412 395.676 89.8786 395.802 89.4384C395.929 88.9981 396.149 88.5908 396.449 88.2447C396.748 87.8986 397.119 87.622 397.536 87.4342C397.953 87.2465 398.406 87.152 398.863 87.1574H414.268C415.039 87.1515 415.786 87.4298 416.366 87.9394C416.946 88.449 417.319 89.1544 417.414 89.9215L419.763 107.084C419.832 107.536 419.801 107.997 419.674 108.436C419.547 108.875 419.326 109.281 419.027 109.626C418.728 109.971 418.357 110.247 417.941 110.434C417.525 110.621 417.073 110.715 416.617 110.71H401.233C400.46 110.718 399.711 110.441 399.129 109.932C398.546 109.422 398.172 108.715 398.076 107.946Z" fill="#F5F5F5"/>
<path d="M298.821 28.9128H76.7209V166.222H298.821V28.9128Z" fill="#E6E6E6"/>
<path d="M304.527 28.9128H79.3853V166.222H304.527V28.9128Z" fill="#F0F0F0"/>
<path d="M298.821 166.232H76.7209V176.858H298.821V166.232Z" fill="#E6E6E6"/>
<path d="M314.026 166.232H88.8843V176.858H314.026V166.232Z" fill="#F0F0F0"/>
<path d="M296.535 158.224V36.9214L87.3757 36.9214V158.224H296.535Z" fill="#FAFAFA"/>
<path d="M102.727 158.224L149.614 36.9214H171.741L124.854 158.224H102.727Z" fill="white"/>
<path d="M129.618 158.224L176.505 36.9214H185.125L138.239 158.224H129.618Z" fill="white"/>
<path d="M211.645 158.224L258.531 36.9214H267.151L220.275 158.224H211.645Z" fill="white"/>
<path d="M296.527 158.224V36.9214H295.51V158.224H296.527Z" fill="#E6E6E6"/>
<path d="M467.187 126.064H420.164V344.96H467.187V126.064Z" fill="#E6E6E6"/>
<path d="M462.456 344.96H467.186V331.476H457.496L462.456 344.96Z" fill="#F0F0F0"/>
<path d="M384.796 126.064H337.773V344.96H384.796V126.064Z" fill="#E6E6E6"/>
<path d="M467.183 126.064H380.656V336.689H467.183V126.064Z" fill="#F0F0F0"/>
<path d="M385.386 344.96H380.656V331.476H390.346L385.386 344.96Z" fill="#F0F0F0"/>
<path d="M463.514 129.921H384.328V229.28H463.514V129.921Z" fill="#E6E6E6"/>
<path d="M432.496 137.656H415.35C411.664 137.656 408.017 136.903 404.631 135.443C401.245 133.983 398.191 131.847 395.656 129.165H452.191C449.657 131.848 446.604 133.986 443.217 135.446C439.831 136.906 436.183 137.658 432.496 137.656Z" fill="#F0F0F0"/>
<path d="M463.514 233.305H384.328V332.664H463.514V233.305Z" fill="#E6E6E6"/>
<path d="M432.496 241.04H415.35C411.664 241.04 408.017 240.287 404.631 238.827C401.245 237.367 398.191 235.23 395.656 232.548H452.191C449.657 235.232 446.604 237.369 443.217 238.829C439.831 240.289 436.183 241.042 432.496 241.04Z" fill="#F0F0F0"/>
<path d="M135.802 195.187H214.055L225.401 241.502H147.138L135.802 195.187Z" fill="#E6E6E6"/>
<path d="M147.141 241.502L147.466 244.056H225.719L225.404 241.502H147.141Z" fill="#E6E6E6"/>
<path d="M138.215 195.187H216.467L227.814 241.502H149.551L138.215 195.187Z" fill="#F0F0F0"/>
<path d="M151.209 239.38L140.901 197.299H214.812L225.12 239.38H151.209Z" fill="white"/>
<path d="M169.949 241.502L170.264 244.056H256.434L256.119 241.502H169.949Z" fill="#F0F0F0"/>
<path d="M276.098 244.056H266.722V344.949H276.098V244.056Z" fill="#E6E6E6"/>
<path d="M279.067 244.056H272.555V344.949H279.067V244.056Z" fill="#F0F0F0"/>
<path d="M160.272 255.607L281.09 255.607V244.056H160.272V255.607Z" fill="#F0F0F0"/>
<path d="M156.065 255.607H146.69V344.949H156.065V255.607Z" fill="#E6E6E6"/>
<path d="M159.021 255.607H152.509V344.949H159.021V255.607Z" fill="#F0F0F0"/>
<path d="M96.719 255.607H87.3438V344.949H96.719V255.607Z" fill="#E6E6E6"/>
<path d="M99.6883 255.607H93.176V344.949H99.6883V255.607Z" fill="#F0F0F0"/>
<path d="M216.766 255.607H207.391V344.949H216.766V255.607Z" fill="#E6E6E6"/>
<path d="M219.719 255.607H213.207V344.949H219.719V255.607Z" fill="#F0F0F0"/>
<path d="M160.259 244.056H87.3438V255.607H160.259V244.056Z" fill="#E6E6E6"/>
<path d="M306.569 344.96H304.294L297.823 312.758L296.68 307.115L289.507 272.023H262.242L247.487 344.96H245.18L260.239 270.678C260.286 270.431 260.416 270.209 260.607 270.046C260.797 269.884 261.037 269.792 261.287 269.784H290.483C290.736 269.781 290.981 269.87 291.174 270.034C291.366 270.199 291.493 270.427 291.531 270.678L297.823 301.492L298.872 307.125L306.569 344.96Z" fill="#F0F0F0"/>
<path d="M350.357 344.96H348.071L333.284 272.023H306.019L298.877 307.125L297.828 312.758L291.295 344.96H289.02L296.685 307.125L297.818 301.502L304.11 270.688C304.159 270.443 304.29 270.221 304.48 270.059C304.67 269.897 304.909 269.804 305.159 269.795H334.26C334.51 269.802 334.75 269.895 334.94 270.057C335.131 270.22 335.261 270.442 335.308 270.688L350.357 344.96Z" fill="#F0F0F0"/>
<path d="M283.145 270.898H333.251C342.814 270.898 348.121 264.382 350.826 253.641L352.148 247.504C352.594 245.647 352.614 243.714 352.205 241.848C351.797 239.983 350.972 238.235 349.791 236.737C348.611 235.238 347.106 234.027 345.391 233.196C343.675 232.365 341.794 231.935 339.889 231.939H308.428C301.926 231.939 300.207 233.494 295.708 243.31C291.209 253.126 283.145 270.898 283.145 270.898Z" fill="#F0F0F0"/>
<path d="M310.465 270.898H257.066C256.401 270.898 255.764 270.634 255.294 270.163C254.824 269.691 254.56 269.053 254.56 268.386V268.155C254.56 267.253 254.737 266.359 255.082 265.525C255.426 264.691 255.932 263.933 256.568 263.295C257.205 262.657 257.961 262.15 258.793 261.805C259.626 261.46 260.517 261.282 261.418 261.282H310.465V270.909V270.898Z" fill="#F0F0F0"/>
<path d="M262.17 392.421C374.465 392.421 465.499 387.095 465.499 380.525C465.499 373.954 374.465 368.628 262.17 368.628C149.875 368.628 58.8413 373.954 58.8413 380.525C58.8413 387.095 149.875 392.421 262.17 392.421Z" fill="#F5F5F5"/>
<path d="M212.913 346.904L206.201 351.234L194.036 337.056L200.748 332.727L212.913 346.904Z" fill="#FF8B7B"/>
<path opacity="0.2" d="M200.759 332.727L194.036 337.057L200.318 344.371L207.03 340.031L200.759 332.727Z" fill="black"/>
<path d="M161.623 370.025L153.904 370.782L145.882 352.39L153.6 351.634L161.623 370.025Z" fill="#FF8B7B"/>
<path opacity="0.2" d="M145.891 352.401L150.022 361.88H158.066L153.599 351.644L145.891 352.401Z" fill="black"/>
<path d="M103.012 121.734C99.1316 122.081 99.0267 115.481 92.2103 118.582C83.5482 122.533 86.474 128.66 79.71 128.408C72.946 128.156 68.4157 133.442 69.9258 137.383C71.4359 141.324 73.7745 145.055 68.9925 146.642C64.2105 148.229 60.9596 149.627 61.6517 153.6C62.3439 157.572 65.7311 159.17 60.0263 161.703C54.3215 164.235 54.8982 175.186 60.4877 175.197C66.0772 175.207 60.7184 180.662 65.7311 186.211C70.7438 191.76 78.3677 192.517 81.5452 189.784C84.7227 187.052 88.2673 184.792 94.2447 188.996C100.222 193.2 110.342 194.251 109.881 187.588C109.419 180.925 103.588 176.553 109.084 173.085C114.579 169.616 121.668 167.903 119.445 161.156C118.029 156.952 113.75 153.295 117.2 150.153C122.811 145.045 122.842 133.484 115.963 130.552C111.967 128.86 115.816 120.578 103.012 121.734Z" fill="#263238"/>
<path d="M95.5465 173.673C95.3577 176.826 94.9592 179.632 94.4978 182.585C94.0364 185.539 93.3652 188.418 92.5997 191.308C91.8534 194.23 90.9038 197.096 89.7577 199.884C89.1915 201.292 88.5413 202.69 87.8491 204.088C87.5031 204.782 87.1256 205.465 86.7375 206.137C86.5593 206.484 86.339 206.82 86.1398 207.188L85.8357 207.682C85.6292 208.011 85.3978 208.324 85.1435 208.618C84.5619 209.276 83.8469 209.803 83.0462 210.163C82.3309 210.487 81.5641 210.683 80.781 210.741C79.6293 210.807 78.4757 210.65 77.3833 210.278C75.7566 209.718 74.2064 208.955 72.7691 208.008C70.2379 206.349 67.8429 204.49 65.6066 202.448C61.2954 198.518 57.2753 194.279 53.5782 189.763L56.5565 186.894C58.6539 188.744 60.7512 190.625 62.943 192.412C65.1347 194.198 67.274 195.996 69.5077 197.667C71.6343 199.307 73.8775 200.789 76.2193 202.102C77.2093 202.664 78.2664 203.098 79.3653 203.394C79.6297 203.476 79.9085 203.502 80.1833 203.468H79.9736C79.835 203.536 79.7076 203.624 79.596 203.731L79.5436 203.783C79.5436 203.783 79.5436 203.857 79.5436 203.783L79.7743 203.352C79.9211 203.069 80.0889 202.795 80.2252 202.501C80.5189 201.92 80.802 201.331 81.0747 200.735C81.599 199.537 82.1233 198.318 82.5428 197.047C83.4237 194.524 84.1578 191.918 84.808 189.269C85.4582 186.621 85.951 183.92 86.3915 181.198C86.8319 178.476 87.1675 175.691 87.4402 173.106L95.5465 173.673Z" fill="#FF8B7B"/>
<path d="M101.642 174.661C101.222 177.204 99.1145 182.018 97.4471 185.591C96.2096 188.176 95.2029 190.121 95.2029 190.121L93.7347 189.469L81.5805 184.046C82.5033 177.478 84.003 170.384 91.2284 167.157C95.7377 165.16 102.386 170.079 101.642 174.661Z" fill="#00CCA7"/>
<path opacity="0.6" d="M101.642 174.661C101.222 177.204 99.1145 182.018 97.4471 185.591C96.2096 188.176 95.2029 190.121 95.2029 190.121L93.7347 189.469L81.5805 184.046C82.5033 177.478 84.003 170.384 91.2284 167.157C95.7377 165.16 102.386 170.079 101.642 174.661Z" fill="black"/>
<path opacity="0.3" d="M97.4128 185.591C96.1754 188.176 95.1687 190.121 95.1687 190.121L93.7005 189.469C93.8997 186.873 94.4136 182.785 95.7979 180.946C96.6625 182.36 97.2133 183.944 97.4128 185.591Z" fill="black"/>
<path d="M57.0204 189.301L57.9852 182.228L50.0677 184.792C50.0677 184.792 51.3261 189.07 54.1471 190.825L57.0204 189.301Z" fill="#FF8B7B"/>
<path d="M54.3965 176.185L48.87 179.222L50.0655 184.834L57.983 182.228L54.3965 176.185Z" fill="#FF8B7B"/>
<path d="M203.729 349.111L211.017 343.856C211.142 343.765 211.296 343.722 211.45 343.735C211.604 343.749 211.749 343.818 211.856 343.93L216.816 349.111C216.937 349.245 217.028 349.404 217.083 349.576C217.138 349.748 217.156 349.93 217.136 350.109C217.117 350.289 217.059 350.462 216.968 350.618C216.876 350.774 216.753 350.909 216.606 351.013C214.037 352.8 212.705 353.525 209.496 355.827C207.525 357.246 203.372 360.672 200.645 362.627C197.919 364.581 195.853 361.996 196.807 360.935C201.107 356.184 202.25 352.947 202.932 350.278C203.055 349.808 203.336 349.396 203.729 349.111Z" fill="#263238"/>
<path d="M152.891 368.396H162.329C162.498 368.399 162.663 368.457 162.797 368.561C162.931 368.665 163.028 368.81 163.073 368.974L165.171 376.478C165.222 376.656 165.23 376.842 165.196 377.024C165.162 377.205 165.085 377.376 164.973 377.522C164.861 377.668 164.716 377.786 164.55 377.866C164.384 377.946 164.201 377.985 164.017 377.981C160.682 377.981 159.099 377.981 154.936 377.981H142.205C138.744 377.981 138.01 374.471 139.446 374.156C145.864 372.737 149.566 370.771 151.548 368.901C151.916 368.568 152.395 368.388 152.891 368.396Z" fill="#263238"/>
<path d="M138.48 203.142L107.575 212.937C86.1821 170.499 89.2337 168.25 89.2337 168.25C89.2337 168.25 94.173 165.423 99.3116 163.069C100.088 162.712 100.874 162.365 101.65 162.018C106.215 160.2 110.904 158.71 115.681 157.562C116.384 157.373 117.087 157.204 117.779 157.036C121.583 156.174 125.435 155.539 129.314 155.134C129.776 161.009 130.237 165.98 130.741 170.3C131.391 175.933 132.093 180.441 132.838 184.34C134.214 190.749 136.101 197.036 138.48 203.142Z" fill="#00CCA7"/>
<path opacity="0.6" d="M138.48 203.142L107.575 212.937C86.1821 170.499 89.2337 168.25 89.2337 168.25C89.2337 168.25 94.173 165.423 99.3116 163.069C100.088 162.712 100.874 162.365 101.65 162.018C106.215 160.2 110.904 158.71 115.681 157.562C116.384 157.373 117.087 157.204 117.779 157.036C121.583 156.174 125.435 155.539 129.314 155.134C129.776 161.009 130.237 165.98 130.741 170.3C131.391 175.933 132.093 180.441 132.838 184.34C134.214 190.749 136.101 197.036 138.48 203.142Z" fill="black"/>
<path opacity="0.3" d="M132.919 184.361C129.951 180.158 127.109 170.373 127.843 166.705L130.779 170.321C131.429 175.954 132.132 180.462 132.919 184.361Z" fill="black"/>
<path d="M108.676 176.174C108.676 176.174 116.468 174.482 118.974 177.877C122.414 174.482 121.197 161.219 119.54 156.49C118.226 156.713 116.937 157.065 115.692 157.541L110.186 166.075L108.676 176.174Z" fill="white"/>
<path d="M108.679 176.174C108.679 176.174 103.435 177.351 102.88 181.65C95.5388 176.174 96.0526 168.155 97.7096 163.426C98.9674 162.816 100.29 162.35 101.653 162.039L107.158 168.113L108.679 176.174Z" fill="white"/>
<path d="M110.471 148.629C111.52 152.496 113.114 156.322 115.714 157.583C115.714 157.583 118.137 164.54 108.699 176.174C98.82 169.122 101.672 162.039 101.672 162.039C106.329 159.233 105.018 155.533 103.036 152.296L105.773 147.893C106.045 147.469 106.435 147.133 106.894 146.926C107.354 146.72 107.863 146.651 108.361 146.729C108.858 146.807 109.322 147.028 109.697 147.365C110.071 147.702 110.34 148.141 110.471 148.629Z" fill="#FF8B7B"/>
<path opacity="0.2" d="M110.468 148.629C110.342 148.133 110.074 147.685 109.697 147.341C109.32 146.997 108.85 146.772 108.346 146.694C107.841 146.615 107.326 146.687 106.862 146.9C106.398 147.114 106.007 147.459 105.738 147.893L104.857 149.301C104.931 150.237 104.973 151.004 104.962 151.403C104.878 154.136 108.706 154.009 111.82 152.696C111.265 151.377 110.813 150.017 110.468 148.629Z" fill="black"/>
<path d="M91.4986 138.066C94.2252 145.518 95.211 148.734 100.203 151.487C107.701 155.638 116.237 150.657 115.797 142.533C115.398 135.229 111.015 124.257 102.699 123.448C100.866 123.262 99.0155 123.548 97.324 124.28C95.6324 125.012 94.1556 126.165 93.0336 127.629C91.9116 129.094 91.1816 130.821 90.913 132.648C90.6443 134.475 90.8459 136.34 91.4986 138.066Z" fill="#FF8B7B"/>
<path d="M110.783 126.863C108.224 124.393 105.54 121.524 100.401 122.081C94.7173 122.701 92.4732 126.149 92.4732 126.149L87.5863 136.858C87.5863 136.858 90.617 150.646 95.6192 144.214C98.5031 140.494 98.5765 134.871 97.5278 130.668C99.493 130.39 101.43 129.94 103.317 129.322C105.624 130.184 108.214 130.184 110.133 128.419C110.552 128.03 110.857 127.725 111.077 127.483L111.255 127.284C111.821 126.558 111.349 126.632 110.783 126.863ZM104.176 129.091C105.968 128.511 107.788 128.023 109.63 127.63C108.945 128.356 108.072 128.877 107.11 129.135C106.147 129.393 105.131 129.378 104.176 129.091Z" fill="#263238"/>
<path d="M91.879 145.644C92.6664 146.967 93.9447 147.923 95.434 148.303C97.4055 148.797 98.3389 147.021 97.7411 145.15C97.2063 143.5 95.5389 141.251 93.5464 141.566C93.1156 141.645 92.7116 141.831 92.3715 142.108C92.0313 142.384 91.766 142.742 91.6 143.148C91.4339 143.554 91.3724 143.996 91.4212 144.432C91.47 144.868 91.6274 145.285 91.879 145.644Z" fill="#FF8B7B"/>
<path d="M107.573 212.948C107.573 212.948 106.524 276.416 114.799 299.348C122.769 321.334 146.542 359.127 146.542 359.127L160.322 358.78C160.322 358.78 138.425 310.908 134.849 291.991C128.893 260.598 130.204 205.812 130.204 205.812L107.573 212.948Z" fill="#00CCA7"/>
<path opacity="0.3" d="M119.95 218.423L123.652 207.913L130.206 205.812C130.206 205.812 129.608 230.751 131.045 256.615C125.099 245.139 119.95 224.119 119.95 218.423Z" fill="black"/>
<path d="M144.603 359.842L161.623 359.411L160.637 354.166L142.055 355.049L144.603 359.842Z" fill="#263238"/>
<path d="M114.308 210.898C114.308 210.898 135.806 260.178 149.701 288.228C160.922 310.887 195.843 341.281 195.843 341.281L205.418 334.629C205.418 334.629 179.138 298.622 171.388 283.257C146.587 234.093 152.701 213.83 138.439 203.142L114.308 210.898Z" fill="#00CCA7"/>
<path d="M196.408 344.455L207.649 336.436L205.101 331.518L192.748 340.882L196.408 344.455Z" fill="#263238"/>
<path d="M138.424 201.177L140.69 203.51C140.868 203.689 140.69 203.993 140.323 204.109L107.908 214.377C107.635 214.472 107.363 214.377 107.289 214.24L106.136 211.55C106.052 211.371 106.24 211.13 106.545 211.035L137.848 201.103C137.942 201.064 138.045 201.051 138.146 201.064C138.247 201.076 138.343 201.115 138.424 201.177Z" fill="#263238"/>
<path d="M135.281 206.022L136.12 205.759C136.287 205.759 136.392 205.57 136.34 205.475L134.819 201.997C134.774 201.94 134.712 201.9 134.641 201.883C134.571 201.865 134.497 201.872 134.431 201.902L133.592 202.175C133.424 202.228 133.32 202.354 133.372 202.459L134.903 205.927C134.935 206.032 135.102 206.074 135.281 206.022Z" fill="#00CCA7"/>
<path d="M110.314 213.936L111.152 213.673C111.32 213.62 111.415 213.494 111.373 213.389L109.842 209.911C109.842 209.805 109.621 209.774 109.454 209.826L108.615 210.089C108.457 210.142 108.352 210.268 108.394 210.373L109.925 213.852C109.973 213.905 110.036 213.942 110.106 213.957C110.176 213.972 110.248 213.965 110.314 213.936Z" fill="#00CCA7"/>
<path d="M122.792 210.016L123.631 209.753C123.799 209.7 123.903 209.574 123.851 209.469L122.32 205.991C122.32 205.896 122.11 205.854 121.942 205.906L121.103 206.169C120.936 206.169 120.831 206.348 120.883 206.453L122.404 209.932C122.456 210.016 122.624 210.016 122.792 210.016Z" fill="#00CCA7"/>
<path d="M104.546 136.448C104.735 137.068 105.207 137.499 105.595 137.352C105.983 137.205 106.172 136.627 105.983 136.017C105.794 135.407 105.333 134.966 104.934 135.113C104.536 135.26 104.368 135.807 104.546 136.448Z" fill="#263238"/>
<path d="M111.516 134.346C111.705 134.966 112.177 135.397 112.565 135.25C112.953 135.103 113.142 134.535 112.963 133.915C112.785 133.295 112.303 132.864 111.915 133.011C111.527 133.158 111.338 133.726 111.516 134.346Z" fill="#263238"/>
<path d="M111.748 133.095L113.101 132.223C113.101 132.223 112.692 133.61 111.748 133.095Z" fill="#263238"/>
<path d="M109.778 135.954C110.751 137.197 111.887 138.304 113.155 139.243C112.902 139.56 112.583 139.818 112.221 139.999C111.859 140.181 111.462 140.281 111.057 140.294L109.778 135.954Z" fill="#FF5652"/>
<path d="M108.98 143.7C109.009 143.676 109.03 143.645 109.041 143.609C109.053 143.574 109.053 143.536 109.043 143.5C109.028 143.453 108.996 143.412 108.954 143.387C108.911 143.362 108.861 143.353 108.812 143.363C108.05 143.613 107.24 143.677 106.449 143.551C105.658 143.425 104.908 143.112 104.261 142.638C104.241 142.622 104.219 142.609 104.195 142.601C104.171 142.593 104.145 142.59 104.12 142.592C104.095 142.594 104.07 142.601 104.047 142.613C104.025 142.624 104.005 142.64 103.988 142.659C103.972 142.679 103.959 142.701 103.951 142.725C103.943 142.749 103.94 142.775 103.942 142.8C103.944 142.826 103.951 142.85 103.962 142.873C103.974 142.896 103.99 142.916 104.009 142.932C104.705 143.448 105.513 143.789 106.366 143.928C107.22 144.067 108.094 143.999 108.917 143.731L108.98 143.7Z" fill="#263238"/>
<path d="M101.91 134.735C101.959 134.689 101.995 134.631 102.015 134.567C102.171 134.118 102.429 133.712 102.77 133.382C103.11 133.051 103.523 132.806 103.976 132.664C104.029 132.659 104.08 132.642 104.125 132.616C104.171 132.589 104.211 132.553 104.242 132.51C104.273 132.467 104.295 132.418 104.306 132.366C104.317 132.314 104.317 132.261 104.306 132.209C104.295 132.157 104.273 132.108 104.242 132.065C104.21 132.022 104.17 131.986 104.124 131.96C104.079 131.933 104.028 131.917 103.975 131.912C103.922 131.906 103.869 131.912 103.819 131.929C103.236 132.096 102.702 132.403 102.265 132.825C101.829 133.246 101.501 133.768 101.312 134.346C101.294 134.393 101.285 134.443 101.286 134.493C101.287 134.544 101.298 134.593 101.319 134.639C101.339 134.685 101.369 134.727 101.405 134.761C101.442 134.796 101.485 134.822 101.532 134.84C101.599 134.854 101.668 134.851 101.734 134.833C101.8 134.815 101.86 134.781 101.91 134.735Z" fill="#263238"/>
<path d="M113.648 130.384C113.645 130.359 113.645 130.335 113.648 130.31C113.661 130.212 113.638 130.112 113.581 130.031C113.525 129.949 113.441 129.891 113.344 129.869C112.757 129.743 112.148 129.76 111.568 129.917C110.988 130.074 110.454 130.368 110.01 130.773C109.94 130.845 109.902 130.942 109.904 131.043C109.906 131.143 109.948 131.239 110.02 131.308C110.092 131.378 110.189 131.416 110.29 131.414C110.39 131.412 110.485 131.37 110.555 131.298C110.91 130.983 111.335 130.756 111.794 130.638C112.254 130.519 112.735 130.511 113.198 130.615C113.288 130.637 113.383 130.626 113.466 130.583C113.549 130.541 113.613 130.47 113.648 130.384Z" fill="#263238"/>
<path d="M134.055 162.575C135.303 163.51 136.352 164.383 137.442 165.328C138.533 166.274 139.54 167.22 140.589 168.208C142.633 170.184 144.605 172.244 146.472 174.409C148.359 176.586 150.11 178.878 151.715 181.272C152.134 181.86 152.502 182.501 152.89 183.111C153.278 183.72 153.666 184.341 154.012 184.992C154.358 185.644 154.725 186.222 155.06 186.947L155.616 188.113L156.067 189.291C157.034 192.275 157.488 195.402 157.409 198.539C157.346 201.454 157.033 204.358 156.476 207.22C155.931 210.026 155.218 212.769 154.379 215.46C153.533 218.155 152.546 220.804 151.421 223.395L147.625 221.986C148.275 219.464 148.894 216.815 149.355 214.199C149.868 211.607 150.243 208.99 150.478 206.358C150.73 203.809 150.789 201.244 150.656 198.686C150.581 197.473 150.434 196.266 150.215 195.071C149.985 193.968 149.666 192.885 149.261 191.834L148.936 191.109L148.579 190.447C148.296 189.963 147.908 189.396 147.531 188.86C147.153 188.324 146.839 187.809 146.482 187.273C146.126 186.737 145.759 186.222 145.36 185.717C143.829 183.615 142.099 181.703 140.379 179.758C138.659 177.814 136.771 175.985 134.852 174.199C133.908 173.295 132.933 172.412 131.958 171.55C130.983 170.688 129.934 169.827 129.032 169.091L134.055 162.575Z" fill="#FF8B7B"/>
<path d="M148.83 219.474L143.083 223.678L150.424 227.567C150.424 227.567 152.616 223.678 151.913 220.431L148.83 219.474Z" fill="#FF8B7B"/>
<path d="M141.269 230.499L147.278 232.359L150.477 227.588L143.083 223.699L141.269 230.499Z" fill="#FF8B7B"/>
<path d="M129.358 155.155C133.374 154.976 141.271 164.866 141.271 164.866L133.07 176.49C133.07 176.49 123.863 169.133 123.15 164.015C122.552 159.653 124.24 155.365 129.358 155.155Z" fill="#00CCA7"/>
<path opacity="0.6" d="M129.358 155.155C133.374 154.976 141.271 164.866 141.271 164.866L133.07 176.49C133.07 176.49 123.863 169.133 123.15 164.015C122.552 159.653 124.24 155.365 129.358 155.155Z" fill="black"/>
<path d="M200.972 352.401H200.846C200.662 352.378 200.487 352.306 200.34 352.194C200.193 352.081 200.078 351.931 200.007 351.76C199.952 351.66 199.923 351.548 199.923 351.434C199.923 351.32 199.952 351.208 200.007 351.108C200.521 350.225 203.404 350.057 203.73 350.057C203.766 350.056 203.802 350.066 203.833 350.084C203.865 350.103 203.891 350.13 203.908 350.162C203.929 350.193 203.94 350.23 203.94 350.267C203.94 350.305 203.929 350.341 203.908 350.372C203.205 351.15 201.957 352.401 200.972 352.401ZM203.279 350.477C202.125 350.561 200.594 350.835 200.332 351.297C200.303 351.339 200.288 351.388 200.288 351.439C200.288 351.49 200.303 351.539 200.332 351.581C200.376 351.696 200.45 351.797 200.546 351.875C200.641 351.952 200.756 352.003 200.877 352.022C201.433 352.085 202.314 351.507 203.279 350.477Z" fill="#00CCA7"/>
<path d="M203.53 350.456C202.566 350.456 200.667 349.92 200.311 349.143C200.254 349.005 200.244 348.852 200.282 348.708C200.32 348.564 200.404 348.436 200.521 348.344C200.63 348.246 200.758 348.172 200.897 348.127C201.036 348.082 201.183 348.066 201.328 348.081C202.471 348.207 203.824 350.067 203.876 350.183C203.894 350.211 203.904 350.244 203.904 350.278C203.904 350.311 203.894 350.344 203.876 350.372C203.862 350.4 203.841 350.424 203.816 350.442C203.79 350.461 203.761 350.473 203.73 350.477L203.53 350.456ZM201.202 348.46C201.046 348.458 200.895 348.519 200.783 348.628C200.605 348.785 200.626 348.911 200.657 348.996C200.888 349.5 202.377 350.046 203.352 350.046C202.87 349.447 201.968 348.502 201.255 348.428L201.202 348.46Z" fill="#00CCA7"/>
<path d="M148.685 369.962C148.039 370.009 147.395 369.855 146.839 369.521C146.695 369.415 146.577 369.277 146.494 369.119C146.41 368.961 146.363 368.785 146.357 368.606C146.349 368.507 146.366 368.407 146.409 368.317C146.451 368.226 146.516 368.148 146.598 368.092C147.458 367.513 150.678 368.974 151.317 369.279C151.353 369.295 151.383 369.322 151.402 369.356C151.421 369.39 151.428 369.43 151.422 369.468C151.419 369.508 151.403 369.546 151.376 369.576C151.35 369.607 151.315 369.628 151.275 369.636C150.425 369.832 149.557 369.941 148.685 369.962ZM147.186 368.323C147.054 368.316 146.924 368.345 146.808 368.407C146.781 368.427 146.76 368.455 146.747 368.486C146.734 368.517 146.73 368.552 146.735 368.585C146.739 368.709 146.771 368.831 146.829 368.94C146.887 369.049 146.97 369.144 147.07 369.216C147.626 369.636 148.937 369.7 150.625 369.384C149.541 368.852 148.38 368.494 147.186 368.323Z" fill="#00CCA7"/>
<path d="M151.233 369.636H151.17C150.121 369.195 147.94 367.461 148.024 366.567C148.024 366.378 148.181 366.126 148.663 366.073C150.551 365.842 151.348 369.226 151.38 369.416C151.387 369.45 151.384 369.485 151.373 369.519C151.362 369.552 151.343 369.581 151.317 369.605C151.292 369.623 151.263 369.634 151.233 369.636ZM148.915 366.431H148.789C148.59 366.431 148.485 366.515 148.464 366.609C148.401 367.124 149.89 368.501 150.981 369.1C150.698 368.27 150.016 366.431 148.915 366.431Z" fill="#00CCA7"/>
<path d="M104.775 135.176L106.128 134.304C106.128 134.304 105.719 135.691 104.775 135.176Z" fill="#263238"/>
<path d="M302.682 58.3296H150.278C148.649 58.3185 147.036 58.6417 145.537 59.2794C144.038 59.9171 142.686 60.8556 141.563 62.0373C140.44 63.2189 139.57 64.6185 139.007 66.1499C138.445 67.6813 138.201 69.3119 138.291 70.9412L152.585 367.913C152.788 371.296 154.262 374.477 156.709 376.816C159.156 379.155 162.396 380.48 165.777 380.525H318.182C319.81 380.536 321.423 380.213 322.921 379.575C324.419 378.937 325.771 377.998 326.894 376.816C328.016 375.635 328.884 374.235 329.446 372.704C330.007 371.172 330.25 369.542 330.158 367.913L315.875 70.9412C315.671 67.5581 314.198 64.3775 311.751 62.0381C309.304 59.6988 306.064 58.3739 302.682 58.3296Z" fill="black"/>
<path d="M308.312 58.3296H155.866C154.238 58.3184 152.625 58.6417 151.127 59.2795C149.628 59.9172 148.276 60.856 147.154 62.0378C146.032 63.2196 145.163 64.6194 144.602 66.1507C144.04 67.682 143.798 69.3124 143.89 70.9412L158.173 367.913C158.376 371.296 159.85 374.477 162.297 376.816C164.744 379.155 167.984 380.48 171.365 380.525H323.77C325.398 380.536 327.011 380.213 328.509 379.575C330.007 378.937 331.359 377.998 332.482 376.816C333.604 375.635 334.472 374.235 335.034 372.704C335.595 371.172 335.838 369.542 335.746 367.913L321.463 70.9412C321.26 67.5653 319.792 64.3906 317.354 62.0523C314.916 59.7139 311.687 58.3844 308.312 58.3296Z" fill="#263238"/>
<path d="M170.937 372.117C169.814 372.088 168.742 371.642 167.93 370.865C167.118 370.088 166.623 369.035 166.543 367.913L152.281 70.9409C152.255 70.3989 152.34 69.8573 152.529 69.3489C152.718 68.8404 153.008 68.3757 153.381 67.9828C153.755 67.5899 154.204 67.2769 154.701 67.0628C155.199 66.8487 155.735 66.7379 156.276 66.7371H308.681C309.805 66.7608 310.88 67.2055 311.693 67.9835C312.506 68.7616 312.999 69.8167 313.075 70.9409L327.358 367.913C327.383 368.454 327.299 368.995 327.111 369.502C326.922 370.01 326.633 370.474 326.261 370.867C325.888 371.26 325.441 371.573 324.944 371.788C324.448 372.003 323.914 372.114 323.373 372.117H170.937Z" fill="#FF7900"/>
<path opacity="0.1" d="M170.863 370.015C170.303 369.996 169.769 369.772 169.363 369.384C168.957 368.997 168.707 368.473 168.661 367.913L154.378 70.9413C154.368 70.6714 154.412 70.4023 154.507 70.1498C154.603 69.8972 154.747 69.6662 154.933 69.4705C155.119 69.2747 155.341 69.118 155.588 69.0096C155.835 68.9013 156.101 68.8434 156.37 68.8394H308.775C309.336 68.8558 309.872 69.0795 310.278 69.4675C310.685 69.8555 310.934 70.3804 310.977 70.9413L325.26 367.913C325.27 368.183 325.226 368.452 325.131 368.705C325.035 368.957 324.891 369.188 324.705 369.384C324.52 369.58 324.297 369.736 324.05 369.845C323.803 369.953 323.537 370.011 323.268 370.015H170.863Z" fill="black"/>
<g opacity="0.3">
<path opacity="0.3" d="M216.856 352.947H186.665C185.836 352.938 185.042 352.614 184.442 352.04C183.843 351.467 183.483 350.687 183.435 349.857L181.233 303.919C181.205 303.513 181.262 303.106 181.399 302.723C181.536 302.34 181.751 301.989 182.029 301.693C182.308 301.397 182.645 301.162 183.018 301.002C183.392 300.843 183.794 300.763 184.201 300.766H214.444C215.271 300.773 216.064 301.095 216.662 301.668C217.261 302.24 217.619 303.019 217.664 303.846L219.835 349.794C219.861 350.201 219.803 350.608 219.664 350.992C219.526 351.375 219.311 351.725 219.031 352.021C218.752 352.317 218.414 352.552 218.04 352.711C217.666 352.871 217.263 352.951 216.856 352.947ZM184.159 301.838C183.897 301.837 183.638 301.889 183.396 301.99C183.155 302.091 182.936 302.239 182.753 302.427C182.575 302.62 182.437 302.847 182.347 303.094C182.257 303.341 182.217 303.604 182.229 303.867L184.442 349.794C184.471 350.357 184.713 350.887 185.118 351.277C185.523 351.668 186.061 351.889 186.623 351.896H216.856C217.119 351.898 217.38 351.846 217.622 351.743C217.864 351.64 218.082 351.488 218.263 351.296C218.444 351.105 218.584 350.879 218.674 350.631C218.764 350.384 218.802 350.12 218.786 349.857L216.573 303.919C216.547 303.358 216.307 302.828 215.904 302.437C215.5 302.046 214.963 301.825 214.403 301.817L184.159 301.838Z" fill="#FAFAFA"/>
<path opacity="0.3" d="M214.005 312.506H185.617C185.478 312.506 185.344 312.451 185.246 312.352C185.148 312.253 185.093 312.12 185.093 311.98C185.093 311.841 185.148 311.707 185.246 311.609C185.344 311.51 185.478 311.455 185.617 311.455H214.036C214.175 311.455 214.309 311.51 214.407 311.609C214.505 311.707 214.56 311.841 214.56 311.98C214.56 312.12 214.505 312.253 214.407 312.352C214.309 312.451 214.175 312.506 214.036 312.506H214.005Z" fill="#FAFAFA"/>
<path opacity="0.3" d="M214.297 318.444H185.868C185.729 318.441 185.598 318.385 185.5 318.287C185.402 318.189 185.346 318.057 185.343 317.918C185.343 317.779 185.398 317.645 185.497 317.547C185.595 317.448 185.728 317.393 185.868 317.393H214.297C214.436 317.393 214.57 317.448 214.668 317.547C214.766 317.645 214.822 317.779 214.822 317.918C214.819 318.057 214.763 318.189 214.665 318.287C214.567 318.385 214.436 318.441 214.297 318.444Z" fill="#FAFAFA"/>
<path opacity="0.3" d="M214.579 324.382H186.149C186.011 324.379 185.879 324.323 185.781 324.225C185.683 324.127 185.627 323.995 185.624 323.857C185.624 323.717 185.68 323.584 185.778 323.485C185.876 323.386 186.01 323.331 186.149 323.331H214.579C214.718 323.331 214.851 323.386 214.949 323.485C215.048 323.584 215.103 323.717 215.103 323.857C215.103 323.996 215.048 324.13 214.949 324.228C214.851 324.327 214.718 324.382 214.579 324.382Z" fill="#FAFAFA"/>
<path opacity="0.3" d="M214.865 330.32H186.446C186.307 330.32 186.173 330.264 186.075 330.166C185.977 330.067 185.921 329.934 185.921 329.794C185.921 329.655 185.977 329.521 186.075 329.423C186.173 329.324 186.307 329.269 186.446 329.269H214.865C215.004 329.269 215.137 329.324 215.236 329.423C215.334 329.521 215.389 329.655 215.389 329.794C215.389 329.934 215.334 330.067 215.236 330.166C215.137 330.264 215.004 330.32 214.865 330.32Z" fill="#FAFAFA"/>
<path opacity="0.3" d="M215.147 336.258H186.728C186.589 336.258 186.455 336.202 186.357 336.104C186.259 336.005 186.203 335.872 186.203 335.732C186.203 335.593 186.259 335.459 186.357 335.361C186.455 335.262 186.589 335.207 186.728 335.207H215.147C215.286 335.207 215.419 335.262 215.518 335.361C215.616 335.459 215.671 335.593 215.671 335.732C215.671 335.872 215.616 336.005 215.518 336.104C215.419 336.202 215.286 336.258 215.147 336.258Z" fill="#FAFAFA"/>
<path opacity="0.3" d="M209.607 342.196H187.008C186.869 342.196 186.736 342.14 186.637 342.042C186.539 341.943 186.484 341.81 186.484 341.67C186.484 341.531 186.539 341.397 186.637 341.299C186.736 341.2 186.869 341.145 187.008 341.145H209.607C209.746 341.145 209.88 341.2 209.978 341.299C210.076 341.397 210.132 341.531 210.132 341.67C210.129 341.809 210.073 341.941 209.975 342.039C209.877 342.137 209.745 342.193 209.607 342.196Z" fill="#FAFAFA"/>
</g>
<g opacity="0.3">
<path opacity="0.3" d="M235.89 184.404L215.157 187.725C214.357 185.747 213.299 183.885 212.011 182.186C210.77 180.881 209.303 179.812 207.68 179.033L208.456 195.323C219.985 198.364 227.742 201.573 231.727 204.95C234.267 207.072 236.329 209.71 237.775 212.691C239.221 215.671 240.019 218.926 240.116 222.238C240.394 226.116 239.683 230 238.05 233.526C236.497 236.815 234.263 239.735 231.496 242.091C228.918 244.304 225.938 245.996 222.718 247.073C218.94 248.211 215.023 248.827 211.078 248.901L211.214 251.771C211.246 252.302 211.168 252.834 210.986 253.333C210.804 253.833 210.521 254.29 210.155 254.675C209.789 255.061 209.348 255.366 208.859 255.574C208.37 255.781 207.844 255.885 207.313 255.88C206.21 255.868 205.153 255.438 204.355 254.675C203.557 253.912 203.077 252.874 203.014 251.771L202.877 248.901C198.275 248.605 193.731 247.708 189.36 246.232C186.012 245.02 182.915 243.199 180.226 240.862C177.771 238.761 175.693 236.255 174.081 233.452C172.464 230.438 171.288 227.206 170.589 223.857L193.146 221.219C193.999 224.925 195.047 227.605 196.292 229.259C197.855 231.18 199.864 232.688 202.143 233.652L201.189 213.768C195.603 212.374 190.133 210.547 184.83 208.303C181.399 206.588 178.45 204.041 176.251 200.893C173.682 197.255 172.261 192.928 172.172 188.471C171.928 185.396 172.355 182.304 173.424 179.411C174.492 176.519 176.176 173.893 178.359 171.718C182.806 167.227 189.622 164.74 198.809 164.257L198.735 162.796C198.703 162.265 198.781 161.733 198.963 161.233C199.146 160.733 199.428 160.277 199.794 159.891C200.16 159.506 200.601 159.2 201.09 158.993C201.579 158.785 202.105 158.681 202.636 158.686C203.739 158.698 204.796 159.129 205.595 159.891C206.393 160.654 206.872 161.692 206.936 162.796L207.009 164.257C215.399 164.782 221.904 166.772 226.525 170.226C231.173 173.739 234.479 178.743 235.89 184.404ZM199.501 178.781C197.631 179.261 195.943 180.281 194.645 181.713C193.762 182.901 193.334 184.366 193.439 185.843C193.495 187.428 194.07 188.95 195.075 190.173C196.475 191.646 198.248 192.71 200.203 193.253L199.501 178.781ZM210.375 234.188C213.522 233.487 215.794 232.31 217.192 230.657C217.863 229.913 218.381 229.043 218.716 228.098C219.05 227.153 219.195 226.151 219.142 225.15C219.036 223.325 218.293 221.595 217.045 220.263C215.724 218.781 213.207 217.393 209.516 216.122L210.375 234.188Z" fill="#FAFAFA"/>
</g>
<path opacity="0.2" d="M290.694 97.0996H186.874L196.994 307.409C197.488 316.024 201.228 324.131 207.457 330.089C213.687 336.047 221.941 339.413 230.552 339.505H334.371L324.262 129.196C323.773 120.577 320.033 112.466 313.801 106.507C307.568 100.547 299.308 97.1843 290.694 97.0996Z" fill="black"/>
<path d="M316.123 97.0996H186.905C195.516 97.1895 203.772 100.554 210.002 106.513C216.232 112.472 219.971 120.579 220.463 129.196L228.716 300.398C229.21 309.014 232.949 317.121 239.179 323.079C245.408 329.037 253.663 332.403 262.274 332.495H327.428C331.576 332.538 335.689 331.726 339.511 330.108C343.332 328.49 346.781 326.102 349.642 323.092C352.503 320.081 354.716 316.513 356.143 312.609C357.569 308.705 358.179 304.549 357.934 300.398L349.692 129.196C349.202 120.577 345.463 112.466 339.23 106.507C332.997 100.547 324.737 97.1843 316.123 97.0996Z" fill="#FAFAFA"/>
<path d="M292.771 300.399C293.017 304.547 292.409 308.701 290.985 312.604C289.561 316.506 287.351 320.073 284.493 323.084C281.635 326.094 278.19 328.483 274.371 330.102C270.552 331.721 266.442 332.536 262.296 332.495H391.504C395.651 332.536 399.761 331.721 403.58 330.102C407.4 328.483 410.846 326.094 413.705 323.084C416.564 320.074 418.774 316.507 420.2 312.604C421.625 308.702 422.234 304.547 421.99 300.399H292.771Z" fill="#E6E6E6"/>
<path d="M334.322 203.363H243.003C242.363 203.356 241.749 203.106 241.286 202.663C240.822 202.22 240.544 201.618 240.507 200.977C240.49 200.669 240.536 200.361 240.642 200.071C240.748 199.782 240.912 199.517 241.125 199.293C241.337 199.07 241.593 198.892 241.876 198.772C242.159 198.651 242.464 198.59 242.772 198.592H334.091C334.739 198.588 335.363 198.833 335.835 199.277C336.307 199.721 336.591 200.329 336.629 200.977C336.646 201.289 336.599 201.601 336.491 201.893C336.382 202.186 336.214 202.452 335.997 202.677C335.78 202.901 335.519 203.077 335.231 203.195C334.943 203.314 334.633 203.371 334.322 203.363Z" fill="#FF7900"/>
<path d="M335.037 218.255H243.718C243.077 218.248 242.464 217.998 242 217.555C241.537 217.112 241.259 216.51 241.222 215.87C241.205 215.561 241.25 215.253 241.357 214.964C241.463 214.674 241.627 214.409 241.839 214.186C242.052 213.962 242.307 213.785 242.591 213.664C242.874 213.543 243.179 213.482 243.487 213.484H334.817C335.455 213.493 336.066 213.745 336.527 214.187C336.988 214.63 337.265 215.231 337.302 215.87C337.319 216.178 337.273 216.486 337.167 216.775C337.061 217.065 336.896 217.33 336.684 217.553C336.472 217.777 336.216 217.954 335.933 218.075C335.65 218.196 335.345 218.257 335.037 218.255Z" fill="#FF7900"/>
<path d="M335.758 233.137H244.428C243.788 233.13 243.174 232.88 242.711 232.437C242.248 231.994 241.969 231.392 241.932 230.751C241.915 230.443 241.961 230.135 242.067 229.845C242.173 229.556 242.338 229.291 242.55 229.067C242.762 228.844 243.018 228.666 243.301 228.546C243.584 228.425 243.889 228.364 244.197 228.366H335.579C336.219 228.372 336.833 228.623 337.296 229.065C337.76 229.508 338.038 230.111 338.075 230.751C338.093 231.064 338.045 231.377 337.936 231.67C337.826 231.963 337.657 232.23 337.44 232.455C337.222 232.679 336.96 232.855 336.67 232.973C336.381 233.09 336.07 233.146 335.758 233.137Z" fill="#FF7900"/>
<path d="M336.47 248.05H245.151C244.512 248.041 243.899 247.79 243.437 247.348C242.974 246.905 242.695 246.304 242.655 245.664C242.638 245.356 242.684 245.048 242.79 244.758C242.897 244.469 243.061 244.204 243.273 243.981C243.485 243.757 243.741 243.579 244.024 243.459C244.308 243.338 244.613 243.277 244.92 243.279H336.24C336.88 243.286 337.493 243.536 337.957 243.979C338.42 244.421 338.698 245.024 338.736 245.664C338.753 245.973 338.707 246.281 338.6 246.57C338.494 246.86 338.33 247.125 338.118 247.348C337.905 247.572 337.65 247.749 337.367 247.87C337.083 247.991 336.778 248.052 336.47 248.05Z" fill="#FF7900"/>
<path d="M300.88 262.942H245.866C245.226 262.935 244.612 262.685 244.149 262.242C243.686 261.799 243.407 261.197 243.37 260.557C243.353 260.248 243.399 259.94 243.505 259.651C243.611 259.361 243.776 259.096 243.988 258.873C244.2 258.649 244.456 258.472 244.739 258.351C245.022 258.23 245.327 258.169 245.635 258.171H300.649C301.289 258.178 301.903 258.428 302.366 258.871C302.83 259.314 303.108 259.916 303.145 260.557C303.162 260.865 303.116 261.173 303.01 261.462C302.904 261.752 302.739 262.017 302.527 262.24C302.315 262.464 302.059 262.641 301.776 262.762C301.493 262.883 301.188 262.944 300.88 262.942Z" fill="#FF7900"/>
<path d="M307.223 172.494C318.03 161.4 317.372 143.194 305.756 131.829C294.139 120.464 275.962 120.244 265.156 131.338C254.349 142.431 255.006 160.638 266.623 172.003C278.24 183.367 296.417 183.587 307.223 172.494Z" fill="#FF7900"/>
<path d="M309.867 151.897C310.065 155.803 309.268 159.694 307.55 163.206C305.687 166.97 302.803 170.133 299.229 172.33C295.654 174.527 291.534 175.67 287.341 175.628C283.004 175.595 278.749 174.433 274.995 172.255C271.241 170.077 268.116 166.959 265.927 163.206C263.885 159.772 262.715 155.889 262.519 151.897C262.338 148.83 262.788 145.758 263.841 142.873C264.895 139.987 266.529 137.35 268.642 135.124C270.756 132.899 273.304 131.133 276.127 129.936C278.951 128.739 281.99 128.136 285.055 128.166C291.418 128.245 297.515 130.737 302.119 135.14C306.723 139.543 309.491 145.531 309.867 151.897Z" fill="white"/>
<path opacity="0.4" d="M307.548 163.205C305.685 166.97 302.801 170.133 299.227 172.33C295.652 174.527 291.533 175.67 287.34 175.628C283.002 175.595 278.747 174.433 274.993 172.255C271.239 170.077 268.114 166.959 265.926 163.205C271.961 159.055 279.118 156.855 286.438 156.9C293.934 156.914 301.267 159.104 307.548 163.205Z" fill="#FF7900"/>
<path opacity="0.4" d="M293.519 151.327C297.492 147.248 297.252 140.557 292.983 136.38C288.714 132.204 282.033 132.125 278.06 136.204C274.087 140.282 274.327 146.974 278.596 151.151C282.865 155.327 289.546 155.406 293.519 151.327Z" fill="#FF7900"/>
<path d="M374.13 372.642H366.432L365.656 354.755H373.364L374.13 372.642Z" fill="#B55B52"/>
<path opacity="0.2" d="M365.668 354.765L366.056 363.982H373.764L373.365 354.765H365.668Z" fill="black"/>
<path d="M439.702 351.686L432.382 354.082L423.164 338.286L430.494 335.89L439.702 351.686Z" fill="#B55B52"/>
<path opacity="0.2" d="M430.494 335.89L423.164 338.286L427.925 346.431L435.245 344.035L430.494 335.89Z" fill="black"/>
<path d="M400.178 114.294C401.132 115.46 401.94 116.501 402.768 117.646C403.597 118.792 404.383 119.885 405.17 121.02C406.722 123.301 408.211 125.634 409.606 128.04C412.508 132.923 414.874 138.107 416.663 143.5L416.842 144.026L416.925 144.299L417.041 144.73L417.251 145.592L417.366 146.38C417.49 147.324 417.529 148.277 417.481 149.228C417.384 150.831 417.152 152.424 416.789 153.989C416.125 156.792 415.245 159.54 414.157 162.207C412.083 167.32 409.571 172.243 406.648 176.921L401.405 174.409C402.978 169.48 404.551 164.435 405.705 159.527C406.305 157.161 406.76 154.761 407.068 152.339C407.197 151.293 407.236 150.238 407.183 149.186C407.167 148.811 407.118 148.438 407.036 148.072L406.984 147.883C406.964 147.849 406.947 147.814 406.932 147.778L406.848 147.578L406.68 147.168L405.977 145.518L405.191 143.878C404.666 142.827 404.09 141.692 403.513 140.599C402.317 138.434 401.027 136.28 399.685 134.136C398.343 131.992 396.917 129.932 395.49 127.83C394.064 125.728 392.502 123.626 391.086 121.724L400.178 114.294Z" fill="#B55B52"/>
<path d="M401.889 173.106L398.879 179.779H407.489C407.489 179.779 408.862 174.714 405.737 172.664L401.889 173.106Z" fill="#B55B52"/>
<path d="M399.886 187.283L407.877 185.738L407.489 179.779H398.879L399.886 187.283Z" fill="#B55B52"/>
<path d="M362.023 80.421C362.023 81.0515 361.698 81.5559 361.289 81.5559C360.88 81.5559 360.555 81.0515 360.555 80.421C360.555 79.7905 360.89 79.2966 361.289 79.2966C361.687 79.2966 362.023 79.801 362.023 80.421Z" fill="#263238"/>
<path d="M361.796 81.5559C361.057 83.4576 360.058 85.2473 358.828 86.874C359.252 87.1786 359.737 87.3872 360.25 87.4852C360.762 87.5832 361.29 87.5683 361.796 87.4415V81.5559Z" fill="#A02724"/>
<path d="M364.228 76.9736C364.151 76.9745 364.077 76.9485 364.018 76.9C363.653 76.6246 363.228 76.4385 362.779 76.3564C362.329 76.2743 361.866 76.2985 361.428 76.4271C361.34 76.4511 361.247 76.4416 361.165 76.4004C361.084 76.3592 361.021 76.2893 360.989 76.2043C360.956 76.1193 360.956 76.0251 360.989 75.9401C361.021 75.855 361.084 75.7852 361.166 75.7441C361.718 75.5682 362.305 75.528 362.876 75.6268C363.447 75.7255 363.986 75.9604 364.448 76.3115C364.525 76.3702 364.577 76.4563 364.593 76.5522C364.608 76.6481 364.586 76.7463 364.532 76.8265C364.495 76.8724 364.449 76.9095 364.397 76.9349C364.344 76.9604 364.286 76.9736 364.228 76.9736Z" fill="#263238"/>
<path d="M382.089 87.5994C380.977 93.2535 379.876 103.606 383.819 107.368C383.819 107.368 382.277 113.096 371.812 113.096C360.276 113.096 366.306 107.368 366.306 107.368C372.598 105.865 372.43 101.199 371.329 96.8058L382.089 87.5994Z" fill="#B55B52"/>
<path d="M385.325 109.333C386.153 107.525 387.066 105.444 385.178 104.793C383.081 104.078 371.797 103.353 367.885 104.698C367.371 104.841 366.89 105.085 366.471 105.416C366.051 105.747 365.701 106.158 365.442 106.625C365.182 107.093 365.018 107.607 364.959 108.139C364.899 108.67 364.946 109.209 365.096 109.722L385.325 109.333Z" fill="#263238"/>
<path d="M430.799 355.921C430.233 356.468 429.593 356.91 429.111 356.836C428.959 356.805 428.819 356.728 428.712 356.615C428.606 356.502 428.536 356.359 428.513 356.205C428.481 356.086 428.476 355.961 428.498 355.839C428.519 355.717 428.568 355.602 428.639 355.501C429.268 354.524 431.785 354.103 431.921 354.093C431.955 354.088 431.989 354.092 432.02 354.105C432.052 354.118 432.079 354.139 432.1 354.166C432.119 354.196 432.13 354.23 432.13 354.266C432.13 354.302 432.119 354.336 432.1 354.366C431.722 354.929 431.286 355.45 430.799 355.921ZM429.09 355.522C429.035 355.573 428.986 355.629 428.943 355.69C428.901 355.751 428.872 355.82 428.86 355.892C428.847 355.965 428.85 356.039 428.87 356.111C428.953 356.437 429.111 356.468 429.163 356.468C429.698 356.552 430.841 355.417 431.544 354.534C430.663 354.678 429.825 355.015 429.09 355.522Z" fill="#00CCA7"/>
<path d="M432.058 354.398L431.974 354.45C431.103 354.681 428.828 354.534 428.345 353.799C428.273 353.681 428.242 353.543 428.258 353.406C428.273 353.269 428.333 353.141 428.429 353.042C428.519 352.936 428.63 352.848 428.754 352.785C428.878 352.722 429.014 352.684 429.153 352.674C430.306 352.59 431.974 354.072 432.047 354.135C432.072 354.156 432.091 354.185 432.1 354.216C432.11 354.248 432.109 354.282 432.1 354.314C432.097 354.346 432.082 354.376 432.058 354.398ZM428.775 353.221L428.712 353.284C428.565 353.462 428.628 353.557 428.649 353.599C428.933 354.03 430.527 354.271 431.512 354.156C430.861 353.566 430.052 353.179 429.184 353.042C429.038 353.053 428.9 353.117 428.796 353.221H428.775Z" fill="#00CCA7"/>
<path d="M363.327 373.031C362.341 373.031 361.387 372.895 361.073 372.453C360.987 372.338 360.941 372.198 360.941 372.054C360.941 371.91 360.987 371.77 361.073 371.654C361.135 371.547 361.218 371.454 361.317 371.38C361.416 371.306 361.529 371.252 361.649 371.224C362.929 370.877 365.624 372.411 365.739 372.485C365.772 372.502 365.798 372.531 365.814 372.565C365.829 372.599 365.832 372.638 365.823 372.674C365.818 372.709 365.802 372.742 365.777 372.769C365.753 372.795 365.722 372.813 365.687 372.821C364.907 372.957 364.118 373.028 363.327 373.031ZM362.111 371.539C361.992 371.522 361.872 371.522 361.754 371.539C361.68 371.553 361.61 371.583 361.549 371.627C361.488 371.67 361.436 371.726 361.398 371.791C361.272 372.022 361.314 372.138 361.398 372.201C361.754 372.695 363.705 372.705 365.131 372.506C364.197 371.99 363.171 371.661 362.111 371.539Z" fill="#00CCA7"/>
<path d="M365.654 372.821H365.581C364.658 372.4 362.812 370.719 362.949 369.857C362.949 369.647 363.127 369.395 363.63 369.342C363.817 369.321 364.006 369.338 364.187 369.392C364.367 369.447 364.534 369.537 364.679 369.658C365.654 370.467 365.864 372.548 365.874 372.632C365.874 372.664 365.866 372.696 365.851 372.725C365.837 372.754 365.816 372.78 365.79 372.8C365.77 372.812 365.748 372.82 365.724 372.824C365.701 372.828 365.677 372.827 365.654 372.821ZM363.777 369.668H363.672C363.337 369.668 363.316 369.826 363.316 369.868C363.232 370.393 364.48 371.707 365.413 372.274C365.322 371.392 364.955 370.56 364.364 369.899C364.197 369.766 363.991 369.692 363.777 369.689V369.668Z" fill="#00CCA7"/>
<path d="M431.742 353.231L438.034 347.23C438.144 347.122 438.287 347.055 438.441 347.042C438.594 347.028 438.747 347.069 438.873 347.156L444.704 351.066C444.845 351.161 444.963 351.288 445.048 351.435C445.133 351.583 445.183 351.748 445.196 351.918C445.208 352.088 445.181 352.259 445.118 352.417C445.054 352.575 444.956 352.717 444.83 352.832C442.617 354.934 441.432 355.785 438.684 358.412C436.986 360.041 431.931 365.559 429.592 367.808C427.254 370.057 424.737 368.018 425.492 366.893C428.89 361.838 431.008 356.993 431.197 354.44C431.231 353.985 431.424 353.557 431.742 353.231Z" fill="#263238"/>
<path d="M366.476 371.749H374.865C375.017 371.748 375.165 371.8 375.284 371.896C375.402 371.992 375.484 372.126 375.515 372.275L377.036 379.137C377.074 379.302 377.074 379.474 377.037 379.639C376.999 379.804 376.924 379.958 376.818 380.09C376.712 380.221 376.577 380.327 376.424 380.399C376.271 380.471 376.104 380.506 375.935 380.504C372.894 380.504 368.51 380.283 364.693 380.283C360.236 380.283 356.387 380.525 351.154 380.525C348.008 380.525 347.117 377.319 348.438 377.025C354.458 375.711 359.387 375.564 364.588 372.348C365.149 371.976 365.803 371.769 366.476 371.749Z" fill="#263238"/>
<path d="M355.506 124.887C352.443 129.406 349.287 133.631 345.889 137.804C342.478 142.027 338.834 146.055 334.972 149.869L333.483 151.319L333.106 151.676L332.833 151.929L332.435 152.212C331.941 152.612 331.411 152.963 330.851 153.263C329.081 154.199 327.133 154.748 325.136 154.871C322.088 155.052 319.03 154.797 316.054 154.115C310.661 152.923 305.432 151.081 300.481 148.629L302.411 143.164C307.321 144.147 312.287 144.828 317.281 145.203C319.476 145.376 321.684 145.285 323.856 144.929C324.481 144.836 325.076 144.602 325.597 144.246C325.65 144.246 325.597 144.183 325.597 144.183L325.681 144.099L325.985 143.752L327.233 142.386C330.505 138.644 333.683 134.651 336.766 130.573C339.849 126.495 342.942 122.312 345.889 118.235L355.506 124.887Z" fill="#B55B52"/>
<path d="M397.621 109.123C404.835 110.783 413.12 130.51 413.12 130.51L398.617 140.473C395.014 135.286 391.82 129.825 389.063 124.141C384.764 115.113 390.238 107.42 397.621 109.123Z" fill="#00CCA7"/>
<path opacity="0.3" d="M392.438 121.734L399.296 140.032L398.615 140.505C398.615 140.505 395.647 136.301 392.438 130.699V121.734Z" fill="black"/>
<path d="M354.453 109.512C354.453 109.512 346.252 118.792 354.002 176.248H395.205C395.488 169.942 391.514 138.981 397.617 109.112C393.059 108.234 388.449 107.651 383.816 107.368C377.983 107.031 372.136 107.031 366.303 107.368C362.303 107.772 358.341 108.488 354.453 109.512Z" fill="#00CCA7"/>
<path opacity="0.3" d="M359.027 126.127C357.955 132.648 355.143 138.756 350.889 143.805C350.722 140.105 350.659 136.784 350.669 133.81L359.027 126.127Z" fill="black"/>
<path d="M362.585 115.776C363.634 123.08 349.225 141.755 349.225 141.755L334.784 131.792C334.784 131.792 338.79 121.503 345.533 114.756C353.241 107.021 361.484 107.82 362.585 115.776Z" fill="#00CCA7"/>
<path d="M303.405 143.805L297.753 137.951L291.723 145.739C291.723 145.739 296.316 150.184 301.779 148.892L303.405 143.805Z" fill="#B55B52"/>
<path d="M289.993 134.693L287.402 142.869L291.723 145.707L297.753 137.919L289.993 134.693Z" fill="#B55B52"/>
<path d="M382.769 79.1073C382.297 86.7478 382.412 91.2564 378.574 95.1765C372.775 101.083 363.358 97.5832 361.543 89.9217C359.897 83.0484 360.946 71.698 368.412 68.6607C370.057 67.9834 371.847 67.739 373.612 67.9507C375.378 68.1623 377.06 68.823 378.499 69.87C379.937 70.9169 381.085 72.3153 381.832 73.9321C382.58 75.5489 382.902 77.3304 382.769 79.1073Z" fill="#B55B52"/>
<path d="M389.408 63.143C391.757 65.308 390.761 67.7253 389.534 68.1772C393.341 68.9654 393.896 72.0028 391.893 78.4137C389.985 84.5514 385.36 92.7806 379.582 93.2851C370.899 94.0418 368.361 84.9718 368.298 75.9755C363.39 76.2802 365.509 71.9187 359.479 72.9276C354.235 73.7999 356.207 69.7011 351.75 67.9145C346.58 65.8125 347.618 57.8776 352.442 60.1582C352.442 60.1582 350.208 61.6296 352.809 63.0169C355.41 64.4042 355.158 61.1987 360.307 60.8098C365.456 60.421 366.054 64.8351 372.073 62.1761C379.624 58.834 384.584 58.6764 389.408 63.143Z" fill="#263238"/>
<path d="M386.515 68.1353C386.857 67.585 387.368 67.1601 387.97 66.9235C388.573 66.6868 389.236 66.6512 389.86 66.8218C392.219 67.3262 392.408 68.3664 393.887 68.2298C395.366 68.0932 394.831 69.6694 394.831 69.6694C394.831 69.6694 394.432 68.482 392.649 69.144C390.867 69.806 389.703 68.1878 388.937 68.9129C388.172 69.6379 386.515 68.1353 386.515 68.1353Z" fill="#263238"/>
<path d="M372.407 81.1881C372.072 83.0618 371.123 84.7701 369.712 86.0435C367.845 87.704 366.23 86.3693 366.167 84.0993C366.167 82.0499 367.037 78.7079 369.187 77.9092C371.337 77.1104 372.795 78.9181 372.407 81.1881Z" fill="#B55B52"/>
<path d="M368.61 176.248C368.61 176.248 377.356 235.239 382.159 257.309C387.403 281.482 423.949 345.801 423.949 345.801L437.372 341.429C437.372 341.429 408.271 283.478 405.272 259.506C402.011 233.494 395.205 176.206 395.205 176.206L368.61 176.248Z" fill="#263238"/>
<path d="M420.196 341.597C420.144 341.597 423.269 346.305 423.269 346.305L438.349 341.387L436.576 336.867L420.196 341.597Z" fill="#00CCA7"/>
<path opacity="0.3" d="M374.139 197.268C384.248 199.254 383.179 237.036 381.962 256.469C379.047 242.732 374.779 216.301 371.863 197.541C372.569 197.193 373.371 197.096 374.139 197.268Z" fill="black"/>
<path d="M354.004 176.248C354.004 176.248 352.955 233.978 353.773 257.519C354.644 282.007 363.211 362.196 363.211 362.196H376.268C376.268 362.196 376.739 283.436 377.316 259.39C377.945 233.116 381.102 176.248 381.102 176.248H354.004Z" fill="#263238"/>
<path d="M360.672 356.983C360.609 356.983 361.406 362.416 361.406 362.416H377.283L377.713 357.571L360.672 356.983Z" fill="#00CCA7"/>
</svg>
