<svg width="44" height="34" viewBox="0 0 44 34" fill="none" xmlns="http://www.w3.org/2000/svg">
<path d="M16.0779 22.3309C10.7119 22.3309 0 24.8245 0 29.7745V33.4963H32.1558V29.7745C32.1558 24.8245 21.4439 22.3309 16.0779 22.3309ZM42.4055 7.14589C42.4256 6.94119 42.4457 6.73649 42.4457 6.51318C42.4457 6.28987 42.4256 6.08517 42.3854 5.88047L43.8726 4.80115C44.0133 4.7081 44.0334 4.52201 43.953 4.39175L42.5462 2.14005C42.4658 1.99117 42.2648 1.95396 42.1241 1.99118L40.3957 2.64249C40.034 2.38197 39.632 2.17727 39.21 2.00978L38.9487 0.27914C38.9336 0.200618 38.889 0.129564 38.8228 0.0784999C38.7566 0.0274357 38.6731 -0.000362356 38.587 3.56706e-06H35.7733C35.5925 3.56706e-06 35.4518 0.111658 35.4317 0.27914L35.1704 2.00978C34.7484 2.17727 34.3464 2.40057 33.9847 2.64249L32.2362 1.99118C32.0754 1.93535 31.8945 1.99117 31.8142 2.14005L30.4073 4.39175C30.327 4.54062 30.3471 4.7081 30.4877 4.80115L31.9749 5.88047C31.895 6.29903 31.895 6.72733 31.9749 7.14589L30.4877 8.22522C30.3471 8.31826 30.327 8.50435 30.4073 8.63461L31.8142 10.8863C31.8945 11.0352 32.0955 11.0724 32.2362 11.0352L33.9847 10.3839C34.3464 10.6444 34.7484 10.8491 35.1704 11.0166L35.4317 12.7472C35.4518 12.9147 35.5925 13.0264 35.7733 13.0264H38.587C38.7679 13.0264 38.9085 12.9147 38.9286 12.7472L39.1899 11.0166C39.6119 10.8491 40.0139 10.6258 40.3756 10.3839L42.1241 11.0352C42.2849 11.091 42.4658 11.0352 42.5462 10.8863L43.953 8.63461C44.0334 8.48574 44.0133 8.31826 43.8726 8.22522L42.4055 7.14589ZM37.1802 8.83932C36.5139 8.83932 35.8749 8.59424 35.4038 8.15801C34.9327 7.72177 34.668 7.13011 34.668 6.51318C34.668 5.89625 34.9327 5.30459 35.4038 4.86835C35.8749 4.43212 36.5139 4.18705 37.1802 4.18705C37.8464 4.18705 38.4854 4.43212 38.9565 4.86835C39.4277 5.30459 39.6923 5.89625 39.6923 6.51318C39.6923 7.13011 39.4277 7.72177 38.9565 8.15801C38.4854 8.59424 37.8464 8.83932 37.1802 8.83932ZM38.0243 16.1527L37.0194 14.5337C36.9591 14.422 36.8184 14.3848 36.7179 14.422L35.4719 14.8873C35.2106 14.7012 34.9293 14.5523 34.6278 14.4406L34.4469 13.2124C34.4263 13.1584 34.3882 13.1116 34.3379 13.0783C34.2876 13.045 34.2274 13.0269 34.1656 13.0264H32.1558C32.0352 13.0264 31.9347 13.1008 31.9146 13.2311L31.7338 14.4593C31.4323 14.5709 31.1509 14.7384 30.8897 14.9059L29.6436 14.4406C29.5231 14.4034 29.4025 14.4406 29.3422 14.5523L28.3373 16.1713C28.277 16.2829 28.2971 16.3946 28.3976 16.469L29.4628 17.232C29.4427 17.3809 29.4226 17.5298 29.4226 17.6786C29.4226 17.8275 29.4427 17.995 29.4628 18.1252L28.3976 18.8882C28.2971 18.9627 28.277 19.0929 28.3373 19.186L29.3422 20.805C29.4025 20.9166 29.5432 20.9538 29.6436 20.9166L30.8897 20.4514C31.1509 20.6375 31.4323 20.7863 31.7338 20.898L31.9146 22.1262C31.9347 22.2565 32.0352 22.3309 32.1558 22.3309H34.1656C34.2861 22.3309 34.4067 22.2565 34.4067 22.1262L34.5876 20.898C34.8891 20.7863 35.1704 20.6189 35.4317 20.4514L36.6777 20.9166C36.7983 20.9538 36.9189 20.9166 36.9792 20.805L37.9841 19.186C38.0443 19.0743 38.0243 18.9627 37.9238 18.8882L36.8787 18.1252C36.8988 17.9764 36.9189 17.8275 36.9189 17.6786C36.9189 17.5298 36.8988 17.3623 36.8787 17.232L37.9439 16.469C38.0443 16.3946 38.0644 16.2643 38.0243 16.1527ZM33.1607 19.2232C32.2362 19.2232 31.4926 18.516 31.4926 17.6786C31.4926 16.8226 32.2563 16.1341 33.1607 16.1341C34.0651 16.1341 34.8288 16.8412 34.8288 17.6786C34.8288 18.5346 34.0852 19.2232 33.1607 19.2232ZM7.51642 11.1654H24.6595C25.2021 11.1654 25.6443 10.7561 25.6443 10.2536V10.2164C25.6443 9.97455 25.5405 9.74262 25.3558 9.57161C25.1712 9.40061 24.9207 9.30454 24.6595 9.30454H24.1169C24.1169 6.5504 22.489 4.18705 20.0974 2.88441V4.65227C20.0974 5.17333 19.6552 5.58273 19.0925 5.58273C18.5298 5.58273 18.0876 5.17333 18.0876 4.65227V2.12144C17.4445 1.97257 16.7813 1.86091 16.0779 1.86091C15.3745 1.86091 14.7113 1.97257 14.0682 2.12144V4.65227C14.0682 5.17333 13.626 5.58273 13.0633 5.58273C12.5006 5.58273 12.0584 5.17333 12.0584 4.65227V2.88441C9.66684 4.18705 8.03895 6.5504 8.03895 9.30454H7.51642C7.3871 9.30454 7.25904 9.32813 7.13957 9.37395C7.02009 9.41978 6.91153 9.48694 6.82008 9.57161C6.72864 9.65629 6.6561 9.75681 6.60661 9.86744C6.55712 9.97807 6.53165 10.0966 6.53165 10.2164V10.2722C6.53165 10.7561 6.97379 11.1654 7.51642 11.1654ZM16.0779 18.6091C19.816 18.6091 22.9311 16.2271 23.8355 13.0264H8.32032C9.2247 16.2271 12.3398 18.6091 16.0779 18.6091Z" fill="#F3BE00"/>
</svg>
