<svg width="44" height="44" viewBox="0 0 44 44" fill="none" xmlns="http://www.w3.org/2000/svg">
<path d="M16.5779 39.375C12.0287 39.375 7.78806 38.0518 4.21875 35.7688C7.24921 35.9649 12.5973 35.4953 15.9238 32.3224C10.9196 32.0927 8.66287 28.2548 8.36851 26.6146C8.7937 26.7787 10.8215 26.9755 11.9663 26.5162C6.20986 25.0729 5.32677 20.0212 5.52301 18.4795C6.60234 19.234 8.43392 19.4964 9.15347 19.4308C3.78955 15.5928 5.71926 9.8195 6.66775 8.57299C10.5171 13.9059 16.2861 16.9011 23.423 17.0677C23.2885 16.4775 23.2174 15.8631 23.2174 15.232C23.2174 10.7029 26.8782 7.03125 31.3941 7.03125C33.7536 7.03125 35.8796 8.03356 37.3721 9.6368C38.9488 9.26734 41.3217 8.40244 42.4817 7.65451C41.897 9.7539 40.0766 11.5052 38.9755 12.1543C38.9665 12.1321 38.9846 12.1764 38.9755 12.1543C39.9427 12.008 42.5599 11.505 43.5938 10.8036C43.0825 11.983 41.1525 13.944 39.5687 15.0418C39.8633 28.0379 29.92 39.375 16.5779 39.375Z" fill="#47ACDF"/>
</svg>
