<svg width="277" height="238" viewBox="0 0 277 238" fill="none" xmlns="http://www.w3.org/2000/svg">
<path d="M119.705 237.057C143.19 237.057 162.228 231.151 162.228 223.866C162.228 216.581 143.19 210.675 119.705 210.675C96.22 210.675 77.1816 216.581 77.1816 223.866C77.1816 231.151 96.22 237.057 119.705 237.057Z" fill="#00CCA7"/>
<path opacity="0.5" d="M119.705 237.057C143.19 237.057 162.228 231.151 162.228 223.866C162.228 216.581 143.19 210.675 119.705 210.675C96.22 210.675 77.1816 216.581 77.1816 223.866C77.1816 231.151 96.22 237.057 119.705 237.057Z" fill="white"/>
<path d="M201.759 167.512C201.759 167.512 204.918 165.009 205.721 163.406C206.396 162.053 206.909 160.112 206.2 158.671C206.046 158.322 205.82 158.009 205.537 157.754C205.254 157.498 204.92 157.305 204.557 157.189C204.194 157.072 203.811 157.033 203.432 157.075C203.053 157.117 202.688 157.239 202.36 157.433C200.416 158.651 200.206 162.784 200.706 164.766C200.746 164.928 201.725 167.539 201.759 167.512Z" fill="#00CCA7"/>
<path d="M172.57 188.353C172.698 188.475 174.953 190.112 174.966 190.072C174.98 190.031 176.222 186.243 176.012 184.457C175.837 182.942 175.189 181.075 173.798 180.229C173.478 180.024 173.117 179.889 172.74 179.833C172.364 179.777 171.979 179.802 171.613 179.905C171.246 180.009 170.906 180.189 170.613 180.433C170.321 180.678 170.084 180.982 169.917 181.325C168.986 183.382 171.065 186.946 172.57 188.353Z" fill="#00CCA7"/>
<path d="M238.719 171.293C238.719 171.293 227.163 183.253 227.244 197.938C227.325 212.624 238.969 224.489 238.969 224.489C238.969 224.489 250.531 212.529 250.443 197.843C250.356 183.158 238.719 171.293 238.719 171.293Z" fill="#00CCA7"/>
<path d="M222.244 206.739C222.395 206.572 222.534 206.396 222.662 206.211C223.499 204.933 224.222 203.073 223.682 201.544C223.571 201.178 223.384 200.839 223.133 200.551C222.882 200.262 222.572 200.03 222.225 199.87C221.878 199.711 221.501 199.626 221.12 199.623C220.738 199.62 220.359 199.699 220.01 199.853C218.437 200.597 217.668 203.113 217.506 205.176C216.878 205.034 216.311 204.926 215.825 204.845C215.623 204.378 215.413 203.905 215.197 203.431C214.981 202.958 214.813 202.45 214.61 201.956C214.333 201.219 214.09 200.448 213.834 199.684C214.752 199.271 217.411 198.026 218.403 196.924C219.396 195.821 220.428 194.062 220.118 192.473C220.062 192.095 219.926 191.734 219.721 191.413C219.515 191.091 219.244 190.817 218.925 190.608C218.607 190.399 218.247 190.26 217.871 190.201C217.495 190.141 217.111 190.161 216.743 190.261C214.549 190.937 213.26 194.847 213.213 196.897C213.213 196.964 213.247 197.397 213.294 197.911C213.078 197.154 212.848 196.396 212.653 195.625C212.086 193.427 211.579 191.167 211.066 188.908C210.958 188.434 210.844 187.968 210.736 187.494C211.505 187.156 214.401 185.83 215.461 184.673C216.52 183.517 217.485 181.812 217.175 180.222C217.119 179.845 216.983 179.484 216.778 179.162C216.572 178.841 216.301 178.567 215.982 178.358C215.664 178.149 215.305 178.01 214.928 177.95C214.552 177.89 214.168 177.911 213.8 178.01C211.606 178.687 210.317 182.597 210.27 184.646C210.27 184.721 210.31 185.235 210.364 185.817C210.067 184.592 209.757 183.375 209.406 182.177C208.82 180.12 208.099 178.104 207.246 176.143C207.523 176.022 210.952 174.54 212.106 173.255C213.125 172.125 214.131 170.394 213.814 168.804C213.757 168.427 213.622 168.065 213.416 167.744C213.211 167.423 212.94 167.148 212.621 166.94C212.302 166.731 211.943 166.592 211.567 166.532C211.191 166.472 210.806 166.492 210.439 166.592C208.245 167.268 206.956 171.178 206.909 173.228C206.909 173.37 207.077 175.257 207.158 175.934C207.156 175.911 207.156 175.889 207.158 175.866C206.274 173.958 205.221 172.134 204.013 170.414C202.939 168.874 201.779 167.397 200.537 165.99C199.396 164.678 198.276 163.541 197.277 162.547C196.73 162.013 196.217 161.532 195.738 161.093H195.785C195.826 161.093 194.719 158.536 194.631 158.387C193.605 156.614 190.581 153.794 188.347 154.281C187.976 154.37 187.629 154.537 187.327 154.77C187.026 155.004 186.777 155.298 186.597 155.635C186.417 155.972 186.31 156.343 186.284 156.724C186.258 157.105 186.312 157.487 186.443 157.846C186.95 159.388 188.644 160.423 190.088 160.923C191.533 161.424 194.813 161.187 195.603 161.12C196.089 161.586 196.609 162.094 197.169 162.669C198.147 163.683 199.241 164.833 200.348 166.173C200.645 166.524 200.949 166.917 201.246 167.296C200.611 166.768 199.72 166.051 199.626 165.997C197.904 164.894 193.922 163.785 192.16 165.253C191.871 165.504 191.637 165.814 191.476 166.162C191.315 166.51 191.23 166.889 191.226 167.273C191.222 167.657 191.3 168.037 191.454 168.389C191.608 168.74 191.835 169.055 192.12 169.311C193.267 170.448 195.259 170.583 196.764 170.36C198.269 170.137 201.158 168.364 201.772 167.972C202.447 168.818 203.075 169.697 203.702 170.678C204.858 172.401 205.858 174.223 206.693 176.123C206.74 176.231 206.774 176.353 206.821 176.468C206.551 176.15 204.944 174.52 204.796 174.439C203.203 173.16 199.396 171.618 197.459 172.883C197.146 173.101 196.883 173.382 196.686 173.709C196.49 174.036 196.364 174.401 196.319 174.779C196.273 175.158 196.307 175.543 196.42 175.907C196.533 176.271 196.721 176.608 196.973 176.894C197.992 178.146 199.95 178.504 201.475 178.443C203.237 178.382 206.699 176.63 206.828 176.563C207.606 178.48 208.26 180.446 208.785 182.448C209.177 183.929 209.521 185.445 209.845 186.967C209.487 186.567 207.989 185.052 207.867 184.937C206.274 183.652 202.467 182.116 200.53 183.375C200.217 183.592 199.954 183.874 199.757 184.201C199.561 184.527 199.436 184.892 199.39 185.271C199.344 185.65 199.378 186.034 199.491 186.399C199.604 186.763 199.792 187.1 200.044 187.386C201.063 188.644 203.021 188.996 204.546 188.942C206.267 188.881 209.595 187.217 209.872 187.075C210.02 187.751 210.169 188.428 210.31 189.151C210.783 191.418 211.242 193.697 211.762 195.916C211.944 196.687 212.146 197.438 212.349 198.202C211.789 197.614 210.749 196.565 210.648 196.484C209.055 195.199 205.248 193.663 203.311 194.921C202.998 195.139 202.735 195.421 202.538 195.747C202.342 196.074 202.216 196.439 202.171 196.818C202.125 197.197 202.159 197.581 202.272 197.946C202.385 198.31 202.573 198.646 202.825 198.933C203.844 200.191 205.802 200.543 207.327 200.489C208.853 200.435 211.687 199.095 212.484 198.703C212.828 199.961 213.199 201.206 213.625 202.41C213.82 202.924 213.982 203.458 214.198 203.945L214.522 204.716L214.084 204.669C214.084 204.669 214.05 205.386 214.117 206.556C212.437 205.352 210.013 204.317 208.434 205.048C208.092 205.216 207.79 205.454 207.546 205.747C207.303 206.04 207.124 206.381 207.021 206.749C206.918 207.116 206.894 207.501 206.951 207.878C207.007 208.255 207.142 208.616 207.347 208.937C207.45 209.11 207.567 209.273 207.698 209.424C207.996 211.201 208.745 212.871 209.872 214.275C209.959 214.376 211.1 215.431 211.694 215.959C211.12 215.648 210.547 215.337 209.953 214.998C209.096 214.525 208.205 213.99 207.334 213.483L205.984 212.631C205.525 212.347 205.12 212.029 204.681 211.724C204.047 211.264 203.412 210.757 202.778 210.256C203.318 209.411 204.85 206.874 205.073 205.433C205.295 203.993 205.174 201.929 204.047 200.766C203.793 200.478 203.482 200.247 203.133 200.09C202.784 199.932 202.405 199.85 202.022 199.85C201.639 199.85 201.26 199.932 200.911 200.09C200.562 200.247 200.25 200.478 199.997 200.766C198.525 202.525 199.612 206.516 200.706 208.254C200.739 208.308 201.009 208.653 201.327 209.052C200.726 208.545 200.125 208.038 199.531 207.503C197.85 205.981 196.156 204.378 194.509 202.768L193.456 201.774C193.915 201.097 195.596 198.392 195.832 196.822C196.069 195.253 195.934 193.318 194.806 192.162C194.553 191.874 194.241 191.643 193.892 191.485C193.543 191.327 193.164 191.246 192.781 191.246C192.398 191.246 192.02 191.327 191.671 191.485C191.321 191.643 191.01 191.874 190.757 192.162C189.285 193.92 190.372 197.911 191.431 199.643C191.472 199.704 191.796 200.117 192.16 200.57C191.236 199.711 190.304 198.872 189.353 198.067C187.735 196.67 186.023 195.386 184.23 194.225C184.398 193.974 186.437 190.843 186.693 189.131C186.923 187.623 186.794 185.627 185.667 184.47C185.414 184.183 185.102 183.952 184.753 183.794C184.404 183.636 184.025 183.554 183.642 183.554C183.259 183.554 182.881 183.636 182.531 183.794C182.182 183.952 181.871 184.183 181.617 184.47C180.146 186.229 181.233 190.22 182.326 191.952C182.4 192.074 183.575 193.542 184.007 194.056L183.946 194.008C182.158 192.91 180.277 191.973 178.323 191.208C176.582 190.513 174.802 189.921 172.991 189.436C171.317 188.969 169.758 188.644 168.374 188.367C167.625 188.225 166.937 188.11 166.295 188.008L166.329 187.974C166.363 187.974 164.028 186.432 163.872 186.351C162.043 185.438 157.966 184.761 156.373 186.398C156.114 186.678 155.916 187.009 155.793 187.371C155.671 187.732 155.626 188.116 155.661 188.496C155.697 188.876 155.813 189.244 156 189.576C156.188 189.909 156.444 190.197 156.751 190.423C158.014 191.431 160.005 191.357 161.476 190.978C162.948 190.599 165.526 188.597 166.201 188.089C166.876 188.211 167.551 188.346 168.361 188.516C169.711 188.82 171.284 189.192 172.937 189.679C173.383 189.814 173.848 189.977 174.287 190.126C173.464 190.031 172.33 189.929 172.222 189.929C170.197 189.97 166.248 191.242 165.587 193.44C165.487 193.807 165.466 194.191 165.525 194.567C165.583 194.942 165.72 195.302 165.926 195.621C166.133 195.94 166.404 196.212 166.722 196.419C167.041 196.626 167.399 196.763 167.774 196.822C169.36 197.127 171.088 196.146 172.228 195.124C173.369 194.103 174.793 191.032 175.084 190.389C176.096 190.728 177.109 191.106 178.175 191.56C180.088 192.358 181.926 193.325 183.669 194.448L183.96 194.664C183.561 194.549 181.327 194.076 181.165 194.062C179.14 193.873 175.09 194.739 174.186 196.822C174.045 197.177 173.981 197.557 173.997 197.938C174.013 198.319 174.109 198.692 174.28 199.033C174.45 199.374 174.69 199.675 174.984 199.917C175.279 200.158 175.621 200.335 175.988 200.434C177.527 200.922 179.363 200.13 180.598 199.237C182.029 198.216 183.973 194.84 184.027 194.712C185.734 195.879 187.362 197.158 188.9 198.54C190.041 199.555 191.161 200.631 192.275 201.72C191.749 201.584 189.67 201.152 189.515 201.138C187.49 200.949 183.44 201.781 182.535 203.891C182.395 204.245 182.33 204.626 182.346 205.007C182.362 205.388 182.459 205.761 182.629 206.102C182.799 206.443 183.039 206.744 183.334 206.986C183.628 207.227 183.97 207.404 184.338 207.503C185.883 207.99 187.712 207.199 188.954 206.313C190.352 205.312 192.208 202.085 192.363 201.808L193.875 203.303C195.515 204.933 197.148 206.577 198.809 208.153C199.389 208.694 199.977 209.215 200.564 209.729C199.774 209.553 198.33 209.249 198.201 209.242C196.177 209.052 192.127 209.884 191.222 211.995C191.08 212.35 191.015 212.73 191.031 213.112C191.046 213.494 191.142 213.868 191.313 214.21C191.483 214.552 191.723 214.854 192.018 215.096C192.313 215.338 192.656 215.514 193.024 215.614C194.563 216.094 196.399 215.303 197.634 214.417C198.87 213.53 200.503 210.845 200.949 210.081C201.934 210.94 202.926 211.765 203.945 212.536C204.391 212.861 204.823 213.213 205.295 213.503L206.612 214.383C207.53 214.951 208.38 215.485 209.251 215.993L210.533 216.737C209.757 216.432 208.508 215.972 208.407 215.945C206.423 215.445 202.299 215.661 201.09 217.609C200.898 217.938 200.777 218.304 200.736 218.683C200.694 219.062 200.733 219.445 200.85 219.808C200.966 220.17 201.158 220.504 201.412 220.788C201.667 221.071 201.978 221.297 202.326 221.452C203.777 222.169 205.7 221.661 207.05 220.971C208.556 220.214 210.817 217.406 211.1 217.061C212.153 217.664 213.179 218.239 214.151 218.759C216.743 220.146 219.011 221.255 220.766 222.087C226.476 227.032 234.508 227.573 234.508 227.573C234.508 227.573 234.934 217.934 229.27 211.582C227.306 209.477 224.908 207.825 222.244 206.739ZM212.052 216.142C212.227 215.749 213.598 212.685 213.692 210.953C214.009 210.899 214.327 210.831 214.637 210.757C215.217 213.803 216.424 216.694 218.181 219.246C217.141 218.75 216.016 218.2 214.806 217.596C213.935 217.149 213.004 216.656 212.052 216.142Z" fill="#00CCA7"/>
<path d="M264.352 204.892C264.352 204.892 254.721 205.189 248.828 211.325C242.936 217.46 243.01 227.113 243.01 227.113C243.01 227.113 252.635 226.815 258.534 220.68C264.433 214.544 264.352 204.892 264.352 204.892Z" fill="#00CCA7"/>
<g opacity="0.5">
<path opacity="0.5" d="M201.758 167.511C201.758 167.511 204.917 165.008 205.72 163.405C206.395 162.052 206.908 160.111 206.2 158.67C206.046 158.32 205.82 158.008 205.537 157.752C205.253 157.497 204.919 157.304 204.557 157.187C204.194 157.07 203.81 157.032 203.432 157.074C203.053 157.116 202.687 157.238 202.359 157.432C200.415 158.649 200.206 162.782 200.705 164.764C200.746 164.927 201.725 167.538 201.758 167.511Z" fill="white"/>
<path opacity="0.5" d="M172.567 188.352C172.695 188.474 174.949 190.111 174.963 190.07C174.976 190.03 176.218 186.241 176.009 184.456C175.833 182.94 175.185 181.073 173.795 180.228C173.474 180.022 173.113 179.887 172.737 179.831C172.36 179.776 171.976 179.8 171.609 179.904C171.243 180.007 170.902 180.187 170.61 180.432C170.318 180.677 170.081 180.981 169.914 181.324C168.982 183.38 171.061 186.945 172.567 188.352Z" fill="white"/>
<path opacity="0.5" d="M238.719 171.293C238.719 171.293 227.163 183.253 227.244 197.938C227.325 212.624 238.968 224.489 238.968 224.489C238.968 224.489 250.531 212.529 250.443 197.843C250.355 183.158 238.719 171.293 238.719 171.293Z" fill="white"/>
<path opacity="0.5" d="M222.244 206.737C222.395 206.571 222.534 206.394 222.662 206.21C223.499 204.931 224.222 203.071 223.682 201.542C223.571 201.176 223.384 200.838 223.133 200.549C222.882 200.261 222.572 200.029 222.225 199.869C221.878 199.709 221.501 199.625 221.12 199.622C220.738 199.619 220.359 199.697 220.01 199.851C218.437 200.595 217.668 203.112 217.506 205.175C216.878 205.033 216.311 204.925 215.825 204.843C215.623 204.377 215.413 203.903 215.197 203.43C214.981 202.956 214.813 202.449 214.61 201.955C214.333 201.218 214.09 200.447 213.834 199.682C214.752 199.27 217.411 198.025 218.403 196.922C219.396 195.82 220.428 194.061 220.118 192.471C220.062 192.094 219.926 191.733 219.721 191.411C219.515 191.09 219.244 190.816 218.925 190.607C218.607 190.398 218.247 190.259 217.871 190.199C217.495 190.139 217.111 190.16 216.743 190.259C214.549 190.936 213.26 194.846 213.213 196.895C213.213 196.963 213.247 197.396 213.294 197.91C213.078 197.152 212.848 196.395 212.653 195.624C212.086 193.425 211.579 191.166 211.066 188.906C210.958 188.433 210.844 187.966 210.736 187.493C211.505 187.154 214.401 185.829 215.461 184.672C216.52 183.515 217.485 181.811 217.175 180.221C217.119 179.843 216.983 179.482 216.778 179.161C216.572 178.839 216.301 178.565 215.982 178.356C215.664 178.148 215.305 178.009 214.928 177.949C214.552 177.889 214.168 177.909 213.8 178.009C211.606 178.685 210.317 182.595 210.27 184.645C210.27 184.719 210.31 185.233 210.364 185.815C210.067 184.591 209.757 183.373 209.406 182.176C208.82 180.119 208.099 178.103 207.246 176.142C207.523 176.02 210.952 174.539 212.106 173.254C213.125 172.124 214.131 170.392 213.814 168.803C213.757 168.425 213.622 168.064 213.416 167.742C213.211 167.421 212.94 167.147 212.621 166.938C212.302 166.729 211.943 166.59 211.567 166.53C211.191 166.47 210.806 166.491 210.439 166.591C208.245 167.267 206.956 171.177 206.909 173.226C206.909 173.369 207.077 175.256 207.158 175.932C207.156 175.91 207.156 175.887 207.158 175.865C206.274 173.957 205.221 172.132 204.013 170.412C202.939 168.873 201.779 167.396 200.537 165.989C199.396 164.676 198.276 163.54 197.277 162.545C196.73 162.011 196.217 161.531 195.738 161.091H195.785C195.826 161.091 194.719 158.534 194.631 158.385C193.605 156.613 190.581 153.792 188.347 154.279C187.976 154.368 187.629 154.535 187.327 154.769C187.026 155.002 186.777 155.297 186.597 155.634C186.417 155.97 186.31 156.341 186.284 156.722C186.258 157.103 186.312 157.486 186.443 157.844C186.95 159.386 188.644 160.421 190.088 160.922C191.533 161.423 194.813 161.186 195.603 161.118C196.089 161.585 196.609 162.092 197.169 162.667C198.147 163.682 199.241 164.832 200.348 166.171C200.645 166.523 200.949 166.915 201.246 167.294C200.611 166.766 199.72 166.049 199.626 165.995C197.904 164.893 193.922 163.783 192.16 165.251C191.871 165.502 191.637 165.812 191.476 166.16C191.315 166.509 191.23 166.887 191.226 167.271C191.222 167.655 191.3 168.036 191.454 168.387C191.608 168.739 191.835 169.053 192.12 169.31C193.267 170.446 195.259 170.582 196.764 170.358C198.269 170.135 201.158 168.363 201.772 167.971C202.447 168.816 203.075 169.695 203.702 170.676C204.858 172.399 205.858 174.222 206.693 176.122C206.74 176.23 206.774 176.352 206.821 176.467C206.551 176.149 204.944 174.518 204.796 174.437C203.203 173.159 199.396 171.617 197.459 172.881C197.146 173.099 196.883 173.381 196.686 173.707C196.49 174.034 196.364 174.399 196.319 174.778C196.273 175.157 196.307 175.541 196.42 175.906C196.533 176.27 196.721 176.606 196.973 176.893C197.992 178.144 199.95 178.503 201.475 178.442C203.237 178.381 206.699 176.629 206.828 176.561C207.606 178.479 208.26 180.444 208.785 182.446C209.177 183.928 209.521 185.443 209.845 186.965C209.487 186.566 207.989 185.051 207.867 184.936C206.274 183.65 202.467 182.115 200.53 183.373C200.217 183.591 199.954 183.872 199.757 184.199C199.561 184.526 199.436 184.891 199.39 185.27C199.344 185.648 199.378 186.033 199.491 186.397C199.604 186.762 199.792 187.098 200.044 187.384C201.063 188.643 203.021 188.994 204.546 188.94C206.267 188.879 209.595 187.215 209.872 187.073C210.02 187.75 210.169 188.426 210.31 189.15C210.783 191.416 211.242 193.696 211.762 195.914C211.944 196.686 212.146 197.436 212.349 198.201C211.789 197.612 210.749 196.564 210.648 196.483C209.055 195.197 205.248 193.662 203.311 194.92C202.998 195.138 202.735 195.419 202.538 195.746C202.342 196.073 202.216 196.438 202.171 196.816C202.125 197.195 202.159 197.58 202.272 197.944C202.385 198.309 202.573 198.645 202.825 198.931C203.844 200.19 205.802 200.541 207.327 200.487C208.853 200.433 211.687 199.094 212.484 198.701C212.828 199.96 213.199 201.204 213.625 202.408C213.82 202.922 213.982 203.457 214.198 203.944L214.522 204.715L214.084 204.668C214.084 204.668 214.05 205.385 214.117 206.555C212.437 205.351 210.013 204.316 208.434 205.046C208.092 205.214 207.79 205.452 207.546 205.745C207.303 206.038 207.124 206.38 207.021 206.747C206.918 207.114 206.894 207.499 206.951 207.876C207.007 208.254 207.142 208.615 207.347 208.936C207.45 209.108 207.567 209.271 207.698 209.423C207.996 211.2 208.745 212.87 209.872 214.273C209.959 214.375 211.1 215.43 211.694 215.957C211.12 215.646 210.547 215.335 209.953 214.997C209.096 214.523 208.205 213.989 207.334 213.482L205.984 212.629C205.525 212.345 205.12 212.027 204.681 211.723C204.047 211.263 203.412 210.756 202.778 210.255C203.318 209.409 204.85 206.873 205.073 205.432C205.295 203.991 205.174 201.928 204.047 200.765C203.793 200.477 203.482 200.246 203.133 200.088C202.784 199.93 202.405 199.848 202.022 199.848C201.639 199.848 201.26 199.93 200.911 200.088C200.562 200.246 200.25 200.477 199.997 200.765C198.525 202.523 199.612 206.514 200.706 208.253C200.739 208.307 201.009 208.652 201.327 209.051C200.726 208.544 200.125 208.036 199.531 207.502C197.85 205.98 196.156 204.377 194.509 202.767L193.456 201.772C193.915 201.096 195.596 198.39 195.832 196.821C196.069 195.251 195.934 193.317 194.806 192.16C194.553 191.872 194.241 191.642 193.892 191.484C193.543 191.326 193.164 191.244 192.781 191.244C192.398 191.244 192.02 191.326 191.671 191.484C191.321 191.642 191.01 191.872 190.757 192.16C189.285 193.919 190.372 197.91 191.431 199.642C191.472 199.702 191.796 200.115 192.16 200.568C191.236 199.709 190.304 198.87 189.353 198.065C187.735 196.669 186.023 195.385 184.23 194.223C184.398 193.973 186.437 190.841 186.693 189.13C186.923 187.621 186.794 185.626 185.667 184.469C185.414 184.181 185.102 183.95 184.753 183.793C184.404 183.635 184.025 183.553 183.642 183.553C183.259 183.553 182.881 183.635 182.531 183.793C182.182 183.95 181.871 184.181 181.617 184.469C180.146 186.228 181.233 190.219 182.326 191.95C182.4 192.072 183.575 193.54 184.007 194.054L183.946 194.007C182.158 192.908 180.277 191.971 178.323 191.206C176.582 190.511 174.802 189.919 172.991 189.434C171.317 188.967 169.758 188.643 168.374 188.365C167.625 188.223 166.937 188.108 166.295 188.007L166.329 187.973C166.363 187.973 164.028 186.431 163.872 186.349C162.043 185.436 157.966 184.76 156.373 186.397C156.114 186.676 155.916 187.008 155.793 187.369C155.671 187.731 155.626 188.114 155.661 188.494C155.697 188.874 155.813 189.243 156 189.575C156.188 189.907 156.444 190.196 156.751 190.422C158.014 191.43 160.005 191.355 161.476 190.976C162.948 190.598 165.526 188.595 166.201 188.088C166.876 188.21 167.551 188.345 168.361 188.514C169.711 188.819 171.284 189.191 172.937 189.678C173.383 189.813 173.848 189.975 174.287 190.124C173.464 190.029 172.33 189.928 172.222 189.928C170.197 189.968 166.248 191.24 165.587 193.439C165.487 193.806 165.466 194.189 165.525 194.565C165.583 194.941 165.72 195.3 165.926 195.619C166.133 195.938 166.404 196.21 166.722 196.417C167.041 196.624 167.399 196.762 167.774 196.821C169.36 197.125 171.088 196.144 172.228 195.123C173.369 194.102 174.793 191.03 175.084 190.388C176.096 190.726 177.109 191.105 178.175 191.558C180.088 192.357 181.926 193.324 183.669 194.447L183.96 194.663C183.561 194.548 181.327 194.074 181.165 194.061C179.14 193.872 175.09 194.737 174.186 196.821C174.045 197.175 173.981 197.555 173.997 197.936C174.013 198.317 174.109 198.69 174.28 199.032C174.45 199.373 174.69 199.674 174.984 199.915C175.279 200.157 175.621 200.333 175.988 200.433C177.527 200.92 179.363 200.129 180.598 199.236C182.029 198.214 183.973 194.839 184.027 194.71C185.734 195.878 187.362 197.157 188.9 198.539C190.041 199.554 191.161 200.629 192.275 201.718C191.749 201.583 189.67 201.15 189.515 201.137C187.49 200.947 183.44 201.779 182.535 203.89C182.395 204.244 182.33 204.624 182.346 205.005C182.362 205.386 182.459 205.759 182.629 206.1C182.799 206.441 183.039 206.743 183.334 206.984C183.628 207.226 183.97 207.402 184.338 207.502C185.883 207.989 187.712 207.197 188.954 206.311C190.352 205.31 192.208 202.084 192.363 201.806L193.875 203.301C195.515 204.931 197.148 206.575 198.809 208.151C199.389 208.692 199.977 209.213 200.564 209.727C199.774 209.552 198.33 209.247 198.201 209.24C196.177 209.051 192.127 209.883 191.222 211.993C191.08 212.348 191.015 212.729 191.031 213.111C191.046 213.492 191.142 213.867 191.313 214.208C191.483 214.55 191.723 214.852 192.018 215.094C192.313 215.336 192.656 215.513 193.024 215.612C194.563 216.093 196.399 215.301 197.634 214.415C198.87 213.529 200.503 210.844 200.949 210.079C201.934 210.938 202.926 211.763 203.945 212.535C204.391 212.859 204.823 213.211 205.295 213.502L206.612 214.381C207.53 214.95 208.38 215.484 209.251 215.991L210.533 216.735C209.757 216.431 208.508 215.971 208.407 215.944C206.423 215.443 202.299 215.66 201.09 217.608C200.898 217.937 200.777 218.302 200.736 218.681C200.694 219.06 200.733 219.443 200.85 219.806C200.966 220.169 201.158 220.503 201.412 220.786C201.667 221.069 201.978 221.296 202.326 221.45C203.777 222.167 205.7 221.66 207.05 220.97C208.556 220.212 210.817 217.405 211.1 217.06C212.153 217.662 213.179 218.237 214.151 218.758C216.743 220.145 219.011 221.254 220.766 222.086C226.476 227.031 234.508 227.572 234.508 227.572C234.508 227.572 234.934 217.933 229.27 211.581C227.306 209.476 224.908 207.823 222.244 206.737ZM212.052 216.14C212.227 215.748 213.598 212.683 213.692 210.952C214.009 210.898 214.327 210.83 214.637 210.756C215.217 213.801 216.424 216.693 218.181 219.245C217.141 218.749 216.016 218.199 214.806 217.594C213.935 217.148 213.004 216.654 212.052 216.14Z" fill="white"/>
<path opacity="0.5" d="M264.347 204.892C264.347 204.892 254.715 205.189 248.823 211.325C242.93 217.46 243.004 227.113 243.004 227.113C243.004 227.113 252.629 226.815 258.529 220.68C264.428 214.544 264.347 204.892 264.347 204.892Z" fill="white"/>
</g>
<path d="M239.202 211.109L248.658 202.585L248.253 202.139L239.195 210.297L239.148 199.129L239.195 199.163L247.193 187.44L246.694 187.101L239.141 198.161L239.026 171.293L238.425 171.3L238.5 189.537L232.479 184.315L232.081 184.775L238.506 190.342L238.56 203.384L229.435 195.286L229.03 195.746L238.56 204.195L238.614 216.067L231.757 210.676L231.379 211.156L238.621 216.845L238.648 224.489L239.256 224.482L239.202 211.109Z" fill="white"/>
<path d="M230.487 214.397L229.887 214.329L229.124 221.08L225.06 216.527H225.074L224.041 208.363L223.441 208.437L224.359 215.743L214.268 204.433L213.815 204.838L220.66 212.509L216.326 212.564L216.333 213.172L221.2 213.111L226.005 218.496L219.222 218.503V219.111L226.545 219.098L230.912 223.995L226.127 224.28L226.167 224.888L231.425 224.57L234.335 227.824L234.787 227.418L229.664 221.682L230.487 214.397Z" fill="white"/>
<path d="M253.342 216.804L261.388 215.167L261.267 214.572L254.071 216.033L264.567 205.102L264.129 204.682L257.008 212.103L256.63 207.767L256.029 207.821L256.447 212.678L251.453 217.879L250.94 211.102L250.332 211.149L250.892 218.468L246.35 223.196L245.709 218.441L245.101 218.522L245.81 223.751L242.786 226.903L243.225 227.323L248.55 221.776L255.86 222.06L255.887 221.451L249.117 221.194L253.336 216.797L253.342 216.804Z" fill="white"/>
<path d="M92.6571 217.257C92.6571 217.257 88.2226 222.445 87.6691 224.292C87.1156 226.138 88.776 227.444 91.9214 227.261C95.0668 227.079 97.2807 222.445 98.2054 221.329C99.1301 220.213 101.351 218.921 101.715 216.33C102.08 213.739 93.7708 215.031 92.6571 217.257Z" fill="#253137" stroke="#253137" stroke-width="0.650235" stroke-linecap="round" stroke-linejoin="round"/>
<path d="M101.715 216.33C101.756 216.095 101.705 215.853 101.574 215.654C100.757 217.906 99.0762 220.057 98.1987 220.389C97.3213 220.72 95.6068 223.913 93.0217 225.577C91.2533 226.714 88.8909 225.787 87.5612 225.077C87.6489 226.49 89.2418 227.404 91.9147 227.248C95.0534 227.059 97.274 222.432 98.1987 221.316C99.1235 220.2 101.351 218.921 101.715 216.33Z" fill="#253137" stroke="#253137" stroke-width="0.650235" stroke-linecap="round" stroke-linejoin="round"/>
<path d="M145.996 217.257C145.996 217.257 150.437 222.445 150.991 224.292C151.544 226.138 149.877 227.444 146.738 227.261C143.6 227.079 141.339 222.445 140.448 221.329C139.557 220.213 137.309 218.921 136.938 216.33C136.566 213.739 144.889 215.031 145.996 217.257Z" fill="#253137" stroke="#253137" stroke-width="0.650235" stroke-linecap="round" stroke-linejoin="round"/>
<path d="M136.937 216.33C136.895 216.094 136.948 215.851 137.085 215.654C137.895 217.906 139.583 220.057 140.46 220.389C141.338 220.72 143.052 223.913 145.637 225.577C147.406 226.714 149.768 225.787 151.098 225.077C151.017 226.49 149.417 227.404 146.751 227.248C143.606 227.059 141.351 222.432 140.46 221.316C139.569 220.2 137.308 218.921 136.937 216.33Z" fill="#253137" stroke="#253137" stroke-width="0.650235" stroke-linecap="round" stroke-linejoin="round"/>
<path d="M109.891 123.374C109.891 123.374 107.637 138.513 107.448 139.068C107.259 139.622 100.61 173.343 99.3144 180.195C98.0185 187.048 96.1758 193.907 95.9868 197.986C95.7978 202.065 94.5086 212.435 94.5086 212.435C93.9344 213.288 93.4972 214.226 93.2127 215.215C93.0944 215.908 92.909 216.587 92.6592 217.244C93.9337 217.583 95.2307 217.829 96.5403 217.982C98.3897 218.171 100.428 217.244 101.164 217.244C101.9 217.244 103.385 211.684 103.938 209.276C104.491 206.868 107.266 195.382 107.819 193.339C108.373 191.296 115.399 163.697 115.399 163.697L121.744 146.962L124.518 145.852L128.71 177.408L135.554 213.382L137.032 218.57C138.343 218.976 139.71 219.166 141.082 219.132C142.749 218.942 145.894 217.102 145.894 217.102C145.894 217.102 146.259 214.694 145.705 213.957C145.152 213.219 143.856 211.177 143.856 211.177C143.856 211.177 142.749 187.643 141.831 182.272C140.913 176.901 139.806 170.225 139.806 170.225C139.806 170.225 138.328 146.698 138.328 140.955C138.328 135.212 135.709 123.577 135.709 123.577C135.709 123.577 122.318 126.797 109.891 123.374Z" fill="#253137" stroke="#253137" stroke-width="0.650235" stroke-linecap="round" stroke-linejoin="round"/>
<path d="M120.205 126.282L120.394 129.989C120.394 129.989 124.444 130.726 126.678 129.434V125.91L120.205 126.282Z" fill="#80E6D3" stroke="#253137" stroke-width="0.650235" stroke-linecap="round" stroke-linejoin="round"/>
<path d="M123.005 132.816L122.775 144.545" stroke="#80E6D3" stroke-width="0.487676" stroke-linecap="round" stroke-linejoin="round"/>
<path d="M123.233 138.337L124.61 137.187L124.839 132.127" stroke="#80E6D3" stroke-width="0.487676" stroke-linecap="round" stroke-linejoin="round"/>
<path d="M112.22 127.757C112.22 127.757 113.368 131.437 111.761 132.817C110.883 133.602 109.873 134.225 108.778 134.657" stroke="#80E6D3" stroke-width="0.487676" stroke-linecap="round" stroke-linejoin="round"/>
<path d="M132.415 127.527C132.415 127.527 133.562 131.207 136.775 131.667" stroke="#80E6D3" stroke-width="0.487676" stroke-linecap="round" stroke-linejoin="round"/>
<path d="M114.31 82.9568C114.31 82.9568 103.511 80.9274 102.161 80.5892C100.811 80.251 88.3238 69.7661 88.3238 69.7661L79.6977 48.0049L75.1888 49.2225C75.1888 49.2225 76.0056 62.4943 76.5388 66.2148C77.072 69.9352 79.9137 77.207 80.2511 77.8834C80.5886 78.5599 82.2761 80.5892 82.951 80.7583C83.626 80.9274 91.5569 86.8463 93.4131 87.861C95.2693 88.8757 102.694 93.2725 102.694 93.2725C102.694 93.2725 106.406 102.743 106.913 104.603C107.419 106.463 109.781 118.47 109.95 119.823C110.119 121.176 109.275 122.191 109.95 123.374C110.625 124.558 115.518 127.94 122.268 127.94C129.018 127.94 135.093 125.573 135.768 123.543C136.443 121.514 135.43 115.257 135.43 114.75C135.43 114.242 136.105 106.801 136.105 106.801C136.105 106.801 139.649 114.073 141.167 116.441C142.686 118.808 145.049 122.021 146.736 122.021C148.423 122.021 169.854 108.831 169.854 108.831L168.841 104.603C165.719 106.024 162.431 107.047 159.054 107.647C154.329 108.323 147.917 110.015 147.917 110.015C147.917 110.015 141.674 96.3166 140.999 93.7799C140.324 91.2432 139.311 86.6772 138.468 85.8317C137.624 84.9861 126.149 83.295 124.631 83.295C123.112 83.295 114.31 82.9568 114.31 82.9568Z" fill="#80E6D3"/>
<path d="M135.71 123.541C136.385 121.512 135.372 115.255 135.372 114.748C135.372 114.403 135.683 110.865 135.885 108.626L135.791 109.302C135.791 109.302 134.265 116.195 134.265 119.003C134.265 121.81 134.515 125.131 129.932 126.153C125.349 127.174 121.529 122.574 117.452 119.003C113.375 115.431 111.087 111.345 110.58 108.795C110.074 106.245 115.926 112.367 115.926 112.367C115.926 112.367 110.324 104.459 108.542 100.116C106.76 95.7735 103.703 85.823 103.703 85.823L103.959 93.4803L100.395 88.3799C100.395 88.3799 99.3759 85.823 98.3702 83.5298C97.3645 81.2367 96.0753 85.823 96.0753 85.823C96.0753 85.823 89.9668 74.8511 88.1849 73.3155C86.4029 71.78 89.1973 82.2513 89.1973 82.2513C86.4488 80.0935 83.815 77.7927 81.3069 75.3584C79.96 74.014 78.7441 72.5439 77.6755 70.9683C78.688 74.2084 79.9839 77.4554 80.2067 77.8951C80.5442 78.5715 82.2316 80.6008 82.9066 80.7699C83.5816 80.9391 91.5125 86.8579 93.3687 87.8726C95.2248 88.8873 102.65 93.2842 102.65 93.2842C102.65 93.2842 106.362 102.754 106.868 104.615C107.374 106.475 109.737 118.482 109.906 119.835C110.074 121.187 109.231 122.202 109.906 123.386C110.58 124.57 115.474 127.952 122.224 127.952C128.974 127.952 135.035 125.571 135.71 123.541Z" fill="#00CCA7"/>
<path d="M147.509 118.003C145.484 117.495 139.106 108.052 139.106 107.031C139.106 106.009 139.868 101.159 139.868 101.159L137.574 103.709L138.087 99.1162L137.067 100.138L136.116 106.976C136.615 107.991 139.713 114.296 141.11 116.447C142.629 118.814 144.992 122.027 146.679 122.027C147.739 122.027 156.635 116.798 163.074 112.922C157.013 115.256 148.771 118.287 147.509 118.003Z" fill="#00CCA7"/>
<g opacity="0.5">
<path opacity="0.5" d="M135.71 123.542C136.385 121.512 135.372 115.255 135.372 114.748C135.372 114.403 135.683 110.865 135.885 108.626L135.791 109.302C135.791 109.302 134.266 116.195 134.266 119.003C134.266 121.81 134.515 125.131 129.932 126.153C125.349 127.174 121.529 122.574 117.452 119.003C113.375 115.431 111.087 111.345 110.581 108.795C110.074 106.245 115.927 112.367 115.927 112.367C115.927 112.367 110.324 104.459 108.542 100.116C106.76 95.7735 103.703 85.823 103.703 85.823L103.959 93.4803L100.395 88.38C100.395 88.38 99.3762 85.823 98.3705 83.5298C97.3648 81.2367 96.0755 85.823 96.0755 85.823C96.0755 85.823 89.967 74.8511 88.1851 73.3155C86.4032 71.78 89.1976 82.2514 89.1976 82.2514C86.449 80.0935 83.8153 77.7927 81.3071 75.3584C79.9603 74.014 78.7443 72.5439 77.6758 70.9683C78.6882 74.2084 79.9842 77.4554 80.2069 77.8951C80.5444 78.5715 82.2319 80.6008 82.9068 80.7699C83.5818 80.9391 91.5127 86.858 93.3689 87.8726C95.2251 88.8873 102.65 93.2842 102.65 93.2842C102.65 93.2842 106.362 102.754 106.868 104.615C107.375 106.475 109.737 118.482 109.906 119.835C110.074 121.188 109.231 122.202 109.906 123.386C110.581 124.57 115.474 127.952 122.224 127.952C128.974 127.952 135.035 125.571 135.71 123.542Z" fill="#80E6D3"/>
<path opacity="0.5" d="M147.509 118.001C145.484 117.494 139.106 108.051 139.106 107.029C139.106 106.008 139.868 101.158 139.868 101.158L137.574 103.708L138.087 99.1147L137.067 100.136L136.116 106.975C136.615 107.99 139.713 114.294 141.11 116.445C142.629 118.813 144.992 122.026 146.679 122.026C147.739 122.026 156.635 116.797 163.074 112.921C157.013 115.255 148.771 118.285 147.509 118.001Z" fill="#80E6D3"/>
</g>
<path d="M114.31 82.9568C114.31 82.9568 103.511 80.9274 102.161 80.5892C100.811 80.251 88.3238 69.7661 88.3238 69.7661L79.6977 48.0049L75.1888 49.2225C75.1888 49.2225 76.0056 62.4943 76.5388 66.2148C77.072 69.9352 79.9137 77.207 80.2511 77.8834C80.5886 78.5599 82.2761 80.5892 82.951 80.7583C83.626 80.9274 91.5569 86.8463 93.4131 87.861C95.2693 88.8757 102.694 93.2725 102.694 93.2725C102.694 93.2725 106.406 102.743 106.913 104.603C107.419 106.463 109.781 118.47 109.95 119.823C110.119 121.176 109.275 122.191 109.95 123.374C110.625 124.558 115.518 127.94 122.268 127.94C129.018 127.94 135.093 125.573 135.768 123.543C136.443 121.514 135.43 115.257 135.43 114.75C135.43 114.242 136.105 106.801 136.105 106.801C136.105 106.801 139.649 114.073 141.167 116.441C142.686 118.808 145.049 122.021 146.736 122.021C148.423 122.021 169.854 108.831 169.854 108.831L168.841 104.603C165.719 106.024 162.431 107.047 159.054 107.647C154.329 108.323 147.917 110.015 147.917 110.015C147.917 110.015 141.674 96.3165 140.999 93.7799C140.324 91.2432 139.311 86.6772 138.468 85.8317C137.624 84.9861 126.149 83.295 124.631 83.295C123.112 83.295 114.31 82.9568 114.31 82.9568Z" stroke="#253137" stroke-width="0.650235" stroke-linecap="round" stroke-linejoin="round"/>
<path d="M165.925 106.077L167.531 110.169" stroke="#253137" stroke-width="0.650235" stroke-linecap="round" stroke-linejoin="round"/>
<path d="M75.3512 52.293L80.643 50.8252" stroke="#253137" stroke-width="0.650235" stroke-linecap="round" stroke-linejoin="round"/>
<path d="M112.288 111.029C112.288 111.029 121.4 121.514 130.85 123.881" stroke="#253137" stroke-width="0.650235" stroke-linecap="round" stroke-linejoin="round"/>
<path d="M137.772 95.4162L138.069 93.4409" stroke="#253137" stroke-width="0.650235" stroke-linecap="round" stroke-linejoin="round"/>
<path d="M136.047 106.801L137.484 97.3237" stroke="#253137" stroke-width="0.650235" stroke-linecap="round" stroke-linejoin="round"/>
<path d="M136.214 105.279L139.589 97.8384" stroke="#253137" stroke-width="0.650235" stroke-linecap="round" stroke-linejoin="round"/>
<path d="M100.239 81.8598L99.9354 80.4189" stroke="#253137" stroke-width="0.650235" stroke-linecap="round" stroke-linejoin="round"/>
<path d="M102.637 93.2723L100.652 83.8291" stroke="#253137" stroke-width="0.650235" stroke-linecap="round" stroke-linejoin="round"/>
<path d="M96.1406 79.0326L95.2091 77.0371" stroke="#253137" stroke-width="0.650235" stroke-linecap="round" stroke-linejoin="round"/>
<path d="M102.296 92.257L96.9032 80.6694" stroke="#253137" stroke-width="0.650235" stroke-linecap="round" stroke-linejoin="round"/>
<path d="M87.9878 70.6108C87.9878 70.6108 89.6752 77.3753 91.8689 80.7575" stroke="#253137" stroke-width="0.650235" stroke-linecap="round" stroke-linejoin="round"/>
<path d="M150.223 114.58L147.86 110.014L152.416 113.734" stroke="#253137" stroke-width="0.650235" stroke-linecap="round" stroke-linejoin="round"/>
<path d="M117.82 89.7198L121.026 94.7931L120.52 123.373L123.895 128.446L126.763 121.174L122.038 94.2858L124.063 90.2271L121.363 85.6611L117.82 89.7198Z" fill="#253137" stroke="#253137" stroke-width="0.650235" stroke-linecap="round" stroke-linejoin="round"/>
<path d="M116.892 79.9869C116.892 79.9869 114.752 79.872 114.084 80.7716C113.61 81.5646 113.302 82.4462 113.18 83.3624C113.18 83.3624 114.192 86.9611 114.422 88.314C114.651 89.6669 115.427 93.0491 115.427 93.0491L121.273 88.8822L127.901 92.7109C127.901 92.7109 126.666 85.3918 126.213 83.031C125.761 80.6702 124.641 80.1019 122.731 79.8787C120.784 79.7761 118.833 79.8122 116.892 79.9869Z" fill="#80E6D3" stroke="#253137" stroke-width="0.650235" stroke-linecap="round" stroke-linejoin="round"/>
<path d="M114.527 75.1432C114.527 75.1432 115.762 81.1094 116.214 82.2323C116.666 83.3552 120.48 88.8751 121.27 88.8751C122.059 88.8751 124.53 82.787 124.644 81.7859C124.759 80.7847 124.759 78.4037 124.759 78.4037C124.759 78.4037 120.939 79.4183 119.143 78.1804C117.348 76.9425 115.769 73.9053 115.094 73.9053C114.419 73.9053 114.527 75.1432 114.527 75.1432Z" fill="#80E6D3"/>
<path d="M119.138 78.1818C117.336 76.944 115.763 73.9067 115.088 73.9067C114.414 73.9067 114.528 75.1446 114.528 75.1446C114.528 75.1446 115.203 78.3104 115.716 80.4682C116.972 81.6628 118.553 82.4583 120.259 82.7546C121.81 82.8732 123.356 82.4761 124.66 81.6249C124.754 80.5426 124.754 78.4051 124.754 78.4051C124.754 78.4051 120.934 79.4468 119.138 78.1818Z" fill="#00CCA7"/>
<path opacity="0.5" d="M119.138 78.1818C117.336 76.944 115.763 73.9067 115.088 73.9067C114.414 73.9067 114.528 75.1446 114.528 75.1446C114.528 75.1446 115.203 78.3104 115.716 80.4682C116.972 81.6628 118.553 82.4583 120.259 82.7546C121.81 82.8732 123.356 82.4761 124.66 81.6249C124.754 80.5426 124.754 78.4051 124.754 78.4051C124.754 78.4051 120.934 79.4468 119.138 78.1818Z" fill="#80E6D3"/>
<path d="M114.527 75.1432C114.527 75.1432 115.762 81.1094 116.214 82.2323C116.666 83.3552 120.48 88.8751 121.27 88.8751C122.059 88.8751 124.53 82.787 124.644 81.7859C124.759 80.7847 124.759 78.4037 124.759 78.4037C124.759 78.4037 120.939 79.4183 119.143 78.1804C117.348 76.9425 115.769 73.9053 115.094 73.9053C114.419 73.9053 114.527 75.1432 114.527 75.1432Z" stroke="#253137" stroke-width="0.650235" stroke-linecap="round" stroke-linejoin="round"/>
<path d="M127.899 61.7441C127.899 61.7441 128.237 67.2639 128.574 69.7397C128.912 72.2155 129.02 75.1513 127.784 77.0588C126.549 78.9664 125.314 80.2111 122.729 80.5493C120.144 80.8875 116.89 79.3114 115.878 77.7353C114.865 76.1592 113.968 74.583 113.968 74.583C113.223 74.5596 112.493 74.3652 111.835 74.0148C110.822 73.4534 109.925 70.8626 110.262 69.8479C110.6 68.8333 112.287 68.725 112.287 68.725C112.287 68.725 111.504 65.2346 111.052 62.867C110.818 61.6323 111.059 60.3549 111.727 59.291C112.394 58.2271 113.438 57.4554 114.649 57.1307C117.457 56.2243 121.615 56.3393 123.748 57.469C125.881 58.5986 127.339 59.8298 127.899 61.7441Z" fill="#80E6D3"/>
<path d="M118.984 62.0749C120.557 63.2046 123.331 66.5192 128.177 65.6871C128.015 63.6578 127.901 61.7435 127.901 61.7435C127.34 59.8292 125.876 58.5913 123.743 57.4616C121.61 56.3319 117.452 56.2237 114.644 57.1301C113.957 57.3285 113.318 57.667 112.767 58.1244C112.217 58.5819 111.766 59.1485 111.445 59.7886L113.294 61.2903C113.294 61.2903 117.202 60.8032 118.984 62.0749Z" fill="#00CCA7"/>
<path opacity="0.5" d="M118.984 62.0749C120.557 63.2046 123.331 66.5192 128.177 65.6871C128.015 63.6578 127.901 61.7435 127.901 61.7435C127.34 59.8292 125.876 58.5913 123.743 57.4616C121.61 56.3319 117.452 56.2237 114.644 57.1301C113.957 57.3285 113.318 57.667 112.767 58.1244C112.217 58.5819 111.766 59.1485 111.445 59.7886L113.294 61.2903C113.294 61.2903 117.202 60.8032 118.984 62.0749Z" fill="#80E6D3"/>
<path d="M127.899 61.7441C127.899 61.7441 128.237 67.2639 128.574 69.7397C128.912 72.2155 129.02 75.1513 127.784 77.0588C126.549 78.9664 125.314 80.2111 122.729 80.5493C120.144 80.8875 116.89 79.3114 115.878 77.7353C114.865 76.1592 113.968 74.583 113.968 74.583C113.223 74.5596 112.493 74.3652 111.835 74.0148C110.822 73.4534 109.925 70.8626 110.262 69.8479C110.6 68.8333 112.287 68.725 112.287 68.725C112.287 68.725 111.504 65.2346 111.052 62.867C110.818 61.6323 111.059 60.3549 111.727 59.291C112.394 58.2271 113.438 57.4554 114.649 57.1307C117.457 56.2243 121.615 56.3393 123.748 57.469C125.881 58.5986 127.339 59.8298 127.899 61.7441Z" stroke="#253137" stroke-width="0.650235" stroke-linecap="round" stroke-linejoin="round"/>
<path d="M126.327 64.3334C125.926 64.2814 125.518 64.3148 125.131 64.4313C124.744 64.5479 124.385 64.745 124.079 65.0098C123.067 65.9095 124.531 70.1846 124.531 70.861C124.531 71.5375 122.392 72.0989 122.392 72.0989" stroke="#253137" stroke-width="0.650235" stroke-linecap="round" stroke-linejoin="round"/>
<path d="M124.531 75.1444C124.531 75.1444 121.52 75.8209 120.332 74.0215" stroke="#253137" stroke-width="0.650235" stroke-linecap="round" stroke-linejoin="round"/>
<path d="M120.387 65.6875C120.104 65.4864 119.783 65.3466 119.443 65.2771C119.104 65.2076 118.754 65.2098 118.415 65.2837C118.076 65.3575 117.757 65.5014 117.477 65.706C117.197 65.9107 116.963 66.1716 116.789 66.4722" stroke="#253137" stroke-width="0.650235" stroke-linecap="round" stroke-linejoin="round"/>
<path d="M120.081 68.8724C120.149 69.3594 119.926 69.7992 119.589 69.8397C119.251 69.8803 118.914 69.5218 118.86 69.028C118.806 68.5342 119.015 68.1012 119.352 68.0539C119.69 68.0065 120.02 68.3786 120.081 68.8724Z" fill="#253137"/>
<path d="M126.265 68.1961C126.326 68.6899 126.103 69.1228 125.766 69.1634C125.428 69.204 125.091 68.8455 125.037 68.3517C124.983 67.8579 125.199 67.425 125.536 67.3776C125.874 67.3302 126.198 67.7023 126.265 68.1961Z" fill="#253137"/>
<path d="M117.673 70.3003L119.36 70.1855" stroke="#253137" stroke-width="0.325117" stroke-linecap="round" stroke-linejoin="round"/>
<path d="M127.561 68.9478L125.765 69.516" stroke="#253137" stroke-width="0.325117" stroke-linecap="round" stroke-linejoin="round"/>
<path d="M111.612 67.3719L113.185 72.2153C113.392 72.2498 113.605 72.2131 113.789 72.1112C113.973 72.0093 114.117 71.8481 114.197 71.6538C114.427 70.9774 112.962 68.1634 113.185 67.8252C113.408 67.4869 114.987 66.9255 114.758 65.6876C114.528 64.4497 113.3 62.4204 113.3 61.2907C113.3 60.1611 115.547 59.2614 116.783 59.2614C118.018 59.2614 119.813 60.6143 121.278 61.8522C122.743 63.0901 122.513 60.9457 122.513 60.9457C122.513 60.9457 126.894 63.1983 129.364 62.5286C131.834 61.8589 129.256 57.7935 129.256 57.7935C129.256 57.7935 132.172 55.6559 130.937 53.4034C129.702 51.1508 123.188 50.0212 117.91 51.1508C112.631 52.2805 110.708 54.2016 110.262 55.0945C109.984 55.6621 109.792 56.2688 109.695 56.8938C108.196 57.7731 107.075 59.1782 106.55 60.8375C105.875 63.4283 108.575 65.5726 109.695 65.9041C110.464 66.1942 111.131 66.7047 111.612 67.3719Z" fill="#253137" stroke="#253137" stroke-width="0.650235" stroke-linecap="round" stroke-linejoin="round"/>
<path d="M125.07 55.879C122.579 54.8711 119.15 53.8971 116.767 54.8035C112.603 56.3999 113.595 58.5848 113.595 58.5848C113.595 58.5848 119.312 55.7708 122.505 60.9523" stroke="#80E6D3" stroke-width="0.487676" stroke-linecap="round" stroke-linejoin="round"/>
<path d="M128.277 57.3884C128.277 57.3884 127.73 57.084 126.852 56.6646" stroke="#80E6D3" stroke-width="0.487676" stroke-linecap="round" stroke-linejoin="round"/>
<path d="M168.78 104.602C168.78 104.602 169.623 101.22 170.298 100.375C170.973 99.529 172.492 99.0216 172.998 98.007C173.504 96.9923 174.179 95.6394 174.686 96.3159C174.927 96.5815 175.085 96.9122 175.14 97.2669C175.195 97.6217 175.145 97.9848 174.996 98.3114C174.711 98.9944 174.301 99.6184 173.788 100.151C173.476 100.476 173.244 100.87 173.113 101.301C173.111 101.444 173.071 101.584 172.998 101.707L183.049 97.7905C183.198 97.86 183.328 97.9646 183.427 98.0954C183.527 98.2261 183.594 98.3791 183.622 98.5414C183.737 99.1163 182.995 99.4613 182.65 99.5763C182.306 99.6913 178.115 101.606 178.115 101.606L178.574 102.35L185.053 101.633C185.237 101.624 185.416 101.684 185.558 101.802C185.699 101.919 185.791 102.085 185.816 102.267C185.842 102.449 185.798 102.634 185.695 102.786C185.591 102.938 185.434 103.045 185.256 103.087L178.857 104.196L178.688 104.941L185.721 105.617C185.89 105.644 186.042 105.733 186.147 105.867C186.252 106.002 186.302 106.171 186.288 106.341C186.267 106.493 186.191 106.632 186.074 106.732C185.957 106.832 185.807 106.885 185.654 106.882L178.628 106.78C179.795 107.457 180.254 107.687 181.442 108.329C183.467 109.425 184.027 110.068 182.529 110C182.014 109.9 181.513 109.736 181.037 109.513L177.926 108.532C177.926 108.532 176.576 108.647 175.401 108.817C174.227 108.986 172.701 109.337 172.067 109.337C171.296 109.245 170.535 109.087 169.792 108.864L168.78 104.602Z" fill="#80E6D3" stroke="#253137" stroke-width="0.650235" stroke-linecap="round" stroke-linejoin="round"/>
<path d="M172.987 101.707V104.067C172.987 104.744 172.414 105.332 171.327 105.677" stroke="#253137" stroke-width="0.650235" stroke-linecap="round" stroke-linejoin="round"/>
<path d="M79.3138 47.991C79.3138 47.991 81.818 45.5761 82.2162 44.5682C82.6145 43.5603 82.2972 41.991 82.8912 41.0439C83.4852 40.0969 84.3559 38.8387 83.5122 38.7373C83.1637 38.6585 82.7998 38.6846 82.4661 38.8121C82.1323 38.9397 81.8435 39.1631 81.6358 39.4543C81.1872 40.0438 80.8508 40.7111 80.6435 41.4227C80.518 41.8625 80.2862 42.2645 79.9686 42.593C79.847 42.6674 79.7469 42.7723 79.6783 42.8974L78.0584 32.2096C77.9314 32.1257 77.7871 32.0717 77.6362 32.0518C77.4854 32.0319 77.332 32.0465 77.1877 32.0946C76.6275 32.2772 76.7017 33.1025 76.776 33.4475C76.8502 33.7925 77.2957 38.399 77.2957 38.399H76.4182L73.8128 32.3787C73.7346 32.2077 73.5936 32.0736 73.4192 32.0042C73.2449 31.9348 73.0505 31.9355 72.8766 32.0061C72.7026 32.0767 72.5626 32.2117 72.4855 32.3832C72.4085 32.5547 72.4004 32.7493 72.4629 32.9266L74.6903 39.0146L74.1301 39.5422L70.033 33.7654C69.9336 33.649 69.7956 33.5725 69.6444 33.5499C69.4932 33.5273 69.339 33.5602 69.2101 33.6425C69.0811 33.7248 68.9862 33.851 68.9427 33.9979C68.8992 34.1447 68.91 34.3024 68.9733 34.4418L72.5641 40.5298C71.3964 39.8534 70.9712 39.5693 69.8237 38.859C67.8731 37.655 67.0293 37.5061 67.8393 38.744C68.1818 39.142 68.5717 39.4964 69.0003 39.7993L71.4167 41.9842C71.4167 41.9842 72.0039 43.2424 72.4291 44.3247C72.8544 45.407 73.3201 46.929 73.6373 47.4769C74.1027 48.1012 74.6198 48.685 75.183 49.2222L79.3138 47.991Z" fill="#80E6D3" stroke="#253137" stroke-width="0.650235" stroke-linecap="round" stroke-linejoin="round"/>
<path d="M79.724 42.918L77.6991 44.0882C77.0983 44.4332 76.8891 45.2246 77.1321 46.3408" stroke="#253137" stroke-width="0.650235" stroke-linecap="round" stroke-linejoin="round"/>
<path opacity="0.5" d="M269.549 69.5635H150.423V145.163H269.549V69.5635Z" fill="white" stroke="#FF7900" stroke-width="0.650235" stroke-miterlimit="10"/>
<path d="M187.737 60.7762L185.435 54.1538H148.109V150.662H271.866V60.7762H187.737ZM269.557 145.156H150.424V69.5632H269.557V145.156Z" fill="#00CCA7" stroke="#FF7900" stroke-width="0.650235" stroke-miterlimit="10"/>
<path d="M246.902 63.2808H187.72V66.9132H246.902V63.2808Z" fill="white" stroke="#FF7900" stroke-width="0.650235" stroke-miterlimit="10"/>
<path d="M153.284 62.6987L151.576 64.3493L153.351 66.2501" stroke="#FF7900" stroke-width="0.650235" stroke-linecap="round" stroke-linejoin="round"/>
<path d="M151.576 64.3477H155.369" stroke="#FF7900" stroke-width="0.650235" stroke-linecap="round" stroke-linejoin="round"/>
<path d="M162.963 62.6987L164.67 64.3492L162.902 66.25" stroke="#FF7900" stroke-width="0.650235" stroke-linecap="round" stroke-linejoin="round"/>
<path d="M164.671 64.3477H160.878" stroke="#FF7900" stroke-width="0.650235" stroke-linecap="round" stroke-linejoin="round"/>
<path d="M172.826 64.1258C172.715 63.7451 172.487 63.4092 172.174 63.1663C171.861 62.9233 171.48 62.7856 171.084 62.7729C170.631 62.7729 170.197 62.9533 169.877 63.2742C169.557 63.5952 169.377 64.0305 169.377 64.4844C169.377 64.9383 169.557 65.3736 169.877 65.6945C170.197 66.0155 170.631 66.1958 171.084 66.1958C171.478 66.1986 171.861 66.0621 172.164 65.8102" stroke="#FF7900" stroke-width="0.650235" stroke-linecap="round" stroke-linejoin="round"/>
<path d="M171.673 64.3144H173.002V62.7314" stroke="#FF7900" stroke-width="0.650235" stroke-linecap="round" stroke-linejoin="round"/>
<path d="M181.87 63.7531L180.297 62.4746L178.792 63.7531V66.5332H181.87V63.7531Z" stroke="#FF7900" stroke-width="0.650235" stroke-linecap="round" stroke-linejoin="round"/>
<path d="M180.898 64.5049H179.696V66.4327H180.898V64.5049Z" fill="#FF7900"/>
<path d="M178.788 63.7524L177.89 64.5845" stroke="#FF7900" stroke-width="0.650235" stroke-linecap="round" stroke-linejoin="round"/>
<path d="M181.87 63.7524L182.714 64.51" stroke="#FF7900" stroke-width="0.650235" stroke-linecap="round" stroke-linejoin="round"/>
<path d="M181.302 57.583L183.698 60.0588" stroke="#FF7900" stroke-width="0.650235" stroke-linecap="round" stroke-linejoin="round"/>
<path d="M183.736 57.6196L181.258 60.021" stroke="#FF7900" stroke-width="0.650235" stroke-linecap="round" stroke-linejoin="round"/>
<path d="M263.269 63.9419H268.014" stroke="#FF7900" stroke-width="0.650235" stroke-linecap="round" stroke-linejoin="round"/>
<path d="M263.269 65.0171H268.014" stroke="#FF7900" stroke-width="0.650235" stroke-linecap="round" stroke-linejoin="round"/>
<path d="M263.269 66.0869H268.014" stroke="#FF7900" stroke-width="0.650235" stroke-linecap="round" stroke-linejoin="round"/>
<path d="M263.269 67.1636H268.014" stroke="#FF7900" stroke-width="0.650235" stroke-linecap="round" stroke-linejoin="round"/>
<path opacity="0.5" d="M100.299 12.7295H20.9019V63.111H100.299V12.7295Z" fill="white" stroke="#FF7900" stroke-width="0.650235" stroke-miterlimit="10"/>
<path d="M45.7734 6.87763L44.2345 2.46045H19.355V66.7835H101.837V6.87763H45.7734ZM100.298 63.1172H20.9007V12.7289H100.298V63.1172Z" fill="#00CCA7" stroke="#FF7900" stroke-width="0.650235" stroke-miterlimit="10"/>
<path d="M85.2035 8.5415H45.7581V10.9632H85.2035V8.5415Z" fill="white" stroke="#FF7900" stroke-width="0.650235" stroke-miterlimit="10"/>
<path d="M22.8118 8.15479L21.6711 9.25063L22.8523 10.5224" stroke="#FF7900" stroke-width="0.650235" stroke-linecap="round" stroke-linejoin="round"/>
<path d="M21.6711 9.25293H24.2023" stroke="#FF7900" stroke-width="0.650235" stroke-linecap="round" stroke-linejoin="round"/>
<path d="M29.258 8.15479L30.3987 9.25063L29.2175 10.5224" stroke="#FF7900" stroke-width="0.650235" stroke-linecap="round" stroke-linejoin="round"/>
<path d="M30.3976 9.25293H27.8665" stroke="#FF7900" stroke-width="0.650235" stroke-linecap="round" stroke-linejoin="round"/>
<path d="M35.8351 9.09594C35.7617 8.84075 35.6087 8.61578 35.3986 8.45392C35.1885 8.29205 34.9323 8.20178 34.6674 8.19629C34.4847 8.19654 34.3048 8.24072 34.1428 8.32514C33.9807 8.40955 33.8413 8.53172 33.7362 8.68137C33.631 8.83102 33.5633 9.00379 33.5386 9.18513C33.514 9.36648 33.5331 9.5511 33.5945 9.72348C33.6558 9.89587 33.7576 10.051 33.8912 10.1757C34.0248 10.3005 34.1863 10.3913 34.3622 10.4405C34.5382 10.4897 34.7233 10.4959 34.902 10.4585C35.0808 10.4211 35.248 10.3412 35.3896 10.2256" stroke="#FF7900" stroke-width="0.650235" stroke-linecap="round" stroke-linejoin="round"/>
<path d="M35.0647 9.23203H35.9557V8.18359" stroke="#FF7900" stroke-width="0.650235" stroke-linecap="round" stroke-linejoin="round"/>
<path d="M41.8568 8.86113L40.8106 8.00879L39.8116 8.86113V10.7146H41.8568V8.86113Z" stroke="#FF7900" stroke-width="0.650235" stroke-linecap="round" stroke-linejoin="round"/>
<path d="M41.2054 9.3584H40.4089V10.6436H41.2054V9.3584Z" fill="#FF7900"/>
<path d="M39.813 8.85889L39.2123 9.41365" stroke="#FF7900" stroke-width="0.650235" stroke-linecap="round" stroke-linejoin="round"/>
<path d="M41.8618 8.85889L42.4288 9.36622" stroke="#FF7900" stroke-width="0.650235" stroke-linecap="round" stroke-linejoin="round"/>
<path d="M41.4807 4.74609L43.0804 6.39659" stroke="#FF7900" stroke-width="0.650235" stroke-linecap="round" stroke-linejoin="round"/>
<path d="M43.109 4.7749L41.4553 6.3713" stroke="#FF7900" stroke-width="0.650235" stroke-linecap="round" stroke-linejoin="round"/>
<path d="M96.1134 8.98828H99.279" stroke="#FF7900" stroke-width="0.650235" stroke-linecap="round" stroke-linejoin="round"/>
<path d="M96.1134 9.69971H99.279" stroke="#FF7900" stroke-width="0.650235" stroke-linecap="round" stroke-linejoin="round"/>
<path d="M96.1134 10.416H99.279" stroke="#FF7900" stroke-width="0.650235" stroke-linecap="round" stroke-linejoin="round"/>
<path d="M96.1134 11.1318H99.279" stroke="#FF7900" stroke-width="0.650235" stroke-linecap="round" stroke-linejoin="round"/>
<path d="M95.9914 112.383H19.355V158.929H95.9914V112.383Z" fill="#FF7900" stroke="#FF7900" stroke-width="0.650235" stroke-miterlimit="10"/>
<path d="M95.9914 152.049H19.355V158.929H95.9914V152.049Z" fill="#00CCA7" stroke="#FF7900" stroke-width="0.650235" stroke-miterlimit="10"/>
<path d="M56.6334 146.239C63.3285 146.239 68.7559 140.8 68.7559 134.09C68.7559 127.381 63.3285 121.941 56.6334 121.941C49.9383 121.941 44.5109 127.381 44.5109 134.09C44.5109 140.8 49.9383 146.239 56.6334 146.239Z" fill="white" stroke="#FF7900" stroke-width="0.650235" stroke-miterlimit="10"/>
<path d="M65.4373 134.09L52.1133 126.385V141.801L65.4373 134.09Z" fill="#FF7900" stroke="#FF7900" stroke-width="0.650235" stroke-miterlimit="10"/>
<path d="M92.1927 154.229H23.1699V155.473H92.1927V154.229Z" fill="#FF7900"/>
<path d="M25.5668 154.83C25.5668 154.61 25.5019 154.396 25.3803 154.213C25.2586 154.031 25.0857 153.889 24.8835 153.805C24.6812 153.721 24.4586 153.699 24.2439 153.742C24.0292 153.784 23.8319 153.89 23.6771 154.045C23.5223 154.2 23.4169 154.398 23.3742 154.613C23.3315 154.828 23.3534 155.051 23.4372 155.254C23.5209 155.457 23.6628 155.63 23.8449 155.752C24.0269 155.874 24.2409 155.939 24.4599 155.939C24.7529 155.937 25.0334 155.82 25.2406 155.612C25.4479 155.404 25.565 155.123 25.5668 154.83Z" fill="#00CCA7" stroke="#FF7900" stroke-width="0.650235" stroke-miterlimit="10"/>
</svg>
