<svg xmlns="http://www.w3.org/2000/svg" width="697" height="697" viewBox="0 0 697 697" fill="none">
    <path d="M450.146 174.25C410.126 174.25 377.542 206.835 377.542 246.854C377.542 286.874 410.126 319.458 450.146 319.458C490.165 319.458 522.75 286.874 522.75 246.854C522.75 206.835 490.165 174.25 450.146 174.25ZM450.146 290.417C426.128 290.417 406.583 270.872 406.583 246.854C406.583 222.837 426.128 203.292 450.146 203.292C474.163 203.292 493.708 222.837 493.708 246.854C493.708 270.872 474.163 290.417 450.146 290.417ZM697 72.6042C697 32.5847 664.415 0 623.989 0C480.465 4.09487 349.72 74.1143 243.224 203.321C197.164 203.872 151.22 215.054 110.068 235.702C43.214 269.245 0 342.024 0 421.104V435.625H145.208C176.225 435.625 205.412 447.706 227.367 469.633C249.294 491.588 261.375 520.746 261.375 551.792V697H275.896C354.976 697 427.755 653.815 461.298 586.961C481.975 545.809 493.128 499.836 493.679 453.776C622.857 347.28 692.905 216.506 697 72.6042ZM123.079 261.665C153.108 246.593 185.954 237.125 219.41 233.756C216.564 237.59 213.718 241.452 210.901 245.373C165.799 308.306 132.14 381.404 121.104 406.583H29.5935C34.4144 344.144 70.0485 288.268 123.079 261.665ZM435.335 573.921C408.703 626.951 352.856 662.586 290.417 667.407V575.896C315.625 564.86 388.694 531.201 451.656 486.099C455.577 483.282 459.439 480.465 463.273 477.619C459.904 511.075 450.436 543.921 435.364 573.95L435.335 573.921ZM434.725 462.489C382.363 500.01 321.056 530.01 290.213 544.125C288.355 508.229 273.485 474.744 247.9 449.129C222.285 423.515 188.8 408.674 152.904 406.816C167.019 375.973 197.019 314.666 234.54 262.304C308.684 158.829 436.583 34.3853 624.396 29.0417C648.413 29.0417 667.958 48.5867 667.958 72.1976C662.615 260.417 538.171 388.316 434.725 462.489ZM50.3002 544.008C25.6147 568.665 9.09004 656.719 6.04067 674.115L2.4395 694.531L22.8558 690.93C40.2517 687.881 128.306 671.356 152.962 646.671C166.67 632.963 174.221 614.725 174.221 595.325C174.221 575.925 166.67 557.687 152.962 543.979C125.576 516.564 77.6865 516.593 50.3002 544.008ZM132.43 626.138C121.22 637.348 76.2634 650.272 38.7125 658.258C46.699 620.708 59.6225 575.751 70.8326 564.541C79.0514 556.322 90.0001 551.792 101.646 551.792C113.292 551.792 124.211 556.322 132.459 564.541C140.707 572.76 145.208 583.708 145.208 595.354C145.208 607 140.678 617.92 132.459 626.167L132.43 626.138Z" fill="#201E1E" />
</svg>