<svg width="145" height="145" viewBox="0 0 145 145" fill="none" xmlns="http://www.w3.org/2000/svg">
  <path d="M138.017 96.0117C137.088 96.0116 136.172 95.7959 135.34 95.3816L123.339 89.3809C121.915 88.6695 120.831 87.4214 120.327 85.9111C119.823 84.4009 119.939 82.7523 120.651 81.3279C121.362 79.9035 122.61 78.8201 124.12 78.3159C125.631 77.8117 127.279 77.9282 128.704 78.6395L140.705 84.6403C141.916 85.244 142.888 86.2395 143.462 87.4651C144.037 88.6907 144.18 90.0744 143.868 91.3915C143.557 92.7087 142.809 93.8819 141.747 94.7206C140.685 95.5593 139.37 96.0143 138.017 96.0117ZM128.698 41.405L140.699 35.4043C142.123 34.6929 143.207 33.4448 143.711 31.9346C144.215 30.4244 144.099 28.7757 143.387 27.3513C142.676 25.9269 141.428 24.8435 139.918 24.3393C138.407 23.8352 136.759 23.9516 135.334 24.663L123.333 30.6637C121.909 31.3751 120.825 32.6232 120.321 34.1334C119.817 35.6437 119.933 37.2923 120.645 38.7167C121.356 40.1411 122.604 41.2245 124.114 41.7287C125.625 42.2329 127.273 42.1164 128.698 41.405ZM144.018 60.0073C144.018 58.4158 143.385 56.8895 142.26 55.7641C141.135 54.6388 139.608 54.0066 138.017 54.0066H126.015C124.424 54.0066 122.898 54.6388 121.772 55.7641C120.647 56.8895 120.015 58.4158 120.015 60.0073C120.015 61.5988 120.647 63.1251 121.772 64.2504C122.898 65.3758 124.424 66.008 126.015 66.008H138.017C139.608 66.008 141.135 65.3758 142.26 64.2504C143.385 63.1251 144.018 61.5988 144.018 60.0073ZM108.013 114.014V6.00073C108.013 4.40924 107.381 2.88293 106.256 1.75757C105.13 0.632218 103.604 0 102.012 0C100.421 0 98.8946 0.632218 97.7692 1.75757C96.6439 2.88293 96.0117 4.40924 96.0117 6.00073C96.0117 23.6969 80.5118 30.0036 66.008 30.0036H24.0029C17.6369 30.0036 11.5317 32.5325 7.03029 37.0339C2.52887 41.5354 0 47.6406 0 54.0066L0 66.008C0 72.374 2.52887 78.4792 7.03029 82.9806C11.5317 87.4821 17.6369 90.0109 24.0029 90.0109H66.008C80.5118 90.0109 96.0117 96.3177 96.0117 114.014C96.0117 115.605 96.6439 117.132 97.7692 118.257C98.8946 119.382 100.421 120.015 102.012 120.015C103.604 120.015 105.13 119.382 106.256 118.257C107.381 117.132 108.013 115.605 108.013 114.014ZM49.122 102.012H24.0029C21.2091 102.001 18.426 101.665 15.7099 101.01L30.7117 134.506C31.9717 137.337 34.0252 139.743 36.6239 141.431C39.2225 143.119 42.2547 144.017 45.3535 144.018C47.8189 144.014 50.2443 143.394 52.4087 142.213C54.573 141.033 56.4075 139.329 57.7449 137.258C59.0823 135.187 59.8801 132.814 60.0657 130.356C60.2512 127.897 59.8186 125.431 58.8071 123.183L49.122 102.012Z" fill="#3F4CB0"/>
</svg>