<svg width="145" height="143" viewBox="0 0 145 143" fill="none" xmlns="http://www.w3.org/2000/svg">
    <path d="M134.925 64.4929L72.0069 102.249L9.08927 64.4929C7.72457 63.674 6.09048 63.4309 4.54649 63.8169C3.00251 64.2029 1.67509 65.1864 0.85627 66.5511C0.0374473 67.9158 -0.205712 69.5499 0.180285 71.0939C0.566282 72.6379 1.54982 73.9653 2.91452 74.7841L68.9225 114.389C69.8559 114.95 70.9241 115.246 72.0129 115.246C73.1017 115.246 74.17 114.95 75.1033 114.389L141.111 74.7841C142.476 73.9653 143.46 72.6379 143.846 71.0939C144.232 69.5499 143.988 67.9158 143.17 66.5511C142.351 65.1864 141.023 64.2029 139.479 63.8169C137.935 63.4309 136.301 63.674 134.937 64.4929H134.925Z" fill="#3F4CB0"/>
    <path d="M134.925 91.904L72.0069 129.655L9.08925 91.904C8.41352 91.4986 7.66455 91.2302 6.88509 91.1142C6.10564 90.9982 5.31098 91.0369 4.54647 91.228C3.78197 91.4191 3.0626 91.759 2.42943 92.2281C1.79626 92.6973 1.26169 93.2865 0.856252 93.9622C0.450812 94.638 0.182438 95.387 0.0664523 96.1664C-0.0495335 96.9459 -0.0108592 97.7405 0.180267 98.505C0.566264 100.049 1.5498 101.376 2.9145 102.195L68.9225 141.8C69.8558 142.361 70.9241 142.657 72.0129 142.657C73.1017 142.657 74.17 142.361 75.1033 141.8L141.111 102.195C142.476 101.376 143.46 100.049 143.846 98.505C144.232 96.961 143.988 95.327 143.17 93.9622C142.351 92.5975 141.023 91.614 139.479 91.228C137.935 90.842 136.301 91.0852 134.937 91.904H134.925Z" fill="#3F4CB0"/>
    <path d="M2.90846 48.783L62.8197 84.7334C65.5937 86.4021 68.7697 87.2838 72.0069 87.2838C75.244 87.2838 78.4201 86.4021 81.194 84.7334L141.105 48.783C141.992 48.2495 142.727 47.4956 143.236 46.5945C143.746 45.6933 144.014 44.6757 144.014 43.6404C144.014 42.6051 143.746 41.5875 143.236 40.6863C142.727 39.7852 141.992 39.0313 141.105 38.4978L81.194 2.54741C78.4194 0.880581 75.2436 0 72.0069 0C68.7701 0 65.5943 0.880581 62.8197 2.54741L2.90846 38.4978C2.02123 39.0313 1.28712 39.7852 0.777481 40.6863C0.267838 41.5875 0 42.6051 0 43.6404C0 44.6757 0.267838 45.6933 0.777481 46.5945C1.28712 47.4956 2.02123 48.2495 2.90846 48.783Z" fill="#3F4CB0"/>
</svg>