<svg width="145" height="145" viewBox="0 0 145 145" fill="none" xmlns="http://www.w3.org/2000/svg">
    <path d="M144.018 96.0117V144.018H96.0117C78.2795 144.018 62.7976 134.326 54.4866 119.991C64.9939 119.913 74.8831 117.326 83.6742 112.886L93.5934 122.499C95.9397 124.845 99.018 126.015 102.096 126.015C105.157 126.015 108.211 124.857 110.515 122.547L133.276 100.302L124.887 91.7211L102.012 113.948L94.1334 106.309C109.711 94.3375 119.841 75.6212 119.991 54.4866C134.326 62.7976 144.018 78.2795 144.018 96.0117ZM54.0066 108.013H0V54.0066C0 24.2249 24.2309 0 54.0066 0C83.7822 0 108.013 24.2249 108.013 54.0066C108.013 83.7882 83.7882 108.013 54.0066 108.013ZM60.0073 72.0088H48.0058V84.4723H60.0073V72.0088ZM71.7267 38.7947C70.4486 31.5218 64.4778 25.5571 57.223 24.291C51.9063 23.3248 46.5237 24.777 42.4432 28.2094C38.3507 31.6418 36.0104 36.6705 36.0104 42.0051H48.0118C48.0118 40.2229 48.7919 38.5487 50.1601 37.4025C51.5403 36.2444 53.3165 35.7763 55.1527 36.1064C57.499 36.5144 59.5032 38.5127 59.9113 40.865C60.4693 44.0514 58.6391 46.3076 56.8989 47.2617C51.8283 50.0521 48.0118 56.8329 48.0118 63.0317V66.002H60.0133V63.0317C60.0133 61.1594 61.5735 58.3931 62.6956 57.775C69.4404 54.0486 73.0709 46.4216 71.7327 38.7887L71.7267 38.7947Z" fill="#3F4CB0"/>
</svg>