<svg width="144" height="145" viewBox="0 0 144 145" fill="none" xmlns="http://www.w3.org/2000/svg">
    <path d="M118.787 26.5204C104.145 6.95803 80.9219 -2.70314 56.679 0.657266C26.7354 4.73776 2.97248 29.7008 0.272156 59.8845C-1.22803 76.5065 3.51255 92.8885 13.5338 106.03C16.4141 109.751 17.9743 114.791 17.9743 120.192V126.013C17.9743 135.914 26.0753 144.015 35.9765 144.015H77.9816C87.8828 144.015 95.9838 135.914 95.9838 126.013H98.9241C113.926 126.013 126.708 114.791 128.688 99.9693L130.008 90.0081H131.988C139.789 90.0081 143.99 83.8274 143.99 78.0067C143.99 69.4856 126.407 35.9416 118.787 26.5204ZM89.1429 60.0045H95.9838C99.2842 60.0045 101.985 62.7048 101.985 66.0052C101.985 69.3056 99.2842 72.0059 95.9838 72.0059H89.1429C88.6029 74.1662 87.7028 76.2065 86.6226 78.1267L92.5634 84.0674C92.5634 84.0674 92.8634 84.0674 93.0434 84.0674C98.024 84.0674 102.045 88.0879 102.045 93.0685C102.045 98.0491 98.024 102.07 93.0434 102.07C88.0628 102.07 84.0423 98.0491 84.0423 93.0685C84.0423 92.8885 84.0423 92.7685 84.0423 92.5884L78.1016 86.6477C76.1814 87.7879 74.1411 88.628 71.9809 89.168V96.0089C71.9809 99.3093 69.2805 102.01 65.9801 102.01C62.6797 102.01 59.9794 99.3093 59.9794 96.0089V89.168C57.8191 88.628 55.7789 87.7279 53.8587 86.6477L47.9179 92.5884C47.9179 92.5884 47.9179 92.8885 47.9179 93.0685C47.9179 98.0491 43.8974 102.07 38.9168 102.07C33.9362 102.07 29.9158 98.0491 29.9158 93.0685C29.9158 88.0879 33.9362 84.0674 38.9168 84.0674C39.0969 84.0674 39.2169 84.0674 39.3969 84.0674L45.3376 78.1267C44.1975 76.2065 43.3574 74.1662 42.8173 72.0059H35.9765C32.6761 72.0059 29.9758 69.3056 29.9758 66.0052C29.9758 62.7048 32.6761 60.0045 35.9765 60.0045H42.8173C43.3574 57.8442 44.2575 55.804 45.3376 53.8837L39.3969 47.943C39.3969 47.943 39.0969 47.943 38.9168 47.943C33.9362 47.943 29.9158 43.9225 29.9158 38.9419C29.9158 33.9613 33.9362 29.9408 38.9168 29.9408C43.8974 29.9408 47.9179 33.9613 47.9179 38.9419C47.9179 39.1219 47.9179 39.242 47.9179 39.422L53.8587 45.3627C55.7789 44.2226 57.8191 43.3825 59.9794 42.8424V36.0016C59.9794 32.7012 62.6797 30.0008 65.9801 30.0008C69.2805 30.0008 71.9809 32.7012 71.9809 36.0016V42.8424C74.1411 43.3825 76.1814 44.2826 78.1016 45.3627L84.0423 39.422C84.0423 39.422 84.0423 39.1219 84.0423 38.9419C84.0423 33.9613 88.0628 29.9408 93.0434 29.9408C98.024 29.9408 102.045 33.9613 102.045 38.9419C102.045 43.9225 98.024 47.943 93.0434 47.943C92.8634 47.943 92.7434 47.943 92.5634 47.943L86.6226 53.8837C87.7628 55.804 88.6029 57.8442 89.1429 60.0045ZM53.9787 66.0052C53.9787 59.4044 59.3793 54.0037 65.9801 54.0037C72.5809 54.0037 77.9816 59.4044 77.9816 66.0052C77.9816 72.606 72.5809 78.0067 65.9801 78.0067C59.3793 78.0067 53.9787 72.606 53.9787 66.0052Z" fill="#3F4CB0"/>
</svg>