<svg width="1440" height="461" viewBox="0 0 1440 461" fill="none" xmlns="http://www.w3.org/2000/svg">
<path d="M-27 116.446C186.451 128.26 546.341 600.082 864.485 416.46C999.781 338.372 956.017 160.929 1129.06 116.446C1302.1 71.9638 1479.79 97.912 1547 116.446" stroke="#FF7900" stroke-width="2.4441" stroke-linecap="round"/>
<path d="M-27 78.5631C186.451 90.3762 546.341 562.198 864.485 378.576C999.781 300.488 956.017 123.046 1129.06 78.5631C1302.1 34.0805 1479.79 60.0287 1547 78.5631" stroke="#FF7900" stroke-opacity="0.7" stroke-width="2.4441" stroke-linecap="round"/>
<path d="M-27 26.0148C186.451 37.8279 546.341 509.65 864.485 326.028C999.781 247.94 956.017 70.4974 1129.06 26.0148C1302.1 -18.4678 1479.79 7.48034 1547 26.0148" stroke="#FF7900" stroke-opacity="0.32" stroke-width="2.4441" stroke-linecap="round"/>
</svg>
