<svg xmlns="http://www.w3.org/2000/svg" width="69" height="69" viewBox="0 0 69 69" fill="none">
    <path d="M56.8236 45.4562V14.2051C56.8236 11.9446 57.7216 9.77675 59.32 8.17837C60.9184 6.57999 63.0862 5.68203 65.3467 5.68203C66.1002 5.68203 66.8228 5.38271 67.3556 4.84992C67.8884 4.31712 68.1877 3.5945 68.1877 2.84101C68.1877 2.08753 67.8884 1.36491 67.3556 0.832114C66.8228 0.29932 66.1002 0 65.3467 0C61.5807 0.00451113 57.9702 1.50256 55.3072 4.16555C52.6442 6.82854 51.1461 10.439 51.1416 14.2051V46.2489L43.3743 48.8399C43.3885 47.8746 43.2386 46.9139 42.9311 45.9989L38.519 31.5097C37.829 29.3585 36.315 27.5681 34.3083 26.5304C32.3015 25.4927 29.9655 25.2921 27.8112 25.9726L8.7764 32.0239C6.64924 32.7127 4.87602 34.2065 3.83595 36.1857C2.79588 38.165 2.57152 40.4727 3.21085 42.6152L7.85307 57.88C8.15642 58.7315 8.59481 59.5286 9.15141 60.2409L1.9466 62.6415C1.23079 62.8796 0.638885 63.3923 0.301094 64.0668C-0.0366975 64.7414 -0.0927029 65.5224 0.145398 66.2383C0.383499 66.9541 0.896202 67.546 1.57072 67.8838C2.24524 68.2216 3.02631 68.2776 3.74212 68.0395L45.7437 54.0446C45.3315 55.7191 45.3042 57.4652 45.6637 59.1517C46.0233 60.8382 46.7603 62.4213 47.8195 63.7821C48.8788 65.1429 50.2326 66.246 51.7793 67.0084C53.326 67.7709 55.0254 68.1729 56.7498 68.1843C71.6878 67.798 71.7532 45.9364 56.8236 45.4562ZM13.2482 56.1044L8.64855 40.9703C8.43693 40.2545 8.51373 39.4843 8.86253 38.8244C9.21133 38.1645 9.80446 37.6672 10.5151 37.4389L29.5499 31.3875C30.262 31.1612 31.0346 31.2245 31.7004 31.5638C32.3662 31.903 32.8715 32.4909 33.1068 33.2001L37.5047 47.7063L37.536 47.7944C37.7589 48.4492 37.7354 49.1628 37.4697 49.8015C37.2039 50.4401 36.7144 50.9599 36.0928 51.2633L16.5238 57.7976C15.8657 57.9511 15.1743 57.865 14.574 57.5546C13.9736 57.2443 13.5035 56.7301 13.2482 56.1044ZM56.7498 62.5023C55.2428 62.5023 53.7976 61.9037 52.732 60.8381C51.6664 59.7725 51.0677 58.3273 51.0677 56.8203C51.0677 55.3133 51.6664 53.8681 52.732 52.8025C53.7976 51.7369 55.2428 51.1383 56.7498 51.1383C58.2567 51.1383 59.702 51.7369 60.7676 52.8025C61.8332 53.8681 62.4318 55.3133 62.4318 56.8203C62.4318 58.3273 61.8332 59.7725 60.7676 60.8381C59.702 61.9037 58.2567 62.5023 56.7498 62.5023ZM28.5555 39.7742C28.6686 40.1298 28.7105 40.5041 28.6789 40.8758C28.6473 41.2476 28.5427 41.6095 28.3712 41.9408C28.1998 42.2722 27.9647 42.5665 27.6795 42.807C27.3942 43.0475 27.0644 43.2295 26.7089 43.3425L19.7086 45.5727C18.9902 45.801 18.2105 45.7346 17.541 45.388C16.8716 45.0414 16.3672 44.4431 16.1389 43.7246C15.9106 43.0062 15.977 42.2265 16.3236 41.557C16.6702 40.8876 17.2685 40.3832 17.987 40.1549L24.9901 37.9275C25.7078 37.7001 26.4864 37.7668 27.1549 38.1131C27.8235 38.4593 28.3272 39.0568 28.5555 39.7742Z" fill="#3F4CB0"/>
</svg>