<svg xmlns="http://www.w3.org/2000/svg" width="69" height="69" viewBox="0 0 69 69" fill="none">
    <path d="M8.52304 7.10254C8.52304 3.1791 11.7021 0 15.6256 0C19.549 0 22.7281 3.1791 22.7281 7.10254C22.7281 11.026 19.549 14.2051 15.6256 14.2051C11.7021 14.2051 8.52304 11.026 8.52304 7.10254ZM25.5691 48.9791V63.9228C25.5691 66.2752 23.66 68.1843 21.3076 68.1843C18.9552 68.1843 17.0461 66.2752 17.0461 63.9228V51.1383H14.2051V63.9228C14.2051 66.2752 12.2959 68.1843 9.94355 68.1843C7.59119 68.1843 5.68203 66.2752 5.68203 63.9228V48.9791C2.25861 46.6836 0 42.7772 0 38.3537V29.8307C0 22.7821 5.73601 17.0461 12.7846 17.0461H18.4666C25.5152 17.0461 31.2512 22.7821 31.2512 29.8307V38.3537C31.2512 42.7772 28.9926 46.6836 25.5691 48.9791ZM8.52304 38.3537C8.52304 40.7032 10.435 42.6152 12.7846 42.6152H18.4666C20.8161 42.6152 22.7281 40.7032 22.7281 38.3537V29.8307C22.7281 27.4811 20.8161 25.5691 18.4666 25.5691H12.7846C10.435 25.5691 8.52304 27.4811 8.52304 29.8307V38.3537ZM51.1383 34.0922C41.7231 34.0922 34.0922 41.7231 34.0922 51.1383C34.0922 60.5534 41.7231 68.1843 51.1383 68.1843C60.5534 68.1843 68.1843 60.5534 68.1843 51.1383C68.1843 41.7231 60.5534 34.0922 51.1383 34.0922ZM61.6017 50.32L53.9225 57.7465C52.6383 59.0136 50.9337 59.6528 49.2263 59.6528C47.5188 59.6528 45.8085 59.0136 44.5017 57.7379L40.6549 53.9537C39.5327 52.8542 39.5185 51.0559 40.6151 49.9365C41.7118 48.8143 43.5101 48.7973 44.6323 49.8967L48.4791 53.6781C48.8882 54.0816 49.5587 54.073 49.9621 53.6724L57.6698 46.2176C58.7976 45.1352 60.5988 45.1665 61.6869 46.3C62.7722 47.4307 62.7353 49.2291 61.6046 50.3172L61.6017 50.32Z" fill="#3F4CB0"/>
</svg>