<svg xmlns="http://www.w3.org/2000/svg" width="52" height="69" viewBox="0 0 52 69" fill="none">
    <path d="M42.6132 6.50118C39.1455 3.40317 34.8986 1.30946 30.3296 0.44536C25.7606 -0.418741 21.0424 -0.0205131 16.6829 1.59719C12.3233 3.21489 8.48746 5.99081 5.58808 9.62621C2.68869 13.2616 0.835565 17.6189 0.228132 22.229C-0.3174 26.2714 0.1189 30.3856 1.50011 34.2236C2.88132 38.0616 5.16678 41.5104 8.16309 44.2781C10.016 45.903 11.5112 47.8951 12.5538 50.1281C13.5965 52.3611 14.1639 54.7864 14.2201 57.2502V57.7076C14.2231 60.487 15.3286 63.1518 17.294 65.1171C19.2593 67.0825 21.924 68.188 24.7035 68.191H26.4649C29.2443 68.188 31.9091 67.0825 33.8744 65.1171C35.8398 63.1518 36.9452 60.487 36.9482 57.7076V56.1479C36.9908 53.9702 37.5032 51.8273 38.4506 49.8659C39.3979 47.9046 40.7578 46.171 42.4371 44.7838C45.1604 42.3987 47.3459 39.462 48.8486 36.1684C50.3514 32.8748 51.1371 29.2995 51.1537 25.6794C51.1704 22.0592 50.4176 18.4768 48.9452 15.1696C47.4729 11.8623 45.3145 8.90565 42.6132 6.49549V6.50118ZM26.4649 62.5089H24.7035C23.4305 62.5074 22.2102 62.0011 21.3101 61.101C20.41 60.2009 19.9037 58.9805 19.9022 57.7076C19.9022 57.7076 19.8823 56.969 19.8794 56.8269H31.2662V57.7076C31.2647 58.9805 30.7584 60.2009 29.8583 61.101C28.9582 62.0011 27.7378 62.5074 26.4649 62.5089ZM38.6813 40.5166C35.4466 43.3223 33.1105 47.019 31.9651 51.1449H28.4252V30.735C30.0813 30.1495 31.516 29.0667 32.5331 27.6346C33.5502 26.2026 34.0999 24.4912 34.1072 22.7347C34.1072 21.9813 33.8079 21.2586 33.2751 20.7258C32.7423 20.193 32.0197 19.8937 31.2662 19.8937C30.5127 19.8937 29.7901 20.193 29.2573 20.7258C28.7245 21.2586 28.4252 21.9813 28.4252 22.7347C28.4252 23.4882 28.1259 24.2108 27.5931 24.7436C27.0603 25.2764 26.3377 25.5757 25.5842 25.5757C24.8307 25.5757 24.1081 25.2764 23.5753 24.7436C23.0425 24.2108 22.7432 23.4882 22.7432 22.7347C22.7432 21.9813 22.4439 21.2586 21.9111 20.7258C21.3783 20.193 20.6556 19.8937 19.9022 19.8937C19.1487 19.8937 18.4261 20.193 17.8933 20.7258C17.3605 21.2586 17.0611 21.9813 17.0611 22.7347C17.0684 24.4912 17.6182 26.2026 18.6353 27.6346C19.6524 29.0667 21.0871 30.1495 22.7432 30.735V51.1449H18.9874C17.706 46.9095 15.3029 43.0997 12.0325 40.1189C9.25675 37.5324 7.27875 34.2059 6.33197 30.5319C5.38518 26.8578 5.50914 22.9896 6.6892 19.3837C7.86925 15.7779 10.0562 12.5848 12.9919 10.1813C15.9276 7.77787 19.4895 6.26433 23.2574 5.81933C24.0385 5.73214 24.8238 5.68851 25.6098 5.68865C30.4894 5.67414 35.2001 7.47458 38.8262 10.74C40.9276 12.6139 42.6068 14.9131 43.7523 17.4852C44.8979 20.0573 45.4836 22.8434 45.4707 25.659C45.4578 28.4747 44.8466 31.2554 43.6775 33.8168C42.5085 36.3783 40.8083 38.662 38.6898 40.5166H38.6813Z" fill="#3F4CB0"/>
</svg>