<svg xmlns="http://www.w3.org/2000/svg" width="69" height="68" viewBox="0 0 69 68" fill="none">
    <path d="M34.0922 28.4101C31.8317 28.4101 29.6639 27.5122 28.0655 25.9138C26.4671 24.3154 25.5691 22.1476 25.5691 19.8871C25.5691 17.6266 26.4671 15.4588 28.0655 13.8604C29.6639 12.262 31.8317 11.3641 34.0922 11.3641C36.3526 11.3641 38.5205 12.262 40.1189 13.8604C41.7173 15.4588 42.6152 17.6266 42.6152 19.8871C42.6152 22.1476 41.7173 24.3154 40.1189 25.9138C38.5205 27.5122 36.3526 28.4101 34.0922 28.4101ZM25.4782 43.3226C26.0624 41.4974 27.2114 39.9049 28.7594 38.7751C30.3074 37.6452 32.1743 37.0363 34.0908 37.0363C36.0072 37.0363 37.8741 37.6452 39.4221 38.7751C40.9701 39.9049 42.1191 41.4974 42.7033 43.3226C42.8917 44.0528 43.3624 44.6782 44.0118 45.0612C44.6613 45.4443 45.4364 45.5537 46.1665 45.3653C46.8966 45.177 47.522 44.7063 47.9051 44.0568C48.2882 43.4073 48.3975 42.6322 48.2092 41.9021C44.4846 27.8476 23.6912 27.8533 19.978 41.9021C19.8754 42.2663 19.8466 42.6472 19.8933 43.0226C19.9399 43.398 20.0611 43.7604 20.2496 44.0883C20.4381 44.4163 20.6903 44.7033 20.9912 44.9325C21.2922 45.1618 21.6359 45.3286 22.0022 45.4231C22.3685 45.5177 22.75 45.5382 23.1243 45.4834C23.4986 45.4286 23.8582 45.2996 24.182 45.1039C24.5057 44.9083 24.7872 44.6499 25.0098 44.344C25.2324 44.0382 25.3916 43.6909 25.4782 43.3226ZM34.1177 67.2326C32.7161 67.2334 31.3631 66.7187 30.3165 65.7865L19.6683 56.8203H11.3641C8.35012 56.8203 5.45963 55.623 3.32846 53.4918C1.19728 51.3607 0 48.4702 0 45.4562V11.3641C0 8.35012 1.19728 5.45963 3.32846 3.32846C5.45963 1.19728 8.35012 0 11.3641 0L56.8203 0C59.8342 0 62.7247 1.19728 64.8559 3.32846C66.9871 5.45963 68.1843 8.35012 68.1843 11.3641V45.4562C68.1843 48.4702 66.9871 51.3607 64.8559 53.4918C62.7247 55.623 59.8342 56.8203 56.8203 56.8203H48.7149L37.7855 65.8547C36.7729 66.7477 35.4678 67.238 34.1177 67.2326ZM11.3641 5.68203C9.85709 5.68203 8.41184 6.28067 7.34626 7.34626C6.28067 8.41184 5.68203 9.85709 5.68203 11.3641V45.4562C5.68203 46.9632 6.28067 48.4084 7.34626 49.474C8.41184 50.5396 9.85709 51.1383 11.3641 51.1383H20.7082C21.3776 51.1383 22.0256 51.3747 22.5378 51.8059L34.0325 61.4938L45.8852 51.7889C46.3945 51.3682 47.0344 51.1382 47.695 51.1383H56.8203C58.3273 51.1383 59.7725 50.5396 60.8381 49.474C61.9037 48.4084 62.5023 46.9632 62.5023 45.4562V11.3641C62.5023 9.85709 61.9037 8.41184 60.8381 7.34626C59.7725 6.28067 58.3273 5.68203 56.8203 5.68203H11.3641Z" fill="#3F4CB0"/>
</svg>