<svg xmlns="http://www.w3.org/2000/svg" width="69" height="69" viewBox="0 0 69 69" fill="none">
    <path d="M64.0952 4.07469C57.3506 -2.66988 47.2792 -1.02493 34.0856 8.90441C20.8947 -1.02493 10.8262 -2.67272 4.07591 4.07469C-2.67434 10.8221 -1.02371 20.8907 8.90564 34.0843C-1.02371 47.2752 -2.6715 57.3465 4.07591 64.094C5.341 65.4058 6.86123 66.4447 8.54298 67.1468C10.2247 67.8489 12.0324 68.1993 13.8547 68.1765C19.4543 68.1765 26.2159 65.1878 34.0856 59.2671C41.9523 65.1878 48.7139 68.1765 54.3164 68.1765C56.1387 68.1993 57.9464 67.8489 59.6281 67.1468C61.3099 66.4447 62.8301 65.4058 64.0952 64.094C70.8426 57.3465 69.209 47.278 59.2655 34.0843C69.1948 20.8907 70.8426 10.8221 64.0952 4.07469ZM54.2141 5.75373C55.2998 5.72104 56.3808 5.91057 57.3906 6.31069C58.4004 6.71081 59.3178 7.31307 60.0865 8.08052C65.0469 13.0438 61.382 21.4702 55.575 29.4989C53.1942 26.692 50.5123 23.7743 47.4554 20.7145C44.3984 17.6547 41.4722 14.9728 38.6653 12.5892C44.0575 8.6885 49.6316 5.75373 54.2141 5.75373ZM52.0152 34.0843C49.1429 37.5504 46.1002 40.792 43.4467 43.4597C40.7932 46.1274 37.5516 49.1417 34.0856 52.014C30.6195 49.1417 27.3779 46.099 24.7244 43.4597C22.0709 40.8204 19.0282 37.5504 16.1559 34.0843C19.0282 30.6183 22.0709 27.3738 24.7244 24.7232C27.3779 22.0725 30.6195 19.0269 34.0856 16.1518C37.5516 19.0213 40.7932 22.0697 43.4609 24.7232C46.1286 27.3767 49.1429 30.6183 52.0152 34.0843ZM8.08458 8.08336C8.85242 7.31458 9.76961 6.71125 10.7796 6.31058C11.7896 5.90991 12.8709 5.7204 13.957 5.75373C18.5395 5.75373 24.1136 8.6885 29.5058 12.5892C26.6989 14.9728 23.7784 17.6547 20.7157 20.7145C17.6531 23.7743 14.9769 26.6806 12.5933 29.4989C6.78908 21.4702 3.11849 13.0438 8.08458 8.08336ZM8.08458 60.0739C3.12417 55.1135 6.78908 46.6842 12.5933 38.6584C14.9769 41.4653 17.6588 44.383 20.7157 47.4428C23.7727 50.5025 26.6819 53.1901 29.4916 55.5709C21.4658 61.3836 13.0393 65.0514 8.08458 60.0853V60.0739ZM60.0752 60.0739C55.1176 65.0287 46.694 61.3723 38.6681 55.5709C41.4693 53.1901 44.3899 50.494 47.444 47.4428C50.4981 44.3915 53.1828 41.4766 55.5636 38.6584C61.382 46.6984 65.0526 55.1249 60.0865 60.0853L60.0752 60.0739Z" fill="#3F4CB0"/>
    <path d="M34.0856 39.7664C37.2237 39.7664 39.7676 37.2225 39.7676 34.0844C39.7676 30.9463 37.2237 28.4023 34.0856 28.4023C30.9475 28.4023 28.4036 30.9463 28.4036 34.0844C28.4036 37.2225 30.9475 39.7664 34.0856 39.7664Z" fill="#3F4CB0"/>
</svg>