<svg width="345" height="345" viewBox="0 0 345 345" fill="none" xmlns="http://www.w3.org/2000/svg">
<g clip-path="url(#clip0_1_13988)">
<mask id="mask0_1_13988" style="mask-type:luminance" maskUnits="userSpaceOnUse" x="0" y="0" width="345" height="345">
<path d="M345 0H0V345H345V0Z" fill="white"/>
</mask>
<g mask="url(#mask0_1_13988)">
<g opacity="0.244435">
<path d="M190.053 90.659C190.053 93.688 187.597 96.1436 184.568 96.1436C181.539 96.1436 179.084 93.688 179.084 90.659C179.084 87.6302 181.539 85.1748 184.568 85.1748C187.597 85.1748 190.053 87.6302 190.053 90.659Z" fill="#41AE80"/>
</g>
<g opacity="0.573981">
<path d="M146.892 103.593L143.635 105.473C143.045 105.814 142.291 105.611 141.951 105.022L136.07 94.8352C135.729 94.2457 135.931 93.4917 136.521 93.1514L139.778 91.2708C140.368 90.9305 141.122 91.1324 141.462 91.722L147.343 101.909C147.684 102.498 147.482 103.252 146.892 103.593Z" fill="#4683F5"/>
</g>
<g opacity="0.573981">
<path d="M91.9817 125.728L92.7143 125.977C93.545 126.259 94.4612 126.113 95.1644 125.589L95.7845 125.126C97.5549 123.805 100.072 125.087 100.044 127.296L100.034 128.07C100.023 128.947 100.444 129.774 101.16 130.28L101.792 130.727C103.595 132.003 103.153 134.793 101.044 135.448L100.305 135.678C99.4673 135.938 98.8116 136.594 98.5513 137.432L98.3215 138.171C97.6658 140.281 94.8756 140.722 93.6 138.919L93.1531 138.287C92.6466 137.571 91.82 137.15 90.943 137.161L90.1692 137.171C87.9603 137.199 86.6779 134.682 87.9991 132.911L88.462 132.291C88.9867 131.588 89.1317 130.672 88.85 129.841L88.6014 129.109C87.892 127.016 89.8894 125.019 91.9817 125.728Z" fill="#4683F5"/>
</g>
<g opacity="0.573981">
<path d="M86.7789 164.57L87.6015 168.24C87.7504 168.904 87.3327 169.564 86.6682 169.712L75.1906 172.285C74.5263 172.434 73.8671 172.016 73.7179 171.352L72.8953 167.682C72.7465 167.018 73.1643 166.358 73.8286 166.209L85.3063 163.637C85.9706 163.488 86.6299 163.906 86.7789 164.57Z" fill="#50D05C"/>
</g>
<g opacity="0.573981">
<path d="M98.4275 211.527C98.4275 214.556 95.972 217.011 92.9432 217.011C89.9142 217.011 87.459 214.556 87.459 211.527C87.459 208.498 89.9142 206.043 92.9432 206.043C95.972 206.043 98.4275 208.498 98.4275 211.527Z" fill="#F82681"/>
</g>
<g opacity="0.573981">
<path d="M91.9817 238.529L92.7143 238.778C93.545 239.059 94.4612 238.914 95.1644 238.39L95.7845 237.927C97.5549 236.606 100.072 237.888 100.044 240.097L100.034 240.871C100.023 241.748 100.444 242.575 101.16 243.081L101.792 243.528C103.595 244.803 103.153 247.593 101.044 248.249L100.305 248.479C99.4673 248.739 98.8116 249.395 98.5513 250.233L98.3215 250.972C97.6658 253.081 94.8756 253.523 93.6 251.72L93.1531 251.088C92.6466 250.372 91.82 249.951 90.943 249.962L90.1692 249.972C87.9603 250 86.6779 247.483 87.9991 245.712L88.462 245.092C88.9867 244.389 89.1317 243.473 88.85 242.642L88.6014 241.91C87.892 239.817 89.8894 237.82 91.9817 238.529Z" fill="#FFBC32"/>
</g>
<g opacity="0.573981">
<path d="M233.153 120.505C231.491 118.338 232.006 115.112 234.293 113.357C236.581 111.601 239.831 111.939 241.493 114.106C241.496 114.11 241.499 114.114 241.502 114.118" stroke="#F82681" stroke-width="3.59375" stroke-linecap="round" stroke-linejoin="round"/>
</g>
<g opacity="0.573981">
<path d="M247.941 150.384L248.673 150.632C249.504 150.914 250.42 150.769 251.123 150.244L251.744 149.781C253.514 148.46 256.031 149.743 256.003 151.952L255.993 152.725C255.982 153.602 256.403 154.429 257.119 154.936L257.751 155.382C259.555 156.658 259.113 159.448 257.003 160.104L256.264 160.333C255.426 160.594 254.771 161.25 254.51 162.087L254.28 162.826C253.625 164.936 250.834 165.378 249.559 163.574L249.112 162.942C248.606 162.226 247.779 161.805 246.902 161.816L246.128 161.826C243.919 161.854 242.637 159.337 243.958 157.567L244.421 156.947C244.946 156.244 245.091 155.327 244.809 154.497L244.56 153.764C243.851 151.672 245.848 149.674 247.941 150.384Z" fill="#FFBB31"/>
</g>
<g opacity="0.573981">
<path d="M253.062 215.383C256.791 215.874 259.433 219.519 258.915 223.457C258.396 227.395 254.901 230.232 251.172 229.741C251.164 229.74 251.157 229.739 251.15 229.738" stroke="#F82681" stroke-width="2.69531" stroke-linecap="round" stroke-linejoin="round"/>
</g>
<g opacity="0.573981">
<path d="M241.304 261.646L238.047 263.526C237.457 263.866 236.703 263.664 236.363 263.075L230.482 252.888C230.141 252.298 230.343 251.545 230.933 251.204L234.19 249.324C234.78 248.983 235.534 249.185 235.874 249.775L241.755 259.961C242.096 260.551 241.894 261.305 241.304 261.646Z" fill="#4683F5"/>
</g>
<g opacity="0.573981">
<path d="M134.561 267.588C132.271 264.604 132.98 260.158 136.132 257.74C139.283 255.322 143.76 255.788 146.05 258.772L146.063 258.789" stroke="#41AE80" stroke-width="3.59375" stroke-linecap="round" stroke-linejoin="round"/>
</g>
<path d="M233.059 172.504C233.059 205.949 205.946 233.062 172.501 233.062C139.056 233.062 111.943 205.949 111.943 172.504C111.943 139.059 139.056 111.946 172.501 111.946C205.946 111.946 233.059 139.059 233.059 172.504Z" fill="#50D05C"/>
<path d="M145.756 172.607L163.509 190.361L199.221 154.648" stroke="white" stroke-width="9.60773" stroke-linecap="round" stroke-linejoin="round"/>
</g>
</g>
<defs>
<clipPath id="clip0_1_13988">
<rect width="345" height="345" fill="white"/>
</clipPath>
</defs>
</svg>
