<svg width="3404" height="2004" viewBox="0 0 3404 2004" fill="none" xmlns="http://www.w3.org/2000/svg">
<path d="M1044.98 1083.54C1044.98 1083.54 1251.84 727.038 1460.76 707.097C1612.61 692.603 1685.14 847.894 1838.08 848.987C2161.12 851.295 2448.37 232.428 2448.37 232.428" stroke="url(#paint0_linear_169_9992)" stroke-width="2"/>
<path d="M1600.08 996.871C1600.08 996.871 1898.59 742.619 2104.77 802.691C2254.62 846.354 2280.74 1018.34 2427.29 1076.93C2736.79 1200.7 3186.01 732.273 3186.01 732.273" stroke="url(#paint1_linear_169_9992)" stroke-width="2"/>
<path d="M1541.35 1048.62C1541.35 1048.62 1839.86 794.369 2046.03 854.441C2195.89 898.104 2222.01 1070.09 2368.55 1128.68C2678.06 1252.45 3127.28 784.023 3127.28 784.023" stroke="url(#paint2_linear_169_9992)" stroke-width="2"/>
<path d="M1480.86 1097.66C1480.86 1097.66 1779.37 843.406 1985.55 903.478C2135.4 947.142 2161.52 1119.12 2308.07 1177.72C2617.57 1301.48 3066.8 833.06 3066.8 833.06" stroke="url(#paint3_linear_169_9992)" stroke-width="2"/>
<path d="M1418.6 1143.72C1418.6 1143.72 1717.11 889.472 1923.29 949.545C2073.14 993.208 2099.27 1165.19 2245.81 1223.79C2555.32 1347.55 3004.54 879.127 3004.54 879.127" stroke="url(#paint4_linear_169_9992)" stroke-width="2"/>
<path d="M1354.47 1186.36C1354.47 1186.36 1652.98 932.109 1859.15 992.182C2009.01 1035.84 2035.13 1207.83 2181.67 1266.42C2491.18 1390.19 2940.4 921.764 2940.4 921.764" stroke="url(#paint5_linear_169_9992)" stroke-width="2"/>
<path d="M1288.3 1224.86C1288.3 1224.86 1586.82 970.605 1792.99 1030.68C1942.85 1074.34 1968.97 1246.32 2115.51 1304.92C2425.02 1428.68 2874.24 960.26 2874.24 960.26" stroke="url(#paint6_linear_169_9992)" stroke-width="2"/>
<path d="M1219.93 1258.17C1219.93 1258.17 1518.44 1003.92 1724.62 1063.99C1874.47 1107.65 1900.6 1279.64 2047.14 1338.23C2356.65 1462 2805.87 993.573 2805.87 993.573" stroke="url(#paint7_linear_169_9992)" stroke-width="2"/>
<path d="M1149.19 1284.78C1149.19 1284.78 1447.71 1030.53 1653.88 1090.6C1803.74 1134.26 1829.86 1306.24 1976.4 1364.84C2285.91 1488.6 2735.13 1020.18 2735.13 1020.18" stroke="url(#paint8_linear_169_9992)" stroke-width="2"/>
<path d="M1076.09 1302.42C1076.09 1302.42 1374.61 1048.17 1580.78 1108.24C1730.64 1151.91 1756.76 1323.89 1903.3 1382.49C2212.81 1506.25 2662.03 1037.83 2662.03 1037.83" stroke="url(#paint9_linear_169_9992)" stroke-width="2"/>
<path d="M1001.12 1307.82C1001.12 1307.82 1299.64 1053.57 1505.81 1113.64C1655.67 1157.3 1681.79 1329.28 1828.33 1387.88C2137.84 1511.65 2587.06 1043.22 2587.06 1043.22" stroke="url(#paint10_linear_169_9992)" stroke-width="2"/>
<path d="M925.993 1296.71C925.993 1296.71 1224.51 1042.46 1430.68 1102.53C1580.54 1146.2 1606.66 1318.18 1753.2 1376.78C2062.71 1500.54 2511.93 1032.12 2511.93 1032.12" stroke="url(#paint11_linear_169_9992)" stroke-width="2"/>
<path d="M855.446 1265.31C855.446 1265.31 1153.96 1011.05 1360.13 1071.13C1509.99 1114.79 1536.11 1286.77 1682.65 1345.37C1992.16 1469.13 2441.38 1000.71 2441.38 1000.71" stroke="url(#paint12_linear_169_9992)" stroke-width="2"/>
<path d="M793.589 1212.25C793.589 1212.25 1092.1 957.995 1298.28 1018.07C1448.13 1061.73 1474.25 1233.71 1620.8 1292.31C1930.3 1416.07 2379.53 947.649 2379.53 947.649" stroke="url(#paint13_linear_169_9992)" stroke-width="2"/>
<path d="M740.341 1147.74C740.341 1147.74 1038.85 893.487 1245.03 953.559C1394.89 997.223 1421.01 1169.2 1567.55 1227.8C1877.06 1351.56 2326.28 883.141 2326.28 883.141" stroke="url(#paint14_linear_169_9992)" stroke-width="2"/>
<path d="M686.638 1083.73C686.638 1083.73 985.151 829.481 1191.33 889.554C1341.18 933.217 1367.3 1105.2 1513.85 1163.8C1823.35 1287.56 2272.58 819.136 2272.58 819.136" stroke="url(#paint15_linear_169_9992)" stroke-width="2"/>
<path d="M623.288 1033.18C623.288 1033.18 921.802 778.93 1127.98 839.003C1277.83 882.666 1303.95 1054.65 1450.5 1113.24C1760 1237.01 2209.23 768.585 2209.23 768.585" stroke="url(#paint16_linear_169_9992)" stroke-width="2"/>
<path d="M534.341 1005.05C534.341 1005.05 832.854 750.794 1039.03 810.866C1188.89 854.529 1215.01 1026.51 1361.55 1085.11C1671.06 1208.87 2120.28 740.448 2120.28 740.448" stroke="url(#paint17_linear_169_9992)" stroke-width="2"/>
<path d="M459.138 1007.41C459.138 1007.41 757.651 753.155 963.826 813.227C1113.68 856.891 1139.8 1028.87 1286.35 1087.47C1595.85 1211.23 2045.08 742.809 2045.08 742.809" stroke="url(#paint18_linear_169_9992)" stroke-width="2"/>
<path d="M385.985 1024.81C385.985 1024.81 684.499 770.561 890.673 830.634C1040.53 874.297 1066.65 1046.28 1213.19 1104.88C1522.7 1228.64 1971.92 760.216 1971.92 760.216" stroke="url(#paint19_linear_169_9992)" stroke-width="2"/>
<path d="M315.475 1052.13C315.475 1052.13 613.989 797.878 820.164 857.95C970.02 901.613 996.141 1073.59 1142.68 1132.19C1452.19 1255.95 1901.41 787.532 1901.41 787.532" stroke="url(#paint20_linear_169_9992)" stroke-width="2"/>
<path d="M247.487 1086.4C247.487 1086.4 546.001 832.147 752.175 892.22C902.032 935.883 928.153 1107.86 1074.7 1166.46C1384.2 1290.22 1833.42 821.802 1833.42 821.802" stroke="url(#paint21_linear_169_9992)" stroke-width="2"/>
<path d="M181.825 1125.92C181.825 1125.92 480.339 871.67 686.513 931.742C836.369 975.405 862.491 1147.39 1009.03 1205.98C1318.54 1329.75 1767.76 861.324 1767.76 861.324" stroke="url(#paint22_linear_169_9992)" stroke-width="2"/>
<path d="M105.059 1179.74C105.059 1179.74 403.573 925.488 609.748 985.56C759.604 1029.22 785.725 1201.2 932.268 1259.8C1241.78 1383.57 1691 915.142 1691 915.142" stroke="url(#paint23_linear_169_9992)" stroke-width="2"/>
<path d="M1691.87 860.625C1691.87 860.625 1965.17 571.337 2174.63 607.042C2326.88 632.993 2367.85 801.769 2518.12 843.035C2835.51 930.193 3239.27 409.107 3239.27 409.107" stroke="url(#paint24_linear_169_9992)" stroke-width="2"/>
<path d="M1641.94 920.14C1641.94 920.14 1915.25 630.852 2124.71 666.556C2276.95 692.508 2317.93 861.283 2468.2 902.55C2785.59 989.707 3189.34 468.622 3189.34 468.622" stroke="url(#paint25_linear_169_9992)" stroke-width="2"/>
<path d="M1588.32 978.782C1588.32 978.782 1861.63 689.494 2071.09 725.198C2223.33 751.15 2264.31 919.925 2414.58 961.191C2731.97 1048.35 3135.72 527.264 3135.72 527.264" stroke="url(#paint26_linear_169_9992)" stroke-width="2"/>
<path d="M1532.73 1034.92C1532.73 1034.92 1806.03 745.631 2015.49 781.336C2167.74 807.287 2208.71 976.063 2358.98 1017.33C2676.37 1104.49 3080.13 583.401 3080.13 583.401" stroke="url(#paint27_linear_169_9992)" stroke-width="2"/>
<path d="M1475.11 1088.3C1475.11 1088.3 1748.42 799.014 1957.88 834.719C2110.12 860.67 2151.1 1029.45 2301.37 1070.71C2618.76 1157.87 3022.51 636.784 3022.51 636.784" stroke="url(#paint28_linear_169_9992)" stroke-width="2"/>
<path d="M1415.34 1138.47C1415.34 1138.47 1688.65 849.184 1898.11 884.888C2050.35 910.84 2091.32 1079.62 2241.6 1120.88C2558.99 1208.04 2962.74 686.954 2962.74 686.954" stroke="url(#paint29_linear_169_9992)" stroke-width="2"/>
<path d="M1353.2 1184.74C1353.2 1184.74 1626.5 895.455 1835.96 931.159C1988.21 957.11 2029.18 1125.89 2179.45 1167.15C2496.84 1254.31 2900.6 733.225 2900.6 733.225" stroke="url(#paint30_linear_169_9992)" stroke-width="2"/>
<path d="M1288.41 1226.1C1288.41 1226.1 1561.71 936.81 1771.18 972.514C1923.42 998.466 1964.39 1167.24 2114.67 1208.51C2432.06 1295.67 2835.81 774.58 2835.81 774.58" stroke="url(#paint31_linear_169_9992)" stroke-width="2"/>
<path d="M1220.69 1261.03C1220.69 1261.03 1494 971.746 1703.46 1007.45C1855.7 1033.4 1896.68 1202.18 2046.95 1243.44C2364.34 1330.6 2768.09 809.516 2768.09 809.516" stroke="url(#paint32_linear_169_9992)" stroke-width="2"/>
<path d="M1149.85 1287.29C1149.85 1287.29 1423.15 998.002 1632.61 1033.71C1784.86 1059.66 1825.83 1228.43 1976.1 1269.7C2293.49 1356.86 2697.25 835.773 2697.25 835.773" stroke="url(#paint33_linear_169_9992)" stroke-width="2"/>
<path d="M1076.07 1301.53C1076.07 1301.53 1349.38 1012.24 1558.84 1047.95C1711.08 1073.9 1752.06 1242.67 1902.33 1283.94C2219.72 1371.1 2623.47 850.013 2623.47 850.013" stroke="url(#paint34_linear_169_9992)" stroke-width="2"/>
<path d="M1000.69 1299.29C1000.69 1299.29 1274 1010 1483.46 1045.7C1635.7 1071.66 1676.68 1240.43 1826.95 1281.7C2144.34 1368.86 2548.09 847.771 2548.09 847.771" stroke="url(#paint35_linear_169_9992)" stroke-width="2"/>
<path d="M928.069 1276.23C928.069 1276.23 1201.37 986.938 1410.84 1022.64C1563.08 1048.59 1604.05 1217.37 1754.33 1258.64C2071.72 1345.79 2475.47 824.708 2475.47 824.708" stroke="url(#paint36_linear_169_9992)" stroke-width="2"/>
<path d="M862.147 1230.51C862.147 1230.51 1135.45 941.225 1344.91 976.93C1497.16 1002.88 1538.13 1171.66 1688.41 1212.92C2005.8 1300.08 2409.55 778.995 2409.55 778.995" stroke="url(#paint37_linear_169_9992)" stroke-width="2"/>
<path d="M803.748 1172.33C803.748 1172.33 1077.05 883.04 1286.52 918.745C1438.76 944.696 1479.73 1113.47 1630.01 1154.74C1947.4 1241.9 2351.15 720.811 2351.15 720.811" stroke="url(#paint38_linear_169_9992)" stroke-width="2"/>
<path d="M744.942 1114.71C744.942 1114.71 1018.25 825.421 1227.71 861.126C1379.95 887.077 1420.93 1055.85 1571.2 1097.12C1888.59 1184.28 2292.34 663.191 2292.34 663.191" stroke="url(#paint39_linear_169_9992)" stroke-width="2"/>
<path d="M677.766 1071.66C677.766 1071.66 951.072 782.375 1160.53 818.08C1312.78 844.031 1353.75 1012.81 1504.02 1054.07C1821.41 1141.23 2225.17 620.146 2225.17 620.146" stroke="url(#paint40_linear_169_9992)" stroke-width="2"/>
<path d="M587.206 1054.04C587.206 1054.04 860.511 764.755 1069.97 800.46C1222.22 826.411 1263.19 995.187 1413.46 1036.45C1730.85 1123.61 2134.61 602.525 2134.61 602.525" stroke="url(#paint41_linear_169_9992)" stroke-width="2"/>
<path d="M512.934 1065.27C512.934 1065.27 786.24 775.984 995.701 811.688C1147.95 837.64 1188.92 1006.42 1339.19 1047.68C1656.58 1134.84 2060.33 613.754 2060.33 613.754" stroke="url(#paint42_linear_169_9992)" stroke-width="2"/>
<path d="M442.018 1091.3C442.018 1091.3 715.324 802.011 924.785 837.716C1077.03 863.667 1118 1032.44 1268.28 1073.71C1585.67 1160.87 1989.42 639.781 1989.42 639.781" stroke="url(#paint43_linear_169_9992)" stroke-width="2"/>
<path d="M374.584 1126.91C374.584 1126.91 647.89 837.626 857.351 873.331C1009.6 899.282 1050.57 1068.06 1200.84 1109.32C1518.23 1196.48 1921.98 675.397 1921.98 675.397" stroke="url(#paint44_linear_169_9992)" stroke-width="2"/>
<path d="M310.26 1169.18C310.26 1169.18 583.566 879.895 793.027 915.599C945.271 941.551 986.244 1110.33 1136.52 1151.59C1453.91 1238.75 1857.66 717.665 1857.66 717.665" stroke="url(#paint45_linear_169_9992)" stroke-width="2"/>
<path d="M248.704 1216.43C248.704 1216.43 522.009 927.138 731.47 962.843C883.715 988.794 924.687 1157.57 1074.96 1198.84C1392.35 1285.99 1796.1 764.908 1796.1 764.908" stroke="url(#paint46_linear_169_9992)" stroke-width="2"/>
<path d="M177.407 1279.26C177.407 1279.26 450.712 989.972 660.173 1025.68C812.418 1051.63 853.39 1220.4 1003.67 1261.67C1321.06 1348.83 1724.81 827.742 1724.81 827.742" stroke="url(#paint47_linear_169_9992)" stroke-width="2"/>
<path d="M271.282 1309.29C271.282 1309.29 478.143 952.797 687.059 932.856C838.907 918.362 911.436 1073.65 1064.38 1074.75C1387.42 1077.05 1674.67 458.187 1674.67 458.187" stroke="url(#paint48_linear_169_9992)" stroke-width="2"/>
<defs>
<linearGradient id="paint0_linear_169_9992" x1="1700.71" y1="340.749" x2="1792.64" y2="975.214" gradientUnits="userSpaceOnUse">
<stop stop-color="#FF7900"/>
<stop offset="0.5625" stop-color="#00CCA7"/>
<stop offset="1" stop-color="white"/>
</linearGradient>
<linearGradient id="paint1_linear_169_9992" x1="2437.81" y1="551.721" x2="2290.2" y2="1163.41" gradientUnits="userSpaceOnUse">
<stop stop-color="#FF7900"/>
<stop offset="0.5625" stop-color="#00CCA7"/>
<stop offset="1" stop-color="white"/>
</linearGradient>
<linearGradient id="paint2_linear_169_9992" x1="2379.08" y1="603.471" x2="2231.47" y2="1215.16" gradientUnits="userSpaceOnUse">
<stop stop-color="#FF7900"/>
<stop offset="0.5625" stop-color="#00CCA7"/>
<stop offset="1" stop-color="white"/>
</linearGradient>
<linearGradient id="paint3_linear_169_9992" x1="2318.59" y1="652.508" x2="2170.98" y2="1264.2" gradientUnits="userSpaceOnUse">
<stop stop-color="#FF7900"/>
<stop offset="0.5625" stop-color="#00CCA7"/>
<stop offset="1" stop-color="white"/>
</linearGradient>
<linearGradient id="paint4_linear_169_9992" x1="2256.34" y1="698.574" x2="2108.73" y2="1310.26" gradientUnits="userSpaceOnUse">
<stop stop-color="#FF7900"/>
<stop offset="0.5625" stop-color="#00CCA7"/>
<stop offset="1" stop-color="white"/>
</linearGradient>
<linearGradient id="paint5_linear_169_9992" x1="2192.2" y1="741.211" x2="2044.59" y2="1352.9" gradientUnits="userSpaceOnUse">
<stop stop-color="#FF7900"/>
<stop offset="0.5625" stop-color="#00CCA7"/>
<stop offset="1" stop-color="white"/>
</linearGradient>
<linearGradient id="paint6_linear_169_9992" x1="2126.04" y1="779.707" x2="1978.43" y2="1391.4" gradientUnits="userSpaceOnUse">
<stop stop-color="#FF7900"/>
<stop offset="0.5625" stop-color="#00CCA7"/>
<stop offset="1" stop-color="white"/>
</linearGradient>
<linearGradient id="paint7_linear_169_9992" x1="2057.67" y1="813.02" x2="1910.06" y2="1424.71" gradientUnits="userSpaceOnUse">
<stop stop-color="#FF7900"/>
<stop offset="0.5625" stop-color="#00CCA7"/>
<stop offset="1" stop-color="white"/>
</linearGradient>
<linearGradient id="paint8_linear_169_9992" x1="1986.93" y1="839.629" x2="1839.32" y2="1451.32" gradientUnits="userSpaceOnUse">
<stop stop-color="#FF7900"/>
<stop offset="0.5625" stop-color="#00CCA7"/>
<stop offset="1" stop-color="white"/>
</linearGradient>
<linearGradient id="paint9_linear_169_9992" x1="1913.83" y1="857.272" x2="1766.22" y2="1468.96" gradientUnits="userSpaceOnUse">
<stop stop-color="#FF7900"/>
<stop offset="0.5625" stop-color="#00CCA7"/>
<stop offset="1" stop-color="white"/>
</linearGradient>
<linearGradient id="paint10_linear_169_9992" x1="1838.86" y1="862.67" x2="1691.25" y2="1474.36" gradientUnits="userSpaceOnUse">
<stop stop-color="#FF7900"/>
<stop offset="0.5625" stop-color="#00CCA7"/>
<stop offset="1" stop-color="white"/>
</linearGradient>
<linearGradient id="paint11_linear_169_9992" x1="1763.73" y1="851.562" x2="1616.12" y2="1463.25" gradientUnits="userSpaceOnUse">
<stop stop-color="#FF7900"/>
<stop offset="0.5625" stop-color="#00CCA7"/>
<stop offset="1" stop-color="white"/>
</linearGradient>
<linearGradient id="paint12_linear_169_9992" x1="1693.18" y1="820.155" x2="1545.57" y2="1431.84" gradientUnits="userSpaceOnUse">
<stop stop-color="#FF7900"/>
<stop offset="0.5625" stop-color="#00CCA7"/>
<stop offset="1" stop-color="white"/>
</linearGradient>
<linearGradient id="paint13_linear_169_9992" x1="1631.32" y1="767.097" x2="1483.71" y2="1378.79" gradientUnits="userSpaceOnUse">
<stop stop-color="#FF7900"/>
<stop offset="0.5625" stop-color="#00CCA7"/>
<stop offset="1" stop-color="white"/>
</linearGradient>
<linearGradient id="paint14_linear_169_9992" x1="1578.08" y1="702.589" x2="1430.47" y2="1314.28" gradientUnits="userSpaceOnUse">
<stop stop-color="#FF7900"/>
<stop offset="0.5625" stop-color="#00CCA7"/>
<stop offset="1" stop-color="white"/>
</linearGradient>
<linearGradient id="paint15_linear_169_9992" x1="1524.37" y1="638.583" x2="1376.76" y2="1250.27" gradientUnits="userSpaceOnUse">
<stop stop-color="#FF7900"/>
<stop offset="0.5625" stop-color="#00CCA7"/>
<stop offset="1" stop-color="white"/>
</linearGradient>
<linearGradient id="paint16_linear_169_9992" x1="1461.02" y1="588.032" x2="1313.41" y2="1199.72" gradientUnits="userSpaceOnUse">
<stop stop-color="#FF7900"/>
<stop offset="0.5625" stop-color="#00CCA7"/>
<stop offset="1" stop-color="white"/>
</linearGradient>
<linearGradient id="paint17_linear_169_9992" x1="1372.08" y1="559.895" x2="1224.47" y2="1171.58" gradientUnits="userSpaceOnUse">
<stop stop-color="#FF7900"/>
<stop offset="0.5625" stop-color="#00CCA7"/>
<stop offset="1" stop-color="white"/>
</linearGradient>
<linearGradient id="paint18_linear_169_9992" x1="1296.87" y1="562.257" x2="1149.26" y2="1173.95" gradientUnits="userSpaceOnUse">
<stop stop-color="#FF7900"/>
<stop offset="0.5625" stop-color="#00CCA7"/>
<stop offset="1" stop-color="white"/>
</linearGradient>
<linearGradient id="paint19_linear_169_9992" x1="1223.72" y1="579.663" x2="1076.11" y2="1191.35" gradientUnits="userSpaceOnUse">
<stop stop-color="#FF7900"/>
<stop offset="0.5625" stop-color="#00CCA7"/>
<stop offset="1" stop-color="white"/>
</linearGradient>
<linearGradient id="paint20_linear_169_9992" x1="1153.21" y1="606.979" x2="1005.6" y2="1218.67" gradientUnits="userSpaceOnUse">
<stop stop-color="#FF7900"/>
<stop offset="0.5625" stop-color="#00CCA7"/>
<stop offset="1" stop-color="white"/>
</linearGradient>
<linearGradient id="paint21_linear_169_9992" x1="1085.22" y1="641.249" x2="937.613" y2="1252.94" gradientUnits="userSpaceOnUse">
<stop stop-color="#FF7900"/>
<stop offset="0.5625" stop-color="#00CCA7"/>
<stop offset="1" stop-color="white"/>
</linearGradient>
<linearGradient id="paint22_linear_169_9992" x1="1019.56" y1="680.771" x2="871.951" y2="1292.46" gradientUnits="userSpaceOnUse">
<stop stop-color="#FF7900"/>
<stop offset="0.5625" stop-color="#00CCA7"/>
<stop offset="1" stop-color="white"/>
</linearGradient>
<linearGradient id="paint23_linear_169_9992" x1="942.795" y1="734.59" x2="795.185" y2="1346.28" gradientUnits="userSpaceOnUse">
<stop stop-color="#FF7900"/>
<stop offset="0.5625" stop-color="#00CCA7"/>
<stop offset="1" stop-color="white"/>
</linearGradient>
<linearGradient id="paint24_linear_169_9992" x1="2482.43" y1="316.959" x2="2405.65" y2="947.532" gradientUnits="userSpaceOnUse">
<stop stop-color="#FF7900"/>
<stop offset="0.5625" stop-color="#00CCA7"/>
<stop offset="1" stop-color="white"/>
</linearGradient>
<linearGradient id="paint25_linear_169_9992" x1="2432.5" y1="376.473" x2="2355.73" y2="1007.05" gradientUnits="userSpaceOnUse">
<stop stop-color="#FF7900"/>
<stop offset="0.5625" stop-color="#00CCA7"/>
<stop offset="1" stop-color="white"/>
</linearGradient>
<linearGradient id="paint26_linear_169_9992" x1="2378.88" y1="435.115" x2="2302.11" y2="1065.69" gradientUnits="userSpaceOnUse">
<stop stop-color="#FF7900"/>
<stop offset="0.5625" stop-color="#00CCA7"/>
<stop offset="1" stop-color="white"/>
</linearGradient>
<linearGradient id="paint27_linear_169_9992" x1="2323.29" y1="491.252" x2="2246.51" y2="1121.83" gradientUnits="userSpaceOnUse">
<stop stop-color="#FF7900"/>
<stop offset="0.5625" stop-color="#00CCA7"/>
<stop offset="1" stop-color="white"/>
</linearGradient>
<linearGradient id="paint28_linear_169_9992" x1="2265.67" y1="544.635" x2="2188.9" y2="1175.21" gradientUnits="userSpaceOnUse">
<stop stop-color="#FF7900"/>
<stop offset="0.5625" stop-color="#00CCA7"/>
<stop offset="1" stop-color="white"/>
</linearGradient>
<linearGradient id="paint29_linear_169_9992" x1="2205.9" y1="594.805" x2="2129.13" y2="1225.38" gradientUnits="userSpaceOnUse">
<stop stop-color="#FF7900"/>
<stop offset="0.5625" stop-color="#00CCA7"/>
<stop offset="1" stop-color="white"/>
</linearGradient>
<linearGradient id="paint30_linear_169_9992" x1="2143.76" y1="641.076" x2="2066.98" y2="1271.65" gradientUnits="userSpaceOnUse">
<stop stop-color="#FF7900"/>
<stop offset="0.5625" stop-color="#00CCA7"/>
<stop offset="1" stop-color="white"/>
</linearGradient>
<linearGradient id="paint31_linear_169_9992" x1="2078.97" y1="682.431" x2="2002.19" y2="1313.01" gradientUnits="userSpaceOnUse">
<stop stop-color="#FF7900"/>
<stop offset="0.5625" stop-color="#00CCA7"/>
<stop offset="1" stop-color="white"/>
</linearGradient>
<linearGradient id="paint32_linear_169_9992" x1="2011.25" y1="717.367" x2="1934.48" y2="1347.94" gradientUnits="userSpaceOnUse">
<stop stop-color="#FF7900"/>
<stop offset="0.5625" stop-color="#00CCA7"/>
<stop offset="1" stop-color="white"/>
</linearGradient>
<linearGradient id="paint33_linear_169_9992" x1="1940.41" y1="743.624" x2="1863.63" y2="1374.2" gradientUnits="userSpaceOnUse">
<stop stop-color="#FF7900"/>
<stop offset="0.5625" stop-color="#00CCA7"/>
<stop offset="1" stop-color="white"/>
</linearGradient>
<linearGradient id="paint34_linear_169_9992" x1="1866.63" y1="757.864" x2="1789.86" y2="1388.44" gradientUnits="userSpaceOnUse">
<stop stop-color="#FF7900"/>
<stop offset="0.5625" stop-color="#00CCA7"/>
<stop offset="1" stop-color="white"/>
</linearGradient>
<linearGradient id="paint35_linear_169_9992" x1="1791.25" y1="755.622" x2="1714.48" y2="1386.2" gradientUnits="userSpaceOnUse">
<stop stop-color="#FF7900"/>
<stop offset="0.5625" stop-color="#00CCA7"/>
<stop offset="1" stop-color="white"/>
</linearGradient>
<linearGradient id="paint36_linear_169_9992" x1="1718.63" y1="732.559" x2="1641.85" y2="1363.13" gradientUnits="userSpaceOnUse">
<stop stop-color="#FF7900"/>
<stop offset="0.5625" stop-color="#00CCA7"/>
<stop offset="1" stop-color="white"/>
</linearGradient>
<linearGradient id="paint37_linear_169_9992" x1="1652.71" y1="686.846" x2="1575.93" y2="1317.42" gradientUnits="userSpaceOnUse">
<stop stop-color="#FF7900"/>
<stop offset="0.5625" stop-color="#00CCA7"/>
<stop offset="1" stop-color="white"/>
</linearGradient>
<linearGradient id="paint38_linear_169_9992" x1="1594.31" y1="628.662" x2="1517.53" y2="1259.24" gradientUnits="userSpaceOnUse">
<stop stop-color="#FF7900"/>
<stop offset="0.5625" stop-color="#00CCA7"/>
<stop offset="1" stop-color="white"/>
</linearGradient>
<linearGradient id="paint39_linear_169_9992" x1="1535.5" y1="571.043" x2="1458.73" y2="1201.62" gradientUnits="userSpaceOnUse">
<stop stop-color="#FF7900"/>
<stop offset="0.5625" stop-color="#00CCA7"/>
<stop offset="1" stop-color="white"/>
</linearGradient>
<linearGradient id="paint40_linear_169_9992" x1="1468.33" y1="527.997" x2="1391.55" y2="1158.57" gradientUnits="userSpaceOnUse">
<stop stop-color="#FF7900"/>
<stop offset="0.5625" stop-color="#00CCA7"/>
<stop offset="1" stop-color="white"/>
</linearGradient>
<linearGradient id="paint41_linear_169_9992" x1="1377.77" y1="510.376" x2="1300.99" y2="1140.95" gradientUnits="userSpaceOnUse">
<stop stop-color="#FF7900"/>
<stop offset="0.5625" stop-color="#00CCA7"/>
<stop offset="1" stop-color="white"/>
</linearGradient>
<linearGradient id="paint42_linear_169_9992" x1="1303.5" y1="521.605" x2="1226.72" y2="1152.18" gradientUnits="userSpaceOnUse">
<stop stop-color="#FF7900"/>
<stop offset="0.5625" stop-color="#00CCA7"/>
<stop offset="1" stop-color="white"/>
</linearGradient>
<linearGradient id="paint43_linear_169_9992" x1="1232.58" y1="547.632" x2="1155.8" y2="1178.21" gradientUnits="userSpaceOnUse">
<stop stop-color="#FF7900"/>
<stop offset="0.5625" stop-color="#00CCA7"/>
<stop offset="1" stop-color="white"/>
</linearGradient>
<linearGradient id="paint44_linear_169_9992" x1="1165.15" y1="583.248" x2="1088.37" y2="1213.82" gradientUnits="userSpaceOnUse">
<stop stop-color="#FF7900"/>
<stop offset="0.5625" stop-color="#00CCA7"/>
<stop offset="1" stop-color="white"/>
</linearGradient>
<linearGradient id="paint45_linear_169_9992" x1="1100.82" y1="625.516" x2="1024.05" y2="1256.09" gradientUnits="userSpaceOnUse">
<stop stop-color="#FF7900"/>
<stop offset="0.5625" stop-color="#00CCA7"/>
<stop offset="1" stop-color="white"/>
</linearGradient>
<linearGradient id="paint46_linear_169_9992" x1="1039.26" y1="672.759" x2="962.489" y2="1303.33" gradientUnits="userSpaceOnUse">
<stop stop-color="#FF7900"/>
<stop offset="0.5625" stop-color="#00CCA7"/>
<stop offset="1" stop-color="white"/>
</linearGradient>
<linearGradient id="paint47_linear_169_9992" x1="967.968" y1="735.593" x2="891.192" y2="1366.17" gradientUnits="userSpaceOnUse">
<stop stop-color="#FF7900"/>
<stop offset="0.5625" stop-color="#00CCA7"/>
<stop offset="1" stop-color="white"/>
</linearGradient>
<linearGradient id="paint48_linear_169_9992" x1="927.014" y1="566.508" x2="1018.94" y2="1200.97" gradientUnits="userSpaceOnUse">
<stop stop-color="#FF7900"/>
<stop offset="0.5625" stop-color="#00CCA7"/>
<stop offset="1" stop-color="white"/>
</linearGradient>
</defs>
</svg>
