<svg xmlns="http://www.w3.org/2000/svg" width="1177" height="1950" viewBox="0 0 1177 1950" fill="none">
    <path d="M590.463 1056.11C601.832 1148.76 651.225 1218.51 710.516 1218.51C778.187 1218.51 833.019 1127.65 833.019 1015.51C833.019 917.34 790.927 835.41 735.017 816.571V402.375C790.927 383.536 833.019 301.688 833.019 203.437C833.019 91.3006 778.187 0.438721 710.516 0.438721C651.225 0.438721 601.832 70.1888 590.463 162.837H242.506C231.138 70.1888 181.745 0.438721 122.454 0.438721C54.8322 0.51992 0 91.3818 0 203.518C0 301.688 42.0919 383.617 98.0022 402.456V816.653C42.0919 835.491 0 917.34 0 1015.59C0 1127.73 54.8322 1218.59 122.503 1218.59C181.745 1218.59 231.187 1148.84 242.555 1056.19H590.512L590.463 1056.11ZM245.006 406.516H588.013V812.511H245.006V406.516ZM1170.44 1808.5C1159.27 1870.78 1128.64 1921.45 1091.11 1939.96C1016.23 1976.91 947.191 1898.55 933.52 1786.82H585.563C571.892 1898.55 502.849 1976.91 427.927 1939.88C390.343 1921.29 359.766 1870.62 348.594 1808.34C326.298 1684.27 373.633 1569.94 441.01 1547.2V1299.54H588.013V1543.14H931.021V1019.41C927.199 956.396 942.879 892.249 974.877 857.658C1072.78 751.693 1176.03 865.534 1176.03 1019.33C1176.03 1117.5 1133.98 1199.34 1078.12 1218.18C1078.12 1218.18 1078.07 1218.18 1078.07 1218.34V1547.2C1145.5 1569.86 1192.78 1684.27 1170.49 1808.34L1170.44 1808.5Z" fill="#3F4CB0" fill-opacity="0.06"/>
</svg>